M48
; DRILL file {KiCad (5.99.0-9544-g366189b864)} date 03/13/21 10:43:44
; FORMAT={-:-/ absolute / inch / decimal}
; #@! TF.CreationDate,2021-03-13T10:43:44+01:00
; #@! TF.GenerationSoftware,Kicad,Pcbnew,(5.99.0-9544-g366189b864)
; #@! TF.FileFunction,Plated,1,2,PTH
FMAT,2
INCH
T1C0.0157
T2C0.0295
T3C0.0315
T4C0.0354
T5C0.0394
T6C0.0433
T7C0.0512
T8C0.0598
T9C0.1260
%
G90
G05
T1
X2.7559Y-1.5354
X2.815Y-1.7323
X2.815Y-1.8307
X2.815Y-2.126
X2.8346Y-1.9685
X2.8543Y-3.0709
X2.8996Y-1.2726
X2.9331Y-1.8898
X2.9496Y-2.1082
X2.9528Y-2.6969
X2.9587Y-0.9075
X2.9783Y-1.1831
X2.9921Y-2.6772
X2.9966Y-0.8666
X3.0111Y-2.0862
X3.0177Y-0.8091
X3.0315Y-2.7953
X3.0315Y-2.9921
X3.0512Y-2.3228
X3.1161Y-0.8484
X3.1161Y-0.8878
X3.1555Y-1.2136
X3.1693Y-1.4764
X3.189Y-2.9035
X3.1949Y-1.1831
X3.2146Y-0.9665
X3.2874Y-2.8053
X3.3858Y-2.4213
X3.3858Y-2.9331
X3.4449Y-2.4016
X3.4705Y-0.8287
X3.4843Y-2.7165
X3.5433Y-2.4016
X3.5593Y-2.4766
X3.6024Y-2.4016
X3.622Y-2.8937
X3.622Y-2.9724
X3.7598Y-1.752
X3.7795Y-0.689
X3.7795Y-1.8898
X3.7795Y-2.5933
X3.7795Y-2.7953
X3.8184Y-2.5792
X3.8189Y-2.6969
X3.8386Y-3.2677
X3.8386Y-3.4055
X3.8583Y-2.6772
X3.878Y-1.8701
X3.9572Y-2.6383
X3.9626Y-0.75
X3.9823Y-2.0492
X4.0413Y-1.9902
X4.0838Y-2.2549
X4.1339Y-2.1654
X4.1535Y-2.6575
X4.1535Y-2.7362
X4.1988Y-2.0492
X4.2323Y-1.4961
X4.2913Y-1.6732
X4.2913Y-1.8701
X4.2913Y-2.627
X4.311Y-2.7559
X4.311Y-2.9528
X4.3394Y-2.6262
X4.3694Y-3.3376
X4.3696Y-3.4144
X4.3755Y-1.596
X4.4094Y-3.3661
X4.4154Y-2.0886
X4.417Y-1.8986
X4.4345Y-2.2072
X4.435Y-2.1673
X4.4488Y-1.8701
X4.4552Y-1.5266
X4.4866Y-1.9094
X4.5669Y-3.6811
X4.5925Y-1.872
X4.626Y-2.2638
X4.6319Y-1.7923
X4.6654Y-1.5551
X4.6654Y-2.6772
X4.6713Y-1.6752
X4.7047Y-2.3622
X4.7182Y-2.6485
X4.7239Y-2.4798
X4.7249Y-2.5596
X4.7835Y-2.5394
X4.7835Y-2.5984
X4.793Y-2.6398
X4.8031Y-2.126
X4.8031Y-2.3819
X4.8031Y-2.4213
X4.8031Y-2.7165
X4.8228Y-2.0472
X4.8228Y-2.0866
X4.8567Y-2.689
X4.8583Y-2.1285
X5.0591Y-2.2441
X5.0787Y-2.0669
X5.1378Y-2.2441
X5.318Y-2.3298
X5.4724Y-1.752
X5.5086Y-1.8078
X5.5507Y-1.7908
X5.5709Y-1.378
X5.5709Y-1.9329
X5.6299Y-0.748
X5.6299Y-1.0236
X5.6491Y-1.8302
X5.6496Y-0.8268
X5.6496Y-2.2047
X5.6496Y-3.6811
X5.6496Y-3.7205
X5.6496Y-3.7598
X5.6496Y-3.7992
X5.6496Y-3.8386
X5.6693Y-1.6535
X5.689Y-1.8307
X5.689Y-2.5394
X5.689Y-3.6811
X5.689Y-3.7205
X5.689Y-3.7598
X5.689Y-3.7992
X5.689Y-3.8386
X5.7283Y-3.6811
X5.7283Y-3.7205
X5.7283Y-3.7598
X5.7283Y-3.7992
X5.7283Y-3.8386
X5.748Y-1.5551
X5.7677Y-3.6811
X5.7677Y-3.7205
X5.7677Y-3.7598
X5.7677Y-3.7992
X5.7677Y-3.8386
X5.8071Y-3.6811
X5.8071Y-3.7205
X5.8071Y-3.7598
X5.8071Y-3.7992
X5.8071Y-3.8386
X5.8268Y-1.1614
X5.8268Y-1.3583
X5.8465Y-1.4147
X5.8465Y-3.6811
X5.8465Y-3.7205
X5.8465Y-3.7598
X5.8465Y-3.7992
X5.8465Y-3.8386
X5.8612Y-2.5837
X5.8661Y-1.6535
X5.8858Y-1.6142
X5.8858Y-3.6811
X5.8858Y-3.7205
X5.8858Y-3.7598
X5.8858Y-3.7992
X5.8858Y-3.8386
X5.8927Y-2.091
X5.9055Y-1.4567
X5.9252Y-1.6339
X5.9252Y-1.8504
X5.9252Y-3.6811
X5.9252Y-3.7205
X5.9252Y-3.7598
X5.9252Y-3.7992
X5.9252Y-3.8386
X5.9636Y-1.1417
X5.9646Y-1.6142
X5.9646Y-3.6811
X5.9646Y-3.7205
X5.9646Y-3.7598
X5.9646Y-3.7992
X5.9646Y-3.8386
X5.9688Y-1.3924
X5.9831Y-1.4764
X6.0039Y-1.6142
X6.0039Y-2.0866
X6.0253Y-1.4892
X6.0439Y-1.4302
X6.063Y-1.3386
X6.0707Y-1.4879
X6.0827Y-1.5354
X6.0896Y-1.5945
X6.122Y-1.2008
X6.1811Y-1.7717
X6.2008Y-0.7677
X6.2205Y-1.4567
X6.234Y-1.5315
X6.2795Y-1.5551
X6.2795Y-1.6339
X6.3189Y-0.689
X6.3386Y-0.7874
X6.3583Y-1.1811
X6.3976Y-2.4409
X6.437Y-1.1811
X6.5354Y-1.3189
X6.5748Y-1.0236
T2
X2.7677Y-1.1594
X2.8177Y-1.1594
X2.8677Y-1.1594
X3.2036Y-1.6429
X3.2036Y-1.6929
X3.2036Y-1.7429
X3.3449Y-1.5748
X3.3949Y-1.5748
X3.4449Y-1.5748
X3.8232Y-1.7933
X3.8732Y-1.7933
X3.9232Y-1.7933
X5.5168Y-0.7374
X5.5168Y-0.7874
X5.5168Y-0.8374
X5.5521Y-2.6291
X5.5521Y-2.6791
X5.5521Y-2.7291
X5.698Y-0.755
X5.748Y-0.755
X5.798Y-0.755
X6.3839Y-2.0976
X6.3839Y-2.1476
X6.3839Y-2.1976
T3
X2.5591Y-1.1614
X2.6575Y-1.4173
X2.7165Y-1.0039
X2.7559Y-1.5354
X2.8937Y-1.0039
X3.6024Y-1.4173
X3.6024Y-1.9291
X4.0945Y-1.811
X4.7835Y-2.3031
X5.003Y-2.2835
T4
X6.6398Y-0.7484
X6.6398Y-0.8484
X6.6398Y-1.024
X6.6398Y-1.124
X6.6398Y-1.2722
X6.6398Y-1.3572
X6.6398Y-1.4422
X6.6398Y-1.5272
X6.6398Y-2.1264
X6.6398Y-2.2264
X6.6398Y-2.402
X6.6398Y-2.502
T5
X2.2819Y-2.5449
X2.2819Y-2.6449
X2.2819Y-2.7449
X2.2819Y-2.8449
X2.2819Y-2.9449
X2.2819Y-3.0449
X2.2819Y-3.1449
X2.2819Y-3.2449
X2.2819Y-3.3449
X2.2819Y-3.4449
X2.2819Y-3.5449
X2.2819Y-3.6449
X2.2819Y-3.7449
X2.2819Y-3.8449
X2.2819Y-3.9449
X2.2819Y-4.0449
X2.2819Y-4.1449
X2.2819Y-4.2449
X2.2819Y-4.3449
X2.2819Y-4.4449
X2.3819Y-2.5449
X2.3819Y-2.6449
X2.3819Y-2.7449
X2.3819Y-2.8449
X2.3819Y-2.9449
X2.3819Y-3.0449
X2.3819Y-3.1449
X2.3819Y-3.2449
X2.3819Y-3.3449
X2.3819Y-3.4449
X2.3819Y-3.5449
X2.3819Y-3.6449
X2.3819Y-3.7449
X2.3819Y-3.8449
X2.3819Y-3.9449
X2.3819Y-4.0449
X2.3819Y-4.1449
X2.3819Y-4.2449
X2.3819Y-4.3449
X2.3819Y-4.4449
X3.0374Y-1.0256
X3.1617Y-2.1457
X6.062Y-0.6858
X6.062Y-0.7858
X6.062Y-0.8858
X6.378Y-1.7126
X6.378Y-1.8307
X6.378Y-1.9488
X6.478Y-1.7126
X6.478Y-1.8307
X6.478Y-1.9488
X6.578Y-1.7126
X6.578Y-1.8307
X6.578Y-1.9488
T6
X4.7736Y-1.4697
X4.8406Y-1.4697
X4.9075Y-1.4697
X4.9744Y-1.4697
X5.0413Y-1.4697
T7
X2.8543Y-3.8346
X3.0906Y-3.7559
X3.3268Y-3.8346
X3.3268Y-4.315
X3.5433Y-3.8346
X3.7795Y-3.7559
X4.0157Y-3.8346
X4.0157Y-4.315
X4.2323Y-3.8346
X4.4685Y-3.7559
X4.7047Y-3.8346
X4.7047Y-4.315
X4.9213Y-3.8346
X5.1575Y-3.7559
X5.3937Y-3.8346
X5.3937Y-4.315
T8
X2.3622Y-2.1047
X2.3622Y-2.3047
T9
X6.2854Y-4.3524
X6.6791Y-4.3504
T0
M30
