%TF.GenerationSoftware,KiCad,Pcbnew,(5.99.0-9544-g366189b864)*%
%TF.CreationDate,2021-03-13T10:43:42+01:00*%
%TF.ProjectId,PowerBoard 1,506f7765-7242-46f6-9172-6420312e6b69,rev?*%
%TF.SameCoordinates,Original*%
%TF.FileFunction,Legend,Top*%
%TF.FilePolarity,Positive*%
%FSLAX46Y46*%
G04 Gerber Fmt 4.6, Leading zero omitted, Abs format (unit mm)*
G04 Created by KiCad (PCBNEW (5.99.0-9544-g366189b864)) date 2021-03-13 10:43:42*
%MOMM*%
%LPD*%
G01*
G04 APERTURE LIST*
%ADD10C,0.150000*%
%ADD11C,0.300000*%
%ADD12C,0.120000*%
G04 APERTURE END LIST*
D10*
X143976190Y-90500000D02*
X143785714Y-90404761D01*
X143500000Y-90404761D01*
X143214285Y-90500000D01*
X143023809Y-90690476D01*
X142928571Y-90880952D01*
X142833333Y-91261904D01*
X142833333Y-91547619D01*
X142928571Y-91928571D01*
X143023809Y-92119047D01*
X143214285Y-92309523D01*
X143500000Y-92404761D01*
X143690476Y-92404761D01*
X143976190Y-92309523D01*
X144071428Y-92214285D01*
X144071428Y-91547619D01*
X143690476Y-91547619D01*
X144928571Y-92404761D02*
X144928571Y-90404761D01*
X146071428Y-92404761D01*
X146071428Y-90404761D01*
X147023809Y-92404761D02*
X147023809Y-90404761D01*
X147500000Y-90404761D01*
X147785714Y-90500000D01*
X147976190Y-90690476D01*
X148071428Y-90880952D01*
X148166666Y-91261904D01*
X148166666Y-91547619D01*
X148071428Y-91928571D01*
X147976190Y-92119047D01*
X147785714Y-92309523D01*
X147500000Y-92404761D01*
X147023809Y-92404761D01*
X64214285Y-52404761D02*
X64880952Y-54404761D01*
X65547619Y-52404761D01*
X66214285Y-54404761D02*
X66214285Y-53071428D01*
X66214285Y-52404761D02*
X66119047Y-52500000D01*
X66214285Y-52595238D01*
X66309523Y-52500000D01*
X66214285Y-52404761D01*
X66214285Y-52595238D01*
X67166666Y-53071428D02*
X67166666Y-54404761D01*
X67166666Y-53261904D02*
X67261904Y-53166666D01*
X67452380Y-53071428D01*
X67738095Y-53071428D01*
X67928571Y-53166666D01*
X68023809Y-53357142D01*
X68023809Y-54404761D01*
X68976190Y-53642857D02*
X70500000Y-53642857D01*
X69738095Y-54404761D02*
X69738095Y-52880952D01*
X169071428Y-43666666D02*
X169547619Y-43666666D01*
X168976190Y-43952380D02*
X169309523Y-42952380D01*
X169642857Y-43952380D01*
X170404761Y-43952380D02*
X170404761Y-42952380D01*
X170404761Y-43904761D02*
X170309523Y-43952380D01*
X170119047Y-43952380D01*
X170023809Y-43904761D01*
X169976190Y-43857142D01*
X169928571Y-43761904D01*
X169928571Y-43476190D01*
X169976190Y-43380952D01*
X170023809Y-43333333D01*
X170119047Y-43285714D01*
X170309523Y-43285714D01*
X170404761Y-43333333D01*
X171309523Y-43952380D02*
X171309523Y-42952380D01*
X171309523Y-43904761D02*
X171214285Y-43952380D01*
X171023809Y-43952380D01*
X170928571Y-43904761D01*
X170880952Y-43857142D01*
X170833333Y-43761904D01*
X170833333Y-43476190D01*
X170880952Y-43380952D01*
X170928571Y-43333333D01*
X171023809Y-43285714D01*
X171214285Y-43285714D01*
X171309523Y-43333333D01*
X171785714Y-43952380D02*
X171785714Y-43285714D01*
X171785714Y-43476190D02*
X171833333Y-43380952D01*
X171880952Y-43333333D01*
X171976190Y-43285714D01*
X172071428Y-43285714D01*
X172928571Y-43952380D02*
X172357142Y-43952380D01*
X172642857Y-43952380D02*
X172642857Y-42952380D01*
X172547619Y-43095238D01*
X172452380Y-43190476D01*
X172357142Y-43238095D01*
X169071428Y-46861666D02*
X169547619Y-46861666D01*
X168976190Y-47147380D02*
X169309523Y-46147380D01*
X169642857Y-47147380D01*
X170404761Y-47147380D02*
X170404761Y-46147380D01*
X170404761Y-47099761D02*
X170309523Y-47147380D01*
X170119047Y-47147380D01*
X170023809Y-47099761D01*
X169976190Y-47052142D01*
X169928571Y-46956904D01*
X169928571Y-46671190D01*
X169976190Y-46575952D01*
X170023809Y-46528333D01*
X170119047Y-46480714D01*
X170309523Y-46480714D01*
X170404761Y-46528333D01*
X171309523Y-47147380D02*
X171309523Y-46147380D01*
X171309523Y-47099761D02*
X171214285Y-47147380D01*
X171023809Y-47147380D01*
X170928571Y-47099761D01*
X170880952Y-47052142D01*
X170833333Y-46956904D01*
X170833333Y-46671190D01*
X170880952Y-46575952D01*
X170928571Y-46528333D01*
X171023809Y-46480714D01*
X171214285Y-46480714D01*
X171309523Y-46528333D01*
X171785714Y-47147380D02*
X171785714Y-46480714D01*
X171785714Y-46671190D02*
X171833333Y-46575952D01*
X171880952Y-46528333D01*
X171976190Y-46480714D01*
X172071428Y-46480714D01*
X172357142Y-46242619D02*
X172404761Y-46195000D01*
X172500000Y-46147380D01*
X172738095Y-46147380D01*
X172833333Y-46195000D01*
X172880952Y-46242619D01*
X172928571Y-46337857D01*
X172928571Y-46433095D01*
X172880952Y-46575952D01*
X172309523Y-47147380D01*
X172928571Y-47147380D01*
X65476190Y-57500000D02*
X65285714Y-57404761D01*
X65000000Y-57404761D01*
X64714285Y-57500000D01*
X64523809Y-57690476D01*
X64428571Y-57880952D01*
X64333333Y-58261904D01*
X64333333Y-58547619D01*
X64428571Y-58928571D01*
X64523809Y-59119047D01*
X64714285Y-59309523D01*
X65000000Y-59404761D01*
X65190476Y-59404761D01*
X65476190Y-59309523D01*
X65571428Y-59214285D01*
X65571428Y-58547619D01*
X65190476Y-58547619D01*
X66428571Y-59404761D02*
X66428571Y-57404761D01*
X67571428Y-59404761D01*
X67571428Y-57404761D01*
X68523809Y-59404761D02*
X68523809Y-57404761D01*
X69000000Y-57404761D01*
X69285714Y-57500000D01*
X69476190Y-57690476D01*
X69571428Y-57880952D01*
X69666666Y-58261904D01*
X69666666Y-58547619D01*
X69571428Y-58928571D01*
X69476190Y-59119047D01*
X69285714Y-59309523D01*
X69000000Y-59404761D01*
X68523809Y-59404761D01*
X142714285Y-78404761D02*
X143380952Y-80404761D01*
X144047619Y-78404761D01*
X145000000Y-80404761D02*
X144809523Y-80309523D01*
X144714285Y-80214285D01*
X144619047Y-80023809D01*
X144619047Y-79452380D01*
X144714285Y-79261904D01*
X144809523Y-79166666D01*
X145000000Y-79071428D01*
X145285714Y-79071428D01*
X145476190Y-79166666D01*
X145571428Y-79261904D01*
X145666666Y-79452380D01*
X145666666Y-80023809D01*
X145571428Y-80214285D01*
X145476190Y-80309523D01*
X145285714Y-80404761D01*
X145000000Y-80404761D01*
X147380952Y-79071428D02*
X147380952Y-80404761D01*
X146523809Y-79071428D02*
X146523809Y-80119047D01*
X146619047Y-80309523D01*
X146809523Y-80404761D01*
X147095238Y-80404761D01*
X147285714Y-80309523D01*
X147380952Y-80214285D01*
X148047619Y-79071428D02*
X148809523Y-79071428D01*
X148333333Y-78404761D02*
X148333333Y-80119047D01*
X148428571Y-80309523D01*
X148619047Y-80404761D01*
X148809523Y-80404761D01*
X149476190Y-79642857D02*
X151000000Y-79642857D01*
X150238095Y-80404761D02*
X150238095Y-78880952D01*
X151876428Y-17547619D02*
X151828809Y-17690476D01*
X151781190Y-17738095D01*
X151685952Y-17785714D01*
X151543095Y-17785714D01*
X151447857Y-17738095D01*
X151400238Y-17690476D01*
X151352619Y-17595238D01*
X151352619Y-17214285D01*
X152352619Y-17214285D01*
X152352619Y-17547619D01*
X152305000Y-17642857D01*
X152257380Y-17690476D01*
X152162142Y-17738095D01*
X152066904Y-17738095D01*
X151971666Y-17690476D01*
X151924047Y-17642857D01*
X151876428Y-17547619D01*
X151876428Y-17214285D01*
X152352619Y-18404761D02*
X152352619Y-18595238D01*
X152305000Y-18690476D01*
X152209761Y-18785714D01*
X152019285Y-18833333D01*
X151685952Y-18833333D01*
X151495476Y-18785714D01*
X151400238Y-18690476D01*
X151352619Y-18595238D01*
X151352619Y-18404761D01*
X151400238Y-18309523D01*
X151495476Y-18214285D01*
X151685952Y-18166666D01*
X152019285Y-18166666D01*
X152209761Y-18214285D01*
X152305000Y-18309523D01*
X152352619Y-18404761D01*
X152352619Y-19452380D02*
X152352619Y-19642857D01*
X152305000Y-19738095D01*
X152209761Y-19833333D01*
X152019285Y-19880952D01*
X151685952Y-19880952D01*
X151495476Y-19833333D01*
X151400238Y-19738095D01*
X151352619Y-19642857D01*
X151352619Y-19452380D01*
X151400238Y-19357142D01*
X151495476Y-19261904D01*
X151685952Y-19214285D01*
X152019285Y-19214285D01*
X152209761Y-19261904D01*
X152305000Y-19357142D01*
X152352619Y-19452380D01*
X152352619Y-20166666D02*
X152352619Y-20738095D01*
X151352619Y-20452380D02*
X152352619Y-20452380D01*
X151352619Y-21595238D02*
X151352619Y-21023809D01*
X151352619Y-21309523D02*
X152352619Y-21309523D01*
X152209761Y-21214285D01*
X152114523Y-21119047D01*
X152066904Y-21023809D01*
X150742619Y-16619047D02*
X150742619Y-16809523D01*
X150695000Y-16904761D01*
X150599761Y-17000000D01*
X150409285Y-17047619D01*
X150075952Y-17047619D01*
X149885476Y-17000000D01*
X149790238Y-16904761D01*
X149742619Y-16809523D01*
X149742619Y-16619047D01*
X149790238Y-16523809D01*
X149885476Y-16428571D01*
X150075952Y-16380952D01*
X150409285Y-16380952D01*
X150599761Y-16428571D01*
X150695000Y-16523809D01*
X150742619Y-16619047D01*
X150266428Y-17809523D02*
X150266428Y-17476190D01*
X149742619Y-17476190D02*
X150742619Y-17476190D01*
X150742619Y-17952380D01*
X150266428Y-18666666D02*
X150266428Y-18333333D01*
X149742619Y-18333333D02*
X150742619Y-18333333D01*
X150742619Y-18809523D01*
X150742619Y-20142857D02*
X150742619Y-20333333D01*
X150695000Y-20428571D01*
X150599761Y-20523809D01*
X150409285Y-20571428D01*
X150075952Y-20571428D01*
X149885476Y-20523809D01*
X149790238Y-20428571D01*
X149742619Y-20333333D01*
X149742619Y-20142857D01*
X149790238Y-20047619D01*
X149885476Y-19952380D01*
X150075952Y-19904761D01*
X150409285Y-19904761D01*
X150599761Y-19952380D01*
X150695000Y-20047619D01*
X150742619Y-20142857D01*
X149742619Y-21000000D02*
X150742619Y-21000000D01*
X149742619Y-21571428D01*
X150742619Y-21571428D01*
X166119047Y-40452380D02*
X166309523Y-40452380D01*
X166404761Y-40500000D01*
X166500000Y-40595238D01*
X166547619Y-40785714D01*
X166547619Y-41119047D01*
X166500000Y-41309523D01*
X166404761Y-41404761D01*
X166309523Y-41452380D01*
X166119047Y-41452380D01*
X166023809Y-41404761D01*
X165928571Y-41309523D01*
X165880952Y-41119047D01*
X165880952Y-40785714D01*
X165928571Y-40595238D01*
X166023809Y-40500000D01*
X166119047Y-40452380D01*
X167309523Y-40928571D02*
X166976190Y-40928571D01*
X166976190Y-41452380D02*
X166976190Y-40452380D01*
X167452380Y-40452380D01*
X168166666Y-40928571D02*
X167833333Y-40928571D01*
X167833333Y-41452380D02*
X167833333Y-40452380D01*
X168309523Y-40452380D01*
X169642857Y-40452380D02*
X169833333Y-40452380D01*
X169928571Y-40500000D01*
X170023809Y-40595238D01*
X170071428Y-40785714D01*
X170071428Y-41119047D01*
X170023809Y-41309523D01*
X169928571Y-41404761D01*
X169833333Y-41452380D01*
X169642857Y-41452380D01*
X169547619Y-41404761D01*
X169452380Y-41309523D01*
X169404761Y-41119047D01*
X169404761Y-40785714D01*
X169452380Y-40595238D01*
X169547619Y-40500000D01*
X169642857Y-40452380D01*
X170500000Y-41452380D02*
X170500000Y-40452380D01*
X171071428Y-41452380D01*
X171071428Y-40452380D01*
X169071428Y-49861666D02*
X169547619Y-49861666D01*
X168976190Y-50147380D02*
X169309523Y-49147380D01*
X169642857Y-50147380D01*
X170404761Y-50147380D02*
X170404761Y-49147380D01*
X170404761Y-50099761D02*
X170309523Y-50147380D01*
X170119047Y-50147380D01*
X170023809Y-50099761D01*
X169976190Y-50052142D01*
X169928571Y-49956904D01*
X169928571Y-49671190D01*
X169976190Y-49575952D01*
X170023809Y-49528333D01*
X170119047Y-49480714D01*
X170309523Y-49480714D01*
X170404761Y-49528333D01*
X171309523Y-50147380D02*
X171309523Y-49147380D01*
X171309523Y-50099761D02*
X171214285Y-50147380D01*
X171023809Y-50147380D01*
X170928571Y-50099761D01*
X170880952Y-50052142D01*
X170833333Y-49956904D01*
X170833333Y-49671190D01*
X170880952Y-49575952D01*
X170928571Y-49528333D01*
X171023809Y-49480714D01*
X171214285Y-49480714D01*
X171309523Y-49528333D01*
X171785714Y-50147380D02*
X171785714Y-49480714D01*
X171785714Y-49671190D02*
X171833333Y-49575952D01*
X171880952Y-49528333D01*
X171976190Y-49480714D01*
X172071428Y-49480714D01*
X172309523Y-49147380D02*
X172928571Y-49147380D01*
X172595238Y-49528333D01*
X172738095Y-49528333D01*
X172833333Y-49575952D01*
X172880952Y-49623571D01*
X172928571Y-49718809D01*
X172928571Y-49956904D01*
X172880952Y-50052142D01*
X172833333Y-50099761D01*
X172738095Y-50147380D01*
X172452380Y-50147380D01*
X172357142Y-50099761D01*
X172309523Y-50052142D01*
D11*
X82107142Y-80263571D02*
X82107142Y-78763571D01*
X82678571Y-78763571D01*
X82821428Y-78835000D01*
X82892857Y-78906428D01*
X82964285Y-79049285D01*
X82964285Y-79263571D01*
X82892857Y-79406428D01*
X82821428Y-79477857D01*
X82678571Y-79549285D01*
X82107142Y-79549285D01*
X83821428Y-80263571D02*
X83678571Y-80192142D01*
X83607142Y-80120714D01*
X83535714Y-79977857D01*
X83535714Y-79549285D01*
X83607142Y-79406428D01*
X83678571Y-79335000D01*
X83821428Y-79263571D01*
X84035714Y-79263571D01*
X84178571Y-79335000D01*
X84250000Y-79406428D01*
X84321428Y-79549285D01*
X84321428Y-79977857D01*
X84250000Y-80120714D01*
X84178571Y-80192142D01*
X84035714Y-80263571D01*
X83821428Y-80263571D01*
X84821428Y-79263571D02*
X85107142Y-80263571D01*
X85392857Y-79549285D01*
X85678571Y-80263571D01*
X85964285Y-79263571D01*
X87107142Y-80192142D02*
X86964285Y-80263571D01*
X86678571Y-80263571D01*
X86535714Y-80192142D01*
X86464285Y-80049285D01*
X86464285Y-79477857D01*
X86535714Y-79335000D01*
X86678571Y-79263571D01*
X86964285Y-79263571D01*
X87107142Y-79335000D01*
X87178571Y-79477857D01*
X87178571Y-79620714D01*
X86464285Y-79763571D01*
X87821428Y-80263571D02*
X87821428Y-79263571D01*
X87821428Y-79549285D02*
X87892857Y-79406428D01*
X87964285Y-79335000D01*
X88107142Y-79263571D01*
X88250000Y-79263571D01*
X88750000Y-80263571D02*
X88750000Y-79263571D01*
X88750000Y-79406428D02*
X88821428Y-79335000D01*
X88964285Y-79263571D01*
X89178571Y-79263571D01*
X89321428Y-79335000D01*
X89392857Y-79477857D01*
X89392857Y-80263571D01*
X89392857Y-79477857D02*
X89464285Y-79335000D01*
X89607142Y-79263571D01*
X89821428Y-79263571D01*
X89964285Y-79335000D01*
X90035714Y-79477857D01*
X90035714Y-80263571D01*
X90964285Y-80263571D02*
X90821428Y-80192142D01*
X90750000Y-80120714D01*
X90678571Y-79977857D01*
X90678571Y-79549285D01*
X90750000Y-79406428D01*
X90821428Y-79335000D01*
X90964285Y-79263571D01*
X91178571Y-79263571D01*
X91321428Y-79335000D01*
X91392857Y-79406428D01*
X91464285Y-79549285D01*
X91464285Y-79977857D01*
X91392857Y-80120714D01*
X91321428Y-80192142D01*
X91178571Y-80263571D01*
X90964285Y-80263571D01*
X92750000Y-80263571D02*
X92750000Y-78763571D01*
X92750000Y-80192142D02*
X92607142Y-80263571D01*
X92321428Y-80263571D01*
X92178571Y-80192142D01*
X92107142Y-80120714D01*
X92035714Y-79977857D01*
X92035714Y-79549285D01*
X92107142Y-79406428D01*
X92178571Y-79335000D01*
X92321428Y-79263571D01*
X92607142Y-79263571D01*
X92750000Y-79335000D01*
X94107142Y-79263571D02*
X94107142Y-80263571D01*
X93464285Y-79263571D02*
X93464285Y-80049285D01*
X93535714Y-80192142D01*
X93678571Y-80263571D01*
X93892857Y-80263571D01*
X94035714Y-80192142D01*
X94107142Y-80120714D01*
X95035714Y-80263571D02*
X94892857Y-80192142D01*
X94821428Y-80049285D01*
X94821428Y-78763571D01*
X96178571Y-80192142D02*
X96035714Y-80263571D01*
X95750000Y-80263571D01*
X95607142Y-80192142D01*
X95535714Y-80049285D01*
X95535714Y-79477857D01*
X95607142Y-79335000D01*
X95750000Y-79263571D01*
X96035714Y-79263571D01*
X96178571Y-79335000D01*
X96250000Y-79477857D01*
X96250000Y-79620714D01*
X95535714Y-79763571D01*
X98821428Y-80263571D02*
X97964285Y-80263571D01*
X98392857Y-80263571D02*
X98392857Y-78763571D01*
X98250000Y-78977857D01*
X98107142Y-79120714D01*
X97964285Y-79192142D01*
X73071428Y-81892857D02*
X73285714Y-81964285D01*
X73357142Y-82035714D01*
X73428571Y-82178571D01*
X73428571Y-82392857D01*
X73357142Y-82535714D01*
X73285714Y-82607142D01*
X73142857Y-82678571D01*
X72571428Y-82678571D01*
X72571428Y-81178571D01*
X73071428Y-81178571D01*
X73214285Y-81250000D01*
X73285714Y-81321428D01*
X73357142Y-81464285D01*
X73357142Y-81607142D01*
X73285714Y-81750000D01*
X73214285Y-81821428D01*
X73071428Y-81892857D01*
X72571428Y-81892857D01*
X73928571Y-81678571D02*
X74285714Y-82678571D01*
X74642857Y-81678571D02*
X74285714Y-82678571D01*
X74142857Y-83035714D01*
X74071428Y-83107142D01*
X73928571Y-83178571D01*
X76285714Y-82250000D02*
X76999999Y-82250000D01*
X76142857Y-82678571D02*
X76642857Y-81178571D01*
X77142857Y-82678571D01*
X77642857Y-82678571D02*
X77642857Y-81678571D01*
X77642857Y-81964285D02*
X77714285Y-81821428D01*
X77785714Y-81750000D01*
X77928571Y-81678571D01*
X78071428Y-81678571D01*
X78571428Y-81678571D02*
X78571428Y-82678571D01*
X78571428Y-81821428D02*
X78642857Y-81750000D01*
X78785714Y-81678571D01*
X78999999Y-81678571D01*
X79142857Y-81750000D01*
X79214285Y-81892857D01*
X79214285Y-82678571D01*
X80499999Y-82607142D02*
X80357142Y-82678571D01*
X80071428Y-82678571D01*
X79928571Y-82607142D01*
X79857142Y-82464285D01*
X79857142Y-81892857D01*
X79928571Y-81750000D01*
X80071428Y-81678571D01*
X80357142Y-81678571D01*
X80499999Y-81750000D01*
X80571428Y-81892857D01*
X80571428Y-82035714D01*
X79857142Y-82178571D01*
X82142857Y-81178571D02*
X82642857Y-82678571D01*
X83142857Y-81178571D01*
X84285714Y-82678571D02*
X84285714Y-81892857D01*
X84214285Y-81750000D01*
X84071428Y-81678571D01*
X83785714Y-81678571D01*
X83642857Y-81750000D01*
X84285714Y-82607142D02*
X84142857Y-82678571D01*
X83785714Y-82678571D01*
X83642857Y-82607142D01*
X83571428Y-82464285D01*
X83571428Y-82321428D01*
X83642857Y-82178571D01*
X83785714Y-82107142D01*
X84142857Y-82107142D01*
X84285714Y-82035714D01*
X84999999Y-81678571D02*
X84999999Y-82678571D01*
X84999999Y-81821428D02*
X85071428Y-81750000D01*
X85214285Y-81678571D01*
X85428571Y-81678571D01*
X85571428Y-81750000D01*
X85642857Y-81892857D01*
X85642857Y-82678571D01*
X88142857Y-82678571D02*
X88142857Y-81178571D01*
X88142857Y-82607142D02*
X87999999Y-82678571D01*
X87714285Y-82678571D01*
X87571428Y-82607142D01*
X87499999Y-82535714D01*
X87428571Y-82392857D01*
X87428571Y-81964285D01*
X87499999Y-81821428D01*
X87571428Y-81750000D01*
X87714285Y-81678571D01*
X87999999Y-81678571D01*
X88142857Y-81750000D01*
X89428571Y-82607142D02*
X89285714Y-82678571D01*
X88999999Y-82678571D01*
X88857142Y-82607142D01*
X88785714Y-82464285D01*
X88785714Y-81892857D01*
X88857142Y-81750000D01*
X88999999Y-81678571D01*
X89285714Y-81678571D01*
X89428571Y-81750000D01*
X89499999Y-81892857D01*
X89499999Y-82035714D01*
X88785714Y-82178571D01*
X90142857Y-81678571D02*
X90142857Y-82678571D01*
X90142857Y-81821428D02*
X90214285Y-81750000D01*
X90357142Y-81678571D01*
X90571428Y-81678571D01*
X90714285Y-81750000D01*
X90785714Y-81892857D01*
X90785714Y-82678571D01*
X93142857Y-81892857D02*
X93357142Y-81964285D01*
X93428571Y-82035714D01*
X93499999Y-82178571D01*
X93499999Y-82392857D01*
X93428571Y-82535714D01*
X93357142Y-82607142D01*
X93214285Y-82678571D01*
X92642857Y-82678571D01*
X92642857Y-81178571D01*
X93142857Y-81178571D01*
X93285714Y-81250000D01*
X93357142Y-81321428D01*
X93428571Y-81464285D01*
X93428571Y-81607142D01*
X93357142Y-81750000D01*
X93285714Y-81821428D01*
X93142857Y-81892857D01*
X92642857Y-81892857D01*
X94142857Y-82678571D02*
X94142857Y-81678571D01*
X94142857Y-81964285D02*
X94214285Y-81821428D01*
X94285714Y-81750000D01*
X94428571Y-81678571D01*
X94571428Y-81678571D01*
X95285714Y-82678571D02*
X95142857Y-82607142D01*
X95071428Y-82535714D01*
X94999999Y-82392857D01*
X94999999Y-81964285D01*
X95071428Y-81821428D01*
X95142857Y-81750000D01*
X95285714Y-81678571D01*
X95499999Y-81678571D01*
X95642857Y-81750000D01*
X95714285Y-81821428D01*
X95785714Y-81964285D01*
X95785714Y-82392857D01*
X95714285Y-82535714D01*
X95642857Y-82607142D01*
X95499999Y-82678571D01*
X95285714Y-82678571D01*
X96999999Y-82607142D02*
X96857142Y-82678571D01*
X96571428Y-82678571D01*
X96428571Y-82607142D01*
X96357142Y-82464285D01*
X96357142Y-81892857D01*
X96428571Y-81750000D01*
X96571428Y-81678571D01*
X96857142Y-81678571D01*
X96999999Y-81750000D01*
X97071428Y-81892857D01*
X97071428Y-82035714D01*
X96357142Y-82178571D01*
X98357142Y-82607142D02*
X98214285Y-82678571D01*
X97928571Y-82678571D01*
X97785714Y-82607142D01*
X97714285Y-82535714D01*
X97642857Y-82392857D01*
X97642857Y-81964285D01*
X97714285Y-81821428D01*
X97785714Y-81750000D01*
X97928571Y-81678571D01*
X98214285Y-81678571D01*
X98357142Y-81750000D01*
X99000000Y-82678571D02*
X99000000Y-81178571D01*
X99142857Y-82107142D02*
X99571428Y-82678571D01*
X99571428Y-81678571D02*
X99000000Y-82250000D01*
X101785714Y-83250000D02*
X101714285Y-83178571D01*
X101571428Y-82964285D01*
X101499999Y-82821428D01*
X101428571Y-82607142D01*
X101357142Y-82250000D01*
X101357142Y-81964285D01*
X101428571Y-81607142D01*
X101499999Y-81392857D01*
X101571428Y-81250000D01*
X101714285Y-81035714D01*
X101785714Y-80964285D01*
X102357142Y-82678571D02*
X102357142Y-81178571D01*
X103214285Y-82678571D01*
X103214285Y-81178571D01*
X104142857Y-82678571D02*
X103999999Y-82607142D01*
X103928571Y-82535714D01*
X103857142Y-82392857D01*
X103857142Y-81964285D01*
X103928571Y-81821428D01*
X103999999Y-81750000D01*
X104142857Y-81678571D01*
X104357142Y-81678571D01*
X104499999Y-81750000D01*
X104571428Y-81821428D01*
X104642857Y-81964285D01*
X104642857Y-82392857D01*
X104571428Y-82535714D01*
X104499999Y-82607142D01*
X104357142Y-82678571D01*
X104142857Y-82678571D01*
X105285714Y-82678571D02*
X105285714Y-81678571D01*
X105285714Y-81964285D02*
X105357142Y-81821428D01*
X105428571Y-81750000D01*
X105571428Y-81678571D01*
X105714285Y-81678571D01*
X105999999Y-81678571D02*
X106571428Y-81678571D01*
X106214285Y-81178571D02*
X106214285Y-82464285D01*
X106285714Y-82607142D01*
X106428571Y-82678571D01*
X106571428Y-82678571D01*
X107285714Y-82678571D02*
X107142857Y-82607142D01*
X107071428Y-82464285D01*
X107071428Y-81178571D01*
X108428571Y-82607142D02*
X108285714Y-82678571D01*
X107999999Y-82678571D01*
X107857142Y-82607142D01*
X107785714Y-82464285D01*
X107785714Y-81892857D01*
X107857142Y-81750000D01*
X107999999Y-81678571D01*
X108285714Y-81678571D01*
X108428571Y-81750000D01*
X108499999Y-81892857D01*
X108499999Y-82035714D01*
X107785714Y-82178571D01*
X108999999Y-83250000D02*
X109071428Y-83178571D01*
X109214285Y-82964285D01*
X109285714Y-82821428D01*
X109357142Y-82607142D01*
X109428571Y-82250000D01*
X109428571Y-81964285D01*
X109357142Y-81607142D01*
X109285714Y-81392857D01*
X109214285Y-81250000D01*
X109071428Y-81035714D01*
X108999999Y-80964285D01*
X88964285Y-85093571D02*
X88464285Y-84379285D01*
X88107142Y-85093571D02*
X88107142Y-83593571D01*
X88678571Y-83593571D01*
X88821428Y-83665000D01*
X88892857Y-83736428D01*
X88964285Y-83879285D01*
X88964285Y-84093571D01*
X88892857Y-84236428D01*
X88821428Y-84307857D01*
X88678571Y-84379285D01*
X88107142Y-84379285D01*
X90178571Y-85022142D02*
X90035714Y-85093571D01*
X89750000Y-85093571D01*
X89607142Y-85022142D01*
X89535714Y-84879285D01*
X89535714Y-84307857D01*
X89607142Y-84165000D01*
X89750000Y-84093571D01*
X90035714Y-84093571D01*
X90178571Y-84165000D01*
X90250000Y-84307857D01*
X90250000Y-84450714D01*
X89535714Y-84593571D01*
X90750000Y-84093571D02*
X91107142Y-85093571D01*
X91464285Y-84093571D01*
X93964285Y-85093571D02*
X93107142Y-85093571D01*
X93535714Y-85093571D02*
X93535714Y-83593571D01*
X93392857Y-83807857D01*
X93250000Y-83950714D01*
X93107142Y-84022142D01*
D10*
%TO.C,R40*%
X106507142Y-33502380D02*
X106173809Y-33026190D01*
X105935714Y-33502380D02*
X105935714Y-32502380D01*
X106316666Y-32502380D01*
X106411904Y-32550000D01*
X106459523Y-32597619D01*
X106507142Y-32692857D01*
X106507142Y-32835714D01*
X106459523Y-32930952D01*
X106411904Y-32978571D01*
X106316666Y-33026190D01*
X105935714Y-33026190D01*
X107364285Y-32835714D02*
X107364285Y-33502380D01*
X107126190Y-32454761D02*
X106888095Y-33169047D01*
X107507142Y-33169047D01*
X108078571Y-32502380D02*
X108173809Y-32502380D01*
X108269047Y-32550000D01*
X108316666Y-32597619D01*
X108364285Y-32692857D01*
X108411904Y-32883333D01*
X108411904Y-33121428D01*
X108364285Y-33311904D01*
X108316666Y-33407142D01*
X108269047Y-33454761D01*
X108173809Y-33502380D01*
X108078571Y-33502380D01*
X107983333Y-33454761D01*
X107935714Y-33407142D01*
X107888095Y-33311904D01*
X107840476Y-33121428D01*
X107840476Y-32883333D01*
X107888095Y-32692857D01*
X107935714Y-32597619D01*
X107983333Y-32550000D01*
X108078571Y-32502380D01*
%TO.C,R66*%
X152252380Y-65192857D02*
X151776190Y-65526190D01*
X152252380Y-65764285D02*
X151252380Y-65764285D01*
X151252380Y-65383333D01*
X151300000Y-65288095D01*
X151347619Y-65240476D01*
X151442857Y-65192857D01*
X151585714Y-65192857D01*
X151680952Y-65240476D01*
X151728571Y-65288095D01*
X151776190Y-65383333D01*
X151776190Y-65764285D01*
X151252380Y-64335714D02*
X151252380Y-64526190D01*
X151300000Y-64621428D01*
X151347619Y-64669047D01*
X151490476Y-64764285D01*
X151680952Y-64811904D01*
X152061904Y-64811904D01*
X152157142Y-64764285D01*
X152204761Y-64716666D01*
X152252380Y-64621428D01*
X152252380Y-64430952D01*
X152204761Y-64335714D01*
X152157142Y-64288095D01*
X152061904Y-64240476D01*
X151823809Y-64240476D01*
X151728571Y-64288095D01*
X151680952Y-64335714D01*
X151633333Y-64430952D01*
X151633333Y-64621428D01*
X151680952Y-64716666D01*
X151728571Y-64764285D01*
X151823809Y-64811904D01*
X151252380Y-63383333D02*
X151252380Y-63573809D01*
X151300000Y-63669047D01*
X151347619Y-63716666D01*
X151490476Y-63811904D01*
X151680952Y-63859523D01*
X152061904Y-63859523D01*
X152157142Y-63811904D01*
X152204761Y-63764285D01*
X152252380Y-63669047D01*
X152252380Y-63478571D01*
X152204761Y-63383333D01*
X152157142Y-63335714D01*
X152061904Y-63288095D01*
X151823809Y-63288095D01*
X151728571Y-63335714D01*
X151680952Y-63383333D01*
X151633333Y-63478571D01*
X151633333Y-63669047D01*
X151680952Y-63764285D01*
X151728571Y-63811904D01*
X151823809Y-63859523D01*
%TO.C,R23*%
X84857142Y-45952380D02*
X84523809Y-45476190D01*
X84285714Y-45952380D02*
X84285714Y-44952380D01*
X84666666Y-44952380D01*
X84761904Y-45000000D01*
X84809523Y-45047619D01*
X84857142Y-45142857D01*
X84857142Y-45285714D01*
X84809523Y-45380952D01*
X84761904Y-45428571D01*
X84666666Y-45476190D01*
X84285714Y-45476190D01*
X85238095Y-45047619D02*
X85285714Y-45000000D01*
X85380952Y-44952380D01*
X85619047Y-44952380D01*
X85714285Y-45000000D01*
X85761904Y-45047619D01*
X85809523Y-45142857D01*
X85809523Y-45238095D01*
X85761904Y-45380952D01*
X85190476Y-45952380D01*
X85809523Y-45952380D01*
X86142857Y-44952380D02*
X86761904Y-44952380D01*
X86428571Y-45333333D01*
X86571428Y-45333333D01*
X86666666Y-45380952D01*
X86714285Y-45428571D01*
X86761904Y-45523809D01*
X86761904Y-45761904D01*
X86714285Y-45857142D01*
X86666666Y-45904761D01*
X86571428Y-45952380D01*
X86285714Y-45952380D01*
X86190476Y-45904761D01*
X86142857Y-45857142D01*
%TO.C,R48*%
X101302380Y-76642857D02*
X100826190Y-76976190D01*
X101302380Y-77214285D02*
X100302380Y-77214285D01*
X100302380Y-76833333D01*
X100350000Y-76738095D01*
X100397619Y-76690476D01*
X100492857Y-76642857D01*
X100635714Y-76642857D01*
X100730952Y-76690476D01*
X100778571Y-76738095D01*
X100826190Y-76833333D01*
X100826190Y-77214285D01*
X100635714Y-75785714D02*
X101302380Y-75785714D01*
X100254761Y-76023809D02*
X100969047Y-76261904D01*
X100969047Y-75642857D01*
X100730952Y-75119047D02*
X100683333Y-75214285D01*
X100635714Y-75261904D01*
X100540476Y-75309523D01*
X100492857Y-75309523D01*
X100397619Y-75261904D01*
X100350000Y-75214285D01*
X100302380Y-75119047D01*
X100302380Y-74928571D01*
X100350000Y-74833333D01*
X100397619Y-74785714D01*
X100492857Y-74738095D01*
X100540476Y-74738095D01*
X100635714Y-74785714D01*
X100683333Y-74833333D01*
X100730952Y-74928571D01*
X100730952Y-75119047D01*
X100778571Y-75214285D01*
X100826190Y-75261904D01*
X100921428Y-75309523D01*
X101111904Y-75309523D01*
X101207142Y-75261904D01*
X101254761Y-75214285D01*
X101302380Y-75119047D01*
X101302380Y-74928571D01*
X101254761Y-74833333D01*
X101207142Y-74785714D01*
X101111904Y-74738095D01*
X100921428Y-74738095D01*
X100826190Y-74785714D01*
X100778571Y-74833333D01*
X100730952Y-74928571D01*
%TO.C,C18*%
X74007142Y-20192857D02*
X74054761Y-20240476D01*
X74102380Y-20383333D01*
X74102380Y-20478571D01*
X74054761Y-20621428D01*
X73959523Y-20716666D01*
X73864285Y-20764285D01*
X73673809Y-20811904D01*
X73530952Y-20811904D01*
X73340476Y-20764285D01*
X73245238Y-20716666D01*
X73150000Y-20621428D01*
X73102380Y-20478571D01*
X73102380Y-20383333D01*
X73150000Y-20240476D01*
X73197619Y-20192857D01*
X74102380Y-19240476D02*
X74102380Y-19811904D01*
X74102380Y-19526190D02*
X73102380Y-19526190D01*
X73245238Y-19621428D01*
X73340476Y-19716666D01*
X73388095Y-19811904D01*
X73530952Y-18669047D02*
X73483333Y-18764285D01*
X73435714Y-18811904D01*
X73340476Y-18859523D01*
X73292857Y-18859523D01*
X73197619Y-18811904D01*
X73150000Y-18764285D01*
X73102380Y-18669047D01*
X73102380Y-18478571D01*
X73150000Y-18383333D01*
X73197619Y-18335714D01*
X73292857Y-18288095D01*
X73340476Y-18288095D01*
X73435714Y-18335714D01*
X73483333Y-18383333D01*
X73530952Y-18478571D01*
X73530952Y-18669047D01*
X73578571Y-18764285D01*
X73626190Y-18811904D01*
X73721428Y-18859523D01*
X73911904Y-18859523D01*
X74007142Y-18811904D01*
X74054761Y-18764285D01*
X74102380Y-18669047D01*
X74102380Y-18478571D01*
X74054761Y-18383333D01*
X74007142Y-18335714D01*
X73911904Y-18288095D01*
X73721428Y-18288095D01*
X73626190Y-18335714D01*
X73578571Y-18383333D01*
X73530952Y-18478571D01*
%TO.C,U1*%
X83713095Y-62952380D02*
X83713095Y-63761904D01*
X83760714Y-63857142D01*
X83808333Y-63904761D01*
X83903571Y-63952380D01*
X84094047Y-63952380D01*
X84189285Y-63904761D01*
X84236904Y-63857142D01*
X84284523Y-63761904D01*
X84284523Y-62952380D01*
X85284523Y-63952380D02*
X84713095Y-63952380D01*
X84998809Y-63952380D02*
X84998809Y-62952380D01*
X84903571Y-63095238D01*
X84808333Y-63190476D01*
X84713095Y-63238095D01*
%TO.C,Q5*%
X105429761Y-73597619D02*
X105334523Y-73550000D01*
X105239285Y-73454761D01*
X105096428Y-73311904D01*
X105001190Y-73264285D01*
X104905952Y-73264285D01*
X104953571Y-73502380D02*
X104858333Y-73454761D01*
X104763095Y-73359523D01*
X104715476Y-73169047D01*
X104715476Y-72835714D01*
X104763095Y-72645238D01*
X104858333Y-72550000D01*
X104953571Y-72502380D01*
X105144047Y-72502380D01*
X105239285Y-72550000D01*
X105334523Y-72645238D01*
X105382142Y-72835714D01*
X105382142Y-73169047D01*
X105334523Y-73359523D01*
X105239285Y-73454761D01*
X105144047Y-73502380D01*
X104953571Y-73502380D01*
X106286904Y-72502380D02*
X105810714Y-72502380D01*
X105763095Y-72978571D01*
X105810714Y-72930952D01*
X105905952Y-72883333D01*
X106144047Y-72883333D01*
X106239285Y-72930952D01*
X106286904Y-72978571D01*
X106334523Y-73073809D01*
X106334523Y-73311904D01*
X106286904Y-73407142D01*
X106239285Y-73454761D01*
X106144047Y-73502380D01*
X105905952Y-73502380D01*
X105810714Y-73454761D01*
X105763095Y-73407142D01*
%TO.C,R46*%
X115007142Y-40502380D02*
X114673809Y-40026190D01*
X114435714Y-40502380D02*
X114435714Y-39502380D01*
X114816666Y-39502380D01*
X114911904Y-39550000D01*
X114959523Y-39597619D01*
X115007142Y-39692857D01*
X115007142Y-39835714D01*
X114959523Y-39930952D01*
X114911904Y-39978571D01*
X114816666Y-40026190D01*
X114435714Y-40026190D01*
X115864285Y-39835714D02*
X115864285Y-40502380D01*
X115626190Y-39454761D02*
X115388095Y-40169047D01*
X116007142Y-40169047D01*
X116816666Y-39502380D02*
X116626190Y-39502380D01*
X116530952Y-39550000D01*
X116483333Y-39597619D01*
X116388095Y-39740476D01*
X116340476Y-39930952D01*
X116340476Y-40311904D01*
X116388095Y-40407142D01*
X116435714Y-40454761D01*
X116530952Y-40502380D01*
X116721428Y-40502380D01*
X116816666Y-40454761D01*
X116864285Y-40407142D01*
X116911904Y-40311904D01*
X116911904Y-40073809D01*
X116864285Y-39978571D01*
X116816666Y-39930952D01*
X116721428Y-39883333D01*
X116530952Y-39883333D01*
X116435714Y-39930952D01*
X116388095Y-39978571D01*
X116340476Y-40073809D01*
%TO.C,Q3*%
X105404761Y-79047619D02*
X105309523Y-79000000D01*
X105214285Y-78904761D01*
X105071428Y-78761904D01*
X104976190Y-78714285D01*
X104880952Y-78714285D01*
X104928571Y-78952380D02*
X104833333Y-78904761D01*
X104738095Y-78809523D01*
X104690476Y-78619047D01*
X104690476Y-78285714D01*
X104738095Y-78095238D01*
X104833333Y-78000000D01*
X104928571Y-77952380D01*
X105119047Y-77952380D01*
X105214285Y-78000000D01*
X105309523Y-78095238D01*
X105357142Y-78285714D01*
X105357142Y-78619047D01*
X105309523Y-78809523D01*
X105214285Y-78904761D01*
X105119047Y-78952380D01*
X104928571Y-78952380D01*
X105690476Y-77952380D02*
X106309523Y-77952380D01*
X105976190Y-78333333D01*
X106119047Y-78333333D01*
X106214285Y-78380952D01*
X106261904Y-78428571D01*
X106309523Y-78523809D01*
X106309523Y-78761904D01*
X106261904Y-78857142D01*
X106214285Y-78904761D01*
X106119047Y-78952380D01*
X105833333Y-78952380D01*
X105738095Y-78904761D01*
X105690476Y-78857142D01*
%TO.C,R56*%
X144452380Y-71142857D02*
X143976190Y-71476190D01*
X144452380Y-71714285D02*
X143452380Y-71714285D01*
X143452380Y-71333333D01*
X143500000Y-71238095D01*
X143547619Y-71190476D01*
X143642857Y-71142857D01*
X143785714Y-71142857D01*
X143880952Y-71190476D01*
X143928571Y-71238095D01*
X143976190Y-71333333D01*
X143976190Y-71714285D01*
X143452380Y-70238095D02*
X143452380Y-70714285D01*
X143928571Y-70761904D01*
X143880952Y-70714285D01*
X143833333Y-70619047D01*
X143833333Y-70380952D01*
X143880952Y-70285714D01*
X143928571Y-70238095D01*
X144023809Y-70190476D01*
X144261904Y-70190476D01*
X144357142Y-70238095D01*
X144404761Y-70285714D01*
X144452380Y-70380952D01*
X144452380Y-70619047D01*
X144404761Y-70714285D01*
X144357142Y-70761904D01*
X143452380Y-69333333D02*
X143452380Y-69523809D01*
X143500000Y-69619047D01*
X143547619Y-69666666D01*
X143690476Y-69761904D01*
X143880952Y-69809523D01*
X144261904Y-69809523D01*
X144357142Y-69761904D01*
X144404761Y-69714285D01*
X144452380Y-69619047D01*
X144452380Y-69428571D01*
X144404761Y-69333333D01*
X144357142Y-69285714D01*
X144261904Y-69238095D01*
X144023809Y-69238095D01*
X143928571Y-69285714D01*
X143880952Y-69333333D01*
X143833333Y-69428571D01*
X143833333Y-69619047D01*
X143880952Y-69714285D01*
X143928571Y-69761904D01*
X144023809Y-69809523D01*
%TO.C,C4*%
X67333333Y-39857142D02*
X67285714Y-39904761D01*
X67142857Y-39952380D01*
X67047619Y-39952380D01*
X66904761Y-39904761D01*
X66809523Y-39809523D01*
X66761904Y-39714285D01*
X66714285Y-39523809D01*
X66714285Y-39380952D01*
X66761904Y-39190476D01*
X66809523Y-39095238D01*
X66904761Y-39000000D01*
X67047619Y-38952380D01*
X67142857Y-38952380D01*
X67285714Y-39000000D01*
X67333333Y-39047619D01*
X68190476Y-39285714D02*
X68190476Y-39952380D01*
X67952380Y-38904761D02*
X67714285Y-39619047D01*
X68333333Y-39619047D01*
%TO.C,R8*%
X82430316Y-47666666D02*
X81954126Y-48000000D01*
X82430316Y-48238095D02*
X81430316Y-48238095D01*
X81430316Y-47857142D01*
X81477936Y-47761904D01*
X81525555Y-47714285D01*
X81620793Y-47666666D01*
X81763650Y-47666666D01*
X81858888Y-47714285D01*
X81906507Y-47761904D01*
X81954126Y-47857142D01*
X81954126Y-48238095D01*
X81858888Y-47095238D02*
X81811269Y-47190476D01*
X81763650Y-47238095D01*
X81668412Y-47285714D01*
X81620793Y-47285714D01*
X81525555Y-47238095D01*
X81477936Y-47190476D01*
X81430316Y-47095238D01*
X81430316Y-46904761D01*
X81477936Y-46809523D01*
X81525555Y-46761904D01*
X81620793Y-46714285D01*
X81668412Y-46714285D01*
X81763650Y-46761904D01*
X81811269Y-46809523D01*
X81858888Y-46904761D01*
X81858888Y-47095238D01*
X81906507Y-47190476D01*
X81954126Y-47238095D01*
X82049364Y-47285714D01*
X82239840Y-47285714D01*
X82335078Y-47238095D01*
X82382697Y-47190476D01*
X82430316Y-47095238D01*
X82430316Y-46904761D01*
X82382697Y-46809523D01*
X82335078Y-46761904D01*
X82239840Y-46714285D01*
X82049364Y-46714285D01*
X81954126Y-46761904D01*
X81906507Y-46809523D01*
X81858888Y-46904761D01*
%TO.C,R18*%
X72102380Y-39192857D02*
X71626190Y-39526190D01*
X72102380Y-39764285D02*
X71102380Y-39764285D01*
X71102380Y-39383333D01*
X71150000Y-39288095D01*
X71197619Y-39240476D01*
X71292857Y-39192857D01*
X71435714Y-39192857D01*
X71530952Y-39240476D01*
X71578571Y-39288095D01*
X71626190Y-39383333D01*
X71626190Y-39764285D01*
X72102380Y-38240476D02*
X72102380Y-38811904D01*
X72102380Y-38526190D02*
X71102380Y-38526190D01*
X71245238Y-38621428D01*
X71340476Y-38716666D01*
X71388095Y-38811904D01*
X71530952Y-37669047D02*
X71483333Y-37764285D01*
X71435714Y-37811904D01*
X71340476Y-37859523D01*
X71292857Y-37859523D01*
X71197619Y-37811904D01*
X71150000Y-37764285D01*
X71102380Y-37669047D01*
X71102380Y-37478571D01*
X71150000Y-37383333D01*
X71197619Y-37335714D01*
X71292857Y-37288095D01*
X71340476Y-37288095D01*
X71435714Y-37335714D01*
X71483333Y-37383333D01*
X71530952Y-37478571D01*
X71530952Y-37669047D01*
X71578571Y-37764285D01*
X71626190Y-37811904D01*
X71721428Y-37859523D01*
X71911904Y-37859523D01*
X72007142Y-37811904D01*
X72054761Y-37764285D01*
X72102380Y-37669047D01*
X72102380Y-37478571D01*
X72054761Y-37383333D01*
X72007142Y-37335714D01*
X71911904Y-37288095D01*
X71721428Y-37288095D01*
X71626190Y-37335714D01*
X71578571Y-37383333D01*
X71530952Y-37478571D01*
%TO.C,C22*%
X80507142Y-19407142D02*
X80459523Y-19454761D01*
X80316666Y-19502380D01*
X80221428Y-19502380D01*
X80078571Y-19454761D01*
X79983333Y-19359523D01*
X79935714Y-19264285D01*
X79888095Y-19073809D01*
X79888095Y-18930952D01*
X79935714Y-18740476D01*
X79983333Y-18645238D01*
X80078571Y-18550000D01*
X80221428Y-18502380D01*
X80316666Y-18502380D01*
X80459523Y-18550000D01*
X80507142Y-18597619D01*
X80888095Y-18597619D02*
X80935714Y-18550000D01*
X81030952Y-18502380D01*
X81269047Y-18502380D01*
X81364285Y-18550000D01*
X81411904Y-18597619D01*
X81459523Y-18692857D01*
X81459523Y-18788095D01*
X81411904Y-18930952D01*
X80840476Y-19502380D01*
X81459523Y-19502380D01*
X81840476Y-18597619D02*
X81888095Y-18550000D01*
X81983333Y-18502380D01*
X82221428Y-18502380D01*
X82316666Y-18550000D01*
X82364285Y-18597619D01*
X82411904Y-18692857D01*
X82411904Y-18788095D01*
X82364285Y-18930952D01*
X81792857Y-19502380D01*
X82411904Y-19502380D01*
%TO.C,Q8*%
X77047619Y-72845238D02*
X77000000Y-72940476D01*
X76904761Y-73035714D01*
X76761904Y-73178571D01*
X76714285Y-73273809D01*
X76714285Y-73369047D01*
X76952380Y-73321428D02*
X76904761Y-73416666D01*
X76809523Y-73511904D01*
X76619047Y-73559523D01*
X76285714Y-73559523D01*
X76095238Y-73511904D01*
X76000000Y-73416666D01*
X75952380Y-73321428D01*
X75952380Y-73130952D01*
X76000000Y-73035714D01*
X76095238Y-72940476D01*
X76285714Y-72892857D01*
X76619047Y-72892857D01*
X76809523Y-72940476D01*
X76904761Y-73035714D01*
X76952380Y-73130952D01*
X76952380Y-73321428D01*
X76380952Y-72321428D02*
X76333333Y-72416666D01*
X76285714Y-72464285D01*
X76190476Y-72511904D01*
X76142857Y-72511904D01*
X76047619Y-72464285D01*
X76000000Y-72416666D01*
X75952380Y-72321428D01*
X75952380Y-72130952D01*
X76000000Y-72035714D01*
X76047619Y-71988095D01*
X76142857Y-71940476D01*
X76190476Y-71940476D01*
X76285714Y-71988095D01*
X76333333Y-72035714D01*
X76380952Y-72130952D01*
X76380952Y-72321428D01*
X76428571Y-72416666D01*
X76476190Y-72464285D01*
X76571428Y-72511904D01*
X76761904Y-72511904D01*
X76857142Y-72464285D01*
X76904761Y-72416666D01*
X76952380Y-72321428D01*
X76952380Y-72130952D01*
X76904761Y-72035714D01*
X76857142Y-71988095D01*
X76761904Y-71940476D01*
X76571428Y-71940476D01*
X76476190Y-71988095D01*
X76428571Y-72035714D01*
X76380952Y-72130952D01*
%TO.C,C27*%
X108007142Y-47907142D02*
X107959523Y-47954761D01*
X107816666Y-48002380D01*
X107721428Y-48002380D01*
X107578571Y-47954761D01*
X107483333Y-47859523D01*
X107435714Y-47764285D01*
X107388095Y-47573809D01*
X107388095Y-47430952D01*
X107435714Y-47240476D01*
X107483333Y-47145238D01*
X107578571Y-47050000D01*
X107721428Y-47002380D01*
X107816666Y-47002380D01*
X107959523Y-47050000D01*
X108007142Y-47097619D01*
X108388095Y-47097619D02*
X108435714Y-47050000D01*
X108530952Y-47002380D01*
X108769047Y-47002380D01*
X108864285Y-47050000D01*
X108911904Y-47097619D01*
X108959523Y-47192857D01*
X108959523Y-47288095D01*
X108911904Y-47430952D01*
X108340476Y-48002380D01*
X108959523Y-48002380D01*
X109292857Y-47002380D02*
X109959523Y-47002380D01*
X109530952Y-48002380D01*
%TO.C,R37*%
X106507142Y-27502380D02*
X106173809Y-27026190D01*
X105935714Y-27502380D02*
X105935714Y-26502380D01*
X106316666Y-26502380D01*
X106411904Y-26550000D01*
X106459523Y-26597619D01*
X106507142Y-26692857D01*
X106507142Y-26835714D01*
X106459523Y-26930952D01*
X106411904Y-26978571D01*
X106316666Y-27026190D01*
X105935714Y-27026190D01*
X106840476Y-26502380D02*
X107459523Y-26502380D01*
X107126190Y-26883333D01*
X107269047Y-26883333D01*
X107364285Y-26930952D01*
X107411904Y-26978571D01*
X107459523Y-27073809D01*
X107459523Y-27311904D01*
X107411904Y-27407142D01*
X107364285Y-27454761D01*
X107269047Y-27502380D01*
X106983333Y-27502380D01*
X106888095Y-27454761D01*
X106840476Y-27407142D01*
X107792857Y-26502380D02*
X108459523Y-26502380D01*
X108030952Y-27502380D01*
%TO.C,C20*%
X82973409Y-59357142D02*
X82925790Y-59404761D01*
X82782933Y-59452380D01*
X82687695Y-59452380D01*
X82544838Y-59404761D01*
X82449600Y-59309523D01*
X82401981Y-59214285D01*
X82354362Y-59023809D01*
X82354362Y-58880952D01*
X82401981Y-58690476D01*
X82449600Y-58595238D01*
X82544838Y-58500000D01*
X82687695Y-58452380D01*
X82782933Y-58452380D01*
X82925790Y-58500000D01*
X82973409Y-58547619D01*
X83354362Y-58547619D02*
X83401981Y-58500000D01*
X83497219Y-58452380D01*
X83735314Y-58452380D01*
X83830552Y-58500000D01*
X83878171Y-58547619D01*
X83925790Y-58642857D01*
X83925790Y-58738095D01*
X83878171Y-58880952D01*
X83306743Y-59452380D01*
X83925790Y-59452380D01*
X84544838Y-58452380D02*
X84640076Y-58452380D01*
X84735314Y-58500000D01*
X84782933Y-58547619D01*
X84830552Y-58642857D01*
X84878171Y-58833333D01*
X84878171Y-59071428D01*
X84830552Y-59261904D01*
X84782933Y-59357142D01*
X84735314Y-59404761D01*
X84640076Y-59452380D01*
X84544838Y-59452380D01*
X84449600Y-59404761D01*
X84401981Y-59357142D01*
X84354362Y-59261904D01*
X84306743Y-59071428D01*
X84306743Y-58833333D01*
X84354362Y-58642857D01*
X84401981Y-58547619D01*
X84449600Y-58500000D01*
X84544838Y-58452380D01*
%TO.C,R54*%
X121602380Y-76642857D02*
X121126190Y-76976190D01*
X121602380Y-77214285D02*
X120602380Y-77214285D01*
X120602380Y-76833333D01*
X120650000Y-76738095D01*
X120697619Y-76690476D01*
X120792857Y-76642857D01*
X120935714Y-76642857D01*
X121030952Y-76690476D01*
X121078571Y-76738095D01*
X121126190Y-76833333D01*
X121126190Y-77214285D01*
X120602380Y-75738095D02*
X120602380Y-76214285D01*
X121078571Y-76261904D01*
X121030952Y-76214285D01*
X120983333Y-76119047D01*
X120983333Y-75880952D01*
X121030952Y-75785714D01*
X121078571Y-75738095D01*
X121173809Y-75690476D01*
X121411904Y-75690476D01*
X121507142Y-75738095D01*
X121554761Y-75785714D01*
X121602380Y-75880952D01*
X121602380Y-76119047D01*
X121554761Y-76214285D01*
X121507142Y-76261904D01*
X120935714Y-74833333D02*
X121602380Y-74833333D01*
X120554761Y-75071428D02*
X121269047Y-75309523D01*
X121269047Y-74690476D01*
%TO.C,J1*%
X159532380Y-49833333D02*
X160246666Y-49833333D01*
X160389523Y-49880952D01*
X160484761Y-49976190D01*
X160532380Y-50119047D01*
X160532380Y-50214285D01*
X160532380Y-48833333D02*
X160532380Y-49404761D01*
X160532380Y-49119047D02*
X159532380Y-49119047D01*
X159675238Y-49214285D01*
X159770476Y-49309523D01*
X159818095Y-49404761D01*
%TO.C,U4*%
X156332380Y-35761904D02*
X157141904Y-35761904D01*
X157237142Y-35714285D01*
X157284761Y-35666666D01*
X157332380Y-35571428D01*
X157332380Y-35380952D01*
X157284761Y-35285714D01*
X157237142Y-35238095D01*
X157141904Y-35190476D01*
X156332380Y-35190476D01*
X156665714Y-34285714D02*
X157332380Y-34285714D01*
X156284761Y-34523809D02*
X156999047Y-34761904D01*
X156999047Y-34142857D01*
%TO.C,R29*%
X159357142Y-36952380D02*
X159023809Y-36476190D01*
X158785714Y-36952380D02*
X158785714Y-35952380D01*
X159166666Y-35952380D01*
X159261904Y-36000000D01*
X159309523Y-36047619D01*
X159357142Y-36142857D01*
X159357142Y-36285714D01*
X159309523Y-36380952D01*
X159261904Y-36428571D01*
X159166666Y-36476190D01*
X158785714Y-36476190D01*
X159738095Y-36047619D02*
X159785714Y-36000000D01*
X159880952Y-35952380D01*
X160119047Y-35952380D01*
X160214285Y-36000000D01*
X160261904Y-36047619D01*
X160309523Y-36142857D01*
X160309523Y-36238095D01*
X160261904Y-36380952D01*
X159690476Y-36952380D01*
X160309523Y-36952380D01*
X160785714Y-36952380D02*
X160976190Y-36952380D01*
X161071428Y-36904761D01*
X161119047Y-36857142D01*
X161214285Y-36714285D01*
X161261904Y-36523809D01*
X161261904Y-36142857D01*
X161214285Y-36047619D01*
X161166666Y-36000000D01*
X161071428Y-35952380D01*
X160880952Y-35952380D01*
X160785714Y-36000000D01*
X160738095Y-36047619D01*
X160690476Y-36142857D01*
X160690476Y-36380952D01*
X160738095Y-36476190D01*
X160785714Y-36523809D01*
X160880952Y-36571428D01*
X161071428Y-36571428D01*
X161166666Y-36523809D01*
X161214285Y-36476190D01*
X161261904Y-36380952D01*
%TO.C,RL4*%
X112928571Y-103952380D02*
X112595238Y-103476190D01*
X112357142Y-103952380D02*
X112357142Y-102952380D01*
X112738095Y-102952380D01*
X112833333Y-103000000D01*
X112880952Y-103047619D01*
X112928571Y-103142857D01*
X112928571Y-103285714D01*
X112880952Y-103380952D01*
X112833333Y-103428571D01*
X112738095Y-103476190D01*
X112357142Y-103476190D01*
X113833333Y-103952380D02*
X113357142Y-103952380D01*
X113357142Y-102952380D01*
X114595238Y-103285714D02*
X114595238Y-103952380D01*
X114357142Y-102904761D02*
X114119047Y-103619047D01*
X114738095Y-103619047D01*
%TO.C,R43*%
X97357142Y-76602380D02*
X97023809Y-76126190D01*
X96785714Y-76602380D02*
X96785714Y-75602380D01*
X97166666Y-75602380D01*
X97261904Y-75650000D01*
X97309523Y-75697619D01*
X97357142Y-75792857D01*
X97357142Y-75935714D01*
X97309523Y-76030952D01*
X97261904Y-76078571D01*
X97166666Y-76126190D01*
X96785714Y-76126190D01*
X98214285Y-75935714D02*
X98214285Y-76602380D01*
X97976190Y-75554761D02*
X97738095Y-76269047D01*
X98357142Y-76269047D01*
X98642857Y-75602380D02*
X99261904Y-75602380D01*
X98928571Y-75983333D01*
X99071428Y-75983333D01*
X99166666Y-76030952D01*
X99214285Y-76078571D01*
X99261904Y-76173809D01*
X99261904Y-76411904D01*
X99214285Y-76507142D01*
X99166666Y-76554761D01*
X99071428Y-76602380D01*
X98785714Y-76602380D01*
X98690476Y-76554761D01*
X98642857Y-76507142D01*
%TO.C,R15*%
X159357142Y-32952380D02*
X159023809Y-32476190D01*
X158785714Y-32952380D02*
X158785714Y-31952380D01*
X159166666Y-31952380D01*
X159261904Y-32000000D01*
X159309523Y-32047619D01*
X159357142Y-32142857D01*
X159357142Y-32285714D01*
X159309523Y-32380952D01*
X159261904Y-32428571D01*
X159166666Y-32476190D01*
X158785714Y-32476190D01*
X160309523Y-32952380D02*
X159738095Y-32952380D01*
X160023809Y-32952380D02*
X160023809Y-31952380D01*
X159928571Y-32095238D01*
X159833333Y-32190476D01*
X159738095Y-32238095D01*
X161214285Y-31952380D02*
X160738095Y-31952380D01*
X160690476Y-32428571D01*
X160738095Y-32380952D01*
X160833333Y-32333333D01*
X161071428Y-32333333D01*
X161166666Y-32380952D01*
X161214285Y-32428571D01*
X161261904Y-32523809D01*
X161261904Y-32761904D01*
X161214285Y-32857142D01*
X161166666Y-32904761D01*
X161071428Y-32952380D01*
X160833333Y-32952380D01*
X160738095Y-32904761D01*
X160690476Y-32857142D01*
%TO.C,R28*%
X159357142Y-38952380D02*
X159023809Y-38476190D01*
X158785714Y-38952380D02*
X158785714Y-37952380D01*
X159166666Y-37952380D01*
X159261904Y-38000000D01*
X159309523Y-38047619D01*
X159357142Y-38142857D01*
X159357142Y-38285714D01*
X159309523Y-38380952D01*
X159261904Y-38428571D01*
X159166666Y-38476190D01*
X158785714Y-38476190D01*
X159738095Y-38047619D02*
X159785714Y-38000000D01*
X159880952Y-37952380D01*
X160119047Y-37952380D01*
X160214285Y-38000000D01*
X160261904Y-38047619D01*
X160309523Y-38142857D01*
X160309523Y-38238095D01*
X160261904Y-38380952D01*
X159690476Y-38952380D01*
X160309523Y-38952380D01*
X160880952Y-38380952D02*
X160785714Y-38333333D01*
X160738095Y-38285714D01*
X160690476Y-38190476D01*
X160690476Y-38142857D01*
X160738095Y-38047619D01*
X160785714Y-38000000D01*
X160880952Y-37952380D01*
X161071428Y-37952380D01*
X161166666Y-38000000D01*
X161214285Y-38047619D01*
X161261904Y-38142857D01*
X161261904Y-38190476D01*
X161214285Y-38285714D01*
X161166666Y-38333333D01*
X161071428Y-38380952D01*
X160880952Y-38380952D01*
X160785714Y-38428571D01*
X160738095Y-38476190D01*
X160690476Y-38571428D01*
X160690476Y-38761904D01*
X160738095Y-38857142D01*
X160785714Y-38904761D01*
X160880952Y-38952380D01*
X161071428Y-38952380D01*
X161166666Y-38904761D01*
X161214285Y-38857142D01*
X161261904Y-38761904D01*
X161261904Y-38571428D01*
X161214285Y-38476190D01*
X161166666Y-38428571D01*
X161071428Y-38380952D01*
%TO.C,R45*%
X110602380Y-76642857D02*
X110126190Y-76976190D01*
X110602380Y-77214285D02*
X109602380Y-77214285D01*
X109602380Y-76833333D01*
X109650000Y-76738095D01*
X109697619Y-76690476D01*
X109792857Y-76642857D01*
X109935714Y-76642857D01*
X110030952Y-76690476D01*
X110078571Y-76738095D01*
X110126190Y-76833333D01*
X110126190Y-77214285D01*
X109935714Y-75785714D02*
X110602380Y-75785714D01*
X109554761Y-76023809D02*
X110269047Y-76261904D01*
X110269047Y-75642857D01*
X109602380Y-74785714D02*
X109602380Y-75261904D01*
X110078571Y-75309523D01*
X110030952Y-75261904D01*
X109983333Y-75166666D01*
X109983333Y-74928571D01*
X110030952Y-74833333D01*
X110078571Y-74785714D01*
X110173809Y-74738095D01*
X110411904Y-74738095D01*
X110507142Y-74785714D01*
X110554761Y-74833333D01*
X110602380Y-74928571D01*
X110602380Y-75166666D01*
X110554761Y-75261904D01*
X110507142Y-75309523D01*
%TO.C,R39*%
X106507142Y-31502380D02*
X106173809Y-31026190D01*
X105935714Y-31502380D02*
X105935714Y-30502380D01*
X106316666Y-30502380D01*
X106411904Y-30550000D01*
X106459523Y-30597619D01*
X106507142Y-30692857D01*
X106507142Y-30835714D01*
X106459523Y-30930952D01*
X106411904Y-30978571D01*
X106316666Y-31026190D01*
X105935714Y-31026190D01*
X106840476Y-30502380D02*
X107459523Y-30502380D01*
X107126190Y-30883333D01*
X107269047Y-30883333D01*
X107364285Y-30930952D01*
X107411904Y-30978571D01*
X107459523Y-31073809D01*
X107459523Y-31311904D01*
X107411904Y-31407142D01*
X107364285Y-31454761D01*
X107269047Y-31502380D01*
X106983333Y-31502380D01*
X106888095Y-31454761D01*
X106840476Y-31407142D01*
X107935714Y-31502380D02*
X108126190Y-31502380D01*
X108221428Y-31454761D01*
X108269047Y-31407142D01*
X108364285Y-31264285D01*
X108411904Y-31073809D01*
X108411904Y-30692857D01*
X108364285Y-30597619D01*
X108316666Y-30550000D01*
X108221428Y-30502380D01*
X108030952Y-30502380D01*
X107935714Y-30550000D01*
X107888095Y-30597619D01*
X107840476Y-30692857D01*
X107840476Y-30930952D01*
X107888095Y-31026190D01*
X107935714Y-31073809D01*
X108030952Y-31121428D01*
X108221428Y-31121428D01*
X108316666Y-31073809D01*
X108364285Y-31026190D01*
X108411904Y-30930952D01*
%TO.C,D5*%
X171140380Y-28018095D02*
X170140380Y-28018095D01*
X170140380Y-27780000D01*
X170188000Y-27637142D01*
X170283238Y-27541904D01*
X170378476Y-27494285D01*
X170568952Y-27446666D01*
X170711809Y-27446666D01*
X170902285Y-27494285D01*
X170997523Y-27541904D01*
X171092761Y-27637142D01*
X171140380Y-27780000D01*
X171140380Y-28018095D01*
X170140380Y-26541904D02*
X170140380Y-27018095D01*
X170616571Y-27065714D01*
X170568952Y-27018095D01*
X170521333Y-26922857D01*
X170521333Y-26684761D01*
X170568952Y-26589523D01*
X170616571Y-26541904D01*
X170711809Y-26494285D01*
X170949904Y-26494285D01*
X171045142Y-26541904D01*
X171092761Y-26589523D01*
X171140380Y-26684761D01*
X171140380Y-26922857D01*
X171092761Y-27018095D01*
X171045142Y-27065714D01*
%TO.C,R68*%
X102357142Y-51002380D02*
X102023809Y-50526190D01*
X101785714Y-51002380D02*
X101785714Y-50002380D01*
X102166666Y-50002380D01*
X102261904Y-50050000D01*
X102309523Y-50097619D01*
X102357142Y-50192857D01*
X102357142Y-50335714D01*
X102309523Y-50430952D01*
X102261904Y-50478571D01*
X102166666Y-50526190D01*
X101785714Y-50526190D01*
X103214285Y-50002380D02*
X103023809Y-50002380D01*
X102928571Y-50050000D01*
X102880952Y-50097619D01*
X102785714Y-50240476D01*
X102738095Y-50430952D01*
X102738095Y-50811904D01*
X102785714Y-50907142D01*
X102833333Y-50954761D01*
X102928571Y-51002380D01*
X103119047Y-51002380D01*
X103214285Y-50954761D01*
X103261904Y-50907142D01*
X103309523Y-50811904D01*
X103309523Y-50573809D01*
X103261904Y-50478571D01*
X103214285Y-50430952D01*
X103119047Y-50383333D01*
X102928571Y-50383333D01*
X102833333Y-50430952D01*
X102785714Y-50478571D01*
X102738095Y-50573809D01*
X103880952Y-50430952D02*
X103785714Y-50383333D01*
X103738095Y-50335714D01*
X103690476Y-50240476D01*
X103690476Y-50192857D01*
X103738095Y-50097619D01*
X103785714Y-50050000D01*
X103880952Y-50002380D01*
X104071428Y-50002380D01*
X104166666Y-50050000D01*
X104214285Y-50097619D01*
X104261904Y-50192857D01*
X104261904Y-50240476D01*
X104214285Y-50335714D01*
X104166666Y-50383333D01*
X104071428Y-50430952D01*
X103880952Y-50430952D01*
X103785714Y-50478571D01*
X103738095Y-50526190D01*
X103690476Y-50621428D01*
X103690476Y-50811904D01*
X103738095Y-50907142D01*
X103785714Y-50954761D01*
X103880952Y-51002380D01*
X104071428Y-51002380D01*
X104166666Y-50954761D01*
X104214285Y-50907142D01*
X104261904Y-50811904D01*
X104261904Y-50621428D01*
X104214285Y-50526190D01*
X104166666Y-50478571D01*
X104071428Y-50430952D01*
%TO.C,C30*%
X94007142Y-39192857D02*
X94054761Y-39240476D01*
X94102380Y-39383333D01*
X94102380Y-39478571D01*
X94054761Y-39621428D01*
X93959523Y-39716666D01*
X93864285Y-39764285D01*
X93673809Y-39811904D01*
X93530952Y-39811904D01*
X93340476Y-39764285D01*
X93245238Y-39716666D01*
X93150000Y-39621428D01*
X93102380Y-39478571D01*
X93102380Y-39383333D01*
X93150000Y-39240476D01*
X93197619Y-39192857D01*
X93102380Y-38859523D02*
X93102380Y-38240476D01*
X93483333Y-38573809D01*
X93483333Y-38430952D01*
X93530952Y-38335714D01*
X93578571Y-38288095D01*
X93673809Y-38240476D01*
X93911904Y-38240476D01*
X94007142Y-38288095D01*
X94054761Y-38335714D01*
X94102380Y-38430952D01*
X94102380Y-38716666D01*
X94054761Y-38811904D01*
X94007142Y-38859523D01*
X93102380Y-37621428D02*
X93102380Y-37526190D01*
X93150000Y-37430952D01*
X93197619Y-37383333D01*
X93292857Y-37335714D01*
X93483333Y-37288095D01*
X93721428Y-37288095D01*
X93911904Y-37335714D01*
X94007142Y-37383333D01*
X94054761Y-37430952D01*
X94102380Y-37526190D01*
X94102380Y-37621428D01*
X94054761Y-37716666D01*
X94007142Y-37764285D01*
X93911904Y-37811904D01*
X93721428Y-37859523D01*
X93483333Y-37859523D01*
X93292857Y-37811904D01*
X93197619Y-37764285D01*
X93150000Y-37716666D01*
X93102380Y-37621428D01*
%TO.C,J8*%
X143292380Y-95883333D02*
X144006666Y-95883333D01*
X144149523Y-95930952D01*
X144244761Y-96026190D01*
X144292380Y-96169047D01*
X144292380Y-96264285D01*
X143720952Y-95264285D02*
X143673333Y-95359523D01*
X143625714Y-95407142D01*
X143530476Y-95454761D01*
X143482857Y-95454761D01*
X143387619Y-95407142D01*
X143340000Y-95359523D01*
X143292380Y-95264285D01*
X143292380Y-95073809D01*
X143340000Y-94978571D01*
X143387619Y-94930952D01*
X143482857Y-94883333D01*
X143530476Y-94883333D01*
X143625714Y-94930952D01*
X143673333Y-94978571D01*
X143720952Y-95073809D01*
X143720952Y-95264285D01*
X143768571Y-95359523D01*
X143816190Y-95407142D01*
X143911428Y-95454761D01*
X144101904Y-95454761D01*
X144197142Y-95407142D01*
X144244761Y-95359523D01*
X144292380Y-95264285D01*
X144292380Y-95073809D01*
X144244761Y-94978571D01*
X144197142Y-94930952D01*
X144101904Y-94883333D01*
X143911428Y-94883333D01*
X143816190Y-94930952D01*
X143768571Y-94978571D01*
X143720952Y-95073809D01*
%TO.C,R17*%
X80602380Y-30142857D02*
X80126190Y-30476190D01*
X80602380Y-30714285D02*
X79602380Y-30714285D01*
X79602380Y-30333333D01*
X79650000Y-30238095D01*
X79697619Y-30190476D01*
X79792857Y-30142857D01*
X79935714Y-30142857D01*
X80030952Y-30190476D01*
X80078571Y-30238095D01*
X80126190Y-30333333D01*
X80126190Y-30714285D01*
X80602380Y-29190476D02*
X80602380Y-29761904D01*
X80602380Y-29476190D02*
X79602380Y-29476190D01*
X79745238Y-29571428D01*
X79840476Y-29666666D01*
X79888095Y-29761904D01*
X79602380Y-28857142D02*
X79602380Y-28190476D01*
X80602380Y-28619047D01*
%TO.C,R1*%
X102483333Y-19652380D02*
X102150000Y-19176190D01*
X101911904Y-19652380D02*
X101911904Y-18652380D01*
X102292857Y-18652380D01*
X102388095Y-18700000D01*
X102435714Y-18747619D01*
X102483333Y-18842857D01*
X102483333Y-18985714D01*
X102435714Y-19080952D01*
X102388095Y-19128571D01*
X102292857Y-19176190D01*
X101911904Y-19176190D01*
X103435714Y-19652380D02*
X102864285Y-19652380D01*
X103150000Y-19652380D02*
X103150000Y-18652380D01*
X103054761Y-18795238D01*
X102959523Y-18890476D01*
X102864285Y-18938095D01*
%TO.C,U8*%
X139238095Y-15952380D02*
X139238095Y-16761904D01*
X139285714Y-16857142D01*
X139333333Y-16904761D01*
X139428571Y-16952380D01*
X139619047Y-16952380D01*
X139714285Y-16904761D01*
X139761904Y-16857142D01*
X139809523Y-16761904D01*
X139809523Y-15952380D01*
X140428571Y-16380952D02*
X140333333Y-16333333D01*
X140285714Y-16285714D01*
X140238095Y-16190476D01*
X140238095Y-16142857D01*
X140285714Y-16047619D01*
X140333333Y-16000000D01*
X140428571Y-15952380D01*
X140619047Y-15952380D01*
X140714285Y-16000000D01*
X140761904Y-16047619D01*
X140809523Y-16142857D01*
X140809523Y-16190476D01*
X140761904Y-16285714D01*
X140714285Y-16333333D01*
X140619047Y-16380952D01*
X140428571Y-16380952D01*
X140333333Y-16428571D01*
X140285714Y-16476190D01*
X140238095Y-16571428D01*
X140238095Y-16761904D01*
X140285714Y-16857142D01*
X140333333Y-16904761D01*
X140428571Y-16952380D01*
X140619047Y-16952380D01*
X140714285Y-16904761D01*
X140761904Y-16857142D01*
X140809523Y-16761904D01*
X140809523Y-16571428D01*
X140761904Y-16476190D01*
X140714285Y-16428571D01*
X140619047Y-16380952D01*
%TO.C,Q4*%
X116404761Y-79047619D02*
X116309523Y-79000000D01*
X116214285Y-78904761D01*
X116071428Y-78761904D01*
X115976190Y-78714285D01*
X115880952Y-78714285D01*
X115928571Y-78952380D02*
X115833333Y-78904761D01*
X115738095Y-78809523D01*
X115690476Y-78619047D01*
X115690476Y-78285714D01*
X115738095Y-78095238D01*
X115833333Y-78000000D01*
X115928571Y-77952380D01*
X116119047Y-77952380D01*
X116214285Y-78000000D01*
X116309523Y-78095238D01*
X116357142Y-78285714D01*
X116357142Y-78619047D01*
X116309523Y-78809523D01*
X116214285Y-78904761D01*
X116119047Y-78952380D01*
X115928571Y-78952380D01*
X117214285Y-78285714D02*
X117214285Y-78952380D01*
X116976190Y-77904761D02*
X116738095Y-78619047D01*
X117357142Y-78619047D01*
%TO.C,D6*%
X171140380Y-56018095D02*
X170140380Y-56018095D01*
X170140380Y-55780000D01*
X170188000Y-55637142D01*
X170283238Y-55541904D01*
X170378476Y-55494285D01*
X170568952Y-55446666D01*
X170711809Y-55446666D01*
X170902285Y-55494285D01*
X170997523Y-55541904D01*
X171092761Y-55637142D01*
X171140380Y-55780000D01*
X171140380Y-56018095D01*
X170140380Y-54589523D02*
X170140380Y-54780000D01*
X170188000Y-54875238D01*
X170235619Y-54922857D01*
X170378476Y-55018095D01*
X170568952Y-55065714D01*
X170949904Y-55065714D01*
X171045142Y-55018095D01*
X171092761Y-54970476D01*
X171140380Y-54875238D01*
X171140380Y-54684761D01*
X171092761Y-54589523D01*
X171045142Y-54541904D01*
X170949904Y-54494285D01*
X170711809Y-54494285D01*
X170616571Y-54541904D01*
X170568952Y-54589523D01*
X170521333Y-54684761D01*
X170521333Y-54875238D01*
X170568952Y-54970476D01*
X170616571Y-55018095D01*
X170711809Y-55065714D01*
%TO.C,R38*%
X106507142Y-29502380D02*
X106173809Y-29026190D01*
X105935714Y-29502380D02*
X105935714Y-28502380D01*
X106316666Y-28502380D01*
X106411904Y-28550000D01*
X106459523Y-28597619D01*
X106507142Y-28692857D01*
X106507142Y-28835714D01*
X106459523Y-28930952D01*
X106411904Y-28978571D01*
X106316666Y-29026190D01*
X105935714Y-29026190D01*
X106840476Y-28502380D02*
X107459523Y-28502380D01*
X107126190Y-28883333D01*
X107269047Y-28883333D01*
X107364285Y-28930952D01*
X107411904Y-28978571D01*
X107459523Y-29073809D01*
X107459523Y-29311904D01*
X107411904Y-29407142D01*
X107364285Y-29454761D01*
X107269047Y-29502380D01*
X106983333Y-29502380D01*
X106888095Y-29454761D01*
X106840476Y-29407142D01*
X108030952Y-28930952D02*
X107935714Y-28883333D01*
X107888095Y-28835714D01*
X107840476Y-28740476D01*
X107840476Y-28692857D01*
X107888095Y-28597619D01*
X107935714Y-28550000D01*
X108030952Y-28502380D01*
X108221428Y-28502380D01*
X108316666Y-28550000D01*
X108364285Y-28597619D01*
X108411904Y-28692857D01*
X108411904Y-28740476D01*
X108364285Y-28835714D01*
X108316666Y-28883333D01*
X108221428Y-28930952D01*
X108030952Y-28930952D01*
X107935714Y-28978571D01*
X107888095Y-29026190D01*
X107840476Y-29121428D01*
X107840476Y-29311904D01*
X107888095Y-29407142D01*
X107935714Y-29454761D01*
X108030952Y-29502380D01*
X108221428Y-29502380D01*
X108316666Y-29454761D01*
X108364285Y-29407142D01*
X108411904Y-29311904D01*
X108411904Y-29121428D01*
X108364285Y-29026190D01*
X108316666Y-28978571D01*
X108221428Y-28930952D01*
%TO.C,R6*%
X73483333Y-32502380D02*
X73150000Y-32026190D01*
X72911904Y-32502380D02*
X72911904Y-31502380D01*
X73292857Y-31502380D01*
X73388095Y-31550000D01*
X73435714Y-31597619D01*
X73483333Y-31692857D01*
X73483333Y-31835714D01*
X73435714Y-31930952D01*
X73388095Y-31978571D01*
X73292857Y-32026190D01*
X72911904Y-32026190D01*
X74340476Y-31502380D02*
X74150000Y-31502380D01*
X74054761Y-31550000D01*
X74007142Y-31597619D01*
X73911904Y-31740476D01*
X73864285Y-31930952D01*
X73864285Y-32311904D01*
X73911904Y-32407142D01*
X73959523Y-32454761D01*
X74054761Y-32502380D01*
X74245238Y-32502380D01*
X74340476Y-32454761D01*
X74388095Y-32407142D01*
X74435714Y-32311904D01*
X74435714Y-32073809D01*
X74388095Y-31978571D01*
X74340476Y-31930952D01*
X74245238Y-31883333D01*
X74054761Y-31883333D01*
X73959523Y-31930952D01*
X73911904Y-31978571D01*
X73864285Y-32073809D01*
%TO.C,C12*%
X162857142Y-23357142D02*
X162809523Y-23404761D01*
X162666666Y-23452380D01*
X162571428Y-23452380D01*
X162428571Y-23404761D01*
X162333333Y-23309523D01*
X162285714Y-23214285D01*
X162238095Y-23023809D01*
X162238095Y-22880952D01*
X162285714Y-22690476D01*
X162333333Y-22595238D01*
X162428571Y-22500000D01*
X162571428Y-22452380D01*
X162666666Y-22452380D01*
X162809523Y-22500000D01*
X162857142Y-22547619D01*
X163809523Y-23452380D02*
X163238095Y-23452380D01*
X163523809Y-23452380D02*
X163523809Y-22452380D01*
X163428571Y-22595238D01*
X163333333Y-22690476D01*
X163238095Y-22738095D01*
X164190476Y-22547619D02*
X164238095Y-22500000D01*
X164333333Y-22452380D01*
X164571428Y-22452380D01*
X164666666Y-22500000D01*
X164714285Y-22547619D01*
X164761904Y-22642857D01*
X164761904Y-22738095D01*
X164714285Y-22880952D01*
X164142857Y-23452380D01*
X164761904Y-23452380D01*
%TO.C,R26*%
X159357142Y-63952380D02*
X159023809Y-63476190D01*
X158785714Y-63952380D02*
X158785714Y-62952380D01*
X159166666Y-62952380D01*
X159261904Y-63000000D01*
X159309523Y-63047619D01*
X159357142Y-63142857D01*
X159357142Y-63285714D01*
X159309523Y-63380952D01*
X159261904Y-63428571D01*
X159166666Y-63476190D01*
X158785714Y-63476190D01*
X159738095Y-63047619D02*
X159785714Y-63000000D01*
X159880952Y-62952380D01*
X160119047Y-62952380D01*
X160214285Y-63000000D01*
X160261904Y-63047619D01*
X160309523Y-63142857D01*
X160309523Y-63238095D01*
X160261904Y-63380952D01*
X159690476Y-63952380D01*
X160309523Y-63952380D01*
X161166666Y-62952380D02*
X160976190Y-62952380D01*
X160880952Y-63000000D01*
X160833333Y-63047619D01*
X160738095Y-63190476D01*
X160690476Y-63380952D01*
X160690476Y-63761904D01*
X160738095Y-63857142D01*
X160785714Y-63904761D01*
X160880952Y-63952380D01*
X161071428Y-63952380D01*
X161166666Y-63904761D01*
X161214285Y-63857142D01*
X161261904Y-63761904D01*
X161261904Y-63523809D01*
X161214285Y-63428571D01*
X161166666Y-63380952D01*
X161071428Y-63333333D01*
X160880952Y-63333333D01*
X160785714Y-63380952D01*
X160738095Y-63428571D01*
X160690476Y-63523809D01*
%TO.C,C9*%
X74327142Y-47666666D02*
X74374761Y-47714285D01*
X74422380Y-47857142D01*
X74422380Y-47952380D01*
X74374761Y-48095238D01*
X74279523Y-48190476D01*
X74184285Y-48238095D01*
X73993809Y-48285714D01*
X73850952Y-48285714D01*
X73660476Y-48238095D01*
X73565238Y-48190476D01*
X73470000Y-48095238D01*
X73422380Y-47952380D01*
X73422380Y-47857142D01*
X73470000Y-47714285D01*
X73517619Y-47666666D01*
X74422380Y-47190476D02*
X74422380Y-47000000D01*
X74374761Y-46904761D01*
X74327142Y-46857142D01*
X74184285Y-46761904D01*
X73993809Y-46714285D01*
X73612857Y-46714285D01*
X73517619Y-46761904D01*
X73470000Y-46809523D01*
X73422380Y-46904761D01*
X73422380Y-47095238D01*
X73470000Y-47190476D01*
X73517619Y-47238095D01*
X73612857Y-47285714D01*
X73850952Y-47285714D01*
X73946190Y-47238095D01*
X73993809Y-47190476D01*
X74041428Y-47095238D01*
X74041428Y-46904761D01*
X73993809Y-46809523D01*
X73946190Y-46761904D01*
X73850952Y-46714285D01*
%TO.C,R3*%
X154833333Y-50452380D02*
X154500000Y-49976190D01*
X154261904Y-50452380D02*
X154261904Y-49452380D01*
X154642857Y-49452380D01*
X154738095Y-49500000D01*
X154785714Y-49547619D01*
X154833333Y-49642857D01*
X154833333Y-49785714D01*
X154785714Y-49880952D01*
X154738095Y-49928571D01*
X154642857Y-49976190D01*
X154261904Y-49976190D01*
X155166666Y-49452380D02*
X155785714Y-49452380D01*
X155452380Y-49833333D01*
X155595238Y-49833333D01*
X155690476Y-49880952D01*
X155738095Y-49928571D01*
X155785714Y-50023809D01*
X155785714Y-50261904D01*
X155738095Y-50357142D01*
X155690476Y-50404761D01*
X155595238Y-50452380D01*
X155309523Y-50452380D01*
X155214285Y-50404761D01*
X155166666Y-50357142D01*
%TO.C,R47*%
X119507142Y-51652380D02*
X119173809Y-51176190D01*
X118935714Y-51652380D02*
X118935714Y-50652380D01*
X119316666Y-50652380D01*
X119411904Y-50700000D01*
X119459523Y-50747619D01*
X119507142Y-50842857D01*
X119507142Y-50985714D01*
X119459523Y-51080952D01*
X119411904Y-51128571D01*
X119316666Y-51176190D01*
X118935714Y-51176190D01*
X120364285Y-50985714D02*
X120364285Y-51652380D01*
X120126190Y-50604761D02*
X119888095Y-51319047D01*
X120507142Y-51319047D01*
X120792857Y-50652380D02*
X121459523Y-50652380D01*
X121030952Y-51652380D01*
%TO.C,J3*%
X159532380Y-43833333D02*
X160246666Y-43833333D01*
X160389523Y-43880952D01*
X160484761Y-43976190D01*
X160532380Y-44119047D01*
X160532380Y-44214285D01*
X159532380Y-43452380D02*
X159532380Y-42833333D01*
X159913333Y-43166666D01*
X159913333Y-43023809D01*
X159960952Y-42928571D01*
X160008571Y-42880952D01*
X160103809Y-42833333D01*
X160341904Y-42833333D01*
X160437142Y-42880952D01*
X160484761Y-42928571D01*
X160532380Y-43023809D01*
X160532380Y-43309523D01*
X160484761Y-43404761D01*
X160437142Y-43452380D01*
%TO.C,R50*%
X82857142Y-77702380D02*
X82523809Y-77226190D01*
X82285714Y-77702380D02*
X82285714Y-76702380D01*
X82666666Y-76702380D01*
X82761904Y-76750000D01*
X82809523Y-76797619D01*
X82857142Y-76892857D01*
X82857142Y-77035714D01*
X82809523Y-77130952D01*
X82761904Y-77178571D01*
X82666666Y-77226190D01*
X82285714Y-77226190D01*
X83761904Y-76702380D02*
X83285714Y-76702380D01*
X83238095Y-77178571D01*
X83285714Y-77130952D01*
X83380952Y-77083333D01*
X83619047Y-77083333D01*
X83714285Y-77130952D01*
X83761904Y-77178571D01*
X83809523Y-77273809D01*
X83809523Y-77511904D01*
X83761904Y-77607142D01*
X83714285Y-77654761D01*
X83619047Y-77702380D01*
X83380952Y-77702380D01*
X83285714Y-77654761D01*
X83238095Y-77607142D01*
X84428571Y-76702380D02*
X84523809Y-76702380D01*
X84619047Y-76750000D01*
X84666666Y-76797619D01*
X84714285Y-76892857D01*
X84761904Y-77083333D01*
X84761904Y-77321428D01*
X84714285Y-77511904D01*
X84666666Y-77607142D01*
X84619047Y-77654761D01*
X84523809Y-77702380D01*
X84428571Y-77702380D01*
X84333333Y-77654761D01*
X84285714Y-77607142D01*
X84238095Y-77511904D01*
X84190476Y-77321428D01*
X84190476Y-77083333D01*
X84238095Y-76892857D01*
X84285714Y-76797619D01*
X84333333Y-76750000D01*
X84428571Y-76702380D01*
%TO.C,R19*%
X147857142Y-23452380D02*
X147523809Y-22976190D01*
X147285714Y-23452380D02*
X147285714Y-22452380D01*
X147666666Y-22452380D01*
X147761904Y-22500000D01*
X147809523Y-22547619D01*
X147857142Y-22642857D01*
X147857142Y-22785714D01*
X147809523Y-22880952D01*
X147761904Y-22928571D01*
X147666666Y-22976190D01*
X147285714Y-22976190D01*
X148809523Y-23452380D02*
X148238095Y-23452380D01*
X148523809Y-23452380D02*
X148523809Y-22452380D01*
X148428571Y-22595238D01*
X148333333Y-22690476D01*
X148238095Y-22738095D01*
X149285714Y-23452380D02*
X149476190Y-23452380D01*
X149571428Y-23404761D01*
X149619047Y-23357142D01*
X149714285Y-23214285D01*
X149761904Y-23023809D01*
X149761904Y-22642857D01*
X149714285Y-22547619D01*
X149666666Y-22500000D01*
X149571428Y-22452380D01*
X149380952Y-22452380D01*
X149285714Y-22500000D01*
X149238095Y-22547619D01*
X149190476Y-22642857D01*
X149190476Y-22880952D01*
X149238095Y-22976190D01*
X149285714Y-23023809D01*
X149380952Y-23071428D01*
X149571428Y-23071428D01*
X149666666Y-23023809D01*
X149714285Y-22976190D01*
X149761904Y-22880952D01*
%TO.C,Q2*%
X116429761Y-73597619D02*
X116334523Y-73550000D01*
X116239285Y-73454761D01*
X116096428Y-73311904D01*
X116001190Y-73264285D01*
X115905952Y-73264285D01*
X115953571Y-73502380D02*
X115858333Y-73454761D01*
X115763095Y-73359523D01*
X115715476Y-73169047D01*
X115715476Y-72835714D01*
X115763095Y-72645238D01*
X115858333Y-72550000D01*
X115953571Y-72502380D01*
X116144047Y-72502380D01*
X116239285Y-72550000D01*
X116334523Y-72645238D01*
X116382142Y-72835714D01*
X116382142Y-73169047D01*
X116334523Y-73359523D01*
X116239285Y-73454761D01*
X116144047Y-73502380D01*
X115953571Y-73502380D01*
X116763095Y-72597619D02*
X116810714Y-72550000D01*
X116905952Y-72502380D01*
X117144047Y-72502380D01*
X117239285Y-72550000D01*
X117286904Y-72597619D01*
X117334523Y-72692857D01*
X117334523Y-72788095D01*
X117286904Y-72930952D01*
X116715476Y-73502380D01*
X117334523Y-73502380D01*
%TO.C,D4*%
X171140380Y-63018095D02*
X170140380Y-63018095D01*
X170140380Y-62780000D01*
X170188000Y-62637142D01*
X170283238Y-62541904D01*
X170378476Y-62494285D01*
X170568952Y-62446666D01*
X170711809Y-62446666D01*
X170902285Y-62494285D01*
X170997523Y-62541904D01*
X171092761Y-62637142D01*
X171140380Y-62780000D01*
X171140380Y-63018095D01*
X170473714Y-61589523D02*
X171140380Y-61589523D01*
X170092761Y-61827619D02*
X170807047Y-62065714D01*
X170807047Y-61446666D01*
%TO.C,C1*%
X69907142Y-36666666D02*
X69954761Y-36714285D01*
X70002380Y-36857142D01*
X70002380Y-36952380D01*
X69954761Y-37095238D01*
X69859523Y-37190476D01*
X69764285Y-37238095D01*
X69573809Y-37285714D01*
X69430952Y-37285714D01*
X69240476Y-37238095D01*
X69145238Y-37190476D01*
X69050000Y-37095238D01*
X69002380Y-36952380D01*
X69002380Y-36857142D01*
X69050000Y-36714285D01*
X69097619Y-36666666D01*
X70002380Y-35714285D02*
X70002380Y-36285714D01*
X70002380Y-36000000D02*
X69002380Y-36000000D01*
X69145238Y-36095238D01*
X69240476Y-36190476D01*
X69288095Y-36285714D01*
%TO.C,R51*%
X97357142Y-71452380D02*
X97023809Y-70976190D01*
X96785714Y-71452380D02*
X96785714Y-70452380D01*
X97166666Y-70452380D01*
X97261904Y-70500000D01*
X97309523Y-70547619D01*
X97357142Y-70642857D01*
X97357142Y-70785714D01*
X97309523Y-70880952D01*
X97261904Y-70928571D01*
X97166666Y-70976190D01*
X96785714Y-70976190D01*
X98261904Y-70452380D02*
X97785714Y-70452380D01*
X97738095Y-70928571D01*
X97785714Y-70880952D01*
X97880952Y-70833333D01*
X98119047Y-70833333D01*
X98214285Y-70880952D01*
X98261904Y-70928571D01*
X98309523Y-71023809D01*
X98309523Y-71261904D01*
X98261904Y-71357142D01*
X98214285Y-71404761D01*
X98119047Y-71452380D01*
X97880952Y-71452380D01*
X97785714Y-71404761D01*
X97738095Y-71357142D01*
X99261904Y-71452380D02*
X98690476Y-71452380D01*
X98976190Y-71452380D02*
X98976190Y-70452380D01*
X98880952Y-70595238D01*
X98785714Y-70690476D01*
X98690476Y-70738095D01*
%TO.C,R2*%
X84422380Y-47666666D02*
X83946190Y-48000000D01*
X84422380Y-48238095D02*
X83422380Y-48238095D01*
X83422380Y-47857142D01*
X83470000Y-47761904D01*
X83517619Y-47714285D01*
X83612857Y-47666666D01*
X83755714Y-47666666D01*
X83850952Y-47714285D01*
X83898571Y-47761904D01*
X83946190Y-47857142D01*
X83946190Y-48238095D01*
X83517619Y-47285714D02*
X83470000Y-47238095D01*
X83422380Y-47142857D01*
X83422380Y-46904761D01*
X83470000Y-46809523D01*
X83517619Y-46761904D01*
X83612857Y-46714285D01*
X83708095Y-46714285D01*
X83850952Y-46761904D01*
X84422380Y-47333333D01*
X84422380Y-46714285D01*
%TO.C,U2*%
X145238095Y-55452380D02*
X145238095Y-56261904D01*
X145285714Y-56357142D01*
X145333333Y-56404761D01*
X145428571Y-56452380D01*
X145619047Y-56452380D01*
X145714285Y-56404761D01*
X145761904Y-56357142D01*
X145809523Y-56261904D01*
X145809523Y-55452380D01*
X146238095Y-55547619D02*
X146285714Y-55500000D01*
X146380952Y-55452380D01*
X146619047Y-55452380D01*
X146714285Y-55500000D01*
X146761904Y-55547619D01*
X146809523Y-55642857D01*
X146809523Y-55738095D01*
X146761904Y-55880952D01*
X146190476Y-56452380D01*
X146809523Y-56452380D01*
%TO.C,R25*%
X159357142Y-26952380D02*
X159023809Y-26476190D01*
X158785714Y-26952380D02*
X158785714Y-25952380D01*
X159166666Y-25952380D01*
X159261904Y-26000000D01*
X159309523Y-26047619D01*
X159357142Y-26142857D01*
X159357142Y-26285714D01*
X159309523Y-26380952D01*
X159261904Y-26428571D01*
X159166666Y-26476190D01*
X158785714Y-26476190D01*
X159738095Y-26047619D02*
X159785714Y-26000000D01*
X159880952Y-25952380D01*
X160119047Y-25952380D01*
X160214285Y-26000000D01*
X160261904Y-26047619D01*
X160309523Y-26142857D01*
X160309523Y-26238095D01*
X160261904Y-26380952D01*
X159690476Y-26952380D01*
X160309523Y-26952380D01*
X161214285Y-25952380D02*
X160738095Y-25952380D01*
X160690476Y-26428571D01*
X160738095Y-26380952D01*
X160833333Y-26333333D01*
X161071428Y-26333333D01*
X161166666Y-26380952D01*
X161214285Y-26428571D01*
X161261904Y-26523809D01*
X161261904Y-26761904D01*
X161214285Y-26857142D01*
X161166666Y-26904761D01*
X161071428Y-26952380D01*
X160833333Y-26952380D01*
X160738095Y-26904761D01*
X160690476Y-26857142D01*
%TO.C,U12*%
X94952380Y-77488095D02*
X95761904Y-77488095D01*
X95857142Y-77440476D01*
X95904761Y-77392857D01*
X95952380Y-77297619D01*
X95952380Y-77107142D01*
X95904761Y-77011904D01*
X95857142Y-76964285D01*
X95761904Y-76916666D01*
X94952380Y-76916666D01*
X95952380Y-75916666D02*
X95952380Y-76488095D01*
X95952380Y-76202380D02*
X94952380Y-76202380D01*
X95095238Y-76297619D01*
X95190476Y-76392857D01*
X95238095Y-76488095D01*
X95047619Y-75535714D02*
X95000000Y-75488095D01*
X94952380Y-75392857D01*
X94952380Y-75154761D01*
X95000000Y-75059523D01*
X95047619Y-75011904D01*
X95142857Y-74964285D01*
X95238095Y-74964285D01*
X95380952Y-75011904D01*
X95952380Y-75583333D01*
X95952380Y-74964285D01*
%TO.C,R34*%
X106507142Y-21502380D02*
X106173809Y-21026190D01*
X105935714Y-21502380D02*
X105935714Y-20502380D01*
X106316666Y-20502380D01*
X106411904Y-20550000D01*
X106459523Y-20597619D01*
X106507142Y-20692857D01*
X106507142Y-20835714D01*
X106459523Y-20930952D01*
X106411904Y-20978571D01*
X106316666Y-21026190D01*
X105935714Y-21026190D01*
X106840476Y-20502380D02*
X107459523Y-20502380D01*
X107126190Y-20883333D01*
X107269047Y-20883333D01*
X107364285Y-20930952D01*
X107411904Y-20978571D01*
X107459523Y-21073809D01*
X107459523Y-21311904D01*
X107411904Y-21407142D01*
X107364285Y-21454761D01*
X107269047Y-21502380D01*
X106983333Y-21502380D01*
X106888095Y-21454761D01*
X106840476Y-21407142D01*
X108316666Y-20835714D02*
X108316666Y-21502380D01*
X108078571Y-20454761D02*
X107840476Y-21169047D01*
X108459523Y-21169047D01*
%TO.C,C13*%
X70857142Y-20142857D02*
X70904761Y-20190476D01*
X70952380Y-20333333D01*
X70952380Y-20428571D01*
X70904761Y-20571428D01*
X70809523Y-20666666D01*
X70714285Y-20714285D01*
X70523809Y-20761904D01*
X70380952Y-20761904D01*
X70190476Y-20714285D01*
X70095238Y-20666666D01*
X70000000Y-20571428D01*
X69952380Y-20428571D01*
X69952380Y-20333333D01*
X70000000Y-20190476D01*
X70047619Y-20142857D01*
X70952380Y-19190476D02*
X70952380Y-19761904D01*
X70952380Y-19476190D02*
X69952380Y-19476190D01*
X70095238Y-19571428D01*
X70190476Y-19666666D01*
X70238095Y-19761904D01*
X69952380Y-18857142D02*
X69952380Y-18238095D01*
X70333333Y-18571428D01*
X70333333Y-18428571D01*
X70380952Y-18333333D01*
X70428571Y-18285714D01*
X70523809Y-18238095D01*
X70761904Y-18238095D01*
X70857142Y-18285714D01*
X70904761Y-18333333D01*
X70952380Y-18428571D01*
X70952380Y-18714285D01*
X70904761Y-18809523D01*
X70857142Y-18857142D01*
%TO.C,R9*%
X78422380Y-47666666D02*
X77946190Y-48000000D01*
X78422380Y-48238095D02*
X77422380Y-48238095D01*
X77422380Y-47857142D01*
X77470000Y-47761904D01*
X77517619Y-47714285D01*
X77612857Y-47666666D01*
X77755714Y-47666666D01*
X77850952Y-47714285D01*
X77898571Y-47761904D01*
X77946190Y-47857142D01*
X77946190Y-48238095D01*
X78422380Y-47190476D02*
X78422380Y-47000000D01*
X78374761Y-46904761D01*
X78327142Y-46857142D01*
X78184285Y-46761904D01*
X77993809Y-46714285D01*
X77612857Y-46714285D01*
X77517619Y-46761904D01*
X77470000Y-46809523D01*
X77422380Y-46904761D01*
X77422380Y-47095238D01*
X77470000Y-47190476D01*
X77517619Y-47238095D01*
X77612857Y-47285714D01*
X77850952Y-47285714D01*
X77946190Y-47238095D01*
X77993809Y-47190476D01*
X78041428Y-47095238D01*
X78041428Y-46904761D01*
X77993809Y-46809523D01*
X77946190Y-46761904D01*
X77850952Y-46714285D01*
%TO.C,C31*%
X142357142Y-41857142D02*
X142309523Y-41904761D01*
X142166666Y-41952380D01*
X142071428Y-41952380D01*
X141928571Y-41904761D01*
X141833333Y-41809523D01*
X141785714Y-41714285D01*
X141738095Y-41523809D01*
X141738095Y-41380952D01*
X141785714Y-41190476D01*
X141833333Y-41095238D01*
X141928571Y-41000000D01*
X142071428Y-40952380D01*
X142166666Y-40952380D01*
X142309523Y-41000000D01*
X142357142Y-41047619D01*
X142690476Y-40952380D02*
X143309523Y-40952380D01*
X142976190Y-41333333D01*
X143119047Y-41333333D01*
X143214285Y-41380952D01*
X143261904Y-41428571D01*
X143309523Y-41523809D01*
X143309523Y-41761904D01*
X143261904Y-41857142D01*
X143214285Y-41904761D01*
X143119047Y-41952380D01*
X142833333Y-41952380D01*
X142738095Y-41904761D01*
X142690476Y-41857142D01*
X144261904Y-41952380D02*
X143690476Y-41952380D01*
X143976190Y-41952380D02*
X143976190Y-40952380D01*
X143880952Y-41095238D01*
X143785714Y-41190476D01*
X143690476Y-41238095D01*
%TO.C,R41*%
X106507142Y-35502380D02*
X106173809Y-35026190D01*
X105935714Y-35502380D02*
X105935714Y-34502380D01*
X106316666Y-34502380D01*
X106411904Y-34550000D01*
X106459523Y-34597619D01*
X106507142Y-34692857D01*
X106507142Y-34835714D01*
X106459523Y-34930952D01*
X106411904Y-34978571D01*
X106316666Y-35026190D01*
X105935714Y-35026190D01*
X107364285Y-34835714D02*
X107364285Y-35502380D01*
X107126190Y-34454761D02*
X106888095Y-35169047D01*
X107507142Y-35169047D01*
X108411904Y-35502380D02*
X107840476Y-35502380D01*
X108126190Y-35502380D02*
X108126190Y-34502380D01*
X108030952Y-34645238D01*
X107935714Y-34740476D01*
X107840476Y-34788095D01*
%TO.C,RL3*%
X95428571Y-103952380D02*
X95095238Y-103476190D01*
X94857142Y-103952380D02*
X94857142Y-102952380D01*
X95238095Y-102952380D01*
X95333333Y-103000000D01*
X95380952Y-103047619D01*
X95428571Y-103142857D01*
X95428571Y-103285714D01*
X95380952Y-103380952D01*
X95333333Y-103428571D01*
X95238095Y-103476190D01*
X94857142Y-103476190D01*
X96333333Y-103952380D02*
X95857142Y-103952380D01*
X95857142Y-102952380D01*
X96571428Y-102952380D02*
X97190476Y-102952380D01*
X96857142Y-103333333D01*
X97000000Y-103333333D01*
X97095238Y-103380952D01*
X97142857Y-103428571D01*
X97190476Y-103523809D01*
X97190476Y-103761904D01*
X97142857Y-103857142D01*
X97095238Y-103904761D01*
X97000000Y-103952380D01*
X96714285Y-103952380D01*
X96619047Y-103904761D01*
X96571428Y-103857142D01*
%TO.C,R31*%
X121627380Y-71192857D02*
X121151190Y-71526190D01*
X121627380Y-71764285D02*
X120627380Y-71764285D01*
X120627380Y-71383333D01*
X120675000Y-71288095D01*
X120722619Y-71240476D01*
X120817857Y-71192857D01*
X120960714Y-71192857D01*
X121055952Y-71240476D01*
X121103571Y-71288095D01*
X121151190Y-71383333D01*
X121151190Y-71764285D01*
X120627380Y-70859523D02*
X120627380Y-70240476D01*
X121008333Y-70573809D01*
X121008333Y-70430952D01*
X121055952Y-70335714D01*
X121103571Y-70288095D01*
X121198809Y-70240476D01*
X121436904Y-70240476D01*
X121532142Y-70288095D01*
X121579761Y-70335714D01*
X121627380Y-70430952D01*
X121627380Y-70716666D01*
X121579761Y-70811904D01*
X121532142Y-70859523D01*
X121627380Y-69288095D02*
X121627380Y-69859523D01*
X121627380Y-69573809D02*
X120627380Y-69573809D01*
X120770238Y-69669047D01*
X120865476Y-69764285D01*
X120913095Y-69859523D01*
%TO.C,L2*%
X86483333Y-17002380D02*
X86007142Y-17002380D01*
X86007142Y-16002380D01*
X86769047Y-16097619D02*
X86816666Y-16050000D01*
X86911904Y-16002380D01*
X87150000Y-16002380D01*
X87245238Y-16050000D01*
X87292857Y-16097619D01*
X87340476Y-16192857D01*
X87340476Y-16288095D01*
X87292857Y-16430952D01*
X86721428Y-17002380D01*
X87340476Y-17002380D01*
%TO.C,C23*%
X90835078Y-53007142D02*
X90787459Y-53054761D01*
X90644602Y-53102380D01*
X90549364Y-53102380D01*
X90406507Y-53054761D01*
X90311269Y-52959523D01*
X90263650Y-52864285D01*
X90216031Y-52673809D01*
X90216031Y-52530952D01*
X90263650Y-52340476D01*
X90311269Y-52245238D01*
X90406507Y-52150000D01*
X90549364Y-52102380D01*
X90644602Y-52102380D01*
X90787459Y-52150000D01*
X90835078Y-52197619D01*
X91216031Y-52197619D02*
X91263650Y-52150000D01*
X91358888Y-52102380D01*
X91596983Y-52102380D01*
X91692221Y-52150000D01*
X91739840Y-52197619D01*
X91787459Y-52292857D01*
X91787459Y-52388095D01*
X91739840Y-52530952D01*
X91168412Y-53102380D01*
X91787459Y-53102380D01*
X92120793Y-52102380D02*
X92739840Y-52102380D01*
X92406507Y-52483333D01*
X92549364Y-52483333D01*
X92644602Y-52530952D01*
X92692221Y-52578571D01*
X92739840Y-52673809D01*
X92739840Y-52911904D01*
X92692221Y-53007142D01*
X92644602Y-53054761D01*
X92549364Y-53102380D01*
X92263650Y-53102380D01*
X92168412Y-53054761D01*
X92120793Y-53007142D01*
%TO.C,R32*%
X112302380Y-71142857D02*
X111826190Y-71476190D01*
X112302380Y-71714285D02*
X111302380Y-71714285D01*
X111302380Y-71333333D01*
X111350000Y-71238095D01*
X111397619Y-71190476D01*
X111492857Y-71142857D01*
X111635714Y-71142857D01*
X111730952Y-71190476D01*
X111778571Y-71238095D01*
X111826190Y-71333333D01*
X111826190Y-71714285D01*
X111302380Y-70809523D02*
X111302380Y-70190476D01*
X111683333Y-70523809D01*
X111683333Y-70380952D01*
X111730952Y-70285714D01*
X111778571Y-70238095D01*
X111873809Y-70190476D01*
X112111904Y-70190476D01*
X112207142Y-70238095D01*
X112254761Y-70285714D01*
X112302380Y-70380952D01*
X112302380Y-70666666D01*
X112254761Y-70761904D01*
X112207142Y-70809523D01*
X111397619Y-69809523D02*
X111350000Y-69761904D01*
X111302380Y-69666666D01*
X111302380Y-69428571D01*
X111350000Y-69333333D01*
X111397619Y-69285714D01*
X111492857Y-69238095D01*
X111588095Y-69238095D01*
X111730952Y-69285714D01*
X112302380Y-69857142D01*
X112302380Y-69238095D01*
%TO.C,C26*%
X100007142Y-30857142D02*
X99959523Y-30904761D01*
X99816666Y-30952380D01*
X99721428Y-30952380D01*
X99578571Y-30904761D01*
X99483333Y-30809523D01*
X99435714Y-30714285D01*
X99388095Y-30523809D01*
X99388095Y-30380952D01*
X99435714Y-30190476D01*
X99483333Y-30095238D01*
X99578571Y-30000000D01*
X99721428Y-29952380D01*
X99816666Y-29952380D01*
X99959523Y-30000000D01*
X100007142Y-30047619D01*
X100388095Y-30047619D02*
X100435714Y-30000000D01*
X100530952Y-29952380D01*
X100769047Y-29952380D01*
X100864285Y-30000000D01*
X100911904Y-30047619D01*
X100959523Y-30142857D01*
X100959523Y-30238095D01*
X100911904Y-30380952D01*
X100340476Y-30952380D01*
X100959523Y-30952380D01*
X101816666Y-29952380D02*
X101626190Y-29952380D01*
X101530952Y-30000000D01*
X101483333Y-30047619D01*
X101388095Y-30190476D01*
X101340476Y-30380952D01*
X101340476Y-30761904D01*
X101388095Y-30857142D01*
X101435714Y-30904761D01*
X101530952Y-30952380D01*
X101721428Y-30952380D01*
X101816666Y-30904761D01*
X101864285Y-30857142D01*
X101911904Y-30761904D01*
X101911904Y-30523809D01*
X101864285Y-30428571D01*
X101816666Y-30380952D01*
X101721428Y-30333333D01*
X101530952Y-30333333D01*
X101435714Y-30380952D01*
X101388095Y-30428571D01*
X101340476Y-30523809D01*
%TO.C,D8*%
X145911904Y-81502380D02*
X145911904Y-80502380D01*
X146150000Y-80502380D01*
X146292857Y-80550000D01*
X146388095Y-80645238D01*
X146435714Y-80740476D01*
X146483333Y-80930952D01*
X146483333Y-81073809D01*
X146435714Y-81264285D01*
X146388095Y-81359523D01*
X146292857Y-81454761D01*
X146150000Y-81502380D01*
X145911904Y-81502380D01*
X147054761Y-80930952D02*
X146959523Y-80883333D01*
X146911904Y-80835714D01*
X146864285Y-80740476D01*
X146864285Y-80692857D01*
X146911904Y-80597619D01*
X146959523Y-80550000D01*
X147054761Y-80502380D01*
X147245238Y-80502380D01*
X147340476Y-80550000D01*
X147388095Y-80597619D01*
X147435714Y-80692857D01*
X147435714Y-80740476D01*
X147388095Y-80835714D01*
X147340476Y-80883333D01*
X147245238Y-80930952D01*
X147054761Y-80930952D01*
X146959523Y-80978571D01*
X146911904Y-81026190D01*
X146864285Y-81121428D01*
X146864285Y-81311904D01*
X146911904Y-81407142D01*
X146959523Y-81454761D01*
X147054761Y-81502380D01*
X147245238Y-81502380D01*
X147340476Y-81454761D01*
X147388095Y-81407142D01*
X147435714Y-81311904D01*
X147435714Y-81121428D01*
X147388095Y-81026190D01*
X147340476Y-80978571D01*
X147245238Y-80930952D01*
%TO.C,Q1*%
X71404761Y-28047619D02*
X71309523Y-28000000D01*
X71214285Y-27904761D01*
X71071428Y-27761904D01*
X70976190Y-27714285D01*
X70880952Y-27714285D01*
X70928571Y-27952380D02*
X70833333Y-27904761D01*
X70738095Y-27809523D01*
X70690476Y-27619047D01*
X70690476Y-27285714D01*
X70738095Y-27095238D01*
X70833333Y-27000000D01*
X70928571Y-26952380D01*
X71119047Y-26952380D01*
X71214285Y-27000000D01*
X71309523Y-27095238D01*
X71357142Y-27285714D01*
X71357142Y-27619047D01*
X71309523Y-27809523D01*
X71214285Y-27904761D01*
X71119047Y-27952380D01*
X70928571Y-27952380D01*
X72309523Y-27952380D02*
X71738095Y-27952380D01*
X72023809Y-27952380D02*
X72023809Y-26952380D01*
X71928571Y-27095238D01*
X71833333Y-27190476D01*
X71738095Y-27238095D01*
%TO.C,Q7*%
X162054761Y-58597619D02*
X161959523Y-58550000D01*
X161864285Y-58454761D01*
X161721428Y-58311904D01*
X161626190Y-58264285D01*
X161530952Y-58264285D01*
X161578571Y-58502380D02*
X161483333Y-58454761D01*
X161388095Y-58359523D01*
X161340476Y-58169047D01*
X161340476Y-57835714D01*
X161388095Y-57645238D01*
X161483333Y-57550000D01*
X161578571Y-57502380D01*
X161769047Y-57502380D01*
X161864285Y-57550000D01*
X161959523Y-57645238D01*
X162007142Y-57835714D01*
X162007142Y-58169047D01*
X161959523Y-58359523D01*
X161864285Y-58454761D01*
X161769047Y-58502380D01*
X161578571Y-58502380D01*
X162340476Y-57502380D02*
X163007142Y-57502380D01*
X162578571Y-58502380D01*
%TO.C,R42*%
X106507142Y-37502380D02*
X106173809Y-37026190D01*
X105935714Y-37502380D02*
X105935714Y-36502380D01*
X106316666Y-36502380D01*
X106411904Y-36550000D01*
X106459523Y-36597619D01*
X106507142Y-36692857D01*
X106507142Y-36835714D01*
X106459523Y-36930952D01*
X106411904Y-36978571D01*
X106316666Y-37026190D01*
X105935714Y-37026190D01*
X107364285Y-36835714D02*
X107364285Y-37502380D01*
X107126190Y-36454761D02*
X106888095Y-37169047D01*
X107507142Y-37169047D01*
X107840476Y-36597619D02*
X107888095Y-36550000D01*
X107983333Y-36502380D01*
X108221428Y-36502380D01*
X108316666Y-36550000D01*
X108364285Y-36597619D01*
X108411904Y-36692857D01*
X108411904Y-36788095D01*
X108364285Y-36930952D01*
X107792857Y-37502380D01*
X108411904Y-37502380D01*
%TO.C,C38*%
X146357142Y-65142857D02*
X146404761Y-65190476D01*
X146452380Y-65333333D01*
X146452380Y-65428571D01*
X146404761Y-65571428D01*
X146309523Y-65666666D01*
X146214285Y-65714285D01*
X146023809Y-65761904D01*
X145880952Y-65761904D01*
X145690476Y-65714285D01*
X145595238Y-65666666D01*
X145500000Y-65571428D01*
X145452380Y-65428571D01*
X145452380Y-65333333D01*
X145500000Y-65190476D01*
X145547619Y-65142857D01*
X145452380Y-64809523D02*
X145452380Y-64190476D01*
X145833333Y-64523809D01*
X145833333Y-64380952D01*
X145880952Y-64285714D01*
X145928571Y-64238095D01*
X146023809Y-64190476D01*
X146261904Y-64190476D01*
X146357142Y-64238095D01*
X146404761Y-64285714D01*
X146452380Y-64380952D01*
X146452380Y-64666666D01*
X146404761Y-64761904D01*
X146357142Y-64809523D01*
X145880952Y-63619047D02*
X145833333Y-63714285D01*
X145785714Y-63761904D01*
X145690476Y-63809523D01*
X145642857Y-63809523D01*
X145547619Y-63761904D01*
X145500000Y-63714285D01*
X145452380Y-63619047D01*
X145452380Y-63428571D01*
X145500000Y-63333333D01*
X145547619Y-63285714D01*
X145642857Y-63238095D01*
X145690476Y-63238095D01*
X145785714Y-63285714D01*
X145833333Y-63333333D01*
X145880952Y-63428571D01*
X145880952Y-63619047D01*
X145928571Y-63714285D01*
X145976190Y-63761904D01*
X146071428Y-63809523D01*
X146261904Y-63809523D01*
X146357142Y-63761904D01*
X146404761Y-63714285D01*
X146452380Y-63619047D01*
X146452380Y-63428571D01*
X146404761Y-63333333D01*
X146357142Y-63285714D01*
X146261904Y-63238095D01*
X146071428Y-63238095D01*
X145976190Y-63285714D01*
X145928571Y-63333333D01*
X145880952Y-63428571D01*
%TO.C,R49*%
X115507142Y-51502380D02*
X115173809Y-51026190D01*
X114935714Y-51502380D02*
X114935714Y-50502380D01*
X115316666Y-50502380D01*
X115411904Y-50550000D01*
X115459523Y-50597619D01*
X115507142Y-50692857D01*
X115507142Y-50835714D01*
X115459523Y-50930952D01*
X115411904Y-50978571D01*
X115316666Y-51026190D01*
X114935714Y-51026190D01*
X116364285Y-50835714D02*
X116364285Y-51502380D01*
X116126190Y-50454761D02*
X115888095Y-51169047D01*
X116507142Y-51169047D01*
X116935714Y-51502380D02*
X117126190Y-51502380D01*
X117221428Y-51454761D01*
X117269047Y-51407142D01*
X117364285Y-51264285D01*
X117411904Y-51073809D01*
X117411904Y-50692857D01*
X117364285Y-50597619D01*
X117316666Y-50550000D01*
X117221428Y-50502380D01*
X117030952Y-50502380D01*
X116935714Y-50550000D01*
X116888095Y-50597619D01*
X116840476Y-50692857D01*
X116840476Y-50930952D01*
X116888095Y-51026190D01*
X116935714Y-51073809D01*
X117030952Y-51121428D01*
X117221428Y-51121428D01*
X117316666Y-51073809D01*
X117364285Y-51026190D01*
X117411904Y-50930952D01*
%TO.C,C6*%
X140357142Y-29666666D02*
X140404761Y-29714285D01*
X140452380Y-29857142D01*
X140452380Y-29952380D01*
X140404761Y-30095238D01*
X140309523Y-30190476D01*
X140214285Y-30238095D01*
X140023809Y-30285714D01*
X139880952Y-30285714D01*
X139690476Y-30238095D01*
X139595238Y-30190476D01*
X139500000Y-30095238D01*
X139452380Y-29952380D01*
X139452380Y-29857142D01*
X139500000Y-29714285D01*
X139547619Y-29666666D01*
X139452380Y-28809523D02*
X139452380Y-29000000D01*
X139500000Y-29095238D01*
X139547619Y-29142857D01*
X139690476Y-29238095D01*
X139880952Y-29285714D01*
X140261904Y-29285714D01*
X140357142Y-29238095D01*
X140404761Y-29190476D01*
X140452380Y-29095238D01*
X140452380Y-28904761D01*
X140404761Y-28809523D01*
X140357142Y-28761904D01*
X140261904Y-28714285D01*
X140023809Y-28714285D01*
X139928571Y-28761904D01*
X139880952Y-28809523D01*
X139833333Y-28904761D01*
X139833333Y-29095238D01*
X139880952Y-29190476D01*
X139928571Y-29238095D01*
X140023809Y-29285714D01*
%TO.C,R53*%
X118007142Y-55502380D02*
X117673809Y-55026190D01*
X117435714Y-55502380D02*
X117435714Y-54502380D01*
X117816666Y-54502380D01*
X117911904Y-54550000D01*
X117959523Y-54597619D01*
X118007142Y-54692857D01*
X118007142Y-54835714D01*
X117959523Y-54930952D01*
X117911904Y-54978571D01*
X117816666Y-55026190D01*
X117435714Y-55026190D01*
X118911904Y-54502380D02*
X118435714Y-54502380D01*
X118388095Y-54978571D01*
X118435714Y-54930952D01*
X118530952Y-54883333D01*
X118769047Y-54883333D01*
X118864285Y-54930952D01*
X118911904Y-54978571D01*
X118959523Y-55073809D01*
X118959523Y-55311904D01*
X118911904Y-55407142D01*
X118864285Y-55454761D01*
X118769047Y-55502380D01*
X118530952Y-55502380D01*
X118435714Y-55454761D01*
X118388095Y-55407142D01*
X119292857Y-54502380D02*
X119911904Y-54502380D01*
X119578571Y-54883333D01*
X119721428Y-54883333D01*
X119816666Y-54930952D01*
X119864285Y-54978571D01*
X119911904Y-55073809D01*
X119911904Y-55311904D01*
X119864285Y-55407142D01*
X119816666Y-55454761D01*
X119721428Y-55502380D01*
X119435714Y-55502380D01*
X119340476Y-55454761D01*
X119292857Y-55407142D01*
%TO.C,SW1*%
X159166666Y-23644761D02*
X159309523Y-23692380D01*
X159547619Y-23692380D01*
X159642857Y-23644761D01*
X159690476Y-23597142D01*
X159738095Y-23501904D01*
X159738095Y-23406666D01*
X159690476Y-23311428D01*
X159642857Y-23263809D01*
X159547619Y-23216190D01*
X159357142Y-23168571D01*
X159261904Y-23120952D01*
X159214285Y-23073333D01*
X159166666Y-22978095D01*
X159166666Y-22882857D01*
X159214285Y-22787619D01*
X159261904Y-22740000D01*
X159357142Y-22692380D01*
X159595238Y-22692380D01*
X159738095Y-22740000D01*
X160071428Y-22692380D02*
X160309523Y-23692380D01*
X160500000Y-22978095D01*
X160690476Y-23692380D01*
X160928571Y-22692380D01*
X161833333Y-23692380D02*
X161261904Y-23692380D01*
X161547619Y-23692380D02*
X161547619Y-22692380D01*
X161452380Y-22835238D01*
X161357142Y-22930476D01*
X161261904Y-22978095D01*
%TO.C,U11*%
X117102380Y-46788095D02*
X117911904Y-46788095D01*
X118007142Y-46740476D01*
X118054761Y-46692857D01*
X118102380Y-46597619D01*
X118102380Y-46407142D01*
X118054761Y-46311904D01*
X118007142Y-46264285D01*
X117911904Y-46216666D01*
X117102380Y-46216666D01*
X118102380Y-45216666D02*
X118102380Y-45788095D01*
X118102380Y-45502380D02*
X117102380Y-45502380D01*
X117245238Y-45597619D01*
X117340476Y-45692857D01*
X117388095Y-45788095D01*
X118102380Y-44264285D02*
X118102380Y-44835714D01*
X118102380Y-44550000D02*
X117102380Y-44550000D01*
X117245238Y-44645238D01*
X117340476Y-44740476D01*
X117388095Y-44835714D01*
%TO.C,R61*%
X118007142Y-53502380D02*
X117673809Y-53026190D01*
X117435714Y-53502380D02*
X117435714Y-52502380D01*
X117816666Y-52502380D01*
X117911904Y-52550000D01*
X117959523Y-52597619D01*
X118007142Y-52692857D01*
X118007142Y-52835714D01*
X117959523Y-52930952D01*
X117911904Y-52978571D01*
X117816666Y-53026190D01*
X117435714Y-53026190D01*
X118864285Y-52502380D02*
X118673809Y-52502380D01*
X118578571Y-52550000D01*
X118530952Y-52597619D01*
X118435714Y-52740476D01*
X118388095Y-52930952D01*
X118388095Y-53311904D01*
X118435714Y-53407142D01*
X118483333Y-53454761D01*
X118578571Y-53502380D01*
X118769047Y-53502380D01*
X118864285Y-53454761D01*
X118911904Y-53407142D01*
X118959523Y-53311904D01*
X118959523Y-53073809D01*
X118911904Y-52978571D01*
X118864285Y-52930952D01*
X118769047Y-52883333D01*
X118578571Y-52883333D01*
X118483333Y-52930952D01*
X118435714Y-52978571D01*
X118388095Y-53073809D01*
X119911904Y-53502380D02*
X119340476Y-53502380D01*
X119626190Y-53502380D02*
X119626190Y-52502380D01*
X119530952Y-52645238D01*
X119435714Y-52740476D01*
X119340476Y-52788095D01*
%TO.C,C8*%
X73327142Y-60104166D02*
X73374761Y-60151785D01*
X73422380Y-60294642D01*
X73422380Y-60389880D01*
X73374761Y-60532738D01*
X73279523Y-60627976D01*
X73184285Y-60675595D01*
X72993809Y-60723214D01*
X72850952Y-60723214D01*
X72660476Y-60675595D01*
X72565238Y-60627976D01*
X72470000Y-60532738D01*
X72422380Y-60389880D01*
X72422380Y-60294642D01*
X72470000Y-60151785D01*
X72517619Y-60104166D01*
X72850952Y-59532738D02*
X72803333Y-59627976D01*
X72755714Y-59675595D01*
X72660476Y-59723214D01*
X72612857Y-59723214D01*
X72517619Y-59675595D01*
X72470000Y-59627976D01*
X72422380Y-59532738D01*
X72422380Y-59342261D01*
X72470000Y-59247023D01*
X72517619Y-59199404D01*
X72612857Y-59151785D01*
X72660476Y-59151785D01*
X72755714Y-59199404D01*
X72803333Y-59247023D01*
X72850952Y-59342261D01*
X72850952Y-59532738D01*
X72898571Y-59627976D01*
X72946190Y-59675595D01*
X73041428Y-59723214D01*
X73231904Y-59723214D01*
X73327142Y-59675595D01*
X73374761Y-59627976D01*
X73422380Y-59532738D01*
X73422380Y-59342261D01*
X73374761Y-59247023D01*
X73327142Y-59199404D01*
X73231904Y-59151785D01*
X73041428Y-59151785D01*
X72946190Y-59199404D01*
X72898571Y-59247023D01*
X72850952Y-59342261D01*
%TO.C,U6*%
X145238095Y-50402380D02*
X145238095Y-51211904D01*
X145285714Y-51307142D01*
X145333333Y-51354761D01*
X145428571Y-51402380D01*
X145619047Y-51402380D01*
X145714285Y-51354761D01*
X145761904Y-51307142D01*
X145809523Y-51211904D01*
X145809523Y-50402380D01*
X146714285Y-50402380D02*
X146523809Y-50402380D01*
X146428571Y-50450000D01*
X146380952Y-50497619D01*
X146285714Y-50640476D01*
X146238095Y-50830952D01*
X146238095Y-51211904D01*
X146285714Y-51307142D01*
X146333333Y-51354761D01*
X146428571Y-51402380D01*
X146619047Y-51402380D01*
X146714285Y-51354761D01*
X146761904Y-51307142D01*
X146809523Y-51211904D01*
X146809523Y-50973809D01*
X146761904Y-50878571D01*
X146714285Y-50830952D01*
X146619047Y-50783333D01*
X146428571Y-50783333D01*
X146333333Y-50830952D01*
X146285714Y-50878571D01*
X146238095Y-50973809D01*
%TO.C,Y1*%
X132926190Y-37976190D02*
X133402380Y-37976190D01*
X132402380Y-38309523D02*
X132926190Y-37976190D01*
X132402380Y-37642857D01*
X133402380Y-36785714D02*
X133402380Y-37357142D01*
X133402380Y-37071428D02*
X132402380Y-37071428D01*
X132545238Y-37166666D01*
X132640476Y-37261904D01*
X132688095Y-37357142D01*
%TO.C,R35*%
X106507142Y-23502380D02*
X106173809Y-23026190D01*
X105935714Y-23502380D02*
X105935714Y-22502380D01*
X106316666Y-22502380D01*
X106411904Y-22550000D01*
X106459523Y-22597619D01*
X106507142Y-22692857D01*
X106507142Y-22835714D01*
X106459523Y-22930952D01*
X106411904Y-22978571D01*
X106316666Y-23026190D01*
X105935714Y-23026190D01*
X106840476Y-22502380D02*
X107459523Y-22502380D01*
X107126190Y-22883333D01*
X107269047Y-22883333D01*
X107364285Y-22930952D01*
X107411904Y-22978571D01*
X107459523Y-23073809D01*
X107459523Y-23311904D01*
X107411904Y-23407142D01*
X107364285Y-23454761D01*
X107269047Y-23502380D01*
X106983333Y-23502380D01*
X106888095Y-23454761D01*
X106840476Y-23407142D01*
X108364285Y-22502380D02*
X107888095Y-22502380D01*
X107840476Y-22978571D01*
X107888095Y-22930952D01*
X107983333Y-22883333D01*
X108221428Y-22883333D01*
X108316666Y-22930952D01*
X108364285Y-22978571D01*
X108411904Y-23073809D01*
X108411904Y-23311904D01*
X108364285Y-23407142D01*
X108316666Y-23454761D01*
X108221428Y-23502380D01*
X107983333Y-23502380D01*
X107888095Y-23454761D01*
X107840476Y-23407142D01*
%TO.C,C35*%
X125819642Y-55857142D02*
X125772023Y-55904761D01*
X125629166Y-55952380D01*
X125533928Y-55952380D01*
X125391071Y-55904761D01*
X125295833Y-55809523D01*
X125248214Y-55714285D01*
X125200595Y-55523809D01*
X125200595Y-55380952D01*
X125248214Y-55190476D01*
X125295833Y-55095238D01*
X125391071Y-55000000D01*
X125533928Y-54952380D01*
X125629166Y-54952380D01*
X125772023Y-55000000D01*
X125819642Y-55047619D01*
X126152976Y-54952380D02*
X126772023Y-54952380D01*
X126438690Y-55333333D01*
X126581547Y-55333333D01*
X126676785Y-55380952D01*
X126724404Y-55428571D01*
X126772023Y-55523809D01*
X126772023Y-55761904D01*
X126724404Y-55857142D01*
X126676785Y-55904761D01*
X126581547Y-55952380D01*
X126295833Y-55952380D01*
X126200595Y-55904761D01*
X126152976Y-55857142D01*
X127676785Y-54952380D02*
X127200595Y-54952380D01*
X127152976Y-55428571D01*
X127200595Y-55380952D01*
X127295833Y-55333333D01*
X127533928Y-55333333D01*
X127629166Y-55380952D01*
X127676785Y-55428571D01*
X127724404Y-55523809D01*
X127724404Y-55761904D01*
X127676785Y-55857142D01*
X127629166Y-55904761D01*
X127533928Y-55952380D01*
X127295833Y-55952380D01*
X127200595Y-55904761D01*
X127152976Y-55857142D01*
%TO.C,R16*%
X159357142Y-40952380D02*
X159023809Y-40476190D01*
X158785714Y-40952380D02*
X158785714Y-39952380D01*
X159166666Y-39952380D01*
X159261904Y-40000000D01*
X159309523Y-40047619D01*
X159357142Y-40142857D01*
X159357142Y-40285714D01*
X159309523Y-40380952D01*
X159261904Y-40428571D01*
X159166666Y-40476190D01*
X158785714Y-40476190D01*
X160309523Y-40952380D02*
X159738095Y-40952380D01*
X160023809Y-40952380D02*
X160023809Y-39952380D01*
X159928571Y-40095238D01*
X159833333Y-40190476D01*
X159738095Y-40238095D01*
X161166666Y-39952380D02*
X160976190Y-39952380D01*
X160880952Y-40000000D01*
X160833333Y-40047619D01*
X160738095Y-40190476D01*
X160690476Y-40380952D01*
X160690476Y-40761904D01*
X160738095Y-40857142D01*
X160785714Y-40904761D01*
X160880952Y-40952380D01*
X161071428Y-40952380D01*
X161166666Y-40904761D01*
X161214285Y-40857142D01*
X161261904Y-40761904D01*
X161261904Y-40523809D01*
X161214285Y-40428571D01*
X161166666Y-40380952D01*
X161071428Y-40333333D01*
X160880952Y-40333333D01*
X160785714Y-40380952D01*
X160738095Y-40428571D01*
X160690476Y-40523809D01*
%TO.C,F2*%
X122778571Y-87833333D02*
X122778571Y-88166666D01*
X123302380Y-88166666D02*
X122302380Y-88166666D01*
X122302380Y-87690476D01*
X122397619Y-87357142D02*
X122350000Y-87309523D01*
X122302380Y-87214285D01*
X122302380Y-86976190D01*
X122350000Y-86880952D01*
X122397619Y-86833333D01*
X122492857Y-86785714D01*
X122588095Y-86785714D01*
X122730952Y-86833333D01*
X123302380Y-87404761D01*
X123302380Y-86785714D01*
%TO.C,R36*%
X106507142Y-25502380D02*
X106173809Y-25026190D01*
X105935714Y-25502380D02*
X105935714Y-24502380D01*
X106316666Y-24502380D01*
X106411904Y-24550000D01*
X106459523Y-24597619D01*
X106507142Y-24692857D01*
X106507142Y-24835714D01*
X106459523Y-24930952D01*
X106411904Y-24978571D01*
X106316666Y-25026190D01*
X105935714Y-25026190D01*
X106840476Y-24502380D02*
X107459523Y-24502380D01*
X107126190Y-24883333D01*
X107269047Y-24883333D01*
X107364285Y-24930952D01*
X107411904Y-24978571D01*
X107459523Y-25073809D01*
X107459523Y-25311904D01*
X107411904Y-25407142D01*
X107364285Y-25454761D01*
X107269047Y-25502380D01*
X106983333Y-25502380D01*
X106888095Y-25454761D01*
X106840476Y-25407142D01*
X108316666Y-24502380D02*
X108126190Y-24502380D01*
X108030952Y-24550000D01*
X107983333Y-24597619D01*
X107888095Y-24740476D01*
X107840476Y-24930952D01*
X107840476Y-25311904D01*
X107888095Y-25407142D01*
X107935714Y-25454761D01*
X108030952Y-25502380D01*
X108221428Y-25502380D01*
X108316666Y-25454761D01*
X108364285Y-25407142D01*
X108411904Y-25311904D01*
X108411904Y-25073809D01*
X108364285Y-24978571D01*
X108316666Y-24930952D01*
X108221428Y-24883333D01*
X108030952Y-24883333D01*
X107935714Y-24930952D01*
X107888095Y-24978571D01*
X107840476Y-25073809D01*
%TO.C,U9*%
X80738095Y-38952380D02*
X80738095Y-39761904D01*
X80785714Y-39857142D01*
X80833333Y-39904761D01*
X80928571Y-39952380D01*
X81119047Y-39952380D01*
X81214285Y-39904761D01*
X81261904Y-39857142D01*
X81309523Y-39761904D01*
X81309523Y-38952380D01*
X81833333Y-39952380D02*
X82023809Y-39952380D01*
X82119047Y-39904761D01*
X82166666Y-39857142D01*
X82261904Y-39714285D01*
X82309523Y-39523809D01*
X82309523Y-39142857D01*
X82261904Y-39047619D01*
X82214285Y-39000000D01*
X82119047Y-38952380D01*
X81928571Y-38952380D01*
X81833333Y-39000000D01*
X81785714Y-39047619D01*
X81738095Y-39142857D01*
X81738095Y-39380952D01*
X81785714Y-39476190D01*
X81833333Y-39523809D01*
X81928571Y-39571428D01*
X82119047Y-39571428D01*
X82214285Y-39523809D01*
X82261904Y-39476190D01*
X82309523Y-39380952D01*
%TO.C,R44*%
X82857142Y-71202380D02*
X82523809Y-70726190D01*
X82285714Y-71202380D02*
X82285714Y-70202380D01*
X82666666Y-70202380D01*
X82761904Y-70250000D01*
X82809523Y-70297619D01*
X82857142Y-70392857D01*
X82857142Y-70535714D01*
X82809523Y-70630952D01*
X82761904Y-70678571D01*
X82666666Y-70726190D01*
X82285714Y-70726190D01*
X83714285Y-70535714D02*
X83714285Y-71202380D01*
X83476190Y-70154761D02*
X83238095Y-70869047D01*
X83857142Y-70869047D01*
X84666666Y-70535714D02*
X84666666Y-71202380D01*
X84428571Y-70154761D02*
X84190476Y-70869047D01*
X84809523Y-70869047D01*
%TO.C,R67*%
X152252380Y-69192857D02*
X151776190Y-69526190D01*
X152252380Y-69764285D02*
X151252380Y-69764285D01*
X151252380Y-69383333D01*
X151300000Y-69288095D01*
X151347619Y-69240476D01*
X151442857Y-69192857D01*
X151585714Y-69192857D01*
X151680952Y-69240476D01*
X151728571Y-69288095D01*
X151776190Y-69383333D01*
X151776190Y-69764285D01*
X151252380Y-68335714D02*
X151252380Y-68526190D01*
X151300000Y-68621428D01*
X151347619Y-68669047D01*
X151490476Y-68764285D01*
X151680952Y-68811904D01*
X152061904Y-68811904D01*
X152157142Y-68764285D01*
X152204761Y-68716666D01*
X152252380Y-68621428D01*
X152252380Y-68430952D01*
X152204761Y-68335714D01*
X152157142Y-68288095D01*
X152061904Y-68240476D01*
X151823809Y-68240476D01*
X151728571Y-68288095D01*
X151680952Y-68335714D01*
X151633333Y-68430952D01*
X151633333Y-68621428D01*
X151680952Y-68716666D01*
X151728571Y-68764285D01*
X151823809Y-68811904D01*
X151252380Y-67907142D02*
X151252380Y-67240476D01*
X152252380Y-67669047D01*
%TO.C,R27*%
X159357142Y-28952380D02*
X159023809Y-28476190D01*
X158785714Y-28952380D02*
X158785714Y-27952380D01*
X159166666Y-27952380D01*
X159261904Y-28000000D01*
X159309523Y-28047619D01*
X159357142Y-28142857D01*
X159357142Y-28285714D01*
X159309523Y-28380952D01*
X159261904Y-28428571D01*
X159166666Y-28476190D01*
X158785714Y-28476190D01*
X159738095Y-28047619D02*
X159785714Y-28000000D01*
X159880952Y-27952380D01*
X160119047Y-27952380D01*
X160214285Y-28000000D01*
X160261904Y-28047619D01*
X160309523Y-28142857D01*
X160309523Y-28238095D01*
X160261904Y-28380952D01*
X159690476Y-28952380D01*
X160309523Y-28952380D01*
X160642857Y-27952380D02*
X161309523Y-27952380D01*
X160880952Y-28952380D01*
%TO.C,F3*%
X61166666Y-46608571D02*
X60833333Y-46608571D01*
X60833333Y-47132380D02*
X60833333Y-46132380D01*
X61309523Y-46132380D01*
X61595238Y-46132380D02*
X62214285Y-46132380D01*
X61880952Y-46513333D01*
X62023809Y-46513333D01*
X62119047Y-46560952D01*
X62166666Y-46608571D01*
X62214285Y-46703809D01*
X62214285Y-46941904D01*
X62166666Y-47037142D01*
X62119047Y-47084761D01*
X62023809Y-47132380D01*
X61738095Y-47132380D01*
X61642857Y-47084761D01*
X61595238Y-47037142D01*
%TO.C,C14*%
X76007142Y-39192857D02*
X76054761Y-39240476D01*
X76102380Y-39383333D01*
X76102380Y-39478571D01*
X76054761Y-39621428D01*
X75959523Y-39716666D01*
X75864285Y-39764285D01*
X75673809Y-39811904D01*
X75530952Y-39811904D01*
X75340476Y-39764285D01*
X75245238Y-39716666D01*
X75150000Y-39621428D01*
X75102380Y-39478571D01*
X75102380Y-39383333D01*
X75150000Y-39240476D01*
X75197619Y-39192857D01*
X76102380Y-38240476D02*
X76102380Y-38811904D01*
X76102380Y-38526190D02*
X75102380Y-38526190D01*
X75245238Y-38621428D01*
X75340476Y-38716666D01*
X75388095Y-38811904D01*
X75435714Y-37383333D02*
X76102380Y-37383333D01*
X75054761Y-37621428D02*
X75769047Y-37859523D01*
X75769047Y-37240476D01*
%TO.C,U5*%
X74452380Y-27261904D02*
X75261904Y-27261904D01*
X75357142Y-27214285D01*
X75404761Y-27166666D01*
X75452380Y-27071428D01*
X75452380Y-26880952D01*
X75404761Y-26785714D01*
X75357142Y-26738095D01*
X75261904Y-26690476D01*
X74452380Y-26690476D01*
X74452380Y-25738095D02*
X74452380Y-26214285D01*
X74928571Y-26261904D01*
X74880952Y-26214285D01*
X74833333Y-26119047D01*
X74833333Y-25880952D01*
X74880952Y-25785714D01*
X74928571Y-25738095D01*
X75023809Y-25690476D01*
X75261904Y-25690476D01*
X75357142Y-25738095D01*
X75404761Y-25785714D01*
X75452380Y-25880952D01*
X75452380Y-26119047D01*
X75404761Y-26214285D01*
X75357142Y-26261904D01*
%TO.C,R52*%
X110952380Y-44192857D02*
X110476190Y-44526190D01*
X110952380Y-44764285D02*
X109952380Y-44764285D01*
X109952380Y-44383333D01*
X110000000Y-44288095D01*
X110047619Y-44240476D01*
X110142857Y-44192857D01*
X110285714Y-44192857D01*
X110380952Y-44240476D01*
X110428571Y-44288095D01*
X110476190Y-44383333D01*
X110476190Y-44764285D01*
X109952380Y-43288095D02*
X109952380Y-43764285D01*
X110428571Y-43811904D01*
X110380952Y-43764285D01*
X110333333Y-43669047D01*
X110333333Y-43430952D01*
X110380952Y-43335714D01*
X110428571Y-43288095D01*
X110523809Y-43240476D01*
X110761904Y-43240476D01*
X110857142Y-43288095D01*
X110904761Y-43335714D01*
X110952380Y-43430952D01*
X110952380Y-43669047D01*
X110904761Y-43764285D01*
X110857142Y-43811904D01*
X110047619Y-42859523D02*
X110000000Y-42811904D01*
X109952380Y-42716666D01*
X109952380Y-42478571D01*
X110000000Y-42383333D01*
X110047619Y-42335714D01*
X110142857Y-42288095D01*
X110238095Y-42288095D01*
X110380952Y-42335714D01*
X110952380Y-42907142D01*
X110952380Y-42288095D01*
%TO.C,R58*%
X94507142Y-53002380D02*
X94173809Y-52526190D01*
X93935714Y-53002380D02*
X93935714Y-52002380D01*
X94316666Y-52002380D01*
X94411904Y-52050000D01*
X94459523Y-52097619D01*
X94507142Y-52192857D01*
X94507142Y-52335714D01*
X94459523Y-52430952D01*
X94411904Y-52478571D01*
X94316666Y-52526190D01*
X93935714Y-52526190D01*
X95411904Y-52002380D02*
X94935714Y-52002380D01*
X94888095Y-52478571D01*
X94935714Y-52430952D01*
X95030952Y-52383333D01*
X95269047Y-52383333D01*
X95364285Y-52430952D01*
X95411904Y-52478571D01*
X95459523Y-52573809D01*
X95459523Y-52811904D01*
X95411904Y-52907142D01*
X95364285Y-52954761D01*
X95269047Y-53002380D01*
X95030952Y-53002380D01*
X94935714Y-52954761D01*
X94888095Y-52907142D01*
X96030952Y-52430952D02*
X95935714Y-52383333D01*
X95888095Y-52335714D01*
X95840476Y-52240476D01*
X95840476Y-52192857D01*
X95888095Y-52097619D01*
X95935714Y-52050000D01*
X96030952Y-52002380D01*
X96221428Y-52002380D01*
X96316666Y-52050000D01*
X96364285Y-52097619D01*
X96411904Y-52192857D01*
X96411904Y-52240476D01*
X96364285Y-52335714D01*
X96316666Y-52383333D01*
X96221428Y-52430952D01*
X96030952Y-52430952D01*
X95935714Y-52478571D01*
X95888095Y-52526190D01*
X95840476Y-52621428D01*
X95840476Y-52811904D01*
X95888095Y-52907142D01*
X95935714Y-52954761D01*
X96030952Y-53002380D01*
X96221428Y-53002380D01*
X96316666Y-52954761D01*
X96364285Y-52907142D01*
X96411904Y-52811904D01*
X96411904Y-52621428D01*
X96364285Y-52526190D01*
X96316666Y-52478571D01*
X96221428Y-52430952D01*
%TO.C,R65*%
X146452380Y-69642857D02*
X145976190Y-69976190D01*
X146452380Y-70214285D02*
X145452380Y-70214285D01*
X145452380Y-69833333D01*
X145500000Y-69738095D01*
X145547619Y-69690476D01*
X145642857Y-69642857D01*
X145785714Y-69642857D01*
X145880952Y-69690476D01*
X145928571Y-69738095D01*
X145976190Y-69833333D01*
X145976190Y-70214285D01*
X145452380Y-68785714D02*
X145452380Y-68976190D01*
X145500000Y-69071428D01*
X145547619Y-69119047D01*
X145690476Y-69214285D01*
X145880952Y-69261904D01*
X146261904Y-69261904D01*
X146357142Y-69214285D01*
X146404761Y-69166666D01*
X146452380Y-69071428D01*
X146452380Y-68880952D01*
X146404761Y-68785714D01*
X146357142Y-68738095D01*
X146261904Y-68690476D01*
X146023809Y-68690476D01*
X145928571Y-68738095D01*
X145880952Y-68785714D01*
X145833333Y-68880952D01*
X145833333Y-69071428D01*
X145880952Y-69166666D01*
X145928571Y-69214285D01*
X146023809Y-69261904D01*
X145452380Y-67785714D02*
X145452380Y-68261904D01*
X145928571Y-68309523D01*
X145880952Y-68261904D01*
X145833333Y-68166666D01*
X145833333Y-67928571D01*
X145880952Y-67833333D01*
X145928571Y-67785714D01*
X146023809Y-67738095D01*
X146261904Y-67738095D01*
X146357142Y-67785714D01*
X146404761Y-67833333D01*
X146452380Y-67928571D01*
X146452380Y-68166666D01*
X146404761Y-68261904D01*
X146357142Y-68309523D01*
%TO.C,C17*%
X78007142Y-39192857D02*
X78054761Y-39240476D01*
X78102380Y-39383333D01*
X78102380Y-39478571D01*
X78054761Y-39621428D01*
X77959523Y-39716666D01*
X77864285Y-39764285D01*
X77673809Y-39811904D01*
X77530952Y-39811904D01*
X77340476Y-39764285D01*
X77245238Y-39716666D01*
X77150000Y-39621428D01*
X77102380Y-39478571D01*
X77102380Y-39383333D01*
X77150000Y-39240476D01*
X77197619Y-39192857D01*
X78102380Y-38240476D02*
X78102380Y-38811904D01*
X78102380Y-38526190D02*
X77102380Y-38526190D01*
X77245238Y-38621428D01*
X77340476Y-38716666D01*
X77388095Y-38811904D01*
X77102380Y-37907142D02*
X77102380Y-37240476D01*
X78102380Y-37669047D01*
%TO.C,R69*%
X74857142Y-76202380D02*
X74523809Y-75726190D01*
X74285714Y-76202380D02*
X74285714Y-75202380D01*
X74666666Y-75202380D01*
X74761904Y-75250000D01*
X74809523Y-75297619D01*
X74857142Y-75392857D01*
X74857142Y-75535714D01*
X74809523Y-75630952D01*
X74761904Y-75678571D01*
X74666666Y-75726190D01*
X74285714Y-75726190D01*
X75714285Y-75202380D02*
X75523809Y-75202380D01*
X75428571Y-75250000D01*
X75380952Y-75297619D01*
X75285714Y-75440476D01*
X75238095Y-75630952D01*
X75238095Y-76011904D01*
X75285714Y-76107142D01*
X75333333Y-76154761D01*
X75428571Y-76202380D01*
X75619047Y-76202380D01*
X75714285Y-76154761D01*
X75761904Y-76107142D01*
X75809523Y-76011904D01*
X75809523Y-75773809D01*
X75761904Y-75678571D01*
X75714285Y-75630952D01*
X75619047Y-75583333D01*
X75428571Y-75583333D01*
X75333333Y-75630952D01*
X75285714Y-75678571D01*
X75238095Y-75773809D01*
X76285714Y-76202380D02*
X76476190Y-76202380D01*
X76571428Y-76154761D01*
X76619047Y-76107142D01*
X76714285Y-75964285D01*
X76761904Y-75773809D01*
X76761904Y-75392857D01*
X76714285Y-75297619D01*
X76666666Y-75250000D01*
X76571428Y-75202380D01*
X76380952Y-75202380D01*
X76285714Y-75250000D01*
X76238095Y-75297619D01*
X76190476Y-75392857D01*
X76190476Y-75630952D01*
X76238095Y-75726190D01*
X76285714Y-75773809D01*
X76380952Y-75821428D01*
X76571428Y-75821428D01*
X76666666Y-75773809D01*
X76714285Y-75726190D01*
X76761904Y-75630952D01*
%TO.C,C36*%
X118007142Y-57407142D02*
X117959523Y-57454761D01*
X117816666Y-57502380D01*
X117721428Y-57502380D01*
X117578571Y-57454761D01*
X117483333Y-57359523D01*
X117435714Y-57264285D01*
X117388095Y-57073809D01*
X117388095Y-56930952D01*
X117435714Y-56740476D01*
X117483333Y-56645238D01*
X117578571Y-56550000D01*
X117721428Y-56502380D01*
X117816666Y-56502380D01*
X117959523Y-56550000D01*
X118007142Y-56597619D01*
X118340476Y-56502380D02*
X118959523Y-56502380D01*
X118626190Y-56883333D01*
X118769047Y-56883333D01*
X118864285Y-56930952D01*
X118911904Y-56978571D01*
X118959523Y-57073809D01*
X118959523Y-57311904D01*
X118911904Y-57407142D01*
X118864285Y-57454761D01*
X118769047Y-57502380D01*
X118483333Y-57502380D01*
X118388095Y-57454761D01*
X118340476Y-57407142D01*
X119816666Y-56502380D02*
X119626190Y-56502380D01*
X119530952Y-56550000D01*
X119483333Y-56597619D01*
X119388095Y-56740476D01*
X119340476Y-56930952D01*
X119340476Y-57311904D01*
X119388095Y-57407142D01*
X119435714Y-57454761D01*
X119530952Y-57502380D01*
X119721428Y-57502380D01*
X119816666Y-57454761D01*
X119864285Y-57407142D01*
X119911904Y-57311904D01*
X119911904Y-57073809D01*
X119864285Y-56978571D01*
X119816666Y-56930952D01*
X119721428Y-56883333D01*
X119530952Y-56883333D01*
X119435714Y-56930952D01*
X119388095Y-56978571D01*
X119340476Y-57073809D01*
%TO.C,R60*%
X110627380Y-71192857D02*
X110151190Y-71526190D01*
X110627380Y-71764285D02*
X109627380Y-71764285D01*
X109627380Y-71383333D01*
X109675000Y-71288095D01*
X109722619Y-71240476D01*
X109817857Y-71192857D01*
X109960714Y-71192857D01*
X110055952Y-71240476D01*
X110103571Y-71288095D01*
X110151190Y-71383333D01*
X110151190Y-71764285D01*
X109627380Y-70335714D02*
X109627380Y-70526190D01*
X109675000Y-70621428D01*
X109722619Y-70669047D01*
X109865476Y-70764285D01*
X110055952Y-70811904D01*
X110436904Y-70811904D01*
X110532142Y-70764285D01*
X110579761Y-70716666D01*
X110627380Y-70621428D01*
X110627380Y-70430952D01*
X110579761Y-70335714D01*
X110532142Y-70288095D01*
X110436904Y-70240476D01*
X110198809Y-70240476D01*
X110103571Y-70288095D01*
X110055952Y-70335714D01*
X110008333Y-70430952D01*
X110008333Y-70621428D01*
X110055952Y-70716666D01*
X110103571Y-70764285D01*
X110198809Y-70811904D01*
X109627380Y-69621428D02*
X109627380Y-69526190D01*
X109675000Y-69430952D01*
X109722619Y-69383333D01*
X109817857Y-69335714D01*
X110008333Y-69288095D01*
X110246428Y-69288095D01*
X110436904Y-69335714D01*
X110532142Y-69383333D01*
X110579761Y-69430952D01*
X110627380Y-69526190D01*
X110627380Y-69621428D01*
X110579761Y-69716666D01*
X110532142Y-69764285D01*
X110436904Y-69811904D01*
X110246428Y-69859523D01*
X110008333Y-69859523D01*
X109817857Y-69811904D01*
X109722619Y-69764285D01*
X109675000Y-69716666D01*
X109627380Y-69621428D01*
%TO.C,F4*%
X144166666Y-100778571D02*
X143833333Y-100778571D01*
X143833333Y-101302380D02*
X143833333Y-100302380D01*
X144309523Y-100302380D01*
X145119047Y-100635714D02*
X145119047Y-101302380D01*
X144880952Y-100254761D02*
X144642857Y-100969047D01*
X145261904Y-100969047D01*
%TO.C,C19*%
X87332142Y-61762142D02*
X87284523Y-61809761D01*
X87141666Y-61857380D01*
X87046428Y-61857380D01*
X86903571Y-61809761D01*
X86808333Y-61714523D01*
X86760714Y-61619285D01*
X86713095Y-61428809D01*
X86713095Y-61285952D01*
X86760714Y-61095476D01*
X86808333Y-61000238D01*
X86903571Y-60905000D01*
X87046428Y-60857380D01*
X87141666Y-60857380D01*
X87284523Y-60905000D01*
X87332142Y-60952619D01*
X88284523Y-61857380D02*
X87713095Y-61857380D01*
X87998809Y-61857380D02*
X87998809Y-60857380D01*
X87903571Y-61000238D01*
X87808333Y-61095476D01*
X87713095Y-61143095D01*
X88760714Y-61857380D02*
X88951190Y-61857380D01*
X89046428Y-61809761D01*
X89094047Y-61762142D01*
X89189285Y-61619285D01*
X89236904Y-61428809D01*
X89236904Y-61047857D01*
X89189285Y-60952619D01*
X89141666Y-60905000D01*
X89046428Y-60857380D01*
X88855952Y-60857380D01*
X88760714Y-60905000D01*
X88713095Y-60952619D01*
X88665476Y-61047857D01*
X88665476Y-61285952D01*
X88713095Y-61381190D01*
X88760714Y-61428809D01*
X88855952Y-61476428D01*
X89046428Y-61476428D01*
X89141666Y-61428809D01*
X89189285Y-61381190D01*
X89236904Y-61285952D01*
%TO.C,R4*%
X154833333Y-48452380D02*
X154500000Y-47976190D01*
X154261904Y-48452380D02*
X154261904Y-47452380D01*
X154642857Y-47452380D01*
X154738095Y-47500000D01*
X154785714Y-47547619D01*
X154833333Y-47642857D01*
X154833333Y-47785714D01*
X154785714Y-47880952D01*
X154738095Y-47928571D01*
X154642857Y-47976190D01*
X154261904Y-47976190D01*
X155690476Y-47785714D02*
X155690476Y-48452380D01*
X155452380Y-47404761D02*
X155214285Y-48119047D01*
X155833333Y-48119047D01*
%TO.C,C16*%
X151357142Y-58142857D02*
X151404761Y-58190476D01*
X151452380Y-58333333D01*
X151452380Y-58428571D01*
X151404761Y-58571428D01*
X151309523Y-58666666D01*
X151214285Y-58714285D01*
X151023809Y-58761904D01*
X150880952Y-58761904D01*
X150690476Y-58714285D01*
X150595238Y-58666666D01*
X150500000Y-58571428D01*
X150452380Y-58428571D01*
X150452380Y-58333333D01*
X150500000Y-58190476D01*
X150547619Y-58142857D01*
X151452380Y-57190476D02*
X151452380Y-57761904D01*
X151452380Y-57476190D02*
X150452380Y-57476190D01*
X150595238Y-57571428D01*
X150690476Y-57666666D01*
X150738095Y-57761904D01*
X150452380Y-56333333D02*
X150452380Y-56523809D01*
X150500000Y-56619047D01*
X150547619Y-56666666D01*
X150690476Y-56761904D01*
X150880952Y-56809523D01*
X151261904Y-56809523D01*
X151357142Y-56761904D01*
X151404761Y-56714285D01*
X151452380Y-56619047D01*
X151452380Y-56428571D01*
X151404761Y-56333333D01*
X151357142Y-56285714D01*
X151261904Y-56238095D01*
X151023809Y-56238095D01*
X150928571Y-56285714D01*
X150880952Y-56333333D01*
X150833333Y-56428571D01*
X150833333Y-56619047D01*
X150880952Y-56714285D01*
X150928571Y-56761904D01*
X151023809Y-56809523D01*
%TO.C,J7*%
X143292380Y-75883333D02*
X144006666Y-75883333D01*
X144149523Y-75930952D01*
X144244761Y-76026190D01*
X144292380Y-76169047D01*
X144292380Y-76264285D01*
X143292380Y-75502380D02*
X143292380Y-74835714D01*
X144292380Y-75264285D01*
%TO.C,R24*%
X88857142Y-45952380D02*
X88523809Y-45476190D01*
X88285714Y-45952380D02*
X88285714Y-44952380D01*
X88666666Y-44952380D01*
X88761904Y-45000000D01*
X88809523Y-45047619D01*
X88857142Y-45142857D01*
X88857142Y-45285714D01*
X88809523Y-45380952D01*
X88761904Y-45428571D01*
X88666666Y-45476190D01*
X88285714Y-45476190D01*
X89238095Y-45047619D02*
X89285714Y-45000000D01*
X89380952Y-44952380D01*
X89619047Y-44952380D01*
X89714285Y-45000000D01*
X89761904Y-45047619D01*
X89809523Y-45142857D01*
X89809523Y-45238095D01*
X89761904Y-45380952D01*
X89190476Y-45952380D01*
X89809523Y-45952380D01*
X90666666Y-45285714D02*
X90666666Y-45952380D01*
X90428571Y-44904761D02*
X90190476Y-45619047D01*
X90809523Y-45619047D01*
%TO.C,L1*%
X87803333Y-57952380D02*
X87327142Y-57952380D01*
X87327142Y-56952380D01*
X88660476Y-57952380D02*
X88089047Y-57952380D01*
X88374761Y-57952380D02*
X88374761Y-56952380D01*
X88279523Y-57095238D01*
X88184285Y-57190476D01*
X88089047Y-57238095D01*
%TO.C,D1*%
X86602380Y-27738095D02*
X85602380Y-27738095D01*
X85602380Y-27500000D01*
X85650000Y-27357142D01*
X85745238Y-27261904D01*
X85840476Y-27214285D01*
X86030952Y-27166666D01*
X86173809Y-27166666D01*
X86364285Y-27214285D01*
X86459523Y-27261904D01*
X86554761Y-27357142D01*
X86602380Y-27500000D01*
X86602380Y-27738095D01*
X86602380Y-26214285D02*
X86602380Y-26785714D01*
X86602380Y-26500000D02*
X85602380Y-26500000D01*
X85745238Y-26595238D01*
X85840476Y-26690476D01*
X85888095Y-26785714D01*
%TO.C,RL1*%
X77928571Y-103952380D02*
X77595238Y-103476190D01*
X77357142Y-103952380D02*
X77357142Y-102952380D01*
X77738095Y-102952380D01*
X77833333Y-103000000D01*
X77880952Y-103047619D01*
X77928571Y-103142857D01*
X77928571Y-103285714D01*
X77880952Y-103380952D01*
X77833333Y-103428571D01*
X77738095Y-103476190D01*
X77357142Y-103476190D01*
X78833333Y-103952380D02*
X78357142Y-103952380D01*
X78357142Y-102952380D01*
X79690476Y-103952380D02*
X79119047Y-103952380D01*
X79404761Y-103952380D02*
X79404761Y-102952380D01*
X79309523Y-103095238D01*
X79214285Y-103190476D01*
X79119047Y-103238095D01*
%TO.C,U15*%
X105602380Y-55788095D02*
X106411904Y-55788095D01*
X106507142Y-55740476D01*
X106554761Y-55692857D01*
X106602380Y-55597619D01*
X106602380Y-55407142D01*
X106554761Y-55311904D01*
X106507142Y-55264285D01*
X106411904Y-55216666D01*
X105602380Y-55216666D01*
X106602380Y-54216666D02*
X106602380Y-54788095D01*
X106602380Y-54502380D02*
X105602380Y-54502380D01*
X105745238Y-54597619D01*
X105840476Y-54692857D01*
X105888095Y-54788095D01*
X105602380Y-53311904D02*
X105602380Y-53788095D01*
X106078571Y-53835714D01*
X106030952Y-53788095D01*
X105983333Y-53692857D01*
X105983333Y-53454761D01*
X106030952Y-53359523D01*
X106078571Y-53311904D01*
X106173809Y-53264285D01*
X106411904Y-53264285D01*
X106507142Y-53311904D01*
X106554761Y-53359523D01*
X106602380Y-53454761D01*
X106602380Y-53692857D01*
X106554761Y-53788095D01*
X106507142Y-53835714D01*
%TO.C,D2*%
X171140380Y-36289833D02*
X170140380Y-36289833D01*
X170140380Y-36051738D01*
X170188000Y-35908880D01*
X170283238Y-35813642D01*
X170378476Y-35766023D01*
X170568952Y-35718404D01*
X170711809Y-35718404D01*
X170902285Y-35766023D01*
X170997523Y-35813642D01*
X171092761Y-35908880D01*
X171140380Y-36051738D01*
X171140380Y-36289833D01*
X170235619Y-35337452D02*
X170188000Y-35289833D01*
X170140380Y-35194595D01*
X170140380Y-34956499D01*
X170188000Y-34861261D01*
X170235619Y-34813642D01*
X170330857Y-34766023D01*
X170426095Y-34766023D01*
X170568952Y-34813642D01*
X171140380Y-35385071D01*
X171140380Y-34766023D01*
%TO.C,U10*%
X89452380Y-41738095D02*
X90261904Y-41738095D01*
X90357142Y-41690476D01*
X90404761Y-41642857D01*
X90452380Y-41547619D01*
X90452380Y-41357142D01*
X90404761Y-41261904D01*
X90357142Y-41214285D01*
X90261904Y-41166666D01*
X89452380Y-41166666D01*
X90452380Y-40166666D02*
X90452380Y-40738095D01*
X90452380Y-40452380D02*
X89452380Y-40452380D01*
X89595238Y-40547619D01*
X89690476Y-40642857D01*
X89738095Y-40738095D01*
X89452380Y-39547619D02*
X89452380Y-39452380D01*
X89500000Y-39357142D01*
X89547619Y-39309523D01*
X89642857Y-39261904D01*
X89833333Y-39214285D01*
X90071428Y-39214285D01*
X90261904Y-39261904D01*
X90357142Y-39309523D01*
X90404761Y-39357142D01*
X90452380Y-39452380D01*
X90452380Y-39547619D01*
X90404761Y-39642857D01*
X90357142Y-39690476D01*
X90261904Y-39738095D01*
X90071428Y-39785714D01*
X89833333Y-39785714D01*
X89642857Y-39738095D01*
X89547619Y-39690476D01*
X89500000Y-39642857D01*
X89452380Y-39547619D01*
%TO.C,R20*%
X140857142Y-25952380D02*
X140523809Y-25476190D01*
X140285714Y-25952380D02*
X140285714Y-24952380D01*
X140666666Y-24952380D01*
X140761904Y-25000000D01*
X140809523Y-25047619D01*
X140857142Y-25142857D01*
X140857142Y-25285714D01*
X140809523Y-25380952D01*
X140761904Y-25428571D01*
X140666666Y-25476190D01*
X140285714Y-25476190D01*
X141238095Y-25047619D02*
X141285714Y-25000000D01*
X141380952Y-24952380D01*
X141619047Y-24952380D01*
X141714285Y-25000000D01*
X141761904Y-25047619D01*
X141809523Y-25142857D01*
X141809523Y-25238095D01*
X141761904Y-25380952D01*
X141190476Y-25952380D01*
X141809523Y-25952380D01*
X142428571Y-24952380D02*
X142523809Y-24952380D01*
X142619047Y-25000000D01*
X142666666Y-25047619D01*
X142714285Y-25142857D01*
X142761904Y-25333333D01*
X142761904Y-25571428D01*
X142714285Y-25761904D01*
X142666666Y-25857142D01*
X142619047Y-25904761D01*
X142523809Y-25952380D01*
X142428571Y-25952380D01*
X142333333Y-25904761D01*
X142285714Y-25857142D01*
X142238095Y-25761904D01*
X142190476Y-25571428D01*
X142190476Y-25333333D01*
X142238095Y-25142857D01*
X142285714Y-25047619D01*
X142333333Y-25000000D01*
X142428571Y-24952380D01*
%TO.C,C28*%
X151357142Y-49677142D02*
X151309523Y-49724761D01*
X151166666Y-49772380D01*
X151071428Y-49772380D01*
X150928571Y-49724761D01*
X150833333Y-49629523D01*
X150785714Y-49534285D01*
X150738095Y-49343809D01*
X150738095Y-49200952D01*
X150785714Y-49010476D01*
X150833333Y-48915238D01*
X150928571Y-48820000D01*
X151071428Y-48772380D01*
X151166666Y-48772380D01*
X151309523Y-48820000D01*
X151357142Y-48867619D01*
X151738095Y-48867619D02*
X151785714Y-48820000D01*
X151880952Y-48772380D01*
X152119047Y-48772380D01*
X152214285Y-48820000D01*
X152261904Y-48867619D01*
X152309523Y-48962857D01*
X152309523Y-49058095D01*
X152261904Y-49200952D01*
X151690476Y-49772380D01*
X152309523Y-49772380D01*
X152880952Y-49200952D02*
X152785714Y-49153333D01*
X152738095Y-49105714D01*
X152690476Y-49010476D01*
X152690476Y-48962857D01*
X152738095Y-48867619D01*
X152785714Y-48820000D01*
X152880952Y-48772380D01*
X153071428Y-48772380D01*
X153166666Y-48820000D01*
X153214285Y-48867619D01*
X153261904Y-48962857D01*
X153261904Y-49010476D01*
X153214285Y-49105714D01*
X153166666Y-49153333D01*
X153071428Y-49200952D01*
X152880952Y-49200952D01*
X152785714Y-49248571D01*
X152738095Y-49296190D01*
X152690476Y-49391428D01*
X152690476Y-49581904D01*
X152738095Y-49677142D01*
X152785714Y-49724761D01*
X152880952Y-49772380D01*
X153071428Y-49772380D01*
X153166666Y-49724761D01*
X153214285Y-49677142D01*
X153261904Y-49581904D01*
X153261904Y-49391428D01*
X153214285Y-49296190D01*
X153166666Y-49248571D01*
X153071428Y-49200952D01*
%TO.C,C33*%
X122357142Y-41857142D02*
X122309523Y-41904761D01*
X122166666Y-41952380D01*
X122071428Y-41952380D01*
X121928571Y-41904761D01*
X121833333Y-41809523D01*
X121785714Y-41714285D01*
X121738095Y-41523809D01*
X121738095Y-41380952D01*
X121785714Y-41190476D01*
X121833333Y-41095238D01*
X121928571Y-41000000D01*
X122071428Y-40952380D01*
X122166666Y-40952380D01*
X122309523Y-41000000D01*
X122357142Y-41047619D01*
X122690476Y-40952380D02*
X123309523Y-40952380D01*
X122976190Y-41333333D01*
X123119047Y-41333333D01*
X123214285Y-41380952D01*
X123261904Y-41428571D01*
X123309523Y-41523809D01*
X123309523Y-41761904D01*
X123261904Y-41857142D01*
X123214285Y-41904761D01*
X123119047Y-41952380D01*
X122833333Y-41952380D01*
X122738095Y-41904761D01*
X122690476Y-41857142D01*
X123642857Y-40952380D02*
X124261904Y-40952380D01*
X123928571Y-41333333D01*
X124071428Y-41333333D01*
X124166666Y-41380952D01*
X124214285Y-41428571D01*
X124261904Y-41523809D01*
X124261904Y-41761904D01*
X124214285Y-41857142D01*
X124166666Y-41904761D01*
X124071428Y-41952380D01*
X123785714Y-41952380D01*
X123690476Y-41904761D01*
X123642857Y-41857142D01*
%TO.C,J6*%
X58896666Y-61322380D02*
X58896666Y-62036666D01*
X58849047Y-62179523D01*
X58753809Y-62274761D01*
X58610952Y-62322380D01*
X58515714Y-62322380D01*
X59801428Y-61322380D02*
X59610952Y-61322380D01*
X59515714Y-61370000D01*
X59468095Y-61417619D01*
X59372857Y-61560476D01*
X59325238Y-61750952D01*
X59325238Y-62131904D01*
X59372857Y-62227142D01*
X59420476Y-62274761D01*
X59515714Y-62322380D01*
X59706190Y-62322380D01*
X59801428Y-62274761D01*
X59849047Y-62227142D01*
X59896666Y-62131904D01*
X59896666Y-61893809D01*
X59849047Y-61798571D01*
X59801428Y-61750952D01*
X59706190Y-61703333D01*
X59515714Y-61703333D01*
X59420476Y-61750952D01*
X59372857Y-61798571D01*
X59325238Y-61893809D01*
%TO.C,D7*%
X128261904Y-42452380D02*
X128261904Y-41452380D01*
X128500000Y-41452380D01*
X128642857Y-41500000D01*
X128738095Y-41595238D01*
X128785714Y-41690476D01*
X128833333Y-41880952D01*
X128833333Y-42023809D01*
X128785714Y-42214285D01*
X128738095Y-42309523D01*
X128642857Y-42404761D01*
X128500000Y-42452380D01*
X128261904Y-42452380D01*
X129166666Y-41452380D02*
X129833333Y-41452380D01*
X129404761Y-42452380D01*
%TO.C,R55*%
X112302380Y-76642857D02*
X111826190Y-76976190D01*
X112302380Y-77214285D02*
X111302380Y-77214285D01*
X111302380Y-76833333D01*
X111350000Y-76738095D01*
X111397619Y-76690476D01*
X111492857Y-76642857D01*
X111635714Y-76642857D01*
X111730952Y-76690476D01*
X111778571Y-76738095D01*
X111826190Y-76833333D01*
X111826190Y-77214285D01*
X111302380Y-75738095D02*
X111302380Y-76214285D01*
X111778571Y-76261904D01*
X111730952Y-76214285D01*
X111683333Y-76119047D01*
X111683333Y-75880952D01*
X111730952Y-75785714D01*
X111778571Y-75738095D01*
X111873809Y-75690476D01*
X112111904Y-75690476D01*
X112207142Y-75738095D01*
X112254761Y-75785714D01*
X112302380Y-75880952D01*
X112302380Y-76119047D01*
X112254761Y-76214285D01*
X112207142Y-76261904D01*
X111302380Y-74785714D02*
X111302380Y-75261904D01*
X111778571Y-75309523D01*
X111730952Y-75261904D01*
X111683333Y-75166666D01*
X111683333Y-74928571D01*
X111730952Y-74833333D01*
X111778571Y-74785714D01*
X111873809Y-74738095D01*
X112111904Y-74738095D01*
X112207142Y-74785714D01*
X112254761Y-74833333D01*
X112302380Y-74928571D01*
X112302380Y-75166666D01*
X112254761Y-75261904D01*
X112207142Y-75309523D01*
%TO.C,R63*%
X98507142Y-51002380D02*
X98173809Y-50526190D01*
X97935714Y-51002380D02*
X97935714Y-50002380D01*
X98316666Y-50002380D01*
X98411904Y-50050000D01*
X98459523Y-50097619D01*
X98507142Y-50192857D01*
X98507142Y-50335714D01*
X98459523Y-50430952D01*
X98411904Y-50478571D01*
X98316666Y-50526190D01*
X97935714Y-50526190D01*
X99364285Y-50002380D02*
X99173809Y-50002380D01*
X99078571Y-50050000D01*
X99030952Y-50097619D01*
X98935714Y-50240476D01*
X98888095Y-50430952D01*
X98888095Y-50811904D01*
X98935714Y-50907142D01*
X98983333Y-50954761D01*
X99078571Y-51002380D01*
X99269047Y-51002380D01*
X99364285Y-50954761D01*
X99411904Y-50907142D01*
X99459523Y-50811904D01*
X99459523Y-50573809D01*
X99411904Y-50478571D01*
X99364285Y-50430952D01*
X99269047Y-50383333D01*
X99078571Y-50383333D01*
X98983333Y-50430952D01*
X98935714Y-50478571D01*
X98888095Y-50573809D01*
X99792857Y-50002380D02*
X100411904Y-50002380D01*
X100078571Y-50383333D01*
X100221428Y-50383333D01*
X100316666Y-50430952D01*
X100364285Y-50478571D01*
X100411904Y-50573809D01*
X100411904Y-50811904D01*
X100364285Y-50907142D01*
X100316666Y-50954761D01*
X100221428Y-51002380D01*
X99935714Y-51002380D01*
X99840476Y-50954761D01*
X99792857Y-50907142D01*
%TO.C,R64*%
X101327380Y-71192857D02*
X100851190Y-71526190D01*
X101327380Y-71764285D02*
X100327380Y-71764285D01*
X100327380Y-71383333D01*
X100375000Y-71288095D01*
X100422619Y-71240476D01*
X100517857Y-71192857D01*
X100660714Y-71192857D01*
X100755952Y-71240476D01*
X100803571Y-71288095D01*
X100851190Y-71383333D01*
X100851190Y-71764285D01*
X100327380Y-70335714D02*
X100327380Y-70526190D01*
X100375000Y-70621428D01*
X100422619Y-70669047D01*
X100565476Y-70764285D01*
X100755952Y-70811904D01*
X101136904Y-70811904D01*
X101232142Y-70764285D01*
X101279761Y-70716666D01*
X101327380Y-70621428D01*
X101327380Y-70430952D01*
X101279761Y-70335714D01*
X101232142Y-70288095D01*
X101136904Y-70240476D01*
X100898809Y-70240476D01*
X100803571Y-70288095D01*
X100755952Y-70335714D01*
X100708333Y-70430952D01*
X100708333Y-70621428D01*
X100755952Y-70716666D01*
X100803571Y-70764285D01*
X100898809Y-70811904D01*
X100660714Y-69383333D02*
X101327380Y-69383333D01*
X100279761Y-69621428D02*
X100994047Y-69859523D01*
X100994047Y-69240476D01*
%TO.C,U16*%
X136914880Y-69288095D02*
X137724404Y-69288095D01*
X137819642Y-69240476D01*
X137867261Y-69192857D01*
X137914880Y-69097619D01*
X137914880Y-68907142D01*
X137867261Y-68811904D01*
X137819642Y-68764285D01*
X137724404Y-68716666D01*
X136914880Y-68716666D01*
X137914880Y-67716666D02*
X137914880Y-68288095D01*
X137914880Y-68002380D02*
X136914880Y-68002380D01*
X137057738Y-68097619D01*
X137152976Y-68192857D01*
X137200595Y-68288095D01*
X136914880Y-66859523D02*
X136914880Y-67050000D01*
X136962500Y-67145238D01*
X137010119Y-67192857D01*
X137152976Y-67288095D01*
X137343452Y-67335714D01*
X137724404Y-67335714D01*
X137819642Y-67288095D01*
X137867261Y-67240476D01*
X137914880Y-67145238D01*
X137914880Y-66954761D01*
X137867261Y-66859523D01*
X137819642Y-66811904D01*
X137724404Y-66764285D01*
X137486309Y-66764285D01*
X137391071Y-66811904D01*
X137343452Y-66859523D01*
X137295833Y-66954761D01*
X137295833Y-67145238D01*
X137343452Y-67240476D01*
X137391071Y-67288095D01*
X137486309Y-67335714D01*
%TO.C,C25*%
X153177142Y-28180357D02*
X153224761Y-28227976D01*
X153272380Y-28370833D01*
X153272380Y-28466071D01*
X153224761Y-28608928D01*
X153129523Y-28704166D01*
X153034285Y-28751785D01*
X152843809Y-28799404D01*
X152700952Y-28799404D01*
X152510476Y-28751785D01*
X152415238Y-28704166D01*
X152320000Y-28608928D01*
X152272380Y-28466071D01*
X152272380Y-28370833D01*
X152320000Y-28227976D01*
X152367619Y-28180357D01*
X152367619Y-27799404D02*
X152320000Y-27751785D01*
X152272380Y-27656547D01*
X152272380Y-27418452D01*
X152320000Y-27323214D01*
X152367619Y-27275595D01*
X152462857Y-27227976D01*
X152558095Y-27227976D01*
X152700952Y-27275595D01*
X153272380Y-27847023D01*
X153272380Y-27227976D01*
X152272380Y-26323214D02*
X152272380Y-26799404D01*
X152748571Y-26847023D01*
X152700952Y-26799404D01*
X152653333Y-26704166D01*
X152653333Y-26466071D01*
X152700952Y-26370833D01*
X152748571Y-26323214D01*
X152843809Y-26275595D01*
X153081904Y-26275595D01*
X153177142Y-26323214D01*
X153224761Y-26370833D01*
X153272380Y-26466071D01*
X153272380Y-26704166D01*
X153224761Y-26799404D01*
X153177142Y-26847023D01*
%TO.C,U3*%
X79545595Y-56402380D02*
X79545595Y-57211904D01*
X79593214Y-57307142D01*
X79640833Y-57354761D01*
X79736071Y-57402380D01*
X79926547Y-57402380D01*
X80021785Y-57354761D01*
X80069404Y-57307142D01*
X80117023Y-57211904D01*
X80117023Y-56402380D01*
X80497976Y-56402380D02*
X81117023Y-56402380D01*
X80783690Y-56783333D01*
X80926547Y-56783333D01*
X81021785Y-56830952D01*
X81069404Y-56878571D01*
X81117023Y-56973809D01*
X81117023Y-57211904D01*
X81069404Y-57307142D01*
X81021785Y-57354761D01*
X80926547Y-57402380D01*
X80640833Y-57402380D01*
X80545595Y-57354761D01*
X80497976Y-57307142D01*
%TO.C,C2*%
X138857142Y-57166666D02*
X138904761Y-57214285D01*
X138952380Y-57357142D01*
X138952380Y-57452380D01*
X138904761Y-57595238D01*
X138809523Y-57690476D01*
X138714285Y-57738095D01*
X138523809Y-57785714D01*
X138380952Y-57785714D01*
X138190476Y-57738095D01*
X138095238Y-57690476D01*
X138000000Y-57595238D01*
X137952380Y-57452380D01*
X137952380Y-57357142D01*
X138000000Y-57214285D01*
X138047619Y-57166666D01*
X138047619Y-56785714D02*
X138000000Y-56738095D01*
X137952380Y-56642857D01*
X137952380Y-56404761D01*
X138000000Y-56309523D01*
X138047619Y-56261904D01*
X138142857Y-56214285D01*
X138238095Y-56214285D01*
X138380952Y-56261904D01*
X138952380Y-56833333D01*
X138952380Y-56214285D01*
%TO.C,R62*%
X157952380Y-55922857D02*
X157476190Y-56256190D01*
X157952380Y-56494285D02*
X156952380Y-56494285D01*
X156952380Y-56113333D01*
X157000000Y-56018095D01*
X157047619Y-55970476D01*
X157142857Y-55922857D01*
X157285714Y-55922857D01*
X157380952Y-55970476D01*
X157428571Y-56018095D01*
X157476190Y-56113333D01*
X157476190Y-56494285D01*
X156952380Y-55065714D02*
X156952380Y-55256190D01*
X157000000Y-55351428D01*
X157047619Y-55399047D01*
X157190476Y-55494285D01*
X157380952Y-55541904D01*
X157761904Y-55541904D01*
X157857142Y-55494285D01*
X157904761Y-55446666D01*
X157952380Y-55351428D01*
X157952380Y-55160952D01*
X157904761Y-55065714D01*
X157857142Y-55018095D01*
X157761904Y-54970476D01*
X157523809Y-54970476D01*
X157428571Y-55018095D01*
X157380952Y-55065714D01*
X157333333Y-55160952D01*
X157333333Y-55351428D01*
X157380952Y-55446666D01*
X157428571Y-55494285D01*
X157523809Y-55541904D01*
X157047619Y-54589523D02*
X157000000Y-54541904D01*
X156952380Y-54446666D01*
X156952380Y-54208571D01*
X157000000Y-54113333D01*
X157047619Y-54065714D01*
X157142857Y-54018095D01*
X157238095Y-54018095D01*
X157380952Y-54065714D01*
X157952380Y-54637142D01*
X157952380Y-54018095D01*
%TO.C,C24*%
X94007142Y-30857142D02*
X93959523Y-30904761D01*
X93816666Y-30952380D01*
X93721428Y-30952380D01*
X93578571Y-30904761D01*
X93483333Y-30809523D01*
X93435714Y-30714285D01*
X93388095Y-30523809D01*
X93388095Y-30380952D01*
X93435714Y-30190476D01*
X93483333Y-30095238D01*
X93578571Y-30000000D01*
X93721428Y-29952380D01*
X93816666Y-29952380D01*
X93959523Y-30000000D01*
X94007142Y-30047619D01*
X94388095Y-30047619D02*
X94435714Y-30000000D01*
X94530952Y-29952380D01*
X94769047Y-29952380D01*
X94864285Y-30000000D01*
X94911904Y-30047619D01*
X94959523Y-30142857D01*
X94959523Y-30238095D01*
X94911904Y-30380952D01*
X94340476Y-30952380D01*
X94959523Y-30952380D01*
X95816666Y-30285714D02*
X95816666Y-30952380D01*
X95578571Y-29904761D02*
X95340476Y-30619047D01*
X95959523Y-30619047D01*
%TO.C,R14*%
X74102380Y-39192857D02*
X73626190Y-39526190D01*
X74102380Y-39764285D02*
X73102380Y-39764285D01*
X73102380Y-39383333D01*
X73150000Y-39288095D01*
X73197619Y-39240476D01*
X73292857Y-39192857D01*
X73435714Y-39192857D01*
X73530952Y-39240476D01*
X73578571Y-39288095D01*
X73626190Y-39383333D01*
X73626190Y-39764285D01*
X74102380Y-38240476D02*
X74102380Y-38811904D01*
X74102380Y-38526190D02*
X73102380Y-38526190D01*
X73245238Y-38621428D01*
X73340476Y-38716666D01*
X73388095Y-38811904D01*
X73435714Y-37383333D02*
X74102380Y-37383333D01*
X73054761Y-37621428D02*
X73769047Y-37859523D01*
X73769047Y-37240476D01*
%TO.C,C10*%
X62007142Y-25192857D02*
X62054761Y-25240476D01*
X62102380Y-25383333D01*
X62102380Y-25478571D01*
X62054761Y-25621428D01*
X61959523Y-25716666D01*
X61864285Y-25764285D01*
X61673809Y-25811904D01*
X61530952Y-25811904D01*
X61340476Y-25764285D01*
X61245238Y-25716666D01*
X61150000Y-25621428D01*
X61102380Y-25478571D01*
X61102380Y-25383333D01*
X61150000Y-25240476D01*
X61197619Y-25192857D01*
X62102380Y-24240476D02*
X62102380Y-24811904D01*
X62102380Y-24526190D02*
X61102380Y-24526190D01*
X61245238Y-24621428D01*
X61340476Y-24716666D01*
X61388095Y-24811904D01*
X61102380Y-23621428D02*
X61102380Y-23526190D01*
X61150000Y-23430952D01*
X61197619Y-23383333D01*
X61292857Y-23335714D01*
X61483333Y-23288095D01*
X61721428Y-23288095D01*
X61911904Y-23335714D01*
X62007142Y-23383333D01*
X62054761Y-23430952D01*
X62102380Y-23526190D01*
X62102380Y-23621428D01*
X62054761Y-23716666D01*
X62007142Y-23764285D01*
X61911904Y-23811904D01*
X61721428Y-23859523D01*
X61483333Y-23859523D01*
X61292857Y-23811904D01*
X61197619Y-23764285D01*
X61150000Y-23716666D01*
X61102380Y-23621428D01*
%TO.C,D3*%
X171140380Y-21058095D02*
X170140380Y-21058095D01*
X170140380Y-20820000D01*
X170188000Y-20677142D01*
X170283238Y-20581904D01*
X170378476Y-20534285D01*
X170568952Y-20486666D01*
X170711809Y-20486666D01*
X170902285Y-20534285D01*
X170997523Y-20581904D01*
X171092761Y-20677142D01*
X171140380Y-20820000D01*
X171140380Y-21058095D01*
X170140380Y-20153333D02*
X170140380Y-19534285D01*
X170521333Y-19867619D01*
X170521333Y-19724761D01*
X170568952Y-19629523D01*
X170616571Y-19581904D01*
X170711809Y-19534285D01*
X170949904Y-19534285D01*
X171045142Y-19581904D01*
X171092761Y-19629523D01*
X171140380Y-19724761D01*
X171140380Y-20010476D01*
X171092761Y-20105714D01*
X171045142Y-20153333D01*
%TO.C,RL2*%
X130428571Y-103952380D02*
X130095238Y-103476190D01*
X129857142Y-103952380D02*
X129857142Y-102952380D01*
X130238095Y-102952380D01*
X130333333Y-103000000D01*
X130380952Y-103047619D01*
X130428571Y-103142857D01*
X130428571Y-103285714D01*
X130380952Y-103380952D01*
X130333333Y-103428571D01*
X130238095Y-103476190D01*
X129857142Y-103476190D01*
X131333333Y-103952380D02*
X130857142Y-103952380D01*
X130857142Y-102952380D01*
X131619047Y-103047619D02*
X131666666Y-103000000D01*
X131761904Y-102952380D01*
X132000000Y-102952380D01*
X132095238Y-103000000D01*
X132142857Y-103047619D01*
X132190476Y-103142857D01*
X132190476Y-103238095D01*
X132142857Y-103380952D01*
X131571428Y-103952380D01*
X132190476Y-103952380D01*
%TO.C,R13*%
X76422380Y-47642857D02*
X75946190Y-47976190D01*
X76422380Y-48214285D02*
X75422380Y-48214285D01*
X75422380Y-47833333D01*
X75470000Y-47738095D01*
X75517619Y-47690476D01*
X75612857Y-47642857D01*
X75755714Y-47642857D01*
X75850952Y-47690476D01*
X75898571Y-47738095D01*
X75946190Y-47833333D01*
X75946190Y-48214285D01*
X76422380Y-46690476D02*
X76422380Y-47261904D01*
X76422380Y-46976190D02*
X75422380Y-46976190D01*
X75565238Y-47071428D01*
X75660476Y-47166666D01*
X75708095Y-47261904D01*
X75422380Y-46357142D02*
X75422380Y-45738095D01*
X75803333Y-46071428D01*
X75803333Y-45928571D01*
X75850952Y-45833333D01*
X75898571Y-45785714D01*
X75993809Y-45738095D01*
X76231904Y-45738095D01*
X76327142Y-45785714D01*
X76374761Y-45833333D01*
X76422380Y-45928571D01*
X76422380Y-46214285D01*
X76374761Y-46309523D01*
X76327142Y-46357142D01*
%TO.C,J5*%
X62452380Y-56333333D02*
X63166666Y-56333333D01*
X63309523Y-56380952D01*
X63404761Y-56476190D01*
X63452380Y-56619047D01*
X63452380Y-56714285D01*
X62452380Y-55380952D02*
X62452380Y-55857142D01*
X62928571Y-55904761D01*
X62880952Y-55857142D01*
X62833333Y-55761904D01*
X62833333Y-55523809D01*
X62880952Y-55428571D01*
X62928571Y-55380952D01*
X63023809Y-55333333D01*
X63261904Y-55333333D01*
X63357142Y-55380952D01*
X63404761Y-55428571D01*
X63452380Y-55523809D01*
X63452380Y-55761904D01*
X63404761Y-55857142D01*
X63357142Y-55904761D01*
%TO.C,J2*%
X159452380Y-46833333D02*
X160166666Y-46833333D01*
X160309523Y-46880952D01*
X160404761Y-46976190D01*
X160452380Y-47119047D01*
X160452380Y-47214285D01*
X159547619Y-46404761D02*
X159500000Y-46357142D01*
X159452380Y-46261904D01*
X159452380Y-46023809D01*
X159500000Y-45928571D01*
X159547619Y-45880952D01*
X159642857Y-45833333D01*
X159738095Y-45833333D01*
X159880952Y-45880952D01*
X160452380Y-46452380D01*
X160452380Y-45833333D01*
%TO.C,R22*%
X76452380Y-44142857D02*
X75976190Y-44476190D01*
X76452380Y-44714285D02*
X75452380Y-44714285D01*
X75452380Y-44333333D01*
X75500000Y-44238095D01*
X75547619Y-44190476D01*
X75642857Y-44142857D01*
X75785714Y-44142857D01*
X75880952Y-44190476D01*
X75928571Y-44238095D01*
X75976190Y-44333333D01*
X75976190Y-44714285D01*
X75547619Y-43761904D02*
X75500000Y-43714285D01*
X75452380Y-43619047D01*
X75452380Y-43380952D01*
X75500000Y-43285714D01*
X75547619Y-43238095D01*
X75642857Y-43190476D01*
X75738095Y-43190476D01*
X75880952Y-43238095D01*
X76452380Y-43809523D01*
X76452380Y-43190476D01*
X75547619Y-42809523D02*
X75500000Y-42761904D01*
X75452380Y-42666666D01*
X75452380Y-42428571D01*
X75500000Y-42333333D01*
X75547619Y-42285714D01*
X75642857Y-42238095D01*
X75738095Y-42238095D01*
X75880952Y-42285714D01*
X76452380Y-42857142D01*
X76452380Y-42238095D01*
%TO.C,C3*%
X86327142Y-47666666D02*
X86374761Y-47714285D01*
X86422380Y-47857142D01*
X86422380Y-47952380D01*
X86374761Y-48095238D01*
X86279523Y-48190476D01*
X86184285Y-48238095D01*
X85993809Y-48285714D01*
X85850952Y-48285714D01*
X85660476Y-48238095D01*
X85565238Y-48190476D01*
X85470000Y-48095238D01*
X85422380Y-47952380D01*
X85422380Y-47857142D01*
X85470000Y-47714285D01*
X85517619Y-47666666D01*
X85422380Y-47333333D02*
X85422380Y-46714285D01*
X85803333Y-47047619D01*
X85803333Y-46904761D01*
X85850952Y-46809523D01*
X85898571Y-46761904D01*
X85993809Y-46714285D01*
X86231904Y-46714285D01*
X86327142Y-46761904D01*
X86374761Y-46809523D01*
X86422380Y-46904761D01*
X86422380Y-47190476D01*
X86374761Y-47285714D01*
X86327142Y-47333333D01*
%TO.C,F1*%
X115166666Y-33608571D02*
X114833333Y-33608571D01*
X114833333Y-34132380D02*
X114833333Y-33132380D01*
X115309523Y-33132380D01*
X116214285Y-34132380D02*
X115642857Y-34132380D01*
X115928571Y-34132380D02*
X115928571Y-33132380D01*
X115833333Y-33275238D01*
X115738095Y-33370476D01*
X115642857Y-33418095D01*
%TO.C,R7*%
X80102380Y-39216666D02*
X79626190Y-39550000D01*
X80102380Y-39788095D02*
X79102380Y-39788095D01*
X79102380Y-39407142D01*
X79150000Y-39311904D01*
X79197619Y-39264285D01*
X79292857Y-39216666D01*
X79435714Y-39216666D01*
X79530952Y-39264285D01*
X79578571Y-39311904D01*
X79626190Y-39407142D01*
X79626190Y-39788095D01*
X79102380Y-38883333D02*
X79102380Y-38216666D01*
X80102380Y-38645238D01*
%TO.C,R57*%
X94507142Y-57002380D02*
X94173809Y-56526190D01*
X93935714Y-57002380D02*
X93935714Y-56002380D01*
X94316666Y-56002380D01*
X94411904Y-56050000D01*
X94459523Y-56097619D01*
X94507142Y-56192857D01*
X94507142Y-56335714D01*
X94459523Y-56430952D01*
X94411904Y-56478571D01*
X94316666Y-56526190D01*
X93935714Y-56526190D01*
X95411904Y-56002380D02*
X94935714Y-56002380D01*
X94888095Y-56478571D01*
X94935714Y-56430952D01*
X95030952Y-56383333D01*
X95269047Y-56383333D01*
X95364285Y-56430952D01*
X95411904Y-56478571D01*
X95459523Y-56573809D01*
X95459523Y-56811904D01*
X95411904Y-56907142D01*
X95364285Y-56954761D01*
X95269047Y-57002380D01*
X95030952Y-57002380D01*
X94935714Y-56954761D01*
X94888095Y-56907142D01*
X95792857Y-56002380D02*
X96459523Y-56002380D01*
X96030952Y-57002380D01*
%TO.C,Q6*%
X98284761Y-42537619D02*
X98189523Y-42490000D01*
X98094285Y-42394761D01*
X97951428Y-42251904D01*
X97856190Y-42204285D01*
X97760952Y-42204285D01*
X97808571Y-42442380D02*
X97713333Y-42394761D01*
X97618095Y-42299523D01*
X97570476Y-42109047D01*
X97570476Y-41775714D01*
X97618095Y-41585238D01*
X97713333Y-41490000D01*
X97808571Y-41442380D01*
X97999047Y-41442380D01*
X98094285Y-41490000D01*
X98189523Y-41585238D01*
X98237142Y-41775714D01*
X98237142Y-42109047D01*
X98189523Y-42299523D01*
X98094285Y-42394761D01*
X97999047Y-42442380D01*
X97808571Y-42442380D01*
X99094285Y-41442380D02*
X98903809Y-41442380D01*
X98808571Y-41490000D01*
X98760952Y-41537619D01*
X98665714Y-41680476D01*
X98618095Y-41870952D01*
X98618095Y-42251904D01*
X98665714Y-42347142D01*
X98713333Y-42394761D01*
X98808571Y-42442380D01*
X98999047Y-42442380D01*
X99094285Y-42394761D01*
X99141904Y-42347142D01*
X99189523Y-42251904D01*
X99189523Y-42013809D01*
X99141904Y-41918571D01*
X99094285Y-41870952D01*
X98999047Y-41823333D01*
X98808571Y-41823333D01*
X98713333Y-41870952D01*
X98665714Y-41918571D01*
X98618095Y-42013809D01*
%TO.C,U7*%
X144738095Y-15952380D02*
X144738095Y-16761904D01*
X144785714Y-16857142D01*
X144833333Y-16904761D01*
X144928571Y-16952380D01*
X145119047Y-16952380D01*
X145214285Y-16904761D01*
X145261904Y-16857142D01*
X145309523Y-16761904D01*
X145309523Y-15952380D01*
X145690476Y-15952380D02*
X146357142Y-15952380D01*
X145928571Y-16952380D01*
%TO.C,J4*%
X153641666Y-24722380D02*
X153641666Y-25436666D01*
X153594047Y-25579523D01*
X153498809Y-25674761D01*
X153355952Y-25722380D01*
X153260714Y-25722380D01*
X154546428Y-25055714D02*
X154546428Y-25722380D01*
X154308333Y-24674761D02*
X154070238Y-25389047D01*
X154689285Y-25389047D01*
%TO.C,R21*%
X147857142Y-25452380D02*
X147523809Y-24976190D01*
X147285714Y-25452380D02*
X147285714Y-24452380D01*
X147666666Y-24452380D01*
X147761904Y-24500000D01*
X147809523Y-24547619D01*
X147857142Y-24642857D01*
X147857142Y-24785714D01*
X147809523Y-24880952D01*
X147761904Y-24928571D01*
X147666666Y-24976190D01*
X147285714Y-24976190D01*
X148238095Y-24547619D02*
X148285714Y-24500000D01*
X148380952Y-24452380D01*
X148619047Y-24452380D01*
X148714285Y-24500000D01*
X148761904Y-24547619D01*
X148809523Y-24642857D01*
X148809523Y-24738095D01*
X148761904Y-24880952D01*
X148190476Y-25452380D01*
X148809523Y-25452380D01*
X149761904Y-25452380D02*
X149190476Y-25452380D01*
X149476190Y-25452380D02*
X149476190Y-24452380D01*
X149380952Y-24595238D01*
X149285714Y-24690476D01*
X149190476Y-24738095D01*
%TO.C,C7*%
X140357142Y-39666666D02*
X140404761Y-39714285D01*
X140452380Y-39857142D01*
X140452380Y-39952380D01*
X140404761Y-40095238D01*
X140309523Y-40190476D01*
X140214285Y-40238095D01*
X140023809Y-40285714D01*
X139880952Y-40285714D01*
X139690476Y-40238095D01*
X139595238Y-40190476D01*
X139500000Y-40095238D01*
X139452380Y-39952380D01*
X139452380Y-39857142D01*
X139500000Y-39714285D01*
X139547619Y-39666666D01*
X139452380Y-39333333D02*
X139452380Y-38666666D01*
X140452380Y-39095238D01*
%TO.C,C37*%
X107507142Y-49407142D02*
X107459523Y-49454761D01*
X107316666Y-49502380D01*
X107221428Y-49502380D01*
X107078571Y-49454761D01*
X106983333Y-49359523D01*
X106935714Y-49264285D01*
X106888095Y-49073809D01*
X106888095Y-48930952D01*
X106935714Y-48740476D01*
X106983333Y-48645238D01*
X107078571Y-48550000D01*
X107221428Y-48502380D01*
X107316666Y-48502380D01*
X107459523Y-48550000D01*
X107507142Y-48597619D01*
X107840476Y-48502380D02*
X108459523Y-48502380D01*
X108126190Y-48883333D01*
X108269047Y-48883333D01*
X108364285Y-48930952D01*
X108411904Y-48978571D01*
X108459523Y-49073809D01*
X108459523Y-49311904D01*
X108411904Y-49407142D01*
X108364285Y-49454761D01*
X108269047Y-49502380D01*
X107983333Y-49502380D01*
X107888095Y-49454761D01*
X107840476Y-49407142D01*
X108792857Y-48502380D02*
X109459523Y-48502380D01*
X109030952Y-49502380D01*
%TO.C,C11*%
X98007142Y-19587142D02*
X97959523Y-19634761D01*
X97816666Y-19682380D01*
X97721428Y-19682380D01*
X97578571Y-19634761D01*
X97483333Y-19539523D01*
X97435714Y-19444285D01*
X97388095Y-19253809D01*
X97388095Y-19110952D01*
X97435714Y-18920476D01*
X97483333Y-18825238D01*
X97578571Y-18730000D01*
X97721428Y-18682380D01*
X97816666Y-18682380D01*
X97959523Y-18730000D01*
X98007142Y-18777619D01*
X98959523Y-19682380D02*
X98388095Y-19682380D01*
X98673809Y-19682380D02*
X98673809Y-18682380D01*
X98578571Y-18825238D01*
X98483333Y-18920476D01*
X98388095Y-18968095D01*
X99911904Y-19682380D02*
X99340476Y-19682380D01*
X99626190Y-19682380D02*
X99626190Y-18682380D01*
X99530952Y-18825238D01*
X99435714Y-18920476D01*
X99340476Y-18968095D01*
%TO.C,R30*%
X159357142Y-34952380D02*
X159023809Y-34476190D01*
X158785714Y-34952380D02*
X158785714Y-33952380D01*
X159166666Y-33952380D01*
X159261904Y-34000000D01*
X159309523Y-34047619D01*
X159357142Y-34142857D01*
X159357142Y-34285714D01*
X159309523Y-34380952D01*
X159261904Y-34428571D01*
X159166666Y-34476190D01*
X158785714Y-34476190D01*
X159690476Y-33952380D02*
X160309523Y-33952380D01*
X159976190Y-34333333D01*
X160119047Y-34333333D01*
X160214285Y-34380952D01*
X160261904Y-34428571D01*
X160309523Y-34523809D01*
X160309523Y-34761904D01*
X160261904Y-34857142D01*
X160214285Y-34904761D01*
X160119047Y-34952380D01*
X159833333Y-34952380D01*
X159738095Y-34904761D01*
X159690476Y-34857142D01*
X160928571Y-33952380D02*
X161023809Y-33952380D01*
X161119047Y-34000000D01*
X161166666Y-34047619D01*
X161214285Y-34142857D01*
X161261904Y-34333333D01*
X161261904Y-34571428D01*
X161214285Y-34761904D01*
X161166666Y-34857142D01*
X161119047Y-34904761D01*
X161023809Y-34952380D01*
X160928571Y-34952380D01*
X160833333Y-34904761D01*
X160785714Y-34857142D01*
X160738095Y-34761904D01*
X160690476Y-34571428D01*
X160690476Y-34333333D01*
X160738095Y-34142857D01*
X160785714Y-34047619D01*
X160833333Y-34000000D01*
X160928571Y-33952380D01*
%TO.C,U13*%
X94952380Y-73988095D02*
X95761904Y-73988095D01*
X95857142Y-73940476D01*
X95904761Y-73892857D01*
X95952380Y-73797619D01*
X95952380Y-73607142D01*
X95904761Y-73511904D01*
X95857142Y-73464285D01*
X95761904Y-73416666D01*
X94952380Y-73416666D01*
X95952380Y-72416666D02*
X95952380Y-72988095D01*
X95952380Y-72702380D02*
X94952380Y-72702380D01*
X95095238Y-72797619D01*
X95190476Y-72892857D01*
X95238095Y-72988095D01*
X94952380Y-72083333D02*
X94952380Y-71464285D01*
X95333333Y-71797619D01*
X95333333Y-71654761D01*
X95380952Y-71559523D01*
X95428571Y-71511904D01*
X95523809Y-71464285D01*
X95761904Y-71464285D01*
X95857142Y-71511904D01*
X95904761Y-71559523D01*
X95952380Y-71654761D01*
X95952380Y-71940476D01*
X95904761Y-72035714D01*
X95857142Y-72083333D01*
%TO.C,C15*%
X74857142Y-66642857D02*
X74904761Y-66690476D01*
X74952380Y-66833333D01*
X74952380Y-66928571D01*
X74904761Y-67071428D01*
X74809523Y-67166666D01*
X74714285Y-67214285D01*
X74523809Y-67261904D01*
X74380952Y-67261904D01*
X74190476Y-67214285D01*
X74095238Y-67166666D01*
X74000000Y-67071428D01*
X73952380Y-66928571D01*
X73952380Y-66833333D01*
X74000000Y-66690476D01*
X74047619Y-66642857D01*
X74952380Y-65690476D02*
X74952380Y-66261904D01*
X74952380Y-65976190D02*
X73952380Y-65976190D01*
X74095238Y-66071428D01*
X74190476Y-66166666D01*
X74238095Y-66261904D01*
X73952380Y-64785714D02*
X73952380Y-65261904D01*
X74428571Y-65309523D01*
X74380952Y-65261904D01*
X74333333Y-65166666D01*
X74333333Y-64928571D01*
X74380952Y-64833333D01*
X74428571Y-64785714D01*
X74523809Y-64738095D01*
X74761904Y-64738095D01*
X74857142Y-64785714D01*
X74904761Y-64833333D01*
X74952380Y-64928571D01*
X74952380Y-65166666D01*
X74904761Y-65261904D01*
X74857142Y-65309523D01*
%TO.C,R5*%
X154833333Y-46452380D02*
X154500000Y-45976190D01*
X154261904Y-46452380D02*
X154261904Y-45452380D01*
X154642857Y-45452380D01*
X154738095Y-45500000D01*
X154785714Y-45547619D01*
X154833333Y-45642857D01*
X154833333Y-45785714D01*
X154785714Y-45880952D01*
X154738095Y-45928571D01*
X154642857Y-45976190D01*
X154261904Y-45976190D01*
X155738095Y-45452380D02*
X155261904Y-45452380D01*
X155214285Y-45928571D01*
X155261904Y-45880952D01*
X155357142Y-45833333D01*
X155595238Y-45833333D01*
X155690476Y-45880952D01*
X155738095Y-45928571D01*
X155785714Y-46023809D01*
X155785714Y-46261904D01*
X155738095Y-46357142D01*
X155690476Y-46404761D01*
X155595238Y-46452380D01*
X155357142Y-46452380D01*
X155261904Y-46404761D01*
X155214285Y-46357142D01*
%TO.C,C5*%
X140857142Y-57166666D02*
X140904761Y-57214285D01*
X140952380Y-57357142D01*
X140952380Y-57452380D01*
X140904761Y-57595238D01*
X140809523Y-57690476D01*
X140714285Y-57738095D01*
X140523809Y-57785714D01*
X140380952Y-57785714D01*
X140190476Y-57738095D01*
X140095238Y-57690476D01*
X140000000Y-57595238D01*
X139952380Y-57452380D01*
X139952380Y-57357142D01*
X140000000Y-57214285D01*
X140047619Y-57166666D01*
X139952380Y-56261904D02*
X139952380Y-56738095D01*
X140428571Y-56785714D01*
X140380952Y-56738095D01*
X140333333Y-56642857D01*
X140333333Y-56404761D01*
X140380952Y-56309523D01*
X140428571Y-56261904D01*
X140523809Y-56214285D01*
X140761904Y-56214285D01*
X140857142Y-56261904D01*
X140904761Y-56309523D01*
X140952380Y-56404761D01*
X140952380Y-56642857D01*
X140904761Y-56738095D01*
X140857142Y-56785714D01*
%TO.C,R33*%
X106507142Y-19502380D02*
X106173809Y-19026190D01*
X105935714Y-19502380D02*
X105935714Y-18502380D01*
X106316666Y-18502380D01*
X106411904Y-18550000D01*
X106459523Y-18597619D01*
X106507142Y-18692857D01*
X106507142Y-18835714D01*
X106459523Y-18930952D01*
X106411904Y-18978571D01*
X106316666Y-19026190D01*
X105935714Y-19026190D01*
X106840476Y-18502380D02*
X107459523Y-18502380D01*
X107126190Y-18883333D01*
X107269047Y-18883333D01*
X107364285Y-18930952D01*
X107411904Y-18978571D01*
X107459523Y-19073809D01*
X107459523Y-19311904D01*
X107411904Y-19407142D01*
X107364285Y-19454761D01*
X107269047Y-19502380D01*
X106983333Y-19502380D01*
X106888095Y-19454761D01*
X106840476Y-19407142D01*
X107792857Y-18502380D02*
X108411904Y-18502380D01*
X108078571Y-18883333D01*
X108221428Y-18883333D01*
X108316666Y-18930952D01*
X108364285Y-18978571D01*
X108411904Y-19073809D01*
X108411904Y-19311904D01*
X108364285Y-19407142D01*
X108316666Y-19454761D01*
X108221428Y-19502380D01*
X107935714Y-19502380D01*
X107840476Y-19454761D01*
X107792857Y-19407142D01*
%TO.C,R59*%
X94507142Y-55002380D02*
X94173809Y-54526190D01*
X93935714Y-55002380D02*
X93935714Y-54002380D01*
X94316666Y-54002380D01*
X94411904Y-54050000D01*
X94459523Y-54097619D01*
X94507142Y-54192857D01*
X94507142Y-54335714D01*
X94459523Y-54430952D01*
X94411904Y-54478571D01*
X94316666Y-54526190D01*
X93935714Y-54526190D01*
X95411904Y-54002380D02*
X94935714Y-54002380D01*
X94888095Y-54478571D01*
X94935714Y-54430952D01*
X95030952Y-54383333D01*
X95269047Y-54383333D01*
X95364285Y-54430952D01*
X95411904Y-54478571D01*
X95459523Y-54573809D01*
X95459523Y-54811904D01*
X95411904Y-54907142D01*
X95364285Y-54954761D01*
X95269047Y-55002380D01*
X95030952Y-55002380D01*
X94935714Y-54954761D01*
X94888095Y-54907142D01*
X95935714Y-55002380D02*
X96126190Y-55002380D01*
X96221428Y-54954761D01*
X96269047Y-54907142D01*
X96364285Y-54764285D01*
X96411904Y-54573809D01*
X96411904Y-54192857D01*
X96364285Y-54097619D01*
X96316666Y-54050000D01*
X96221428Y-54002380D01*
X96030952Y-54002380D01*
X95935714Y-54050000D01*
X95888095Y-54097619D01*
X95840476Y-54192857D01*
X95840476Y-54430952D01*
X95888095Y-54526190D01*
X95935714Y-54573809D01*
X96030952Y-54621428D01*
X96221428Y-54621428D01*
X96316666Y-54573809D01*
X96364285Y-54526190D01*
X96411904Y-54430952D01*
%TO.C,C34*%
X124357142Y-39857142D02*
X124309523Y-39904761D01*
X124166666Y-39952380D01*
X124071428Y-39952380D01*
X123928571Y-39904761D01*
X123833333Y-39809523D01*
X123785714Y-39714285D01*
X123738095Y-39523809D01*
X123738095Y-39380952D01*
X123785714Y-39190476D01*
X123833333Y-39095238D01*
X123928571Y-39000000D01*
X124071428Y-38952380D01*
X124166666Y-38952380D01*
X124309523Y-39000000D01*
X124357142Y-39047619D01*
X124690476Y-38952380D02*
X125309523Y-38952380D01*
X124976190Y-39333333D01*
X125119047Y-39333333D01*
X125214285Y-39380952D01*
X125261904Y-39428571D01*
X125309523Y-39523809D01*
X125309523Y-39761904D01*
X125261904Y-39857142D01*
X125214285Y-39904761D01*
X125119047Y-39952380D01*
X124833333Y-39952380D01*
X124738095Y-39904761D01*
X124690476Y-39857142D01*
X126166666Y-39285714D02*
X126166666Y-39952380D01*
X125928571Y-38904761D02*
X125690476Y-39619047D01*
X126309523Y-39619047D01*
%TO.C,C21*%
X80327142Y-47642857D02*
X80374761Y-47690476D01*
X80422380Y-47833333D01*
X80422380Y-47928571D01*
X80374761Y-48071428D01*
X80279523Y-48166666D01*
X80184285Y-48214285D01*
X79993809Y-48261904D01*
X79850952Y-48261904D01*
X79660476Y-48214285D01*
X79565238Y-48166666D01*
X79470000Y-48071428D01*
X79422380Y-47928571D01*
X79422380Y-47833333D01*
X79470000Y-47690476D01*
X79517619Y-47642857D01*
X79517619Y-47261904D02*
X79470000Y-47214285D01*
X79422380Y-47119047D01*
X79422380Y-46880952D01*
X79470000Y-46785714D01*
X79517619Y-46738095D01*
X79612857Y-46690476D01*
X79708095Y-46690476D01*
X79850952Y-46738095D01*
X80422380Y-47309523D01*
X80422380Y-46690476D01*
X80422380Y-45738095D02*
X80422380Y-46309523D01*
X80422380Y-46023809D02*
X79422380Y-46023809D01*
X79565238Y-46119047D01*
X79660476Y-46214285D01*
X79708095Y-46309523D01*
%TO.C,C32*%
X113357142Y-38357142D02*
X113309523Y-38404761D01*
X113166666Y-38452380D01*
X113071428Y-38452380D01*
X112928571Y-38404761D01*
X112833333Y-38309523D01*
X112785714Y-38214285D01*
X112738095Y-38023809D01*
X112738095Y-37880952D01*
X112785714Y-37690476D01*
X112833333Y-37595238D01*
X112928571Y-37500000D01*
X113071428Y-37452380D01*
X113166666Y-37452380D01*
X113309523Y-37500000D01*
X113357142Y-37547619D01*
X113690476Y-37452380D02*
X114309523Y-37452380D01*
X113976190Y-37833333D01*
X114119047Y-37833333D01*
X114214285Y-37880952D01*
X114261904Y-37928571D01*
X114309523Y-38023809D01*
X114309523Y-38261904D01*
X114261904Y-38357142D01*
X114214285Y-38404761D01*
X114119047Y-38452380D01*
X113833333Y-38452380D01*
X113738095Y-38404761D01*
X113690476Y-38357142D01*
X114690476Y-37547619D02*
X114738095Y-37500000D01*
X114833333Y-37452380D01*
X115071428Y-37452380D01*
X115166666Y-37500000D01*
X115214285Y-37547619D01*
X115261904Y-37642857D01*
X115261904Y-37738095D01*
X115214285Y-37880952D01*
X114642857Y-38452380D01*
X115261904Y-38452380D01*
%TO.C,U14*%
X123411904Y-16202380D02*
X123411904Y-17011904D01*
X123459523Y-17107142D01*
X123507142Y-17154761D01*
X123602380Y-17202380D01*
X123792857Y-17202380D01*
X123888095Y-17154761D01*
X123935714Y-17107142D01*
X123983333Y-17011904D01*
X123983333Y-16202380D01*
X124983333Y-17202380D02*
X124411904Y-17202380D01*
X124697619Y-17202380D02*
X124697619Y-16202380D01*
X124602380Y-16345238D01*
X124507142Y-16440476D01*
X124411904Y-16488095D01*
X125840476Y-16535714D02*
X125840476Y-17202380D01*
X125602380Y-16154761D02*
X125364285Y-16869047D01*
X125983333Y-16869047D01*
D12*
%TO.C,R40*%
X110422936Y-32315000D02*
X110877064Y-32315000D01*
X110422936Y-33785000D02*
X110877064Y-33785000D01*
%TO.C,R66*%
X150885000Y-64322936D02*
X150885000Y-64777064D01*
X149415000Y-64322936D02*
X149415000Y-64777064D01*
%TO.C,R23*%
X85272936Y-43265000D02*
X85727064Y-43265000D01*
X85272936Y-44735000D02*
X85727064Y-44735000D01*
%TO.C,R48*%
X101765000Y-76227064D02*
X101765000Y-75772936D01*
X103235000Y-76227064D02*
X103235000Y-75772936D01*
%TO.C,C18*%
X72915000Y-22788748D02*
X72915000Y-23311252D01*
X74385000Y-22788748D02*
X74385000Y-23311252D01*
%TO.C,U1*%
X84475000Y-64345000D02*
X81025000Y-64345000D01*
X84475000Y-69465000D02*
X86425000Y-69465000D01*
X84475000Y-69465000D02*
X82525000Y-69465000D01*
X84475000Y-64345000D02*
X86425000Y-64345000D01*
%TO.C,Q5*%
X104765000Y-68970000D02*
X104765000Y-69900000D01*
X104765000Y-72130000D02*
X104765000Y-71200000D01*
X104765000Y-72130000D02*
X106925000Y-72130000D01*
X104765000Y-68970000D02*
X106225000Y-68970000D01*
%TO.C,R46*%
X115877064Y-42285000D02*
X115422936Y-42285000D01*
X115877064Y-40815000D02*
X115422936Y-40815000D01*
%TO.C,Q3*%
X104740000Y-74420000D02*
X104740000Y-75350000D01*
X104740000Y-77580000D02*
X104740000Y-76650000D01*
X104740000Y-77580000D02*
X106900000Y-77580000D01*
X104740000Y-74420000D02*
X106200000Y-74420000D01*
%TO.C,R56*%
X143265000Y-67277064D02*
X143265000Y-66822936D01*
X144735000Y-67277064D02*
X144735000Y-66822936D01*
%TO.C,C4*%
X73410000Y-46345563D02*
X73410000Y-40590000D01*
X67654437Y-47410000D02*
X68940000Y-47410000D01*
X72345563Y-47410000D02*
X73410000Y-46345563D01*
X73410000Y-40590000D02*
X71060000Y-40590000D01*
X72345563Y-47410000D02*
X71060000Y-47410000D01*
X66590000Y-40590000D02*
X68940000Y-40590000D01*
X67654437Y-47410000D02*
X66590000Y-46345563D01*
X66590000Y-46345563D02*
X66590000Y-40590000D01*
%TO.C,R8*%
X82712936Y-50727064D02*
X82712936Y-50272936D01*
X81242936Y-50727064D02*
X81242936Y-50272936D01*
%TO.C,R18*%
X70915000Y-35277064D02*
X70915000Y-34822936D01*
X72385000Y-35277064D02*
X72385000Y-34822936D01*
%TO.C,C22*%
X77388748Y-19785000D02*
X77911252Y-19785000D01*
X77388748Y-18315000D02*
X77911252Y-18315000D01*
%TO.C,Q8*%
X80580000Y-71990000D02*
X80580000Y-73450000D01*
X80580000Y-71990000D02*
X79650000Y-71990000D01*
X77420000Y-71990000D02*
X78350000Y-71990000D01*
X77420000Y-71990000D02*
X77420000Y-74150000D01*
%TO.C,C27*%
X109560000Y-40741937D02*
X109560000Y-46497500D01*
X103804437Y-39677500D02*
X102740000Y-40741937D01*
X102740000Y-40741937D02*
X102740000Y-46497500D01*
X103804437Y-39677500D02*
X105090000Y-39677500D01*
X108495563Y-39677500D02*
X107210000Y-39677500D01*
X108495563Y-39677500D02*
X109560000Y-40741937D01*
X109560000Y-46497500D02*
X107210000Y-46497500D01*
X102740000Y-46497500D02*
X105090000Y-46497500D01*
%TO.C,R37*%
X110422936Y-26315000D02*
X110877064Y-26315000D01*
X110422936Y-27785000D02*
X110877064Y-27785000D01*
%TO.C,C20*%
X83323733Y-56990000D02*
X83616267Y-56990000D01*
X83323733Y-58010000D02*
X83616267Y-58010000D01*
%TO.C,R54*%
X118765000Y-75772936D02*
X118765000Y-76227064D01*
X120235000Y-75772936D02*
X120235000Y-76227064D01*
%TO.C,J1*%
X163270000Y-50830000D02*
X163270000Y-48170000D01*
X160670000Y-48170000D02*
X162000000Y-48170000D01*
X160670000Y-49500000D02*
X160670000Y-48170000D01*
X168410000Y-50830000D02*
X168410000Y-48170000D01*
X163270000Y-48170000D02*
X168410000Y-48170000D01*
X163270000Y-50830000D02*
X168410000Y-50830000D01*
%TO.C,U4*%
X147390000Y-38310000D02*
X147390000Y-38610000D01*
X147390000Y-31390000D02*
X147690000Y-31390000D01*
X147390000Y-38610000D02*
X147690000Y-38610000D01*
X154610000Y-31390000D02*
X154310000Y-31390000D01*
X147390000Y-31690000D02*
X147390000Y-31390000D01*
X154610000Y-38310000D02*
X154610000Y-38610000D01*
X154310000Y-31390000D02*
X154310000Y-30075000D01*
X154610000Y-31690000D02*
X154610000Y-31390000D01*
X154610000Y-38610000D02*
X154310000Y-38610000D01*
%TO.C,R29*%
X163727064Y-37235000D02*
X163272936Y-37235000D01*
X163727064Y-35765000D02*
X163272936Y-35765000D01*
%TO.C,RL4*%
X121500000Y-113500000D02*
X121500000Y-103500000D01*
X105500000Y-103500000D02*
X105500000Y-113500000D01*
X105500000Y-93500000D02*
X105500000Y-95000000D01*
X121500000Y-93500000D02*
X105500000Y-93500000D01*
X105500000Y-95000000D02*
X105500000Y-103500000D01*
X105500000Y-113500000D02*
X121500000Y-113500000D01*
X121500000Y-103500000D02*
X121500000Y-93500000D01*
%TO.C,R43*%
X98227064Y-73765000D02*
X97772936Y-73765000D01*
X98227064Y-75235000D02*
X97772936Y-75235000D01*
%TO.C,R15*%
X163727064Y-31765000D02*
X163272936Y-31765000D01*
X163727064Y-33235000D02*
X163272936Y-33235000D01*
%TO.C,R28*%
X163727064Y-37765000D02*
X163272936Y-37765000D01*
X163727064Y-39235000D02*
X163272936Y-39235000D01*
%TO.C,R45*%
X107765000Y-75772936D02*
X107765000Y-76227064D01*
X109235000Y-75772936D02*
X109235000Y-76227064D01*
%TO.C,R39*%
X110422936Y-30315000D02*
X110877064Y-30315000D01*
X110422936Y-31785000D02*
X110877064Y-31785000D01*
%TO.C,D5*%
X167105000Y-29840000D02*
X170195000Y-29840000D01*
X168650462Y-24290000D02*
G75*
G03*
X167105170Y-29840000I-462J-2990000D01*
G01*
X168649538Y-24290000D02*
G75*
G02*
X170194830Y-29840000I462J-2990000D01*
G01*
X171150000Y-27280000D02*
G75*
G03*
X171150000Y-27280000I-2500000J0D01*
G01*
%TO.C,R68*%
X102772936Y-48315000D02*
X103227064Y-48315000D01*
X102772936Y-49785000D02*
X103227064Y-49785000D01*
%TO.C,C30*%
X102910000Y-38745563D02*
X101845563Y-39810000D01*
X102910000Y-38745563D02*
X102910000Y-36860000D01*
X102910000Y-32354437D02*
X102910000Y-34240000D01*
X94390000Y-39810000D02*
X94390000Y-36860000D01*
X101845563Y-39810000D02*
X94390000Y-39810000D01*
X102910000Y-32354437D02*
X101845563Y-31290000D01*
X101845563Y-31290000D02*
X94390000Y-31290000D01*
X94390000Y-31290000D02*
X94390000Y-34240000D01*
%TO.C,R17*%
X79415000Y-25822936D02*
X79415000Y-26277064D01*
X80885000Y-25822936D02*
X80885000Y-26277064D01*
%TO.C,R1*%
X102877064Y-18285000D02*
X102422936Y-18285000D01*
X102877064Y-16815000D02*
X102422936Y-16815000D01*
%TO.C,U8*%
X138277500Y-18200000D02*
X138277500Y-21800000D01*
X138289022Y-18161522D02*
G75*
G02*
X142727500Y-20000000I1838478J-1838478D01*
G01*
X138289022Y-21838478D02*
G75*
G03*
X142727500Y-20000000I1838478J1838478D01*
G01*
%TO.C,Q4*%
X115740000Y-74420000D02*
X115740000Y-75350000D01*
X115740000Y-74420000D02*
X117200000Y-74420000D01*
X115740000Y-77580000D02*
X117900000Y-77580000D01*
X115740000Y-77580000D02*
X115740000Y-76650000D01*
%TO.C,D6*%
X167105000Y-57840000D02*
X170195000Y-57840000D01*
X168649538Y-52290000D02*
G75*
G02*
X170194830Y-57840000I462J-2990000D01*
G01*
X168650462Y-52290000D02*
G75*
G03*
X167105170Y-57840000I-462J-2990000D01*
G01*
X171150000Y-55280000D02*
G75*
G03*
X171150000Y-55280000I-2500000J0D01*
G01*
%TO.C,R38*%
X110422936Y-29785000D02*
X110877064Y-29785000D01*
X110422936Y-28315000D02*
X110877064Y-28315000D01*
%TO.C,R6*%
X76877064Y-31315000D02*
X76422936Y-31315000D01*
X76877064Y-32785000D02*
X76422936Y-32785000D01*
%TO.C,C12*%
X163238748Y-23765000D02*
X163761252Y-23765000D01*
X163238748Y-25235000D02*
X163761252Y-25235000D01*
%TO.C,R26*%
X163272936Y-64235000D02*
X163727064Y-64235000D01*
X163272936Y-62765000D02*
X163727064Y-62765000D01*
%TO.C,C9*%
X74705000Y-50761252D02*
X74705000Y-50238748D01*
X73235000Y-50761252D02*
X73235000Y-50238748D01*
%TO.C,R3*%
X157772936Y-50735000D02*
X158227064Y-50735000D01*
X157772936Y-49265000D02*
X158227064Y-49265000D01*
%TO.C,R47*%
X120377064Y-50285000D02*
X119922936Y-50285000D01*
X120377064Y-48815000D02*
X119922936Y-48815000D01*
%TO.C,J3*%
X168410000Y-44830000D02*
X168410000Y-42170000D01*
X163270000Y-44830000D02*
X168410000Y-44830000D01*
X160670000Y-42170000D02*
X162000000Y-42170000D01*
X163270000Y-44830000D02*
X163270000Y-42170000D01*
X160670000Y-43500000D02*
X160670000Y-42170000D01*
X163270000Y-42170000D02*
X168410000Y-42170000D01*
%TO.C,R50*%
X83272936Y-76485000D02*
X83727064Y-76485000D01*
X83272936Y-75015000D02*
X83727064Y-75015000D01*
%TO.C,R19*%
X145477064Y-22265000D02*
X145022936Y-22265000D01*
X145477064Y-23735000D02*
X145022936Y-23735000D01*
%TO.C,Q2*%
X115765000Y-72130000D02*
X117925000Y-72130000D01*
X115765000Y-68970000D02*
X117225000Y-68970000D01*
X115765000Y-68970000D02*
X115765000Y-69900000D01*
X115765000Y-72130000D02*
X115765000Y-71200000D01*
%TO.C,D4*%
X167105000Y-64840000D02*
X170195000Y-64840000D01*
X168649538Y-59290000D02*
G75*
G02*
X170194830Y-64840000I462J-2990000D01*
G01*
X168650462Y-59290000D02*
G75*
G03*
X167105170Y-64840000I-462J-2990000D01*
G01*
X171150000Y-62280000D02*
G75*
G03*
X171150000Y-62280000I-2500000J0D01*
G01*
%TO.C,C1*%
X59840000Y-30804437D02*
X60904437Y-29740000D01*
X68360000Y-38260000D02*
X68360000Y-35310000D01*
X60904437Y-38260000D02*
X68360000Y-38260000D01*
X68360000Y-29740000D02*
X68360000Y-32690000D01*
X59840000Y-37195563D02*
X59840000Y-35310000D01*
X59840000Y-37195563D02*
X60904437Y-38260000D01*
X59840000Y-30804437D02*
X59840000Y-32690000D01*
X60904437Y-29740000D02*
X68360000Y-29740000D01*
%TO.C,R51*%
X98227064Y-73235000D02*
X97772936Y-73235000D01*
X98227064Y-71765000D02*
X97772936Y-71765000D01*
%TO.C,R2*%
X83235000Y-50727064D02*
X83235000Y-50272936D01*
X84705000Y-50727064D02*
X84705000Y-50272936D01*
%TO.C,U2*%
X146000000Y-51890000D02*
X147500000Y-51890000D01*
X146000000Y-51890000D02*
X143075000Y-51890000D01*
X146000000Y-55110000D02*
X147500000Y-55110000D01*
X146000000Y-55110000D02*
X144500000Y-55110000D01*
%TO.C,R25*%
X163272936Y-25765000D02*
X163727064Y-25765000D01*
X163272936Y-27235000D02*
X163727064Y-27235000D01*
%TO.C,U12*%
X92810000Y-74840000D02*
X92810000Y-75055000D01*
X88190000Y-77660000D02*
X88190000Y-77445000D01*
X90500000Y-77660000D02*
X88190000Y-77660000D01*
X92810000Y-77660000D02*
X92810000Y-77445000D01*
X88190000Y-74840000D02*
X88190000Y-75055000D01*
X92810000Y-77445000D02*
X94500000Y-77445000D01*
X90500000Y-74840000D02*
X92810000Y-74840000D01*
X90500000Y-77660000D02*
X92810000Y-77660000D01*
X90500000Y-74840000D02*
X88190000Y-74840000D01*
%TO.C,R34*%
X110422936Y-20315000D02*
X110877064Y-20315000D01*
X110422936Y-21785000D02*
X110877064Y-21785000D01*
%TO.C,C13*%
X69740000Y-22838748D02*
X69740000Y-24261252D01*
X71560000Y-22838748D02*
X71560000Y-24261252D01*
%TO.C,R9*%
X77235000Y-50727064D02*
X77235000Y-50272936D01*
X78705000Y-50727064D02*
X78705000Y-50272936D01*
%TO.C,C31*%
X146761252Y-42235000D02*
X146238748Y-42235000D01*
X146761252Y-40765000D02*
X146238748Y-40765000D01*
%TO.C,R41*%
X110422936Y-35785000D02*
X110877064Y-35785000D01*
X110422936Y-34315000D02*
X110877064Y-34315000D01*
%TO.C,RL3*%
X104000000Y-103500000D02*
X104000000Y-93500000D01*
X88000000Y-103500000D02*
X88000000Y-113500000D01*
X104000000Y-113500000D02*
X104000000Y-103500000D01*
X88000000Y-93500000D02*
X88000000Y-95000000D01*
X88000000Y-113500000D02*
X104000000Y-113500000D01*
X104000000Y-93500000D02*
X88000000Y-93500000D01*
X88000000Y-95000000D02*
X88000000Y-103500000D01*
%TO.C,R31*%
X118790000Y-70322936D02*
X118790000Y-70777064D01*
X120260000Y-70322936D02*
X120260000Y-70777064D01*
%TO.C,L2*%
X82950000Y-24700000D02*
X82950000Y-22400000D01*
X90350000Y-24700000D02*
X82950000Y-24700000D01*
X82950000Y-19600000D02*
X82950000Y-17300000D01*
X90350000Y-17300000D02*
X90350000Y-19600000D01*
X90350000Y-22400000D02*
X90350000Y-24700000D01*
X82950000Y-17300000D02*
X90350000Y-17300000D01*
%TO.C,C23*%
X92893684Y-46390000D02*
X90062188Y-46390000D01*
X92893684Y-51610000D02*
X90062188Y-51610000D01*
%TO.C,R32*%
X112765000Y-70727064D02*
X112765000Y-70272936D01*
X114235000Y-70727064D02*
X114235000Y-70272936D01*
%TO.C,C26*%
X103260000Y-24584252D02*
X103260000Y-27415748D01*
X98040000Y-24584252D02*
X98040000Y-27415748D01*
%TO.C,D8*%
X144180000Y-82370000D02*
X141350000Y-82370000D01*
X144180000Y-82100000D02*
X144180000Y-82370000D01*
X144180000Y-89000000D02*
X144180000Y-88730000D01*
X145680000Y-89000000D02*
X144180000Y-89000000D01*
X144180000Y-88730000D02*
X143080000Y-88730000D01*
X145680000Y-82100000D02*
X144180000Y-82100000D01*
%TO.C,Q1*%
X69550000Y-31147500D02*
X73400000Y-31147500D01*
X73438611Y-31137622D02*
G75*
G03*
X69550000Y-31147500I-1948611J1690122D01*
G01*
%TO.C,Q7*%
X160300000Y-52750000D02*
X160300000Y-56350000D01*
X160311522Y-56388478D02*
G75*
G03*
X164750000Y-54550000I1838478J1838478D01*
G01*
X160311522Y-52711522D02*
G75*
G02*
X164750000Y-54550000I1838478J-1838478D01*
G01*
%TO.C,R42*%
X110422936Y-37785000D02*
X110877064Y-37785000D01*
X110422936Y-36315000D02*
X110877064Y-36315000D01*
%TO.C,C38*%
X146915000Y-64326248D02*
X146915000Y-64848752D01*
X148385000Y-64326248D02*
X148385000Y-64848752D01*
%TO.C,R49*%
X115922936Y-50285000D02*
X116377064Y-50285000D01*
X115922936Y-48815000D02*
X116377064Y-48815000D01*
%TO.C,C6*%
X140735000Y-32761252D02*
X140735000Y-32238748D01*
X139265000Y-32761252D02*
X139265000Y-32238748D01*
%TO.C,R53*%
X115377064Y-55785000D02*
X114922936Y-55785000D01*
X115377064Y-54315000D02*
X114922936Y-54315000D01*
%TO.C,SW1*%
X163710000Y-20200000D02*
X163710000Y-17800000D01*
X157290000Y-15790000D02*
X157290000Y-16200000D01*
X157290000Y-17800000D02*
X157290000Y-20200000D01*
X163710000Y-22210000D02*
X163710000Y-21930000D01*
X157290000Y-21800000D02*
X157290000Y-22210000D01*
X163710000Y-16200000D02*
X163710000Y-15790000D01*
X163710000Y-15790000D02*
X157290000Y-15790000D01*
X157290000Y-22210000D02*
X163710000Y-22210000D01*
%TO.C,U11*%
X117650000Y-42990000D02*
X114200000Y-42990000D01*
X117650000Y-48110000D02*
X115700000Y-48110000D01*
X117650000Y-48110000D02*
X119600000Y-48110000D01*
X117650000Y-42990000D02*
X119600000Y-42990000D01*
%TO.C,R61*%
X114922936Y-52315000D02*
X115377064Y-52315000D01*
X114922936Y-53785000D02*
X115377064Y-53785000D01*
%TO.C,C8*%
X76380000Y-56788748D02*
X76380000Y-58211252D01*
X74560000Y-56788748D02*
X74560000Y-58211252D01*
%TO.C,U6*%
X146000000Y-50110000D02*
X143800000Y-50110000D01*
X146000000Y-50110000D02*
X149600000Y-50110000D01*
X146000000Y-46890000D02*
X148200000Y-46890000D01*
X146000000Y-46890000D02*
X143800000Y-46890000D01*
%TO.C,Y1*%
X139050000Y-47575000D02*
X139050000Y-31600000D01*
X133950000Y-47575000D02*
X139050000Y-47575000D01*
X133950000Y-31600000D02*
X133950000Y-47575000D01*
%TO.C,R35*%
X110422936Y-23785000D02*
X110877064Y-23785000D01*
X110422936Y-22315000D02*
X110877064Y-22315000D01*
%TO.C,C35*%
X126201248Y-54235000D02*
X126723752Y-54235000D01*
X126201248Y-52765000D02*
X126723752Y-52765000D01*
%TO.C,R16*%
X163727064Y-39765000D02*
X163272936Y-39765000D01*
X163727064Y-41235000D02*
X163272936Y-41235000D01*
%TO.C,F2*%
X123790000Y-88886252D02*
X123790000Y-86113748D01*
X127210000Y-88886252D02*
X127210000Y-86113748D01*
%TO.C,R36*%
X110422936Y-25785000D02*
X110877064Y-25785000D01*
X110422936Y-24315000D02*
X110877064Y-24315000D01*
%TO.C,U9*%
X83222500Y-44800000D02*
X83222500Y-41200000D01*
X83210978Y-44838478D02*
G75*
G02*
X78772500Y-43000000I-1838478J1838478D01*
G01*
X83210978Y-41161522D02*
G75*
G03*
X78772500Y-43000000I-1838478J-1838478D01*
G01*
%TO.C,R44*%
X83272936Y-71515000D02*
X83727064Y-71515000D01*
X83272936Y-72985000D02*
X83727064Y-72985000D01*
%TO.C,R67*%
X150885000Y-68322936D02*
X150885000Y-68777064D01*
X149415000Y-68322936D02*
X149415000Y-68777064D01*
%TO.C,R27*%
X163272936Y-27765000D02*
X163727064Y-27765000D01*
X163272936Y-29235000D02*
X163727064Y-29235000D01*
%TO.C,F3*%
X60897936Y-49410000D02*
X62102064Y-49410000D01*
X60897936Y-47590000D02*
X62102064Y-47590000D01*
%TO.C,C14*%
X74915000Y-34751248D02*
X74915000Y-35273752D01*
X76385000Y-34751248D02*
X76385000Y-35273752D01*
%TO.C,U5*%
X78760000Y-26050000D02*
X78760000Y-27550000D01*
X75540000Y-26050000D02*
X75540000Y-24550000D01*
X75540000Y-26050000D02*
X75540000Y-27550000D01*
X78760000Y-26050000D02*
X78760000Y-23150000D01*
%TO.C,R52*%
X112885000Y-43777064D02*
X112885000Y-43322936D01*
X111415000Y-43777064D02*
X111415000Y-43322936D01*
%TO.C,R58*%
X98422936Y-51815000D02*
X98877064Y-51815000D01*
X98422936Y-53285000D02*
X98877064Y-53285000D01*
%TO.C,R65*%
X148385000Y-68322936D02*
X148385000Y-68777064D01*
X146915000Y-68322936D02*
X146915000Y-68777064D01*
%TO.C,C17*%
X78385000Y-34751248D02*
X78385000Y-35273752D01*
X76915000Y-34751248D02*
X76915000Y-35273752D01*
%TO.C,R69*%
X78772936Y-75015000D02*
X79227064Y-75015000D01*
X78772936Y-76485000D02*
X79227064Y-76485000D01*
%TO.C,C36*%
X115411252Y-57785000D02*
X114888748Y-57785000D01*
X115411252Y-56315000D02*
X114888748Y-56315000D01*
%TO.C,R60*%
X109260000Y-70322936D02*
X109260000Y-70777064D01*
X107790000Y-70322936D02*
X107790000Y-70777064D01*
%TO.C,F4*%
X143113748Y-105210000D02*
X145886252Y-105210000D01*
X143113748Y-101790000D02*
X145886252Y-101790000D01*
%TO.C,C19*%
X87713748Y-63640000D02*
X88236252Y-63640000D01*
X87713748Y-62170000D02*
X88236252Y-62170000D01*
%TO.C,R4*%
X157772936Y-48735000D02*
X158227064Y-48735000D01*
X157772936Y-47265000D02*
X158227064Y-47265000D01*
%TO.C,C16*%
X151735000Y-54261252D02*
X151735000Y-53738748D01*
X150265000Y-54261252D02*
X150265000Y-53738748D01*
%TO.C,R24*%
X89272936Y-43265000D02*
X89727064Y-43265000D01*
X89272936Y-44735000D02*
X89727064Y-44735000D01*
%TO.C,L1*%
X87770000Y-56100000D02*
X88170000Y-56100000D01*
X87770000Y-52900000D02*
X88170000Y-52900000D01*
%TO.C,D1*%
X81750000Y-28700000D02*
X88650000Y-28700000D01*
X81750000Y-25400000D02*
X81750000Y-28700000D01*
X81750000Y-25400000D02*
X88650000Y-25400000D01*
%TO.C,RL1*%
X70500000Y-93500000D02*
X70500000Y-95000000D01*
X86500000Y-93500000D02*
X70500000Y-93500000D01*
X70500000Y-103500000D02*
X70500000Y-113500000D01*
X86500000Y-113500000D02*
X86500000Y-103500000D01*
X70500000Y-95000000D02*
X70500000Y-103500000D01*
X70500000Y-113500000D02*
X86500000Y-113500000D01*
X86500000Y-103500000D02*
X86500000Y-93500000D01*
%TO.C,U15*%
X106150000Y-57110000D02*
X108100000Y-57110000D01*
X106150000Y-51990000D02*
X108100000Y-51990000D01*
X106150000Y-51990000D02*
X102700000Y-51990000D01*
X106150000Y-57110000D02*
X104200000Y-57110000D01*
%TO.C,D2*%
X167105000Y-38111500D02*
X167570000Y-38111500D01*
X169730000Y-38111500D02*
X170195000Y-38111500D01*
X169730429Y-33297021D02*
G75*
G02*
X169730000Y-37806184I-1080429J-2254479D01*
G01*
X169730827Y-32763685D02*
G75*
G02*
X170194830Y-38111500I-1080827J-2787815D01*
G01*
X167569571Y-33297021D02*
G75*
G03*
X167570000Y-37806184I1080429J-2254479D01*
G01*
X167569173Y-32763685D02*
G75*
G03*
X167105170Y-38111500I1080827J-2787815D01*
G01*
%TO.C,U10*%
X88030000Y-38150000D02*
X84430000Y-38150000D01*
X84391522Y-38161522D02*
G75*
G03*
X86230000Y-42600000I1838478J-1838478D01*
G01*
X88068478Y-38161522D02*
G75*
G02*
X86230000Y-42600000I-1838478J-1838478D01*
G01*
%TO.C,R20*%
X141272936Y-24735000D02*
X141727064Y-24735000D01*
X141272936Y-23265000D02*
X141727064Y-23265000D01*
%TO.C,C28*%
X151738748Y-51735000D02*
X152261252Y-51735000D01*
X151738748Y-50265000D02*
X152261252Y-50265000D01*
%TO.C,C33*%
X119873752Y-42285000D02*
X119351248Y-42285000D01*
X119873752Y-40815000D02*
X119351248Y-40815000D01*
%TO.C,J6*%
X61830000Y-65910000D02*
X61830000Y-114230000D01*
X60500000Y-63310000D02*
X61830000Y-63310000D01*
X56630000Y-63310000D02*
X56630000Y-114230000D01*
X56630000Y-114230000D02*
X61830000Y-114230000D01*
X59230000Y-65910000D02*
X61830000Y-65910000D01*
X56630000Y-63310000D02*
X59230000Y-63310000D01*
X61830000Y-63310000D02*
X61830000Y-64640000D01*
X59230000Y-63310000D02*
X59230000Y-65910000D01*
%TO.C,D7*%
X132600000Y-43580000D02*
X132330000Y-43580000D01*
X125700000Y-43580000D02*
X125970000Y-43580000D01*
X125970000Y-43580000D02*
X125970000Y-42480000D01*
X125700000Y-45080000D02*
X125700000Y-43580000D01*
X132600000Y-45080000D02*
X132600000Y-43580000D01*
X132330000Y-43580000D02*
X132330000Y-40750000D01*
%TO.C,R55*%
X114235000Y-76227064D02*
X114235000Y-75772936D01*
X112765000Y-76227064D02*
X112765000Y-75772936D01*
%TO.C,R63*%
X98922936Y-49785000D02*
X99377064Y-49785000D01*
X98922936Y-48315000D02*
X99377064Y-48315000D01*
%TO.C,R64*%
X103260000Y-70777064D02*
X103260000Y-70322936D01*
X101790000Y-70777064D02*
X101790000Y-70322936D01*
%TO.C,U16*%
X142872500Y-69850000D02*
X142872500Y-66250000D01*
X142860978Y-66211522D02*
G75*
G03*
X138422500Y-68050000I-1838478J-1838478D01*
G01*
X142860978Y-69888478D02*
G75*
G02*
X138422500Y-68050000I-1838478J1838478D01*
G01*
%TO.C,C25*%
X155235000Y-27798752D02*
X155235000Y-27276248D01*
X153765000Y-27798752D02*
X153765000Y-27276248D01*
%TO.C,U3*%
X80307500Y-52890000D02*
X78807500Y-52890000D01*
X80307500Y-52890000D02*
X81807500Y-52890000D01*
X80307500Y-56110000D02*
X83207500Y-56110000D01*
X80307500Y-56110000D02*
X78807500Y-56110000D01*
%TO.C,C2*%
X139235000Y-53738748D02*
X139235000Y-54261252D01*
X137765000Y-53738748D02*
X137765000Y-54261252D01*
%TO.C,R62*%
X159885000Y-55507064D02*
X159885000Y-55052936D01*
X158415000Y-55507064D02*
X158415000Y-55052936D01*
%TO.C,C24*%
X97260000Y-24584252D02*
X97260000Y-27415748D01*
X92040000Y-24584252D02*
X92040000Y-27415748D01*
%TO.C,R14*%
X72915000Y-35277064D02*
X72915000Y-34822936D01*
X74385000Y-35277064D02*
X74385000Y-34822936D01*
%TO.C,C10*%
X67760000Y-23134252D02*
X67760000Y-25965748D01*
X62540000Y-23134252D02*
X62540000Y-25965748D01*
%TO.C,D3*%
X167105000Y-22840000D02*
X170195000Y-22840000D01*
X168650462Y-17290000D02*
G75*
G03*
X167105170Y-22840000I-462J-2990000D01*
G01*
X168649538Y-17290000D02*
G75*
G02*
X170194830Y-22840000I462J-2990000D01*
G01*
X171150000Y-20280000D02*
G75*
G03*
X171150000Y-20280000I-2500000J0D01*
G01*
%TO.C,RL2*%
X139000000Y-103500000D02*
X139000000Y-93500000D01*
X139000000Y-113500000D02*
X139000000Y-103500000D01*
X123000000Y-103500000D02*
X123000000Y-113500000D01*
X123000000Y-93500000D02*
X123000000Y-95000000D01*
X123000000Y-113500000D02*
X139000000Y-113500000D01*
X123000000Y-95000000D02*
X123000000Y-103500000D01*
X139000000Y-93500000D02*
X123000000Y-93500000D01*
%TO.C,R13*%
X76705000Y-50272936D02*
X76705000Y-50727064D01*
X75235000Y-50272936D02*
X75235000Y-50727064D01*
%TO.C,J5*%
X56190000Y-50920000D02*
X56190000Y-61080000D01*
X57460000Y-61080000D02*
X57460000Y-50920000D01*
X63810000Y-61080000D02*
X63810000Y-50920000D01*
X63810000Y-50920000D02*
X56190000Y-50920000D01*
X56190000Y-61080000D02*
X63810000Y-61080000D01*
%TO.C,J2*%
X163270000Y-47830000D02*
X168410000Y-47830000D01*
X163270000Y-47830000D02*
X163270000Y-45170000D01*
X160670000Y-45170000D02*
X162000000Y-45170000D01*
X163270000Y-45170000D02*
X168410000Y-45170000D01*
X160670000Y-46500000D02*
X160670000Y-45170000D01*
X168410000Y-47830000D02*
X168410000Y-45170000D01*
%TO.C,R22*%
X76765000Y-43272936D02*
X76765000Y-43727064D01*
X78235000Y-43272936D02*
X78235000Y-43727064D01*
%TO.C,C3*%
X86705000Y-50761252D02*
X86705000Y-50238748D01*
X85235000Y-50761252D02*
X85235000Y-50238748D01*
%TO.C,F1*%
X114897936Y-36410000D02*
X116102064Y-36410000D01*
X114897936Y-34590000D02*
X116102064Y-34590000D01*
%TO.C,R7*%
X80385000Y-35277064D02*
X80385000Y-34822936D01*
X78915000Y-35277064D02*
X78915000Y-34822936D01*
%TO.C,R57*%
X98877064Y-57285000D02*
X98422936Y-57285000D01*
X98877064Y-55815000D02*
X98422936Y-55815000D01*
%TO.C,Q6*%
X96580000Y-47400000D02*
X100180000Y-47400000D01*
X100218478Y-47388478D02*
G75*
G03*
X98380000Y-42950000I-1838478J1838478D01*
G01*
X96541522Y-47388478D02*
G75*
G02*
X98380000Y-42950000I1838478J1838478D01*
G01*
%TO.C,U7*%
X147800000Y-17327500D02*
X144200000Y-17327500D01*
X147838478Y-17339022D02*
G75*
G02*
X146000000Y-21777500I-1838478J-1838478D01*
G01*
X144161522Y-17339022D02*
G75*
G03*
X146000000Y-21777500I1838478J-1838478D01*
G01*
%TO.C,J4*%
X155305000Y-21230000D02*
X152645000Y-21230000D01*
X153975000Y-23830000D02*
X152645000Y-23830000D01*
X155305000Y-16090000D02*
X152645000Y-16090000D01*
X152645000Y-21230000D02*
X152645000Y-16090000D01*
X152645000Y-23830000D02*
X152645000Y-22500000D01*
X155305000Y-21230000D02*
X155305000Y-16090000D01*
%TO.C,R21*%
X145022936Y-25735000D02*
X145477064Y-25735000D01*
X145022936Y-24265000D02*
X145477064Y-24265000D01*
%TO.C,C7*%
X139265000Y-36238748D02*
X139265000Y-36761252D01*
X140735000Y-36238748D02*
X140735000Y-36761252D01*
%TO.C,C37*%
X108411252Y-49815000D02*
X107888748Y-49815000D01*
X108411252Y-51285000D02*
X107888748Y-51285000D01*
%TO.C,C11*%
X98911252Y-16815000D02*
X98388748Y-16815000D01*
X98911252Y-18285000D02*
X98388748Y-18285000D01*
%TO.C,R30*%
X163727064Y-35235000D02*
X163272936Y-35235000D01*
X163727064Y-33765000D02*
X163272936Y-33765000D01*
%TO.C,U13*%
X90500000Y-74160000D02*
X88190000Y-74160000D01*
X92810000Y-71340000D02*
X92810000Y-71555000D01*
X90500000Y-71340000D02*
X92810000Y-71340000D01*
X90500000Y-71340000D02*
X88190000Y-71340000D01*
X88190000Y-74160000D02*
X88190000Y-73945000D01*
X88190000Y-71555000D02*
X86500000Y-71555000D01*
X90500000Y-74160000D02*
X92810000Y-74160000D01*
X88190000Y-71340000D02*
X88190000Y-71555000D01*
X92810000Y-74160000D02*
X92810000Y-73945000D01*
%TO.C,C15*%
X76735000Y-66261252D02*
X76735000Y-65738748D01*
X75265000Y-66261252D02*
X75265000Y-65738748D01*
%TO.C,R5*%
X157772936Y-46735000D02*
X158227064Y-46735000D01*
X157772936Y-45265000D02*
X158227064Y-45265000D01*
%TO.C,C5*%
X139765000Y-53738748D02*
X139765000Y-54261252D01*
X141235000Y-53738748D02*
X141235000Y-54261252D01*
%TO.C,R33*%
X110422936Y-18315000D02*
X110877064Y-18315000D01*
X110422936Y-19785000D02*
X110877064Y-19785000D01*
%TO.C,R59*%
X98422936Y-55285000D02*
X98877064Y-55285000D01*
X98422936Y-53815000D02*
X98877064Y-53815000D01*
%TO.C,C34*%
X121761252Y-38765000D02*
X121238748Y-38765000D01*
X121761252Y-40235000D02*
X121238748Y-40235000D01*
%TO.C,C21*%
X80705000Y-50761252D02*
X80705000Y-50238748D01*
X79235000Y-50761252D02*
X79235000Y-50238748D01*
%TO.C,C32*%
X117238748Y-37265000D02*
X117761252Y-37265000D01*
X117238748Y-38735000D02*
X117761252Y-38735000D01*
%TO.C,U14*%
X124650000Y-33640000D02*
X124650000Y-36280000D01*
X128050000Y-33640000D02*
X128050000Y-36280000D01*
X121250000Y-33640000D02*
X121250000Y-36280000D01*
X122950000Y-33640000D02*
X122950000Y-36280000D01*
X119529000Y-17750000D02*
X129770000Y-17750000D01*
X119529000Y-17750000D02*
X119529000Y-33640000D01*
X129770000Y-17750000D02*
X129770000Y-33640000D01*
X126350000Y-33640000D02*
X126350000Y-36280000D01*
X119529000Y-33640000D02*
X129770000Y-33640000D01*
%TD*%
M02*
