%TF.GenerationSoftware,KiCad,Pcbnew,(5.99.0-9568-gb9d26a55f2)*%
%TF.CreationDate,2021-03-23T11:57:40+01:00*%
%TF.ProjectId,PowerBoard 1,506f7765-7242-46f6-9172-6420312e6b69,rev?*%
%TF.SameCoordinates,Original*%
%TF.FileFunction,Soldermask,Bot*%
%TF.FilePolarity,Negative*%
%FSLAX46Y46*%
G04 Gerber Fmt 4.6, Leading zero omitted, Abs format (unit mm)*
G04 Created by KiCad (PCBNEW (5.99.0-9568-gb9d26a55f2)) date 2021-03-23 11:57:40*
%MOMM*%
%LPD*%
G01*
G04 APERTURE LIST*
%ADD10C,0.800000*%
%ADD11C,6.400000*%
%ADD12R,1.700000X1.700000*%
%ADD13O,1.700000X1.700000*%
%ADD14C,2.500000*%
%ADD15R,1.800000X1.800000*%
%ADD16C,1.800000*%
%ADD17R,1.500000X1.050000*%
%ADD18O,1.500000X1.050000*%
%ADD19C,2.000000*%
%ADD20R,1.050000X1.500000*%
%ADD21O,1.050000X1.500000*%
%ADD22R,3.000000X3.000000*%
%ADD23C,3.000000*%
%ADD24O,3.500000X3.500000*%
%ADD25R,1.275000X1.800000*%
%ADD26O,1.275000X1.800000*%
G04 APERTURE END LIST*
D10*
%TO.C,REF\u002A\u002A*%
X161347056Y-108802944D03*
X159650000Y-108100000D03*
X157952944Y-108802944D03*
X157250000Y-110500000D03*
X157952944Y-112197056D03*
X159650000Y-112900000D03*
X161347056Y-112197056D03*
X162050000Y-110500000D03*
D11*
X159650000Y-110500000D03*
%TD*%
D10*
%TO.C,REF\u002A\u002A*%
X171347056Y-108802944D03*
X169650000Y-108100000D03*
X167952944Y-108802944D03*
X167250000Y-110500000D03*
X167952944Y-112197056D03*
X169650000Y-112900000D03*
X171347056Y-112197056D03*
X172050000Y-110500000D03*
D11*
X169650000Y-110500000D03*
%TD*%
D12*
%TO.C,J1*%
X162000000Y-49500000D03*
D13*
X164540000Y-49500000D03*
X167080000Y-49500000D03*
%TD*%
D14*
%TO.C,RL4*%
X119500000Y-97400000D03*
X107500000Y-97400000D03*
X113500000Y-95400000D03*
X119500000Y-109600000D03*
%TD*%
D15*
%TO.C,D5*%
X168650000Y-28550000D03*
D16*
X168650000Y-26010000D03*
%TD*%
D17*
%TO.C,U8*%
X140127500Y-18730000D03*
D18*
X140127500Y-20000000D03*
X140127500Y-21270000D03*
%TD*%
D15*
%TO.C,D6*%
X168650000Y-56550000D03*
D16*
X168650000Y-54010000D03*
%TD*%
D12*
%TO.C,J3*%
X162000000Y-43500000D03*
D13*
X164540000Y-43500000D03*
X167080000Y-43500000D03*
%TD*%
D15*
%TO.C,D4*%
X168650000Y-63550000D03*
D16*
X168650000Y-61010000D03*
%TD*%
D14*
%TO.C,RL3*%
X102000000Y-97400000D03*
X90000000Y-97400000D03*
X96000000Y-95400000D03*
X102000000Y-109600000D03*
%TD*%
D17*
%TO.C,U9*%
X81372500Y-44270000D03*
D18*
X81372500Y-43000000D03*
X81372500Y-41730000D03*
%TD*%
D19*
%TO.C,U5*%
X77150000Y-26050000D03*
%TD*%
D14*
%TO.C,RL1*%
X84500000Y-97400000D03*
X72500000Y-97400000D03*
X78500000Y-95400000D03*
X84500000Y-109600000D03*
%TD*%
D15*
%TO.C,D2*%
X168650000Y-38790000D03*
D16*
X168650000Y-36631000D03*
X168650000Y-34472000D03*
X168650000Y-32313000D03*
%TD*%
D20*
%TO.C,U10*%
X87500000Y-40000000D03*
D21*
X86230000Y-40000000D03*
X84960000Y-40000000D03*
%TD*%
D12*
%TO.C,J6*%
X60500000Y-64640000D03*
D13*
X57960000Y-64640000D03*
X60500000Y-67180000D03*
X57960000Y-67180000D03*
X60500000Y-69720000D03*
X57960000Y-69720000D03*
X60500000Y-72260000D03*
X57960000Y-72260000D03*
X60500000Y-74800000D03*
X57960000Y-74800000D03*
X60500000Y-77340000D03*
X57960000Y-77340000D03*
X60500000Y-79880000D03*
X57960000Y-79880000D03*
X60500000Y-82420000D03*
X57960000Y-82420000D03*
X60500000Y-84960000D03*
X57960000Y-84960000D03*
X60500000Y-87500000D03*
X57960000Y-87500000D03*
X60500000Y-90040000D03*
X57960000Y-90040000D03*
X60500000Y-92580000D03*
X57960000Y-92580000D03*
X60500000Y-95120000D03*
X57960000Y-95120000D03*
X60500000Y-97660000D03*
X57960000Y-97660000D03*
X60500000Y-100200000D03*
X57960000Y-100200000D03*
X60500000Y-102740000D03*
X57960000Y-102740000D03*
X60500000Y-105280000D03*
X57960000Y-105280000D03*
X60500000Y-107820000D03*
X57960000Y-107820000D03*
X60500000Y-110360000D03*
X57960000Y-110360000D03*
X60500000Y-112900000D03*
X57960000Y-112900000D03*
%TD*%
D17*
%TO.C,U16*%
X141022500Y-69320000D03*
D18*
X141022500Y-68050000D03*
X141022500Y-66780000D03*
%TD*%
D19*
%TO.C,U3*%
X80307500Y-54500000D03*
%TD*%
D12*
%TO.C,J9*%
X152960000Y-59975000D03*
D13*
X155500000Y-59975000D03*
X158040000Y-59975000D03*
X160580000Y-59975000D03*
%TD*%
D15*
%TO.C,D3*%
X168650000Y-21550000D03*
D16*
X168650000Y-19010000D03*
%TD*%
D14*
%TO.C,RL2*%
X137000000Y-97400000D03*
X125000000Y-97400000D03*
X131000000Y-95400000D03*
X137000000Y-109600000D03*
%TD*%
D22*
%TO.C,J5*%
X60000000Y-53460000D03*
D23*
X60000000Y-58540000D03*
%TD*%
D12*
%TO.C,J2*%
X162000000Y-46500000D03*
D13*
X164540000Y-46500000D03*
X167080000Y-46500000D03*
%TD*%
D20*
%TO.C,U7*%
X147270000Y-19177500D03*
D21*
X146000000Y-19177500D03*
X144730000Y-19177500D03*
%TD*%
D12*
%TO.C,J4*%
X153975000Y-22500000D03*
D13*
X153975000Y-19960000D03*
X153975000Y-17420000D03*
%TD*%
D24*
%TO.C,U14*%
X124650000Y-20670000D03*
D25*
X121250000Y-37330000D03*
D26*
X122950000Y-37330000D03*
X124650000Y-37330000D03*
X126350000Y-37330000D03*
X128050000Y-37330000D03*
%TD*%
M02*
