%TF.GenerationSoftware,KiCad,Pcbnew,(5.99.0-9544-g366189b864)*%
%TF.CreationDate,2021-03-13T10:43:42+01:00*%
%TF.ProjectId,PowerBoard 1,506f7765-7242-46f6-9172-6420312e6b69,rev?*%
%TF.SameCoordinates,Original*%
%TF.FileFunction,Soldermask,Top*%
%TF.FilePolarity,Negative*%
%FSLAX46Y46*%
G04 Gerber Fmt 4.6, Leading zero omitted, Abs format (unit mm)*
G04 Created by KiCad (PCBNEW (5.99.0-9544-g366189b864)) date 2021-03-13 10:43:42*
%MOMM*%
%LPD*%
G01*
G04 APERTURE LIST*
G04 Aperture macros list*
%AMRoundRect*
0 Rectangle with rounded corners*
0 $1 Rounding radius*
0 $2 $3 $4 $5 $6 $7 $8 $9 X,Y pos of 4 corners*
0 Add a 4 corners polygon primitive as box body*
4,1,4,$2,$3,$4,$5,$6,$7,$8,$9,$2,$3,0*
0 Add four circle primitives for the rounded corners*
1,1,$1+$1,$2,$3*
1,1,$1+$1,$4,$5*
1,1,$1+$1,$6,$7*
1,1,$1+$1,$8,$9*
0 Add four rect primitives between the rounded corners*
20,1,$1+$1,$2,$3,$4,$5,0*
20,1,$1+$1,$4,$5,$6,$7,0*
20,1,$1+$1,$6,$7,$8,$9,0*
20,1,$1+$1,$8,$9,$2,$3,0*%
G04 Aperture macros list end*
%ADD10RoundRect,0.250000X-0.350000X-0.450000X0.350000X-0.450000X0.350000X0.450000X-0.350000X0.450000X0*%
%ADD11RoundRect,0.250000X-0.450000X0.350000X-0.450000X-0.350000X0.450000X-0.350000X0.450000X0.350000X0*%
%ADD12RoundRect,0.250000X0.450000X-0.350000X0.450000X0.350000X-0.450000X0.350000X-0.450000X-0.350000X0*%
%ADD13RoundRect,0.250000X-0.475000X0.337500X-0.475000X-0.337500X0.475000X-0.337500X0.475000X0.337500X0*%
%ADD14RoundRect,0.150000X-0.825000X-0.150000X0.825000X-0.150000X0.825000X0.150000X-0.825000X0.150000X0*%
%ADD15R,0.900000X0.800000*%
%ADD16RoundRect,0.250000X0.350000X0.450000X-0.350000X0.450000X-0.350000X-0.450000X0.350000X-0.450000X0*%
%ADD17RoundRect,0.250000X0.550000X-1.412500X0.550000X1.412500X-0.550000X1.412500X-0.550000X-1.412500X0*%
%ADD18RoundRect,0.250000X-0.337500X-0.475000X0.337500X-0.475000X0.337500X0.475000X-0.337500X0.475000X0*%
%ADD19R,0.800000X0.900000*%
%ADD20RoundRect,0.250000X-0.550000X1.412500X-0.550000X-1.412500X0.550000X-1.412500X0.550000X1.412500X0*%
%ADD21RoundRect,0.237500X-0.300000X-0.237500X0.300000X-0.237500X0.300000X0.237500X-0.300000X0.237500X0*%
%ADD22R,1.700000X1.700000*%
%ADD23O,1.700000X1.700000*%
%ADD24RoundRect,0.125000X-0.125000X0.625000X-0.125000X-0.625000X0.125000X-0.625000X0.125000X0.625000X0*%
%ADD25RoundRect,0.125000X-0.625000X0.125000X-0.625000X-0.125000X0.625000X-0.125000X0.625000X0.125000X0*%
%ADD26C,2.500000*%
%ADD27R,1.800000X1.800000*%
%ADD28C,1.800000*%
%ADD29RoundRect,0.250001X1.999999X0.799999X-1.999999X0.799999X-1.999999X-0.799999X1.999999X-0.799999X0*%
%ADD30R,10.000000X5.000000*%
%ADD31R,1.500000X1.050000*%
%ADD32O,1.500000X1.050000*%
%ADD33RoundRect,0.250000X0.475000X-0.337500X0.475000X0.337500X-0.475000X0.337500X-0.475000X-0.337500X0*%
%ADD34RoundRect,0.250001X-1.999999X-0.799999X1.999999X-0.799999X1.999999X0.799999X-1.999999X0.799999X0*%
%ADD35RoundRect,0.100000X-0.712500X-0.100000X0.712500X-0.100000X0.712500X0.100000X-0.712500X0.100000X0*%
%ADD36RoundRect,0.150000X0.662500X0.150000X-0.662500X0.150000X-0.662500X-0.150000X0.662500X-0.150000X0*%
%ADD37RoundRect,0.250000X-0.650000X0.412500X-0.650000X-0.412500X0.650000X-0.412500X0.650000X0.412500X0*%
%ADD38RoundRect,0.250000X0.337500X0.475000X-0.337500X0.475000X-0.337500X-0.475000X0.337500X-0.475000X0*%
%ADD39R,1.500000X2.200000*%
%ADD40RoundRect,0.249999X0.737501X2.450001X-0.737501X2.450001X-0.737501X-2.450001X0.737501X-2.450001X0*%
%ADD41RoundRect,0.249999X-2.450001X0.737501X-2.450001X-0.737501X2.450001X-0.737501X2.450001X0.737501X0*%
%ADD42R,2.200000X1.200000*%
%ADD43R,6.400000X5.800000*%
%ADD44R,1.050000X1.500000*%
%ADD45O,1.050000X1.500000*%
%ADD46R,2.800000X1.000000*%
%ADD47RoundRect,0.100000X0.637500X0.100000X-0.637500X0.100000X-0.637500X-0.100000X0.637500X-0.100000X0*%
%ADD48R,2.000000X7.875000*%
%ADD49RoundRect,0.250000X1.450000X-0.400000X1.450000X0.400000X-1.450000X0.400000X-1.450000X-0.400000X0*%
%ADD50RoundRect,0.250001X-0.462499X-0.624999X0.462499X-0.624999X0.462499X0.624999X-0.462499X0.624999X0*%
%ADD51RoundRect,0.075000X-0.075000X0.662500X-0.075000X-0.662500X0.075000X-0.662500X0.075000X0.662500X0*%
%ADD52R,1.980000X1.730000*%
%ADD53C,2.000000*%
%ADD54RoundRect,0.250000X-0.400000X-1.450000X0.400000X-1.450000X0.400000X1.450000X-0.400000X1.450000X0*%
%ADD55R,1.350000X3.400000*%
%ADD56R,3.500000X1.800000*%
%ADD57R,1.200000X2.200000*%
%ADD58R,5.800000X6.400000*%
%ADD59RoundRect,0.075000X0.662500X0.075000X-0.662500X0.075000X-0.662500X-0.075000X0.662500X-0.075000X0*%
%ADD60R,1.730000X1.980000*%
%ADD61R,3.000000X3.000000*%
%ADD62C,3.000000*%
%ADD63RoundRect,0.150000X-0.662500X-0.150000X0.662500X-0.150000X0.662500X0.150000X-0.662500X0.150000X0*%
%ADD64O,3.500000X3.500000*%
%ADD65R,1.275000X1.800000*%
%ADD66O,1.275000X1.800000*%
G04 APERTURE END LIST*
D10*
%TO.C,R40*%
X109650000Y-33050000D03*
X111650000Y-33050000D03*
%TD*%
D11*
%TO.C,R66*%
X150150000Y-63550000D03*
X150150000Y-65550000D03*
%TD*%
D10*
%TO.C,R23*%
X84500000Y-44000000D03*
X86500000Y-44000000D03*
%TD*%
D12*
%TO.C,R48*%
X102500000Y-77000000D03*
X102500000Y-75000000D03*
%TD*%
D13*
%TO.C,C18*%
X73650000Y-22012500D03*
X73650000Y-24087500D03*
%TD*%
D14*
%TO.C,U1*%
X82000000Y-65000000D03*
X82000000Y-66270000D03*
X82000000Y-67540000D03*
X82000000Y-68810000D03*
X86950000Y-68810000D03*
X86950000Y-67540000D03*
X86950000Y-66270000D03*
X86950000Y-65000000D03*
%TD*%
D15*
%TO.C,Q5*%
X106525000Y-71500000D03*
X106525000Y-69600000D03*
X104525000Y-70550000D03*
%TD*%
D16*
%TO.C,R46*%
X116650000Y-41550000D03*
X114650000Y-41550000D03*
%TD*%
D15*
%TO.C,Q3*%
X106500000Y-76950000D03*
X106500000Y-75050000D03*
X104500000Y-76000000D03*
%TD*%
D12*
%TO.C,R56*%
X144000000Y-68050000D03*
X144000000Y-66050000D03*
%TD*%
D17*
%TO.C,C4*%
X70000000Y-46537500D03*
X70000000Y-41462500D03*
%TD*%
D12*
%TO.C,R8*%
X81977936Y-51500000D03*
X81977936Y-49500000D03*
%TD*%
%TO.C,R18*%
X71650000Y-36050000D03*
X71650000Y-34050000D03*
%TD*%
D18*
%TO.C,C22*%
X76612500Y-19050000D03*
X78687500Y-19050000D03*
%TD*%
D19*
%TO.C,Q8*%
X78050000Y-73750000D03*
X79950000Y-73750000D03*
X79000000Y-71750000D03*
%TD*%
D20*
%TO.C,C27*%
X106150000Y-40550000D03*
X106150000Y-45625000D03*
%TD*%
D10*
%TO.C,R37*%
X109650000Y-27050000D03*
X111650000Y-27050000D03*
%TD*%
D21*
%TO.C,C20*%
X82607500Y-57500000D03*
X84332500Y-57500000D03*
%TD*%
D11*
%TO.C,R54*%
X119500000Y-75000000D03*
X119500000Y-77000000D03*
%TD*%
D22*
%TO.C,J1*%
X162000000Y-49500000D03*
D23*
X164540000Y-49500000D03*
X167080000Y-49500000D03*
%TD*%
D24*
%TO.C,U4*%
X153800000Y-30825000D03*
X153000000Y-30825000D03*
X152200000Y-30825000D03*
X151400000Y-30825000D03*
X150600000Y-30825000D03*
X149800000Y-30825000D03*
X149000000Y-30825000D03*
X148200000Y-30825000D03*
D25*
X146825000Y-32200000D03*
X146825000Y-33000000D03*
X146825000Y-33800000D03*
X146825000Y-34600000D03*
X146825000Y-35400000D03*
X146825000Y-36200000D03*
X146825000Y-37000000D03*
X146825000Y-37800000D03*
D24*
X148200000Y-39175000D03*
X149000000Y-39175000D03*
X149800000Y-39175000D03*
X150600000Y-39175000D03*
X151400000Y-39175000D03*
X152200000Y-39175000D03*
X153000000Y-39175000D03*
X153800000Y-39175000D03*
D25*
X155175000Y-37800000D03*
X155175000Y-37000000D03*
X155175000Y-36200000D03*
X155175000Y-35400000D03*
X155175000Y-34600000D03*
X155175000Y-33800000D03*
X155175000Y-33000000D03*
X155175000Y-32200000D03*
%TD*%
D16*
%TO.C,R29*%
X164500000Y-36500000D03*
X162500000Y-36500000D03*
%TD*%
D26*
%TO.C,RL4*%
X119500000Y-97400000D03*
X107500000Y-97400000D03*
X113500000Y-95400000D03*
X119500000Y-109600000D03*
%TD*%
D16*
%TO.C,R43*%
X99000000Y-74500000D03*
X97000000Y-74500000D03*
%TD*%
%TO.C,R15*%
X164500000Y-32500000D03*
X162500000Y-32500000D03*
%TD*%
%TO.C,R28*%
X164500000Y-38500000D03*
X162500000Y-38500000D03*
%TD*%
D11*
%TO.C,R45*%
X108500000Y-75000000D03*
X108500000Y-77000000D03*
%TD*%
D10*
%TO.C,R39*%
X109650000Y-31050000D03*
X111650000Y-31050000D03*
%TD*%
D27*
%TO.C,D5*%
X168650000Y-28550000D03*
D28*
X168650000Y-26010000D03*
%TD*%
D10*
%TO.C,R68*%
X102000000Y-49050000D03*
X104000000Y-49050000D03*
%TD*%
D29*
%TO.C,C30*%
X102250000Y-35550000D03*
X95050000Y-35550000D03*
%TD*%
D30*
%TO.C,J8*%
X147650000Y-95550000D03*
%TD*%
D11*
%TO.C,R17*%
X80150000Y-25050000D03*
X80150000Y-27050000D03*
%TD*%
D16*
%TO.C,R1*%
X103650000Y-17550000D03*
X101650000Y-17550000D03*
%TD*%
D31*
%TO.C,U8*%
X140127500Y-18730000D03*
D32*
X140127500Y-20000000D03*
X140127500Y-21270000D03*
%TD*%
D15*
%TO.C,Q4*%
X117500000Y-76950000D03*
X117500000Y-75050000D03*
X115500000Y-76000000D03*
%TD*%
D27*
%TO.C,D6*%
X168650000Y-56550000D03*
D28*
X168650000Y-54010000D03*
%TD*%
D10*
%TO.C,R38*%
X109650000Y-29050000D03*
X111650000Y-29050000D03*
%TD*%
D16*
%TO.C,R6*%
X77650000Y-32050000D03*
X75650000Y-32050000D03*
%TD*%
D18*
%TO.C,C12*%
X162462500Y-24500000D03*
X164537500Y-24500000D03*
%TD*%
D10*
%TO.C,R26*%
X162500000Y-63500000D03*
X164500000Y-63500000D03*
%TD*%
D33*
%TO.C,C9*%
X73970000Y-51537500D03*
X73970000Y-49462500D03*
%TD*%
D10*
%TO.C,R3*%
X157000000Y-50000000D03*
X159000000Y-50000000D03*
%TD*%
D16*
%TO.C,R47*%
X121150000Y-49550000D03*
X119150000Y-49550000D03*
%TD*%
D22*
%TO.C,J3*%
X162000000Y-43500000D03*
D23*
X164540000Y-43500000D03*
X167080000Y-43500000D03*
%TD*%
D10*
%TO.C,R50*%
X82500000Y-75750000D03*
X84500000Y-75750000D03*
%TD*%
D16*
%TO.C,R19*%
X146250000Y-23000000D03*
X144250000Y-23000000D03*
%TD*%
D15*
%TO.C,Q2*%
X117525000Y-71500000D03*
X117525000Y-69600000D03*
X115525000Y-70550000D03*
%TD*%
D27*
%TO.C,D4*%
X168650000Y-63550000D03*
D28*
X168650000Y-61010000D03*
%TD*%
D34*
%TO.C,C1*%
X60500000Y-34000000D03*
X67700000Y-34000000D03*
%TD*%
D16*
%TO.C,R51*%
X99000000Y-72500000D03*
X97000000Y-72500000D03*
%TD*%
D12*
%TO.C,R2*%
X83970000Y-51500000D03*
X83970000Y-49500000D03*
%TD*%
D35*
%TO.C,U2*%
X143887500Y-52525000D03*
X143887500Y-53175000D03*
X143887500Y-53825000D03*
X143887500Y-54475000D03*
X148112500Y-54475000D03*
X148112500Y-53825000D03*
X148112500Y-53175000D03*
X148112500Y-52525000D03*
%TD*%
D10*
%TO.C,R25*%
X162500000Y-26500000D03*
X164500000Y-26500000D03*
%TD*%
D36*
%TO.C,U12*%
X93687500Y-76885000D03*
X93687500Y-75615000D03*
X87312500Y-75615000D03*
X87312500Y-76885000D03*
%TD*%
D10*
%TO.C,R34*%
X109650000Y-21050000D03*
X111650000Y-21050000D03*
%TD*%
D37*
%TO.C,C13*%
X70650000Y-21987500D03*
X70650000Y-25112500D03*
%TD*%
D12*
%TO.C,R9*%
X77970000Y-51500000D03*
X77970000Y-49500000D03*
%TD*%
D38*
%TO.C,C31*%
X147537500Y-41500000D03*
X145462500Y-41500000D03*
%TD*%
D10*
%TO.C,R41*%
X109650000Y-35050000D03*
X111650000Y-35050000D03*
%TD*%
D26*
%TO.C,RL3*%
X102000000Y-97400000D03*
X90000000Y-97400000D03*
X96000000Y-95400000D03*
X102000000Y-109600000D03*
%TD*%
D11*
%TO.C,R31*%
X119525000Y-69550000D03*
X119525000Y-71550000D03*
%TD*%
D39*
%TO.C,L2*%
X83450000Y-21000000D03*
X89850000Y-21000000D03*
%TD*%
D40*
%TO.C,C23*%
X94115436Y-49000000D03*
X88840436Y-49000000D03*
%TD*%
D12*
%TO.C,R32*%
X113500000Y-71500000D03*
X113500000Y-69500000D03*
%TD*%
D41*
%TO.C,C26*%
X100650000Y-23362500D03*
X100650000Y-28637500D03*
%TD*%
D42*
%TO.C,D8*%
X142450000Y-83270000D03*
D43*
X148750000Y-85550000D03*
D42*
X142450000Y-87830000D03*
%TD*%
D44*
%TO.C,Q1*%
X70300000Y-29447500D03*
D45*
X71570000Y-29447500D03*
X72840000Y-29447500D03*
%TD*%
D31*
%TO.C,Q7*%
X162150000Y-53280000D03*
D32*
X162150000Y-54550000D03*
X162150000Y-55820000D03*
%TD*%
D10*
%TO.C,R42*%
X109650000Y-37050000D03*
X111650000Y-37050000D03*
%TD*%
D13*
%TO.C,C38*%
X147650000Y-63550000D03*
X147650000Y-65625000D03*
%TD*%
D10*
%TO.C,R49*%
X115150000Y-49550000D03*
X117150000Y-49550000D03*
%TD*%
D33*
%TO.C,C6*%
X140000000Y-33537500D03*
X140000000Y-31462500D03*
%TD*%
D16*
%TO.C,R53*%
X116150000Y-55050000D03*
X114150000Y-55050000D03*
%TD*%
D46*
%TO.C,SW1*%
X163400000Y-17000000D03*
X157600000Y-17000000D03*
X163400000Y-21000000D03*
X157600000Y-21000000D03*
%TD*%
D14*
%TO.C,U11*%
X115175000Y-43645000D03*
X115175000Y-44915000D03*
X115175000Y-46185000D03*
X115175000Y-47455000D03*
X120125000Y-47455000D03*
X120125000Y-46185000D03*
X120125000Y-44915000D03*
X120125000Y-43645000D03*
%TD*%
D10*
%TO.C,R61*%
X114150000Y-53050000D03*
X116150000Y-53050000D03*
%TD*%
D37*
%TO.C,C8*%
X75470000Y-55937500D03*
X75470000Y-59062500D03*
%TD*%
D47*
%TO.C,U6*%
X148862500Y-49475000D03*
X148862500Y-48825000D03*
X148862500Y-48175000D03*
X148862500Y-47525000D03*
X143137500Y-47525000D03*
X143137500Y-48175000D03*
X143137500Y-48825000D03*
X143137500Y-49475000D03*
%TD*%
D48*
%TO.C,Y1*%
X136500000Y-43437500D03*
X136500000Y-31562500D03*
%TD*%
D10*
%TO.C,R35*%
X109650000Y-23050000D03*
X111650000Y-23050000D03*
%TD*%
D18*
%TO.C,C35*%
X125425000Y-53500000D03*
X127500000Y-53500000D03*
%TD*%
D16*
%TO.C,R16*%
X164500000Y-40500000D03*
X162500000Y-40500000D03*
%TD*%
D49*
%TO.C,F2*%
X125500000Y-89725000D03*
X125500000Y-85275000D03*
%TD*%
D10*
%TO.C,R36*%
X109650000Y-25050000D03*
X111650000Y-25050000D03*
%TD*%
D31*
%TO.C,U9*%
X81372500Y-44270000D03*
D32*
X81372500Y-43000000D03*
X81372500Y-41730000D03*
%TD*%
D10*
%TO.C,R44*%
X82500000Y-72250000D03*
X84500000Y-72250000D03*
%TD*%
D11*
%TO.C,R67*%
X150150000Y-67550000D03*
X150150000Y-69550000D03*
%TD*%
D10*
%TO.C,R27*%
X162500000Y-28500000D03*
X164500000Y-28500000D03*
%TD*%
D50*
%TO.C,F3*%
X60012500Y-48500000D03*
X62987500Y-48500000D03*
%TD*%
D13*
%TO.C,C14*%
X75650000Y-33975000D03*
X75650000Y-36050000D03*
%TD*%
D51*
%TO.C,U5*%
X78150000Y-23887500D03*
X77650000Y-23887500D03*
X77150000Y-23887500D03*
X76650000Y-23887500D03*
X76150000Y-23887500D03*
X76150000Y-28212500D03*
X76650000Y-28212500D03*
X77150000Y-28212500D03*
X77650000Y-28212500D03*
X78150000Y-28212500D03*
D52*
X77150000Y-26050000D03*
D53*
X77150000Y-26050000D03*
%TD*%
D12*
%TO.C,R52*%
X112150000Y-44550000D03*
X112150000Y-42550000D03*
%TD*%
D10*
%TO.C,R58*%
X97650000Y-52550000D03*
X99650000Y-52550000D03*
%TD*%
D11*
%TO.C,R65*%
X147650000Y-67550000D03*
X147650000Y-69550000D03*
%TD*%
D13*
%TO.C,C17*%
X77650000Y-33975000D03*
X77650000Y-36050000D03*
%TD*%
D10*
%TO.C,R69*%
X78000000Y-75750000D03*
X80000000Y-75750000D03*
%TD*%
D38*
%TO.C,C36*%
X116187500Y-57050000D03*
X114112500Y-57050000D03*
%TD*%
D11*
%TO.C,R60*%
X108525000Y-69550000D03*
X108525000Y-71550000D03*
%TD*%
D54*
%TO.C,F4*%
X142275000Y-103500000D03*
X146725000Y-103500000D03*
%TD*%
D18*
%TO.C,C19*%
X86937500Y-62905000D03*
X89012500Y-62905000D03*
%TD*%
D10*
%TO.C,R4*%
X157000000Y-48000000D03*
X159000000Y-48000000D03*
%TD*%
D33*
%TO.C,C16*%
X151000000Y-55037500D03*
X151000000Y-52962500D03*
%TD*%
D30*
%TO.C,J7*%
X147650000Y-75550000D03*
%TD*%
D10*
%TO.C,R24*%
X88500000Y-44000000D03*
X90500000Y-44000000D03*
%TD*%
D55*
%TO.C,L1*%
X86895000Y-54500000D03*
X89045000Y-54500000D03*
%TD*%
D56*
%TO.C,D1*%
X83650000Y-27050000D03*
X88650000Y-27050000D03*
%TD*%
D26*
%TO.C,RL1*%
X84500000Y-97400000D03*
X72500000Y-97400000D03*
X78500000Y-95400000D03*
X84500000Y-109600000D03*
%TD*%
D14*
%TO.C,U15*%
X103675000Y-52645000D03*
X103675000Y-53915000D03*
X103675000Y-55185000D03*
X103675000Y-56455000D03*
X108625000Y-56455000D03*
X108625000Y-55185000D03*
X108625000Y-53915000D03*
X108625000Y-52645000D03*
%TD*%
D27*
%TO.C,D2*%
X168650000Y-38790000D03*
D28*
X168650000Y-36631000D03*
X168650000Y-34472000D03*
X168650000Y-32313000D03*
%TD*%
D44*
%TO.C,U10*%
X87500000Y-40000000D03*
D45*
X86230000Y-40000000D03*
X84960000Y-40000000D03*
%TD*%
D10*
%TO.C,R20*%
X140500000Y-24000000D03*
X142500000Y-24000000D03*
%TD*%
D18*
%TO.C,C28*%
X150962500Y-51000000D03*
X153037500Y-51000000D03*
%TD*%
D38*
%TO.C,C33*%
X120650000Y-41550000D03*
X118575000Y-41550000D03*
%TD*%
D22*
%TO.C,J6*%
X60500000Y-64640000D03*
D23*
X57960000Y-64640000D03*
X60500000Y-67180000D03*
X57960000Y-67180000D03*
X60500000Y-69720000D03*
X57960000Y-69720000D03*
X60500000Y-72260000D03*
X57960000Y-72260000D03*
X60500000Y-74800000D03*
X57960000Y-74800000D03*
X60500000Y-77340000D03*
X57960000Y-77340000D03*
X60500000Y-79880000D03*
X57960000Y-79880000D03*
X60500000Y-82420000D03*
X57960000Y-82420000D03*
X60500000Y-84960000D03*
X57960000Y-84960000D03*
X60500000Y-87500000D03*
X57960000Y-87500000D03*
X60500000Y-90040000D03*
X57960000Y-90040000D03*
X60500000Y-92580000D03*
X57960000Y-92580000D03*
X60500000Y-95120000D03*
X57960000Y-95120000D03*
X60500000Y-97660000D03*
X57960000Y-97660000D03*
X60500000Y-100200000D03*
X57960000Y-100200000D03*
X60500000Y-102740000D03*
X57960000Y-102740000D03*
X60500000Y-105280000D03*
X57960000Y-105280000D03*
X60500000Y-107820000D03*
X57960000Y-107820000D03*
X60500000Y-110360000D03*
X57960000Y-110360000D03*
X60500000Y-112900000D03*
X57960000Y-112900000D03*
%TD*%
D57*
%TO.C,D7*%
X131430000Y-41850000D03*
D58*
X129150000Y-48150000D03*
D57*
X126870000Y-41850000D03*
%TD*%
D12*
%TO.C,R55*%
X113500000Y-77000000D03*
X113500000Y-75000000D03*
%TD*%
D10*
%TO.C,R63*%
X98150000Y-49050000D03*
X100150000Y-49050000D03*
%TD*%
D12*
%TO.C,R64*%
X102525000Y-71550000D03*
X102525000Y-69550000D03*
%TD*%
D31*
%TO.C,U16*%
X141022500Y-69320000D03*
D32*
X141022500Y-68050000D03*
X141022500Y-66780000D03*
%TD*%
D33*
%TO.C,C25*%
X154500000Y-28575000D03*
X154500000Y-26500000D03*
%TD*%
D59*
%TO.C,U3*%
X82470000Y-55500000D03*
X82470000Y-55000000D03*
X82470000Y-54500000D03*
X82470000Y-54000000D03*
X82470000Y-53500000D03*
X78145000Y-53500000D03*
X78145000Y-54000000D03*
X78145000Y-54500000D03*
X78145000Y-55000000D03*
X78145000Y-55500000D03*
D53*
X80307500Y-54500000D03*
D60*
X80307500Y-54500000D03*
%TD*%
D13*
%TO.C,C2*%
X138500000Y-52962500D03*
X138500000Y-55037500D03*
%TD*%
D12*
%TO.C,R62*%
X159150000Y-56280000D03*
X159150000Y-54280000D03*
%TD*%
D41*
%TO.C,C24*%
X94650000Y-23362500D03*
X94650000Y-28637500D03*
%TD*%
D12*
%TO.C,R14*%
X73650000Y-36050000D03*
X73650000Y-34050000D03*
%TD*%
D41*
%TO.C,C10*%
X65150000Y-21912500D03*
X65150000Y-27187500D03*
%TD*%
D27*
%TO.C,D3*%
X168650000Y-21550000D03*
D28*
X168650000Y-19010000D03*
%TD*%
D26*
%TO.C,RL2*%
X137000000Y-97400000D03*
X125000000Y-97400000D03*
X131000000Y-95400000D03*
X137000000Y-109600000D03*
%TD*%
D11*
%TO.C,R13*%
X75970000Y-49500000D03*
X75970000Y-51500000D03*
%TD*%
D61*
%TO.C,J5*%
X60000000Y-53460000D03*
D62*
X60000000Y-58540000D03*
%TD*%
D22*
%TO.C,J2*%
X162000000Y-46500000D03*
D23*
X164540000Y-46500000D03*
X167080000Y-46500000D03*
%TD*%
D11*
%TO.C,R22*%
X77500000Y-42500000D03*
X77500000Y-44500000D03*
%TD*%
D33*
%TO.C,C3*%
X85970000Y-51537500D03*
X85970000Y-49462500D03*
%TD*%
D50*
%TO.C,F1*%
X114012500Y-35500000D03*
X116987500Y-35500000D03*
%TD*%
D12*
%TO.C,R7*%
X79650000Y-36050000D03*
X79650000Y-34050000D03*
%TD*%
D16*
%TO.C,R57*%
X99650000Y-56550000D03*
X97650000Y-56550000D03*
%TD*%
D44*
%TO.C,Q6*%
X97110000Y-45550000D03*
D45*
X98380000Y-45550000D03*
X99650000Y-45550000D03*
%TD*%
D44*
%TO.C,U7*%
X147270000Y-19177500D03*
D45*
X146000000Y-19177500D03*
X144730000Y-19177500D03*
%TD*%
D22*
%TO.C,J4*%
X153975000Y-22500000D03*
D23*
X153975000Y-19960000D03*
X153975000Y-17420000D03*
%TD*%
D10*
%TO.C,R21*%
X144250000Y-25000000D03*
X146250000Y-25000000D03*
%TD*%
D13*
%TO.C,C7*%
X140000000Y-35462500D03*
X140000000Y-37537500D03*
%TD*%
D38*
%TO.C,C37*%
X109187500Y-50550000D03*
X107112500Y-50550000D03*
%TD*%
%TO.C,C11*%
X99687500Y-17550000D03*
X97612500Y-17550000D03*
%TD*%
D16*
%TO.C,R30*%
X164500000Y-34500000D03*
X162500000Y-34500000D03*
%TD*%
D63*
%TO.C,U13*%
X87312500Y-72115000D03*
X87312500Y-73385000D03*
X93687500Y-73385000D03*
X93687500Y-72115000D03*
%TD*%
D33*
%TO.C,C15*%
X76000000Y-67037500D03*
X76000000Y-64962500D03*
%TD*%
D10*
%TO.C,R5*%
X157000000Y-46000000D03*
X159000000Y-46000000D03*
%TD*%
D13*
%TO.C,C5*%
X140500000Y-52962500D03*
X140500000Y-55037500D03*
%TD*%
D10*
%TO.C,R33*%
X109650000Y-19050000D03*
X111650000Y-19050000D03*
%TD*%
%TO.C,R59*%
X97650000Y-54550000D03*
X99650000Y-54550000D03*
%TD*%
D38*
%TO.C,C34*%
X122537500Y-39500000D03*
X120462500Y-39500000D03*
%TD*%
D33*
%TO.C,C21*%
X79970000Y-51537500D03*
X79970000Y-49462500D03*
%TD*%
D18*
%TO.C,C32*%
X116462500Y-38000000D03*
X118537500Y-38000000D03*
%TD*%
D64*
%TO.C,U14*%
X124650000Y-20670000D03*
D65*
X121250000Y-37330000D03*
D66*
X122950000Y-37330000D03*
X124650000Y-37330000D03*
X126350000Y-37330000D03*
X128050000Y-37330000D03*
%TD*%
M02*
