M48
; DRILL file {KiCad (5.99.0-9568-gb9d26a55f2)} date 03/23/21 11:57:43
; FORMAT={-:-/ absolute / metric / decimal}
; #@! TF.CreationDate,2021-03-23T11:57:43+01:00
; #@! TF.GenerationSoftware,Kicad,Pcbnew,(5.99.0-9568-gb9d26a55f2)
FMAT,2
METRIC
T1C0.400
T2C0.500
T3C0.750
T4C0.800
T5C0.900
T6C1.000
T7C1.100
T8C1.300
T9C1.520
T10C3.200
T11C3.500
%
G90
G05
T1
X70.0Y-39.0
X70.019Y-29.461
X71.5Y-44.0
X71.5Y-46.5
X71.5Y-54.0
X72.0Y-29.5
X72.0Y-50.0
X72.5Y-78.0
X73.65Y-32.325
X74.5Y-48.0
X74.921Y-53.549
X75.0Y-68.5
X75.15Y-23.05
X75.65Y-30.05
X76.0Y-68.0
X76.112Y-22.012
X76.482Y-52.988
X76.65Y-20.55
X77.0Y-71.0
X77.0Y-76.0
X77.5Y-59.0
X79.15Y-21.55
X79.15Y-22.55
X80.15Y-30.825
X80.5Y-37.5
X81.0Y-73.75
X81.15Y-30.05
X81.65Y-24.55
X83.5Y-71.0
X86.0Y-61.5
X86.0Y-74.5
X87.0Y-86.5
X87.5Y-61.0
X88.15Y-21.05
X88.5Y-69.0
X90.0Y-61.0
X90.405Y-62.905
X91.5Y-61.0
X91.5Y-80.5
X92.0Y-73.5
X92.0Y-75.5
X92.0Y-86.5
X95.5Y-44.5
X96.0Y-17.5
X96.0Y-42.5
X96.0Y-48.0
X96.0Y-65.869
X96.0Y-71.0
X96.987Y-65.513
X97.0Y-45.5
X97.0Y-68.5
X97.5Y-86.5
X98.0Y-68.0
X98.5Y-47.5
X99.5Y-80.5
X100.513Y-67.013
X100.65Y-19.05
X101.15Y-52.05
X101.5Y-86.0
X102.65Y-50.55
X103.729Y-57.275
X104.5Y-73.5
X104.5Y-79.5
X105.0Y-55.0
X106.0Y-86.5
X106.65Y-52.05
X107.5Y-38.0
X108.487Y-79.487
X108.5Y-74.0
X109.0Y-42.5
X109.0Y-47.5
X109.0Y-66.725
X110.0Y-66.0
X110.0Y-73.5
X110.0Y-80.5
X110.5Y-67.0
X110.5Y-70.5
X111.0Y-72.0
X111.0Y-86.0
X111.137Y-40.537
X112.15Y-53.05
X112.191Y-48.225
X112.637Y-56.063
X112.65Y-55.05
X113.0Y-47.5
X113.163Y-38.775
X113.959Y-48.5
X114.5Y-83.5
X115.5Y-73.5
X115.5Y-79.5
X116.65Y-47.55
X117.5Y-57.5
X117.65Y-45.525
X118.5Y-39.5
X118.5Y-80.5
X118.5Y-95.0
X118.65Y-42.55
X119.0Y-62.987
X119.0Y-67.5
X119.275Y-64.725
X119.5Y-60.0
X119.5Y-73.5
X119.5Y-79.5
X120.013Y-65.5
X120.5Y-67.0
X121.0Y-80.0
X121.5Y-64.5
X121.5Y-66.0
X121.625Y-69.15
X121.742Y-67.05
X122.0Y-54.0
X122.0Y-60.5
X122.0Y-61.5
X122.5Y-52.0
X122.513Y-53.013
X123.402Y-54.064
X123.5Y-69.0
X128.5Y-57.0
X129.0Y-52.5
X130.5Y-57.0
X135.077Y-59.177
X139.0Y-44.5
X139.919Y-45.919
X140.987Y-45.487
X141.5Y-35.0
X141.5Y-49.095
X143.0Y-19.0
X143.0Y-26.0
X143.488Y-46.488
X143.5Y-21.0
X143.5Y-56.0
X143.5Y-93.5
X143.5Y-94.5
X143.5Y-95.5
X143.5Y-96.5
X143.5Y-97.5
X144.0Y-42.0
X144.5Y-46.5
X144.5Y-64.5
X144.5Y-93.5
X144.5Y-94.5
X144.5Y-95.5
X144.5Y-96.5
X144.5Y-97.5
X145.5Y-93.5
X145.5Y-94.5
X145.5Y-95.5
X145.5Y-96.5
X145.5Y-97.5
X146.0Y-39.5
X146.5Y-93.5
X146.5Y-94.5
X146.5Y-95.5
X146.5Y-96.5
X146.5Y-97.5
X147.5Y-93.5
X147.5Y-94.5
X147.5Y-95.5
X147.5Y-96.5
X147.5Y-97.5
X148.0Y-29.5
X148.0Y-34.5
X148.5Y-35.933
X148.5Y-59.5
X148.5Y-93.5
X148.5Y-94.5
X148.5Y-95.5
X148.5Y-96.5
X148.5Y-97.5
X149.0Y-42.0
X149.068Y-44.568
X149.5Y-41.0
X149.5Y-93.5
X149.5Y-94.5
X149.5Y-95.5
X149.5Y-96.5
X149.5Y-97.5
X149.675Y-53.11
X150.0Y-37.0
X150.5Y-41.5
X150.5Y-47.0
X150.5Y-93.5
X150.5Y-94.5
X150.5Y-95.5
X150.5Y-96.5
X150.5Y-97.5
X151.475Y-29.0
X151.489Y-35.247
X151.5Y-41.0
X151.5Y-93.5
X151.5Y-94.5
X151.5Y-95.5
X151.5Y-96.5
X151.5Y-97.5
X151.971Y-37.5
X152.5Y-53.0
X153.0Y-37.0
X153.732Y-35.207
X153.825Y-37.825
X154.0Y-34.0
X154.0Y-57.5
X154.0Y-57.5
X154.275Y-41.013
X154.5Y-51.0
X155.0Y-42.0
X155.0Y-56.65
X155.5Y-30.5
X155.5Y-51.5
X156.0Y-56.5
X156.5Y-37.537
X157.0Y-45.0
X157.5Y-19.5
X158.0Y-37.0
X158.343Y-38.9
X159.5Y-39.5
X159.5Y-41.5
X160.5Y-17.5
X161.0Y-20.0
X161.5Y-30.0
X162.5Y-62.0
X163.5Y-30.0
X164.5Y-52.0
X166.0Y-33.5
X167.0Y-26.0
T2
X157.25Y-110.5
X157.953Y-108.803
X157.953Y-112.197
X159.65Y-108.1
X159.65Y-112.9
X161.347Y-108.803
X161.347Y-112.197
X162.05Y-110.5
X167.25Y-110.5
X167.953Y-108.803
X167.953Y-112.197
X169.65Y-108.1
X169.65Y-112.9
X171.347Y-108.803
X171.347Y-112.197
X172.05Y-110.5
T3
X81.373Y-41.73
X81.373Y-43.0
X81.373Y-44.27
X84.96Y-40.0
X86.23Y-40.0
X87.5Y-40.0
X140.127Y-18.73
X140.127Y-20.0
X140.127Y-21.27
X141.022Y-66.78
X141.022Y-68.05
X141.022Y-69.32
X144.73Y-19.177
X146.0Y-19.177
X147.27Y-19.177
T4
X65.0Y-29.5
X67.5Y-36.0
X69.0Y-25.5
X70.0Y-39.0
X73.5Y-25.5
X91.5Y-36.0
X91.5Y-49.0
X104.0Y-46.0
X121.5Y-58.5
X127.075Y-58.0
T5
X168.65Y-19.01
X168.65Y-21.55
X168.65Y-26.01
X168.65Y-28.55
X168.65Y-32.313
X168.65Y-34.472
X168.65Y-36.631
X168.65Y-38.79
X168.65Y-54.01
X168.65Y-56.55
X168.65Y-61.01
X168.65Y-63.55
T6
X57.96Y-64.64
X57.96Y-67.18
X57.96Y-69.72
X57.96Y-72.26
X57.96Y-74.8
X57.96Y-77.34
X57.96Y-79.88
X57.96Y-82.42
X57.96Y-84.96
X57.96Y-87.5
X57.96Y-90.04
X57.96Y-92.58
X57.96Y-95.12
X57.96Y-97.66
X57.96Y-100.2
X57.96Y-102.74
X57.96Y-105.28
X57.96Y-107.82
X57.96Y-110.36
X57.96Y-112.9
X60.5Y-64.64
X60.5Y-67.18
X60.5Y-69.72
X60.5Y-72.26
X60.5Y-74.8
X60.5Y-77.34
X60.5Y-79.88
X60.5Y-82.42
X60.5Y-84.96
X60.5Y-87.5
X60.5Y-90.04
X60.5Y-92.58
X60.5Y-95.12
X60.5Y-97.66
X60.5Y-100.2
X60.5Y-102.74
X60.5Y-105.28
X60.5Y-107.82
X60.5Y-110.36
X60.5Y-112.9
X77.15Y-26.05
X80.307Y-54.5
X152.96Y-59.975
X153.975Y-17.42
X153.975Y-19.96
X153.975Y-22.5
X155.5Y-59.975
X158.04Y-59.975
X160.58Y-59.975
X162.0Y-43.5
X162.0Y-46.5
X162.0Y-49.5
X164.54Y-43.5
X164.54Y-46.5
X164.54Y-49.5
X167.08Y-43.5
X167.08Y-46.5
X167.08Y-49.5
T7
X121.25Y-37.33
X122.95Y-37.33
X124.65Y-37.33
X126.35Y-37.33
X128.05Y-37.33
T8
X72.5Y-97.4
X78.5Y-95.4
X84.5Y-97.4
X84.5Y-109.6
X90.0Y-97.4
X96.0Y-95.4
X102.0Y-97.4
X102.0Y-109.6
X107.5Y-97.4
X113.5Y-95.4
X119.5Y-97.4
X119.5Y-109.6
X125.0Y-97.4
X131.0Y-95.4
X137.0Y-97.4
X137.0Y-109.6
T9
X60.0Y-53.46
X60.0Y-58.54
T10
X159.65Y-110.5
X169.65Y-110.5
T11
X124.65Y-20.67
T0
M30
