%TF.GenerationSoftware,KiCad,Pcbnew,(5.99.0-9568-gb9d26a55f2)*%
%TF.CreationDate,2021-03-23T11:57:40+01:00*%
%TF.ProjectId,PowerBoard 1,506f7765-7242-46f6-9172-6420312e6b69,rev?*%
%TF.SameCoordinates,Original*%
%TF.FileFunction,Copper,L1,Top*%
%TF.FilePolarity,Positive*%
%FSLAX46Y46*%
G04 Gerber Fmt 4.6, Leading zero omitted, Abs format (unit mm)*
G04 Created by KiCad (PCBNEW (5.99.0-9568-gb9d26a55f2)) date 2021-03-23 11:57:40*
%MOMM*%
%LPD*%
G01*
G04 APERTURE LIST*
G04 Aperture macros list*
%AMRoundRect*
0 Rectangle with rounded corners*
0 $1 Rounding radius*
0 $2 $3 $4 $5 $6 $7 $8 $9 X,Y pos of 4 corners*
0 Add a 4 corners polygon primitive as box body*
4,1,4,$2,$3,$4,$5,$6,$7,$8,$9,$2,$3,0*
0 Add four circle primitives for the rounded corners*
1,1,$1+$1,$2,$3*
1,1,$1+$1,$4,$5*
1,1,$1+$1,$6,$7*
1,1,$1+$1,$8,$9*
0 Add four rect primitives between the rounded corners*
20,1,$1+$1,$2,$3,$4,$5,0*
20,1,$1+$1,$4,$5,$6,$7,0*
20,1,$1+$1,$6,$7,$8,$9,0*
20,1,$1+$1,$8,$9,$2,$3,0*%
G04 Aperture macros list end*
%TA.AperFunction,ComponentPad*%
%ADD10C,0.800000*%
%TD*%
%TA.AperFunction,ComponentPad*%
%ADD11C,6.400000*%
%TD*%
%TA.AperFunction,SMDPad,CuDef*%
%ADD12RoundRect,0.250000X-0.350000X-0.450000X0.350000X-0.450000X0.350000X0.450000X-0.350000X0.450000X0*%
%TD*%
%TA.AperFunction,SMDPad,CuDef*%
%ADD13RoundRect,0.250000X-0.450000X0.350000X-0.450000X-0.350000X0.450000X-0.350000X0.450000X0.350000X0*%
%TD*%
%TA.AperFunction,SMDPad,CuDef*%
%ADD14RoundRect,0.250000X0.350000X0.450000X-0.350000X0.450000X-0.350000X-0.450000X0.350000X-0.450000X0*%
%TD*%
%TA.AperFunction,SMDPad,CuDef*%
%ADD15RoundRect,0.250000X-0.475000X0.337500X-0.475000X-0.337500X0.475000X-0.337500X0.475000X0.337500X0*%
%TD*%
%TA.AperFunction,SMDPad,CuDef*%
%ADD16RoundRect,0.150000X-0.825000X-0.150000X0.825000X-0.150000X0.825000X0.150000X-0.825000X0.150000X0*%
%TD*%
%TA.AperFunction,SMDPad,CuDef*%
%ADD17R,0.900000X0.800000*%
%TD*%
%TA.AperFunction,SMDPad,CuDef*%
%ADD18RoundRect,0.250000X0.450000X-0.350000X0.450000X0.350000X-0.450000X0.350000X-0.450000X-0.350000X0*%
%TD*%
%TA.AperFunction,SMDPad,CuDef*%
%ADD19RoundRect,0.250000X0.550000X-1.412500X0.550000X1.412500X-0.550000X1.412500X-0.550000X-1.412500X0*%
%TD*%
%TA.AperFunction,SMDPad,CuDef*%
%ADD20RoundRect,0.250000X-0.337500X-0.475000X0.337500X-0.475000X0.337500X0.475000X-0.337500X0.475000X0*%
%TD*%
%TA.AperFunction,SMDPad,CuDef*%
%ADD21R,0.800000X0.900000*%
%TD*%
%TA.AperFunction,SMDPad,CuDef*%
%ADD22RoundRect,0.250000X-0.550000X1.412500X-0.550000X-1.412500X0.550000X-1.412500X0.550000X1.412500X0*%
%TD*%
%TA.AperFunction,SMDPad,CuDef*%
%ADD23RoundRect,0.237500X-0.300000X-0.237500X0.300000X-0.237500X0.300000X0.237500X-0.300000X0.237500X0*%
%TD*%
%TA.AperFunction,ComponentPad*%
%ADD24R,1.700000X1.700000*%
%TD*%
%TA.AperFunction,ComponentPad*%
%ADD25O,1.700000X1.700000*%
%TD*%
%TA.AperFunction,SMDPad,CuDef*%
%ADD26RoundRect,0.125000X-0.125000X0.625000X-0.125000X-0.625000X0.125000X-0.625000X0.125000X0.625000X0*%
%TD*%
%TA.AperFunction,SMDPad,CuDef*%
%ADD27RoundRect,0.125000X-0.625000X0.125000X-0.625000X-0.125000X0.625000X-0.125000X0.625000X0.125000X0*%
%TD*%
%TA.AperFunction,ComponentPad*%
%ADD28C,2.500000*%
%TD*%
%TA.AperFunction,ComponentPad*%
%ADD29R,1.800000X1.800000*%
%TD*%
%TA.AperFunction,ComponentPad*%
%ADD30C,1.800000*%
%TD*%
%TA.AperFunction,SMDPad,CuDef*%
%ADD31RoundRect,0.250001X1.999999X0.799999X-1.999999X0.799999X-1.999999X-0.799999X1.999999X-0.799999X0*%
%TD*%
%TA.AperFunction,SMDPad,CuDef*%
%ADD32R,10.000000X5.000000*%
%TD*%
%TA.AperFunction,ComponentPad*%
%ADD33R,1.500000X1.050000*%
%TD*%
%TA.AperFunction,ComponentPad*%
%ADD34O,1.500000X1.050000*%
%TD*%
%TA.AperFunction,SMDPad,CuDef*%
%ADD35RoundRect,0.250000X0.475000X-0.337500X0.475000X0.337500X-0.475000X0.337500X-0.475000X-0.337500X0*%
%TD*%
%TA.AperFunction,SMDPad,CuDef*%
%ADD36R,3.500000X1.800000*%
%TD*%
%TA.AperFunction,SMDPad,CuDef*%
%ADD37RoundRect,0.250001X-1.999999X-0.799999X1.999999X-0.799999X1.999999X0.799999X-1.999999X0.799999X0*%
%TD*%
%TA.AperFunction,SMDPad,CuDef*%
%ADD38RoundRect,0.100000X-0.712500X-0.100000X0.712500X-0.100000X0.712500X0.100000X-0.712500X0.100000X0*%
%TD*%
%TA.AperFunction,SMDPad,CuDef*%
%ADD39RoundRect,0.150000X0.662500X0.150000X-0.662500X0.150000X-0.662500X-0.150000X0.662500X-0.150000X0*%
%TD*%
%TA.AperFunction,SMDPad,CuDef*%
%ADD40RoundRect,0.250000X-0.650000X0.412500X-0.650000X-0.412500X0.650000X-0.412500X0.650000X0.412500X0*%
%TD*%
%TA.AperFunction,SMDPad,CuDef*%
%ADD41RoundRect,0.250000X0.337500X0.475000X-0.337500X0.475000X-0.337500X-0.475000X0.337500X-0.475000X0*%
%TD*%
%TA.AperFunction,SMDPad,CuDef*%
%ADD42R,1.500000X2.200000*%
%TD*%
%TA.AperFunction,SMDPad,CuDef*%
%ADD43RoundRect,0.249999X0.737501X2.450001X-0.737501X2.450001X-0.737501X-2.450001X0.737501X-2.450001X0*%
%TD*%
%TA.AperFunction,SMDPad,CuDef*%
%ADD44RoundRect,0.249999X-2.450001X0.737501X-2.450001X-0.737501X2.450001X-0.737501X2.450001X0.737501X0*%
%TD*%
%TA.AperFunction,SMDPad,CuDef*%
%ADD45R,2.200000X1.200000*%
%TD*%
%TA.AperFunction,SMDPad,CuDef*%
%ADD46R,6.400000X5.800000*%
%TD*%
%TA.AperFunction,SMDPad,CuDef*%
%ADD47R,2.800000X1.000000*%
%TD*%
%TA.AperFunction,SMDPad,CuDef*%
%ADD48RoundRect,0.100000X0.637500X0.100000X-0.637500X0.100000X-0.637500X-0.100000X0.637500X-0.100000X0*%
%TD*%
%TA.AperFunction,SMDPad,CuDef*%
%ADD49R,2.000000X7.875000*%
%TD*%
%TA.AperFunction,SMDPad,CuDef*%
%ADD50RoundRect,0.250000X1.450000X-0.400000X1.450000X0.400000X-1.450000X0.400000X-1.450000X-0.400000X0*%
%TD*%
%TA.AperFunction,SMDPad,CuDef*%
%ADD51RoundRect,0.250001X-0.462499X-0.624999X0.462499X-0.624999X0.462499X0.624999X-0.462499X0.624999X0*%
%TD*%
%TA.AperFunction,SMDPad,CuDef*%
%ADD52RoundRect,0.075000X-0.075000X0.662500X-0.075000X-0.662500X0.075000X-0.662500X0.075000X0.662500X0*%
%TD*%
%TA.AperFunction,SMDPad,CuDef*%
%ADD53R,1.980000X1.730000*%
%TD*%
%TA.AperFunction,ComponentPad*%
%ADD54C,2.000000*%
%TD*%
%TA.AperFunction,SMDPad,CuDef*%
%ADD55RoundRect,0.250000X-0.400000X-1.450000X0.400000X-1.450000X0.400000X1.450000X-0.400000X1.450000X0*%
%TD*%
%TA.AperFunction,SMDPad,CuDef*%
%ADD56R,1.350000X3.400000*%
%TD*%
%TA.AperFunction,ComponentPad*%
%ADD57R,1.050000X1.500000*%
%TD*%
%TA.AperFunction,ComponentPad*%
%ADD58O,1.050000X1.500000*%
%TD*%
%TA.AperFunction,SMDPad,CuDef*%
%ADD59R,1.200000X2.200000*%
%TD*%
%TA.AperFunction,SMDPad,CuDef*%
%ADD60R,5.800000X6.400000*%
%TD*%
%TA.AperFunction,SMDPad,CuDef*%
%ADD61RoundRect,0.075000X0.662500X0.075000X-0.662500X0.075000X-0.662500X-0.075000X0.662500X-0.075000X0*%
%TD*%
%TA.AperFunction,SMDPad,CuDef*%
%ADD62R,1.730000X1.980000*%
%TD*%
%TA.AperFunction,ComponentPad*%
%ADD63R,3.000000X3.000000*%
%TD*%
%TA.AperFunction,ComponentPad*%
%ADD64C,3.000000*%
%TD*%
%TA.AperFunction,SMDPad,CuDef*%
%ADD65RoundRect,0.150000X-0.662500X-0.150000X0.662500X-0.150000X0.662500X0.150000X-0.662500X0.150000X0*%
%TD*%
%TA.AperFunction,ComponentPad*%
%ADD66R,1.275000X1.800000*%
%TD*%
%TA.AperFunction,ComponentPad*%
%ADD67O,1.275000X1.800000*%
%TD*%
%TA.AperFunction,ViaPad*%
%ADD68C,0.800000*%
%TD*%
%TA.AperFunction,ViaPad*%
%ADD69C,1.200000*%
%TD*%
%TA.AperFunction,Conductor*%
%ADD70C,0.250000*%
%TD*%
%TA.AperFunction,Conductor*%
%ADD71C,1.000000*%
%TD*%
%TA.AperFunction,Conductor*%
%ADD72C,5.000000*%
%TD*%
%TA.AperFunction,Conductor*%
%ADD73C,0.300000*%
%TD*%
%TA.AperFunction,Conductor*%
%ADD74C,0.500000*%
%TD*%
%TA.AperFunction,Conductor*%
%ADD75C,2.000000*%
%TD*%
G04 APERTURE END LIST*
D10*
%TO.P,REF\u002A\u002A,1*%
%TO.N,N/C*%
X161347056Y-108802944D03*
X159650000Y-108100000D03*
X157952944Y-108802944D03*
X157250000Y-110500000D03*
X157952944Y-112197056D03*
X159650000Y-112900000D03*
X161347056Y-112197056D03*
X162050000Y-110500000D03*
D11*
X159650000Y-110500000D03*
%TD*%
D10*
%TO.P,REF\u002A\u002A,1*%
%TO.N,N/C*%
X171347056Y-108802944D03*
X169650000Y-108100000D03*
X167952944Y-108802944D03*
X167250000Y-110500000D03*
X167952944Y-112197056D03*
X169650000Y-112900000D03*
X171347056Y-112197056D03*
X172050000Y-110500000D03*
D11*
X169650000Y-110500000D03*
%TD*%
D12*
%TO.P,R40,1*%
%TO.N,V+*%
X109650000Y-33050000D03*
%TO.P,R40,2*%
%TO.N,Net-(F1-Pad1)*%
X111650000Y-33050000D03*
%TD*%
D13*
%TO.P,R66,1*%
%TO.N,GND*%
X150150000Y-63550000D03*
%TO.P,R66,2*%
%TO.N,Vout_ADC*%
X150150000Y-65550000D03*
%TD*%
D12*
%TO.P,R23,1*%
%TO.N,Net-(R22-Pad2)*%
X84500000Y-44000000D03*
%TO.P,R23,2*%
%TO.N,Temp_2*%
X86500000Y-44000000D03*
%TD*%
D14*
%TO.P,R48,1*%
%TO.N,Net-(D10-Pad1)*%
X120500000Y-82000000D03*
%TO.P,R48,2*%
%TO.N,Vin*%
X118500000Y-82000000D03*
%TD*%
D15*
%TO.P,C18,1*%
%TO.N,Vin*%
X73650000Y-22012500D03*
%TO.P,C18,2*%
%TO.N,GND*%
X73650000Y-24087500D03*
%TD*%
D16*
%TO.P,U1,1,VCC1*%
%TO.N,Galv_Vcc*%
X82000000Y-65000000D03*
%TO.P,U1,2,SDA1*%
%TO.N,Galv_SDA*%
X82000000Y-66270000D03*
%TO.P,U1,3,SCL1*%
%TO.N,Galv_SCL*%
X82000000Y-67540000D03*
%TO.P,U1,4,GND1*%
%TO.N,Galv_GND*%
X82000000Y-68810000D03*
%TO.P,U1,5,GND2*%
%TO.N,GND*%
X86950000Y-68810000D03*
%TO.P,U1,6,SCL2*%
%TO.N,SCL*%
X86950000Y-67540000D03*
%TO.P,U1,7,SDA2*%
%TO.N,SDA*%
X86950000Y-66270000D03*
%TO.P,U1,8,VCC2*%
%TO.N,+3V3*%
X86950000Y-65000000D03*
%TD*%
D17*
%TO.P,Q5,1,E*%
%TO.N,GND*%
X115500000Y-72450000D03*
%TO.P,Q5,2,B*%
%TO.N,Net-(Q5-Pad2)*%
X115500000Y-70550000D03*
%TO.P,Q5,3,C*%
%TO.N,Net-(D12-Pad2)*%
X113500000Y-71500000D03*
%TD*%
D14*
%TO.P,R46,1*%
%TO.N,Net-(R46-Pad1)*%
X116650000Y-41550000D03*
%TO.P,R46,2*%
%TO.N,Net-(R46-Pad2)*%
X114650000Y-41550000D03*
%TD*%
D17*
%TO.P,Q3,1,E*%
%TO.N,GND*%
X115500000Y-78450000D03*
%TO.P,Q3,2,B*%
%TO.N,Net-(Q3-Pad2)*%
X115500000Y-76550000D03*
%TO.P,Q3,3,C*%
%TO.N,Net-(D10-Pad2)*%
X113500000Y-77500000D03*
%TD*%
D14*
%TO.P,R72,1*%
%TO.N,V+*%
X121150000Y-51500000D03*
%TO.P,R72,2*%
%TO.N,Net-(R47-Pad2)*%
X119150000Y-51500000D03*
%TD*%
D18*
%TO.P,R56,1*%
%TO.N,Net-(R56-Pad1)*%
X144000000Y-68050000D03*
%TO.P,R56,2*%
%TO.N,GND*%
X144000000Y-66050000D03*
%TD*%
D19*
%TO.P,C4,1*%
%TO.N,Vin*%
X70000000Y-46537500D03*
%TO.P,C4,2*%
%TO.N,GND*%
X70000000Y-41462500D03*
%TD*%
D18*
%TO.P,R8,1*%
%TO.N,Net-(C21-Pad1)*%
X81977936Y-51500000D03*
%TO.P,R8,2*%
%TO.N,GND*%
X81977936Y-49500000D03*
%TD*%
%TO.P,R18,1*%
%TO.N,Vout*%
X71650000Y-36050000D03*
%TO.P,R18,2*%
%TO.N,Net-(Q1-Pad2)*%
X71650000Y-34050000D03*
%TD*%
D20*
%TO.P,C22,1*%
%TO.N,Net-(C22-Pad1)*%
X76612500Y-19050000D03*
%TO.P,C22,2*%
%TO.N,Net-(C22-Pad2)*%
X78687500Y-19050000D03*
%TD*%
D21*
%TO.P,Q8,1,B*%
%TO.N,Net-(Q8-Pad1)*%
X78050000Y-73750000D03*
%TO.P,Q8,2,E*%
%TO.N,Galv_Vcc*%
X79950000Y-73750000D03*
%TO.P,Q8,3,C*%
%TO.N,Net-(Q8-Pad3)*%
X79000000Y-71750000D03*
%TD*%
D22*
%TO.P,C27,1*%
%TO.N,V+*%
X106150000Y-40550000D03*
%TO.P,C27,2*%
%TO.N,GND*%
X106150000Y-45625000D03*
%TD*%
D12*
%TO.P,R37,1*%
%TO.N,V+*%
X109650000Y-27050000D03*
%TO.P,R37,2*%
%TO.N,Net-(F1-Pad1)*%
X111650000Y-27050000D03*
%TD*%
D23*
%TO.P,C20,1*%
%TO.N,Net-(C20-Pad1)*%
X82607500Y-57500000D03*
%TO.P,C20,2*%
%TO.N,Net-(C20-Pad2)*%
X84332500Y-57500000D03*
%TD*%
D13*
%TO.P,R71,1*%
%TO.N,Relay4*%
X117500000Y-70500000D03*
%TO.P,R71,2*%
%TO.N,Net-(Q5-Pad2)*%
X117500000Y-72500000D03*
%TD*%
D18*
%TO.P,R54,1*%
%TO.N,GND*%
X108500000Y-78500000D03*
%TO.P,R54,2*%
%TO.N,Relay3*%
X108500000Y-76500000D03*
%TD*%
D24*
%TO.P,J1,1,Pin_1*%
%TO.N,GND*%
X162000000Y-49500000D03*
D25*
%TO.P,J1,2,Pin_2*%
%TO.N,Net-(J1-Pad2)*%
X164540000Y-49500000D03*
%TO.P,J1,3,Pin_3*%
%TO.N,+3V3*%
X167080000Y-49500000D03*
%TD*%
D26*
%TO.P,U4,1,VDD*%
%TO.N,+3V3*%
X153800000Y-30825000D03*
%TO.P,U4,2,PF0*%
%TO.N,Crystal_IN*%
X153000000Y-30825000D03*
%TO.P,U4,3,PF1*%
%TO.N,Crystal_OUT*%
X152200000Y-30825000D03*
%TO.P,U4,4,NRST*%
%TO.N,NRST*%
X151400000Y-30825000D03*
%TO.P,U4,5,VDDA*%
%TO.N,REF-3V*%
X150600000Y-30825000D03*
%TO.P,U4,6,PA0*%
%TO.N,Vout_ADC*%
X149800000Y-30825000D03*
%TO.P,U4,7,PA1*%
%TO.N,Iout_ADC*%
X149000000Y-30825000D03*
%TO.P,U4,8,PA2*%
%TO.N,Temp_1*%
X148200000Y-30825000D03*
D27*
%TO.P,U4,9,PA3*%
%TO.N,Temp_2*%
X146825000Y-32200000D03*
%TO.P,U4,10,PA4*%
%TO.N,Interrupt*%
X146825000Y-33000000D03*
%TO.P,U4,11,PA5*%
%TO.N,Vout_DAC*%
X146825000Y-33800000D03*
%TO.P,U4,12,PA6*%
%TO.N,Iout_DAC*%
X146825000Y-34600000D03*
%TO.P,U4,13,PA7*%
%TO.N,Relay1*%
X146825000Y-35400000D03*
%TO.P,U4,14,PB0*%
%TO.N,ADDR1*%
X146825000Y-36200000D03*
%TO.P,U4,15,PB1*%
%TO.N,ADDR2*%
X146825000Y-37000000D03*
%TO.P,U4,16,VSS*%
%TO.N,GND*%
X146825000Y-37800000D03*
D26*
%TO.P,U4,17,VDD*%
%TO.N,+3V3*%
X148200000Y-39175000D03*
%TO.P,U4,18,PA8*%
%TO.N,Relay2*%
X149000000Y-39175000D03*
%TO.P,U4,19,PA9*%
%TO.N,Relay3*%
X149800000Y-39175000D03*
%TO.P,U4,20,PA10*%
%TO.N,Relay4*%
X150600000Y-39175000D03*
%TO.P,U4,21,PA11*%
%TO.N,Enable*%
X151400000Y-39175000D03*
%TO.P,U4,22,PA12*%
%TO.N,EN_Vout*%
X152200000Y-39175000D03*
%TO.P,U4,23,PA13*%
%TO.N,Error*%
X153000000Y-39175000D03*
%TO.P,U4,24,PA14*%
%TO.N,SWCLK*%
X153800000Y-39175000D03*
D27*
%TO.P,U4,25,PA15*%
%TO.N,SCL*%
X155175000Y-37800000D03*
%TO.P,U4,26,PB3*%
%TO.N,ADDR3*%
X155175000Y-37000000D03*
%TO.P,U4,27,PB4*%
%TO.N,RGB_R*%
X155175000Y-36200000D03*
%TO.P,U4,28,PB5*%
%TO.N,RGB_G*%
X155175000Y-35400000D03*
%TO.P,U4,29,PB6*%
%TO.N,RGB_B*%
X155175000Y-34600000D03*
%TO.P,U4,30,PB7*%
%TO.N,SDA*%
X155175000Y-33800000D03*
%TO.P,U4,31,BOOT0*%
%TO.N,Boot0*%
X155175000Y-33000000D03*
%TO.P,U4,32,VSS*%
%TO.N,GND*%
X155175000Y-32200000D03*
%TD*%
D14*
%TO.P,R29,1*%
%TO.N,Net-(D2-Pad2)*%
X164500000Y-36500000D03*
%TO.P,R29,2*%
%TO.N,RGB_G*%
X162500000Y-36500000D03*
%TD*%
D28*
%TO.P,RL4,1,L1*%
%TO.N,Net-(D12-Pad1)*%
X119500000Y-97400000D03*
%TO.P,RL4,2,L2*%
%TO.N,Net-(D12-Pad2)*%
X107500000Y-97400000D03*
%TO.P,RL4,3,R2*%
%TO.N,Net-(F4-Pad1)*%
X113500000Y-95400000D03*
%TO.P,RL4,4,R1*%
%TO.N,Virt-Bus2*%
X119500000Y-109600000D03*
%TD*%
D14*
%TO.P,R43,1*%
%TO.N,Interrupt*%
X99000000Y-74500000D03*
%TO.P,R43,2*%
%TO.N,Net-(R43-Pad2)*%
X97000000Y-74500000D03*
%TD*%
%TO.P,R15,1*%
%TO.N,+3V3*%
X164500000Y-32500000D03*
%TO.P,R15,2*%
%TO.N,SDA*%
X162500000Y-32500000D03*
%TD*%
%TO.P,R28,1*%
%TO.N,Net-(D2-Pad1)*%
X164500000Y-38500000D03*
%TO.P,R28,2*%
%TO.N,RGB_R*%
X162500000Y-38500000D03*
%TD*%
D13*
%TO.P,R45,1*%
%TO.N,Relay2*%
X117500000Y-76500000D03*
%TO.P,R45,2*%
%TO.N,Net-(Q3-Pad2)*%
X117500000Y-78500000D03*
%TD*%
D12*
%TO.P,R39,1*%
%TO.N,V+*%
X109650000Y-31050000D03*
%TO.P,R39,2*%
%TO.N,Net-(F1-Pad1)*%
X111650000Y-31050000D03*
%TD*%
D29*
%TO.P,D5,1,K*%
%TO.N,Net-(D5-Pad1)*%
X168650000Y-28550000D03*
D30*
%TO.P,D5,2,A*%
%TO.N,Error*%
X168650000Y-26010000D03*
%TD*%
D12*
%TO.P,R68,1*%
%TO.N,CL_PD*%
X102000000Y-49050000D03*
%TO.P,R68,2*%
%TO.N,Vref_LDO*%
X104000000Y-49050000D03*
%TD*%
D31*
%TO.P,C30,1*%
%TO.N,V+*%
X102250000Y-35550000D03*
%TO.P,C30,2*%
%TO.N,GND*%
X95050000Y-35550000D03*
%TD*%
D32*
%TO.P,J8,1,Pin_1*%
%TO.N,GND*%
X147650000Y-95550000D03*
%TD*%
D13*
%TO.P,R17,1*%
%TO.N,V+*%
X80150000Y-25050000D03*
%TO.P,R17,2*%
%TO.N,Net-(Q1-Pad3)*%
X80150000Y-27050000D03*
%TD*%
D14*
%TO.P,R1,1*%
%TO.N,EN_Vout*%
X103650000Y-17550000D03*
%TO.P,R1,2*%
%TO.N,Net-(C11-Pad1)*%
X101650000Y-17550000D03*
%TD*%
D33*
%TO.P,U8,1,V-*%
%TO.N,GND*%
X140127500Y-18730000D03*
D34*
%TO.P,U8,2,V+*%
%TO.N,Net-(U7-Pad3)*%
X140127500Y-20000000D03*
%TO.P,U8,3,ADJ*%
%TO.N,Net-(R19-Pad2)*%
X140127500Y-21270000D03*
%TD*%
D17*
%TO.P,Q4,1,E*%
%TO.N,GND*%
X104500000Y-78450000D03*
%TO.P,Q4,2,B*%
%TO.N,Net-(Q4-Pad2)*%
X104500000Y-76550000D03*
%TO.P,Q4,3,C*%
%TO.N,Net-(D11-Pad2)*%
X102500000Y-77500000D03*
%TD*%
D29*
%TO.P,D6,1,K*%
%TO.N,CCLed*%
X168650000Y-56550000D03*
D30*
%TO.P,D6,2,A*%
%TO.N,+3V3*%
X168650000Y-54010000D03*
%TD*%
D12*
%TO.P,R38,1*%
%TO.N,V+*%
X109650000Y-29050000D03*
%TO.P,R38,2*%
%TO.N,Net-(F1-Pad1)*%
X111650000Y-29050000D03*
%TD*%
D14*
%TO.P,R6,1*%
%TO.N,Net-(C17-Pad1)*%
X77650000Y-32050000D03*
%TO.P,R6,2*%
%TO.N,Net-(C14-Pad1)*%
X75650000Y-32050000D03*
%TD*%
D20*
%TO.P,C12,1*%
%TO.N,NRST*%
X162462500Y-24500000D03*
%TO.P,C12,2*%
%TO.N,GND*%
X164537500Y-24500000D03*
%TD*%
D12*
%TO.P,R26,1*%
%TO.N,GND*%
X162500000Y-63500000D03*
%TO.P,R26,2*%
%TO.N,Net-(D4-Pad1)*%
X164500000Y-63500000D03*
%TD*%
D35*
%TO.P,C9,1*%
%TO.N,Net-(C9-Pad1)*%
X73970000Y-51537500D03*
%TO.P,C9,2*%
%TO.N,GND*%
X73970000Y-49462500D03*
%TD*%
D36*
%TO.P,D9,1,K*%
%TO.N,Net-(D9-Pad1)*%
X92000000Y-85000000D03*
%TO.P,D9,2,A*%
%TO.N,Net-(D9-Pad2)*%
X87000000Y-85000000D03*
%TD*%
D12*
%TO.P,R3,1*%
%TO.N,ADDR1*%
X157000000Y-50000000D03*
%TO.P,R3,2*%
%TO.N,Net-(J1-Pad2)*%
X159000000Y-50000000D03*
%TD*%
D14*
%TO.P,R47,1*%
%TO.N,V+*%
X121150000Y-49550000D03*
%TO.P,R47,2*%
%TO.N,Net-(R47-Pad2)*%
X119150000Y-49550000D03*
%TD*%
D24*
%TO.P,J3,1,Pin_1*%
%TO.N,GND*%
X162000000Y-43500000D03*
D25*
%TO.P,J3,2,Pin_2*%
%TO.N,Net-(J3-Pad2)*%
X164540000Y-43500000D03*
%TO.P,J3,3,Pin_3*%
%TO.N,+3V3*%
X167080000Y-43500000D03*
%TD*%
D12*
%TO.P,R50,1*%
%TO.N,Galv_Vcc*%
X82500000Y-75750000D03*
%TO.P,R50,2*%
%TO.N,Galv_Interrupt*%
X84500000Y-75750000D03*
%TD*%
D14*
%TO.P,R19,1*%
%TO.N,Net-(R19-Pad1)*%
X146250000Y-23000000D03*
%TO.P,R19,2*%
%TO.N,Net-(R19-Pad2)*%
X144250000Y-23000000D03*
%TD*%
D17*
%TO.P,Q2,1,E*%
%TO.N,GND*%
X104500000Y-72450000D03*
%TO.P,Q2,2,B*%
%TO.N,Net-(Q2-Pad2)*%
X104500000Y-70550000D03*
%TO.P,Q2,3,C*%
%TO.N,Net-(D9-Pad2)*%
X102500000Y-71500000D03*
%TD*%
D29*
%TO.P,D4,1,K*%
%TO.N,Net-(D4-Pad1)*%
X168650000Y-63550000D03*
D30*
%TO.P,D4,2,A*%
%TO.N,EN_Vout*%
X168650000Y-61010000D03*
%TD*%
D37*
%TO.P,C1,1*%
%TO.N,Vin*%
X60500000Y-34000000D03*
%TO.P,C1,2*%
%TO.N,GND*%
X67700000Y-34000000D03*
%TD*%
D14*
%TO.P,R51,1*%
%TO.N,+3V3*%
X99000000Y-72500000D03*
%TO.P,R51,2*%
%TO.N,Enable*%
X97000000Y-72500000D03*
%TD*%
D18*
%TO.P,R2,1*%
%TO.N,Net-(R2-Pad1)*%
X83970000Y-51500000D03*
%TO.P,R2,2*%
%TO.N,GND*%
X83970000Y-49500000D03*
%TD*%
D38*
%TO.P,U2,1,DNC*%
%TO.N,N/C*%
X143887500Y-52525000D03*
%TO.P,U2,2,Vin*%
%TO.N,Vin*%
X143887500Y-53175000D03*
%TO.P,U2,3,~SHDN*%
X143887500Y-53825000D03*
%TO.P,U2,4,GND*%
%TO.N,GND*%
X143887500Y-54475000D03*
%TO.P,U2,5,DNC*%
%TO.N,N/C*%
X148112500Y-54475000D03*
%TO.P,U2,6,OUT*%
%TO.N,REF-3V*%
X148112500Y-53825000D03*
%TO.P,U2,7,DNC*%
%TO.N,N/C*%
X148112500Y-53175000D03*
%TO.P,U2,8,DNC*%
X148112500Y-52525000D03*
%TD*%
D12*
%TO.P,R25,1*%
%TO.N,GND*%
X162500000Y-26500000D03*
%TO.P,R25,2*%
%TO.N,Net-(D3-Pad1)*%
X164500000Y-26500000D03*
%TD*%
D36*
%TO.P,D11,1,K*%
%TO.N,Net-(D11-Pad1)*%
X101500000Y-85000000D03*
%TO.P,D11,2,A*%
%TO.N,Net-(D11-Pad2)*%
X96500000Y-85000000D03*
%TD*%
D39*
%TO.P,U12,1*%
%TO.N,Net-(R43-Pad2)*%
X93687500Y-76885000D03*
%TO.P,U12,2*%
%TO.N,GND*%
X93687500Y-75615000D03*
%TO.P,U12,3*%
%TO.N,Galv_GND*%
X87312500Y-75615000D03*
%TO.P,U12,4*%
%TO.N,Galv_Interrupt*%
X87312500Y-76885000D03*
%TD*%
D12*
%TO.P,R34,1*%
%TO.N,V+*%
X109650000Y-21050000D03*
%TO.P,R34,2*%
%TO.N,Net-(F1-Pad1)*%
X111650000Y-21050000D03*
%TD*%
D40*
%TO.P,C13,1*%
%TO.N,Vin*%
X70650000Y-21987500D03*
%TO.P,C13,2*%
%TO.N,GND*%
X70650000Y-25112500D03*
%TD*%
D18*
%TO.P,R9,1*%
%TO.N,Net-(C21-Pad1)*%
X77970000Y-51500000D03*
%TO.P,R9,2*%
%TO.N,+3V3*%
X77970000Y-49500000D03*
%TD*%
D41*
%TO.P,C31,1*%
%TO.N,+3V3*%
X147537500Y-41500000D03*
%TO.P,C31,2*%
%TO.N,GND*%
X145462500Y-41500000D03*
%TD*%
D12*
%TO.P,R41,1*%
%TO.N,V+*%
X109650000Y-35050000D03*
%TO.P,R41,2*%
%TO.N,Net-(F1-Pad1)*%
X111650000Y-35050000D03*
%TD*%
D28*
%TO.P,RL3,1,L1*%
%TO.N,Net-(D11-Pad1)*%
X102000000Y-97400000D03*
%TO.P,RL3,2,L2*%
%TO.N,Net-(D11-Pad2)*%
X90000000Y-97400000D03*
%TO.P,RL3,3,R2*%
%TO.N,Net-(F4-Pad1)*%
X96000000Y-95400000D03*
%TO.P,RL3,4,R1*%
%TO.N,Virt-Bus1*%
X102000000Y-109600000D03*
%TD*%
D13*
%TO.P,R31,1*%
%TO.N,Relay1*%
X106500000Y-70500000D03*
%TO.P,R31,2*%
%TO.N,Net-(Q2-Pad2)*%
X106500000Y-72500000D03*
%TD*%
D42*
%TO.P,L2,1,1*%
%TO.N,Net-(C22-Pad2)*%
X83450000Y-21000000D03*
%TO.P,L2,2,2*%
%TO.N,V+*%
X89850000Y-21000000D03*
%TD*%
D43*
%TO.P,C23,1*%
%TO.N,+3V3*%
X94115436Y-49000000D03*
%TO.P,C23,2*%
%TO.N,GND*%
X88840436Y-49000000D03*
%TD*%
D14*
%TO.P,R32,1*%
%TO.N,Net-(D9-Pad1)*%
X92000000Y-82000000D03*
%TO.P,R32,2*%
%TO.N,Vin*%
X90000000Y-82000000D03*
%TD*%
D44*
%TO.P,C26,1*%
%TO.N,V+*%
X100650000Y-23362500D03*
%TO.P,C26,2*%
%TO.N,GND*%
X100650000Y-28637500D03*
%TD*%
D45*
%TO.P,D8,1,K*%
%TO.N,Vout*%
X142450000Y-83270000D03*
D46*
%TO.P,D8,2,A*%
%TO.N,GND*%
X148750000Y-85550000D03*
D45*
%TO.P,D8,3*%
%TO.N,N/C*%
X142450000Y-87830000D03*
%TD*%
D17*
%TO.P,Q1,1,S*%
%TO.N,V+*%
X69300000Y-28497500D03*
%TO.P,Q1,2,G*%
%TO.N,Net-(Q1-Pad2)*%
X69300000Y-30397500D03*
%TO.P,Q1,3,D*%
%TO.N,Net-(Q1-Pad3)*%
X71300000Y-29447500D03*
%TD*%
D21*
%TO.P,Q7,1,E*%
%TO.N,GND*%
X163100000Y-52280000D03*
%TO.P,Q7,2,B*%
%TO.N,Net-(Q7-Pad2)*%
X161200000Y-52280000D03*
%TO.P,Q7,3,C*%
%TO.N,CCLed*%
X162150000Y-54280000D03*
%TD*%
D12*
%TO.P,R42,1*%
%TO.N,V+*%
X109650000Y-37050000D03*
%TO.P,R42,2*%
%TO.N,Net-(F1-Pad1)*%
X111650000Y-37050000D03*
%TD*%
D15*
%TO.P,C38,1*%
%TO.N,GND*%
X147650000Y-63550000D03*
%TO.P,C38,2*%
%TO.N,Vout_ADC*%
X147650000Y-65625000D03*
%TD*%
D12*
%TO.P,R49,1*%
%TO.N,GND*%
X115150000Y-49550000D03*
%TO.P,R49,2*%
%TO.N,Net-(R47-Pad2)*%
X117150000Y-49550000D03*
%TD*%
D35*
%TO.P,C6,1*%
%TO.N,GND*%
X140250000Y-33537500D03*
%TO.P,C6,2*%
%TO.N,Crystal_IN*%
X140250000Y-31462500D03*
%TD*%
D14*
%TO.P,R53,1*%
%TO.N,Net-(R52-Pad2)*%
X116150000Y-55050000D03*
%TO.P,R53,2*%
%TO.N,Iout_ADC*%
X114150000Y-55050000D03*
%TD*%
D47*
%TO.P,SW1,1,1*%
%TO.N,NRST*%
X163400000Y-17000000D03*
X157600000Y-17000000D03*
%TO.P,SW1,2,2*%
%TO.N,GND*%
X163400000Y-21000000D03*
X157600000Y-21000000D03*
%TD*%
D16*
%TO.P,U11,1*%
%TO.N,Net-(R52-Pad2)*%
X115175000Y-43645000D03*
%TO.P,U11,2,-*%
%TO.N,Net-(R46-Pad2)*%
X115175000Y-44915000D03*
%TO.P,U11,3,+*%
%TO.N,Net-(R47-Pad2)*%
X115175000Y-46185000D03*
%TO.P,U11,4,V-*%
%TO.N,GND*%
X115175000Y-47455000D03*
%TO.P,U11,5,+*%
%TO.N,Net-(F1-Pad1)*%
X120125000Y-47455000D03*
%TO.P,U11,6,-*%
%TO.N,Net-(R46-Pad1)*%
X120125000Y-46185000D03*
%TO.P,U11,7*%
X120125000Y-44915000D03*
%TO.P,U11,8,V+*%
%TO.N,V+*%
X120125000Y-43645000D03*
%TD*%
D18*
%TO.P,R70,1*%
%TO.N,GND*%
X119500000Y-72500000D03*
%TO.P,R70,2*%
%TO.N,Relay4*%
X119500000Y-70500000D03*
%TD*%
D12*
%TO.P,R61,1*%
%TO.N,Net-(R61-Pad1)*%
X114150000Y-53050000D03*
%TO.P,R61,2*%
%TO.N,Net-(Q6-Pad2)*%
X116150000Y-53050000D03*
%TD*%
D40*
%TO.P,C8,1*%
%TO.N,Vin*%
X75470000Y-55937500D03*
%TO.P,C8,2*%
%TO.N,GND*%
X75470000Y-59062500D03*
%TD*%
D48*
%TO.P,U6,1,E0*%
%TO.N,ADDR1*%
X148862500Y-49475000D03*
%TO.P,U6,2,E1*%
%TO.N,ADDR2*%
X148862500Y-48825000D03*
%TO.P,U6,3,E2*%
%TO.N,ADDR3*%
X148862500Y-48175000D03*
%TO.P,U6,4,VSS*%
%TO.N,GND*%
X148862500Y-47525000D03*
%TO.P,U6,5,SDA*%
%TO.N,SDA*%
X143137500Y-47525000D03*
%TO.P,U6,6,SCL*%
%TO.N,SCL*%
X143137500Y-48175000D03*
%TO.P,U6,7,~WC*%
%TO.N,N/C*%
X143137500Y-48825000D03*
%TO.P,U6,8,VCC*%
%TO.N,+3V3*%
X143137500Y-49475000D03*
%TD*%
D49*
%TO.P,Y1,1,1*%
%TO.N,Crystal_OUT*%
X136500000Y-43437500D03*
%TO.P,Y1,2,2*%
%TO.N,Crystal_IN*%
X136500000Y-31562500D03*
%TD*%
D12*
%TO.P,R35,1*%
%TO.N,V+*%
X109650000Y-23050000D03*
%TO.P,R35,2*%
%TO.N,Net-(F1-Pad1)*%
X111650000Y-23050000D03*
%TD*%
D20*
%TO.P,C35,1*%
%TO.N,Vout*%
X125425000Y-53500000D03*
%TO.P,C35,2*%
%TO.N,GND*%
X127500000Y-53500000D03*
%TD*%
D14*
%TO.P,R16,1*%
%TO.N,+3V3*%
X164500000Y-40500000D03*
%TO.P,R16,2*%
%TO.N,SCL*%
X162500000Y-40500000D03*
%TD*%
D50*
%TO.P,F2,1*%
%TO.N,Net-(F2-Pad1)*%
X125500000Y-89725000D03*
%TO.P,F2,2*%
%TO.N,Vout*%
X125500000Y-85275000D03*
%TD*%
D12*
%TO.P,R36,1*%
%TO.N,V+*%
X109650000Y-25050000D03*
%TO.P,R36,2*%
%TO.N,Net-(F1-Pad1)*%
X111650000Y-25050000D03*
%TD*%
D33*
%TO.P,U9,1*%
%TO.N,Vin*%
X81372500Y-44270000D03*
D34*
%TO.P,U9,2*%
%TO.N,Net-(R22-Pad1)*%
X81372500Y-43000000D03*
%TO.P,U9,3*%
%TO.N,Net-(U10-Pad2)*%
X81372500Y-41730000D03*
%TD*%
D12*
%TO.P,R44,1*%
%TO.N,Net-(Q8-Pad3)*%
X82500000Y-72250000D03*
%TO.P,R44,2*%
%TO.N,Net-(R44-Pad2)*%
X84500000Y-72250000D03*
%TD*%
D13*
%TO.P,R67,1*%
%TO.N,Vout_ADC*%
X150150000Y-67550000D03*
%TO.P,R67,2*%
%TO.N,Vout*%
X150150000Y-69550000D03*
%TD*%
D12*
%TO.P,R27,1*%
%TO.N,GND*%
X162500000Y-28500000D03*
%TO.P,R27,2*%
%TO.N,Net-(D5-Pad1)*%
X164500000Y-28500000D03*
%TD*%
D51*
%TO.P,F3,1*%
%TO.N,Vin Polly*%
X60012500Y-48500000D03*
%TO.P,F3,2*%
%TO.N,Vin*%
X62987500Y-48500000D03*
%TD*%
D15*
%TO.P,C14,1*%
%TO.N,Net-(C14-Pad1)*%
X75650000Y-33975000D03*
%TO.P,C14,2*%
%TO.N,GND*%
X75650000Y-36050000D03*
%TD*%
D52*
%TO.P,U5,1,BD*%
%TO.N,Vin*%
X78150000Y-23887500D03*
%TO.P,U5,2,BOOST*%
%TO.N,Net-(C22-Pad1)*%
X77650000Y-23887500D03*
%TO.P,U5,3,SW*%
%TO.N,Net-(C22-Pad2)*%
X77150000Y-23887500D03*
%TO.P,U5,4,Vin*%
%TO.N,Vin*%
X76650000Y-23887500D03*
%TO.P,U5,5,RUN/SS*%
%TO.N,Net-(C11-Pad1)*%
X76150000Y-23887500D03*
%TO.P,U5,6,SYNC*%
%TO.N,N/C*%
X76150000Y-28212500D03*
%TO.P,U5,7,PG*%
%TO.N,Pgood Vout*%
X76650000Y-28212500D03*
%TO.P,U5,8,FB*%
%TO.N,Net-(Q1-Pad3)*%
X77150000Y-28212500D03*
%TO.P,U5,9,Vcontrol*%
%TO.N,Net-(C14-Pad1)*%
X77650000Y-28212500D03*
%TO.P,U5,10,RT*%
%TO.N,Net-(R7-Pad2)*%
X78150000Y-28212500D03*
D53*
%TO.P,U5,11,GND*%
%TO.N,GND*%
X77150000Y-26050000D03*
D54*
X77150000Y-26050000D03*
%TD*%
D18*
%TO.P,R52,1*%
%TO.N,Net-(R46-Pad2)*%
X112150000Y-44550000D03*
%TO.P,R52,2*%
%TO.N,Net-(R52-Pad2)*%
X112150000Y-42550000D03*
%TD*%
D12*
%TO.P,R58,1*%
%TO.N,Net-(R57-Pad2)*%
X97650000Y-52550000D03*
%TO.P,R58,2*%
%TO.N,Vref_LDO*%
X99650000Y-52550000D03*
%TD*%
D13*
%TO.P,R65,1*%
%TO.N,Vout_ADC*%
X147650000Y-67550000D03*
%TO.P,R65,2*%
%TO.N,Vout*%
X147650000Y-69550000D03*
%TD*%
D15*
%TO.P,C17,1*%
%TO.N,Net-(C17-Pad1)*%
X77650000Y-33975000D03*
%TO.P,C17,2*%
%TO.N,GND*%
X77650000Y-36050000D03*
%TD*%
D36*
%TO.P,D10,1,K*%
%TO.N,Net-(D10-Pad1)*%
X120500000Y-85000000D03*
%TO.P,D10,2,A*%
%TO.N,Net-(D10-Pad2)*%
X115500000Y-85000000D03*
%TD*%
D12*
%TO.P,R69,1*%
%TO.N,Galv_Enable*%
X78000000Y-75750000D03*
%TO.P,R69,2*%
%TO.N,Net-(Q8-Pad1)*%
X80000000Y-75750000D03*
%TD*%
D41*
%TO.P,C36,1*%
%TO.N,GND*%
X116187500Y-57050000D03*
%TO.P,C36,2*%
%TO.N,Iout_ADC*%
X114112500Y-57050000D03*
%TD*%
D13*
%TO.P,R60,1*%
%TO.N,Relay3*%
X106500000Y-76500000D03*
%TO.P,R60,2*%
%TO.N,Net-(Q4-Pad2)*%
X106500000Y-78500000D03*
%TD*%
D55*
%TO.P,F4,1*%
%TO.N,Net-(F4-Pad1)*%
X142275000Y-103500000D03*
%TO.P,F4,2*%
%TO.N,GND*%
X146725000Y-103500000D03*
%TD*%
D20*
%TO.P,C19,1*%
%TO.N,+3V3*%
X86937500Y-62905000D03*
%TO.P,C19,2*%
%TO.N,GND*%
X89012500Y-62905000D03*
%TD*%
D12*
%TO.P,R4,1*%
%TO.N,ADDR2*%
X157000000Y-48000000D03*
%TO.P,R4,2*%
%TO.N,Net-(J2-Pad2)*%
X159000000Y-48000000D03*
%TD*%
D35*
%TO.P,C16,1*%
%TO.N,REF-3V*%
X151000000Y-55037500D03*
%TO.P,C16,2*%
%TO.N,GND*%
X151000000Y-52962500D03*
%TD*%
D32*
%TO.P,J7,1,Pin_1*%
%TO.N,Vout*%
X147650000Y-75550000D03*
%TD*%
D12*
%TO.P,R24,1*%
%TO.N,Temp_2*%
X88500000Y-44000000D03*
%TO.P,R24,2*%
%TO.N,GND*%
X90500000Y-44000000D03*
%TD*%
D56*
%TO.P,L1,1,1*%
%TO.N,Net-(C20-Pad2)*%
X86895000Y-54500000D03*
%TO.P,L1,2,2*%
%TO.N,+3V3*%
X89045000Y-54500000D03*
%TD*%
D36*
%TO.P,D1,1,K*%
%TO.N,Net-(C22-Pad2)*%
X83650000Y-27050000D03*
%TO.P,D1,2,A*%
%TO.N,GND*%
X88650000Y-27050000D03*
%TD*%
D28*
%TO.P,RL1,1,L1*%
%TO.N,Net-(D9-Pad1)*%
X84500000Y-97400000D03*
%TO.P,RL1,2,L2*%
%TO.N,Net-(D9-Pad2)*%
X72500000Y-97400000D03*
%TO.P,RL1,3,R2*%
%TO.N,Net-(F2-Pad1)*%
X78500000Y-95400000D03*
%TO.P,RL1,4,R1*%
%TO.N,Virt-Bus1*%
X84500000Y-109600000D03*
%TD*%
D16*
%TO.P,U15,1*%
%TO.N,Net-(R63-Pad1)*%
X103675000Y-52645000D03*
%TO.P,U15,2,-*%
%TO.N,Net-(R57-Pad2)*%
X103675000Y-53915000D03*
%TO.P,U15,3,+*%
%TO.N,Vout_DAC*%
X103675000Y-55185000D03*
%TO.P,U15,4,V-*%
%TO.N,GND*%
X103675000Y-56455000D03*
%TO.P,U15,5,+*%
%TO.N,Iout_DAC*%
X108625000Y-56455000D03*
%TO.P,U15,6,-*%
%TO.N,Iout_ADC*%
X108625000Y-55185000D03*
%TO.P,U15,7*%
%TO.N,Net-(R61-Pad1)*%
X108625000Y-53915000D03*
%TO.P,U15,8,V+*%
%TO.N,V+*%
X108625000Y-52645000D03*
%TD*%
D29*
%TO.P,D2,1,RA*%
%TO.N,Net-(D2-Pad1)*%
X168650000Y-38790000D03*
D30*
%TO.P,D2,2,GA*%
%TO.N,Net-(D2-Pad2)*%
X168650000Y-36631000D03*
%TO.P,D2,3,BA*%
%TO.N,Net-(D2-Pad3)*%
X168650000Y-34472000D03*
%TO.P,D2,4,K*%
%TO.N,GND*%
X168650000Y-32313000D03*
%TD*%
D57*
%TO.P,U10,1,V-*%
%TO.N,GND*%
X87500000Y-40000000D03*
D58*
%TO.P,U10,2,V+*%
%TO.N,Net-(U10-Pad2)*%
X86230000Y-40000000D03*
%TO.P,U10,3,ADJ*%
%TO.N,Net-(R22-Pad2)*%
X84960000Y-40000000D03*
%TD*%
D12*
%TO.P,R20,1*%
%TO.N,Net-(R19-Pad2)*%
X140500000Y-24000000D03*
%TO.P,R20,2*%
%TO.N,Temp_1*%
X142500000Y-24000000D03*
%TD*%
D20*
%TO.P,C28,1*%
%TO.N,+3V3*%
X150962500Y-51000000D03*
%TO.P,C28,2*%
%TO.N,GND*%
X153037500Y-51000000D03*
%TD*%
D41*
%TO.P,C33,1*%
%TO.N,V+*%
X120650000Y-41550000D03*
%TO.P,C33,2*%
%TO.N,GND*%
X118575000Y-41550000D03*
%TD*%
D24*
%TO.P,J6,1,Pin_1*%
%TO.N,N/C*%
X60500000Y-64640000D03*
D25*
%TO.P,J6,2,Pin_2*%
X57960000Y-64640000D03*
%TO.P,J6,3,Pin_3*%
X60500000Y-67180000D03*
%TO.P,J6,4,Pin_4*%
X57960000Y-67180000D03*
%TO.P,J6,5,Pin_5*%
X60500000Y-69720000D03*
%TO.P,J6,6,Pin_6*%
X57960000Y-69720000D03*
%TO.P,J6,7,Pin_7*%
X60500000Y-72260000D03*
%TO.P,J6,8,Pin_8*%
X57960000Y-72260000D03*
%TO.P,J6,9,Pin_9*%
X60500000Y-74800000D03*
%TO.P,J6,10,Pin_10*%
X57960000Y-74800000D03*
%TO.P,J6,11,Pin_11*%
X60500000Y-77340000D03*
%TO.P,J6,12,Pin_12*%
X57960000Y-77340000D03*
%TO.P,J6,13,Pin_13*%
X60500000Y-79880000D03*
%TO.P,J6,14,Pin_14*%
X57960000Y-79880000D03*
%TO.P,J6,15,Pin_15*%
X60500000Y-82420000D03*
%TO.P,J6,16,Pin_16*%
X57960000Y-82420000D03*
%TO.P,J6,17,Pin_17*%
%TO.N,Galv_SCL*%
X60500000Y-84960000D03*
%TO.P,J6,18,Pin_18*%
%TO.N,Galv_SDA*%
X57960000Y-84960000D03*
%TO.P,J6,19,Pin_19*%
%TO.N,Galv_GND*%
X60500000Y-87500000D03*
%TO.P,J6,20,Pin_20*%
%TO.N,Galv_Vcc*%
X57960000Y-87500000D03*
%TO.P,J6,21,Pin_21*%
%TO.N,Galv_Interrupt*%
X60500000Y-90040000D03*
%TO.P,J6,22,Pin_22*%
%TO.N,Galv_Enable*%
X57960000Y-90040000D03*
%TO.P,J6,23,Pin_23*%
%TO.N,N/C*%
X60500000Y-92580000D03*
%TO.P,J6,24,Pin_24*%
X57960000Y-92580000D03*
%TO.P,J6,25,Pin_25*%
%TO.N,Virt-Bus2*%
X60500000Y-95120000D03*
%TO.P,J6,26,Pin_26*%
X57960000Y-95120000D03*
%TO.P,J6,27,Pin_27*%
X60500000Y-97660000D03*
%TO.P,J6,28,Pin_28*%
X57960000Y-97660000D03*
%TO.P,J6,29,Pin_29*%
X60500000Y-100200000D03*
%TO.P,J6,30,Pin_30*%
X57960000Y-100200000D03*
%TO.P,J6,31,Pin_31*%
X60500000Y-102740000D03*
%TO.P,J6,32,Pin_32*%
X57960000Y-102740000D03*
%TO.P,J6,33,Pin_33*%
%TO.N,Virt-Bus1*%
X60500000Y-105280000D03*
%TO.P,J6,34,Pin_34*%
X57960000Y-105280000D03*
%TO.P,J6,35,Pin_35*%
X60500000Y-107820000D03*
%TO.P,J6,36,Pin_36*%
X57960000Y-107820000D03*
%TO.P,J6,37,Pin_37*%
X60500000Y-110360000D03*
%TO.P,J6,38,Pin_38*%
X57960000Y-110360000D03*
%TO.P,J6,39,Pin_39*%
X60500000Y-112900000D03*
%TO.P,J6,40,Pin_40*%
X57960000Y-112900000D03*
%TD*%
D59*
%TO.P,D7,1,K*%
%TO.N,Net-(C32-Pad1)*%
X131430000Y-41850000D03*
D60*
%TO.P,D7,2,A*%
%TO.N,Vout*%
X129150000Y-48150000D03*
D59*
%TO.P,D7,3*%
%TO.N,N/C*%
X126870000Y-41850000D03*
%TD*%
D14*
%TO.P,R55,1*%
%TO.N,Net-(D11-Pad1)*%
X101500000Y-82000000D03*
%TO.P,R55,2*%
%TO.N,Vin*%
X99500000Y-82000000D03*
%TD*%
D12*
%TO.P,R63,1*%
%TO.N,Net-(R63-Pad1)*%
X98150000Y-49050000D03*
%TO.P,R63,2*%
%TO.N,CL_PD*%
X100150000Y-49050000D03*
%TD*%
D14*
%TO.P,R64,1*%
%TO.N,Net-(D12-Pad1)*%
X111000000Y-82000000D03*
%TO.P,R64,2*%
%TO.N,Vin*%
X109000000Y-82000000D03*
%TD*%
D33*
%TO.P,U16,1*%
%TO.N,Vout*%
X141022500Y-69320000D03*
D34*
%TO.P,U16,2*%
%TO.N,Net-(R56-Pad1)*%
X141022500Y-68050000D03*
%TO.P,U16,3*%
%TO.N,GND*%
X141022500Y-66780000D03*
%TD*%
D35*
%TO.P,C25,1*%
%TO.N,+3V3*%
X154500000Y-28575000D03*
%TO.P,C25,2*%
%TO.N,GND*%
X154500000Y-26500000D03*
%TD*%
D61*
%TO.P,U3,1,BST*%
%TO.N,Net-(C20-Pad1)*%
X82470000Y-55500000D03*
%TO.P,U3,2,SW*%
%TO.N,Net-(C20-Pad2)*%
X82470000Y-55000000D03*
%TO.P,U3,3,INTVcc*%
%TO.N,Net-(C3-Pad1)*%
X82470000Y-54500000D03*
%TO.P,U3,4,RT*%
%TO.N,Net-(R2-Pad1)*%
X82470000Y-54000000D03*
%TO.P,U3,5,Sync*%
%TO.N,N/C*%
X82470000Y-53500000D03*
%TO.P,U3,6,FB*%
%TO.N,Net-(C21-Pad1)*%
X78145000Y-53500000D03*
%TO.P,U3,7,TR/SS*%
%TO.N,Net-(C9-Pad1)*%
X78145000Y-54000000D03*
%TO.P,U3,8,PG*%
%TO.N,Pgood 3.3v*%
X78145000Y-54500000D03*
%TO.P,U3,9,Vin*%
%TO.N,Vin*%
X78145000Y-55000000D03*
%TO.P,U3,10,EN/UV*%
X78145000Y-55500000D03*
D54*
%TO.P,U3,11,GND*%
%TO.N,GND*%
X80307500Y-54500000D03*
D62*
X80307500Y-54500000D03*
%TD*%
D15*
%TO.P,C2,1*%
%TO.N,Vin*%
X138500000Y-52962500D03*
%TO.P,C2,2*%
%TO.N,GND*%
X138500000Y-55037500D03*
%TD*%
D18*
%TO.P,R62,1*%
%TO.N,Net-(R61-Pad1)*%
X159150000Y-56280000D03*
%TO.P,R62,2*%
%TO.N,Net-(Q7-Pad2)*%
X159150000Y-54280000D03*
%TD*%
D44*
%TO.P,C24,1*%
%TO.N,V+*%
X94650000Y-23362500D03*
%TO.P,C24,2*%
%TO.N,GND*%
X94650000Y-28637500D03*
%TD*%
D18*
%TO.P,R14,1*%
%TO.N,GND*%
X73650000Y-36050000D03*
%TO.P,R14,2*%
%TO.N,Net-(Q1-Pad3)*%
X73650000Y-34050000D03*
%TD*%
D44*
%TO.P,C10,1*%
%TO.N,Vin*%
X65150000Y-21912500D03*
%TO.P,C10,2*%
%TO.N,GND*%
X65150000Y-27187500D03*
%TD*%
D24*
%TO.P,J9,1,Pin_1*%
%TO.N,+3V3*%
X152960000Y-59975000D03*
D25*
%TO.P,J9,2,Pin_2*%
%TO.N,Error*%
X155500000Y-59975000D03*
%TO.P,J9,3,Pin_3*%
%TO.N,SWCLK*%
X158040000Y-59975000D03*
%TO.P,J9,4,Pin_4*%
%TO.N,GND*%
X160580000Y-59975000D03*
%TD*%
D29*
%TO.P,D3,1,K*%
%TO.N,Net-(D3-Pad1)*%
X168650000Y-21550000D03*
D30*
%TO.P,D3,2,A*%
%TO.N,Vin*%
X168650000Y-19010000D03*
%TD*%
D28*
%TO.P,RL2,1,L1*%
%TO.N,Net-(D10-Pad1)*%
X137000000Y-97400000D03*
%TO.P,RL2,2,L2*%
%TO.N,Net-(D10-Pad2)*%
X125000000Y-97400000D03*
%TO.P,RL2,3,R2*%
%TO.N,Net-(F2-Pad1)*%
X131000000Y-95400000D03*
%TO.P,RL2,4,R1*%
%TO.N,Virt-Bus2*%
X137000000Y-109600000D03*
%TD*%
D13*
%TO.P,R13,1*%
%TO.N,+3V3*%
X75970000Y-49500000D03*
%TO.P,R13,2*%
%TO.N,Pgood 3.3v*%
X75970000Y-51500000D03*
%TD*%
D63*
%TO.P,J5,1,Pin_1*%
%TO.N,Vin Polly*%
X60000000Y-53460000D03*
D64*
%TO.P,J5,2,Pin_2*%
%TO.N,GND*%
X60000000Y-58540000D03*
%TD*%
D24*
%TO.P,J2,1,Pin_1*%
%TO.N,GND*%
X162000000Y-46500000D03*
D25*
%TO.P,J2,2,Pin_2*%
%TO.N,Net-(J2-Pad2)*%
X164540000Y-46500000D03*
%TO.P,J2,3,Pin_3*%
%TO.N,+3V3*%
X167080000Y-46500000D03*
%TD*%
D13*
%TO.P,R22,1*%
%TO.N,Net-(R22-Pad1)*%
X77500000Y-42500000D03*
%TO.P,R22,2*%
%TO.N,Net-(R22-Pad2)*%
X77500000Y-44500000D03*
%TD*%
%TO.P,R10,1*%
%TO.N,SWCLK*%
X152500000Y-44000000D03*
%TO.P,R10,2*%
%TO.N,Pgood Vout*%
X152500000Y-46000000D03*
%TD*%
D35*
%TO.P,C3,1*%
%TO.N,Net-(C3-Pad1)*%
X85970000Y-51537500D03*
%TO.P,C3,2*%
%TO.N,GND*%
X85970000Y-49462500D03*
%TD*%
D51*
%TO.P,F1,1*%
%TO.N,Net-(F1-Pad1)*%
X114012500Y-35500000D03*
%TO.P,F1,2*%
%TO.N,Net-(C32-Pad1)*%
X116987500Y-35500000D03*
%TD*%
D18*
%TO.P,R7,1*%
%TO.N,GND*%
X79650000Y-36050000D03*
%TO.P,R7,2*%
%TO.N,Net-(R7-Pad2)*%
X79650000Y-34050000D03*
%TD*%
D14*
%TO.P,R57,1*%
%TO.N,GND*%
X99650000Y-56550000D03*
%TO.P,R57,2*%
%TO.N,Net-(R57-Pad2)*%
X97650000Y-56550000D03*
%TD*%
D17*
%TO.P,Q6,1,E*%
%TO.N,GND*%
X97000000Y-42550000D03*
%TO.P,Q6,2,B*%
%TO.N,Net-(Q6-Pad2)*%
X97000000Y-44450000D03*
%TO.P,Q6,3,C*%
%TO.N,CL_PD*%
X99000000Y-43500000D03*
%TD*%
D57*
%TO.P,U7,1*%
%TO.N,Vin*%
X147270000Y-19177500D03*
D58*
%TO.P,U7,2*%
%TO.N,Net-(R19-Pad1)*%
X146000000Y-19177500D03*
%TO.P,U7,3*%
%TO.N,Net-(U7-Pad3)*%
X144730000Y-19177500D03*
%TD*%
D24*
%TO.P,J4,1,Pin_1*%
%TO.N,+3V3*%
X153975000Y-22500000D03*
D25*
%TO.P,J4,2,Pin_2*%
%TO.N,Boot0*%
X153975000Y-19960000D03*
%TO.P,J4,3,Pin_3*%
%TO.N,GND*%
X153975000Y-17420000D03*
%TD*%
D12*
%TO.P,R21,1*%
%TO.N,Temp_1*%
X144250000Y-25000000D03*
%TO.P,R21,2*%
%TO.N,GND*%
X146250000Y-25000000D03*
%TD*%
D15*
%TO.P,C7,1*%
%TO.N,GND*%
X140250000Y-35462500D03*
%TO.P,C7,2*%
%TO.N,Crystal_OUT*%
X140250000Y-37537500D03*
%TD*%
D41*
%TO.P,C37,1*%
%TO.N,V+*%
X109187500Y-50550000D03*
%TO.P,C37,2*%
%TO.N,GND*%
X107112500Y-50550000D03*
%TD*%
%TO.P,C11,1*%
%TO.N,Net-(C11-Pad1)*%
X99687500Y-17550000D03*
%TO.P,C11,2*%
%TO.N,GND*%
X97612500Y-17550000D03*
%TD*%
D18*
%TO.P,R12,1*%
%TO.N,GND*%
X119500000Y-78500000D03*
%TO.P,R12,2*%
%TO.N,Relay2*%
X119500000Y-76500000D03*
%TD*%
D14*
%TO.P,R30,1*%
%TO.N,Net-(D2-Pad3)*%
X164500000Y-34500000D03*
%TO.P,R30,2*%
%TO.N,RGB_B*%
X162500000Y-34500000D03*
%TD*%
D65*
%TO.P,U13,1*%
%TO.N,Net-(R44-Pad2)*%
X87312500Y-72115000D03*
%TO.P,U13,2*%
%TO.N,Galv_GND*%
X87312500Y-73385000D03*
%TO.P,U13,3*%
%TO.N,GND*%
X93687500Y-73385000D03*
%TO.P,U13,4*%
%TO.N,Enable*%
X93687500Y-72115000D03*
%TD*%
D35*
%TO.P,C15,1*%
%TO.N,Galv_Vcc*%
X76000000Y-67037500D03*
%TO.P,C15,2*%
%TO.N,Galv_GND*%
X76000000Y-64962500D03*
%TD*%
D36*
%TO.P,D12,1,K*%
%TO.N,Net-(D12-Pad1)*%
X111000000Y-85000000D03*
%TO.P,D12,2,A*%
%TO.N,Net-(D12-Pad2)*%
X106000000Y-85000000D03*
%TD*%
D12*
%TO.P,R5,1*%
%TO.N,ADDR3*%
X157000000Y-46000000D03*
%TO.P,R5,2*%
%TO.N,Net-(J3-Pad2)*%
X159000000Y-46000000D03*
%TD*%
D15*
%TO.P,C5,1*%
%TO.N,Vin*%
X140500000Y-52962500D03*
%TO.P,C5,2*%
%TO.N,GND*%
X140500000Y-55037500D03*
%TD*%
D12*
%TO.P,R33,1*%
%TO.N,V+*%
X109650000Y-19050000D03*
%TO.P,R33,2*%
%TO.N,Net-(F1-Pad1)*%
X111650000Y-19050000D03*
%TD*%
%TO.P,R59,1*%
%TO.N,Net-(R57-Pad2)*%
X97650000Y-54550000D03*
%TO.P,R59,2*%
%TO.N,Vref_LDO*%
X99650000Y-54550000D03*
%TD*%
D41*
%TO.P,C34,1*%
%TO.N,Vref_LDO*%
X122537500Y-39500000D03*
%TO.P,C34,2*%
%TO.N,GND*%
X120462500Y-39500000D03*
%TD*%
D18*
%TO.P,R11,1*%
%TO.N,GND*%
X108500000Y-72500000D03*
%TO.P,R11,2*%
%TO.N,Relay1*%
X108500000Y-70500000D03*
%TD*%
D35*
%TO.P,C21,1*%
%TO.N,Net-(C21-Pad1)*%
X79970000Y-51537500D03*
%TO.P,C21,2*%
%TO.N,+3V3*%
X79970000Y-49462500D03*
%TD*%
D20*
%TO.P,C32,1*%
%TO.N,Net-(C32-Pad1)*%
X116462500Y-38000000D03*
%TO.P,C32,2*%
%TO.N,GND*%
X118537500Y-38000000D03*
%TD*%
D66*
%TO.P,U14,1*%
%TO.N,N/C*%
X121250000Y-37330000D03*
D67*
%TO.P,U14,2,Set*%
%TO.N,Vref_LDO*%
X122950000Y-37330000D03*
%TO.P,U14,3,Out*%
%TO.N,Vout*%
X124650000Y-37330000D03*
%TO.P,U14,4,Vcontol*%
%TO.N,Net-(C32-Pad1)*%
X126350000Y-37330000D03*
%TO.P,U14,5,Vin*%
X128050000Y-37330000D03*
%TD*%
D68*
%TO.N,V+*%
X70019406Y-29461383D03*
%TO.N,Net-(Q1-Pad3)*%
X72000000Y-29500000D03*
%TO.N,GND*%
X150500000Y-96500000D03*
X148500000Y-94500000D03*
X145500000Y-94500000D03*
X155500000Y-30500000D03*
X149500000Y-96500000D03*
X148500000Y-95500000D03*
X143500000Y-21000000D03*
X108500000Y-74000000D03*
X143500000Y-94500000D03*
X106650000Y-52050000D03*
X161500000Y-30000000D03*
X149500000Y-93500000D03*
X119500000Y-73500000D03*
X143500000Y-56000000D03*
X146500000Y-94500000D03*
D69*
X70000000Y-39000000D03*
D68*
X147500000Y-96500000D03*
X129000000Y-52500000D03*
X144500000Y-94500000D03*
X92000000Y-73500000D03*
X80500000Y-37500000D03*
X147500000Y-93500000D03*
X141500000Y-35000000D03*
X151500000Y-95500000D03*
X149500000Y-97500000D03*
X146000000Y-39500000D03*
X148500000Y-93500000D03*
X146500000Y-93500000D03*
X116650000Y-47550000D03*
X162500000Y-62000000D03*
X143000000Y-19000000D03*
X88500000Y-69000000D03*
X152500000Y-53000000D03*
X147500000Y-94500000D03*
X115500000Y-73500000D03*
X117500000Y-57500000D03*
X151500000Y-96500000D03*
X92000000Y-75500000D03*
X118500000Y-39500000D03*
X144500000Y-96500000D03*
X115500000Y-79500000D03*
X144500000Y-93500000D03*
X96000000Y-17500000D03*
X149500000Y-94500000D03*
X70000000Y-39000000D03*
X143500000Y-93500000D03*
X157500000Y-19500000D03*
X146500000Y-97500000D03*
X104500000Y-73500000D03*
X146500000Y-96500000D03*
D69*
X91500000Y-49000000D03*
D68*
X147500000Y-95500000D03*
X150500000Y-94500000D03*
X150500000Y-47000000D03*
X143500000Y-95500000D03*
X150500000Y-95500000D03*
X144500000Y-97500000D03*
X145500000Y-97500000D03*
X104500000Y-79500000D03*
D69*
X69000000Y-25500000D03*
X65000000Y-29500000D03*
D68*
X146500000Y-95500000D03*
X143500000Y-96500000D03*
X150500000Y-97500000D03*
D69*
X104000000Y-46000000D03*
D68*
X147500000Y-97500000D03*
X77500000Y-59000000D03*
X151500000Y-93500000D03*
X96000000Y-42500000D03*
X150500000Y-93500000D03*
X164500000Y-52000000D03*
D69*
X73500000Y-25500000D03*
D68*
X149500000Y-95500000D03*
D69*
X67500000Y-36000000D03*
D68*
X118650000Y-42550000D03*
X103729268Y-57274990D03*
X144500000Y-95500000D03*
X145500000Y-93500000D03*
X151500000Y-94500000D03*
X74500000Y-48000000D03*
X145500000Y-95500000D03*
D69*
X91500000Y-36000000D03*
D68*
X151500000Y-97500000D03*
X148500000Y-96500000D03*
X143500000Y-97500000D03*
X108487340Y-79487340D03*
X148500000Y-97500000D03*
X90405000Y-62905000D03*
X144500000Y-64500000D03*
X145500000Y-96500000D03*
X119500000Y-79500000D03*
%TO.N,Vin*%
X79150000Y-22550000D03*
X120500000Y-67000000D03*
X87500000Y-61000000D03*
X98000000Y-68000000D03*
X130500000Y-57000000D03*
X91500000Y-80500000D03*
X99500000Y-80500000D03*
X110000000Y-80500000D03*
X76112500Y-22012500D03*
X118500000Y-80500000D03*
X96000000Y-65868835D03*
X119000000Y-67500000D03*
X90000000Y-61000000D03*
X121000000Y-80000000D03*
X123500000Y-69000000D03*
%TO.N,Net-(C11-Pad1)*%
X100650000Y-19050000D03*
X75150000Y-23050000D03*
%TO.N,NRST*%
X160500000Y-17500000D03*
X151474990Y-29000000D03*
X161000000Y-20000000D03*
%TO.N,Galv_GND*%
X83500000Y-71000000D03*
X75000000Y-68500000D03*
X77000000Y-71000000D03*
X86000000Y-74500000D03*
%TO.N,Galv_Vcc*%
X81000000Y-73750000D03*
X76000000Y-68000000D03*
%TO.N,REF-3V*%
X149674990Y-53110151D03*
X153000000Y-37000000D03*
%TO.N,+3V3*%
X158000000Y-37000000D03*
X166000000Y-33500000D03*
X159500000Y-39500000D03*
X150000000Y-37000000D03*
X159500000Y-41500000D03*
X96987340Y-65512660D03*
D69*
X127075031Y-58000000D03*
D68*
X154000000Y-57500000D03*
X154000000Y-57500000D03*
D69*
X121500000Y-58500000D03*
D68*
X97000000Y-68500000D03*
X153732136Y-35206814D03*
X151488963Y-35247032D03*
%TO.N,Net-(C22-Pad1)*%
X79150000Y-21550000D03*
X76650000Y-20550000D03*
%TO.N,V+*%
X88150000Y-21050000D03*
X81650000Y-24550000D03*
%TO.N,Vref_LDO*%
X102650000Y-50550000D03*
X101150000Y-52050000D03*
X111137340Y-40537340D03*
%TO.N,Vout*%
X128500000Y-57000000D03*
X71500000Y-54000000D03*
X91500000Y-61000000D03*
X71500000Y-46500000D03*
X119500000Y-60000000D03*
X71500000Y-44000000D03*
X72000000Y-50000000D03*
X86000000Y-61500000D03*
%TO.N,Iout_ADC*%
X112650000Y-55050000D03*
X148500000Y-35932980D03*
%TO.N,Vout_ADC*%
X148500000Y-59500000D03*
X151970729Y-37500000D03*
%TO.N,EN_Vout*%
X163500000Y-30000000D03*
X122512660Y-53012660D03*
X153824966Y-37825000D03*
X107500000Y-38000000D03*
X109000000Y-47500000D03*
X144000000Y-42000000D03*
X109000000Y-42500000D03*
X112999999Y-47499999D03*
%TO.N,Error*%
X155000000Y-56649990D03*
X167000000Y-26000000D03*
X154500000Y-51000000D03*
X154274990Y-41012660D03*
%TO.N,Net-(F1-Pad1)*%
X113162660Y-38775010D03*
X117650481Y-45524528D03*
%TO.N,Net-(D9-Pad1)*%
X92000000Y-86500000D03*
%TO.N,ADDR3*%
X157000000Y-45000000D03*
X158342543Y-38900022D03*
%TO.N,Galv_Enable*%
X77000000Y-76000000D03*
X72500000Y-78000000D03*
%TO.N,Net-(Q1-Pad3)*%
X80150000Y-30824990D03*
X73650000Y-32324990D03*
%TO.N,Net-(Q6-Pad2)*%
X97000000Y-45500000D03*
X112190763Y-48225010D03*
%TO.N,SDA*%
X154000000Y-34000000D03*
X122000000Y-60500000D03*
X143488080Y-46488080D03*
%TO.N,SCL*%
X144500000Y-46500000D03*
X122000000Y-61500000D03*
X156500000Y-37536505D03*
%TO.N,Temp_1*%
X143000000Y-26000000D03*
X148000000Y-29500000D03*
%TO.N,Temp_2*%
X113958735Y-48500000D03*
X98500000Y-47500000D03*
X122500000Y-52000000D03*
X139000000Y-44500000D03*
%TO.N,Relay1*%
X121624835Y-69150155D03*
X141500000Y-49095209D03*
%TO.N,Net-(D9-Pad2)*%
X87000000Y-86500000D03*
%TO.N,Interrupt*%
X139919135Y-45919135D03*
X123401979Y-54063709D03*
%TO.N,Relay2*%
X110999998Y-72000000D03*
X110000000Y-66000000D03*
X119000000Y-62987340D03*
X149000000Y-42000000D03*
%TO.N,Enable*%
X100512660Y-67012660D03*
X151500000Y-41000000D03*
X121500000Y-64500000D03*
X96000000Y-71000000D03*
%TO.N,Relay3*%
X110500000Y-67000000D03*
X149500000Y-41000000D03*
X110000000Y-73500000D03*
X119274999Y-64725001D03*
%TO.N,Net-(D10-Pad2)*%
X114500000Y-83500000D03*
%TO.N,Relay4*%
X109000000Y-66725010D03*
X110500000Y-70500000D03*
X150500000Y-41500000D03*
X120012660Y-65500000D03*
%TO.N,Net-(R61-Pad1)*%
X122000000Y-54000000D03*
X135076543Y-59176543D03*
X121741878Y-67049989D03*
X112150000Y-53050000D03*
%TO.N,Net-(D11-Pad1)*%
X101500000Y-86000000D03*
%TO.N,Pgood Vout*%
X149068212Y-44568212D03*
X121500000Y-66000000D03*
X95500000Y-44500000D03*
X75650000Y-30050000D03*
X81150000Y-30050000D03*
X96000000Y-48000000D03*
%TO.N,Iout_DAC*%
X112637340Y-56062660D03*
X148000000Y-34500000D03*
%TO.N,Pgood 3.3v*%
X76481581Y-52988419D03*
X74920919Y-53549081D03*
%TO.N,Vout_DAC*%
X105000000Y-55000000D03*
X140987347Y-45487347D03*
%TO.N,Net-(D11-Pad2)*%
X97500000Y-86500000D03*
%TO.N,Net-(D12-Pad1)*%
X111000000Y-86000000D03*
X118500000Y-95000000D03*
%TO.N,Net-(D12-Pad2)*%
X106000000Y-86500000D03*
%TO.N,SWCLK*%
X155500000Y-51500000D03*
X156000000Y-56500000D03*
X155000000Y-42000000D03*
%TD*%
D70*
%TO.N,V+*%
X69300000Y-28741977D02*
X70019406Y-29461383D01*
X69300000Y-28497500D02*
X69300000Y-28741977D01*
%TO.N,Net-(Q1-Pad2)*%
X69300000Y-30397500D02*
X69300000Y-31700000D01*
X69300000Y-31700000D02*
X71650000Y-34050000D01*
%TO.N,Net-(Q1-Pad3)*%
X72000000Y-29500000D02*
X71352500Y-29500000D01*
X71352500Y-29500000D02*
X71300000Y-29447500D01*
%TO.N,GND*%
X77437500Y-59062500D02*
X77500000Y-59000000D01*
X115175000Y-47455000D02*
X115175000Y-49525000D01*
X103675000Y-56455000D02*
X99745000Y-56455000D01*
X79650000Y-36650000D02*
X80500000Y-37500000D01*
X99745000Y-56455000D02*
X99650000Y-56550000D01*
D71*
X65150000Y-29350000D02*
X65000000Y-29500000D01*
D70*
X140000000Y-33537500D02*
X140000000Y-35462500D01*
X119500000Y-78500000D02*
X119500000Y-79500000D01*
X118500000Y-38037500D02*
X118537500Y-38000000D01*
X146250000Y-25000000D02*
X146250000Y-24750000D01*
D71*
X65150000Y-27187500D02*
X65150000Y-29350000D01*
D70*
X164537500Y-22137500D02*
X163400000Y-21000000D01*
X143000000Y-19000000D02*
X142730000Y-18730000D01*
X148862500Y-47525000D02*
X149975000Y-47525000D01*
X85970000Y-49462500D02*
X88377936Y-49462500D01*
X155175000Y-32200000D02*
X155175000Y-30825000D01*
X88310000Y-68810000D02*
X88500000Y-69000000D01*
D71*
X70000000Y-41462500D02*
X70000000Y-39000000D01*
D70*
X152462500Y-52962500D02*
X152500000Y-53000000D01*
D71*
X67700000Y-34000000D02*
X67700000Y-35800000D01*
X94650000Y-35150000D02*
X95050000Y-35550000D01*
D70*
X90405000Y-62905000D02*
X90500000Y-63000000D01*
X149975000Y-47525000D02*
X150500000Y-47000000D01*
X97612500Y-17550000D02*
X96050000Y-17550000D01*
D71*
X73650000Y-24087500D02*
X73650000Y-25350000D01*
D70*
X86950000Y-68810000D02*
X88310000Y-68810000D01*
X162500000Y-26500000D02*
X162500000Y-28500000D01*
X147650000Y-63550000D02*
X147150000Y-63550000D01*
X119500000Y-72500000D02*
X119500000Y-73500000D01*
D72*
X146725000Y-103500000D02*
X146725000Y-96475000D01*
D71*
X88650000Y-27050000D02*
X93062500Y-27050000D01*
X104375000Y-45625000D02*
X104000000Y-46000000D01*
D70*
X104500000Y-78450000D02*
X104500000Y-79500000D01*
X73970000Y-48530000D02*
X74500000Y-48000000D01*
X96050000Y-42550000D02*
X96000000Y-42500000D01*
X120462500Y-39500000D02*
X118500000Y-39500000D01*
D72*
X146725000Y-96475000D02*
X147650000Y-95550000D01*
D71*
X100650000Y-28637500D02*
X94650000Y-28637500D01*
D70*
X107112500Y-50550000D02*
X107112500Y-51587500D01*
D72*
X147650000Y-95550000D02*
X149150000Y-94050000D01*
D70*
X147150000Y-63550000D02*
X144650000Y-66050000D01*
X143325000Y-55825000D02*
X143500000Y-56000000D01*
X108500000Y-79474680D02*
X108487340Y-79487340D01*
X90500000Y-43000000D02*
X87500000Y-40000000D01*
X143325000Y-55037500D02*
X143887500Y-54475000D01*
X144650000Y-64650000D02*
X144500000Y-64500000D01*
X146825000Y-38675000D02*
X146000000Y-39500000D01*
X92115000Y-73385000D02*
X92000000Y-73500000D01*
D71*
X93062500Y-27050000D02*
X94650000Y-28637500D01*
D70*
X143863202Y-21000000D02*
X143500000Y-21000000D01*
X117050000Y-57050000D02*
X117500000Y-57500000D01*
X162500000Y-28500000D02*
X162500000Y-29000000D01*
X107112500Y-51587500D02*
X106650000Y-52050000D01*
X140500000Y-55037500D02*
X143325000Y-55037500D01*
X73650000Y-36050000D02*
X79650000Y-36050000D01*
X162500000Y-63500000D02*
X162500000Y-62000000D01*
X90500000Y-44000000D02*
X90500000Y-43000000D01*
X79650000Y-36050000D02*
X79650000Y-36650000D01*
X145462500Y-41500000D02*
X145462500Y-40037500D01*
X155500000Y-30500000D02*
X155550020Y-30449980D01*
X155175000Y-30825000D02*
X155500000Y-30500000D01*
X143325000Y-55037500D02*
X143325000Y-55825000D01*
X103675000Y-56455000D02*
X103675000Y-57220722D01*
X81977936Y-49500000D02*
X85932500Y-49500000D01*
X164500000Y-24500000D02*
X162500000Y-26500000D01*
X143920000Y-66780000D02*
X144650000Y-66050000D01*
X146250000Y-24750000D02*
X145175020Y-23675020D01*
X141037500Y-35462500D02*
X141500000Y-35000000D01*
X157600000Y-21000000D02*
X157600000Y-19600000D01*
X115175000Y-47455000D02*
X116555000Y-47455000D01*
D71*
X91950000Y-35550000D02*
X91500000Y-36000000D01*
D70*
X163100000Y-52280000D02*
X164220000Y-52280000D01*
X103675000Y-57220722D02*
X103729268Y-57274990D01*
X128000000Y-53500000D02*
X129000000Y-52500000D01*
D71*
X70650000Y-25112500D02*
X69387500Y-25112500D01*
D70*
X141022500Y-66780000D02*
X143920000Y-66780000D01*
X96050000Y-17550000D02*
X96000000Y-17500000D01*
X155550020Y-27550020D02*
X154500000Y-26500000D01*
X118575000Y-41550000D02*
X118575000Y-42475000D01*
X108500000Y-78500000D02*
X108500000Y-79474680D01*
X116187500Y-57050000D02*
X117050000Y-57050000D01*
X115500000Y-72450000D02*
X115500000Y-73500000D01*
X155550020Y-30449980D02*
X155550020Y-27550020D01*
X97000000Y-42550000D02*
X96050000Y-42550000D01*
D71*
X94650000Y-28637500D02*
X94650000Y-35150000D01*
D70*
X152500000Y-53000000D02*
X152500000Y-51537500D01*
X104500000Y-72450000D02*
X104500000Y-73500000D01*
D71*
X67700000Y-35800000D02*
X67500000Y-36000000D01*
D70*
X73970000Y-49462500D02*
X73970000Y-48530000D01*
D72*
X149150000Y-94050000D02*
X149150000Y-85950000D01*
D71*
X95050000Y-35550000D02*
X91950000Y-35550000D01*
D70*
X89012500Y-62905000D02*
X90405000Y-62905000D01*
X162500000Y-29000000D02*
X161500000Y-30000000D01*
X118575000Y-42475000D02*
X118650000Y-42550000D01*
X116555000Y-47455000D02*
X116650000Y-47550000D01*
X138500000Y-55037500D02*
X140500000Y-55037500D01*
X145175020Y-23675020D02*
X145175020Y-22311818D01*
X118500000Y-39500000D02*
X118500000Y-38037500D01*
X144650000Y-66050000D02*
X144650000Y-64650000D01*
X152500000Y-51537500D02*
X153037500Y-51000000D01*
X115500000Y-78450000D02*
X115500000Y-79500000D01*
X85932500Y-49500000D02*
X85970000Y-49462500D01*
X151000000Y-52962500D02*
X152462500Y-52962500D01*
X93687500Y-75615000D02*
X92115000Y-75615000D01*
X92115000Y-75615000D02*
X92000000Y-75500000D01*
D71*
X88840436Y-49000000D02*
X91500000Y-49000000D01*
X69387500Y-25112500D02*
X69000000Y-25500000D01*
D70*
X164220000Y-52280000D02*
X164500000Y-52000000D01*
X145175020Y-22311818D02*
X143863202Y-21000000D01*
X146825000Y-37800000D02*
X146825000Y-38675000D01*
X142730000Y-18730000D02*
X140127500Y-18730000D01*
X145462500Y-40037500D02*
X146000000Y-39500000D01*
X164537500Y-24500000D02*
X164537500Y-22137500D01*
X164537500Y-24500000D02*
X164500000Y-24500000D01*
X75470000Y-59062500D02*
X77437500Y-59062500D01*
X127500000Y-53500000D02*
X128000000Y-53500000D01*
X147650000Y-63550000D02*
X150150000Y-63550000D01*
X93687500Y-73385000D02*
X92115000Y-73385000D01*
X140000000Y-35462500D02*
X141037500Y-35462500D01*
X108500000Y-72500000D02*
X108500000Y-74000000D01*
X157600000Y-19600000D02*
X157500000Y-19500000D01*
D71*
X73650000Y-25350000D02*
X73500000Y-25500000D01*
D72*
X149150000Y-85950000D02*
X148750000Y-85550000D01*
D70*
X115175000Y-49525000D02*
X115150000Y-49550000D01*
X88377936Y-49462500D02*
X88840436Y-49000000D01*
D71*
X106150000Y-45625000D02*
X104375000Y-45625000D01*
D73*
%TO.N,Net-(C3-Pad1)*%
X82470000Y-54500000D02*
X83970000Y-54500000D01*
X85020020Y-51762480D02*
X85245000Y-51537500D01*
X85245000Y-51537500D02*
X85970000Y-51537500D01*
X83970000Y-54500000D02*
X84470000Y-54000000D01*
X84470000Y-54000000D02*
X84470000Y-53000000D01*
X84470000Y-54000000D02*
X84470000Y-53500000D01*
X85020020Y-52449980D02*
X85020020Y-51762480D01*
X84470000Y-53000000D02*
X85020020Y-52449980D01*
D70*
%TO.N,Vin*%
X90000000Y-82000000D02*
X91500000Y-80500000D01*
X72962520Y-43574980D02*
X80074980Y-43574980D01*
X147270000Y-18952500D02*
X146197489Y-17879989D01*
X70000000Y-46537500D02*
X72962520Y-43574980D01*
X87274999Y-60774999D02*
X83419999Y-60774999D01*
D71*
X69750000Y-22012500D02*
X69650000Y-21912500D01*
X75470000Y-55937500D02*
X68037500Y-48505000D01*
D70*
X140500000Y-52962500D02*
X138500000Y-52962500D01*
D71*
X73650000Y-22012500D02*
X69750000Y-22012500D01*
D73*
X76650000Y-22550000D02*
X76112500Y-22012500D01*
D70*
X135500000Y-53000000D02*
X135537500Y-52962500D01*
X87500000Y-61000000D02*
X87274999Y-60774999D01*
X121000000Y-80000000D02*
X121000000Y-71500000D01*
X147270000Y-19177500D02*
X147270000Y-18952500D01*
X111220802Y-68625023D02*
X106375023Y-68625023D01*
D73*
X76650000Y-23887500D02*
X76650000Y-22550000D01*
D70*
X80770000Y-44270000D02*
X81372500Y-44270000D01*
X134000000Y-53500000D02*
X131000000Y-56500000D01*
D71*
X62987500Y-48500000D02*
X68037500Y-48500000D01*
D70*
X90000000Y-61000000D02*
X90000000Y-61209414D01*
X143887500Y-53175000D02*
X140712500Y-53175000D01*
D73*
X78150000Y-23887500D02*
X78150000Y-22550000D01*
D70*
X112345825Y-67500000D02*
X111220802Y-68625023D01*
D73*
X75907500Y-55500000D02*
X75470000Y-55937500D01*
D70*
X168650000Y-19010000D02*
X168414999Y-18774999D01*
X168414999Y-18774999D02*
X147672501Y-18774999D01*
D73*
X78145000Y-55000000D02*
X76407500Y-55000000D01*
X78145000Y-55500000D02*
X75907500Y-55500000D01*
D70*
X94659421Y-65868835D02*
X96000000Y-65868835D01*
X80074980Y-43574980D02*
X80770000Y-44270000D01*
X134000000Y-51500000D02*
X134000000Y-53500000D01*
X134000000Y-24500000D02*
X134000000Y-51500000D01*
X118500000Y-82000000D02*
X118500000Y-80500000D01*
D71*
X70000000Y-46537500D02*
X60500000Y-37037500D01*
D70*
X120500000Y-67000000D02*
X120000000Y-67500000D01*
X143887500Y-53825000D02*
X143887500Y-53175000D01*
X146197489Y-17879989D02*
X139120011Y-17879989D01*
D71*
X68037500Y-48500000D02*
X70000000Y-46537500D01*
D70*
X120000000Y-67500000D02*
X112345825Y-67500000D01*
X134000000Y-51500000D02*
X135500000Y-53000000D01*
X134500000Y-24000000D02*
X134000000Y-24500000D01*
X139000000Y-18000000D02*
X139000000Y-24000000D01*
D71*
X69650000Y-21912500D02*
X65150000Y-21912500D01*
D73*
X75470000Y-55937500D02*
X75532500Y-55937500D01*
X78145000Y-55000000D02*
X78145000Y-55500000D01*
D70*
X140712500Y-53175000D02*
X140500000Y-52962500D01*
X98250000Y-67750000D02*
X98000000Y-68000000D01*
D71*
X60500000Y-34000000D02*
X60500000Y-26562500D01*
D73*
X75532500Y-55937500D02*
X76470000Y-55000000D01*
D71*
X60500000Y-37037500D02*
X60500000Y-34000000D01*
D70*
X83419999Y-60774999D02*
X78145000Y-55500000D01*
X139000000Y-24000000D02*
X134500000Y-24000000D01*
X121000000Y-71500000D02*
X123500000Y-69000000D01*
X109000000Y-82000000D02*
X109000000Y-81500000D01*
X106375023Y-68625023D02*
X105500000Y-67750000D01*
D71*
X68037500Y-48505000D02*
X68037500Y-48500000D01*
D70*
X109000000Y-81500000D02*
X110000000Y-80500000D01*
D73*
X76112500Y-22012500D02*
X73650000Y-22012500D01*
D70*
X131000000Y-56500000D02*
X130500000Y-57000000D01*
D73*
X76407500Y-55000000D02*
X75470000Y-55937500D01*
D70*
X105500000Y-67750000D02*
X98250000Y-67750000D01*
D73*
X78150000Y-22550000D02*
X79150000Y-22550000D01*
D70*
X139120011Y-17879989D02*
X139000000Y-18000000D01*
X135537500Y-52962500D02*
X138500000Y-52962500D01*
X147672501Y-18774999D02*
X147270000Y-19177500D01*
X90000000Y-61209414D02*
X94659421Y-65868835D01*
D71*
X60500000Y-26562500D02*
X65150000Y-21912500D01*
D70*
X99500000Y-82000000D02*
X99500000Y-80500000D01*
%TO.N,Crystal_IN*%
X152500000Y-27500000D02*
X153000000Y-28000000D01*
X140000000Y-31462500D02*
X136600000Y-31462500D01*
X136600000Y-31462500D02*
X136500000Y-31562500D01*
X142037500Y-31462500D02*
X146000000Y-27500000D01*
X153000000Y-28000000D02*
X153000000Y-30825000D01*
X146000000Y-27500000D02*
X152500000Y-27500000D01*
X140000000Y-31462500D02*
X142037500Y-31462500D01*
%TO.N,Crystal_OUT*%
X152200000Y-28200000D02*
X152200000Y-30825000D01*
X146500000Y-28000000D02*
X152000000Y-28000000D01*
X140000000Y-37537500D02*
X137462500Y-37537500D01*
X137462500Y-37537500D02*
X136500000Y-38500000D01*
X140000000Y-37537500D02*
X142737500Y-34800000D01*
X142737500Y-34800000D02*
X142737500Y-31762500D01*
X142737500Y-31762500D02*
X146500000Y-28000000D01*
X136500000Y-38500000D02*
X136500000Y-43437500D01*
X152000000Y-28000000D02*
X152200000Y-28200000D01*
D73*
%TO.N,Net-(C9-Pad1)*%
X76432500Y-54000000D02*
X73970000Y-51537500D01*
X78145000Y-54000000D02*
X76432500Y-54000000D01*
%TO.N,Net-(C11-Pad1)*%
X99687500Y-17550000D02*
X100650000Y-17550000D01*
X75987500Y-23887500D02*
X75150000Y-23050000D01*
X76150000Y-23887500D02*
X75987500Y-23887500D01*
X100650000Y-17550000D02*
X101650000Y-17550000D01*
X100650000Y-17550000D02*
X100650000Y-19050000D01*
D70*
%TO.N,NRST*%
X151400000Y-29074990D02*
X151474990Y-29000000D01*
X162462500Y-23377480D02*
X161000000Y-21914980D01*
X157600000Y-17000000D02*
X160000000Y-17000000D01*
X161000000Y-17000000D02*
X160500000Y-17500000D01*
X151400000Y-30825000D02*
X151400000Y-29074990D01*
X162462500Y-24500000D02*
X162462500Y-23377480D01*
X163400000Y-17000000D02*
X161000000Y-17000000D01*
X160000000Y-17000000D02*
X160500000Y-17500000D01*
X161000000Y-21914980D02*
X161000000Y-20000000D01*
D73*
%TO.N,Net-(C14-Pad1)*%
X77650000Y-30050000D02*
X77650000Y-28212500D01*
X75650000Y-32050000D02*
X77650000Y-30050000D01*
X75650000Y-33975000D02*
X75650000Y-32050000D01*
D70*
%TO.N,Galv_GND*%
X74949980Y-66012520D02*
X74949980Y-68449980D01*
X76500000Y-70500000D02*
X62000000Y-85000000D01*
X80314980Y-69000000D02*
X78000000Y-69000000D01*
X74949980Y-68449980D02*
X75000000Y-68500000D01*
X86000000Y-73500000D02*
X86000000Y-74500000D01*
X83500000Y-70310000D02*
X82000000Y-68810000D01*
X87312500Y-75615000D02*
X86115000Y-75615000D01*
X86000000Y-75500000D02*
X86000000Y-74500000D01*
X82690000Y-68810000D02*
X82000000Y-68810000D01*
X86115000Y-73385000D02*
X86000000Y-73500000D01*
X78000000Y-69000000D02*
X76500000Y-70500000D01*
X80504980Y-68810000D02*
X80314980Y-69000000D01*
X83500000Y-71000000D02*
X83500000Y-70310000D01*
X82000000Y-68810000D02*
X80504980Y-68810000D01*
X61500000Y-87500000D02*
X60500000Y-87500000D01*
X77000000Y-71000000D02*
X76500000Y-70500000D01*
X87312500Y-73385000D02*
X86115000Y-73385000D01*
X86115000Y-75615000D02*
X86000000Y-75500000D01*
X62000000Y-87000000D02*
X61500000Y-87500000D01*
X62000000Y-85000000D02*
X62000000Y-87000000D01*
X76000000Y-64962500D02*
X74949980Y-66012520D01*
%TO.N,Galv_Vcc*%
X75025011Y-72974989D02*
X79174989Y-72974989D01*
X76000000Y-68000000D02*
X76000000Y-67037500D01*
X59135011Y-88675011D02*
X61064006Y-88675011D01*
X82000000Y-65000000D02*
X78037500Y-65000000D01*
X81000000Y-73750000D02*
X79950000Y-73750000D01*
X62500000Y-87239017D02*
X62500000Y-85500000D01*
X57960000Y-87500000D02*
X59135011Y-88675011D01*
X79174989Y-72974989D02*
X79950000Y-73750000D01*
X82500000Y-75750000D02*
X81000000Y-74250000D01*
X62500000Y-85500000D02*
X75025011Y-72974989D01*
X81000000Y-74250000D02*
X81000000Y-73750000D01*
X78037500Y-65000000D02*
X76000000Y-67037500D01*
X61064006Y-88675011D02*
X62500000Y-87239017D01*
%TO.N,REF-3V*%
X151000000Y-55037500D02*
X149787500Y-53825000D01*
X152774999Y-36774999D02*
X153000000Y-37000000D01*
X149787500Y-53825000D02*
X148112500Y-53825000D01*
X150600000Y-35383375D02*
X151991624Y-36774999D01*
X150600000Y-30825000D02*
X150600000Y-35383375D01*
X151991624Y-36774999D02*
X152774999Y-36774999D01*
X149787500Y-53825000D02*
X149787500Y-53222661D01*
X149787500Y-53222661D02*
X149674990Y-53110151D01*
D73*
%TO.N,Net-(C17-Pad1)*%
X77650000Y-32050000D02*
X77650000Y-33975000D01*
D70*
%TO.N,+3V3*%
X158000000Y-37000000D02*
X159500000Y-38500000D01*
X150000000Y-37000000D02*
X149788576Y-37000000D01*
X150962500Y-51000000D02*
X152012520Y-49949980D01*
X151727662Y-35247032D02*
X151488963Y-35247032D01*
D74*
X164500000Y-41000000D02*
X165000000Y-41500000D01*
X167000000Y-51000000D02*
X162000000Y-51000000D01*
D70*
X152487347Y-34487347D02*
X151727662Y-35247032D01*
D73*
X93107500Y-54500000D02*
X93470000Y-54862500D01*
D74*
X164650020Y-41650020D02*
X165150020Y-41650020D01*
X166945011Y-52304989D02*
X167000000Y-52359978D01*
D70*
X97100011Y-58899989D02*
X92527009Y-58899989D01*
D71*
X119371998Y-58500000D02*
X118821986Y-59050012D01*
D70*
X91090416Y-45974980D02*
X81495020Y-45974980D01*
X91500000Y-58342500D02*
X91500000Y-57215000D01*
X86937500Y-62905000D02*
X91500000Y-58342500D01*
D74*
X167000000Y-52250000D02*
X167000000Y-51000000D01*
D70*
X149788576Y-37000000D02*
X148200000Y-38588576D01*
X153449980Y-27524980D02*
X154500000Y-28575000D01*
D71*
X131028001Y-58100001D02*
X127175032Y-58100001D01*
D70*
X153800000Y-33174695D02*
X152487347Y-34487347D01*
X86937500Y-64987500D02*
X86950000Y-65000000D01*
D74*
X167000000Y-51000000D02*
X167000000Y-43500000D01*
D71*
X94115436Y-49000000D02*
X94115436Y-53492064D01*
D70*
X154500000Y-30125000D02*
X153800000Y-30825000D01*
X94115436Y-49000000D02*
X91090416Y-45974980D01*
X146475000Y-49475000D02*
X146500000Y-49500000D01*
X163474980Y-41525020D02*
X159525020Y-41525020D01*
D74*
X163849980Y-41650020D02*
X164650020Y-41650020D01*
D70*
X164500000Y-32500000D02*
X165000000Y-32500000D01*
D73*
X79932500Y-49500000D02*
X79970000Y-49462500D01*
D74*
X164500000Y-40500000D02*
X164500000Y-41500000D01*
X159500000Y-41500000D02*
X159650020Y-41650020D01*
D70*
X96474680Y-65000000D02*
X96987340Y-65512660D01*
X90774999Y-60651999D02*
X90774999Y-61348001D01*
D74*
X167000000Y-43500000D02*
X165500000Y-42000000D01*
D70*
X159525020Y-41525020D02*
X159500000Y-41500000D01*
D71*
X118821986Y-59050012D02*
X96550012Y-59050012D01*
X93107500Y-54500000D02*
X93107500Y-55607500D01*
D70*
X152012520Y-49949980D02*
X155022982Y-49949980D01*
X94426998Y-65000000D02*
X96474680Y-65000000D01*
D71*
X96550012Y-59050012D02*
X96500000Y-59000000D01*
D74*
X164650020Y-41650020D02*
X164849980Y-41650020D01*
D71*
X127175032Y-58100001D02*
X127075031Y-58000000D01*
D70*
X148200000Y-39175000D02*
X148200000Y-40837500D01*
D71*
X121500000Y-58500000D02*
X119371998Y-58500000D01*
D74*
X167000000Y-51000000D02*
X160500000Y-51000000D01*
X164500000Y-40500000D02*
X164500000Y-41000000D01*
D70*
X99000000Y-72500000D02*
X97000000Y-70500000D01*
D71*
X96550012Y-59050012D02*
X93107500Y-55607500D01*
X131628002Y-57500000D02*
X131028001Y-58100001D01*
D74*
X159650020Y-41650020D02*
X163849980Y-41650020D01*
X152500000Y-57500000D02*
X156258002Y-57500000D01*
D70*
X153449980Y-23025020D02*
X153449980Y-27524980D01*
X154500000Y-28575000D02*
X154500000Y-30125000D01*
X155022982Y-49949980D02*
X158000000Y-52926998D01*
X148200000Y-38588576D02*
X148200000Y-39175000D01*
X92527009Y-58899989D02*
X90774999Y-60651999D01*
D74*
X164500000Y-41000000D02*
X163849980Y-41650020D01*
D73*
X75970000Y-49500000D02*
X79932500Y-49500000D01*
D71*
X152500000Y-57500000D02*
X131628002Y-57500000D01*
D70*
X168650000Y-54010000D02*
X167069989Y-52429989D01*
X165000000Y-32500000D02*
X166000000Y-33500000D01*
X152487347Y-34487347D02*
X153206814Y-35206814D01*
X146500000Y-49500000D02*
X148000000Y-51000000D01*
D71*
X152500000Y-57500000D02*
X154000000Y-57500000D01*
D74*
X167000000Y-52359978D02*
X167000000Y-52360000D01*
D70*
X97000000Y-70500000D02*
X97000000Y-68500000D01*
X91500000Y-57215000D02*
X93107500Y-55607500D01*
X158000000Y-52926998D02*
X158000000Y-53000000D01*
D74*
X167000000Y-52360000D02*
X168650000Y-54010000D01*
D70*
X153800000Y-30825000D02*
X153800000Y-33174695D01*
X81495020Y-45974980D02*
X77970000Y-49500000D01*
X90774999Y-61348001D02*
X94426998Y-65000000D01*
X167000000Y-52359978D02*
X166929989Y-52429989D01*
D71*
X89045000Y-54500000D02*
X93107500Y-54500000D01*
D70*
X153975000Y-22500000D02*
X153449980Y-23025020D01*
D74*
X156258002Y-57500000D02*
X158000000Y-55758002D01*
D70*
X86937500Y-62905000D02*
X86937500Y-64987500D01*
D74*
X158695011Y-52304989D02*
X158000000Y-53000000D01*
D70*
X148000000Y-51000000D02*
X150962500Y-51000000D01*
X143137500Y-49475000D02*
X146475000Y-49475000D01*
X159500000Y-38500000D02*
X159500000Y-39500000D01*
D74*
X158000000Y-55758002D02*
X158000000Y-53000000D01*
X166945011Y-52304989D02*
X167000000Y-52250000D01*
X159195011Y-52304989D02*
X158695011Y-52304989D01*
D70*
X164500000Y-40500000D02*
X163474980Y-41525020D01*
D74*
X165500000Y-42000000D02*
X165000000Y-41500000D01*
D70*
X167069989Y-52429989D02*
X166929989Y-52429989D01*
X167000000Y-43500000D02*
X167000000Y-52359978D01*
D74*
X164500000Y-41500000D02*
X164650020Y-41650020D01*
X160500000Y-51000000D02*
X159195011Y-52304989D01*
D71*
X94115436Y-53492064D02*
X93107500Y-54500000D01*
D70*
X148200000Y-40837500D02*
X147537500Y-41500000D01*
D74*
X164849980Y-41650020D02*
X165000000Y-41500000D01*
D70*
X153206814Y-35206814D02*
X153732136Y-35206814D01*
D74*
X165150020Y-41650020D02*
X165500000Y-42000000D01*
D73*
%TO.N,Net-(C20-Pad2)*%
X86395000Y-55000000D02*
X86895000Y-54500000D01*
X84332500Y-57500000D02*
X84332500Y-55137500D01*
X84332500Y-55137500D02*
X84470000Y-55000000D01*
X84470000Y-55000000D02*
X86395000Y-55000000D01*
X82470000Y-55000000D02*
X84470000Y-55000000D01*
%TO.N,Net-(C20-Pad1)*%
X82607500Y-57500000D02*
X82607500Y-55637500D01*
X82607500Y-55637500D02*
X82470000Y-55500000D01*
%TO.N,Net-(C21-Pad1)*%
X77970000Y-51500000D02*
X81977936Y-51500000D01*
X78145000Y-51675000D02*
X77970000Y-51500000D01*
X78145000Y-53500000D02*
X78145000Y-51675000D01*
%TO.N,Net-(C22-Pad2)*%
X78200000Y-21000000D02*
X77150000Y-22050000D01*
X78687500Y-20587500D02*
X78899999Y-20799999D01*
X83450000Y-21000000D02*
X83249999Y-20799999D01*
D71*
X83450000Y-26850000D02*
X83650000Y-27050000D01*
D73*
X78899999Y-20799999D02*
X78400001Y-20799999D01*
X77150000Y-22050000D02*
X77150000Y-23887500D01*
X78400001Y-20799999D02*
X78475001Y-20799999D01*
X78200000Y-21000000D02*
X78150000Y-21050000D01*
X78400001Y-20799999D02*
X78200000Y-21000000D01*
X83249999Y-20799999D02*
X78899999Y-20799999D01*
X78475001Y-20799999D02*
X78687500Y-20587500D01*
D71*
X83450000Y-21000000D02*
X83450000Y-26850000D01*
D73*
X78687500Y-19050000D02*
X78687500Y-20587500D01*
%TO.N,Net-(C22-Pad1)*%
X77650000Y-22257136D02*
X78253568Y-21653568D01*
X77650000Y-23887500D02*
X77650000Y-22257136D01*
X76650000Y-19087500D02*
X76612500Y-19050000D01*
X78357136Y-21550000D02*
X79150000Y-21550000D01*
X78253568Y-21653568D02*
X78357136Y-21550000D01*
X76650000Y-20550000D02*
X76650000Y-19087500D01*
D75*
%TO.N,V+*%
X101150000Y-21000000D02*
X100650000Y-21500000D01*
X106150000Y-40550000D02*
X108150000Y-40550000D01*
D70*
X88150000Y-21050000D02*
X89800000Y-21050000D01*
D75*
X102250000Y-36650000D02*
X106150000Y-40550000D01*
D70*
X109187500Y-50550000D02*
X109187500Y-52082500D01*
D75*
X101150000Y-21000000D02*
X103600000Y-21000000D01*
X89850000Y-21000000D02*
X94150000Y-21000000D01*
D70*
X121245000Y-43645000D02*
X120125000Y-43645000D01*
X120650000Y-41550000D02*
X120150000Y-41550000D01*
X110650000Y-48050000D02*
X110650000Y-42050000D01*
X112500020Y-40499980D02*
X112400000Y-40600000D01*
D75*
X102650000Y-33050000D02*
X102250000Y-33450000D01*
X109150000Y-39550000D02*
X109150000Y-19050000D01*
X102250000Y-35550000D02*
X102250000Y-36650000D01*
D70*
X89800000Y-21050000D02*
X89850000Y-21000000D01*
D75*
X94650000Y-21500000D02*
X94150000Y-21000000D01*
D70*
X119599980Y-40499980D02*
X112500020Y-40499980D01*
X121150000Y-49550000D02*
X121425020Y-49274980D01*
X111173017Y-39500000D02*
X109200000Y-39500000D01*
D75*
X94150000Y-21000000D02*
X101150000Y-21000000D01*
D70*
X120125000Y-41075000D02*
X120150000Y-41050000D01*
X80150000Y-25050000D02*
X81150000Y-25050000D01*
X121425020Y-49274980D02*
X121425020Y-43825020D01*
D75*
X105150000Y-31050000D02*
X103150000Y-33050000D01*
D70*
X120150000Y-41550000D02*
X120125000Y-41525000D01*
X120125000Y-43645000D02*
X120125000Y-41525000D01*
X112400000Y-40600000D02*
X112100000Y-40600000D01*
X121150000Y-51500000D02*
X121150000Y-49550000D01*
X109200000Y-39500000D02*
X109150000Y-39550000D01*
X120650000Y-41550000D02*
X119599980Y-40499980D01*
X110650000Y-42050000D02*
X112100000Y-40600000D01*
X109187500Y-50550000D02*
X109187500Y-49512500D01*
X121425020Y-43825020D02*
X121245000Y-43645000D01*
X112100000Y-40426983D02*
X111173017Y-39500000D01*
D75*
X103600000Y-21000000D02*
X105150000Y-22550000D01*
D70*
X109187500Y-49512500D02*
X110650000Y-48050000D01*
D75*
X108150000Y-40550000D02*
X109150000Y-39550000D01*
X102250000Y-33450000D02*
X102250000Y-35550000D01*
D70*
X81150000Y-25050000D02*
X81650000Y-24550000D01*
X120125000Y-41525000D02*
X120125000Y-41075000D01*
D75*
X100650000Y-21500000D02*
X100650000Y-23362500D01*
D70*
X109187500Y-52082500D02*
X108625000Y-52645000D01*
D75*
X105150000Y-22550000D02*
X105150000Y-31050000D01*
D70*
X112100000Y-40600000D02*
X112100000Y-40426983D01*
D75*
X94650000Y-23362500D02*
X94650000Y-21500000D01*
X103150000Y-33050000D02*
X102650000Y-33050000D01*
D70*
%TO.N,Vref_LDO*%
X122950000Y-39087500D02*
X122537500Y-39500000D01*
X99650000Y-51550000D02*
X100650000Y-51550000D01*
X103650000Y-49550000D02*
X103650000Y-49050000D01*
X99650000Y-52550000D02*
X99650000Y-54550000D01*
X99650000Y-52550000D02*
X99650000Y-51550000D01*
X122950000Y-37330000D02*
X122950000Y-39087500D01*
X110150000Y-41524680D02*
X111137340Y-40537340D01*
X100650000Y-51550000D02*
X101150000Y-52050000D01*
X102650000Y-50550000D02*
X103650000Y-49550000D01*
X110150000Y-47550000D02*
X110150000Y-41524680D01*
X103650000Y-49050000D02*
X108650000Y-49050000D01*
X99650000Y-52550000D02*
X99650000Y-52050000D01*
X108650000Y-49050000D02*
X110150000Y-47550000D01*
D75*
%TO.N,Vout*%
X125275021Y-71924979D02*
X125275021Y-56724979D01*
X127324979Y-71924979D02*
X130950000Y-75550000D01*
X142450000Y-82250000D02*
X147650000Y-77050000D01*
D70*
X147420000Y-69320000D02*
X147650000Y-69550000D01*
D75*
X124650000Y-48550000D02*
X124650000Y-38491145D01*
D70*
X141022500Y-69320000D02*
X147420000Y-69320000D01*
X147650000Y-69550000D02*
X150150000Y-69550000D01*
D71*
X124650000Y-37330000D02*
X124775022Y-37455022D01*
D70*
X71500000Y-46500000D02*
X71500000Y-49500000D01*
X71650000Y-36050000D02*
X71650000Y-43850000D01*
X92500000Y-62000000D02*
X91500000Y-61000000D01*
X71500000Y-54000000D02*
X75574980Y-58074980D01*
D75*
X125275021Y-49175021D02*
X124650000Y-48550000D01*
D70*
X75574980Y-58074980D02*
X78808182Y-58074980D01*
X147650000Y-69550000D02*
X147650000Y-75550000D01*
X78808182Y-58074980D02*
X82233202Y-61500000D01*
D75*
X125275021Y-71924979D02*
X127324979Y-71924979D01*
X125275021Y-56724979D02*
X125275021Y-49175021D01*
D70*
X125550042Y-57000000D02*
X125275021Y-56724979D01*
X119500000Y-60000000D02*
X117500000Y-62000000D01*
D72*
X147650000Y-75550000D02*
X130950000Y-75550000D01*
D75*
X124650000Y-48550000D02*
X128750000Y-48550000D01*
D72*
X125500000Y-81000000D02*
X125500000Y-84000000D01*
D75*
X128750000Y-48550000D02*
X129150000Y-48150000D01*
D70*
X117500000Y-62000000D02*
X92500000Y-62000000D01*
X71650000Y-43850000D02*
X71500000Y-44000000D01*
X71500000Y-49500000D02*
X72000000Y-50000000D01*
D75*
X147650000Y-77050000D02*
X147650000Y-75550000D01*
D72*
X130950000Y-75550000D02*
X125500000Y-81000000D01*
D70*
X82233202Y-61500000D02*
X86000000Y-61500000D01*
D75*
X142450000Y-83270000D02*
X142450000Y-82250000D01*
D70*
X128500000Y-57000000D02*
X125550042Y-57000000D01*
%TO.N,Iout_ADC*%
X149000000Y-35432980D02*
X148500000Y-35932980D01*
X114150000Y-55050000D02*
X108760000Y-55050000D01*
X114112500Y-57050000D02*
X114112500Y-55087500D01*
X108760000Y-55050000D02*
X108625000Y-55185000D01*
X149000000Y-30825000D02*
X149000000Y-35432980D01*
X114112500Y-55087500D02*
X114150000Y-55050000D01*
%TO.N,Vout_ADC*%
X151500000Y-64200000D02*
X151500000Y-62500000D01*
X151500000Y-62500000D02*
X148500000Y-59500000D01*
X150150000Y-67550000D02*
X147650000Y-67550000D01*
X150150000Y-65550000D02*
X151500000Y-64200000D01*
X150075000Y-65625000D02*
X150150000Y-65550000D01*
X149800000Y-35329271D02*
X151970729Y-37500000D01*
X149800000Y-30825000D02*
X149800000Y-35329271D01*
X147650000Y-67550000D02*
X147650000Y-65625000D01*
X147650000Y-65625000D02*
X150075000Y-65625000D01*
%TO.N,Net-(D2-Pad3)*%
X164500000Y-34500000D02*
X168622000Y-34500000D01*
X168622000Y-34500000D02*
X168650000Y-34472000D01*
%TO.N,Net-(D2-Pad2)*%
X164500000Y-36500000D02*
X168519000Y-36500000D01*
X168519000Y-36500000D02*
X168650000Y-36631000D01*
%TO.N,Net-(D2-Pad1)*%
X164500000Y-38500000D02*
X168360000Y-38500000D01*
X168360000Y-38500000D02*
X168650000Y-38790000D01*
%TO.N,Net-(D3-Pad1)*%
X168650000Y-21550000D02*
X168650000Y-22350000D01*
X168450000Y-21550000D02*
X168650000Y-21550000D01*
X168650000Y-22350000D02*
X164500000Y-26500000D01*
%TO.N,EN_Vout*%
X152200000Y-39175000D02*
X152200000Y-38300000D01*
X103650000Y-17550000D02*
X105050000Y-17550000D01*
X152500000Y-38000000D02*
X154000000Y-38000000D01*
X106500000Y-19000000D02*
X107500000Y-20000000D01*
X112999999Y-47499999D02*
X112999999Y-50636410D01*
X152200000Y-39175000D02*
X152200000Y-40700000D01*
X170500000Y-59160000D02*
X170500000Y-55500000D01*
X168650000Y-61010000D02*
X170500000Y-59160000D01*
X109000000Y-42500000D02*
X109000000Y-47500000D01*
X153649966Y-38000000D02*
X152500000Y-38000000D01*
X117713202Y-53000000D02*
X122500000Y-53000000D01*
X112999999Y-50636410D02*
X113488538Y-51124949D01*
X113488538Y-51124949D02*
X115838151Y-51124949D01*
X144500000Y-43000000D02*
X144500000Y-42500000D01*
X152200000Y-38300000D02*
X152500000Y-38000000D01*
X170500000Y-31500000D02*
X170000000Y-31000000D01*
X115838151Y-51124949D02*
X117713202Y-53000000D01*
X169000000Y-30000000D02*
X163500000Y-30000000D01*
X152500000Y-41000000D02*
X152500000Y-41500000D01*
X107500000Y-20000000D02*
X107500000Y-38000000D01*
X170000000Y-31000000D02*
X169000000Y-30000000D01*
X170500000Y-55500000D02*
X170500000Y-31500000D01*
X151000000Y-43000000D02*
X144500000Y-43000000D01*
X105050000Y-17550000D02*
X106500000Y-19000000D01*
X122500000Y-53000000D02*
X122512660Y-53012660D01*
X153824966Y-37825000D02*
X153649966Y-38000000D01*
X152200000Y-40700000D02*
X152500000Y-41000000D01*
X144500000Y-42500000D02*
X144000000Y-42000000D01*
X152500000Y-41500000D02*
X151000000Y-43000000D01*
%TO.N,Net-(D4-Pad1)*%
X164500000Y-63500000D02*
X168600000Y-63500000D01*
X168600000Y-63500000D02*
X168650000Y-63550000D01*
%TO.N,Error*%
X154500000Y-51000000D02*
X154500000Y-56149990D01*
X153000000Y-39925000D02*
X154087660Y-41012660D01*
X153000000Y-39175000D02*
X153000000Y-39925000D01*
X154087660Y-41012660D02*
X154274990Y-41012660D01*
X167010000Y-26010000D02*
X167000000Y-26000000D01*
X168650000Y-26010000D02*
X167010000Y-26010000D01*
X154500000Y-56149990D02*
X155000000Y-56649990D01*
%TO.N,Net-(D5-Pad1)*%
X168600000Y-28500000D02*
X168650000Y-28550000D01*
X164500000Y-28500000D02*
X168600000Y-28500000D01*
%TO.N,CCLed*%
X162880000Y-56550000D02*
X162150000Y-55820000D01*
X162150000Y-54280000D02*
X162150000Y-55820000D01*
X168650000Y-56550000D02*
X162880000Y-56550000D01*
D75*
%TO.N,Net-(C32-Pad1)*%
X116987500Y-36487500D02*
X116987500Y-35500000D01*
X127930000Y-37330000D02*
X125829989Y-35229989D01*
X116462500Y-37037500D02*
X117000000Y-36500000D01*
X125829989Y-35229989D02*
X118957511Y-35229989D01*
X116462500Y-38000000D02*
X116462500Y-37037500D01*
D71*
X126350000Y-37330000D02*
X128050000Y-37330000D01*
D75*
X128050000Y-37330000D02*
X127930000Y-37330000D01*
X118687500Y-35500000D02*
X118957511Y-35229989D01*
X117000000Y-36500000D02*
X116987500Y-36487500D01*
X131430000Y-40710000D02*
X128050000Y-37330000D01*
X116987500Y-35500000D02*
X118687500Y-35500000D01*
X131430000Y-41850000D02*
X131430000Y-40710000D01*
D70*
%TO.N,Net-(F1-Pad1)*%
X120125000Y-47455000D02*
X119150000Y-47455000D01*
X112150000Y-37050000D02*
X113162660Y-38062660D01*
D75*
X112500000Y-35500000D02*
X112150000Y-35150000D01*
X114012500Y-35500000D02*
X112500000Y-35500000D01*
D70*
X119150000Y-47455000D02*
X117650481Y-45955481D01*
D75*
X112150000Y-35150000D02*
X112150000Y-19050000D01*
X112150000Y-37050000D02*
X112150000Y-35150000D01*
D70*
X117650481Y-45955481D02*
X117650481Y-45524528D01*
X113162660Y-38062660D02*
X113162660Y-38775010D01*
D72*
%TO.N,Net-(F2-Pad1)*%
X125799980Y-90199980D02*
X112580540Y-90199980D01*
X112505498Y-90275022D02*
X83624978Y-90275022D01*
X83624978Y-90275022D02*
X78500000Y-95400000D01*
X131000000Y-95400000D02*
X125799980Y-90199980D01*
X112580540Y-90199980D02*
X112505498Y-90275022D01*
D71*
%TO.N,Vin Polly*%
X60000000Y-48512500D02*
X60012500Y-48500000D01*
X60000000Y-53460000D02*
X60000000Y-48512500D01*
D70*
%TO.N,Net-(D9-Pad1)*%
X92000000Y-85000000D02*
X92000000Y-86500000D01*
X92000000Y-82000000D02*
X92000000Y-85000000D01*
%TO.N,ADDR1*%
X142800044Y-42572868D02*
X145299969Y-45072793D01*
X146075000Y-36200000D02*
X143300044Y-38974956D01*
X143300044Y-38974956D02*
X143300041Y-40745608D01*
X146825000Y-36200000D02*
X146075000Y-36200000D01*
X142800044Y-41245603D02*
X142800044Y-42572868D01*
X147975000Y-49475000D02*
X148862500Y-49475000D01*
X143300041Y-40745608D02*
X142800044Y-41245603D01*
X148862500Y-49475000D02*
X156475000Y-49475000D01*
X145299969Y-46799969D02*
X147975000Y-49475000D01*
X145299969Y-45072793D02*
X145299969Y-46799969D01*
X156475000Y-49475000D02*
X157000000Y-50000000D01*
%TO.N,ADDR2*%
X143250055Y-41432003D02*
X143750052Y-40932009D01*
X148125000Y-48825000D02*
X145749980Y-46449980D01*
X148862500Y-48825000D02*
X155675000Y-48825000D01*
X145749980Y-46449980D02*
X145749980Y-44886392D01*
X148862500Y-48825000D02*
X148125000Y-48825000D01*
X143750055Y-39324933D02*
X146074988Y-37000000D01*
X143750052Y-40932009D02*
X143750055Y-39324933D01*
X156500000Y-48000000D02*
X155675000Y-48825000D01*
X145749980Y-44886392D02*
X143250055Y-42386467D01*
X143250055Y-42386467D02*
X143250055Y-41432003D01*
X146074988Y-37000000D02*
X146825000Y-37000000D01*
X157000000Y-48000000D02*
X156500000Y-48000000D01*
%TO.N,ADDR3*%
X157225001Y-37782480D02*
X158342543Y-38900022D01*
X155363496Y-36811504D02*
X156848001Y-36811504D01*
X157000000Y-45000000D02*
X157000000Y-46000000D01*
X155925000Y-37000000D02*
X155175000Y-37000000D01*
X157225001Y-37188504D02*
X157225001Y-37782480D01*
X154825000Y-48175000D02*
X155250000Y-47750000D01*
X155175000Y-37000000D02*
X155363496Y-36811504D01*
X157000000Y-46000000D02*
X155250000Y-47750000D01*
X156848001Y-36811504D02*
X157225001Y-37188504D01*
X148862500Y-48175000D02*
X154825000Y-48175000D01*
%TO.N,Boot0*%
X156250020Y-32674980D02*
X156250020Y-22235020D01*
X156250020Y-22235020D02*
X153975000Y-19960000D01*
X155175000Y-33000000D02*
X155925000Y-33000000D01*
X155925000Y-33000000D02*
X156250020Y-32674980D01*
D72*
%TO.N,Virt-Bus1*%
X61260000Y-109600000D02*
X60500000Y-110360000D01*
X102000000Y-109600000D02*
X84500000Y-109600000D01*
X84500000Y-109600000D02*
X61260000Y-109600000D01*
%TO.N,Virt-Bus2*%
X106000000Y-103500000D02*
X69000000Y-103500000D01*
X65700000Y-100200000D02*
X60500000Y-100200000D01*
X112100000Y-109600000D02*
X106000000Y-103500000D01*
X69000000Y-103500000D02*
X65700000Y-100200000D01*
X137000000Y-109600000D02*
X119500000Y-109600000D01*
X119500000Y-109600000D02*
X112100000Y-109600000D01*
D70*
%TO.N,Galv_SDA*%
X61942189Y-83784989D02*
X59135011Y-83784989D01*
X79457178Y-66270000D02*
X61942189Y-83784989D01*
X82000000Y-66270000D02*
X79457178Y-66270000D01*
X59135011Y-83784989D02*
X57960000Y-84960000D01*
%TO.N,Galv_Enable*%
X77750000Y-76000000D02*
X78000000Y-75750000D01*
X63500000Y-88779017D02*
X63500000Y-86000000D01*
X59324989Y-91404989D02*
X60874028Y-91404989D01*
X63500000Y-86000000D02*
X71500000Y-78000000D01*
X77000000Y-76000000D02*
X77750000Y-76000000D01*
X71500000Y-78000000D02*
X72500000Y-78000000D01*
X57960000Y-90040000D02*
X59324989Y-91404989D01*
X60874028Y-91404989D02*
X63500000Y-88779017D01*
%TO.N,Galv_Interrupt*%
X71863589Y-77000000D02*
X83250000Y-77000000D01*
X83250000Y-77000000D02*
X83474980Y-76775020D01*
X63049989Y-87490011D02*
X63049989Y-85813600D01*
X87312500Y-76885000D02*
X85635000Y-76885000D01*
X85635000Y-76885000D02*
X84500000Y-75750000D01*
X63049989Y-85813600D02*
X71863589Y-77000000D01*
X60500000Y-90040000D02*
X63049989Y-87490011D01*
X83250000Y-77000000D02*
X84500000Y-75750000D01*
%TO.N,Galv_SCL*%
X61403589Y-84960000D02*
X78823589Y-67540000D01*
X78823589Y-67540000D02*
X82000000Y-67540000D01*
X60500000Y-84960000D02*
X61403589Y-84960000D01*
D73*
%TO.N,Net-(Q1-Pad3)*%
X80150000Y-27050000D02*
X79175017Y-28024983D01*
X77150000Y-28212500D02*
X77150000Y-29842864D01*
X76192863Y-30800001D02*
X75174989Y-30800001D01*
D70*
X73535010Y-32210000D02*
X73650000Y-32324990D01*
D73*
X79175017Y-30246755D02*
X79753252Y-30824990D01*
X73650000Y-34050000D02*
X73650000Y-32324990D01*
X75174989Y-30800001D02*
X73650000Y-32324990D01*
X79753252Y-30824990D02*
X80150000Y-30824990D01*
X79175017Y-28024983D02*
X79175017Y-30246755D01*
X77150000Y-29842864D02*
X76192863Y-30800001D01*
D70*
X71650000Y-29527500D02*
X71570000Y-29447500D01*
%TO.N,Net-(Q1-Pad2)*%
X71650000Y-34050000D02*
X71080000Y-33480000D01*
%TO.N,CL_PD*%
X100150000Y-49050000D02*
X102150000Y-49050000D01*
X100150000Y-46050000D02*
X99000000Y-44900000D01*
X100150000Y-49050000D02*
X100150000Y-46050000D01*
X99000000Y-44900000D02*
X99000000Y-43500000D01*
%TO.N,Net-(Q6-Pad2)*%
X116150000Y-52800389D02*
X114924580Y-51574969D01*
X97000000Y-45500000D02*
X97000000Y-44450000D01*
X113302147Y-51574969D02*
X112190763Y-50463585D01*
X114924580Y-51574969D02*
X113302147Y-51574969D01*
X112190763Y-50463585D02*
X112190763Y-48225010D01*
X116150000Y-53050000D02*
X116150000Y-52800389D01*
%TO.N,Net-(Q7-Pad2)*%
X161150000Y-52280000D02*
X159150000Y-54280000D01*
X159420000Y-54550000D02*
X159150000Y-54280000D01*
X161200000Y-52280000D02*
X161150000Y-52280000D01*
%TO.N,Net-(Q8-Pad1)*%
X78050000Y-73800000D02*
X80000000Y-75750000D01*
D73*
%TO.N,Net-(R2-Pad1)*%
X83470000Y-54000000D02*
X83970000Y-53500000D01*
X83970000Y-53500000D02*
X83970000Y-51500000D01*
X82470000Y-54000000D02*
X83470000Y-54000000D01*
%TO.N,Net-(R7-Pad2)*%
X78150000Y-28212500D02*
X78150000Y-30160002D01*
X78150000Y-30160002D02*
X79650000Y-31660002D01*
X79650000Y-31660002D02*
X79650000Y-34050000D01*
D70*
%TO.N,SDA*%
X162500000Y-32500000D02*
X161500000Y-32500000D01*
X154975000Y-34000000D02*
X155175000Y-33800000D01*
X143488080Y-47174420D02*
X143488080Y-46488080D01*
X143137500Y-47525000D02*
X143488080Y-47174420D01*
X98769752Y-66593836D02*
X102910650Y-62452938D01*
X120277926Y-60500000D02*
X122000000Y-60500000D01*
X154000000Y-34000000D02*
X154975000Y-34000000D01*
X161500000Y-32500000D02*
X160200000Y-33800000D01*
X86950000Y-66270000D02*
X87273836Y-66593836D01*
X87273836Y-66593836D02*
X98769752Y-66593836D01*
X102910650Y-62452938D02*
X117824988Y-62452938D01*
X118965598Y-61812328D02*
X120277926Y-60500000D01*
X117824988Y-62452938D02*
X118465599Y-61812328D01*
X160200000Y-33800000D02*
X155175000Y-33800000D01*
X118465599Y-61812328D02*
X118965598Y-61812328D01*
%TO.N,SCL*%
X143826070Y-48175000D02*
X144500000Y-47501070D01*
X122000000Y-61500000D02*
X121237661Y-62262339D01*
X143137500Y-48175000D02*
X143826070Y-48175000D01*
X121237661Y-62262339D02*
X118651999Y-62262339D01*
X155175000Y-37800000D02*
X156236505Y-37800000D01*
X144500000Y-47501070D02*
X144500000Y-46500000D01*
X99450011Y-67049989D02*
X87440011Y-67049989D01*
X157875000Y-40500000D02*
X155175000Y-37800000D01*
X87440011Y-67049989D02*
X86950000Y-67540000D01*
X101500000Y-65000000D02*
X99450011Y-67049989D01*
X118651999Y-62262339D02*
X115914338Y-65000000D01*
X157875000Y-40500000D02*
X162500000Y-40500000D01*
X115914338Y-65000000D02*
X101500000Y-65000000D01*
X156236505Y-37800000D02*
X156500000Y-37536505D01*
%TO.N,Net-(R19-Pad2)*%
X140500000Y-24000000D02*
X140500000Y-21642500D01*
X140500000Y-21642500D02*
X140127500Y-21270000D01*
X144250000Y-23000000D02*
X142520000Y-21270000D01*
X142520000Y-21270000D02*
X140127500Y-21270000D01*
%TO.N,Net-(R19-Pad1)*%
X146250000Y-19427500D02*
X146000000Y-19177500D01*
X146250000Y-23000000D02*
X146250000Y-19427500D01*
%TO.N,Temp_1*%
X143500000Y-25500000D02*
X143500000Y-25000000D01*
X144250000Y-25000000D02*
X143500000Y-25000000D01*
X143000000Y-26000000D02*
X143500000Y-25500000D01*
X148000000Y-30625000D02*
X148200000Y-30825000D01*
X148000000Y-29500000D02*
X148000000Y-30625000D01*
X143500000Y-25000000D02*
X142500000Y-24000000D01*
%TO.N,Net-(R22-Pad2)*%
X77500000Y-44500000D02*
X78120011Y-45120011D01*
X84960000Y-40000000D02*
X84960000Y-43540000D01*
X78120011Y-45120011D02*
X83379989Y-45120011D01*
X83379989Y-45120011D02*
X84500000Y-44000000D01*
X84960000Y-43540000D02*
X84500000Y-44000000D01*
%TO.N,Net-(R22-Pad1)*%
X77500000Y-42500000D02*
X78000000Y-43000000D01*
X78000000Y-43000000D02*
X81372500Y-43000000D01*
%TO.N,Temp_2*%
X141500000Y-40000000D02*
X139000000Y-42500000D01*
X113674939Y-50674938D02*
X113500000Y-50499999D01*
X96616138Y-47500000D02*
X96000000Y-46883862D01*
X113500000Y-48958735D02*
X113958735Y-48500000D01*
X146075000Y-32200000D02*
X141500000Y-36775000D01*
X121974980Y-52525020D02*
X118561818Y-52525020D01*
X86500000Y-44000000D02*
X88500000Y-44000000D01*
X95500000Y-45500000D02*
X88500000Y-45500000D01*
X117849614Y-52500000D02*
X116024552Y-50674938D01*
X146825000Y-32200000D02*
X146075000Y-32200000D01*
X122500000Y-52000000D02*
X121974980Y-52525020D01*
X98500000Y-47500000D02*
X96616138Y-47500000D01*
X88500000Y-45500000D02*
X88500000Y-44000000D01*
X141500000Y-36775000D02*
X141500000Y-40000000D01*
X118536798Y-52500000D02*
X117849614Y-52500000D01*
X118561818Y-52525020D02*
X118536798Y-52500000D01*
X96000000Y-46883862D02*
X96000000Y-46000000D01*
X139000000Y-42500000D02*
X139000000Y-44500000D01*
X96000000Y-46000000D02*
X95500000Y-45500000D01*
X116024552Y-50674938D02*
X113674939Y-50674938D01*
X113500000Y-50499999D02*
X113500000Y-48958735D01*
%TO.N,RGB_R*%
X160700000Y-36200000D02*
X155175000Y-36200000D01*
X162500000Y-38500000D02*
X161500000Y-37500000D01*
X161500000Y-37000000D02*
X160700000Y-36200000D01*
X161500000Y-37500000D02*
X161500000Y-37000000D01*
%TO.N,RGB_G*%
X160900000Y-35400000D02*
X155175000Y-35400000D01*
X162500000Y-36500000D02*
X162000000Y-36500000D01*
X162000000Y-36500000D02*
X160900000Y-35400000D01*
%TO.N,RGB_B*%
X162400000Y-34600000D02*
X162500000Y-34500000D01*
X155175000Y-34600000D02*
X162400000Y-34600000D01*
%TO.N,Relay1*%
X141822298Y-41586935D02*
X141822298Y-48772911D01*
X146825000Y-35400000D02*
X146075000Y-35400000D01*
X106500000Y-70500000D02*
X108500000Y-70500000D01*
X142850031Y-40559206D02*
X141822298Y-41586935D01*
X109474956Y-69525044D02*
X111593605Y-69525044D01*
X146075000Y-35400000D02*
X142850033Y-38624967D01*
X142850033Y-38624967D02*
X142850031Y-40559206D01*
X108500000Y-70500000D02*
X109474956Y-69525044D01*
X121499733Y-69025053D02*
X121624835Y-69150155D01*
X112093595Y-69025053D02*
X121499733Y-69025053D01*
X141822298Y-48772911D02*
X141500000Y-49095209D01*
X111593605Y-69525044D02*
X112093595Y-69025053D01*
%TO.N,Net-(D9-Pad2)*%
X87000000Y-82500000D02*
X87000000Y-85000000D01*
X90000000Y-79500000D02*
X87000000Y-82500000D01*
X96500000Y-79500000D02*
X90000000Y-79500000D01*
X102500000Y-73500000D02*
X96500000Y-79500000D01*
X102500000Y-71500000D02*
X102500000Y-73500000D01*
X87000000Y-85000000D02*
X87000000Y-86500000D01*
%TO.N,Net-(R43-Pad2)*%
X94615000Y-76885000D02*
X93687500Y-76885000D01*
X97000000Y-74500000D02*
X94615000Y-76885000D01*
%TO.N,Interrupt*%
X99000000Y-74500000D02*
X101250000Y-72250000D01*
X139919135Y-42217277D02*
X139919135Y-45919135D01*
X123950011Y-66672984D02*
X123950011Y-54611741D01*
X112207249Y-68274989D02*
X122348006Y-68274989D01*
X146075000Y-33000000D02*
X141950011Y-37124989D01*
X146825000Y-33000000D02*
X146075000Y-33000000D01*
X141950011Y-40186401D02*
X139919135Y-42217277D01*
X101575034Y-69075034D02*
X111407204Y-69075034D01*
X101250000Y-69400068D02*
X101575034Y-69075034D01*
X122348006Y-68274989D02*
X123950011Y-66672984D01*
X123950011Y-54611741D02*
X123401979Y-54063709D01*
X146825000Y-33000000D02*
X146238588Y-33000000D01*
X111407204Y-69075034D02*
X112207249Y-68274989D01*
X141950011Y-37124989D02*
X141950011Y-40186401D01*
X101250000Y-72250000D02*
X101250000Y-69400068D01*
%TO.N,Net-(R44-Pad2)*%
X87312500Y-72115000D02*
X84635000Y-72115000D01*
X84635000Y-72115000D02*
X84500000Y-72250000D01*
%TO.N,Relay2*%
X110000000Y-66000000D02*
X110549989Y-65450011D01*
X149000000Y-39175000D02*
X149000000Y-40426998D01*
X116294931Y-65450011D02*
X118757602Y-62987340D01*
X148774999Y-41774999D02*
X149000000Y-42000000D01*
X112300000Y-72000000D02*
X110999998Y-72000000D01*
X148774999Y-40651999D02*
X148774999Y-41774999D01*
X110549989Y-65450011D02*
X116294931Y-65450011D01*
X117500000Y-76500000D02*
X116800000Y-76500000D01*
X117500000Y-76500000D02*
X119500000Y-76500000D01*
X116800000Y-76500000D02*
X112300000Y-72000000D01*
X118757602Y-62987340D02*
X119000000Y-62987340D01*
X149000000Y-40426998D02*
X148774999Y-40651999D01*
%TO.N,Net-(R46-Pad2)*%
X112515000Y-44915000D02*
X112150000Y-44550000D01*
X116650000Y-44415000D02*
X116150000Y-44915000D01*
X114726780Y-41550000D02*
X116650000Y-43473220D01*
X115175000Y-44915000D02*
X112515000Y-44915000D01*
X116650000Y-43473220D02*
X116650000Y-44415000D01*
X114650000Y-41550000D02*
X114726780Y-41550000D01*
X116150000Y-44915000D02*
X115175000Y-44915000D01*
%TO.N,Net-(R46-Pad1)*%
X120125000Y-44915000D02*
X120125000Y-46185000D01*
X116650000Y-41550000D02*
X116650000Y-42250000D01*
X116650000Y-42250000D02*
X119315000Y-44915000D01*
X119315000Y-44915000D02*
X120125000Y-44915000D01*
%TO.N,Net-(R47-Pad2)*%
X119150000Y-49550000D02*
X117150000Y-49550000D01*
X116421412Y-46185000D02*
X115175000Y-46185000D01*
X117150000Y-49550000D02*
X117375001Y-49324999D01*
X117375001Y-49324999D02*
X117375001Y-47138589D01*
X119150000Y-51500000D02*
X119150000Y-49550000D01*
X117375001Y-47138589D02*
X116421412Y-46185000D01*
%TO.N,Net-(D10-Pad1)*%
X120500000Y-83000000D02*
X120500000Y-85000000D01*
X120500000Y-82000000D02*
X120500000Y-85000000D01*
X122500000Y-87000000D02*
X130000000Y-87000000D01*
X130000000Y-87000000D02*
X137000000Y-94000000D01*
X137000000Y-94000000D02*
X137000000Y-97400000D01*
X120500000Y-85000000D02*
X122500000Y-87000000D01*
%TO.N,Enable*%
X120310663Y-66274999D02*
X117379179Y-66274999D01*
X112409369Y-66800044D02*
X111034401Y-68175012D01*
X117379179Y-66274999D02*
X116854133Y-66800044D01*
X120737661Y-65262339D02*
X120737661Y-65848001D01*
X96000000Y-71000000D02*
X96000000Y-71500000D01*
X106426989Y-66725001D02*
X100800319Y-66725001D01*
X96615000Y-72115000D02*
X97000000Y-72500000D01*
X93687500Y-72115000D02*
X96615000Y-72115000D01*
X116854133Y-66800044D02*
X112409369Y-66800044D01*
X151400000Y-39175000D02*
X151400000Y-40900000D01*
X121500000Y-64500000D02*
X120737661Y-65262339D01*
X100800319Y-66725001D02*
X100512660Y-67012660D01*
X107877000Y-68175012D02*
X106426989Y-66725001D01*
X120737661Y-65848001D02*
X120310663Y-66274999D01*
X111034401Y-68175012D02*
X107877000Y-68175012D01*
X151400000Y-40900000D02*
X151500000Y-41000000D01*
X96000000Y-71500000D02*
X97000000Y-72500000D01*
%TO.N,Net-(R52-Pad2)*%
X115224980Y-52511781D02*
X114738179Y-52024980D01*
X111124980Y-50034214D02*
X111124980Y-43575020D01*
X116150000Y-55050000D02*
X115224980Y-54124980D01*
X115175000Y-43645000D02*
X113245000Y-43645000D01*
X113115746Y-52024980D02*
X111124980Y-50034214D01*
X113245000Y-43645000D02*
X112150000Y-42550000D01*
X114738179Y-52024980D02*
X113115746Y-52024980D01*
X115224980Y-54124980D02*
X115224980Y-52511781D01*
X111124980Y-43575020D02*
X112150000Y-42550000D01*
%TO.N,Relay3*%
X149800000Y-39175000D02*
X149800000Y-40700000D01*
X108500000Y-76500000D02*
X108500000Y-75500000D01*
X108500000Y-76500000D02*
X106500000Y-76500000D01*
X117656353Y-64725001D02*
X116481332Y-65900022D01*
X119274999Y-64725001D02*
X117656353Y-64725001D01*
X111599978Y-65900022D02*
X110500000Y-67000000D01*
X116481332Y-65900022D02*
X111599978Y-65900022D01*
X149800000Y-40700000D02*
X149500000Y-41000000D01*
X110000000Y-74000000D02*
X110000000Y-73500000D01*
X108500000Y-75500000D02*
X110000000Y-74000000D01*
%TO.N,Net-(D10-Pad2)*%
X114500000Y-83500000D02*
X114500000Y-84000000D01*
X114500000Y-84000000D02*
X115500000Y-85000000D01*
X115500000Y-82500000D02*
X115500000Y-85000000D01*
X113500000Y-80500000D02*
X115500000Y-82500000D01*
X113500000Y-77500000D02*
X113500000Y-80500000D01*
X113500000Y-80500000D02*
X115000000Y-82000000D01*
%TO.N,Net-(R56-Pad1)*%
X141022500Y-68050000D02*
X144000000Y-68050000D01*
%TO.N,Net-(R57-Pad2)*%
X99150000Y-51050000D02*
X97650000Y-52550000D01*
X97650000Y-56550000D02*
X97650000Y-52550000D01*
X101875001Y-53090001D02*
X101875001Y-51701999D01*
X101875001Y-51701999D02*
X101223002Y-51050000D01*
X103675000Y-53915000D02*
X102700000Y-53915000D01*
X101223002Y-51050000D02*
X99150000Y-51050000D01*
X102700000Y-53915000D02*
X101875001Y-53090001D01*
%TO.N,Relay4*%
X118475064Y-69475064D02*
X112279996Y-69475064D01*
X117517766Y-65500000D02*
X120012660Y-65500000D01*
X109999991Y-67725001D02*
X110848001Y-67725001D01*
X150600000Y-39175000D02*
X150600000Y-41400000D01*
X119500000Y-70500000D02*
X118475064Y-69475064D01*
X150600000Y-41400000D02*
X150500000Y-41500000D01*
X111255060Y-70500000D02*
X110500000Y-70500000D01*
X109000000Y-66725010D02*
X109999991Y-67725001D01*
X112279996Y-69475064D02*
X111255060Y-70500000D01*
X117500000Y-70500000D02*
X119500000Y-70500000D01*
X110848001Y-67725001D02*
X112222969Y-66350033D01*
X112222969Y-66350033D02*
X116667733Y-66350033D01*
X116667733Y-66350033D02*
X117517766Y-65500000D01*
%TO.N,Net-(R61-Pad1)*%
X135076543Y-59176543D02*
X135753086Y-58500000D01*
X111285000Y-53915000D02*
X112150000Y-53050000D01*
X123225221Y-55225221D02*
X123225221Y-65566646D01*
X114150000Y-53050000D02*
X112150000Y-53050000D01*
X123225221Y-65566646D02*
X121741878Y-67049989D01*
X108625000Y-53915000D02*
X111285000Y-53915000D01*
X156930000Y-58500000D02*
X159150000Y-56280000D01*
X122000000Y-54000000D02*
X123225221Y-55225221D01*
X135753086Y-58500000D02*
X156930000Y-58500000D01*
%TO.N,Net-(R63-Pad1)*%
X99175020Y-50075020D02*
X98150000Y-49050000D01*
X103675000Y-52645000D02*
X101080000Y-50050000D01*
X101080000Y-50050000D02*
X100763202Y-50050000D01*
X100763202Y-50050000D02*
X100738182Y-50075020D01*
X100738182Y-50075020D02*
X99175020Y-50075020D01*
%TO.N,Net-(D11-Pad1)*%
X101500000Y-82000000D02*
X101500000Y-85000000D01*
X101500000Y-86000000D02*
X101500000Y-85000000D01*
%TO.N,Pgood Vout*%
X121944001Y-57574999D02*
X122775210Y-58406208D01*
X122775210Y-58406208D02*
X122775210Y-64724790D01*
X119130257Y-57574999D02*
X121944001Y-57574999D01*
X82200000Y-29000000D02*
X83000000Y-29000000D01*
X152500000Y-46000000D02*
X150500000Y-46000000D01*
X96000000Y-56513202D02*
X97711799Y-58225001D01*
X90500000Y-41500000D02*
X93000000Y-44000000D01*
D73*
X76650000Y-29549980D02*
X76150000Y-29549980D01*
D70*
X122775210Y-64724790D02*
X121500000Y-66000000D01*
X83000000Y-29000000D02*
X90500000Y-29000000D01*
X81150000Y-30050000D02*
X82200000Y-29000000D01*
X90500000Y-29000000D02*
X90500000Y-41500000D01*
X97711799Y-58225001D02*
X118480255Y-58225001D01*
X150500000Y-46000000D02*
X149068212Y-44568212D01*
D73*
X76650000Y-28212500D02*
X76650000Y-29549980D01*
D70*
X118480255Y-58225001D02*
X119130257Y-57574999D01*
X96000000Y-48000000D02*
X96000000Y-56513202D01*
X93000000Y-44000000D02*
X93500000Y-44500000D01*
X93500000Y-44500000D02*
X95500000Y-44500000D01*
D73*
X76150000Y-29549980D02*
X75650000Y-30049980D01*
X75650000Y-30049980D02*
X75650000Y-30050000D01*
D70*
%TO.N,Iout_DAC*%
X146925000Y-34500000D02*
X146825000Y-34600000D01*
X112245000Y-56455000D02*
X112637340Y-56062660D01*
X148000000Y-34500000D02*
X146925000Y-34500000D01*
X108625000Y-56455000D02*
X112245000Y-56455000D01*
%TO.N,Net-(Q8-Pad3)*%
X82500000Y-72250000D02*
X79500000Y-72250000D01*
X79500000Y-72250000D02*
X79000000Y-71750000D01*
D73*
%TO.N,Pgood 3.3v*%
X75970000Y-51500000D02*
X75970000Y-52476838D01*
X75871838Y-54500000D02*
X74920919Y-53549081D01*
X78145000Y-54500000D02*
X75871838Y-54500000D01*
X75970000Y-52476838D02*
X76481581Y-52988419D01*
D70*
%TO.N,Vout_DAC*%
X142400022Y-37474978D02*
X142400022Y-40372802D01*
X105000000Y-55000000D02*
X103860000Y-55000000D01*
X146825000Y-33800000D02*
X146075000Y-33800000D01*
X142400022Y-40372802D02*
X140987347Y-41785477D01*
X140987347Y-41785477D02*
X140987347Y-45487347D01*
X146075000Y-33800000D02*
X142400022Y-37474978D01*
X103860000Y-55000000D02*
X103675000Y-55185000D01*
%TO.N,Net-(U7-Pad3)*%
X140127500Y-20000000D02*
X143907500Y-20000000D01*
X143907500Y-20000000D02*
X144730000Y-19177500D01*
%TO.N,Net-(J1-Pad2)*%
X160809990Y-48324989D02*
X163284989Y-48324989D01*
X163284989Y-48324989D02*
X164460000Y-49500000D01*
X159134979Y-50000000D02*
X160809990Y-48324989D01*
X159000000Y-50000000D02*
X159134979Y-50000000D01*
%TO.N,Net-(U10-Pad2)*%
X84602500Y-38500000D02*
X81372500Y-41730000D01*
X85280000Y-38500000D02*
X84602500Y-38500000D01*
X86230000Y-39450000D02*
X85280000Y-38500000D01*
X86230000Y-40000000D02*
X86230000Y-39450000D01*
%TO.N,Net-(J2-Pad2)*%
X159000000Y-48000000D02*
X160498568Y-48000000D01*
X160498568Y-48000000D02*
X160823560Y-47675011D01*
X163364989Y-47675011D02*
X164540000Y-46500000D01*
X160823560Y-47675011D02*
X163364989Y-47675011D01*
%TO.N,Net-(J3-Pad2)*%
X159000000Y-46000000D02*
X160324989Y-44675011D01*
X160324989Y-44675011D02*
X163284989Y-44675011D01*
X163284989Y-44675011D02*
X164460000Y-43500000D01*
%TO.N,Net-(D11-Pad2)*%
X96500000Y-82000000D02*
X96500000Y-85000000D01*
X97500000Y-86500000D02*
X97500000Y-86000000D01*
X101000000Y-77500000D02*
X96500000Y-82000000D01*
X102500000Y-77500000D02*
X101000000Y-77500000D01*
X97500000Y-86000000D02*
X96500000Y-85000000D01*
%TO.N,Net-(D12-Pad1)*%
X111000000Y-86000000D02*
X111000000Y-85000000D01*
X111000000Y-82000000D02*
X111000000Y-85000000D01*
X118500000Y-96400000D02*
X118500000Y-95000000D01*
X119500000Y-97400000D02*
X118500000Y-96400000D01*
%TO.N,Net-(D12-Pad2)*%
X110725001Y-73151999D02*
X110725001Y-78274999D01*
X106000000Y-86500000D02*
X106000000Y-85000000D01*
X110651997Y-71274999D02*
X110225001Y-71701995D01*
X106000000Y-83000000D02*
X106000000Y-85000000D01*
X110225001Y-71701995D02*
X110225001Y-72651999D01*
X113500000Y-71500000D02*
X113274999Y-71274999D01*
X113274999Y-71274999D02*
X110651997Y-71274999D01*
X110725001Y-78274999D02*
X106000000Y-83000000D01*
X110225001Y-72651999D02*
X110725001Y-73151999D01*
D72*
%TO.N,Net-(F4-Pad1)*%
X139000000Y-101500000D02*
X141000000Y-103500000D01*
X113500000Y-95400000D02*
X113500000Y-97246017D01*
X113500000Y-97246017D02*
X117753983Y-101500000D01*
X117753983Y-101500000D02*
X139000000Y-101500000D01*
D70*
%TO.N,SWCLK*%
X155000000Y-42000000D02*
X153000000Y-44000000D01*
X155500000Y-56000000D02*
X155500000Y-54000000D01*
X155500000Y-54000000D02*
X155500000Y-51500000D01*
X153800000Y-39175000D02*
X155000000Y-40375000D01*
X156000000Y-56500000D02*
X155500000Y-56000000D01*
X155000000Y-40500000D02*
X155000000Y-42000000D01*
X153000000Y-44000000D02*
X152500000Y-44000000D01*
%TO.N,Net-(Q3-Pad2)*%
X115550000Y-76550000D02*
X117500000Y-78500000D01*
X115500000Y-76050000D02*
X115550000Y-76050000D01*
%TO.N,Net-(Q4-Pad2)*%
X106500000Y-78500000D02*
X104550000Y-76550000D01*
X104550000Y-76550000D02*
X104500000Y-76550000D01*
%TO.N,Net-(Q5-Pad2)*%
X115500000Y-70550000D02*
X115550000Y-70550000D01*
X115550000Y-70550000D02*
X117500000Y-72500000D01*
%TO.N,Net-(Q2-Pad2)*%
X104500000Y-70550000D02*
X104550000Y-70550000D01*
X104550000Y-70550000D02*
X106500000Y-72500000D01*
%TD*%
%TA.AperFunction,Conductor*%
%TO.N,Virt-Bus1*%
G36*
X60992015Y-104160002D02*
G01*
X61012886Y-104176801D01*
X61475740Y-104638583D01*
X61941330Y-105103095D01*
X61941430Y-105103195D01*
X61975527Y-105165468D01*
X61978438Y-105192102D01*
X61991285Y-110738208D01*
X61971440Y-110806375D01*
X61917893Y-110852992D01*
X61865285Y-110864500D01*
X61362238Y-110864500D01*
X61362238Y-114084816D01*
X61342236Y-114152937D01*
X61325437Y-114173808D01*
X61036922Y-114462992D01*
X60974649Y-114497089D01*
X60947723Y-114500000D01*
X57560190Y-114500000D01*
X57492069Y-114479998D01*
X57471095Y-114463095D01*
X56544905Y-113536905D01*
X56510879Y-113474593D01*
X56508000Y-113447810D01*
X56508000Y-105192190D01*
X56528002Y-105124069D01*
X56544905Y-105103095D01*
X57471095Y-104176905D01*
X57533407Y-104142879D01*
X57560190Y-104140000D01*
X60923894Y-104140000D01*
X60992015Y-104160002D01*
G37*
%TD.AperFunction*%
%TD*%
%TA.AperFunction,Conductor*%
%TO.N,Virt-Bus2*%
G36*
X61015931Y-94020002D02*
G01*
X61036905Y-94036905D01*
X61963095Y-94963095D01*
X61997121Y-95025407D01*
X62000000Y-95052190D01*
X62000000Y-102833810D01*
X61979998Y-102901931D01*
X61963095Y-102922905D01*
X61036905Y-103849095D01*
X60974593Y-103883121D01*
X60947810Y-103886000D01*
X57560190Y-103886000D01*
X57492069Y-103865998D01*
X57471095Y-103849095D01*
X56544905Y-102922905D01*
X56510879Y-102860593D01*
X56508000Y-102833810D01*
X56508000Y-95052190D01*
X56528002Y-94984069D01*
X56544905Y-94963095D01*
X57471095Y-94036905D01*
X57533407Y-94002879D01*
X57560190Y-94000000D01*
X60947810Y-94000000D01*
X61015931Y-94020002D01*
G37*
%TD.AperFunction*%
%TD*%
M02*
