%TF.GenerationSoftware,KiCad,Pcbnew,(5.99.0-9544-g366189b864)*%
%TF.CreationDate,2021-03-13T10:42:39+01:00*%
%TF.ProjectId,Controller,436f6e74-726f-46c6-9c65-722e6b696361,rev?*%
%TF.SameCoordinates,Original*%
%TF.FileFunction,Soldermask,Bot*%
%TF.FilePolarity,Negative*%
%FSLAX46Y46*%
G04 Gerber Fmt 4.6, Leading zero omitted, Abs format (unit mm)*
G04 Created by KiCad (PCBNEW (5.99.0-9544-g366189b864)) date 2021-03-13 10:42:39*
%MOMM*%
%LPD*%
G01*
G04 APERTURE LIST*
%ADD10R,1.700000X1.700000*%
%ADD11O,1.700000X1.700000*%
%ADD12R,1.300000X1.300000*%
%ADD13C,1.300000*%
%ADD14O,2.900000X1.900000*%
%ADD15O,1.900000X2.900000*%
%ADD16C,0.800000*%
%ADD17C,6.400000*%
%ADD18C,3.250000*%
%ADD19C,2.600000*%
%ADD20C,1.890000*%
%ADD21R,1.900000X1.900000*%
%ADD22C,1.900000*%
%ADD23C,0.600000*%
%ADD24O,1.700000X0.900000*%
%ADD25O,2.000000X0.900000*%
%ADD26R,3.000000X3.000000*%
%ADD27C,3.000000*%
G04 APERTURE END LIST*
D10*
%TO.C,J4*%
X67900000Y-49440000D03*
D11*
X67900000Y-51980000D03*
X67900000Y-54520000D03*
X67900000Y-57060000D03*
X67900000Y-59600000D03*
%TD*%
D12*
%TO.C,J5*%
X153785000Y-84900000D03*
D13*
X153785000Y-82400000D03*
X153785000Y-80400000D03*
X153785000Y-77900000D03*
D14*
X153185000Y-87970000D03*
D15*
X149005000Y-81400000D03*
D14*
X153185000Y-74830000D03*
%TD*%
D16*
%TO.C,REF\u002A\u002A*%
X69100000Y-34500000D03*
D17*
X71500000Y-34500000D03*
D16*
X73197056Y-36197056D03*
X73900000Y-34500000D03*
X69802944Y-36197056D03*
X73197056Y-32802944D03*
X69802944Y-32802944D03*
X71500000Y-32100000D03*
X71500000Y-36900000D03*
%TD*%
%TO.C,REF\u002A\u002A*%
X159100000Y-119500000D03*
D17*
X161500000Y-119500000D03*
D16*
X163197056Y-121197056D03*
X163900000Y-119500000D03*
X159802944Y-121197056D03*
X163197056Y-117802944D03*
X159802944Y-117802944D03*
X161500000Y-117100000D03*
X161500000Y-121900000D03*
%TD*%
D18*
%TO.C,J7*%
X158810011Y-54735028D03*
X158810011Y-66175028D03*
D19*
X155760011Y-68210028D03*
X155760011Y-52710028D03*
D20*
X163710011Y-53835028D03*
X163710011Y-56375028D03*
X163710011Y-64532528D03*
X163710011Y-67072528D03*
D21*
X152450011Y-64910028D03*
D22*
X149910011Y-63640028D03*
X152450011Y-62370028D03*
X149910011Y-61100028D03*
X152450011Y-59830028D03*
X149910011Y-58560028D03*
X152450011Y-57290028D03*
X149910011Y-56020028D03*
%TD*%
D23*
%TO.C,J6*%
X161875000Y-85090000D03*
X161875000Y-79310000D03*
D24*
X165565000Y-77880000D03*
D25*
X161395000Y-86520000D03*
D24*
X165565000Y-86520000D03*
D25*
X161395000Y-77880000D03*
%TD*%
D16*
%TO.C,REF\u002A\u002A*%
X159100000Y-34500000D03*
X163197056Y-32802944D03*
X161500000Y-32100000D03*
X159802944Y-32802944D03*
X159802944Y-36197056D03*
X163197056Y-36197056D03*
X163900000Y-34500000D03*
X161500000Y-36900000D03*
D17*
X161500000Y-34500000D03*
%TD*%
D10*
%TO.C,J3*%
X88475000Y-108075000D03*
D11*
X91015000Y-108075000D03*
X93555000Y-108075000D03*
X96095000Y-108075000D03*
X98635000Y-108075000D03*
X101175000Y-108075000D03*
%TD*%
D26*
%TO.C,J1*%
X162000000Y-46540000D03*
D27*
X162000000Y-41460000D03*
%TD*%
D16*
%TO.C,R*%
X69100000Y-119500000D03*
D17*
X71500000Y-119500000D03*
D16*
X73197056Y-121197056D03*
X73900000Y-119500000D03*
X69802944Y-121197056D03*
X73197056Y-117802944D03*
X69802944Y-117802944D03*
X71500000Y-117100000D03*
X71500000Y-121900000D03*
%TD*%
D10*
%TO.C,J2*%
X70600000Y-65300000D03*
D11*
X68060000Y-65300000D03*
X70600000Y-67840000D03*
X68060000Y-67840000D03*
X70600000Y-70380000D03*
X68060000Y-70380000D03*
X70600000Y-72920000D03*
X68060000Y-72920000D03*
X70600000Y-75460000D03*
X68060000Y-75460000D03*
X70600000Y-78000000D03*
X68060000Y-78000000D03*
X70600000Y-80540000D03*
X68060000Y-80540000D03*
X70600000Y-83080000D03*
X68060000Y-83080000D03*
X70600000Y-85620000D03*
X68060000Y-85620000D03*
X70600000Y-88160000D03*
X68060000Y-88160000D03*
X70600000Y-90700000D03*
X68060000Y-90700000D03*
X70600000Y-93240000D03*
X68060000Y-93240000D03*
X70600000Y-95780000D03*
X68060000Y-95780000D03*
X70600000Y-98320000D03*
X68060000Y-98320000D03*
X70600000Y-100860000D03*
X68060000Y-100860000D03*
X70600000Y-103400000D03*
X68060000Y-103400000D03*
X70600000Y-105940000D03*
X68060000Y-105940000D03*
X70600000Y-108480000D03*
X68060000Y-108480000D03*
X70600000Y-111020000D03*
X68060000Y-111020000D03*
X70600000Y-113560000D03*
X68060000Y-113560000D03*
%TD*%
M02*
