M48
; DRILL file {KiCad (5.99.0-9568-gb9d26a55f2)} date 03/23/21 11:45:27
; FORMAT={-:-/ absolute / metric / decimal}
; #@! TF.CreationDate,2021-03-23T11:45:27+01:00
; #@! TF.GenerationSoftware,Kicad,Pcbnew,(5.99.0-9568-gb9d26a55f2)
FMAT,2
METRIC
T1C0.400
T2C0.600
T3C0.800
T4C0.890
T5C0.900
T6C1.000
T7C1.200
T8C1.300
T9C1.520
T10C1.600
T11C3.200
T12C0.600
T13C3.250
%
G90
G05
T1
X69.8Y-62.0
X69.9Y-59.6
X72.3Y-46.8
X72.3Y-74.2
X72.7Y-72.2
X73.0Y-71.2
X73.0Y-79.8
X73.9Y-70.7
X73.9Y-86.6
X73.976Y-63.824
X74.1Y-73.5
X75.3Y-72.3
X76.145Y-62.755
X76.6Y-72.1
X76.7Y-57.9
X76.9Y-45.6
X77.1Y-63.2
X77.1Y-79.0
X77.3Y-69.224
X77.5Y-56.8
X77.5Y-60.8
X77.7Y-75.455
X77.8Y-61.8
X77.9Y-63.9
X78.0Y-55.9
X78.089Y-74.355
X78.2Y-77.7
X78.3Y-54.7
X79.2Y-109.3
X79.3Y-53.4
X79.4Y-54.8
X79.901Y-60.9
X80.0Y-46.0
X80.253Y-90.7
X80.4Y-53.7
X80.4Y-83.4
X80.7Y-69.507
X80.747Y-88.405
X80.9Y-85.2
X80.9Y-111.0
X81.1Y-108.0
X81.4Y-53.1
X81.7Y-84.5
X81.9Y-109.7
X82.1Y-112.8
X82.2Y-60.805
X82.3Y-73.9
X82.9Y-109.0
X83.017Y-76.381
X83.034Y-72.196
X83.1Y-73.3
X83.1Y-75.3
X83.1Y-77.5
X83.1Y-78.6
X83.1Y-79.7
X83.2Y-89.796
X83.2Y-80.714
X83.261Y-92.147
X83.5Y-81.7
X83.605Y-104.3
X83.721Y-51.8
X83.8Y-57.1
X84.0Y-55.6
X84.0Y-60.8
X84.075Y-100.275
X84.1Y-105.2
X84.2Y-66.895
X84.6Y-56.4
X84.6Y-57.8
X84.7Y-44.4
X84.722Y-54.822
X85.0Y-60.9
X85.1Y-94.1
X85.2Y-66.9
X85.4Y-93.1
X85.4Y-70.1
X85.5Y-49.5
X85.9Y-109.9
X85.911Y-75.873
X86.0Y-73.68
X86.1Y-80.892
X86.2Y-66.9
X86.3Y-70.8
X86.35Y-106.65
X86.5Y-62.2
X86.7Y-119.0
X87.085Y-83.06
X87.321Y-66.975
X87.5Y-63.7
X87.9Y-46.4
X87.9Y-89.37
X88.1Y-49.5
X88.6Y-67.0
X88.6Y-92.0
X88.645Y-57.455
X88.655Y-63.9
X88.673Y-60.737
X88.7Y-84.4
X88.8Y-76.5
X89.0Y-71.9
X89.0Y-80.0
X89.419Y-67.629
X89.575Y-105.2
X89.6Y-58.2
X89.754Y-84.446
X89.9Y-75.8
X90.0Y-55.8
X90.064Y-88.9
X90.1Y-61.0
X90.104Y-66.296
X90.13Y-57.3
X90.175Y-89.902
X90.27Y-77.696
X90.432Y-86.2
X90.528Y-82.572
X90.705Y-114.605
X90.8Y-79.3
X90.9Y-56.6
X90.9Y-70.4
X90.9Y-95.0
X91.0Y-69.2
X91.0Y-91.2
X91.0Y-92.8
X91.2Y-57.6
X91.3Y-65.725
X91.5Y-50.2
X91.75Y-31.75
X91.927Y-101.671
X92.0Y-57.0
X92.388Y-62.795
X92.661Y-91.039
X92.7Y-102.4
X93.0Y-56.9
X93.5Y-90.4
X93.606Y-96.665
X93.758Y-49.245
X93.8Y-83.1
X93.8Y-86.2
X93.9Y-87.2
X93.998Y-57.002
X94.1Y-84.2
X94.2Y-95.0
X94.3Y-93.8
X94.382Y-50.07
X94.6Y-104.7
X94.7Y-96.9
X94.8Y-88.4
X94.8Y-95.8
X94.9Y-77.5
X94.907Y-70.5
X95.0Y-69.5
X95.1Y-80.5
X95.2Y-84.2
X95.3Y-47.6
X95.6Y-94.531
X95.6Y-89.4
X95.9Y-104.5
X96.0Y-77.5
X96.099Y-80.569
X96.6Y-65.4
X96.7Y-76.6
X96.8Y-49.6
X96.863Y-71.3
X96.9Y-50.6
X97.0Y-105.1
X97.3Y-107.3
X97.373Y-87.599
X98.05Y-69.086
X98.3Y-86.5
X98.627Y-51.463
X98.7Y-98.369
X98.8Y-90.8
X99.4Y-73.5
X99.4Y-95.331
X99.8Y-90.8
X100.006Y-98.5
X100.3Y-105.1
X100.787Y-93.983
X101.3Y-58.7
X101.872Y-105.328
X102.1Y-59.3
X102.2Y-90.9
X102.8Y-79.6
X102.9Y-106.3
X102.983Y-94.727
X103.5Y-99.0
X103.76Y-97.842
X103.9Y-79.5
X104.0Y-108.8
X104.5Y-99.2
X104.7Y-112.9
X104.9Y-79.6
X105.2Y-83.8
X105.374Y-58.764
X105.4Y-85.0
X105.5Y-99.5
X105.5Y-113.6
X105.6Y-94.6
X105.655Y-60.945
X105.75Y-109.75
X105.9Y-93.6
X105.9Y-120.0
X106.2Y-74.741
X106.5Y-100.0
X106.6Y-79.9
X106.65Y-64.096
X106.9Y-75.5
X107.3Y-85.5
X107.3Y-86.5
X107.3Y-87.5
X107.4Y-60.2
X107.5Y-61.6
X107.5Y-100.5
X107.6Y-52.3
X107.6Y-79.9
X107.632Y-95.794
X108.0Y-68.2
X108.0Y-108.7
X108.313Y-63.0
X108.487Y-64.0
X108.5Y-100.9
X108.6Y-79.8
X108.6Y-114.6
X108.7Y-87.2
X108.9Y-108.2
X109.0Y-68.175
X109.2Y-86.2
X109.5Y-101.3
X109.5Y-105.25
X109.6Y-79.8
X109.8Y-56.207
X109.8Y-65.0
X109.9Y-108.8
X109.925Y-94.997
X110.2Y-85.5
X110.473Y-68.157
X110.5Y-101.6
X110.6Y-79.7
X110.6Y-106.0
X110.95Y-90.639
X111.18Y-109.528
X111.4Y-102.2
X111.5Y-94.6
X111.5Y-105.3
X111.6Y-79.6
X111.7Y-112.7
X112.072Y-104.472
X112.1Y-93.8
X112.116Y-68.246
X112.4Y-102.5
X112.5Y-103.5
X112.6Y-79.6
X113.1Y-96.593
X113.4Y-64.3
X113.447Y-71.944
X113.486Y-73.95
X114.1Y-90.3
X114.681Y-71.7
X114.99Y-68.742
X115.2Y-84.9
X115.2Y-101.2
X116.0Y-68.2
X116.0Y-85.5
X116.0Y-101.8
X116.125Y-56.075
X116.127Y-71.027
X116.148Y-90.143
X116.3Y-95.8
X117.0Y-63.1
X117.0Y-93.8
X117.8Y-94.6
X118.311Y-98.621
X118.5Y-49.3
X119.0Y-61.5
X119.5Y-78.8
X119.505Y-80.8
X119.605Y-86.786
X119.8Y-72.8
X119.9Y-94.6
X120.0Y-92.753
X120.0Y-49.5
X120.0Y-68.0
X120.0Y-83.0
X120.0Y-84.0
X120.201Y-84.993
X120.5Y-66.5
X120.7Y-95.4
X121.1Y-61.0
X121.2Y-88.1
X121.522Y-96.08
X121.6Y-55.9
X121.6Y-76.5
X122.6Y-69.598
X122.6Y-70.602
X122.8Y-86.4
X122.8Y-98.1
X123.274Y-97.187
X123.5Y-68.9
X123.5Y-92.0
X123.5Y-94.9
X123.6Y-84.868
X123.7Y-114.6
X124.0Y-57.9
X124.2Y-64.3
X124.2Y-113.1
X124.3Y-66.85
X124.5Y-46.0
X125.05Y-106.484
X125.3Y-74.7
X125.3Y-77.0
X125.4Y-117.4
X125.7Y-97.2
X125.7Y-114.0
X125.8Y-86.0
X126.1Y-92.025
X126.4Y-60.1
X126.6Y-62.6
X126.7Y-97.3
X126.9Y-74.3
X127.0Y-101.5
X127.1Y-71.3
X127.67Y-59.97
X128.137Y-89.237
X128.4Y-56.8
X128.8Y-66.4
X129.9Y-66.1
X130.0Y-99.0
X130.916Y-68.6
X132.25Y-92.857
X132.5Y-70.7
X133.8Y-83.5
X133.8Y-84.8
X135.0Y-55.8
X135.1Y-64.3
X136.2Y-113.8
X137.0Y-64.4
X137.8Y-109.9
X138.0Y-119.5
X138.005Y-55.84
X138.505Y-54.84
X139.115Y-53.64
X139.2Y-108.1
X139.505Y-50.64
X140.237Y-54.289
X141.0Y-52.0
X141.8Y-48.0
X143.0Y-46.0
X143.5Y-47.5
X144.6Y-76.6
X144.8Y-72.8
X145.211Y-54.701
X145.4Y-47.8
X145.5Y-49.2
X146.2Y-47.8
X146.2Y-49.2
X148.005Y-56.04
X148.205Y-64.84
X148.3Y-114.9
X148.5Y-44.5
X149.0Y-108.0
X149.384Y-46.126
X149.4Y-48.6
X151.2Y-47.8
X151.2Y-49.2
X151.9Y-47.8
X151.9Y-49.2
X152.205Y-54.94
X153.0Y-43.0
X154.5Y-57.1
X154.672Y-115.728
X156.5Y-44.5
X156.8Y-48.4
X157.302Y-60.043
X157.605Y-61.14
X158.305Y-62.84
X159.4Y-62.7
T2
X89.75Y-31.475
X93.25Y-35.5
T3
X95.25Y-32.75
X99.2Y-34.0
X100.5Y-42.0
X104.5Y-41.5
X104.525Y-37.275
X107.2Y-55.2
X110.406Y-45.24
X112.5Y-43.5
X127.1Y-113.2
X127.6Y-116.75
X128.798Y-115.728
X129.9Y-106.5
X130.1Y-109.4
X132.9Y-105.1
X139.676Y-116.65
X141.7Y-114.05
X143.2Y-110.0
X146.9Y-111.3
X152.2Y-108.9
X152.5Y-113.5
X154.5Y-104.6
T4
X163.71Y-53.835
X163.71Y-56.375
X163.71Y-64.533
X163.71Y-67.073
T5
X79.25Y-38.5
X89.8Y-44.1
X103.0Y-44.5
X107.3Y-37.375
X111.75Y-32.25
X119.0Y-47.0
X131.3Y-53.3
X145.866Y-37.866
X149.91Y-56.02
X149.91Y-58.56
X149.91Y-61.1
X149.91Y-63.64
X151.1Y-81.0
X152.45Y-57.29
X152.45Y-59.83
X152.45Y-62.37
X152.45Y-64.91
X153.785Y-77.9
X153.785Y-80.4
X153.785Y-82.4
X153.785Y-84.9
X161.75Y-111.258
T6
X67.9Y-49.44
X67.9Y-51.98
X67.9Y-54.52
X67.9Y-57.06
X67.9Y-59.6
X68.06Y-65.3
X68.06Y-67.84
X68.06Y-70.38
X68.06Y-72.92
X68.06Y-75.46
X68.06Y-78.0
X68.06Y-80.54
X68.06Y-83.08
X68.06Y-85.62
X68.06Y-88.16
X68.06Y-90.7
X68.06Y-93.24
X68.06Y-95.78
X68.06Y-98.32
X68.06Y-100.86
X68.06Y-103.4
X68.06Y-105.94
X68.06Y-108.48
X68.06Y-111.02
X68.06Y-113.56
X70.6Y-65.3
X70.6Y-67.84
X70.6Y-70.38
X70.6Y-72.92
X70.6Y-75.46
X70.6Y-78.0
X70.6Y-80.54
X70.6Y-83.08
X70.6Y-85.62
X70.6Y-88.16
X70.6Y-90.7
X70.6Y-93.24
X70.6Y-95.78
X70.6Y-98.32
X70.6Y-100.86
X70.6Y-103.4
X70.6Y-105.94
X70.6Y-108.48
X70.6Y-111.02
X70.6Y-113.56
X88.475Y-108.175
X91.015Y-108.175
X93.555Y-108.175
X96.095Y-108.175
X98.635Y-108.175
X101.175Y-108.175
X136.075Y-90.445
X136.075Y-92.985
X136.075Y-95.525
T7
X131.5Y-60.0
T9
X162.0Y-41.46
X162.0Y-46.54
T10
X155.76Y-52.71
X155.76Y-68.21
T11
X71.0Y-34.0
X71.0Y-120.0
X162.0Y-34.0
X162.0Y-120.0
T12
X161.875Y-79.31
X161.875Y-85.09
T13
X158.81Y-54.735
X158.81Y-66.175
T2
G00X161.945Y-77.88
M15
G01X160.845Y-77.88
M16
G05
G00X161.945Y-86.52
M15
G01X160.845Y-86.52
M16
G05
G00X165.965Y-77.88
M15
G01X165.165Y-77.88
M16
G05
G00X165.965Y-86.52
M15
G01X165.165Y-86.52
M16
G05
T8
G00X149.005Y-81.9
M15
G01X149.005Y-80.9
M16
G05
G00X152.685Y-74.83
M15
G01X153.685Y-74.83
M16
G05
G00X153.685Y-87.97
M15
G01X152.685Y-87.97
M16
G05
T0
M30
