%TF.GenerationSoftware,KiCad,Pcbnew,(5.99.0-9568-gb9d26a55f2)*%
%TF.CreationDate,2021-03-23T11:45:25+01:00*%
%TF.ProjectId,Controller,436f6e74-726f-46c6-9c65-722e6b696361,rev?*%
%TF.SameCoordinates,Original*%
%TF.FileFunction,Copper,L1,Top*%
%TF.FilePolarity,Positive*%
%FSLAX46Y46*%
G04 Gerber Fmt 4.6, Leading zero omitted, Abs format (unit mm)*
G04 Created by KiCad (PCBNEW (5.99.0-9568-gb9d26a55f2)) date 2021-03-23 11:45:25*
%MOMM*%
%LPD*%
G01*
G04 APERTURE LIST*
G04 Aperture macros list*
%AMRoundRect*
0 Rectangle with rounded corners*
0 $1 Rounding radius*
0 $2 $3 $4 $5 $6 $7 $8 $9 X,Y pos of 4 corners*
0 Add a 4 corners polygon primitive as box body*
4,1,4,$2,$3,$4,$5,$6,$7,$8,$9,$2,$3,0*
0 Add four circle primitives for the rounded corners*
1,1,$1+$1,$2,$3*
1,1,$1+$1,$4,$5*
1,1,$1+$1,$6,$7*
1,1,$1+$1,$8,$9*
0 Add four rect primitives between the rounded corners*
20,1,$1+$1,$2,$3,$4,$5,0*
20,1,$1+$1,$4,$5,$6,$7,0*
20,1,$1+$1,$6,$7,$8,$9,0*
20,1,$1+$1,$8,$9,$2,$3,0*%
%AMFreePoly0*
4,1,13,0.900000,0.500000,2.600000,0.500000,2.600000,-0.500000,0.900000,-0.500000,0.400000,-1.000000,-0.400000,-1.000000,-0.900000,-0.500000,-2.600000,-0.500000,-2.600000,0.500000,-0.900000,0.500000,-0.400000,1.000000,0.400000,1.000000,0.900000,0.500000,0.900000,0.500000,$1*%
G04 Aperture macros list end*
%TA.AperFunction,ComponentPad*%
%ADD10C,6.400000*%
%TD*%
%TA.AperFunction,SMDPad,CuDef*%
%ADD11RoundRect,0.250000X-0.350000X-0.450000X0.350000X-0.450000X0.350000X0.450000X-0.350000X0.450000X0*%
%TD*%
%TA.AperFunction,SMDPad,CuDef*%
%ADD12R,0.800000X2.200000*%
%TD*%
%TA.AperFunction,SMDPad,CuDef*%
%ADD13R,5.800000X6.400000*%
%TD*%
%TA.AperFunction,SMDPad,CuDef*%
%ADD14RoundRect,0.250000X0.650000X-0.412500X0.650000X0.412500X-0.650000X0.412500X-0.650000X-0.412500X0*%
%TD*%
%TA.AperFunction,SMDPad,CuDef*%
%ADD15R,1.800000X1.000000*%
%TD*%
%TA.AperFunction,SMDPad,CuDef*%
%ADD16R,1.600000X2.200000*%
%TD*%
%TA.AperFunction,SMDPad,CuDef*%
%ADD17RoundRect,0.250000X-0.337500X-0.475000X0.337500X-0.475000X0.337500X0.475000X-0.337500X0.475000X0*%
%TD*%
%TA.AperFunction,SMDPad,CuDef*%
%ADD18RoundRect,0.250000X-0.450000X0.350000X-0.450000X-0.350000X0.450000X-0.350000X0.450000X0.350000X0*%
%TD*%
%TA.AperFunction,SMDPad,CuDef*%
%ADD19RoundRect,0.250000X-0.475000X0.337500X-0.475000X-0.337500X0.475000X-0.337500X0.475000X0.337500X0*%
%TD*%
%TA.AperFunction,SMDPad,CuDef*%
%ADD20RoundRect,0.250000X0.450000X-0.350000X0.450000X0.350000X-0.450000X0.350000X-0.450000X-0.350000X0*%
%TD*%
%TA.AperFunction,SMDPad,CuDef*%
%ADD21R,0.300000X1.300000*%
%TD*%
%TA.AperFunction,SMDPad,CuDef*%
%ADD22R,1.800000X2.200000*%
%TD*%
%TA.AperFunction,SMDPad,CuDef*%
%ADD23RoundRect,0.250000X1.000000X-1.950000X1.000000X1.950000X-1.000000X1.950000X-1.000000X-1.950000X0*%
%TD*%
%TA.AperFunction,SMDPad,CuDef*%
%ADD24R,3.500000X1.800000*%
%TD*%
%TA.AperFunction,SMDPad,CuDef*%
%ADD25RoundRect,0.250000X0.350000X0.450000X-0.350000X0.450000X-0.350000X-0.450000X0.350000X-0.450000X0*%
%TD*%
%TA.AperFunction,ComponentPad*%
%ADD26R,1.700000X1.700000*%
%TD*%
%TA.AperFunction,ComponentPad*%
%ADD27O,1.700000X1.700000*%
%TD*%
%TA.AperFunction,SMDPad,CuDef*%
%ADD28RoundRect,0.250000X0.475000X-0.337500X0.475000X0.337500X-0.475000X0.337500X-0.475000X-0.337500X0*%
%TD*%
%TA.AperFunction,SMDPad,CuDef*%
%ADD29RoundRect,0.250000X0.337500X0.475000X-0.337500X0.475000X-0.337500X-0.475000X0.337500X-0.475000X0*%
%TD*%
%TA.AperFunction,SMDPad,CuDef*%
%ADD30RoundRect,0.250000X0.412500X0.650000X-0.412500X0.650000X-0.412500X-0.650000X0.412500X-0.650000X0*%
%TD*%
%TA.AperFunction,SMDPad,CuDef*%
%ADD31RoundRect,0.150000X0.825000X0.150000X-0.825000X0.150000X-0.825000X-0.150000X0.825000X-0.150000X0*%
%TD*%
%TA.AperFunction,SMDPad,CuDef*%
%ADD32RoundRect,0.250000X1.250000X0.550000X-1.250000X0.550000X-1.250000X-0.550000X1.250000X-0.550000X0*%
%TD*%
%TA.AperFunction,SMDPad,CuDef*%
%ADD33R,0.458000X1.510000*%
%TD*%
%TA.AperFunction,SMDPad,CuDef*%
%ADD34RoundRect,0.075000X0.675000X0.075000X-0.675000X0.075000X-0.675000X-0.075000X0.675000X-0.075000X0*%
%TD*%
%TA.AperFunction,SMDPad,CuDef*%
%ADD35RoundRect,0.075000X0.075000X0.675000X-0.075000X0.675000X-0.075000X-0.675000X0.075000X-0.675000X0*%
%TD*%
%TA.AperFunction,ComponentPad*%
%ADD36R,1.300000X1.300000*%
%TD*%
%TA.AperFunction,ComponentPad*%
%ADD37C,1.300000*%
%TD*%
%TA.AperFunction,ComponentPad*%
%ADD38O,2.900000X1.900000*%
%TD*%
%TA.AperFunction,ComponentPad*%
%ADD39O,1.900000X2.900000*%
%TD*%
%TA.AperFunction,SMDPad,CuDef*%
%ADD40RoundRect,0.150000X-0.825000X-0.150000X0.825000X-0.150000X0.825000X0.150000X-0.825000X0.150000X0*%
%TD*%
%TA.AperFunction,SMDPad,CuDef*%
%ADD41RoundRect,0.250000X0.400000X0.625000X-0.400000X0.625000X-0.400000X-0.625000X0.400000X-0.625000X0*%
%TD*%
%TA.AperFunction,SMDPad,CuDef*%
%ADD42R,2.800000X1.000000*%
%TD*%
%TA.AperFunction,SMDPad,CuDef*%
%ADD43RoundRect,0.062500X-0.062500X0.350000X-0.062500X-0.350000X0.062500X-0.350000X0.062500X0.350000X0*%
%TD*%
%TA.AperFunction,SMDPad,CuDef*%
%ADD44RoundRect,0.062500X-0.350000X0.062500X-0.350000X-0.062500X0.350000X-0.062500X0.350000X0.062500X0*%
%TD*%
%TA.AperFunction,SMDPad,CuDef*%
%ADD45R,2.600000X2.600000*%
%TD*%
%TA.AperFunction,SMDPad,CuDef*%
%ADD46RoundRect,0.100000X-0.712500X-0.100000X0.712500X-0.100000X0.712500X0.100000X-0.712500X0.100000X0*%
%TD*%
%TA.AperFunction,SMDPad,CuDef*%
%ADD47R,0.900000X1.000000*%
%TD*%
%TA.AperFunction,ComponentPad*%
%ADD48C,2.600000*%
%TD*%
%TA.AperFunction,ComponentPad*%
%ADD49C,1.890000*%
%TD*%
%TA.AperFunction,ComponentPad*%
%ADD50R,1.900000X1.900000*%
%TD*%
%TA.AperFunction,ComponentPad*%
%ADD51C,1.900000*%
%TD*%
%TA.AperFunction,SMDPad,CuDef*%
%ADD52R,1.160000X0.600000*%
%TD*%
%TA.AperFunction,SMDPad,CuDef*%
%ADD53R,1.160000X0.300000*%
%TD*%
%TA.AperFunction,ComponentPad*%
%ADD54O,1.700000X0.900000*%
%TD*%
%TA.AperFunction,ComponentPad*%
%ADD55O,2.000000X0.900000*%
%TD*%
%TA.AperFunction,SMDPad,CuDef*%
%ADD56R,1.800000X3.500000*%
%TD*%
%TA.AperFunction,SMDPad,CuDef*%
%ADD57RoundRect,0.250000X-1.050000X-0.550000X1.050000X-0.550000X1.050000X0.550000X-1.050000X0.550000X0*%
%TD*%
%TA.AperFunction,SMDPad,CuDef*%
%ADD58R,2.000000X3.000000*%
%TD*%
%TA.AperFunction,SMDPad,CuDef*%
%ADD59R,0.300000X1.600000*%
%TD*%
%TA.AperFunction,SMDPad,CuDef*%
%ADD60R,2.700000X3.600000*%
%TD*%
%TA.AperFunction,SMDPad,CuDef*%
%ADD61R,2.000000X0.650000*%
%TD*%
%TA.AperFunction,SMDPad,CuDef*%
%ADD62R,2.000000X1.300000*%
%TD*%
%TA.AperFunction,SMDPad,CuDef*%
%ADD63R,2.000000X2.000000*%
%TD*%
%TA.AperFunction,SMDPad,CuDef*%
%ADD64R,2.600000X8.200000*%
%TD*%
%TA.AperFunction,SMDPad,CuDef*%
%ADD65R,0.700000X1.500000*%
%TD*%
%TA.AperFunction,SMDPad,CuDef*%
%ADD66FreePoly0,270.000000*%
%TD*%
%TA.AperFunction,ComponentPad*%
%ADD67R,3.000000X3.000000*%
%TD*%
%TA.AperFunction,ComponentPad*%
%ADD68C,3.000000*%
%TD*%
%TA.AperFunction,ViaPad*%
%ADD69C,0.800000*%
%TD*%
%TA.AperFunction,ViaPad*%
%ADD70C,1.600000*%
%TD*%
%TA.AperFunction,ViaPad*%
%ADD71C,2.000000*%
%TD*%
%TA.AperFunction,ViaPad*%
%ADD72C,1.200000*%
%TD*%
%TA.AperFunction,Conductor*%
%ADD73C,0.200000*%
%TD*%
%TA.AperFunction,Conductor*%
%ADD74C,0.500000*%
%TD*%
%TA.AperFunction,Conductor*%
%ADD75C,0.300000*%
%TD*%
%TA.AperFunction,Conductor*%
%ADD76C,1.000000*%
%TD*%
%TA.AperFunction,Conductor*%
%ADD77C,0.250000*%
%TD*%
G04 APERTURE END LIST*
D10*
%TO.P,REF\u002A\u002A,1*%
%TO.N,N/C*%
X71000000Y-34000000D03*
%TD*%
D11*
%TO.P,R40,1*%
%TO.N,Net-(C37-Pad1)*%
X145100000Y-113100000D03*
%TO.P,R40,2*%
%TO.N,GND*%
X147100000Y-113100000D03*
%TD*%
D12*
%TO.P,U5,1,EN*%
%TO.N,Vin*%
X102245000Y-39475000D03*
%TO.P,U5,2,VIN*%
X103385000Y-39475000D03*
D13*
%TO.P,U5,3,GND*%
%TO.N,GND*%
X104525000Y-33175000D03*
D12*
X104525000Y-39475000D03*
%TO.P,U5,4,VOUT*%
%TO.N,+5V*%
X105665000Y-39475000D03*
%TO.P,U5,5,ADJ*%
%TO.N,Net-(R42-Pad2)*%
X106805000Y-39475000D03*
%TD*%
D14*
%TO.P,C36,1*%
%TO.N,Backlight Anode*%
X129600000Y-108225000D03*
%TO.P,C36,2*%
%TO.N,Backlight Cathode*%
X129600000Y-105100000D03*
%TD*%
D15*
%TO.P,Y1,1,1*%
%TO.N,Crystal_32_out*%
X123400000Y-88150000D03*
%TO.P,Y1,2,2*%
%TO.N,Crystal_32_in*%
X123400000Y-90650000D03*
%TD*%
D16*
%TO.P,C59,1*%
%TO.N,LCD_VDD*%
X97250000Y-34500000D03*
%TO.P,C59,2*%
%TO.N,GND*%
X97250000Y-37500000D03*
%TD*%
D17*
%TO.P,C34,1*%
%TO.N,9.6V*%
X136062500Y-108000000D03*
%TO.P,C34,2*%
%TO.N,GND*%
X138137500Y-108000000D03*
%TD*%
D18*
%TO.P,R19,1*%
%TO.N,LCD_VDD*%
X144505011Y-56340028D03*
%TO.P,R19,2*%
%TO.N,/RX+*%
X144505011Y-58340028D03*
%TD*%
D17*
%TO.P,C20,1*%
%TO.N,LCD_VDD*%
X135717511Y-57090028D03*
%TO.P,C20,2*%
%TO.N,GND*%
X137792511Y-57090028D03*
%TD*%
D19*
%TO.P,C15,1*%
%TO.N,LCD_VDD*%
X125600000Y-71362500D03*
%TO.P,C15,2*%
%TO.N,GND*%
X125600000Y-73437500D03*
%TD*%
D17*
%TO.P,C3,1*%
%TO.N,LCD_VDD*%
X87925000Y-69100000D03*
%TO.P,C3,2*%
%TO.N,GND*%
X90000000Y-69100000D03*
%TD*%
D20*
%TO.P,R11,1*%
%TO.N,Net-(R11-Pad1)*%
X140505011Y-58340028D03*
%TO.P,R11,2*%
%TO.N,GND*%
X140505011Y-56340028D03*
%TD*%
D17*
%TO.P,C57,1*%
%TO.N,LCD_VDD*%
X80062500Y-62500000D03*
%TO.P,C57,2*%
%TO.N,GND*%
X82137500Y-62500000D03*
%TD*%
D19*
%TO.P,C43,1*%
%TO.N,RESET*%
X143200000Y-74600000D03*
%TO.P,C43,2*%
%TO.N,GND*%
X143200000Y-76675000D03*
%TD*%
%TO.P,C25,1*%
%TO.N,LCD_VDD*%
X142505011Y-62340028D03*
%TO.P,C25,2*%
%TO.N,GND*%
X142505011Y-64415028D03*
%TD*%
D21*
%TO.P,J8,1,Pin_1*%
%TO.N,LCD_CT_INT*%
X79950000Y-106000000D03*
%TO.P,J8,2,Pin_2*%
%TO.N,I2C3_SDA*%
X80450000Y-106000000D03*
%TO.P,J8,3,Pin_3*%
%TO.N,I2C3_SCL*%
X80950000Y-106000000D03*
%TO.P,J8,4,Pin_4*%
%TO.N,LCD_CT_RESET*%
X81450000Y-106000000D03*
%TO.P,J8,5,Pin_5*%
%TO.N,GND*%
X81950000Y-106000000D03*
%TO.P,J8,6,Pin_6*%
%TO.N,LCD_VDD*%
X82450000Y-106000000D03*
D22*
%TO.P,J8,MP,MountPin*%
%TO.N,GND*%
X78050000Y-109250000D03*
X84350000Y-109250000D03*
%TD*%
D23*
%TO.P,C33,1*%
%TO.N,VLCD*%
X136250000Y-40450000D03*
%TO.P,C33,2*%
%TO.N,GND*%
X136250000Y-32050000D03*
%TD*%
D24*
%TO.P,D2,1,K*%
%TO.N,VLCD*%
X114500000Y-45250000D03*
%TO.P,D2,2,A*%
%TO.N,Vin*%
X119500000Y-45250000D03*
%TD*%
D25*
%TO.P,R23,1*%
%TO.N,Net-(J7-PadL3)*%
X146705011Y-71540028D03*
%TO.P,R23,2*%
%TO.N,GND*%
X144705011Y-71540028D03*
%TD*%
D26*
%TO.P,J4,1,Pin_1*%
%TO.N,GND*%
X67900000Y-49440000D03*
D27*
%TO.P,J4,2,Pin_2*%
%TO.N,Encoder_B*%
X67900000Y-51980000D03*
%TO.P,J4,3,Pin_3*%
%TO.N,+5V*%
X67900000Y-54520000D03*
%TO.P,J4,4,Pin_4*%
%TO.N,Encoder_A*%
X67900000Y-57060000D03*
%TO.P,J4,5,Pin_5*%
%TO.N,GND*%
X67900000Y-59600000D03*
%TD*%
D11*
%TO.P,R21,1*%
%TO.N,LCD_VDD*%
X126400000Y-65000000D03*
%TO.P,R21,2*%
%TO.N,RMII_MDIO*%
X128400000Y-65000000D03*
%TD*%
D10*
%TO.P,REF\u002A\u002A,1*%
%TO.N,N/C*%
X162000000Y-34000000D03*
%TD*%
D11*
%TO.P,R49,1*%
%TO.N,18V*%
X128000000Y-100500000D03*
%TO.P,R49,2*%
%TO.N,GND*%
X130000000Y-100500000D03*
%TD*%
%TO.P,R46,1*%
%TO.N,Vin*%
X118500000Y-63000000D03*
%TO.P,R46,2*%
%TO.N,Vinsense*%
X120500000Y-63000000D03*
%TD*%
D20*
%TO.P,R13,1*%
%TO.N,LCD_VDD*%
X146505011Y-64340028D03*
%TO.P,R13,2*%
%TO.N,/TX+*%
X146505011Y-62340028D03*
%TD*%
D28*
%TO.P,C2,1*%
%TO.N,Vcap1*%
X93900000Y-64200000D03*
%TO.P,C2,2*%
%TO.N,GND*%
X93900000Y-62125000D03*
%TD*%
D18*
%TO.P,R44,1*%
%TO.N,Net-(R43-Pad2)*%
X155400000Y-46500000D03*
%TO.P,R44,2*%
%TO.N,GND*%
X155400000Y-48500000D03*
%TD*%
D28*
%TO.P,C12,1*%
%TO.N,LCD_VDD*%
X88700000Y-87700000D03*
%TO.P,C12,2*%
%TO.N,GND*%
X88700000Y-85625000D03*
%TD*%
D29*
%TO.P,C23,1*%
%TO.N,GND*%
X128137500Y-90700000D03*
%TO.P,C23,2*%
%TO.N,Crystal_32_in*%
X126062500Y-90700000D03*
%TD*%
D23*
%TO.P,C31,1*%
%TO.N,VLCD*%
X114250000Y-40450000D03*
%TO.P,C31,2*%
%TO.N,GND*%
X114250000Y-32050000D03*
%TD*%
D11*
%TO.P,R9,1*%
%TO.N,Net-(R9-Pad1)*%
X130600000Y-83000000D03*
%TO.P,R9,2*%
%TO.N,USB_OTG_D+*%
X132600000Y-83000000D03*
%TD*%
D18*
%TO.P,R26,1*%
%TO.N,+5V*%
X156400000Y-78800000D03*
%TO.P,R26,2*%
%TO.N,USB_OTG_D+*%
X156400000Y-80800000D03*
%TD*%
D30*
%TO.P,C32,1*%
%TO.N,Vin*%
X157012500Y-111950000D03*
%TO.P,C32,2*%
%TO.N,GND*%
X153887500Y-111950000D03*
%TD*%
D18*
%TO.P,R16,1*%
%TO.N,LCD_VDD*%
X120005011Y-55940028D03*
%TO.P,R16,2*%
%TO.N,RMII_RXD+*%
X120005011Y-57940028D03*
%TD*%
D31*
%TO.P,U3,1,E0*%
%TO.N,GND*%
X97475000Y-114605000D03*
%TO.P,U3,2,E1*%
X97475000Y-113335000D03*
%TO.P,U3,3,E2*%
X97475000Y-112065000D03*
%TO.P,U3,4,VSS*%
X97475000Y-110795000D03*
%TO.P,U3,5,SDA*%
%TO.N,I2C3_SDA*%
X92525000Y-110795000D03*
%TO.P,U3,6,SCL*%
%TO.N,I2C3_SCL*%
X92525000Y-112065000D03*
%TO.P,U3,7,~WC*%
%TO.N,N/C*%
X92525000Y-113335000D03*
%TO.P,U3,8,VCC*%
%TO.N,LCD_VDD*%
X92525000Y-114605000D03*
%TD*%
D17*
%TO.P,C6,1*%
%TO.N,LCD_VDD*%
X123600000Y-93500000D03*
%TO.P,C6,2*%
%TO.N,GND*%
X125675000Y-93500000D03*
%TD*%
D32*
%TO.P,C44,1*%
%TO.N,+5V*%
X97000000Y-43800000D03*
%TO.P,C44,2*%
%TO.N,GND*%
X92600000Y-43800000D03*
%TD*%
D33*
%TO.P,U11,1,VDD*%
%TO.N,LCD_VDD*%
X73600000Y-59550000D03*
%TO.P,U11,2,DQ0*%
%TO.N,SDRAM_D0*%
X74400000Y-59550000D03*
%TO.P,U11,3,VDDQ*%
%TO.N,LCD_VDD*%
X75200000Y-59550000D03*
%TO.P,U11,4,DQ1*%
%TO.N,SDRAM_D1*%
X76000000Y-59550000D03*
%TO.P,U11,5,DQ2*%
%TO.N,SDRAM_D2*%
X76800000Y-59550000D03*
%TO.P,U11,6,VSSQ*%
%TO.N,GND*%
X77600000Y-59550000D03*
%TO.P,U11,7,DQ3*%
%TO.N,SDRAM_D3*%
X78400000Y-59550000D03*
%TO.P,U11,8,DQ4*%
%TO.N,SDRAM_D4*%
X79200000Y-59550000D03*
%TO.P,U11,9,VDDQ*%
%TO.N,LCD_VDD*%
X80000000Y-59550000D03*
%TO.P,U11,10,DQ5*%
%TO.N,SDRAM_D5*%
X80800000Y-59550000D03*
%TO.P,U11,11,DQ6*%
%TO.N,SDRAM_D6*%
X81600000Y-59550000D03*
%TO.P,U11,12,VSSQ*%
%TO.N,GND*%
X82400000Y-59550000D03*
%TO.P,U11,13,DQ7*%
%TO.N,SDRAM_D7*%
X83200000Y-59550000D03*
%TO.P,U11,14,VDD*%
%TO.N,LCD_VDD*%
X84000000Y-59550000D03*
%TO.P,U11,15,DQML*%
%TO.N,SDRAM_NBL0*%
X84800000Y-59550000D03*
%TO.P,U11,16,~WE~*%
%TO.N,SDRAM_SDNWE*%
X85600000Y-59550000D03*
%TO.P,U11,17,~CAS~*%
%TO.N,SDRAM_SDNCAS*%
X86400000Y-59550000D03*
%TO.P,U11,18,~RAS~*%
%TO.N,SDRAM_SDNRAS*%
X87200000Y-59550000D03*
%TO.P,U11,19,~CS~*%
%TO.N,SDRAM_SDNE0*%
X88000000Y-59550000D03*
%TO.P,U11,20,BA0*%
%TO.N,SDRAM_BA0*%
X88800000Y-59550000D03*
%TO.P,U11,21,BA1*%
%TO.N,SDRAM_BA1*%
X89600000Y-59550000D03*
%TO.P,U11,22,A10*%
%TO.N,SDRAM_A10*%
X90400000Y-59550000D03*
%TO.P,U11,23,A0*%
%TO.N,SDRAM_A0*%
X91200000Y-59550000D03*
%TO.P,U11,24,A1*%
%TO.N,SDRAM_A1*%
X92000000Y-59550000D03*
%TO.P,U11,25,A2*%
%TO.N,SDRAM_A2*%
X92800000Y-59550000D03*
%TO.P,U11,26,A3*%
%TO.N,SDRAM_A3*%
X93600000Y-59550000D03*
%TO.P,U11,27,VDD*%
%TO.N,LCD_VDD*%
X94400000Y-59550000D03*
%TO.P,U11,28,VSS*%
%TO.N,GND*%
X94400000Y-48050000D03*
%TO.P,U11,29,A4*%
%TO.N,SDRAM_A4*%
X93600000Y-48050000D03*
%TO.P,U11,30,A5*%
%TO.N,SDRAM_A5*%
X92800000Y-48050000D03*
%TO.P,U11,31,A6*%
%TO.N,SDRAM_A6*%
X92000000Y-48050000D03*
%TO.P,U11,32,A7*%
%TO.N,SDRAM_A7*%
X91200000Y-48050000D03*
%TO.P,U11,33,A8*%
%TO.N,SDRAM_A8*%
X90400000Y-48050000D03*
%TO.P,U11,34,A9*%
%TO.N,SDRAM_A9*%
X89600000Y-48050000D03*
%TO.P,U11,35,A11*%
%TO.N,SDRAM_A11*%
X88800000Y-48050000D03*
%TO.P,U11,36*%
%TO.N,N/C*%
X88000000Y-48050000D03*
%TO.P,U11,37,CKE*%
%TO.N,SDRAM_SDCKE0*%
X87200000Y-48050000D03*
%TO.P,U11,38,CLK*%
%TO.N,SDRAM_SDCLK*%
X86400000Y-48050000D03*
%TO.P,U11,39,DQMH*%
%TO.N,SDRAM_NBL1*%
X85600000Y-48050000D03*
%TO.P,U11,40*%
%TO.N,N/C*%
X84800000Y-48050000D03*
%TO.P,U11,41,VSS*%
%TO.N,GND*%
X84000000Y-48050000D03*
%TO.P,U11,42,DQ8*%
%TO.N,SDRAM_D8*%
X83200000Y-48050000D03*
%TO.P,U11,43,VDDQ*%
%TO.N,LCD_VDD*%
X82400000Y-48050000D03*
%TO.P,U11,44,DQ9*%
%TO.N,SDRAM_D9*%
X81600000Y-48050000D03*
%TO.P,U11,45,DQ10*%
%TO.N,SDRAM_D10*%
X80800000Y-48050000D03*
%TO.P,U11,46,VSSQ*%
%TO.N,GND*%
X80000000Y-48050000D03*
%TO.P,U11,47,DQ11*%
%TO.N,SDRAM_D11*%
X79200000Y-48050000D03*
%TO.P,U11,48,DQ12*%
%TO.N,SDRAM_D12*%
X78400000Y-48050000D03*
%TO.P,U11,49,VDDQ*%
%TO.N,LCD_VDD*%
X77600000Y-48050000D03*
%TO.P,U11,50,DQ13*%
%TO.N,SDRAM_D13*%
X76800000Y-48050000D03*
%TO.P,U11,51,DQ14*%
%TO.N,SDRAM_D14*%
X76000000Y-48050000D03*
%TO.P,U11,52,VSSQ*%
%TO.N,GND*%
X75200000Y-48050000D03*
%TO.P,U11,53,DQ15*%
%TO.N,SDRAM_D15*%
X74400000Y-48050000D03*
%TO.P,U11,54,VSS*%
%TO.N,GND*%
X73600000Y-48050000D03*
%TD*%
D28*
%TO.P,C13,1*%
%TO.N,LCD_VDD*%
X87000000Y-75700000D03*
%TO.P,C13,2*%
%TO.N,GND*%
X87000000Y-73625000D03*
%TD*%
D34*
%TO.P,U1,1,PE2*%
%TO.N,N/C*%
X117675000Y-90250000D03*
%TO.P,U1,2,PE3*%
%TO.N,LCD_UPDN*%
X117675000Y-89750000D03*
%TO.P,U1,3,PE4*%
%TO.N,LCD_B0*%
X117675000Y-89250000D03*
%TO.P,U1,4,PE5*%
%TO.N,LCD_G0*%
X117675000Y-88750000D03*
%TO.P,U1,5,PE6*%
%TO.N,LCD_G1*%
X117675000Y-88250000D03*
%TO.P,U1,6,VBAT*%
%TO.N,LCD_VDD*%
X117675000Y-87750000D03*
%TO.P,U1,7,PI8*%
%TO.N,LCD_SHLR*%
X117675000Y-87250000D03*
%TO.P,U1,8,PC13*%
%TO.N,LCD_DITHB*%
X117675000Y-86750000D03*
%TO.P,U1,9,PC14*%
%TO.N,Crystal_32_in*%
X117675000Y-86250000D03*
%TO.P,U1,10,PC15*%
%TO.N,Crystal_32_out*%
X117675000Y-85750000D03*
%TO.P,U1,11,PI9*%
%TO.N,LCD_VSYNC*%
X117675000Y-85250000D03*
%TO.P,U1,12,PI10*%
%TO.N,LCD_HSYNC*%
X117675000Y-84750000D03*
%TO.P,U1,13,PI11*%
%TO.N,N/C*%
X117675000Y-84250000D03*
%TO.P,U1,14,VSS*%
%TO.N,GND*%
X117675000Y-83750000D03*
%TO.P,U1,15,VDD*%
%TO.N,LCD_VDD*%
X117675000Y-83250000D03*
%TO.P,U1,16,PF0*%
%TO.N,SDRAM_A0*%
X117675000Y-82750000D03*
%TO.P,U1,17,PF1*%
%TO.N,SDRAM_A1*%
X117675000Y-82250000D03*
%TO.P,U1,18,PF2*%
%TO.N,SDRAM_A2*%
X117675000Y-81750000D03*
%TO.P,U1,19,PF3*%
%TO.N,SDRAM_A3*%
X117675000Y-81250000D03*
%TO.P,U1,20,PF4*%
%TO.N,SDRAM_A4*%
X117675000Y-80750000D03*
%TO.P,U1,21,PF5*%
%TO.N,SDRAM_A5*%
X117675000Y-80250000D03*
%TO.P,U1,22,VSS*%
%TO.N,GND*%
X117675000Y-79750000D03*
%TO.P,U1,23,VDD*%
%TO.N,LCD_VDD*%
X117675000Y-79250000D03*
%TO.P,U1,24,PF6*%
%TO.N,N/C*%
X117675000Y-78750000D03*
%TO.P,U1,25,PF7*%
X117675000Y-78250000D03*
%TO.P,U1,26,PF8*%
%TO.N,LCD_CT_RESET*%
X117675000Y-77750000D03*
%TO.P,U1,27,PF9*%
%TO.N,LCD_CT_INT*%
X117675000Y-77250000D03*
%TO.P,U1,28,PF10*%
%TO.N,LCD_DEN*%
X117675000Y-76750000D03*
%TO.P,U1,29,PH0*%
%TO.N,25Mhz*%
X117675000Y-76250000D03*
%TO.P,U1,30,PH1*%
%TO.N,N/C*%
X117675000Y-75750000D03*
%TO.P,U1,31,NRST*%
%TO.N,RESET*%
X117675000Y-75250000D03*
%TO.P,U1,32,PC0*%
%TO.N,SDRAM_SDNWE*%
X117675000Y-74750000D03*
%TO.P,U1,33,PC1*%
%TO.N,RMII_MDC*%
X117675000Y-74250000D03*
%TO.P,U1,34,PC2*%
%TO.N,SDRAM_SDNE0*%
X117675000Y-73750000D03*
%TO.P,U1,35,PC3*%
%TO.N,SDRAM_SDCKE0*%
X117675000Y-73250000D03*
%TO.P,U1,36,VDD*%
%TO.N,LCD_VDD*%
X117675000Y-72750000D03*
%TO.P,U1,37,VSSA*%
%TO.N,GND*%
X117675000Y-72250000D03*
%TO.P,U1,38,VREF+*%
%TO.N,Net-(R7-Pad1)*%
X117675000Y-71750000D03*
%TO.P,U1,39,VDDA*%
%TO.N,LCD_VDD*%
X117675000Y-71250000D03*
%TO.P,U1,40,PA0*%
%TO.N,ADDR_LED1*%
X117675000Y-70750000D03*
%TO.P,U1,41,PA1*%
%TO.N,RMII_REF_CLK*%
X117675000Y-70250000D03*
%TO.P,U1,42,PA2*%
%TO.N,RMII_MDIO*%
X117675000Y-69750000D03*
%TO.P,U1,43,PH2*%
%TO.N,Vinsense*%
X117675000Y-69250000D03*
%TO.P,U1,44,PH3*%
%TO.N,LCD_R1*%
X117675000Y-68750000D03*
D35*
%TO.P,U1,45,PH4*%
%TO.N,I2C2_SCL*%
X115750000Y-66825000D03*
%TO.P,U1,46,PH5*%
%TO.N,I2C2_SDA*%
X115250000Y-66825000D03*
%TO.P,U1,47,PA3*%
%TO.N,ADDR_LED4*%
X114750000Y-66825000D03*
%TO.P,U1,48,BYPASS_REG*%
%TO.N,N/C*%
X114250000Y-66825000D03*
%TO.P,U1,49,VDD*%
%TO.N,LCD_VDD*%
X113750000Y-66825000D03*
%TO.P,U1,50,PA4*%
%TO.N,RMII_RXER*%
X113250000Y-66825000D03*
%TO.P,U1,51,PA5*%
%TO.N,SPI1_SCK*%
X112750000Y-66825000D03*
%TO.P,U1,52,PA6*%
%TO.N,SPI1_MISO*%
X112250000Y-66825000D03*
%TO.P,U1,53,PA7*%
%TO.N,RMII_CRS_DV*%
X111750000Y-66825000D03*
%TO.P,U1,54,PC4*%
%TO.N,RMII_RXD-*%
X111250000Y-66825000D03*
%TO.P,U1,55,PC5*%
%TO.N,RMII_RXD+*%
X110750000Y-66825000D03*
%TO.P,U1,56,PB0*%
%TO.N,Power3*%
X110250000Y-66825000D03*
%TO.P,U1,57,PB1*%
%TO.N,Power2*%
X109750000Y-66825000D03*
%TO.P,U1,58,PB2*%
%TO.N,N/C*%
X109250000Y-66825000D03*
%TO.P,U1,59,PF11*%
%TO.N,SDRAM_SDNRAS*%
X108750000Y-66825000D03*
%TO.P,U1,60,PF12*%
%TO.N,SDRAM_A6*%
X108250000Y-66825000D03*
%TO.P,U1,61,VSS*%
%TO.N,GND*%
X107750000Y-66825000D03*
%TO.P,U1,62,VDD*%
%TO.N,LCD_VDD*%
X107250000Y-66825000D03*
%TO.P,U1,63,PF13*%
%TO.N,SDRAM_A7*%
X106750000Y-66825000D03*
%TO.P,U1,64,PF14*%
%TO.N,SDRAM_A8*%
X106250000Y-66825000D03*
%TO.P,U1,65,PF15*%
%TO.N,SDRAM_A9*%
X105750000Y-66825000D03*
%TO.P,U1,66,PG0*%
%TO.N,SDRAM_A10*%
X105250000Y-66825000D03*
%TO.P,U1,67,PG1*%
%TO.N,SDRAM_A11*%
X104750000Y-66825000D03*
%TO.P,U1,68,PE7*%
%TO.N,SDRAM_D4*%
X104250000Y-66825000D03*
%TO.P,U1,69,PE8*%
%TO.N,SDRAM_D5*%
X103750000Y-66825000D03*
%TO.P,U1,70,PE9*%
%TO.N,SDRAM_D6*%
X103250000Y-66825000D03*
%TO.P,U1,71,VSS*%
%TO.N,GND*%
X102750000Y-66825000D03*
%TO.P,U1,72,VDD*%
%TO.N,LCD_VDD*%
X102250000Y-66825000D03*
%TO.P,U1,73,PE10*%
%TO.N,SDRAM_D7*%
X101750000Y-66825000D03*
%TO.P,U1,74,PE11*%
%TO.N,SDRAM_D8*%
X101250000Y-66825000D03*
%TO.P,U1,75,PE12*%
%TO.N,SDRAM_D9*%
X100750000Y-66825000D03*
%TO.P,U1,76,PE13*%
%TO.N,SDRAM_D10*%
X100250000Y-66825000D03*
%TO.P,U1,77,PE14*%
%TO.N,SDRAM_D11*%
X99750000Y-66825000D03*
%TO.P,U1,78,PE15*%
%TO.N,SDRAM_D12*%
X99250000Y-66825000D03*
%TO.P,U1,79,PB10*%
%TO.N,ADDR_LED3*%
X98750000Y-66825000D03*
%TO.P,U1,80,PB11*%
%TO.N,RMII_TXEN*%
X98250000Y-66825000D03*
%TO.P,U1,81,VCAP_1*%
%TO.N,Vcap1*%
X97750000Y-66825000D03*
%TO.P,U1,82,VDD*%
%TO.N,LCD_VDD*%
X97250000Y-66825000D03*
%TO.P,U1,83,PH6*%
%TO.N,N/C*%
X96750000Y-66825000D03*
%TO.P,U1,84,PH7*%
%TO.N,I2C3_SCL*%
X96250000Y-66825000D03*
%TO.P,U1,85,PH8*%
%TO.N,I2C3_SDA*%
X95750000Y-66825000D03*
%TO.P,U1,86,PH9*%
%TO.N,LCD_R3*%
X95250000Y-66825000D03*
%TO.P,U1,87,PH10*%
%TO.N,LCD_R4*%
X94750000Y-66825000D03*
%TO.P,U1,88,PH11*%
%TO.N,LCD_R5*%
X94250000Y-66825000D03*
D34*
%TO.P,U1,89,PH12*%
%TO.N,I2C4_SDA*%
X92325000Y-68750000D03*
%TO.P,U1,90,VSS*%
%TO.N,GND*%
X92325000Y-69250000D03*
%TO.P,U1,91,VDD*%
%TO.N,LCD_VDD*%
X92325000Y-69750000D03*
%TO.P,U1,92,PB12*%
%TO.N,RMII_TXD-*%
X92325000Y-70250000D03*
%TO.P,U1,93,PB13*%
%TO.N,RMII_TXD+*%
X92325000Y-70750000D03*
%TO.P,U1,94,PB14*%
%TO.N,SPI2_MISO*%
X92325000Y-71250000D03*
%TO.P,U1,95,PB15*%
%TO.N,SPI2_MOSI*%
X92325000Y-71750000D03*
%TO.P,U1,96,PD8*%
%TO.N,SDRAM_D13*%
X92325000Y-72250000D03*
%TO.P,U1,97,PD9*%
%TO.N,SDRAM_D14*%
X92325000Y-72750000D03*
%TO.P,U1,98,PD10*%
%TO.N,SDRAM_D15*%
X92325000Y-73250000D03*
%TO.P,U1,99,PD11*%
%TO.N,N/C*%
X92325000Y-73750000D03*
%TO.P,U1,100,PD12*%
%TO.N,I2C4_SCL*%
X92325000Y-74250000D03*
%TO.P,U1,101,PD13*%
%TO.N,N/C*%
X92325000Y-74750000D03*
%TO.P,U1,102,VSS*%
%TO.N,GND*%
X92325000Y-75250000D03*
%TO.P,U1,103,VDD*%
%TO.N,LCD_VDD*%
X92325000Y-75750000D03*
%TO.P,U1,104,PD14*%
%TO.N,SDRAM_D0*%
X92325000Y-76250000D03*
%TO.P,U1,105,PD15*%
%TO.N,SDRAM_D1*%
X92325000Y-76750000D03*
%TO.P,U1,106,PG2*%
%TO.N,N/C*%
X92325000Y-77250000D03*
%TO.P,U1,107,PG3*%
X92325000Y-77750000D03*
%TO.P,U1,108,PG4*%
%TO.N,SDRAM_BA0*%
X92325000Y-78250000D03*
%TO.P,U1,109,PG5*%
%TO.N,SDRAM_BA1*%
X92325000Y-78750000D03*
%TO.P,U1,110,PG6*%
%TO.N,LCD_R7*%
X92325000Y-79250000D03*
%TO.P,U1,111,PG7*%
%TO.N,LCD_PCLK*%
X92325000Y-79750000D03*
%TO.P,U1,112,PG8*%
%TO.N,SDRAM_SDCLK*%
X92325000Y-80250000D03*
%TO.P,U1,113,VSS*%
%TO.N,GND*%
X92325000Y-80750000D03*
%TO.P,U1,114,VDDUSB*%
%TO.N,LCD_VDD*%
X92325000Y-81250000D03*
%TO.P,U1,115,PC6*%
%TO.N,Encoder_A*%
X92325000Y-81750000D03*
%TO.P,U1,116,PC7*%
%TO.N,Encoder_B*%
X92325000Y-82250000D03*
%TO.P,U1,117,PC8*%
%TO.N,N/C*%
X92325000Y-82750000D03*
%TO.P,U1,118,PC9*%
X92325000Y-83250000D03*
%TO.P,U1,119,PA8*%
%TO.N,LCD_R6*%
X92325000Y-83750000D03*
%TO.P,U1,120,PA9*%
%TO.N,UART_TX1*%
X92325000Y-84250000D03*
%TO.P,U1,121,PA10*%
%TO.N,N/C*%
X92325000Y-84750000D03*
%TO.P,U1,122,PA11*%
%TO.N,Net-(R8-Pad1)*%
X92325000Y-85250000D03*
%TO.P,U1,123,PA12*%
%TO.N,Net-(R9-Pad1)*%
X92325000Y-85750000D03*
%TO.P,U1,124,PA13*%
%TO.N,SWD*%
X92325000Y-86250000D03*
%TO.P,U1,125,VCAP_2*%
%TO.N,Vcap2*%
X92325000Y-86750000D03*
%TO.P,U1,126,VSS*%
%TO.N,GND*%
X92325000Y-87250000D03*
%TO.P,U1,127,VDD*%
%TO.N,LCD_VDD*%
X92325000Y-87750000D03*
%TO.P,U1,128,PH13*%
%TO.N,LCD_G2*%
X92325000Y-88250000D03*
%TO.P,U1,129,PH14*%
%TO.N,LCD_G3*%
X92325000Y-88750000D03*
%TO.P,U1,130,PH15*%
%TO.N,LCD_G4*%
X92325000Y-89250000D03*
%TO.P,U1,131,PI0*%
%TO.N,LCD_G5*%
X92325000Y-89750000D03*
%TO.P,U1,132,PI1*%
%TO.N,LCD_G6*%
X92325000Y-90250000D03*
D35*
%TO.P,U1,133,PI2*%
%TO.N,LCD_G7*%
X94250000Y-92175000D03*
%TO.P,U1,134,PI3*%
%TO.N,Backlight*%
X94750000Y-92175000D03*
%TO.P,U1,135,VSS*%
%TO.N,GND*%
X95250000Y-92175000D03*
%TO.P,U1,136,VDD*%
%TO.N,LCD_VDD*%
X95750000Y-92175000D03*
%TO.P,U1,137,PA14*%
%TO.N,SWCLK*%
X96250000Y-92175000D03*
%TO.P,U1,138,PA15*%
%TO.N,USER_BTN*%
X96750000Y-92175000D03*
%TO.P,U1,139,PC10*%
%TO.N,LCD_R2*%
X97250000Y-92175000D03*
%TO.P,U1,140,PC11*%
%TO.N,Galv_Enable*%
X97750000Y-92175000D03*
%TO.P,U1,141,PC12*%
%TO.N,Galv_Interrupt*%
X98250000Y-92175000D03*
%TO.P,U1,142,PD0*%
%TO.N,SDRAM_D2*%
X98750000Y-92175000D03*
%TO.P,U1,143,PD1*%
%TO.N,SDRAM_D3*%
X99250000Y-92175000D03*
%TO.P,U1,144,PD2*%
%TO.N,N/C*%
X99750000Y-92175000D03*
%TO.P,U1,145,PD3*%
%TO.N,SPI2_SCK*%
X100250000Y-92175000D03*
%TO.P,U1,146,PD4*%
%TO.N,N/C*%
X100750000Y-92175000D03*
%TO.P,U1,147,PD5*%
%TO.N,UART_TX2*%
X101250000Y-92175000D03*
%TO.P,U1,148,VSS*%
%TO.N,GND*%
X101750000Y-92175000D03*
%TO.P,U1,149,VDD*%
%TO.N,LCD_VDD*%
X102250000Y-92175000D03*
%TO.P,U1,150,PD6*%
%TO.N,UART_RX2*%
X102750000Y-92175000D03*
%TO.P,U1,151,PD7*%
%TO.N,N/C*%
X103250000Y-92175000D03*
%TO.P,U1,152,PG9*%
%TO.N,LDC_MODE*%
X103750000Y-92175000D03*
%TO.P,U1,153,PG10*%
%TO.N,LCD_B2*%
X104250000Y-92175000D03*
%TO.P,U1,154,PG11*%
%TO.N,LCD_B3*%
X104750000Y-92175000D03*
%TO.P,U1,155,PG12*%
%TO.N,LCD_B1*%
X105250000Y-92175000D03*
%TO.P,U1,156,PG13*%
%TO.N,LCD_R0*%
X105750000Y-92175000D03*
%TO.P,U1,157,PG14*%
%TO.N,N/C*%
X106250000Y-92175000D03*
%TO.P,U1,158,VSS*%
%TO.N,GND*%
X106750000Y-92175000D03*
%TO.P,U1,159,VDD*%
%TO.N,LCD_VDD*%
X107250000Y-92175000D03*
%TO.P,U1,160,PG15*%
%TO.N,SDRAM_SDNCAS*%
X107750000Y-92175000D03*
%TO.P,U1,161,PB3*%
%TO.N,ADDR_LED2*%
X108250000Y-92175000D03*
%TO.P,U1,162,PB4*%
%TO.N,N/C*%
X108750000Y-92175000D03*
%TO.P,U1,163,PB5*%
%TO.N,SPI1_MOSI*%
X109250000Y-92175000D03*
%TO.P,U1,164,PB6*%
%TO.N,N/C*%
X109750000Y-92175000D03*
%TO.P,U1,165,PB7*%
%TO.N,UART_RX1*%
X110250000Y-92175000D03*
%TO.P,U1,166,BOOT0*%
%TO.N,Boot0*%
X110750000Y-92175000D03*
%TO.P,U1,167,PB8*%
%TO.N,LCD_B6*%
X111250000Y-92175000D03*
%TO.P,U1,168,PB9*%
%TO.N,LCD_B7*%
X111750000Y-92175000D03*
%TO.P,U1,169,PE0*%
%TO.N,SDRAM_NBL0*%
X112250000Y-92175000D03*
%TO.P,U1,170,PE1*%
%TO.N,SDRAM_NBL1*%
X112750000Y-92175000D03*
%TO.P,U1,171,PDR_ON*%
%TO.N,N/C*%
X113250000Y-92175000D03*
%TO.P,U1,172,VDD*%
%TO.N,LCD_VDD*%
X113750000Y-92175000D03*
%TO.P,U1,173,PI4*%
%TO.N,LCD_B4*%
X114250000Y-92175000D03*
%TO.P,U1,174,PI5*%
%TO.N,LCD_B5*%
X114750000Y-92175000D03*
%TO.P,U1,175,PI6*%
%TO.N,N/C*%
X115250000Y-92175000D03*
%TO.P,U1,176,PI7*%
X115750000Y-92175000D03*
%TD*%
D19*
%TO.P,C16,1*%
%TO.N,LCD_VDD*%
X92400000Y-92700000D03*
%TO.P,C16,2*%
%TO.N,GND*%
X92400000Y-94775000D03*
%TD*%
D36*
%TO.P,J5,1,VBUS*%
%TO.N,+5V*%
X153785000Y-84900000D03*
D37*
%TO.P,J5,2,D-*%
%TO.N,USB_OTG_D-*%
X153785000Y-82400000D03*
%TO.P,J5,3,D+*%
%TO.N,USB_OTG_D+*%
X153785000Y-80400000D03*
%TO.P,J5,4,GND*%
%TO.N,GND*%
X153785000Y-77900000D03*
D38*
%TO.P,J5,5,Shield*%
X153185000Y-87970000D03*
D39*
X149005000Y-81400000D03*
D38*
X153185000Y-74830000D03*
%TD*%
D17*
%TO.P,C27,1*%
%TO.N,LCD_VDD*%
X93862500Y-116500000D03*
%TO.P,C27,2*%
%TO.N,GND*%
X95937500Y-116500000D03*
%TD*%
D40*
%TO.P,U12,1,VO*%
%TO.N,18V*%
X146225000Y-46595000D03*
%TO.P,U12,2,GND*%
%TO.N,GND*%
X146225000Y-47865000D03*
%TO.P,U12,3,GND*%
X146225000Y-49135000D03*
%TO.P,U12,4,ADJ*%
%TO.N,Net-(R37-Pad2)*%
X146225000Y-50405000D03*
%TO.P,U12,5,En*%
%TO.N,Power3*%
X151175000Y-50405000D03*
%TO.P,U12,6,GND*%
%TO.N,GND*%
X151175000Y-49135000D03*
%TO.P,U12,7,GND*%
X151175000Y-47865000D03*
%TO.P,U12,8,VI*%
%TO.N,VLCD*%
X151175000Y-46595000D03*
%TD*%
D28*
%TO.P,C1,1*%
%TO.N,Vcap2*%
X86600000Y-87725000D03*
%TO.P,C1,2*%
%TO.N,GND*%
X86600000Y-85650000D03*
%TD*%
D29*
%TO.P,C19,1*%
%TO.N,LCD_VDD*%
X127042511Y-56840028D03*
%TO.P,C19,2*%
%TO.N,GND*%
X124967511Y-56840028D03*
%TD*%
D11*
%TO.P,R5,1*%
%TO.N,I2C4_SCL*%
X78000000Y-84700000D03*
%TO.P,R5,2*%
%TO.N,LCD_VDD*%
X80000000Y-84700000D03*
%TD*%
D17*
%TO.P,C42,1*%
%TO.N,LCD_VDD*%
X113125000Y-95800000D03*
%TO.P,C42,2*%
%TO.N,GND*%
X115200000Y-95800000D03*
%TD*%
D25*
%TO.P,R25,1*%
%TO.N,Net-(J7-PadL2)*%
X146705011Y-69540028D03*
%TO.P,R25,2*%
%TO.N,GND*%
X144705011Y-69540028D03*
%TD*%
%TO.P,R34,1*%
%TO.N,Net-(R30-Pad2)*%
X94250000Y-30500000D03*
%TO.P,R34,2*%
%TO.N,GND*%
X92250000Y-30500000D03*
%TD*%
D41*
%TO.P,R38,1*%
%TO.N,Vin*%
X157100000Y-109250000D03*
%TO.P,R38,2*%
%TO.N,Backlight Anode*%
X154000000Y-109250000D03*
%TD*%
D19*
%TO.P,C35,1*%
%TO.N,Net-(C35-Pad1)*%
X132900000Y-109825000D03*
%TO.P,C35,2*%
%TO.N,Net-(C35-Pad2)*%
X132900000Y-111900000D03*
%TD*%
D20*
%TO.P,R15,1*%
%TO.N,LCD_VDD*%
X144505011Y-64340028D03*
%TO.P,R15,2*%
%TO.N,/TX-*%
X144505011Y-62340028D03*
%TD*%
D29*
%TO.P,C58,1*%
%TO.N,LCD_VDD*%
X75500000Y-45600000D03*
%TO.P,C58,2*%
%TO.N,GND*%
X73425000Y-45600000D03*
%TD*%
D25*
%TO.P,R33,1*%
%TO.N,Power2*%
X152000000Y-44700000D03*
%TO.P,R33,2*%
%TO.N,GND*%
X150000000Y-44700000D03*
%TD*%
D17*
%TO.P,C11,1*%
%TO.N,LCD_VDD*%
X113900000Y-63100000D03*
%TO.P,C11,2*%
%TO.N,GND*%
X115975000Y-63100000D03*
%TD*%
D42*
%TO.P,SW2,1,1*%
%TO.N,RESET*%
X139900000Y-73400000D03*
X134100000Y-73400000D03*
%TO.P,SW2,2,2*%
%TO.N,GND*%
X134100000Y-77400000D03*
X139900000Y-77400000D03*
%TD*%
D18*
%TO.P,R2,1*%
%TO.N,I2C3_SDA*%
X87000000Y-111000000D03*
%TO.P,R2,2*%
%TO.N,LCD_VDD*%
X87000000Y-113000000D03*
%TD*%
D29*
%TO.P,C26,1*%
%TO.N,GND*%
X80075000Y-91500000D03*
%TO.P,C26,2*%
%TO.N,USER_BTN*%
X78000000Y-91500000D03*
%TD*%
D11*
%TO.P,R10,1*%
%TO.N,25Mhz*%
X125005011Y-48840028D03*
%TO.P,R10,2*%
%TO.N,Net-(R10-Pad2)*%
X127005011Y-48840028D03*
%TD*%
D18*
%TO.P,R35,1*%
%TO.N,Power3*%
X141400000Y-49100000D03*
%TO.P,R35,2*%
%TO.N,GND*%
X141400000Y-51100000D03*
%TD*%
D43*
%TO.P,U2,1,VDD2A*%
%TO.N,LCD_VDD*%
X132755011Y-58022528D03*
%TO.P,U2,2,LED2/nINTSEL*%
%TO.N,Net-(J7-PadL1)*%
X132255011Y-58022528D03*
%TO.P,U2,3,LED1/REGOFF*%
%TO.N,Net-(J7-PadL4)*%
X131755011Y-58022528D03*
%TO.P,U2,4,XTAL2*%
%TO.N,N/C*%
X131255011Y-58022528D03*
%TO.P,U2,5,XTAL1/CLKIN*%
%TO.N,Net-(R10-Pad2)*%
X130755011Y-58022528D03*
%TO.P,U2,6,VDDCR*%
%TO.N,Net-(C21-Pad1)*%
X130255011Y-58022528D03*
D44*
%TO.P,U2,7,RXD1/MODE1*%
%TO.N,RMII_RXD+*%
X129567511Y-58710028D03*
%TO.P,U2,8,RXD0/MODE0*%
%TO.N,RMII_RXD-*%
X129567511Y-59210028D03*
%TO.P,U2,9,VDDIO*%
%TO.N,LCD_VDD*%
X129567511Y-59710028D03*
%TO.P,U2,10,RXER/PHYAD0*%
%TO.N,RMII_RXER*%
X129567511Y-60210028D03*
%TO.P,U2,11,CRS_DV/MODE2*%
%TO.N,RMII_CRS_DV*%
X129567511Y-60710028D03*
%TO.P,U2,12,MDIO*%
%TO.N,RMII_MDIO*%
X129567511Y-61210028D03*
D43*
%TO.P,U2,13,MDC*%
%TO.N,RMII_MDC*%
X130255011Y-61897528D03*
%TO.P,U2,14,INT/REFCLKO*%
%TO.N,RMII_REF_CLK*%
X130755011Y-61897528D03*
%TO.P,U2,15,RST*%
%TO.N,RESET*%
X131255011Y-61897528D03*
%TO.P,U2,16,TXEN*%
%TO.N,RMII_TXEN*%
X131755011Y-61897528D03*
%TO.P,U2,17,TXD0*%
%TO.N,RMII_TXD-*%
X132255011Y-61897528D03*
%TO.P,U2,18,TXD1*%
%TO.N,RMII_TXD+*%
X132755011Y-61897528D03*
D44*
%TO.P,U2,19,VDD1A*%
%TO.N,LCD_VDD*%
X133442511Y-61210028D03*
%TO.P,U2,20,TXN*%
%TO.N,/TX-*%
X133442511Y-60710028D03*
%TO.P,U2,21,TXP*%
%TO.N,/TX+*%
X133442511Y-60210028D03*
%TO.P,U2,22,RXN*%
%TO.N,/RX-*%
X133442511Y-59710028D03*
%TO.P,U2,23,RXP*%
%TO.N,/RX+*%
X133442511Y-59210028D03*
%TO.P,U2,24,RBIAS*%
%TO.N,Net-(R11-Pad1)*%
X133442511Y-58710028D03*
D45*
%TO.P,U2,25,VSS*%
%TO.N,GND*%
X131505011Y-59960028D03*
%TD*%
D23*
%TO.P,C38,1*%
%TO.N,VLCD*%
X125250000Y-40450000D03*
%TO.P,C38,2*%
%TO.N,GND*%
X125250000Y-32050000D03*
%TD*%
D11*
%TO.P,R48,1*%
%TO.N,9.6V*%
X134500000Y-119500000D03*
%TO.P,R48,2*%
%TO.N,GND*%
X136500000Y-119500000D03*
%TD*%
D10*
%TO.P,REF\u002A\u002A,1*%
%TO.N,N/C*%
X71000000Y-120000000D03*
%TD*%
D18*
%TO.P,R1,1*%
%TO.N,I2C3_SCL*%
X89000000Y-112200000D03*
%TO.P,R1,2*%
%TO.N,LCD_VDD*%
X89000000Y-114200000D03*
%TD*%
D46*
%TO.P,U10,1,Vcc*%
%TO.N,9.6V*%
X136187500Y-109925000D03*
%TO.P,U10,2,C1+*%
%TO.N,Net-(C35-Pad1)*%
X136187500Y-110575000D03*
%TO.P,U10,3,C1-*%
%TO.N,Net-(C35-Pad2)*%
X136187500Y-111225000D03*
%TO.P,U10,4,GND*%
%TO.N,GND*%
X136187500Y-111875000D03*
%TO.P,U10,5,ADJ*%
%TO.N,Net-(C37-Pad1)*%
X140412500Y-111875000D03*
%TO.P,U10,6,OUT*%
%TO.N,-6V*%
X140412500Y-111225000D03*
%TO.P,U10,7,REG*%
%TO.N,N/C*%
X140412500Y-110575000D03*
%TO.P,U10,8,SHDN*%
X140412500Y-109925000D03*
%TD*%
D29*
%TO.P,C30,1*%
%TO.N,-6V*%
X143300000Y-108000000D03*
%TO.P,C30,2*%
%TO.N,GND*%
X141225000Y-108000000D03*
%TD*%
D28*
%TO.P,C5,1*%
%TO.N,LCD_VDD*%
X95900000Y-64200000D03*
%TO.P,C5,2*%
%TO.N,GND*%
X95900000Y-62125000D03*
%TD*%
D29*
%TO.P,C8,1*%
%TO.N,LCD_VDD*%
X109975000Y-96200000D03*
%TO.P,C8,2*%
%TO.N,GND*%
X107900000Y-96200000D03*
%TD*%
D25*
%TO.P,R32,1*%
%TO.N,2.9V*%
X100400000Y-116500000D03*
%TO.P,R32,2*%
%TO.N,GND*%
X98400000Y-116500000D03*
%TD*%
D20*
%TO.P,R42,1*%
%TO.N,+5V*%
X107250000Y-45500000D03*
%TO.P,R42,2*%
%TO.N,Net-(R42-Pad2)*%
X107250000Y-43500000D03*
%TD*%
D11*
%TO.P,R37,1*%
%TO.N,18V*%
X142200000Y-53000000D03*
%TO.P,R37,2*%
%TO.N,Net-(R37-Pad2)*%
X144200000Y-53000000D03*
%TD*%
D18*
%TO.P,R39,1*%
%TO.N,-6V*%
X143200000Y-111200000D03*
%TO.P,R39,2*%
%TO.N,Net-(C37-Pad1)*%
X143200000Y-113200000D03*
%TD*%
D17*
%TO.P,C53,1*%
%TO.N,LCD_VDD*%
X84462500Y-45800000D03*
%TO.P,C53,2*%
%TO.N,GND*%
X86537500Y-45800000D03*
%TD*%
%TO.P,C7,1*%
%TO.N,LCD_VDD*%
X100100000Y-60400000D03*
%TO.P,C7,2*%
%TO.N,GND*%
X102175000Y-60400000D03*
%TD*%
D42*
%TO.P,SW1,1,1*%
%TO.N,LCD_VDD*%
X82500000Y-100400000D03*
X76700000Y-100400000D03*
%TO.P,SW1,2,2*%
%TO.N,Net-(R27-Pad1)*%
X82500000Y-96400000D03*
X76700000Y-96400000D03*
%TD*%
D18*
%TO.P,R22,1*%
%TO.N,LCD_VDD*%
X146505011Y-56340028D03*
%TO.P,R22,2*%
%TO.N,/RX-*%
X146505011Y-58340028D03*
%TD*%
D17*
%TO.P,C17,1*%
%TO.N,LCD_VDD*%
X135180011Y-62840028D03*
%TO.P,C17,2*%
%TO.N,GND*%
X137255011Y-62840028D03*
%TD*%
D18*
%TO.P,R45,1*%
%TO.N,Net-(R42-Pad2)*%
X109250000Y-43500000D03*
%TO.P,R45,2*%
%TO.N,GND*%
X109250000Y-45500000D03*
%TD*%
D11*
%TO.P,R3,1*%
%TO.N,I2C2_SCL*%
X78900000Y-69500000D03*
%TO.P,R3,2*%
%TO.N,LCD_VDD*%
X80900000Y-69500000D03*
%TD*%
D47*
%TO.P,X1,1,EN*%
%TO.N,Net-(R28-Pad2)*%
X112025000Y-54825000D03*
%TO.P,X1,2,GND*%
%TO.N,GND*%
X112025000Y-56975000D03*
%TO.P,X1,3,OUT*%
%TO.N,25Mhz*%
X113575000Y-56975000D03*
%TO.P,X1,4,V+*%
%TO.N,LCD_VDD*%
X113575000Y-54825000D03*
%TD*%
D20*
%TO.P,R4,1*%
%TO.N,I2C2_SDA*%
X74000000Y-67500000D03*
%TO.P,R4,2*%
%TO.N,LCD_VDD*%
X74000000Y-65500000D03*
%TD*%
D26*
%TO.P,J10,1,Pin_1*%
%TO.N,LCD_VDD*%
X136075000Y-95525000D03*
D27*
%TO.P,J10,2,Pin_2*%
%TO.N,Boot0*%
X136075000Y-92985000D03*
%TO.P,J10,3,Pin_3*%
%TO.N,GND*%
X136075000Y-90445000D03*
%TD*%
D11*
%TO.P,R20,1*%
%TO.N,LCD_VDD*%
X127800000Y-67700000D03*
%TO.P,R20,2*%
%TO.N,RMII_REF_CLK*%
X129800000Y-67700000D03*
%TD*%
%TO.P,R6,1*%
%TO.N,I2C4_SDA*%
X78800000Y-87500000D03*
%TO.P,R6,2*%
%TO.N,LCD_VDD*%
X80800000Y-87500000D03*
%TD*%
D20*
%TO.P,R36,1*%
%TO.N,Backlight*%
X91250000Y-99000000D03*
%TO.P,R36,2*%
%TO.N,GND*%
X91250000Y-97000000D03*
%TD*%
D17*
%TO.P,C9,1*%
%TO.N,LCD_VDD*%
X107125000Y-62700000D03*
%TO.P,C9,2*%
%TO.N,GND*%
X109200000Y-62700000D03*
%TD*%
%TO.P,C45,1*%
%TO.N,+5V*%
X104162500Y-53600000D03*
%TO.P,C45,2*%
%TO.N,GND*%
X106237500Y-53600000D03*
%TD*%
D29*
%TO.P,C37,1*%
%TO.N,Net-(C37-Pad1)*%
X139500000Y-113700000D03*
%TO.P,C37,2*%
%TO.N,GND*%
X137425000Y-113700000D03*
%TD*%
%TO.P,C21,1*%
%TO.N,Net-(C21-Pad1)*%
X127012511Y-52840028D03*
%TO.P,C21,2*%
%TO.N,GND*%
X124937511Y-52840028D03*
%TD*%
D20*
%TO.P,R18,1*%
%TO.N,LCD_VDD*%
X123205011Y-62940028D03*
%TO.P,R18,2*%
%TO.N,RMII_CRS_DV*%
X123205011Y-60940028D03*
%TD*%
D48*
%TO.P,J7,13,SHIELD*%
%TO.N,GND*%
X155760011Y-68210028D03*
X155760011Y-52710028D03*
D49*
%TO.P,J7,L1,LEDY_A*%
%TO.N,Net-(J7-PadL1)*%
X163710011Y-53835028D03*
%TO.P,J7,L2,LEDY_K*%
%TO.N,Net-(J7-PadL2)*%
X163710011Y-56375028D03*
%TO.P,J7,L3,LEDG_K*%
%TO.N,Net-(J7-PadL3)*%
X163710011Y-64532528D03*
%TO.P,J7,L4,LEDG_A*%
%TO.N,Net-(J7-PadL4)*%
X163710011Y-67072528D03*
D50*
%TO.P,J7,R1,TD+*%
%TO.N,/TX+*%
X152450011Y-64910028D03*
D51*
%TO.P,J7,R2,TD-*%
%TO.N,/TX-*%
X149910011Y-63640028D03*
%TO.P,J7,R3,RD+*%
%TO.N,/RX+*%
X152450011Y-62370028D03*
%TO.P,J7,R4,TCT*%
%TO.N,LCD_VDD*%
X149910011Y-61100028D03*
%TO.P,J7,R5,RCT*%
X152450011Y-59830028D03*
%TO.P,J7,R6,RD-*%
%TO.N,/RX-*%
X149910011Y-58560028D03*
%TO.P,J7,R7,NC*%
%TO.N,N/C*%
X152450011Y-57290028D03*
%TO.P,J7,R8,GND*%
%TO.N,GND*%
X149910011Y-56020028D03*
%TD*%
D29*
%TO.P,C18,1*%
%TO.N,LCD_VDD*%
X127005011Y-54840028D03*
%TO.P,C18,2*%
%TO.N,GND*%
X124930011Y-54840028D03*
%TD*%
D25*
%TO.P,R30,1*%
%TO.N,LCD_VDD*%
X98250000Y-30500000D03*
%TO.P,R30,2*%
%TO.N,Net-(R30-Pad2)*%
X96250000Y-30500000D03*
%TD*%
D20*
%TO.P,R24,1*%
%TO.N,GND*%
X125255011Y-62540028D03*
%TO.P,R24,2*%
%TO.N,RMII_RXER*%
X125255011Y-60540028D03*
%TD*%
D17*
%TO.P,C54,1*%
%TO.N,LCD_VDD*%
X89000000Y-63200000D03*
%TO.P,C54,2*%
%TO.N,GND*%
X91075000Y-63200000D03*
%TD*%
D52*
%TO.P,J6,A1,GND*%
%TO.N,GND*%
X160815000Y-85400000D03*
%TO.P,J6,A4,VBUS*%
%TO.N,+5V*%
X160815000Y-84600000D03*
D53*
%TO.P,J6,A5,CC1*%
%TO.N,N/C*%
X160815000Y-83450000D03*
%TO.P,J6,A6,D+*%
%TO.N,USB_OTG_D+*%
X160815000Y-82450000D03*
%TO.P,J6,A7,D-*%
%TO.N,USB_OTG_D-*%
X160815000Y-81950000D03*
%TO.P,J6,A8,SBU1*%
%TO.N,N/C*%
X160815000Y-80950000D03*
D52*
%TO.P,J6,A9,VBUS*%
%TO.N,+5V*%
X160815000Y-79800000D03*
%TO.P,J6,A12,GND*%
%TO.N,GND*%
X160815000Y-79000000D03*
%TO.P,J6,B1,GND*%
X160815000Y-79000000D03*
%TO.P,J6,B4,VBUS*%
%TO.N,+5V*%
X160815000Y-79800000D03*
D53*
%TO.P,J6,B5,CC2*%
%TO.N,N/C*%
X160815000Y-80450000D03*
%TO.P,J6,B6,D+*%
%TO.N,USB_OTG_D+*%
X160815000Y-81450000D03*
%TO.P,J6,B7,D-*%
%TO.N,USB_OTG_D-*%
X160815000Y-82950000D03*
%TO.P,J6,B8,SBU2*%
%TO.N,N/C*%
X160815000Y-83950000D03*
D52*
%TO.P,J6,B9,VBUS*%
%TO.N,+5V*%
X160815000Y-84600000D03*
%TO.P,J6,B12,GND*%
%TO.N,GND*%
X160815000Y-85400000D03*
D54*
%TO.P,J6,S1,SHIELD*%
X165565000Y-77880000D03*
D55*
X161395000Y-86520000D03*
D54*
X165565000Y-86520000D03*
D55*
X161395000Y-77880000D03*
%TD*%
D29*
%TO.P,C10,1*%
%TO.N,LCD_VDD*%
X101400000Y-96600000D03*
%TO.P,C10,2*%
%TO.N,GND*%
X99325000Y-96600000D03*
%TD*%
D10*
%TO.P,REF\u002A\u002A,1*%
%TO.N,N/C*%
X162000000Y-120000000D03*
%TD*%
D17*
%TO.P,C4,1*%
%TO.N,LCD_VDD*%
X120862500Y-79700000D03*
%TO.P,C4,2*%
%TO.N,GND*%
X122937500Y-79700000D03*
%TD*%
D29*
%TO.P,C40,1*%
%TO.N,GND*%
X128075000Y-87800000D03*
%TO.P,C40,2*%
%TO.N,Crystal_32_out*%
X126000000Y-87800000D03*
%TD*%
D56*
%TO.P,D1,1,K*%
%TO.N,Vin*%
X160350000Y-111550000D03*
%TO.P,D1,2,A*%
%TO.N,Net-(D1-Pad2)*%
X160350000Y-106550000D03*
%TD*%
D28*
%TO.P,C24,1*%
%TO.N,LCD_VDD*%
X142505011Y-58377528D03*
%TO.P,C24,2*%
%TO.N,GND*%
X142505011Y-56302528D03*
%TD*%
D18*
%TO.P,R28,1*%
%TO.N,LCD_VDD*%
X109000000Y-52500000D03*
%TO.P,R28,2*%
%TO.N,Net-(R28-Pad2)*%
X109000000Y-54500000D03*
%TD*%
D57*
%TO.P,C48,1*%
%TO.N,VLCD*%
X89400000Y-38000000D03*
%TO.P,C48,2*%
%TO.N,GND*%
X93000000Y-38000000D03*
%TD*%
D11*
%TO.P,R12,1*%
%TO.N,Net-(J7-PadL4)*%
X136205011Y-50540028D03*
%TO.P,R12,2*%
%TO.N,GND*%
X138205011Y-50540028D03*
%TD*%
D17*
%TO.P,C49,1*%
%TO.N,VLCD*%
X88675000Y-41750000D03*
%TO.P,C49,2*%
%TO.N,GND*%
X90750000Y-41750000D03*
%TD*%
D12*
%TO.P,U9,1,EN*%
%TO.N,Power2*%
X143220000Y-40200000D03*
%TO.P,U9,2,VIN*%
%TO.N,VLCD*%
X144360000Y-40200000D03*
D13*
%TO.P,U9,3,GND*%
%TO.N,GND*%
X145500000Y-33900000D03*
D12*
X145500000Y-40200000D03*
%TO.P,U9,4,VOUT*%
%TO.N,9.6V*%
X146640000Y-40200000D03*
%TO.P,U9,5,ADJ*%
%TO.N,Net-(R43-Pad2)*%
X147780000Y-40200000D03*
%TD*%
D11*
%TO.P,R51,1*%
%TO.N,2.9V*%
X128000000Y-102500000D03*
%TO.P,R51,2*%
%TO.N,GND*%
X130000000Y-102500000D03*
%TD*%
%TO.P,R27,1*%
%TO.N,Net-(R27-Pad1)*%
X80200000Y-93700000D03*
%TO.P,R27,2*%
%TO.N,GND*%
X82200000Y-93700000D03*
%TD*%
D58*
%TO.P,J9,0*%
%TO.N,N/C*%
X102150000Y-113430000D03*
X129850000Y-113430000D03*
D59*
%TO.P,J9,1,Pin_1*%
%TO.N,Backlight Anode*%
X128250000Y-111330000D03*
%TO.P,J9,2,Pin_2*%
X127750000Y-111330000D03*
%TO.P,J9,3,Pin_3*%
%TO.N,Backlight Cathode*%
X127250000Y-111330000D03*
%TO.P,J9,4,Pin_4*%
X126750000Y-111330000D03*
%TO.P,J9,5,Pin_5*%
%TO.N,GND*%
X126250000Y-111330000D03*
%TO.P,J9,6,Pin_6*%
%TO.N,2.9V*%
X125750000Y-111330000D03*
%TO.P,J9,7,Pin_7*%
%TO.N,LCD_VDD*%
X125250000Y-111330000D03*
%TO.P,J9,8,Pin_8*%
%TO.N,LCD_DEN*%
X124750000Y-111330000D03*
%TO.P,J9,9,Pin_9*%
%TO.N,LDC_MODE*%
X124250000Y-111330000D03*
%TO.P,J9,10,Pin_10*%
%TO.N,LCD_VSYNC*%
X123750000Y-111330000D03*
%TO.P,J9,11,Pin_11*%
%TO.N,LCD_HSYNC*%
X123250000Y-111330000D03*
%TO.P,J9,12,Pin_12*%
%TO.N,LCD_B7*%
X122750000Y-111330000D03*
%TO.P,J9,13,Pin_13*%
%TO.N,LCD_B6*%
X122250000Y-111330000D03*
%TO.P,J9,14,Pin_14*%
%TO.N,LCD_B5*%
X121750000Y-111330000D03*
%TO.P,J9,15,Pin_15*%
%TO.N,LCD_B4*%
X121250000Y-111330000D03*
%TO.P,J9,16,Pin_16*%
%TO.N,LCD_B3*%
X120750000Y-111330000D03*
%TO.P,J9,17,Pin_17*%
%TO.N,LCD_B2*%
X120250000Y-111330000D03*
%TO.P,J9,18,Pin_18*%
%TO.N,LCD_B1*%
X119750000Y-111330000D03*
%TO.P,J9,19,Pin_19*%
%TO.N,LCD_B0*%
X119250000Y-111330000D03*
%TO.P,J9,20,Pin_20*%
%TO.N,LCD_G7*%
X118750000Y-111330000D03*
%TO.P,J9,21,Pin_21*%
%TO.N,LCD_G6*%
X118250000Y-111330000D03*
%TO.P,J9,22,Pin_22*%
%TO.N,LCD_G5*%
X117750000Y-111330000D03*
%TO.P,J9,23,Pin_23*%
%TO.N,LCD_G4*%
X117250000Y-111330000D03*
%TO.P,J9,24,Pin_24*%
%TO.N,LCD_G3*%
X116750000Y-111330000D03*
%TO.P,J9,25,Pin_25*%
%TO.N,LCD_G2*%
X116250000Y-111330000D03*
%TO.P,J9,26,Pin_26*%
%TO.N,LCD_G1*%
X115750000Y-111330000D03*
%TO.P,J9,27,Pin_27*%
%TO.N,LCD_G0*%
X115250000Y-111330000D03*
%TO.P,J9,28,Pin_28*%
%TO.N,LCD_R7*%
X114750000Y-111330000D03*
%TO.P,J9,29,Pin_29*%
%TO.N,LCD_R6*%
X114250000Y-111330000D03*
%TO.P,J9,30,Pin_30*%
%TO.N,LCD_R5*%
X113750000Y-111330000D03*
%TO.P,J9,31,Pin_31*%
%TO.N,LCD_R4*%
X113250000Y-111330000D03*
%TO.P,J9,32,Pin_32*%
%TO.N,LCD_R3*%
X112750000Y-111330000D03*
%TO.P,J9,33,Pin_33*%
%TO.N,LCD_R2*%
X112250000Y-111330000D03*
%TO.P,J9,34,Pin_34*%
%TO.N,LCD_R1*%
X111750000Y-111330000D03*
%TO.P,J9,35,Pin_35*%
%TO.N,LCD_R0*%
X111250000Y-111330000D03*
%TO.P,J9,36,Pin_36*%
%TO.N,GND*%
X110750000Y-111330000D03*
%TO.P,J9,37,Pin_37*%
%TO.N,LCD_PCLK*%
X110250000Y-111330000D03*
%TO.P,J9,38,Pin_38*%
%TO.N,GND*%
X109750000Y-111330000D03*
%TO.P,J9,39,Pin_39*%
%TO.N,LCD_SHLR*%
X109250000Y-111330000D03*
%TO.P,J9,40,Pin_40*%
%TO.N,LCD_UPDN*%
X108750000Y-111330000D03*
%TO.P,J9,41,Pin_41*%
%TO.N,18V*%
X108250000Y-111330000D03*
%TO.P,J9,42,Pin_42*%
%TO.N,-6V*%
X107750000Y-111330000D03*
%TO.P,J9,43,Pin_43*%
%TO.N,9.6V*%
X107250000Y-111330000D03*
%TO.P,J9,44,Pin_44*%
%TO.N,N/C*%
X106750000Y-111330000D03*
%TO.P,J9,45,Pin_45*%
X106250000Y-111330000D03*
%TO.P,J9,46,Pin_46*%
%TO.N,2.9V*%
X105750000Y-111330000D03*
%TO.P,J9,47,Pin_47*%
%TO.N,LCD_DITHB*%
X105250000Y-111330000D03*
%TO.P,J9,48,Pin_48*%
%TO.N,GND*%
X104750000Y-111330000D03*
%TO.P,J9,49,Pin_49*%
%TO.N,N/C*%
X104250000Y-111330000D03*
%TO.P,J9,50,Pin_50*%
X103750000Y-111330000D03*
%TD*%
D60*
%TO.P,L3,1,1*%
%TO.N,Net-(C56-Pad1)*%
X85650000Y-35000000D03*
%TO.P,L3,2,2*%
%TO.N,LCD_VDD*%
X77350000Y-35000000D03*
%TD*%
D17*
%TO.P,C56,1*%
%TO.N,Net-(C56-Pad1)*%
X88212500Y-30500000D03*
%TO.P,C56,2*%
%TO.N,Net-(C56-Pad2)*%
X90287500Y-30500000D03*
%TD*%
%TO.P,C55,1*%
%TO.N,LCD_VDD*%
X71362500Y-62200000D03*
%TO.P,C55,2*%
%TO.N,GND*%
X73437500Y-62200000D03*
%TD*%
%TO.P,C14,1*%
%TO.N,LCD_VDD*%
X85825000Y-79900000D03*
%TO.P,C14,2*%
%TO.N,GND*%
X87900000Y-79900000D03*
%TD*%
D25*
%TO.P,R47,1*%
%TO.N,Vinsense*%
X120500000Y-65000000D03*
%TO.P,R47,2*%
%TO.N,GND*%
X118500000Y-65000000D03*
%TD*%
D28*
%TO.P,C51,1*%
%TO.N,9.6V*%
X150500000Y-38000000D03*
%TO.P,C51,2*%
%TO.N,GND*%
X150500000Y-35925000D03*
%TD*%
D61*
%TO.P,U6,1,CB*%
%TO.N,Net-(C56-Pad2)*%
X93420000Y-34500000D03*
%TO.P,U6,2,GND*%
%TO.N,GND*%
X93420000Y-33550000D03*
%TO.P,U6,3,FB*%
%TO.N,Net-(R30-Pad2)*%
X93420000Y-32600000D03*
%TO.P,U6,4,EN*%
%TO.N,VLCD*%
X90000000Y-32600000D03*
%TO.P,U6,5,Vin*%
X90000000Y-33550000D03*
%TO.P,U6,6,SW*%
%TO.N,Net-(C56-Pad1)*%
X90000000Y-34500000D03*
%TD*%
D11*
%TO.P,R8,1*%
%TO.N,Net-(R8-Pad1)*%
X130600000Y-85000000D03*
%TO.P,R8,2*%
%TO.N,USB_OTG_D-*%
X132600000Y-85000000D03*
%TD*%
D18*
%TO.P,R41,1*%
%TO.N,Net-(R37-Pad2)*%
X146100000Y-52400000D03*
%TO.P,R41,2*%
%TO.N,GND*%
X146100000Y-54400000D03*
%TD*%
D26*
%TO.P,J3,1,Pin_1*%
%TO.N,LCD_VDD*%
X88475000Y-108175000D03*
D27*
%TO.P,J3,2,Pin_2*%
%TO.N,SWD*%
X91015000Y-108175000D03*
%TO.P,J3,3,Pin_3*%
%TO.N,SWCLK*%
X93555000Y-108175000D03*
%TO.P,J3,4,Pin_4*%
%TO.N,GND*%
X96095000Y-108175000D03*
%TO.P,J3,5,Pin_5*%
%TO.N,UART_TX1*%
X98635000Y-108175000D03*
%TO.P,J3,6,Pin_6*%
%TO.N,UART_RX1*%
X101175000Y-108175000D03*
%TD*%
D62*
%TO.P,R31,1*%
%TO.N,9.6V*%
X105500000Y-104650000D03*
D63*
%TO.P,R31,2*%
%TO.N,2.9V*%
X109500000Y-103500000D03*
D62*
%TO.P,R31,3*%
%TO.N,N/C*%
X105500000Y-102350000D03*
%TD*%
D19*
%TO.P,C41,1*%
%TO.N,LCD_VDD*%
X121900000Y-82200000D03*
%TO.P,C41,2*%
%TO.N,GND*%
X121900000Y-84275000D03*
%TD*%
D64*
%TO.P,L1,1,1*%
%TO.N,Net-(D1-Pad2)*%
X160000000Y-96700000D03*
%TO.P,L1,2,2*%
%TO.N,Backlight Cathode*%
X154400000Y-96700000D03*
%TD*%
D25*
%TO.P,R7,1*%
%TO.N,Net-(R7-Pad1)*%
X123500000Y-73600000D03*
%TO.P,R7,2*%
%TO.N,GND*%
X121500000Y-73600000D03*
%TD*%
D29*
%TO.P,C22,1*%
%TO.N,Net-(C21-Pad1)*%
X127012511Y-50840028D03*
%TO.P,C22,2*%
%TO.N,GND*%
X124937511Y-50840028D03*
%TD*%
D65*
%TO.P,U8,1,LX*%
%TO.N,Net-(D1-Pad2)*%
X157000000Y-102700000D03*
D66*
%TO.P,U8,2,GND*%
%TO.N,GND*%
X155500000Y-104550000D03*
D65*
%TO.P,U8,3,ADJ*%
%TO.N,Backlight*%
X154000000Y-102700000D03*
%TO.P,U8,4,ISENSE*%
%TO.N,Backlight Anode*%
X154000000Y-106400000D03*
%TO.P,U8,5,VIN*%
%TO.N,Vin*%
X157000000Y-106400000D03*
%TD*%
D18*
%TO.P,R14,1*%
%TO.N,LCD_VDD*%
X117805011Y-56840028D03*
%TO.P,R14,2*%
%TO.N,RMII_RXD-*%
X117805011Y-58840028D03*
%TD*%
%TO.P,R43,1*%
%TO.N,9.6V*%
X155400000Y-42600000D03*
%TO.P,R43,2*%
%TO.N,Net-(R43-Pad2)*%
X155400000Y-44600000D03*
%TD*%
D28*
%TO.P,C29,1*%
%TO.N,18V*%
X143500000Y-51137500D03*
%TO.P,C29,2*%
%TO.N,GND*%
X143500000Y-49062500D03*
%TD*%
D11*
%TO.P,R50,1*%
%TO.N,-6V*%
X145500000Y-108000000D03*
%TO.P,R50,2*%
%TO.N,GND*%
X147500000Y-108000000D03*
%TD*%
D17*
%TO.P,C52,1*%
%TO.N,LCD_VDD*%
X84062500Y-63800000D03*
%TO.P,C52,2*%
%TO.N,GND*%
X86137500Y-63800000D03*
%TD*%
D11*
%TO.P,R29,1*%
%TO.N,USER_BTN*%
X76100000Y-93700000D03*
%TO.P,R29,2*%
%TO.N,Net-(R27-Pad1)*%
X78100000Y-93700000D03*
%TD*%
D67*
%TO.P,J1,1,Pin_1*%
%TO.N,Vin*%
X162000000Y-46540000D03*
D68*
%TO.P,J1,2,Pin_2*%
%TO.N,GND*%
X162000000Y-41460000D03*
%TD*%
D11*
%TO.P,R17,1*%
%TO.N,Net-(J7-PadL1)*%
X136205011Y-53340028D03*
%TO.P,R17,2*%
%TO.N,GND*%
X138205011Y-53340028D03*
%TD*%
D26*
%TO.P,J2,1,Pin_1*%
%TO.N,I2C2_SDA*%
X70600000Y-65300000D03*
D27*
%TO.P,J2,2,Pin_2*%
%TO.N,SPI1_MISO*%
X68060000Y-65300000D03*
%TO.P,J2,3,Pin_3*%
%TO.N,I2C2_SCL*%
X70600000Y-67840000D03*
%TO.P,J2,4,Pin_4*%
%TO.N,SPI1_MOSI*%
X68060000Y-67840000D03*
%TO.P,J2,5,Pin_5*%
%TO.N,ADDR_LED4*%
X70600000Y-70380000D03*
%TO.P,J2,6,Pin_6*%
%TO.N,SPI1_SCK*%
X68060000Y-70380000D03*
%TO.P,J2,7,Pin_7*%
%TO.N,ADDR_LED3*%
X70600000Y-72920000D03*
%TO.P,J2,8,Pin_8*%
%TO.N,SPI2_MISO*%
X68060000Y-72920000D03*
%TO.P,J2,9,Pin_9*%
%TO.N,ADDR_LED2*%
X70600000Y-75460000D03*
%TO.P,J2,10,Pin_10*%
%TO.N,SPI2_MOSI*%
X68060000Y-75460000D03*
%TO.P,J2,11,Pin_11*%
%TO.N,ADDR_LED1*%
X70600000Y-78000000D03*
%TO.P,J2,12,Pin_12*%
%TO.N,SPI2_SCK*%
X68060000Y-78000000D03*
%TO.P,J2,13,Pin_13*%
%TO.N,UART_TX1*%
X70600000Y-80540000D03*
%TO.P,J2,14,Pin_14*%
%TO.N,UART_TX2*%
X68060000Y-80540000D03*
%TO.P,J2,15,Pin_15*%
%TO.N,UART_RX1*%
X70600000Y-83080000D03*
%TO.P,J2,16,Pin_16*%
%TO.N,UART_RX2*%
X68060000Y-83080000D03*
%TO.P,J2,17,Pin_17*%
%TO.N,I2C4_SCL*%
X70600000Y-85620000D03*
%TO.P,J2,18,Pin_18*%
%TO.N,I2C4_SDA*%
X68060000Y-85620000D03*
%TO.P,J2,19,Pin_19*%
%TO.N,GND*%
X70600000Y-88160000D03*
%TO.P,J2,20,Pin_20*%
%TO.N,LCD_VDD*%
X68060000Y-88160000D03*
%TO.P,J2,21,Pin_21*%
%TO.N,Galv_Interrupt*%
X70600000Y-90700000D03*
%TO.P,J2,22,Pin_22*%
%TO.N,Galv_Enable*%
X68060000Y-90700000D03*
%TO.P,J2,23,Pin_23*%
%TO.N,N/C*%
X70600000Y-93240000D03*
%TO.P,J2,24,Pin_24*%
X68060000Y-93240000D03*
%TO.P,J2,25,Pin_25*%
%TO.N,Virt-Bus2*%
X70600000Y-95780000D03*
%TO.P,J2,26,Pin_26*%
X68060000Y-95780000D03*
%TO.P,J2,27,Pin_27*%
X70600000Y-98320000D03*
%TO.P,J2,28,Pin_28*%
X68060000Y-98320000D03*
%TO.P,J2,29,Pin_29*%
X70600000Y-100860000D03*
%TO.P,J2,30,Pin_30*%
X68060000Y-100860000D03*
%TO.P,J2,31,Pin_31*%
X70600000Y-103400000D03*
%TO.P,J2,32,Pin_32*%
X68060000Y-103400000D03*
%TO.P,J2,33,Pin_33*%
%TO.N,Virt-Bus1*%
X70600000Y-105940000D03*
%TO.P,J2,34,Pin_34*%
X68060000Y-105940000D03*
%TO.P,J2,35,Pin_35*%
X70600000Y-108480000D03*
%TO.P,J2,36,Pin_36*%
X68060000Y-108480000D03*
%TO.P,J2,37,Pin_37*%
X70600000Y-111020000D03*
%TO.P,J2,38,Pin_38*%
X68060000Y-111020000D03*
%TO.P,J2,39,Pin_39*%
X70600000Y-113560000D03*
%TO.P,J2,40,Pin_40*%
X68060000Y-113560000D03*
%TD*%
D69*
%TO.N,GND*%
X156800000Y-48400000D03*
X139115046Y-53640029D03*
X73976232Y-63823768D03*
X126600000Y-62600000D03*
X148500000Y-44500000D03*
X90432258Y-86200022D03*
X146200000Y-49200011D03*
D70*
X111750000Y-32250000D03*
D69*
X95300000Y-47600000D03*
D71*
X131500000Y-60000000D03*
D72*
X104525000Y-37275000D03*
D69*
X139505011Y-50640028D03*
X137000000Y-64400000D03*
X117000000Y-63100000D03*
X79200000Y-109300000D03*
X138000000Y-119500000D03*
X83605142Y-104300010D03*
D72*
X127100000Y-113200000D03*
D69*
X104700000Y-112900000D03*
X77500000Y-60800000D03*
D72*
X95250000Y-32750000D03*
D69*
X102100000Y-59300000D03*
D72*
X154500000Y-104600000D03*
D69*
X136200000Y-113800000D03*
X145400000Y-47799989D03*
X82199990Y-60805018D03*
X87500000Y-63700000D03*
X86000031Y-73679925D03*
X109799990Y-56206821D03*
X138005011Y-55840028D03*
X146200000Y-47800000D03*
X151200000Y-47800000D03*
X116300000Y-95800000D03*
X139200000Y-108100000D03*
X109900000Y-108800000D03*
X108312590Y-63000000D03*
X80253389Y-90700010D03*
X94200000Y-95000000D03*
D72*
X107200000Y-55200000D03*
D69*
X151200000Y-49200000D03*
X90900000Y-95000000D03*
X144600000Y-76600000D03*
X87900000Y-46400000D03*
X89000000Y-80000000D03*
D72*
X104500000Y-41500000D03*
D70*
X145866109Y-37866109D03*
D69*
X128137500Y-89237500D03*
X149000000Y-108000000D03*
X72300000Y-46800000D03*
X144800000Y-72800000D03*
X99400011Y-95330764D03*
X151900000Y-49200000D03*
X119505358Y-80800000D03*
X120000000Y-84000000D03*
D72*
X152500000Y-113500000D03*
D69*
X111179883Y-109528112D03*
D70*
X89800000Y-44100000D03*
D69*
X92387948Y-62794687D03*
X126900000Y-74300000D03*
X91000000Y-69200000D03*
X151900000Y-47800000D03*
X93900000Y-87200000D03*
X91750000Y-31750000D03*
X145211073Y-54700972D03*
X107631598Y-95793722D03*
X143500000Y-47500000D03*
X130000000Y-99000000D03*
D72*
X110406411Y-45239990D03*
X146900000Y-111300000D03*
D69*
X119800000Y-72800000D03*
X80000000Y-46000000D03*
X82900000Y-109000000D03*
X145500000Y-49200000D03*
X124000000Y-57900000D03*
X141000000Y-52000000D03*
%TO.N,LCD_VDD*%
X123700000Y-114600000D03*
X84000021Y-60800000D03*
X120000000Y-83000000D03*
X86100030Y-80892075D03*
X80746924Y-88404709D03*
X84100000Y-105200000D03*
X69800000Y-62000000D03*
X128800000Y-66400000D03*
X80900000Y-85200000D03*
X73900000Y-86600000D03*
X80699938Y-69507135D03*
X121600000Y-55900000D03*
X127669662Y-59969662D03*
X113100000Y-96592708D03*
X123500000Y-94900000D03*
X148005011Y-56040028D03*
X90705000Y-114605000D03*
X113400000Y-64300000D03*
X135100000Y-64300000D03*
X119500000Y-78800000D03*
X90900000Y-70400000D03*
X85910989Y-75873041D03*
X79901449Y-60899990D03*
X96600000Y-65400000D03*
X88654874Y-63899960D03*
X84075022Y-100275032D03*
X76900000Y-45600000D03*
X84700000Y-44400000D03*
X101300000Y-58700000D03*
X109925006Y-94997442D03*
X91000000Y-92800000D03*
X128400000Y-56800000D03*
D70*
X79250000Y-38500000D03*
D69*
X102200000Y-90900000D03*
X127100000Y-71300000D03*
X124200000Y-64300000D03*
X87900094Y-89369727D03*
X107600000Y-52300000D03*
X135000000Y-55800000D03*
D72*
X99200000Y-34000000D03*
D69*
X148205011Y-64840028D03*
X107500000Y-61600000D03*
%TO.N,USER_BTN*%
X94600000Y-104700000D03*
X83260680Y-92147468D03*
D70*
%TO.N,Vin*%
X161749979Y-111257557D03*
D69*
X119000000Y-61500000D03*
D70*
X119000000Y-47000000D03*
X103000000Y-44500000D03*
D69*
%TO.N,Backlight*%
X85900000Y-109900000D03*
X86350000Y-106650000D03*
X94300000Y-93800000D03*
X86700000Y-119000000D03*
X89575020Y-105200000D03*
X93606382Y-96665212D03*
%TO.N,18V*%
X154671680Y-115728320D03*
X127000000Y-101500000D03*
D72*
X128798161Y-115728320D03*
D70*
%TO.N,+5V*%
X107300000Y-37375002D03*
X131300000Y-53300000D03*
X151100000Y-81000000D03*
D72*
%TO.N,Backlight Cathode*%
X129900000Y-106500000D03*
X132900000Y-105100000D03*
%TO.N,Backlight Anode*%
X152200000Y-108900000D03*
X130100000Y-109400000D03*
%TO.N,-6V*%
X143200000Y-110000000D03*
X141700000Y-114049990D03*
X139675572Y-116649979D03*
X127600000Y-116750010D03*
D69*
%TO.N,RESET*%
X130915721Y-68599990D03*
X132500000Y-70700000D03*
%TO.N,Galv_Interrupt*%
X97300000Y-107300032D03*
%TO.N,Galv_Enable*%
X97000000Y-105100002D03*
X83199959Y-89795917D03*
%TO.N,SPI2_SCK*%
X77100000Y-79000000D03*
X100300000Y-105100000D03*
%TO.N,SPI1_SCK*%
X113446984Y-71944186D03*
X85400043Y-70100000D03*
X75300000Y-72300000D03*
X73000000Y-71200000D03*
%TO.N,SPI2_MOSI*%
X72300000Y-74200000D03*
%TO.N,SPI1_MOSI*%
X107300000Y-86500000D03*
X109200000Y-86200000D03*
X94800000Y-95800000D03*
X91926670Y-101671006D03*
X94800000Y-88400000D03*
X77299875Y-69223890D03*
%TO.N,SPI1_MISO*%
X87320917Y-66974959D03*
X112115752Y-68246216D03*
%TO.N,ADDR_LED1*%
X78200000Y-77700000D03*
X116127339Y-71027339D03*
X96700000Y-76600000D03*
X89900000Y-75800000D03*
X78088839Y-74355038D03*
X96862707Y-71299990D03*
%TO.N,USB_OTG_D-*%
X133800000Y-84800000D03*
%TO.N,ADDR_LED2*%
X95599990Y-94530764D03*
X108700011Y-87200000D03*
X77699903Y-75455084D03*
X95600000Y-89400000D03*
X92700000Y-102399968D03*
X107300000Y-87500000D03*
%TO.N,USB_OTG_D+*%
X133800000Y-83500000D03*
%TO.N,ADDR_LED3*%
X74100000Y-73500000D03*
X72700000Y-72200000D03*
X99400000Y-73500000D03*
X89000000Y-71900000D03*
%TO.N,I2C3_SCL*%
X80900000Y-111000000D03*
X85400000Y-93100000D03*
X90103557Y-66296443D03*
X81100000Y-108000000D03*
%TO.N,ADDR_LED4*%
X86300000Y-70800000D03*
X76599865Y-72100000D03*
X73900000Y-70700000D03*
X114681070Y-71700064D03*
%TO.N,I2C3_SDA*%
X91300000Y-65725043D03*
X85100000Y-94100000D03*
%TO.N,I2C2_SCL*%
X89418672Y-67628708D03*
X116000000Y-68200000D03*
%TO.N,I2C2_SDA*%
X88600000Y-67000000D03*
X114990070Y-68741871D03*
%TO.N,I2C4_SCL*%
X94100000Y-84200000D03*
X95100000Y-80500000D03*
X89754141Y-84445859D03*
X94900000Y-77500000D03*
%TO.N,I2C4_SDA*%
X96099334Y-80569236D03*
X88700000Y-84400032D03*
X95200000Y-84200000D03*
X96000000Y-77500000D03*
%TO.N,UART_RX2*%
X80400000Y-83400000D03*
X101872168Y-105327832D03*
%TO.N,UART_RX1*%
X110200000Y-85500000D03*
X73000000Y-79800000D03*
X97373428Y-87599394D03*
X98300000Y-86500000D03*
X107300000Y-85500000D03*
X90527854Y-82572189D03*
X100006479Y-98499968D03*
%TO.N,UART_TX2*%
X81700000Y-84500000D03*
X102900000Y-106300000D03*
X102983156Y-94726898D03*
X100787252Y-93983435D03*
%TO.N,UART_TX1*%
X98700032Y-98369236D03*
X93800000Y-83100000D03*
%TO.N,SWD*%
X88600000Y-92000000D03*
X93800000Y-86200000D03*
%TO.N,Encoder_A*%
X83199980Y-80713613D03*
%TO.N,Encoder_B*%
X69900000Y-59600000D03*
X83499979Y-81700000D03*
%TO.N,Net-(J7-PadL3)*%
X158305011Y-62840028D03*
%TO.N,Net-(J7-PadL2)*%
X157605011Y-61140028D03*
%TO.N,LCD_CT_RESET*%
X82100000Y-112800000D03*
X81900000Y-109700000D03*
%TO.N,LCD_DITHB*%
X126700000Y-97300000D03*
X125800000Y-86000000D03*
X125049990Y-106483909D03*
X119604543Y-86786493D03*
X105500000Y-113600000D03*
X122800000Y-86400000D03*
%TO.N,2.9V*%
X125400000Y-117400000D03*
X125700000Y-114000000D03*
X109500000Y-105250000D03*
X105750000Y-109750000D03*
%TO.N,9.6V*%
X108600000Y-114600000D03*
X148300000Y-114900000D03*
X105900000Y-120000000D03*
X137800000Y-109900000D03*
%TO.N,LCD_SHLR*%
X108900000Y-108200000D03*
X121200000Y-88100000D03*
%TO.N,LCD_PCLK*%
X110600000Y-106000000D03*
X102800000Y-79600000D03*
%TO.N,LCD_R0*%
X105900000Y-93600000D03*
X111500000Y-105300000D03*
%TO.N,LCD_R1*%
X124300000Y-66849990D03*
X111700000Y-112700000D03*
%TO.N,LCD_R2*%
X112072168Y-104472168D03*
X95900000Y-104500000D03*
%TO.N,LCD_R3*%
X112500000Y-103500000D03*
X84200010Y-66895386D03*
%TO.N,LCD_R4*%
X85200000Y-66900000D03*
X112400000Y-102500000D03*
%TO.N,LCD_R5*%
X86200000Y-66900000D03*
X111400000Y-102200000D03*
%TO.N,LCD_R6*%
X110500000Y-101600000D03*
X87085267Y-83059870D03*
%TO.N,LCD_R7*%
X90800000Y-79300000D03*
X109500000Y-101300000D03*
%TO.N,LCD_G0*%
X115200000Y-101200000D03*
X120700000Y-95400000D03*
%TO.N,LCD_G1*%
X116000000Y-101800000D03*
X121522170Y-96079539D03*
%TO.N,LCD_G2*%
X90063894Y-88900000D03*
X108500000Y-100900000D03*
%TO.N,LCD_G3*%
X107500000Y-100500000D03*
X90174953Y-89901597D03*
%TO.N,LCD_G4*%
X91000000Y-91200000D03*
X106500000Y-100000000D03*
%TO.N,LCD_G5*%
X92660682Y-91039318D03*
X105500000Y-99500000D03*
%TO.N,LCD_G6*%
X104500000Y-99200000D03*
X93500000Y-90400000D03*
%TO.N,LCD_G7*%
X103500000Y-99000000D03*
X94699950Y-96900000D03*
%TO.N,LCD_B0*%
X119900000Y-94600000D03*
X118310973Y-98621009D03*
%TO.N,LCD_B1*%
X103760423Y-97842263D03*
X105600000Y-94600000D03*
%TO.N,LCD_B6*%
X117800000Y-94600000D03*
X111500000Y-94600000D03*
%TO.N,LCD_B7*%
X117000000Y-93800000D03*
X112100000Y-93800000D03*
%TO.N,LCD_HSYNC*%
X122800000Y-98100000D03*
X115200000Y-84900000D03*
%TO.N,LCD_VSYNC*%
X116000000Y-85500000D03*
X123273892Y-97186946D03*
%TO.N,LDC_MODE*%
X104000000Y-108800000D03*
X124200000Y-113100000D03*
%TO.N,LCD_DEN*%
X125300010Y-76999979D03*
X125700000Y-97200000D03*
D72*
%TO.N,VLCD*%
X100500000Y-42000000D03*
X112500000Y-43500000D03*
D69*
%TO.N,Net-(R8-Pad1)*%
X120200968Y-84992911D03*
X105200000Y-83800000D03*
%TO.N,Net-(R9-Pad1)*%
X105400000Y-85000000D03*
X123599990Y-84867596D03*
%TO.N,25Mhz*%
X116125000Y-56075000D03*
X121600000Y-76500000D03*
%TO.N,RMII_TXD+*%
X94907340Y-70499990D03*
X122600000Y-70601600D03*
%TO.N,RMII_TXD-*%
X122600000Y-69598400D03*
X95000000Y-69500000D03*
%TO.N,RMII_RXER*%
X126400000Y-60100000D03*
X121100000Y-61000000D03*
%TO.N,Net-(R43-Pad2)*%
X153000000Y-43000000D03*
X156500000Y-44500000D03*
%TO.N,RMII_TXEN*%
X98049990Y-69086060D03*
X123500000Y-68900000D03*
%TO.N,RMII_MDC*%
X125300010Y-74699979D03*
X129900000Y-66100000D03*
%TO.N,Net-(J7-PadL1)*%
X152205011Y-54940028D03*
X138505011Y-54840028D03*
X157302210Y-60042830D03*
%TO.N,Net-(J7-PadL4)*%
X159400000Y-62700000D03*
X154500000Y-57100000D03*
X140237287Y-54289436D03*
%TO.N,LCD_UPDN*%
X108000000Y-108700000D03*
X119999979Y-92752878D03*
%TO.N,SDRAM_A0*%
X91200000Y-57600000D03*
X107600000Y-79900000D03*
%TO.N,SDRAM_A1*%
X92000000Y-57000000D03*
X108600000Y-79800000D03*
%TO.N,SDRAM_A2*%
X93000000Y-56900063D03*
X109600000Y-79800000D03*
%TO.N,SDRAM_A3*%
X110600000Y-79700000D03*
X93997831Y-57002089D03*
%TO.N,SDRAM_A4*%
X111600000Y-79600000D03*
X93757628Y-49245421D03*
%TO.N,SDRAM_A5*%
X94382411Y-50070457D03*
X112600000Y-79600000D03*
%TO.N,SDRAM_SDNWE*%
X90000000Y-55800000D03*
X108000000Y-68199913D03*
%TO.N,SDRAM_SDNE0*%
X113485993Y-73950010D03*
X98627119Y-51463185D03*
X88644982Y-57455018D03*
%TO.N,SDRAM_SDCKE0*%
X88100000Y-49500000D03*
X109000000Y-68175010D03*
%TO.N,SDRAM_SDNRAS*%
X90900000Y-56600000D03*
X105373623Y-58763587D03*
%TO.N,SDRAM_A6*%
X108486544Y-64000000D03*
X96800000Y-49600000D03*
%TO.N,SDRAM_A7*%
X106650042Y-64095795D03*
X96900000Y-50600000D03*
%TO.N,SDRAM_A8*%
X107400000Y-60200000D03*
X91499598Y-50200010D03*
%TO.N,SDRAM_A10*%
X90130256Y-57300010D03*
X105655018Y-60944982D03*
%TO.N,SDRAM_D8*%
X83721413Y-51799884D03*
X84722168Y-54822168D03*
%TO.N,SDRAM_D9*%
X84000000Y-55600000D03*
X81400000Y-53100000D03*
%TO.N,SDRAM_D10*%
X84600000Y-56400000D03*
X80400000Y-53700000D03*
%TO.N,SDRAM_D11*%
X83800000Y-57100000D03*
X79300000Y-53400000D03*
%TO.N,SDRAM_D12*%
X84600000Y-57800000D03*
X79400000Y-54800000D03*
%TO.N,SDRAM_D13*%
X83034123Y-72196491D03*
X78300000Y-54700000D03*
%TO.N,SDRAM_D14*%
X83100000Y-73300000D03*
X78000000Y-55900000D03*
%TO.N,SDRAM_D15*%
X82300000Y-73900000D03*
X77500000Y-56800000D03*
%TO.N,SDRAM_D0*%
X83016884Y-76381399D03*
X76144982Y-62755018D03*
%TO.N,SDRAM_D1*%
X83100000Y-77500000D03*
X77100000Y-63200000D03*
%TO.N,SDRAM_BA0*%
X106200010Y-74740609D03*
X88673086Y-60736950D03*
%TO.N,SDRAM_BA1*%
X106900000Y-75500000D03*
X89600000Y-58200000D03*
%TO.N,SDRAM_SDCLK*%
X83100000Y-79700000D03*
X76700000Y-57900000D03*
%TO.N,SDRAM_D2*%
X98800000Y-90800000D03*
X90269597Y-77695563D03*
X77900000Y-63899980D03*
X83100000Y-78600000D03*
%TO.N,SDRAM_D3*%
X99800000Y-90800000D03*
X77800000Y-61800000D03*
X88800000Y-76500000D03*
X83100000Y-75300000D03*
%TO.N,SDRAM_SDNCAS*%
X86500000Y-62200000D03*
X103900000Y-79500000D03*
%TO.N,Boot0*%
X114100000Y-90300000D03*
X116148171Y-90142507D03*
X126100032Y-92025010D03*
X132250041Y-92857069D03*
X110950010Y-90639385D03*
X123500000Y-92000000D03*
%TO.N,SDRAM_NBL0*%
X85000000Y-60900000D03*
X104900000Y-79600000D03*
%TO.N,SDRAM_NBL1*%
X106600000Y-79900000D03*
X90100000Y-61000000D03*
X85500000Y-49500000D03*
D72*
%TO.N,Net-(C56-Pad2)*%
X93250000Y-35500000D03*
X89750000Y-31474998D03*
D69*
%TO.N,Vinsense*%
X120000000Y-68000000D03*
X120500000Y-66500000D03*
%TO.N,Power2*%
X143000000Y-46000000D03*
X149384026Y-46126010D03*
X110472637Y-68157385D03*
X120000000Y-49500000D03*
X124500000Y-46000000D03*
%TO.N,Power3*%
X149400000Y-48600000D03*
X118500000Y-49299990D03*
X141800000Y-48000000D03*
X109799990Y-65000000D03*
%TD*%
D73*
%TO.N,GND*%
X112025000Y-56975000D02*
X110568169Y-56975000D01*
X118500000Y-65000000D02*
X117000000Y-63500000D01*
X139500000Y-107800000D02*
X139200000Y-108100000D01*
X117675000Y-83750000D02*
X120050000Y-83750000D01*
D74*
X93420000Y-33550000D02*
X94920000Y-33550000D01*
D73*
X106750000Y-93213998D02*
X106750000Y-92175000D01*
X82400000Y-60605008D02*
X82199990Y-60805018D01*
X91125000Y-94775000D02*
X90900000Y-95000000D01*
X136300000Y-113700000D02*
X136200000Y-113800000D01*
D74*
X154550000Y-104550000D02*
X154500000Y-104600000D01*
D73*
X137792511Y-57090028D02*
X139755011Y-57090028D01*
X134100000Y-77400000D02*
X139900000Y-77400000D01*
X118455358Y-79750000D02*
X119505358Y-80800000D01*
X110750000Y-111330000D02*
X110750000Y-109957995D01*
X81950000Y-106000000D02*
X81950000Y-105150000D01*
X87000000Y-73625000D02*
X86054956Y-73625000D01*
X125675000Y-93500000D02*
X128137500Y-91037500D01*
X91250000Y-75250000D02*
X90400000Y-74400000D01*
X91250000Y-95350000D02*
X91250000Y-97000000D01*
X82400000Y-59550000D02*
X82400000Y-60605008D01*
X99325000Y-95405775D02*
X99400011Y-95330764D01*
X160815000Y-85400000D02*
X160815000Y-85940000D01*
X120050000Y-83750000D02*
X120950000Y-83750000D01*
D74*
X106237500Y-53600000D02*
X106237500Y-54237500D01*
D73*
X107750000Y-65881400D02*
X107699979Y-65831379D01*
D74*
X104525000Y-39475000D02*
X104525000Y-41475000D01*
D75*
X125255011Y-62540028D02*
X126540028Y-62540028D01*
D73*
X143500000Y-49062500D02*
X143500000Y-47500000D01*
X82799990Y-104300010D02*
X83605142Y-104300010D01*
X117000000Y-63500000D02*
X117000000Y-63100000D01*
X140505011Y-56340028D02*
X142467511Y-56340028D01*
X94850000Y-48050000D02*
X95300000Y-47600000D01*
X93850000Y-87250000D02*
X93900000Y-87200000D01*
X138137500Y-108000000D02*
X139100000Y-108000000D01*
X115975000Y-63100000D02*
X117000000Y-63100000D01*
X92325000Y-75250000D02*
X91250000Y-75250000D01*
X82137500Y-62500000D02*
X82137500Y-60867508D01*
X120050000Y-83950000D02*
X120000000Y-84000000D01*
D75*
X98400000Y-115530000D02*
X97475000Y-114605000D01*
D73*
X93057635Y-62125000D02*
X92387948Y-62794687D01*
D74*
X153887500Y-112112500D02*
X152500000Y-113500000D01*
D73*
X96095000Y-108175000D02*
X96095000Y-109415000D01*
X115200000Y-95800000D02*
X116300000Y-95800000D01*
X85112480Y-64825020D02*
X86137500Y-63800000D01*
D74*
X106237500Y-54237500D02*
X107200000Y-55200000D01*
D76*
X114250000Y-32050000D02*
X111950000Y-32050000D01*
D73*
X110568169Y-56975000D02*
X109799990Y-56206821D01*
X137255011Y-62840028D02*
X137255011Y-64144989D01*
D74*
X92250000Y-31250000D02*
X91750000Y-31750000D01*
D73*
X137255011Y-64144989D02*
X137000000Y-64400000D01*
X160815000Y-85940000D02*
X161395000Y-86520000D01*
X96095000Y-109415000D02*
X97475000Y-110795000D01*
D76*
X137950000Y-33750000D02*
X145750000Y-33750000D01*
D73*
X94200000Y-94900000D02*
X95250000Y-93850000D01*
D74*
X147100000Y-113100000D02*
X147100000Y-111500000D01*
D73*
X102750000Y-60975000D02*
X102175000Y-60400000D01*
X99325000Y-96600000D02*
X99325000Y-95405775D01*
X95250000Y-92175000D02*
X95250000Y-93850000D01*
D74*
X95500000Y-36250000D02*
X96750000Y-37500000D01*
D76*
X136250000Y-32050000D02*
X137950000Y-33750000D01*
D73*
X88200000Y-74400000D02*
X90400000Y-74400000D01*
X102750000Y-66825000D02*
X102750000Y-60975000D01*
X84350000Y-109250000D02*
X83150000Y-109250000D01*
X141400000Y-51100000D02*
X141400000Y-51600000D01*
X137425000Y-113700000D02*
X136300000Y-113700000D01*
X73437500Y-63285036D02*
X73976232Y-63823768D01*
X92325000Y-80750000D02*
X91575000Y-80750000D01*
D74*
X145500000Y-38232218D02*
X145866109Y-37866109D01*
D73*
X124937511Y-52840028D02*
X124937511Y-56810028D01*
D74*
X90100000Y-43800000D02*
X89800000Y-44100000D01*
D73*
X107786543Y-64823490D02*
X107786543Y-63677455D01*
D74*
X104525000Y-39475000D02*
X104525000Y-37275000D01*
D73*
X108900000Y-63000000D02*
X108312590Y-63000000D01*
X137792511Y-56052528D02*
X138005011Y-55840028D01*
X73425000Y-45675000D02*
X72300000Y-46800000D01*
X142505011Y-64415028D02*
X138830011Y-64415028D01*
X90900000Y-69100000D02*
X91000000Y-69200000D01*
X141225000Y-107800000D02*
X139500000Y-107800000D01*
D76*
X114250000Y-32050000D02*
X136250000Y-32050000D01*
D73*
X108663998Y-62800000D02*
X109637500Y-62800000D01*
X144705011Y-71540028D02*
X144705011Y-72705011D01*
X84000000Y-48050000D02*
X84000000Y-47095000D01*
X144705011Y-72705011D02*
X144800000Y-72800000D01*
X124937511Y-50840028D02*
X124937511Y-52840028D01*
X101483116Y-94441884D02*
X101483116Y-94059518D01*
X91982635Y-63200000D02*
X92387948Y-62794687D01*
X150000000Y-44700000D02*
X148700000Y-44700000D01*
D74*
X104525000Y-41475000D02*
X104500000Y-41500000D01*
D73*
X91497155Y-80672155D02*
X88672155Y-80672155D01*
X130000000Y-100500000D02*
X130000000Y-99000000D01*
X128137500Y-91037500D02*
X128137500Y-89237500D01*
X91075000Y-63200000D02*
X91982635Y-63200000D01*
X82137500Y-60867508D02*
X82199990Y-60805018D01*
X92400000Y-94775000D02*
X91125000Y-94775000D01*
X137792511Y-57090028D02*
X137792511Y-56052528D01*
D74*
X147100000Y-111500000D02*
X146900000Y-111300000D01*
X145500000Y-37600000D02*
X145766109Y-37866109D01*
D73*
X99325000Y-96600000D02*
X101483116Y-94441884D01*
D74*
X145500000Y-40200000D02*
X145500000Y-38232218D01*
D73*
X106800001Y-93263999D02*
X106750000Y-93213998D01*
X142475000Y-77400000D02*
X143200000Y-76675000D01*
X92325000Y-87250000D02*
X93850000Y-87250000D01*
X87400000Y-63800000D02*
X87500000Y-63700000D01*
D75*
X80000000Y-46037500D02*
X80000000Y-46000000D01*
D73*
X106800001Y-95100001D02*
X106800001Y-93263999D01*
X79150000Y-109250000D02*
X79200000Y-109300000D01*
X94200000Y-94900000D02*
X94200000Y-95000000D01*
X94400000Y-48050000D02*
X94850000Y-48050000D01*
D75*
X126540028Y-62540028D02*
X126600000Y-62600000D01*
D73*
X141400000Y-51600000D02*
X141000000Y-52000000D01*
X75200000Y-47095000D02*
X73705000Y-45600000D01*
X86600000Y-85650000D02*
X88675000Y-85650000D01*
X107750000Y-66825000D02*
X107750000Y-65881400D01*
X77600000Y-59550000D02*
X77600000Y-60700000D01*
D75*
X98400000Y-116500000D02*
X98400000Y-115530000D01*
D73*
X97475000Y-110795000D02*
X97475000Y-114605000D01*
X82137500Y-62500000D02*
X82137500Y-63837500D01*
D74*
X94920000Y-33550000D02*
X95500000Y-34130000D01*
D73*
X119250000Y-72250000D02*
X117675000Y-72250000D01*
X89800000Y-44100000D02*
X90750000Y-43150000D01*
D74*
X94920000Y-33080000D02*
X95250000Y-32750000D01*
D73*
X110750000Y-109957995D02*
X111179883Y-109528112D01*
X145512045Y-54400000D02*
X145211073Y-54700972D01*
X126037500Y-73437500D02*
X126900000Y-74300000D01*
X121837500Y-80800000D02*
X122937500Y-79700000D01*
D74*
X104525000Y-33175000D02*
X104525000Y-37275000D01*
D73*
X117675000Y-79750000D02*
X118455358Y-79750000D01*
X83125020Y-64825020D02*
X85112480Y-64825020D01*
X138830011Y-64415028D02*
X137255011Y-62840028D01*
X73600000Y-48050000D02*
X73600000Y-45775000D01*
X124967511Y-56932489D02*
X124000000Y-57900000D01*
X93900000Y-62125000D02*
X93057635Y-62125000D01*
D77*
X104750000Y-111330000D02*
X104750000Y-112850000D01*
D75*
X155400000Y-48500000D02*
X156700000Y-48500000D01*
D73*
X90900000Y-95000000D02*
X91250000Y-95350000D01*
X85437500Y-46900000D02*
X86537500Y-45800000D01*
X83150000Y-109250000D02*
X82900000Y-109000000D01*
X138205011Y-53340028D02*
X138815045Y-53340028D01*
D74*
X95500000Y-36250000D02*
X94750000Y-36250000D01*
D73*
X86054956Y-73625000D02*
X86000031Y-73679925D01*
D75*
X126250000Y-111330000D02*
X126250000Y-112350000D01*
D73*
X139755011Y-57090028D02*
X140505011Y-56340028D01*
X90750000Y-43150000D02*
X90750000Y-41750000D01*
X75200000Y-48050000D02*
X75200000Y-47095000D01*
X87900000Y-79900000D02*
X88900000Y-79900000D01*
X84000000Y-47095000D02*
X84195000Y-46900000D01*
X119505358Y-80800000D02*
X121837500Y-80800000D01*
X128137500Y-89237500D02*
X128137500Y-87862500D01*
D74*
X145766109Y-37866109D02*
X145866109Y-37866109D01*
D73*
X73437500Y-62200000D02*
X73437500Y-63285036D01*
X87425000Y-73625000D02*
X88200000Y-74400000D01*
X101750000Y-93792634D02*
X101750000Y-92175000D01*
X92325000Y-69250000D02*
X91050000Y-69250000D01*
X160815000Y-79000000D02*
X160815000Y-78460000D01*
X88672155Y-80672155D02*
X87900000Y-79900000D01*
X81950000Y-105150000D02*
X82799990Y-104300010D01*
X139100000Y-108000000D02*
X139200000Y-108100000D01*
X82137500Y-63837500D02*
X83125020Y-64825020D01*
X93725000Y-62125000D02*
X95900000Y-62125000D01*
X107786543Y-63677455D02*
X108663998Y-62800000D01*
X102100000Y-59300000D02*
X102100000Y-60325000D01*
X91050000Y-69250000D02*
X91000000Y-69200000D01*
X88900000Y-79900000D02*
X89000000Y-80000000D01*
X86537500Y-45800000D02*
X87300000Y-45800000D01*
D74*
X145500000Y-33900000D02*
X145500000Y-37600000D01*
D73*
X147500000Y-108000000D02*
X149000000Y-108000000D01*
X139900000Y-77400000D02*
X142475000Y-77400000D01*
D75*
X156700000Y-48500000D02*
X156800000Y-48400000D01*
D73*
X136537500Y-119500000D02*
X138000000Y-119500000D01*
X84195000Y-46900000D02*
X85437500Y-46900000D01*
X136187500Y-111875000D02*
X137425000Y-113112500D01*
D74*
X92250000Y-30500000D02*
X92250000Y-31250000D01*
X92600000Y-43800000D02*
X90100000Y-43800000D01*
D73*
X130000000Y-102500000D02*
X130000000Y-100500000D01*
X138205011Y-50540028D02*
X139405011Y-50540028D01*
D75*
X126250000Y-112350000D02*
X127100000Y-113200000D01*
D73*
X80075000Y-91575000D02*
X82200000Y-93700000D01*
X91575000Y-80750000D02*
X91497155Y-80672155D01*
D74*
X155500000Y-110337500D02*
X153887500Y-111950000D01*
D73*
X97475000Y-114605000D02*
X95937500Y-116142500D01*
X78050000Y-109250000D02*
X79150000Y-109250000D01*
X120600000Y-73600000D02*
X119250000Y-72250000D01*
X80000000Y-48050000D02*
X80000000Y-46037500D01*
X109750000Y-108950000D02*
X109900000Y-108800000D01*
D77*
X104750000Y-112850000D02*
X104700000Y-112900000D01*
D76*
X111950000Y-32050000D02*
X111750000Y-32250000D01*
D73*
X144705011Y-69540028D02*
X144705011Y-71540028D01*
X86137500Y-63800000D02*
X87400000Y-63800000D01*
X160815000Y-78460000D02*
X161395000Y-77880000D01*
X144525000Y-76675000D02*
X144600000Y-76600000D01*
X121500000Y-73600000D02*
X120600000Y-73600000D01*
X121475000Y-84275000D02*
X120950000Y-83750000D01*
X101483116Y-94059518D02*
X101750000Y-93792634D01*
X143200000Y-76675000D02*
X144525000Y-76675000D01*
X106800001Y-95100001D02*
X107900000Y-96200000D01*
X107699979Y-64910054D02*
X107786543Y-64823490D01*
X80075000Y-90878399D02*
X80253389Y-90700010D01*
X107699979Y-65831379D02*
X107699979Y-64910054D01*
D74*
X155500000Y-104550000D02*
X154550000Y-104550000D01*
D73*
X89857236Y-85625000D02*
X90432258Y-86200022D01*
X88700000Y-85625000D02*
X89857236Y-85625000D01*
D74*
X110146401Y-45500000D02*
X110406411Y-45239990D01*
D73*
X77600000Y-60700000D02*
X77500000Y-60800000D01*
X90000000Y-69100000D02*
X90900000Y-69100000D01*
D74*
X150500000Y-35925000D02*
X147525000Y-35925000D01*
D73*
X138815045Y-53340028D02*
X139115046Y-53640029D01*
X87300000Y-45800000D02*
X87900000Y-46400000D01*
D74*
X155500000Y-104550000D02*
X155500000Y-110337500D01*
D73*
X148700000Y-44700000D02*
X148500000Y-44500000D01*
X109750000Y-111330000D02*
X109750000Y-108950000D01*
D74*
X109250000Y-45500000D02*
X110146401Y-45500000D01*
X147525000Y-35925000D02*
X145500000Y-33900000D01*
D73*
X120050000Y-83750000D02*
X120050000Y-83950000D01*
D74*
X94920000Y-33550000D02*
X94920000Y-33080000D01*
X94750000Y-36250000D02*
X93000000Y-38000000D01*
X95500000Y-34130000D02*
X95500000Y-36250000D01*
D73*
%TO.N,Vcap2*%
X89996257Y-86800023D02*
X87524977Y-86800023D01*
X87524977Y-86800023D02*
X86600000Y-87725000D01*
X92325000Y-86750000D02*
X90918282Y-86750000D01*
X90768259Y-86900023D02*
X90096257Y-86900023D01*
X90918282Y-86750000D02*
X90768259Y-86900023D01*
X90096257Y-86900023D02*
X89996257Y-86800023D01*
%TO.N,Vcap1*%
X96602826Y-63312480D02*
X94787520Y-63312480D01*
X97750000Y-64459654D02*
X96602826Y-63312480D01*
X97750000Y-66825000D02*
X97750000Y-64459654D01*
X94787520Y-63312480D02*
X93900000Y-64200000D01*
%TO.N,LCD_VDD*%
X95900000Y-64200000D02*
X97000000Y-65300000D01*
X100100000Y-59900000D02*
X101300000Y-58700000D01*
X89000000Y-63554834D02*
X88654874Y-63899960D01*
X93975020Y-91124980D02*
X95480338Y-91124980D01*
X94400000Y-60505000D02*
X94400000Y-59550000D01*
X86084030Y-75700000D02*
X85910989Y-75873041D01*
X88700000Y-87700000D02*
X88700000Y-88569821D01*
X83875000Y-45800000D02*
X82400000Y-47275000D01*
X83950054Y-100400000D02*
X84075022Y-100275032D01*
D74*
X97250000Y-31500000D02*
X98250000Y-30500000D01*
D73*
X89681203Y-70400000D02*
X88381203Y-69100000D01*
X100100000Y-61437233D02*
X100100000Y-60400000D01*
X102250000Y-92175000D02*
X102250000Y-90950000D01*
X146505011Y-64340028D02*
X147705011Y-64340028D01*
X127042511Y-56840028D02*
X128359972Y-56840028D01*
X123600000Y-93500000D02*
X122000010Y-91900010D01*
X107800000Y-52500000D02*
X107600000Y-52300000D01*
X90300000Y-61900000D02*
X91400000Y-61900000D01*
D75*
X127005011Y-54840028D02*
X127005011Y-56802528D01*
D73*
X133687511Y-57090028D02*
X135717511Y-57090028D01*
X147705011Y-56340028D02*
X148005011Y-56040028D01*
X128359972Y-56840028D02*
X128400000Y-56800000D01*
X107250000Y-65913215D02*
X106950060Y-65613275D01*
X120412500Y-79250000D02*
X119650000Y-79250000D01*
X120050000Y-83250000D02*
X120050000Y-83050000D01*
X142505011Y-62340028D02*
X144505011Y-64340028D01*
X92525000Y-114605000D02*
X90705000Y-114605000D01*
X97000000Y-65300000D02*
X96700000Y-65300000D01*
X74000000Y-64837500D02*
X71362500Y-62200000D01*
X122000010Y-91900010D02*
X122000010Y-90634310D01*
X92325000Y-87750000D02*
X91544642Y-87750000D01*
X80400000Y-84700000D02*
X80900000Y-85200000D01*
X125600000Y-71362500D02*
X127037500Y-71362500D01*
X121475000Y-83250000D02*
X122000000Y-82725000D01*
X122212383Y-71250000D02*
X122263994Y-71301611D01*
X127400000Y-67800000D02*
X128800000Y-66400000D01*
X75099989Y-58494989D02*
X73700011Y-58494989D01*
X127929296Y-59710028D02*
X127669662Y-59969662D01*
X135180011Y-64219989D02*
X135100000Y-64300000D01*
X70000000Y-62200000D02*
X69800000Y-62000000D01*
X107350053Y-63474947D02*
X107562500Y-63262500D01*
X80000000Y-60801439D02*
X79901449Y-60899990D01*
X109975000Y-96200000D02*
X109975000Y-95047436D01*
X125250000Y-111330000D02*
X125250000Y-112550000D01*
X117675000Y-71250000D02*
X122212383Y-71250000D01*
X120050000Y-83050000D02*
X120000000Y-83000000D01*
X109000000Y-52500000D02*
X112150000Y-52500000D01*
X74000000Y-65500000D02*
X74000000Y-64837500D01*
X122263994Y-71301611D02*
X125539111Y-71301611D01*
X85825000Y-80617045D02*
X86100030Y-80892075D01*
X144505011Y-64340028D02*
X146505011Y-64340028D01*
X109975000Y-96200000D02*
X107250000Y-93475000D01*
X73700011Y-58494989D02*
X73600000Y-58595000D01*
X82450000Y-106000000D02*
X83300000Y-106000000D01*
X84000000Y-59550000D02*
X84000000Y-60799979D01*
X76700000Y-100400000D02*
X82500000Y-100400000D01*
X121559972Y-55940028D02*
X121600000Y-55900000D01*
X123600000Y-94800000D02*
X123500000Y-94900000D01*
X76087500Y-45600000D02*
X77600000Y-47112500D01*
X80062500Y-61061041D02*
X79901449Y-60899990D01*
X92325000Y-75750000D02*
X91086002Y-75750000D01*
X84462500Y-45800000D02*
X83875000Y-45800000D01*
X91544642Y-69750000D02*
X90900000Y-70394642D01*
X91086002Y-75750000D02*
X90336001Y-74999999D01*
X135180011Y-62840028D02*
X135180011Y-64219989D01*
X124564982Y-64300000D02*
X124200000Y-64300000D01*
X87000000Y-113000000D02*
X87700000Y-113000000D01*
X117805011Y-56840028D02*
X119105011Y-56840028D01*
X83300000Y-106000000D02*
X84100000Y-105200000D01*
X90336001Y-74999999D02*
X87700001Y-74999999D01*
X119650000Y-78950000D02*
X119500000Y-78800000D01*
X113125000Y-95800000D02*
X113125000Y-94575000D01*
X113125000Y-94575000D02*
X113750000Y-93950000D01*
X95750000Y-91394642D02*
X95750000Y-92175000D01*
X91239569Y-81072168D02*
X86997168Y-81072168D01*
X129567511Y-59710028D02*
X127929296Y-59710028D01*
X107350053Y-64561005D02*
X107350053Y-63474947D01*
X116300000Y-72155358D02*
X116300000Y-71844642D01*
D75*
X124449989Y-113850011D02*
X124560006Y-113850011D01*
D73*
X90900000Y-70400000D02*
X89681203Y-70400000D01*
D75*
X124950011Y-113400000D02*
X124950011Y-112849989D01*
D73*
X127037500Y-71362500D02*
X127100000Y-71300000D01*
X133442511Y-61210028D02*
X135072511Y-62840028D01*
X146505011Y-56340028D02*
X147705011Y-56340028D01*
X77600000Y-47112500D02*
X77600000Y-48050000D01*
D75*
X124950011Y-112849989D02*
X125200000Y-112600000D01*
D73*
X82400000Y-47275000D02*
X82400000Y-48050000D01*
X85825000Y-79900000D02*
X85825000Y-80617045D01*
X80800000Y-87500000D02*
X80800000Y-88351633D01*
X119105011Y-56840028D02*
X120005011Y-55940028D01*
X122000010Y-90634310D02*
X119215689Y-87849989D01*
X125250000Y-112550000D02*
X124950011Y-112849989D01*
X97000000Y-65300000D02*
X97250000Y-65550000D01*
X91294642Y-87500000D02*
X88900000Y-87500000D01*
X84062500Y-63800000D02*
X84062500Y-60862479D01*
X119650000Y-79250000D02*
X117675000Y-79250000D01*
X92400000Y-92700000D02*
X93975020Y-91124980D01*
X101883126Y-94225208D02*
X101883126Y-96116874D01*
X84462500Y-45800000D02*
X84462500Y-44637500D01*
X113575000Y-53925000D02*
X113575000Y-54825000D01*
X102250000Y-92175000D02*
X102250000Y-93858334D01*
X106950060Y-64960998D02*
X107350053Y-64561005D01*
X92062520Y-61237480D02*
X93667520Y-61237480D01*
X80000000Y-59550000D02*
X80000000Y-60801439D01*
X120005011Y-55940028D02*
X121559972Y-55940028D01*
X113900000Y-63100000D02*
X113900000Y-63800000D01*
X93862500Y-115942500D02*
X92525000Y-114605000D01*
D74*
X97250000Y-34500000D02*
X98700000Y-34500000D01*
D73*
X142505011Y-58340028D02*
X144505011Y-56340028D01*
X123205011Y-62940028D02*
X125264983Y-65000000D01*
X118815700Y-87750000D02*
X117675000Y-87750000D01*
X106950060Y-65613275D02*
X106950060Y-64960998D01*
X71362500Y-62200000D02*
X70000000Y-62200000D01*
X147705011Y-64340028D02*
X148205011Y-64840028D01*
X90900000Y-70394642D02*
X90900000Y-70400000D01*
X71362500Y-62200000D02*
X73600000Y-59962500D01*
D75*
X124950011Y-113460006D02*
X124950011Y-113400000D01*
D73*
X102250000Y-63587233D02*
X100100000Y-61437233D01*
X89305000Y-114605000D02*
X90705000Y-114605000D01*
X75200000Y-58595000D02*
X75099989Y-58494989D01*
X88700000Y-88569821D02*
X87900094Y-89369727D01*
D75*
X123700000Y-114600000D02*
X124449989Y-113850011D01*
D73*
X102250000Y-66825000D02*
X102250000Y-63587233D01*
X113900000Y-63800000D02*
X113400000Y-64300000D01*
X87000000Y-75700000D02*
X86084030Y-75700000D01*
D76*
X77350000Y-36600000D02*
X79250000Y-38500000D01*
D73*
X91544642Y-87750000D02*
X91294642Y-87500000D01*
X75500000Y-45600000D02*
X76900000Y-45600000D01*
X121900000Y-82825000D02*
X121900000Y-82200000D01*
X116300000Y-71844642D02*
X116894642Y-71250000D01*
X107250000Y-93475000D02*
X107250000Y-92175000D01*
X102250000Y-90950000D02*
X102200000Y-90900000D01*
X125264983Y-65000000D02*
X126400000Y-65000000D01*
X113125000Y-96567708D02*
X113100000Y-96592708D01*
X135717511Y-56517511D02*
X135000000Y-55800000D01*
X123600000Y-93500000D02*
X123600000Y-94800000D01*
X89000000Y-63200000D02*
X90300000Y-61900000D01*
X87700000Y-113000000D02*
X88900000Y-114200000D01*
X95480338Y-91124980D02*
X95750000Y-91394642D01*
X116894642Y-71250000D02*
X117675000Y-71250000D01*
X116894642Y-72750000D02*
X116300000Y-72155358D01*
X132755011Y-58022528D02*
X133687511Y-57090028D01*
X90900000Y-70400000D02*
X90674980Y-70625020D01*
X73600000Y-58595000D02*
X73600000Y-59550000D01*
X107500000Y-61600000D02*
X107500000Y-62425000D01*
D74*
X98700000Y-34500000D02*
X99200000Y-34000000D01*
X97250000Y-34500000D02*
X97250000Y-31500000D01*
D73*
X87700001Y-74999999D02*
X87000000Y-75700000D01*
X120050000Y-83250000D02*
X121475000Y-83250000D01*
X92325000Y-81250000D02*
X91417401Y-81250000D01*
X91417401Y-81250000D02*
X91239569Y-81072168D01*
X93667520Y-61237480D02*
X94400000Y-60505000D01*
D75*
X124560006Y-113850011D02*
X124950011Y-113460006D01*
D73*
X92400000Y-92700000D02*
X91100000Y-92700000D01*
X119650000Y-79250000D02*
X119650000Y-78950000D01*
X113750000Y-63250000D02*
X113750000Y-66825000D01*
X102250000Y-93858334D02*
X101883126Y-94225208D01*
X113750000Y-93950000D02*
X113750000Y-92175000D01*
X92325000Y-69750000D02*
X91544642Y-69750000D01*
X84062500Y-60862479D02*
X84000021Y-60800000D01*
X119215689Y-87849989D02*
X118915689Y-87849989D01*
X113125000Y-95800000D02*
X113125000Y-96567708D01*
X107250000Y-66825000D02*
X107250000Y-65913215D01*
X91100000Y-92700000D02*
X91000000Y-92800000D01*
X144505011Y-56340028D02*
X146505011Y-56340028D01*
X117675000Y-83250000D02*
X120050000Y-83250000D01*
X112150000Y-52500000D02*
X113575000Y-53925000D01*
X109000000Y-52500000D02*
X107800000Y-52500000D01*
X80800000Y-88351633D02*
X80746924Y-88404709D01*
X86997168Y-81072168D02*
X85825000Y-79900000D01*
X96700000Y-65300000D02*
X96600000Y-65400000D01*
X84462500Y-44637500D02*
X84700000Y-44400000D01*
X75200000Y-59550000D02*
X75200000Y-58595000D01*
X117675000Y-72750000D02*
X116894642Y-72750000D01*
X109975000Y-95047436D02*
X109925006Y-94997442D01*
X91400000Y-61900000D02*
X92062520Y-61237480D01*
X82500000Y-100400000D02*
X83950054Y-100400000D01*
X84000000Y-60799979D02*
X84000021Y-60800000D01*
X118915689Y-87849989D02*
X118815700Y-87750000D01*
X80062500Y-62500000D02*
X80062500Y-61061041D01*
D76*
X77350000Y-35000000D02*
X77350000Y-36600000D01*
D73*
X97250000Y-65550000D02*
X97250000Y-66825000D01*
%TO.N,Net-(C21-Pad1)*%
X128300000Y-53500000D02*
X127640028Y-52840028D01*
X130255011Y-57155011D02*
X128300000Y-55200000D01*
X127012511Y-50840028D02*
X127012511Y-52840028D01*
X128300000Y-55200000D02*
X128300000Y-53500000D01*
X127640028Y-52840028D02*
X127012511Y-52840028D01*
X130255011Y-58022528D02*
X130255011Y-57155011D01*
%TO.N,Crystal_32_in*%
X120436014Y-86600012D02*
X120698310Y-86600012D01*
X120698310Y-86600012D02*
X122199989Y-88101691D01*
X119922494Y-86086492D02*
X120436014Y-86600012D01*
X117675000Y-86250000D02*
X119105034Y-86250000D01*
X119268542Y-86086492D02*
X119922494Y-86086492D01*
X122199989Y-89449989D02*
X123400000Y-90650000D01*
X123400000Y-90650000D02*
X125812500Y-90650000D01*
X119105034Y-86250000D02*
X119268542Y-86086492D01*
X122199989Y-88101691D02*
X122199989Y-89449989D01*
%TO.N,USER_BTN*%
X96750000Y-92175000D02*
X96750000Y-95321862D01*
X81113212Y-90000000D02*
X83260680Y-92147468D01*
X78000000Y-91800000D02*
X76100000Y-93700000D01*
X96599990Y-102700010D02*
X94600000Y-104700000D01*
X79500000Y-90000000D02*
X81113212Y-90000000D01*
X96750000Y-95321862D02*
X96599990Y-95471872D01*
X96599990Y-95471872D02*
X96599990Y-102700010D01*
X78000000Y-91500000D02*
X79500000Y-90000000D01*
D74*
%TO.N,Vin*%
X103385000Y-39475000D02*
X103385000Y-40615000D01*
X102245000Y-39475000D02*
X102245000Y-41005000D01*
D76*
X119000000Y-45750000D02*
X119000000Y-47000000D01*
X160350000Y-111550000D02*
X161457536Y-111550000D01*
D74*
X157012500Y-111950000D02*
X159950000Y-111950000D01*
D76*
X103000000Y-44500000D02*
X102250000Y-43750000D01*
D73*
X118500000Y-63000000D02*
X118500000Y-62000000D01*
D74*
X157000000Y-106400000D02*
X157000000Y-111937500D01*
D76*
X102250000Y-43750000D02*
X102250000Y-41500000D01*
X119500000Y-45250000D02*
X119000000Y-45750000D01*
X161457536Y-111550000D02*
X161749979Y-111257557D01*
D73*
X118500000Y-62000000D02*
X119000000Y-61500000D01*
D74*
X102500000Y-41500000D02*
X102250000Y-41500000D01*
X103385000Y-40615000D02*
X102500000Y-41500000D01*
D73*
%TO.N,Backlight*%
X150800000Y-111163588D02*
X150800000Y-106850000D01*
X89575020Y-100695877D02*
X93605685Y-96665212D01*
X86350000Y-106650000D02*
X86350000Y-109450000D01*
X94750000Y-92175000D02*
X94750000Y-93350000D01*
X86350000Y-109450000D02*
X85900000Y-109900000D01*
X129913555Y-119250033D02*
X131613600Y-117549989D01*
X89575020Y-105200000D02*
X89575020Y-100695877D01*
X93605685Y-96665212D02*
X93606382Y-96665212D01*
X86700000Y-119000000D02*
X86950033Y-119250033D01*
X94750000Y-93350000D02*
X94300000Y-93800000D01*
X86950033Y-119250033D02*
X129913555Y-119250033D01*
X150800000Y-106850000D02*
X154000000Y-103650000D01*
X144413599Y-117549989D02*
X150800000Y-111163588D01*
X131613600Y-117549989D02*
X144413599Y-117549989D01*
X154000000Y-103650000D02*
X154000000Y-102700000D01*
D75*
%TO.N,18V*%
X162899989Y-114000011D02*
X156399989Y-114000011D01*
X162899989Y-71714233D02*
X162899989Y-114000011D01*
X161100018Y-69914262D02*
X162899989Y-71714233D01*
D73*
X145250000Y-46595000D02*
X146225000Y-46595000D01*
D75*
X108250000Y-111330000D02*
X108250000Y-112350000D01*
X128726481Y-115800000D02*
X128798161Y-115728320D01*
D73*
X143500000Y-51137500D02*
X144699999Y-49937501D01*
D75*
X108250000Y-112350000D02*
X111700000Y-115800000D01*
D73*
X144699999Y-49937501D02*
X144699999Y-47145001D01*
X142200000Y-52437500D02*
X143500000Y-51137500D01*
D75*
X146225000Y-46595000D02*
X147200000Y-46595000D01*
D73*
X144699999Y-47145001D02*
X145250000Y-46595000D01*
D75*
X147999989Y-49807111D02*
X152402684Y-54209806D01*
X111700000Y-115800000D02*
X128726481Y-115800000D01*
X147200000Y-46595000D02*
X147999989Y-47394989D01*
X153095562Y-54209806D02*
X161100018Y-62214262D01*
X156399989Y-114000011D02*
X154671680Y-115728320D01*
X161100018Y-62214262D02*
X161100018Y-69914262D01*
X147999989Y-47394989D02*
X147999989Y-49807111D01*
D73*
X128000000Y-100500000D02*
X127000000Y-101500000D01*
D75*
X152402684Y-54209806D02*
X153095562Y-54209806D01*
D74*
%TO.N,+5V*%
X127690008Y-47690008D02*
X131300000Y-51300000D01*
D76*
X157087588Y-88202588D02*
X161749979Y-88202588D01*
D74*
X105665000Y-45165000D02*
X105665000Y-47660000D01*
X120000000Y-51000000D02*
X123309992Y-47690008D01*
X105665000Y-37875000D02*
X105665000Y-39475000D01*
D76*
X153785000Y-84900000D02*
X157087588Y-88202588D01*
D74*
X104162500Y-49162500D02*
X98800000Y-43800000D01*
X107250000Y-45500000D02*
X106000000Y-45500000D01*
X105665000Y-47660000D02*
X109005000Y-51000000D01*
D76*
X160700000Y-88200000D02*
X161747391Y-88200000D01*
D73*
X152600000Y-79200000D02*
X151100000Y-80700000D01*
D74*
X98800000Y-43800000D02*
X97000000Y-43800000D01*
X151100000Y-82215000D02*
X153785000Y-84900000D01*
D73*
X156000000Y-79200000D02*
X152600000Y-79200000D01*
D74*
X107300000Y-37375002D02*
X106164998Y-37375002D01*
X106000000Y-45500000D02*
X105665000Y-45165000D01*
X106164998Y-37375002D02*
X105665000Y-37875000D01*
X105665000Y-39475000D02*
X105665000Y-45165000D01*
X153785000Y-84900000D02*
X153300000Y-84900000D01*
X109005000Y-51000000D02*
X120000000Y-51000000D01*
D73*
X151100000Y-80700000D02*
X151100000Y-81000000D01*
D74*
X131300000Y-51300000D02*
X131300000Y-53300000D01*
D76*
X161747391Y-88200000D02*
X161749979Y-88202588D01*
D74*
X105665000Y-47660000D02*
X104162500Y-49162500D01*
X151100000Y-81000000D02*
X151100000Y-82215000D01*
X104162500Y-53600000D02*
X104162500Y-49162500D01*
X123309992Y-47690008D02*
X127690008Y-47690008D01*
D73*
%TO.N,Net-(C35-Pad2)*%
X136187500Y-111225000D02*
X133575000Y-111225000D01*
X133575000Y-111225000D02*
X132900000Y-111900000D01*
%TO.N,Net-(C35-Pad1)*%
X132900000Y-109825000D02*
X133650000Y-110575000D01*
X133650000Y-110575000D02*
X136187500Y-110575000D01*
D74*
%TO.N,Backlight Cathode*%
X145900000Y-105200000D02*
X133000000Y-105200000D01*
X129000000Y-105100000D02*
X127600000Y-106500000D01*
X154400000Y-96700000D02*
X145900000Y-105200000D01*
D75*
X126750000Y-111330000D02*
X126750000Y-108650000D01*
X127250000Y-108150000D02*
X127600000Y-107800000D01*
D74*
X127600000Y-107800000D02*
X126750000Y-108650000D01*
X129900000Y-106500000D02*
X129900000Y-105400000D01*
D75*
X127250000Y-111330000D02*
X127250000Y-108150000D01*
D74*
X127600000Y-107800000D02*
X127600000Y-106500000D01*
X133000000Y-105200000D02*
X132900000Y-105100000D01*
D75*
%TO.N,Backlight Anode*%
X129600000Y-108225000D02*
X129600000Y-108900000D01*
D74*
X154000000Y-106400000D02*
X154000000Y-109250000D01*
D75*
X129600000Y-108900000D02*
X130100000Y-109400000D01*
X128250000Y-111330000D02*
X128250000Y-109575000D01*
X127750000Y-110075000D02*
X129600000Y-108225000D01*
D74*
X127850020Y-109974980D02*
X127850020Y-110075000D01*
X129600000Y-108225000D02*
X127850020Y-109974980D01*
X152200000Y-108900000D02*
X153650000Y-108900000D01*
D75*
X127750000Y-111330000D02*
X127750000Y-110075000D01*
D73*
%TO.N,Net-(C37-Pad1)*%
X139500000Y-112787500D02*
X140412500Y-111875000D01*
X140412500Y-111875000D02*
X141875000Y-111875000D01*
X139500000Y-113700000D02*
X139500000Y-112787500D01*
X143200000Y-113200000D02*
X145000000Y-113200000D01*
X141875000Y-111875000D02*
X143200000Y-113200000D01*
D74*
%TO.N,-6V*%
X143200000Y-110000000D02*
X143200000Y-111200000D01*
X139675572Y-116074418D02*
X141700000Y-114049990D01*
D75*
X127449990Y-116600000D02*
X127600000Y-116750010D01*
D74*
X139675572Y-116649979D02*
X139675572Y-116074418D01*
D73*
X143300000Y-107800000D02*
X143300000Y-109900000D01*
X143300000Y-109900000D02*
X143200000Y-110000000D01*
D75*
X107750000Y-112557136D02*
X111792864Y-116600000D01*
X107750000Y-111330000D02*
X107750000Y-112557136D01*
D74*
X140412500Y-111225000D02*
X143175000Y-111225000D01*
D73*
X145500000Y-108000000D02*
X143300000Y-108000000D01*
D75*
X111792864Y-116600000D02*
X127449990Y-116600000D01*
D73*
%TO.N,Crystal_32_out*%
X118948298Y-85750000D02*
X119011816Y-85686482D01*
X117675000Y-85750000D02*
X118948298Y-85750000D01*
X120619753Y-86200001D02*
X121450001Y-86200001D01*
X123400000Y-88150000D02*
X125650000Y-88150000D01*
X121450001Y-86200001D02*
X123400000Y-88150000D01*
X119011816Y-85686482D02*
X120106234Y-85686482D01*
X120106234Y-85686482D02*
X120619753Y-86200001D01*
%TO.N,RESET*%
X119674022Y-75250000D02*
X119974043Y-74949979D01*
X132500000Y-70700000D02*
X134100000Y-72300000D01*
X134100000Y-73400000D02*
X139900000Y-73400000D01*
X120646045Y-74949979D02*
X121096065Y-75399999D01*
X143200000Y-74600000D02*
X142000000Y-73400000D01*
X117675000Y-75250000D02*
X119674022Y-75250000D01*
X119974043Y-74949979D02*
X120646045Y-74949979D01*
X131255011Y-68260700D02*
X130915721Y-68599990D01*
X131255011Y-68744989D02*
X131060720Y-68744989D01*
X132100001Y-75399999D02*
X134100000Y-73400000D01*
X142000000Y-73400000D02*
X139900000Y-73400000D01*
X134100000Y-72300000D02*
X134100000Y-73400000D01*
X131255011Y-61897528D02*
X131255011Y-68260700D01*
X131060720Y-68744989D02*
X130915721Y-68599990D01*
X121096065Y-75399999D02*
X132100001Y-75399999D01*
D75*
%TO.N,Net-(D1-Pad2)*%
X160350000Y-106550000D02*
X157000000Y-103200000D01*
X157000000Y-99700000D02*
X157000000Y-102700000D01*
X160000000Y-96700000D02*
X157000000Y-99700000D01*
D73*
%TO.N,Galv_Interrupt*%
X98000022Y-98131378D02*
X98000022Y-106600010D01*
X98100022Y-95031377D02*
X98100021Y-95631378D01*
X98000022Y-106600010D02*
X97300000Y-107300032D01*
X98250000Y-92175000D02*
X98250000Y-94881399D01*
X98037470Y-98093930D02*
X98000022Y-98131378D01*
X98250000Y-94881399D02*
X98100022Y-95031377D01*
X98037470Y-95693929D02*
X98037470Y-98093930D01*
X98100021Y-95631378D02*
X98037470Y-95693929D01*
%TO.N,Galv_Enable*%
X68060000Y-90700000D02*
X69211685Y-89548315D01*
X97700010Y-95465685D02*
X97637459Y-95528236D01*
X69211685Y-89548315D02*
X82952357Y-89548315D01*
X97637459Y-95528236D02*
X97637459Y-97928241D01*
X97600011Y-104499991D02*
X97000000Y-105100002D01*
X97700010Y-92224990D02*
X97700010Y-95465685D01*
X97600011Y-97965689D02*
X97600011Y-104499991D01*
X82952357Y-89548315D02*
X83199959Y-89795917D01*
X97637459Y-97928241D02*
X97600011Y-97965689D01*
%TO.N,SPI2_SCK*%
X72763998Y-79000000D02*
X77100000Y-79000000D01*
X100800001Y-98263999D02*
X100210497Y-97674495D01*
X68060000Y-78000000D02*
X69210011Y-79150011D01*
X98500032Y-95197067D02*
X100250000Y-93447099D01*
X100250000Y-93447099D02*
X100250000Y-92175000D01*
X100300000Y-105100000D02*
X100800001Y-104599999D01*
X100800001Y-104599999D02*
X100800001Y-98263999D01*
X72613987Y-79150011D02*
X72763998Y-79000000D01*
X100210497Y-97674495D02*
X98809149Y-97674495D01*
X98500032Y-95797067D02*
X98500032Y-95197067D01*
X98809149Y-97674495D02*
X98437480Y-97302826D01*
X69210011Y-79150011D02*
X72613987Y-79150011D01*
X98437480Y-95859619D02*
X98500032Y-95797067D01*
X98437480Y-97302826D02*
X98437480Y-95859619D01*
%TO.N,SPI1_SCK*%
X81809207Y-71300041D02*
X83009248Y-70100000D01*
X83009248Y-70100000D02*
X85400043Y-70100000D01*
X73000000Y-71200000D02*
X71700000Y-71200000D01*
X112750000Y-66825000D02*
X112750000Y-67950000D01*
X112750000Y-67950000D02*
X113446984Y-68646984D01*
X71200000Y-71700000D02*
X69380000Y-71700000D01*
X113446984Y-68646984D02*
X113446984Y-71944186D01*
X69380000Y-71700000D02*
X68060000Y-70380000D01*
X71700000Y-71200000D02*
X71200000Y-71700000D01*
X75300000Y-72300000D02*
X76299959Y-71300041D01*
X76299959Y-71300041D02*
X81809207Y-71300041D01*
%TO.N,SPI2_MOSI*%
X87193981Y-70525027D02*
X86068954Y-69400000D01*
X81643515Y-70900031D02*
X75601671Y-70900031D01*
X72301702Y-74200000D02*
X72300000Y-74200000D01*
X75601671Y-70900031D02*
X72301702Y-74200000D01*
X92325000Y-71750000D02*
X89899803Y-71750000D01*
X86068954Y-69400000D02*
X83143546Y-69400000D01*
X83143546Y-69400000D02*
X81643515Y-70900031D01*
X88674833Y-70525030D02*
X87193981Y-70525027D01*
X89899803Y-71750000D02*
X88674833Y-70525030D01*
%TO.N,SPI1_MOSI*%
X109250000Y-87886002D02*
X109500001Y-87636001D01*
X105400000Y-88400000D02*
X107300000Y-86500000D01*
X94800000Y-88400000D02*
X105400000Y-88400000D01*
X109250000Y-92175000D02*
X109250000Y-87886002D01*
X109500001Y-87636001D02*
X109500001Y-86500001D01*
X68060000Y-67840000D02*
X69443890Y-69223890D01*
X95399959Y-98197717D02*
X91926670Y-101671006D01*
X95399959Y-96399959D02*
X95399959Y-98197717D01*
X94800000Y-95800000D02*
X95399959Y-96399959D01*
X69443890Y-69223890D02*
X77299875Y-69223890D01*
X109500001Y-86500001D02*
X109200000Y-86200000D01*
%TO.N,SPI1_MISO*%
X72999980Y-65459960D02*
X72999980Y-66077826D01*
X112250000Y-66825000D02*
X112250000Y-68111968D01*
X72999980Y-66077826D02*
X73522134Y-66599980D01*
X86595898Y-67699978D02*
X87320917Y-66974959D01*
X112250000Y-68111968D02*
X112115752Y-68246216D01*
X76099978Y-67699978D02*
X86595898Y-67699978D01*
X73522134Y-66599980D02*
X74999980Y-66599980D01*
X69210011Y-64149989D02*
X71690009Y-64149989D01*
X74999980Y-66599980D02*
X76099978Y-67699978D01*
X71690009Y-64149989D02*
X72999980Y-65459960D01*
X68060000Y-65300000D02*
X69210011Y-64149989D01*
%TO.N,SPI2_MISO*%
X71365991Y-74070011D02*
X69210011Y-74070011D01*
X69210011Y-74070011D02*
X68060000Y-72920000D01*
X72536001Y-72900001D02*
X71365991Y-74070011D01*
X82977856Y-68999990D02*
X81477846Y-70500000D01*
X81477846Y-70500000D02*
X75436002Y-70500000D01*
X86234643Y-68999989D02*
X82977856Y-68999990D01*
X87359671Y-70125017D02*
X86234643Y-68999989D01*
X75436002Y-70500000D02*
X73036001Y-72900001D01*
X73036001Y-72900001D02*
X72536001Y-72900001D01*
X88840522Y-70125019D02*
X87359671Y-70125017D01*
X92325000Y-71250000D02*
X89965503Y-71250000D01*
X89965503Y-71250000D02*
X88840522Y-70125019D01*
%TO.N,ADDR_LED1*%
X78333802Y-74600001D02*
X78088839Y-74355038D01*
X71289979Y-77310021D02*
X78010021Y-77310021D01*
X85600000Y-76700000D02*
X83400001Y-74500001D01*
X96700000Y-76600000D02*
X96700000Y-71462697D01*
X83400001Y-74500001D02*
X83136001Y-74500001D01*
X87600000Y-76700000D02*
X85600000Y-76700000D01*
X78200000Y-77500000D02*
X78200000Y-77700000D01*
X71289979Y-77310021D02*
X70600000Y-78000000D01*
X89900000Y-75800000D02*
X88500000Y-75800000D01*
X116404678Y-70750000D02*
X116127339Y-71027339D01*
X88500000Y-75800000D02*
X87600000Y-76700000D01*
X96700000Y-71462697D02*
X96862707Y-71299990D01*
X117675000Y-70750000D02*
X116404678Y-70750000D01*
X83036001Y-74600001D02*
X78333802Y-74600001D01*
X83136001Y-74500001D02*
X83036001Y-74600001D01*
X78010021Y-77310021D02*
X78200000Y-77500000D01*
%TO.N,USB_OTG_D-*%
X161650000Y-82950000D02*
X160815000Y-82950000D01*
X160815000Y-82950000D02*
X154335000Y-82950000D01*
X161595000Y-81950000D02*
X161695011Y-82050011D01*
X161695011Y-82050011D02*
X161695011Y-82904989D01*
X133800000Y-84800000D02*
X132800000Y-84800000D01*
X161695011Y-82904989D02*
X161650000Y-82950000D01*
X154335000Y-82950000D02*
X153785000Y-82400000D01*
X160815000Y-81950000D02*
X161595000Y-81950000D01*
%TO.N,ADDR_LED2*%
X95599990Y-94530764D02*
X95799970Y-94730744D01*
X95799970Y-94730744D02*
X95799970Y-99299998D01*
X108250000Y-92175000D02*
X108250000Y-88615700D01*
X107300000Y-87500000D02*
X105400000Y-89400000D01*
X108700011Y-88165689D02*
X108700011Y-87200000D01*
X105400000Y-89400000D02*
X95600000Y-89400000D01*
X95799970Y-99299998D02*
X92700000Y-102399968D01*
X77694987Y-75460000D02*
X77699903Y-75455084D01*
X108250000Y-88615700D02*
X108700011Y-88165689D01*
X70600000Y-75460000D02*
X77694987Y-75460000D01*
%TO.N,USB_OTG_D+*%
X160815000Y-82450000D02*
X160035000Y-82450000D01*
X160035000Y-82450000D02*
X159934989Y-82349989D01*
X156400000Y-80800000D02*
X157050000Y-81450000D01*
X159934989Y-82349989D02*
X159934989Y-81465011D01*
X133100000Y-83500000D02*
X132600000Y-83000000D01*
X154185000Y-80800000D02*
X153785000Y-80400000D01*
X157050000Y-81450000D02*
X160815000Y-81450000D01*
X156400000Y-80800000D02*
X154185000Y-80800000D01*
X133800000Y-83500000D02*
X133100000Y-83500000D01*
X159934989Y-81465011D02*
X159950000Y-81450000D01*
%TO.N,ADDR_LED3*%
X70600000Y-72920000D02*
X71320000Y-72200000D01*
X74100000Y-73500000D02*
X80740646Y-73500000D01*
X98750000Y-72850000D02*
X99400000Y-73500000D01*
X83336001Y-71299999D02*
X83536002Y-71500000D01*
X83536002Y-71500000D02*
X88600000Y-71500000D01*
X80740646Y-73500000D02*
X82940647Y-71299999D01*
X82940647Y-71299999D02*
X83336001Y-71299999D01*
X98750000Y-66825000D02*
X98750000Y-72850000D01*
X71320000Y-72200000D02*
X72700000Y-72200000D01*
X88600000Y-71500000D02*
X89000000Y-71900000D01*
%TO.N,I2C3_SCL*%
X96250000Y-66825000D02*
X96250000Y-67950000D01*
X85400000Y-93399989D02*
X85436006Y-93399989D01*
X95900000Y-68300000D02*
X92107114Y-68300000D01*
X81800020Y-111900020D02*
X80900000Y-111000000D01*
X80950000Y-106000000D02*
X80950000Y-104884300D01*
X85400000Y-93100000D02*
X85400000Y-93399989D01*
X85800011Y-94436006D02*
X85500020Y-94735997D01*
X96250000Y-67950000D02*
X95900000Y-68300000D01*
X88600020Y-111900020D02*
X81800020Y-111900020D01*
X85800011Y-93763994D02*
X85800011Y-94436006D01*
X82934311Y-102899989D02*
X83034311Y-102899989D01*
X80950000Y-104884300D02*
X82934311Y-102899989D01*
X92525000Y-112065000D02*
X89035000Y-112065000D01*
X83034311Y-102899989D02*
X85500000Y-100434300D01*
X92107114Y-68300000D02*
X90103557Y-66296443D01*
X80950000Y-106000000D02*
X80950000Y-107850000D01*
X85500000Y-100434300D02*
X85500000Y-97400000D01*
X85500020Y-94735997D02*
X85500020Y-97400000D01*
X85436006Y-93399989D02*
X85800011Y-93763994D01*
X80950000Y-107850000D02*
X81100000Y-108000000D01*
%TO.N,ADDR_LED4*%
X114750000Y-67945939D02*
X114290069Y-68405870D01*
X114290069Y-71309063D02*
X114681070Y-71700064D01*
X70600000Y-70380000D02*
X73580000Y-70380000D01*
X81574946Y-72100000D02*
X76599865Y-72100000D01*
X86300000Y-70800000D02*
X82874946Y-70800000D01*
X114750000Y-66825000D02*
X114750000Y-67945939D01*
X82874946Y-70800000D02*
X81574946Y-72100000D01*
X114290069Y-68405870D02*
X114290069Y-71309063D01*
X73580000Y-70380000D02*
X73900000Y-70700000D01*
%TO.N,I2C3_SDA*%
X80450000Y-106000000D02*
X80450000Y-107513998D01*
X87000000Y-111000000D02*
X92320000Y-111000000D01*
X92320000Y-111000000D02*
X92525000Y-110795000D01*
X80450000Y-104818600D02*
X80450000Y-106000000D01*
X85100000Y-94100000D02*
X85100000Y-100268600D01*
X91869685Y-65725043D02*
X91300000Y-65725043D01*
X80399999Y-109299999D02*
X82100000Y-111000000D01*
X85100000Y-100268600D02*
X82868621Y-102499979D01*
X80399999Y-107563999D02*
X80399999Y-109299999D01*
X95750000Y-67605358D02*
X95480338Y-67875020D01*
X95480338Y-67875020D02*
X94019662Y-67875020D01*
X82868621Y-102499979D02*
X82768621Y-102499979D01*
X82768621Y-102499979D02*
X80450000Y-104818600D01*
X80450000Y-107513998D02*
X80399999Y-107563999D01*
X82100000Y-111000000D02*
X87000000Y-111000000D01*
X94019662Y-67875020D02*
X91869685Y-65725043D01*
X95750000Y-66825000D02*
X95750000Y-67605358D01*
%TO.N,I2C2_SCL*%
X115750000Y-66825000D02*
X115750000Y-67950000D01*
X78800000Y-68500000D02*
X86934654Y-68500000D01*
X78900000Y-68600000D02*
X78800000Y-68500000D01*
X86934654Y-68500000D02*
X87359674Y-68074980D01*
X87359674Y-68074980D02*
X88972400Y-68074980D01*
X115750000Y-67950000D02*
X116000000Y-68200000D01*
X70600000Y-67840000D02*
X71260000Y-68500000D01*
X78900000Y-69500000D02*
X78900000Y-68600000D01*
X88972400Y-68074980D02*
X89418672Y-67628708D01*
X71260000Y-68500000D02*
X78800000Y-68500000D01*
%TO.N,I2C2_SDA*%
X70600000Y-65300000D02*
X73399989Y-68099989D01*
X87193985Y-67674969D02*
X87925031Y-67674969D01*
X115250000Y-68481941D02*
X114990070Y-68741871D01*
X73700011Y-68099989D02*
X86768967Y-68099987D01*
X115250000Y-66825000D02*
X115250000Y-68481941D01*
X73700011Y-68099989D02*
X73700011Y-67799989D01*
X73399989Y-68099989D02*
X73700011Y-68099989D01*
X87925031Y-67674969D02*
X88600000Y-67000000D01*
X86768967Y-68099987D02*
X87193985Y-67674969D01*
%TO.N,I2C4_SCL*%
X72006298Y-85300000D02*
X70920000Y-85300000D01*
X87701691Y-84362486D02*
X88364155Y-83700022D01*
X72006298Y-85300000D02*
X72606298Y-84700000D01*
X95100000Y-83200000D02*
X94100000Y-84200000D01*
X94150000Y-74250000D02*
X92325000Y-74250000D01*
X81699999Y-85900001D02*
X83237513Y-84362487D01*
X88364155Y-83700022D02*
X89008304Y-83700022D01*
X94900000Y-75000000D02*
X94150000Y-74250000D01*
X94900000Y-77500000D02*
X94900000Y-75000000D01*
X95100000Y-80500000D02*
X95100000Y-83200000D01*
X72606298Y-84700000D02*
X78000000Y-84700000D01*
X79200001Y-85900001D02*
X81699999Y-85900001D01*
X83237513Y-84362487D02*
X87701691Y-84362486D01*
X78000000Y-84700000D02*
X79200001Y-85900001D01*
X89008304Y-83700022D02*
X89754141Y-84445859D01*
%TO.N,I2C4_SDA*%
X81865689Y-86300011D02*
X83403202Y-84762498D01*
X88229845Y-84400032D02*
X88700000Y-84400032D01*
X87867381Y-84762496D02*
X88229845Y-84400032D01*
X95799999Y-68899999D02*
X95799999Y-77299999D01*
X78800000Y-87500000D02*
X79999989Y-86300011D01*
X95799999Y-77299999D02*
X96000000Y-77500000D01*
X79999989Y-86300011D02*
X81865689Y-86300011D01*
X95650000Y-68750000D02*
X95799999Y-68899999D01*
X96099334Y-83300666D02*
X95200000Y-84200000D01*
X68060000Y-85620000D02*
X69210011Y-86770011D01*
X71101987Y-86770011D02*
X71831976Y-87500000D01*
X71831976Y-87500000D02*
X78800000Y-87500000D01*
X92325000Y-68750000D02*
X95650000Y-68750000D01*
X96099334Y-80569236D02*
X96099334Y-83300666D01*
X83403202Y-84762498D02*
X87867381Y-84762496D01*
X69210011Y-86770011D02*
X71101987Y-86770011D01*
%TO.N,UART_RX2*%
X102287520Y-95897174D02*
X102287520Y-97302826D01*
X72440598Y-84300000D02*
X69280000Y-84300000D01*
X102283146Y-94390888D02*
X102283146Y-95892800D01*
X69280000Y-84300000D02*
X68060000Y-83080000D01*
X102283146Y-95892800D02*
X102287520Y-95897174D01*
X102750000Y-92175000D02*
X102750000Y-93924034D01*
X101399979Y-104855643D02*
X101872168Y-105327832D01*
X102287520Y-97302826D02*
X101399979Y-98190367D01*
X102750000Y-93924034D02*
X102283146Y-94390888D01*
X80400000Y-83400000D02*
X73340598Y-83400000D01*
X72440598Y-84300000D02*
X73340598Y-83400000D01*
X101399979Y-98190367D02*
X101399979Y-104855643D01*
%TO.N,UART_RX1*%
X79399993Y-80199980D02*
X81646287Y-82446274D01*
X110250000Y-85550000D02*
X110200000Y-85500000D01*
X99600000Y-98906447D02*
X100006479Y-98499968D01*
X81646287Y-82446274D02*
X86613233Y-82446274D01*
X106300000Y-86500000D02*
X98300000Y-86500000D01*
X101175000Y-108075000D02*
X99600000Y-106500000D01*
X73000000Y-79800000D02*
X73600000Y-79800000D01*
X110250000Y-92175000D02*
X110250000Y-85550000D01*
X107300000Y-85500000D02*
X106300000Y-86500000D01*
X98300000Y-86500000D02*
X97373428Y-87426572D01*
X86813256Y-82346251D02*
X90301916Y-82346251D01*
X86613233Y-82446274D02*
X86667410Y-82392097D01*
X73600000Y-79800000D02*
X73999980Y-80199980D01*
X86667410Y-82392097D02*
X86767410Y-82392097D01*
X90301916Y-82346251D02*
X90527854Y-82572189D01*
X86767410Y-82392097D02*
X86813256Y-82346251D01*
X97373428Y-87426572D02*
X97373428Y-87599394D01*
X99600000Y-106500000D02*
X99600000Y-98906447D01*
X73999980Y-80199980D02*
X79399993Y-80199980D01*
%TO.N,UART_TX2*%
X101799990Y-98356056D02*
X102687531Y-97468515D01*
X68060000Y-80540000D02*
X69210011Y-81690011D01*
X101250000Y-93520687D02*
X100787252Y-93983435D01*
X102687531Y-97468515D02*
X102687531Y-95022523D01*
X101799989Y-104265689D02*
X101799990Y-98356056D01*
X79690011Y-81690011D02*
X81700000Y-83700000D01*
X101250000Y-92175000D02*
X101250000Y-93520687D01*
X69210011Y-81690011D02*
X79690011Y-81690011D01*
X102900000Y-105365700D02*
X101799989Y-104265689D01*
X102687531Y-95022523D02*
X102983156Y-94726898D01*
X102900000Y-106300000D02*
X102900000Y-105365700D01*
X81700000Y-83700000D02*
X81700000Y-84500000D01*
%TO.N,UART_TX1*%
X92325000Y-84250000D02*
X93105358Y-84250000D01*
X89700022Y-83300022D02*
X88107131Y-83300022D01*
X82596776Y-83962476D02*
X79234300Y-80600000D01*
X92325000Y-84250000D02*
X90650000Y-84250000D01*
X90650000Y-84250000D02*
X89700022Y-83300022D01*
X93105358Y-84250000D02*
X93399999Y-83955359D01*
X98635000Y-108075000D02*
X98635000Y-98434268D01*
X87444678Y-83962476D02*
X88107131Y-83300022D01*
X87444678Y-83962476D02*
X82596776Y-83962476D01*
X93399999Y-83955359D02*
X93399999Y-83500001D01*
X93399999Y-83500001D02*
X93800000Y-83100000D01*
X79234300Y-80600000D02*
X70660000Y-80600000D01*
X98635000Y-98434268D02*
X98700032Y-98369236D01*
%TO.N,SWCLK*%
X96300000Y-95206162D02*
X96199979Y-95306183D01*
X96199979Y-95306183D02*
X96199979Y-101436023D01*
X93555000Y-104081002D02*
X93555000Y-108075000D01*
X96199979Y-101436023D02*
X93555000Y-104081002D01*
X96300000Y-92225000D02*
X96300000Y-95206162D01*
%TO.N,SWD*%
X88875011Y-92275011D02*
X88600000Y-92000000D01*
X91015000Y-108075000D02*
X88875011Y-105935011D01*
X88875011Y-105935011D02*
X88875011Y-92275011D01*
X93800000Y-86200000D02*
X92375000Y-86200000D01*
%TO.N,Encoder_A*%
X84668462Y-80713613D02*
X83199980Y-80713613D01*
X86555929Y-81472178D02*
X86435944Y-81592163D01*
X91351702Y-81750000D02*
X91073880Y-81472178D01*
X91073880Y-81472178D02*
X86555929Y-81472178D01*
X86435944Y-81592163D02*
X85547012Y-81592163D01*
X92325000Y-81750000D02*
X91351702Y-81750000D01*
X85547012Y-81592163D02*
X84668462Y-80713613D01*
%TO.N,Encoder_B*%
X91241667Y-82250000D02*
X90863856Y-81872189D01*
X90863856Y-81872189D02*
X86721618Y-81872189D01*
X92325000Y-82250000D02*
X91241667Y-82250000D01*
X69900000Y-53980000D02*
X67900000Y-51980000D01*
X83792153Y-81992174D02*
X83499979Y-81700000D01*
X86601633Y-81992174D02*
X83792153Y-81992174D01*
X69900000Y-59600000D02*
X69900000Y-53980000D01*
X86721618Y-81872189D02*
X86601633Y-81992174D01*
%TO.N,/RX-*%
X149910011Y-58560028D02*
X146725011Y-58560028D01*
X145135011Y-59710028D02*
X133442511Y-59710028D01*
X146505011Y-58340028D02*
X145135011Y-59710028D01*
%TO.N,Net-(J7-PadL3)*%
X149605011Y-71540028D02*
X146705011Y-71540028D01*
X158305011Y-62840028D02*
X149605011Y-71540028D01*
%TO.N,Net-(J7-PadL2)*%
X150505011Y-69540028D02*
X157605011Y-62440028D01*
X157605011Y-62440028D02*
X157605011Y-61140028D01*
X146705011Y-69540028D02*
X150505011Y-69540028D01*
%TO.N,/RX+*%
X144505011Y-58340028D02*
X145535022Y-57310017D01*
X151200000Y-58000000D02*
X151200000Y-61120017D01*
X150510017Y-57310017D02*
X151200000Y-58000000D01*
X133497531Y-59265048D02*
X143579991Y-59265048D01*
X151200000Y-61120017D02*
X152450011Y-62370028D01*
X145535022Y-57310017D02*
X150510017Y-57310017D01*
X143579991Y-59265048D02*
X144505011Y-58340028D01*
%TO.N,/TX-*%
X148005011Y-63340028D02*
X145505011Y-63340028D01*
X133442511Y-60710028D02*
X142875011Y-60710028D01*
X149910011Y-63640028D02*
X148305011Y-63640028D01*
X145505011Y-63340028D02*
X142875011Y-60710028D01*
X148305011Y-63640028D02*
X148005011Y-63340028D01*
%TO.N,/TX+*%
X144475011Y-60210028D02*
X146615022Y-62350039D01*
X133442511Y-60210028D02*
X144475011Y-60210028D01*
X150470039Y-62350039D02*
X152450011Y-64330011D01*
X146615022Y-62350039D02*
X150470039Y-62350039D01*
D75*
%TO.N,RMII_RXD-*%
X111250000Y-66825000D02*
X111250000Y-61657136D01*
X129565910Y-59211629D02*
X118176611Y-59211628D01*
X111250000Y-61657136D02*
X114067108Y-58840028D01*
X114067108Y-58840028D02*
X117805011Y-58840028D01*
X129567511Y-59210028D02*
X129565910Y-59211629D01*
%TO.N,RMII_RXD+*%
X110750000Y-61450000D02*
X110750000Y-66825000D01*
X129565910Y-58708427D02*
X120908428Y-58708428D01*
X119954991Y-57890008D02*
X114309992Y-57890008D01*
X114309992Y-57890008D02*
X110750000Y-61450000D01*
X129567511Y-58710028D02*
X129565910Y-58708427D01*
X120908428Y-58708428D02*
X120140028Y-57940028D01*
D73*
%TO.N,LCD_CT_RESET*%
X82000000Y-107300000D02*
X82000000Y-109600000D01*
X131150020Y-115170000D02*
X131150022Y-89984278D01*
X81900000Y-107300000D02*
X82000000Y-107300000D01*
X81450000Y-106000000D02*
X81450000Y-106850000D01*
X124967999Y-118450011D02*
X127870009Y-118450011D01*
X131210036Y-78100000D02*
X120800000Y-78100000D01*
X124367999Y-117850011D02*
X124967999Y-118450011D01*
X120800000Y-78100000D02*
X120450000Y-77750000D01*
X82100000Y-112800000D02*
X87150011Y-117850011D01*
X87150011Y-117850011D02*
X124367999Y-117850011D01*
X127870009Y-118450011D02*
X131150020Y-115170000D01*
X120450000Y-77750000D02*
X117675000Y-77750000D01*
X82000000Y-109600000D02*
X81900000Y-109700000D01*
X134799989Y-81689953D02*
X131210036Y-78100000D01*
X134799989Y-86334311D02*
X134799989Y-81689953D01*
X131150022Y-89984278D02*
X134799989Y-86334311D01*
X81450000Y-106850000D02*
X81900000Y-107300000D01*
%TO.N,LCD_CT_INT*%
X124202310Y-118250022D02*
X124802310Y-118850022D01*
X79950000Y-114350000D02*
X83850021Y-118250021D01*
X131550033Y-90149967D02*
X135200000Y-86500000D01*
X79950000Y-106000000D02*
X79950000Y-114350000D01*
X135200000Y-81300000D02*
X131599989Y-77699989D01*
X124802310Y-118850022D02*
X128035698Y-118850022D01*
X135200000Y-86500000D02*
X135200000Y-81300000D01*
X120999989Y-77699989D02*
X120550000Y-77250000D01*
X131550033Y-115335687D02*
X131550033Y-90149967D01*
X120550000Y-77250000D02*
X117675000Y-77250000D01*
X128035698Y-118850022D02*
X131550033Y-115335687D01*
X83850021Y-118250021D02*
X124202310Y-118250022D01*
X131599989Y-77699989D02*
X120999989Y-77699989D01*
%TO.N,LCD_DITHB*%
X105299989Y-111379989D02*
X105299989Y-112536401D01*
X105500000Y-112736412D02*
X105500000Y-113600000D01*
X126700000Y-97300000D02*
X125049990Y-98950010D01*
X122800000Y-86400000D02*
X123200000Y-86000000D01*
X125049990Y-98950010D02*
X125049990Y-106483909D01*
X117675000Y-86750000D02*
X119568050Y-86750000D01*
X119568050Y-86750000D02*
X119604543Y-86786493D01*
X123200000Y-86000000D02*
X125800000Y-86000000D01*
X105299989Y-112536401D02*
X105500000Y-112736412D01*
D75*
%TO.N,2.9V*%
X107900000Y-117400000D02*
X125400000Y-117400000D01*
X105750000Y-112350000D02*
X106500000Y-113100000D01*
X106500000Y-113800000D02*
X103800000Y-116500000D01*
X106500000Y-116000000D02*
X107900000Y-117400000D01*
X106500000Y-113100000D02*
X106500000Y-116000000D01*
D73*
X125750000Y-104750000D02*
X125750000Y-111330000D01*
X128000000Y-102500000D02*
X125750000Y-104750000D01*
X109500000Y-105250000D02*
X109500000Y-103500000D01*
D75*
X105750000Y-111330000D02*
X105750000Y-112350000D01*
X125750000Y-113950000D02*
X125750000Y-111330000D01*
X103800000Y-116500000D02*
X100400000Y-116500000D01*
D73*
X105750000Y-111330000D02*
X105750000Y-109750000D01*
D75*
X125700000Y-114000000D02*
X125750000Y-113950000D01*
%TO.N,9.6V*%
X155400000Y-42600000D02*
X154300000Y-42600000D01*
D73*
X134462500Y-119500000D02*
X134462500Y-118462500D01*
D74*
X146500000Y-40060000D02*
X146640000Y-40200000D01*
D75*
X129800000Y-120000000D02*
X131800000Y-118000000D01*
X107250000Y-111330000D02*
X107250000Y-108550000D01*
D73*
X134462500Y-118462500D02*
X134000000Y-118000000D01*
D75*
X107250000Y-108550000D02*
X105500000Y-106800000D01*
X129800000Y-120000000D02*
X105900000Y-120000000D01*
X134000000Y-118000000D02*
X131800000Y-118000000D01*
X163146045Y-115500000D02*
X158500000Y-115500000D01*
X136187500Y-109925000D02*
X137775000Y-109925000D01*
X162100040Y-69500027D02*
X163900020Y-71300007D01*
X156000000Y-118000000D02*
X147700000Y-118000000D01*
D74*
X146500000Y-39000000D02*
X146500000Y-40060000D01*
D75*
X137775000Y-109925000D02*
X137800000Y-109900000D01*
X163900020Y-71300007D02*
X163900020Y-114746025D01*
D74*
X150500000Y-38000000D02*
X147500000Y-38000000D01*
D75*
X158500000Y-115500000D02*
X156000000Y-118000000D01*
X152190000Y-38000000D02*
X154150011Y-39960011D01*
X152190000Y-38000000D02*
X154140000Y-39950000D01*
X107250000Y-113250000D02*
X107250000Y-111330000D01*
X150500000Y-38000000D02*
X152190000Y-38000000D01*
X148300000Y-114900000D02*
X147700000Y-115500000D01*
X108600000Y-114600000D02*
X107250000Y-113250000D01*
X162100040Y-61800027D02*
X162100040Y-69500027D01*
D74*
X136187500Y-109925000D02*
X136187500Y-108125000D01*
D75*
X154150011Y-39960011D02*
X154150011Y-42749989D01*
X154100000Y-42800000D02*
X154100000Y-53799987D01*
X147700000Y-118000000D02*
X134000000Y-118000000D01*
X147700000Y-115500000D02*
X147700000Y-118000000D01*
X105500000Y-106800000D02*
X105500000Y-104650000D01*
D74*
X147500000Y-38000000D02*
X146500000Y-39000000D01*
D75*
X154100000Y-53799987D02*
X162100040Y-61800027D01*
X154300000Y-42600000D02*
X154100000Y-42800000D01*
X163900020Y-114746025D02*
X163146045Y-115500000D01*
D73*
%TO.N,LCD_SHLR*%
X109200000Y-111280000D02*
X109200000Y-108500000D01*
X119381378Y-87449978D02*
X119113976Y-87449978D01*
X120031400Y-88100000D02*
X119381378Y-87449978D01*
X119113976Y-87449978D02*
X118913998Y-87250000D01*
X118913998Y-87250000D02*
X117675000Y-87250000D01*
X121200000Y-88100000D02*
X120031400Y-88100000D01*
X109200000Y-108500000D02*
X108900000Y-108200000D01*
%TO.N,LCD_PCLK*%
X110600001Y-109136001D02*
X110600000Y-106000000D01*
X110250000Y-109486002D02*
X110600001Y-109136001D01*
X92325000Y-79750000D02*
X102650000Y-79750000D01*
X102800000Y-79600000D02*
X102650000Y-79750000D01*
X110250000Y-111330000D02*
X110250000Y-109486002D01*
%TO.N,LCD_R0*%
X111879884Y-105679884D02*
X111500000Y-105300000D01*
X111250000Y-111330000D02*
X111250000Y-110330000D01*
X111250000Y-110330000D02*
X111351887Y-110228113D01*
X105750000Y-93450000D02*
X105750000Y-92175000D01*
X105900000Y-93600000D02*
X105750000Y-93450000D01*
X111515884Y-110228113D02*
X111879884Y-109864113D01*
X111879884Y-109864113D02*
X111879884Y-105679884D01*
X111351887Y-110228113D02*
X111515884Y-110228113D01*
%TO.N,LCD_R1*%
X119224999Y-67200001D02*
X120836001Y-67200001D01*
X120836001Y-67200001D02*
X121186012Y-66849990D01*
X117675000Y-68750000D02*
X119224999Y-67200001D01*
X111700000Y-112700000D02*
X111700000Y-111380000D01*
X121186012Y-66849990D02*
X124300000Y-66849990D01*
%TO.N,LCD_R2*%
X97100000Y-95537562D02*
X97100000Y-103600000D01*
X96800000Y-103600000D02*
X95900000Y-104500000D01*
X112279895Y-104679895D02*
X112072168Y-104472168D01*
X97250000Y-92175000D02*
X97250000Y-95387562D01*
X112279895Y-111300105D02*
X112279895Y-104679895D01*
X97100000Y-103600000D02*
X96800000Y-103600000D01*
X97250000Y-95387562D02*
X97100000Y-95537562D01*
%TO.N,LCD_R3*%
X95250000Y-66825000D02*
X95250000Y-65978942D01*
X90132630Y-64599968D02*
X86927873Y-64599973D01*
X112800001Y-103800001D02*
X112500000Y-103500000D01*
X112750000Y-104886002D02*
X112800001Y-104836001D01*
X95250000Y-65978942D02*
X94371037Y-65099979D01*
X86927873Y-64599973D02*
X86702826Y-64825020D01*
X92997077Y-65099977D02*
X92122119Y-64225019D01*
X94371037Y-65099979D02*
X92997077Y-65099977D01*
X90507579Y-64225019D02*
X90132630Y-64599968D01*
X86702826Y-64825020D02*
X86270376Y-64825020D01*
X92122119Y-64225019D02*
X90507579Y-64225019D01*
X112800001Y-104836001D02*
X112800001Y-103800001D01*
X86270376Y-64825020D02*
X84200010Y-66895386D01*
X112750000Y-111330000D02*
X112750000Y-104886002D01*
%TO.N,LCD_R4*%
X113250000Y-111330000D02*
X113250000Y-102350000D01*
X91956431Y-64625031D02*
X90673267Y-64625031D01*
X113250000Y-102350000D02*
X113100000Y-102200000D01*
X94205348Y-65499990D02*
X92831387Y-65499987D01*
X113100000Y-102200000D02*
X112700000Y-102200000D01*
X90673267Y-64625031D02*
X90298316Y-64999982D01*
X94750000Y-66825000D02*
X94750000Y-66044642D01*
X87100016Y-64999984D02*
X85200000Y-66900000D01*
X94750000Y-66044642D02*
X94205348Y-65499990D01*
X90298316Y-64999982D02*
X87100016Y-64999984D01*
X92831387Y-65499987D02*
X91956431Y-64625031D01*
X112700000Y-102200000D02*
X112400000Y-102500000D01*
%TO.N,LCD_R5*%
X87700006Y-65399994D02*
X86200000Y-66900000D01*
X111600000Y-102200000D02*
X112100000Y-101700000D01*
X93590700Y-66825000D02*
X91790742Y-65025042D01*
X111400000Y-102200000D02*
X111600000Y-102200000D01*
X91790742Y-65025042D02*
X90874950Y-65025042D01*
X112100000Y-101700000D02*
X113500000Y-101700000D01*
X113750000Y-101950000D02*
X113750000Y-111330000D01*
X113500000Y-101700000D02*
X113750000Y-101950000D01*
X90874950Y-65025042D02*
X90499999Y-65399993D01*
X90499999Y-65399993D02*
X87700006Y-65399994D01*
X94250000Y-66825000D02*
X93590700Y-66825000D01*
%TO.N,LCD_R6*%
X92325000Y-83750000D02*
X90715700Y-83750000D01*
X114250000Y-111330000D02*
X114250000Y-101884300D01*
X87245126Y-82900011D02*
X87085267Y-83059870D01*
X89865711Y-82900011D02*
X87245126Y-82900011D01*
X90715700Y-83750000D02*
X89865711Y-82900011D01*
X113665689Y-101299989D02*
X110800011Y-101299989D01*
X114250000Y-101884300D02*
X113665689Y-101299989D01*
X110800011Y-101299989D02*
X110500000Y-101600000D01*
%TO.N,LCD_R7*%
X114750000Y-111330000D02*
X114750000Y-101784300D01*
X90850000Y-79250000D02*
X90800000Y-79300000D01*
X114750000Y-101784300D02*
X113865680Y-100899980D01*
X109900020Y-100899980D02*
X109500000Y-101300000D01*
X92325000Y-79250000D02*
X90850000Y-79250000D01*
X113865680Y-100899980D02*
X109900020Y-100899980D01*
%TO.N,LCD_G0*%
X115300021Y-109931379D02*
X115300020Y-107568620D01*
X115250000Y-109981400D02*
X115300021Y-109931379D01*
X120700000Y-94700000D02*
X121100000Y-94300000D01*
X115250000Y-111330000D02*
X115250000Y-109981400D01*
X115200000Y-107468600D02*
X115200000Y-101200000D01*
X118750000Y-88750000D02*
X117675000Y-88750000D01*
X115300020Y-107568620D02*
X115200000Y-107468600D01*
X120700000Y-95400000D02*
X120700000Y-94700000D01*
X121100000Y-94300000D02*
X121100000Y-91100000D01*
X121100000Y-91100000D02*
X118750000Y-88750000D01*
%TO.N,LCD_G1*%
X115750000Y-111330000D02*
X115750000Y-102050000D01*
X117675000Y-88250000D02*
X119050000Y-88250000D01*
X121522170Y-90722170D02*
X121522170Y-96079539D01*
X119050000Y-88250000D02*
X121522170Y-90722170D01*
X115750000Y-102050000D02*
X116000000Y-101800000D01*
%TO.N,LCD_G2*%
X115865670Y-100499970D02*
X108900030Y-100499970D01*
X116700001Y-101334301D02*
X115865670Y-100499970D01*
X116250000Y-102586002D02*
X116700001Y-102136001D01*
X116250000Y-111330000D02*
X116250000Y-102586002D01*
X92325000Y-88250000D02*
X90713894Y-88250000D01*
X108900030Y-100499970D02*
X108500000Y-100900000D01*
X116700001Y-102136001D02*
X116700001Y-101334301D01*
X90713894Y-88250000D02*
X90063894Y-88900000D01*
%TO.N,LCD_G3*%
X116750000Y-111330000D02*
X116750000Y-102651702D01*
X117100012Y-102301690D02*
X117100012Y-101034312D01*
X116750000Y-102651702D02*
X117100012Y-102301690D01*
X92325000Y-88750000D02*
X91326550Y-88750000D01*
X117100012Y-101034312D02*
X116165660Y-100099960D01*
X107900040Y-100099960D02*
X107500000Y-100500000D01*
X116165660Y-100099960D02*
X107900040Y-100099960D01*
X91326550Y-88750000D02*
X90174953Y-89901597D01*
%TO.N,LCD_G4*%
X91478942Y-89250000D02*
X90874969Y-89853973D01*
X106800055Y-99699945D02*
X106500000Y-100000000D01*
X90874969Y-91074969D02*
X91000000Y-91200000D01*
X117500023Y-100500023D02*
X116699945Y-99699945D01*
X92325000Y-89250000D02*
X91478942Y-89250000D01*
X116699945Y-99699945D02*
X106800055Y-99699945D01*
X90874969Y-89853973D02*
X90874969Y-91074969D01*
X117250000Y-111330000D02*
X117250000Y-102717402D01*
X117500023Y-102467378D02*
X117500023Y-100500023D01*
X117250000Y-102717402D02*
X117500023Y-102467378D01*
%TO.N,LCD_G5*%
X91274980Y-90480338D02*
X91833960Y-91039318D01*
X105700066Y-99299934D02*
X105500000Y-99500000D01*
X91833960Y-91039318D02*
X92660682Y-91039318D01*
X91274980Y-90019662D02*
X91274980Y-90480338D01*
X117750000Y-102783102D02*
X117900034Y-102633067D01*
X92325000Y-89750000D02*
X91544642Y-89750000D01*
X91544642Y-89750000D02*
X91274980Y-90019662D01*
X117900034Y-102633067D02*
X117900033Y-100334333D01*
X117900033Y-100334333D02*
X116865634Y-99299934D01*
X117750000Y-111330000D02*
X117750000Y-102783102D01*
X116865634Y-99299934D02*
X105700066Y-99299934D01*
%TO.N,LCD_G6*%
X106135930Y-98899928D02*
X106036001Y-98799999D01*
X118250000Y-102848801D02*
X118300045Y-102798755D01*
X106036001Y-98799999D02*
X105200000Y-98799999D01*
X93350000Y-90250000D02*
X92325000Y-90250000D01*
X117031328Y-98899928D02*
X106135930Y-98899928D01*
X104799999Y-99200000D02*
X104500000Y-99200000D01*
X118300045Y-100168645D02*
X117031328Y-98899928D01*
X118300045Y-102798755D02*
X118300045Y-100168645D01*
X93500000Y-90400000D02*
X93350000Y-90250000D01*
X118250000Y-111330000D02*
X118250000Y-102848801D01*
X105200000Y-98799999D02*
X104799999Y-99200000D01*
%TO.N,LCD_G7*%
X104998310Y-98399988D02*
X106201691Y-98399989D01*
X93500000Y-92925000D02*
X93500000Y-95522813D01*
X117199917Y-98499917D02*
X118750000Y-100050000D01*
X106201691Y-98399989D02*
X106301619Y-98499917D01*
X106301619Y-98499917D02*
X117199917Y-98499917D01*
X104000011Y-98499989D02*
X104898309Y-98499989D01*
X94699950Y-96722763D02*
X94699950Y-96900000D01*
X103500000Y-99000000D02*
X104000011Y-98499989D01*
X118750000Y-100050000D02*
X118750000Y-111330000D01*
X93500000Y-95522813D02*
X94699950Y-96722763D01*
X104898309Y-98499989D02*
X104998310Y-98399988D01*
X94250000Y-92175000D02*
X93500000Y-92925000D01*
%TO.N,LCD_B0*%
X120699989Y-93800011D02*
X119900000Y-94600000D01*
X119250000Y-111330000D02*
X119250000Y-99560036D01*
X120699989Y-91265689D02*
X120699989Y-93800011D01*
X119250000Y-99560036D02*
X118310973Y-98621009D01*
X118684300Y-89250000D02*
X120699989Y-91265689D01*
X117675000Y-89250000D02*
X118684300Y-89250000D01*
%TO.N,LCD_B1*%
X106467308Y-98099906D02*
X106209665Y-97842263D01*
X119699936Y-98973970D02*
X118646975Y-97921009D01*
X114048789Y-97921008D02*
X113869891Y-98099906D01*
X119750000Y-99480210D02*
X119699939Y-99430149D01*
X119699939Y-99430149D02*
X119699936Y-98973970D01*
X119750000Y-111330000D02*
X119750000Y-99480210D01*
X113869891Y-98099906D02*
X106467308Y-98099906D01*
X105250000Y-93213998D02*
X105250000Y-92175000D01*
X105199999Y-93263999D02*
X105250000Y-93213998D01*
X106209665Y-97842263D02*
X103760423Y-97842263D01*
X105600000Y-94600000D02*
X105199999Y-94199999D01*
X118646975Y-97921009D02*
X114048789Y-97921008D01*
X105199999Y-94199999D02*
X105199999Y-93263999D01*
%TO.N,LCD_B2*%
X113711369Y-97692728D02*
X113883100Y-97520997D01*
X113883100Y-97520997D02*
X118812664Y-97520998D01*
X120250000Y-99414508D02*
X120250000Y-111330000D01*
X120099949Y-99264457D02*
X120250000Y-99414508D01*
X118812664Y-97520998D02*
X120099946Y-98808280D01*
X104250000Y-92175000D02*
X104250000Y-95316898D01*
X120099946Y-98808280D02*
X120099949Y-99264457D01*
X106625830Y-97692728D02*
X113711369Y-97692728D01*
X104250000Y-95316898D02*
X106625830Y-97692728D01*
%TO.N,LCD_B3*%
X120499959Y-99098765D02*
X120499956Y-98642590D01*
X113717410Y-97120987D02*
X113545680Y-97292717D01*
X120750000Y-111330000D02*
X120750000Y-99348806D01*
X113545680Y-97292717D02*
X106791519Y-97292717D01*
X118978353Y-97120987D02*
X113717410Y-97120987D01*
X106791519Y-97292717D02*
X104750000Y-95251198D01*
X120750000Y-99348806D02*
X120499959Y-99098765D01*
X104750000Y-95251198D02*
X104750000Y-92175000D01*
X120499956Y-98642590D02*
X118978353Y-97120987D01*
%TO.N,LCD_B4*%
X114934311Y-93900011D02*
X115534311Y-93900011D01*
X114250000Y-92175000D02*
X114250000Y-93215700D01*
X118284334Y-96650034D02*
X119150014Y-96650034D01*
X120899966Y-98399986D02*
X120899969Y-98933074D01*
X121250000Y-99283105D02*
X121250000Y-111330000D01*
X114250000Y-93215700D02*
X114934311Y-93900011D01*
X120899969Y-98933074D02*
X121250000Y-99283105D01*
X115534311Y-93900011D02*
X118284334Y-96650034D01*
X119150014Y-96650034D02*
X120899966Y-98399986D01*
%TO.N,LCD_B5*%
X118450023Y-96250023D02*
X115700000Y-93500000D01*
X121299978Y-98767381D02*
X121299977Y-98217379D01*
X119332621Y-96250023D02*
X118450023Y-96250023D01*
X114750000Y-93150000D02*
X114750000Y-92175000D01*
X121750000Y-111330000D02*
X121750000Y-99217403D01*
X121750000Y-99217403D02*
X121299978Y-98767381D01*
X121299977Y-98217379D02*
X119332621Y-96250023D01*
X115700000Y-93500000D02*
X115100000Y-93500000D01*
X115100000Y-93500000D02*
X114750000Y-93150000D01*
%TO.N,LCD_B6*%
X118248298Y-94600000D02*
X121699988Y-98051690D01*
X111250000Y-92175000D02*
X111250000Y-94350000D01*
X111250000Y-94350000D02*
X111500000Y-94600000D01*
X122250000Y-99151702D02*
X122250000Y-111330000D01*
X117800000Y-94600000D02*
X118248298Y-94600000D01*
X121699988Y-98051690D02*
X121699989Y-98601691D01*
X121699989Y-98601691D02*
X122250000Y-99151702D01*
%TO.N,LCD_B7*%
X118013998Y-93800000D02*
X117000000Y-93800000D01*
X112100000Y-93800000D02*
X111750000Y-93450000D01*
X122099999Y-98436001D02*
X122099999Y-97886001D01*
X122750000Y-111330000D02*
X122750000Y-99086002D01*
X111750000Y-93450000D02*
X111750000Y-92175000D01*
X122750000Y-99086002D02*
X122099999Y-98436001D01*
X122099999Y-97886001D02*
X118013998Y-93800000D01*
%TO.N,LCD_HSYNC*%
X115350000Y-84750000D02*
X115200000Y-84900000D01*
X117675000Y-84750000D02*
X115350000Y-84750000D01*
X123250000Y-111330000D02*
X123250000Y-98550000D01*
X123250000Y-98550000D02*
X122800000Y-98100000D01*
%TO.N,LCD_VSYNC*%
X123750000Y-97663054D02*
X123273892Y-97186946D01*
X116000000Y-85500000D02*
X116250000Y-85250000D01*
X116250000Y-85250000D02*
X117675000Y-85250000D01*
X123750000Y-111330000D02*
X123750000Y-97663054D01*
%TO.N,LDC_MODE*%
X102200000Y-98521746D02*
X103087542Y-97634204D01*
X103750000Y-96816684D02*
X103750000Y-92175000D01*
X103087542Y-97479142D02*
X103750000Y-96816684D01*
X104000000Y-108800000D02*
X104000000Y-105900000D01*
X104000000Y-105900000D02*
X102200000Y-104100000D01*
X124250000Y-111330000D02*
X124250000Y-113050000D01*
X124250000Y-113050000D02*
X124200000Y-113100000D01*
X102200000Y-104100000D02*
X102200000Y-98521746D01*
X103087542Y-97634204D02*
X103087542Y-97479142D01*
%TO.N,LCD_DEN*%
X124750000Y-111330000D02*
X124750000Y-107219921D01*
X124750000Y-107219921D02*
X124349989Y-106819910D01*
X121299978Y-77299978D02*
X125000011Y-77299978D01*
X124349989Y-98550011D02*
X125700000Y-97200000D01*
X125000011Y-77299978D02*
X125300010Y-76999979D01*
X117675000Y-76750000D02*
X120750000Y-76750000D01*
X120750000Y-76750000D02*
X121299978Y-77299978D01*
X124349989Y-106819910D02*
X124349989Y-98550011D01*
D74*
%TO.N,VLCD*%
X90000000Y-33550000D02*
X91500000Y-33550000D01*
D75*
X148376021Y-46876021D02*
X149744032Y-46876021D01*
D76*
X144260000Y-38000000D02*
X144360000Y-38100000D01*
D74*
X91750000Y-32750000D02*
X91750000Y-33800000D01*
X92900000Y-41500000D02*
X89400000Y-38000000D01*
X91750000Y-35650000D02*
X89400000Y-38000000D01*
D76*
X114250000Y-43250000D02*
X114250000Y-45000000D01*
D74*
X91500000Y-33550000D02*
X91750000Y-33800000D01*
D75*
X144360000Y-42860000D02*
X148376021Y-46876021D01*
D74*
X91750000Y-33800000D02*
X91750000Y-35650000D01*
D73*
X144360000Y-42860000D02*
X144360000Y-40200000D01*
D74*
X100000000Y-41500000D02*
X100500000Y-42000000D01*
D76*
X114250000Y-40450000D02*
X114250000Y-43250000D01*
D74*
X90000000Y-32600000D02*
X91600000Y-32600000D01*
X92900000Y-41500000D02*
X100000000Y-41500000D01*
D76*
X138700000Y-38000000D02*
X144260000Y-38000000D01*
D74*
X88675000Y-38725000D02*
X89400000Y-38000000D01*
X88675000Y-41750000D02*
X88675000Y-38725000D01*
D75*
X149744032Y-46876021D02*
X150025053Y-46595000D01*
D74*
X114000000Y-43500000D02*
X114250000Y-43250000D01*
X91600000Y-32600000D02*
X91750000Y-32750000D01*
X112500000Y-43500000D02*
X114000000Y-43500000D01*
D76*
X136250000Y-40450000D02*
X138700000Y-38000000D01*
D75*
X150025053Y-46595000D02*
X151175000Y-46595000D01*
D76*
X114250000Y-40450000D02*
X136250000Y-40450000D01*
X144360000Y-38100000D02*
X144360000Y-40200000D01*
D73*
%TO.N,Net-(R7-Pad1)*%
X121650000Y-71750000D02*
X123500000Y-73600000D01*
X117675000Y-71750000D02*
X121650000Y-71750000D01*
%TO.N,Net-(R8-Pad1)*%
X104000010Y-84999990D02*
X105200000Y-83800000D01*
X93434310Y-84999990D02*
X104000010Y-84999990D01*
X120775654Y-85567597D02*
X120200968Y-84992911D01*
X92325000Y-85250000D02*
X93184300Y-85250000D01*
X124507873Y-85000000D02*
X123940276Y-85567597D01*
X123940276Y-85567597D02*
X120775654Y-85567597D01*
X93184300Y-85250000D02*
X93434310Y-84999990D01*
X130600000Y-85000000D02*
X124507873Y-85000000D01*
%TO.N,Net-(R9-Pad1)*%
X92325000Y-85750000D02*
X93250000Y-85750000D01*
X105000000Y-85400000D02*
X105400000Y-85000000D01*
X93250000Y-85750000D02*
X93600000Y-85400000D01*
X93600000Y-85400000D02*
X105000000Y-85400000D01*
X125467586Y-83000000D02*
X123599990Y-84867596D01*
X130600000Y-83000000D02*
X125467586Y-83000000D01*
%TO.N,Net-(R10-Pad2)*%
X129005010Y-55105010D02*
X129005010Y-50840027D01*
X130755011Y-56855011D02*
X130755011Y-58022528D01*
X129005010Y-50840027D02*
X127005011Y-48840028D01*
X129005010Y-55105010D02*
X130755011Y-56855011D01*
%TO.N,25Mhz*%
X117675000Y-76250000D02*
X119813983Y-76250000D01*
X125005011Y-48840028D02*
X123359972Y-48840028D01*
X119913972Y-76349989D02*
X121449989Y-76349989D01*
X115225000Y-56975000D02*
X116125000Y-56075000D01*
X113575000Y-56975000D02*
X115225000Y-56975000D01*
X116125000Y-56075000D02*
X123359972Y-48840028D01*
X119813983Y-76250000D02*
X119913972Y-76349989D01*
X121449989Y-76349989D02*
X121600000Y-76500000D01*
%TO.N,Net-(R11-Pad1)*%
X133442511Y-58710028D02*
X140135011Y-58710028D01*
D75*
%TO.N,RMII_TXD+*%
X122849999Y-70351601D02*
X122600000Y-70601600D01*
X132756612Y-69299206D02*
X131704218Y-70351600D01*
X132755011Y-61897528D02*
X132756612Y-61899129D01*
X131704218Y-70351600D02*
X122849999Y-70351601D01*
X92325000Y-70750000D02*
X94657330Y-70750000D01*
X94657330Y-70750000D02*
X94907340Y-70499990D01*
X132756612Y-61899129D02*
X132756612Y-69299206D01*
%TO.N,RMII_TXD-*%
X92325000Y-70250000D02*
X94047328Y-70250000D01*
X94797328Y-69500000D02*
X95000000Y-69500000D01*
X122851611Y-69850011D02*
X122600000Y-69598400D01*
X94047328Y-70250000D02*
X94797328Y-69500000D01*
X132255011Y-61897528D02*
X132255011Y-69081400D01*
X131486400Y-69850011D02*
X122851611Y-69850011D01*
X132255011Y-69081400D02*
X131486400Y-69850011D01*
%TO.N,RMII_CRS_DV*%
X128697108Y-60710028D02*
X127917088Y-61490048D01*
X123205011Y-60940028D02*
X122540028Y-60940028D01*
X127917088Y-61490048D02*
X123755031Y-61490048D01*
X113814272Y-59800000D02*
X111750000Y-61864272D01*
X111750000Y-61864272D02*
X111750000Y-66825000D01*
X121400000Y-59800000D02*
X113814272Y-59800000D01*
X123205011Y-60940028D02*
X123755031Y-61490048D01*
X129567511Y-60710028D02*
X128697108Y-60710028D01*
X122540028Y-60940028D02*
X121400000Y-59800000D01*
D73*
%TO.N,RMII_REF_CLK*%
X130755011Y-66744989D02*
X129800000Y-67700000D01*
D75*
X120750000Y-70250000D02*
X117675000Y-70250000D01*
X126100000Y-68100000D02*
X122900000Y-68100000D01*
D73*
X130755011Y-61897528D02*
X130755011Y-66744989D01*
D75*
X128700000Y-68800000D02*
X126800000Y-68800000D01*
X129400000Y-68100000D02*
X128700000Y-68800000D01*
X122900000Y-68100000D02*
X120750000Y-70250000D01*
X126800000Y-68800000D02*
X126100000Y-68100000D01*
%TO.N,RMII_MDIO*%
X128989972Y-61210028D02*
X128400000Y-61800000D01*
X129567511Y-61210028D02*
X128989972Y-61210028D01*
X120542865Y-69750000D02*
X122692865Y-67600000D01*
X122692865Y-67600000D02*
X125800000Y-67600000D01*
X117675000Y-69750000D02*
X120542865Y-69750000D01*
X125800000Y-67600000D02*
X128400000Y-65000000D01*
X128400000Y-61800000D02*
X128400000Y-65000000D01*
D73*
%TO.N,RMII_RXER*%
X112600000Y-62300000D02*
X114100001Y-60799999D01*
X112600000Y-65000000D02*
X112600000Y-62300000D01*
X113250000Y-66825000D02*
X113250000Y-65650000D01*
X114100001Y-60799999D02*
X120899999Y-60799999D01*
X113250000Y-65650000D02*
X112600000Y-65000000D01*
D75*
X129567511Y-60210028D02*
X128489972Y-60210028D01*
X127900000Y-60800000D02*
X125514983Y-60800000D01*
X128489972Y-60210028D02*
X127900000Y-60800000D01*
D73*
X126400000Y-60100000D02*
X125695039Y-60100000D01*
X120899999Y-60799999D02*
X121100000Y-61000000D01*
%TO.N,Net-(R27-Pad1)*%
X76700000Y-96400000D02*
X76700000Y-95100000D01*
X80200000Y-93700000D02*
X78100000Y-93700000D01*
X80200000Y-93700000D02*
X82500000Y-96000000D01*
X76700000Y-95100000D02*
X78100000Y-93700000D01*
%TO.N,Net-(R43-Pad2)*%
X147780000Y-40200000D02*
X150200000Y-40200000D01*
X155500000Y-44500000D02*
X155400000Y-44600000D01*
X156500000Y-44500000D02*
X155500000Y-44500000D01*
X150200000Y-40200000D02*
X153000000Y-43000000D01*
D75*
X155400000Y-44600000D02*
X155400000Y-46500000D01*
D73*
%TO.N,RMII_TXEN*%
X124300000Y-69300000D02*
X131400000Y-69300000D01*
X98250000Y-66825000D02*
X98250000Y-68886050D01*
X131755011Y-61897528D02*
X131755011Y-63944989D01*
X131800000Y-63989978D02*
X131800000Y-68900000D01*
X124100000Y-69100000D02*
X123700000Y-69100000D01*
X123700000Y-69100000D02*
X123500000Y-68900000D01*
X98250000Y-68886050D02*
X98049990Y-69086060D01*
X124300000Y-69300000D02*
X124100000Y-69100000D01*
X131800000Y-68900000D02*
X131400000Y-69300000D01*
X131755011Y-63944989D02*
X131800000Y-63989978D01*
%TO.N,RMII_MDC*%
X120999979Y-74699979D02*
X125300010Y-74699979D01*
X117675000Y-74250000D02*
X120550000Y-74250000D01*
X130255011Y-65744989D02*
X129900000Y-66100000D01*
X130255011Y-61897528D02*
X130255011Y-65744989D01*
X120550000Y-74250000D02*
X120999979Y-74699979D01*
%TO.N,Net-(R28-Pad2)*%
X109000000Y-54500000D02*
X111700000Y-54500000D01*
%TO.N,Net-(J7-PadL1)*%
X136307091Y-53237948D02*
X137909171Y-54840028D01*
X136205011Y-53340028D02*
X132255011Y-57290028D01*
X132255011Y-57290028D02*
X132255011Y-58022528D01*
X138505011Y-54840028D02*
X137909171Y-54840028D01*
X156406828Y-60042830D02*
X157302210Y-60042830D01*
X152205011Y-54940028D02*
X153799999Y-56535016D01*
X153799999Y-57436001D02*
X156406828Y-60042830D01*
X153799999Y-56535016D02*
X153799999Y-57436001D01*
%TO.N,Net-(J7-PadL4)*%
X138248972Y-51737938D02*
X140237287Y-53726253D01*
X135041401Y-51737938D02*
X138248972Y-51737938D01*
X135041401Y-51703638D02*
X136205011Y-50540028D01*
X131755011Y-55024328D02*
X135041401Y-51737938D01*
X159400000Y-62700000D02*
X159400000Y-61150656D01*
X131755011Y-58022528D02*
X131755011Y-55024328D01*
X159400000Y-61150656D02*
X155349344Y-57100000D01*
X140237287Y-53726253D02*
X140237287Y-54289436D01*
X155349344Y-57100000D02*
X154500000Y-57100000D01*
%TO.N,LCD_UPDN*%
X117675000Y-89750000D02*
X118455358Y-89750000D01*
X108750000Y-109450000D02*
X108000000Y-108700000D01*
X118455358Y-89750000D02*
X119999979Y-91294621D01*
X119999979Y-91294621D02*
X119999979Y-92752878D01*
X108750000Y-111330000D02*
X108750000Y-109450000D01*
%TO.N,SDRAM_A0*%
X110450000Y-82750000D02*
X107600000Y-79900000D01*
X91200000Y-57600000D02*
X91200000Y-59550000D01*
X117675000Y-82750000D02*
X110450000Y-82750000D01*
%TO.N,SDRAM_A1*%
X92000000Y-57000000D02*
X92000000Y-59550000D01*
X111050000Y-82250000D02*
X108600000Y-79800000D01*
X117675000Y-82250000D02*
X111050000Y-82250000D01*
%TO.N,SDRAM_A2*%
X111550000Y-81750000D02*
X109600000Y-79800000D01*
X92800000Y-57100063D02*
X93000000Y-56900063D01*
X117675000Y-81750000D02*
X111550000Y-81750000D01*
X92800000Y-59550000D02*
X92800000Y-57100063D01*
%TO.N,SDRAM_A3*%
X93600000Y-57399920D02*
X93997831Y-57002089D01*
X93600000Y-59550000D02*
X93600000Y-57399920D01*
X117675000Y-81250000D02*
X112150000Y-81250000D01*
X112150000Y-81250000D02*
X110600000Y-79700000D01*
%TO.N,SDRAM_A4*%
X93600000Y-49087793D02*
X93757628Y-49245421D01*
X112750000Y-80750000D02*
X111600000Y-79600000D01*
X93600000Y-48050000D02*
X93600000Y-49087793D01*
X117675000Y-80750000D02*
X112750000Y-80750000D01*
%TO.N,SDRAM_A5*%
X113150000Y-80250000D02*
X112400000Y-79500000D01*
X93200011Y-49700011D02*
X93570457Y-50070457D01*
X112500000Y-79500000D02*
X112600000Y-79600000D01*
X93200011Y-49668597D02*
X93200011Y-49700011D01*
X112400000Y-79500000D02*
X112500000Y-79500000D01*
X92800000Y-49268586D02*
X93200011Y-49668597D01*
X93570457Y-50070457D02*
X94382411Y-50070457D01*
X92800000Y-48050000D02*
X92800000Y-49268586D01*
X117675000Y-80250000D02*
X113150000Y-80250000D01*
%TO.N,SDRAM_SDNWE*%
X90000000Y-55600000D02*
X90000000Y-55800000D01*
X90200000Y-55400000D02*
X90000000Y-55600000D01*
X108000000Y-69479405D02*
X108000000Y-68199913D01*
X85600000Y-57600000D02*
X87800000Y-55400000D01*
X117675000Y-74750000D02*
X113270595Y-74750000D01*
X87800000Y-55400000D02*
X90200000Y-55400000D01*
X113270595Y-74750000D02*
X108000000Y-69479405D01*
X85600000Y-59550000D02*
X85600000Y-57600000D01*
%TO.N,SDRAM_SDNE0*%
X113686003Y-73750000D02*
X113485993Y-73950010D01*
X88000000Y-58100000D02*
X88644982Y-57455018D01*
X88000000Y-59550000D02*
X88000000Y-58100000D01*
X117675000Y-73750000D02*
X113686003Y-73750000D01*
%TO.N,SDRAM_SDCKE0*%
X87200000Y-49005000D02*
X87695000Y-49500000D01*
X87200000Y-48050000D02*
X87200000Y-49005000D01*
X112650000Y-73250000D02*
X109000000Y-69600000D01*
X109000000Y-69600000D02*
X109000000Y-68175010D01*
X117675000Y-73250000D02*
X112650000Y-73250000D01*
X87695000Y-49500000D02*
X88100000Y-49500000D01*
%TO.N,SDRAM_SDNRAS*%
X108750000Y-66825000D02*
X108750000Y-65250000D01*
X106999589Y-58763587D02*
X105373623Y-58763587D01*
X87200000Y-57500000D02*
X88100000Y-56600000D01*
X109099989Y-64663999D02*
X110087520Y-63676468D01*
X87200000Y-59550000D02*
X87200000Y-57500000D01*
X108750000Y-65250000D02*
X109099989Y-64900011D01*
X110087520Y-63676468D02*
X110087520Y-61851518D01*
X88100000Y-56600000D02*
X90900000Y-56600000D01*
X110087520Y-61851518D02*
X106999589Y-58763587D01*
X109099989Y-64900011D02*
X109099989Y-64663999D01*
%TO.N,SDRAM_A6*%
X108486544Y-64947756D02*
X108486544Y-64000000D01*
X108250000Y-65815700D02*
X108099990Y-65665690D01*
X94718417Y-50770468D02*
X94788885Y-50700000D01*
X108250000Y-66825000D02*
X108250000Y-65815700D01*
X92000000Y-48050000D02*
X92000000Y-49034286D01*
X92799991Y-49834277D02*
X92799991Y-49865705D01*
X94788885Y-50700000D02*
X95700000Y-50700000D01*
X92799991Y-49865705D02*
X93704754Y-50770468D01*
X92000000Y-49034286D02*
X92799991Y-49834277D01*
X108099990Y-65334310D02*
X108486544Y-64947756D01*
X95700000Y-50700000D02*
X96800000Y-49600000D01*
X93704754Y-50770468D02*
X94718417Y-50770468D01*
X108099990Y-65665690D02*
X108099990Y-65334310D01*
%TO.N,SDRAM_A7*%
X91200000Y-48050000D02*
X91200000Y-48839269D01*
X106550040Y-64195797D02*
X106650042Y-64095795D01*
X106550040Y-65778969D02*
X106550040Y-64195797D01*
X91200000Y-48839269D02*
X93560731Y-51200000D01*
X93560731Y-51200000D02*
X96300000Y-51200000D01*
X106750000Y-66825000D02*
X106750000Y-65978929D01*
X96300000Y-51200000D02*
X96900000Y-50600000D01*
X106750000Y-65978929D02*
X106550040Y-65778969D01*
%TO.N,SDRAM_A8*%
X105950041Y-64431796D02*
X105950041Y-62217380D01*
X105950041Y-62217380D02*
X106799999Y-61367422D01*
X106150020Y-64631775D02*
X105950041Y-64431796D01*
X90400000Y-49100412D02*
X91499598Y-50200010D01*
X106799999Y-60800001D02*
X107400000Y-60200000D01*
X106150020Y-65944662D02*
X106150020Y-64631775D01*
X90400000Y-48050000D02*
X90400000Y-49100412D01*
X106250000Y-66825000D02*
X106250000Y-66044642D01*
X106250000Y-66044642D02*
X106150020Y-65944662D01*
X106799999Y-61367422D02*
X106799999Y-60800001D01*
%TO.N,SDRAM_A9*%
X105758439Y-59512403D02*
X104986437Y-59512403D01*
X97988486Y-51852343D02*
X92875045Y-51852343D01*
X91922713Y-50900011D02*
X91188738Y-50900011D01*
X106399988Y-60153952D02*
X105758439Y-59512403D01*
X104662562Y-59188528D02*
X104662562Y-58526419D01*
X105550030Y-62051691D02*
X106399988Y-61201733D01*
X92875045Y-51852343D02*
X91922713Y-50900011D01*
X105550030Y-64597485D02*
X105550030Y-62051691D01*
X105750000Y-64797455D02*
X105550030Y-64597485D01*
X106399988Y-61201733D02*
X106399988Y-60153952D01*
X104986437Y-59512403D02*
X104662562Y-59188528D01*
X91188738Y-50900011D02*
X89600000Y-49311273D01*
X105750000Y-66825000D02*
X105750000Y-64797455D01*
X89600000Y-49311273D02*
X89600000Y-48050000D01*
X104662562Y-58526419D02*
X97988486Y-51852343D01*
%TO.N,SDRAM_A10*%
X105250000Y-66825000D02*
X105250000Y-64863155D01*
X105250000Y-64863155D02*
X105150019Y-64763173D01*
X90400000Y-59550000D02*
X90400000Y-57569754D01*
X105150019Y-61449981D02*
X105655018Y-60944982D01*
X90400000Y-57569754D02*
X90130256Y-57300010D01*
X105150019Y-64763173D02*
X105150019Y-61449981D01*
%TO.N,SDRAM_A11*%
X91757023Y-51300021D02*
X90997907Y-51300021D01*
X92725206Y-52268204D02*
X91757023Y-51300021D01*
X104750000Y-66825000D02*
X104750000Y-59841666D01*
X104262551Y-58692108D02*
X97838647Y-52268204D01*
X88800000Y-49102114D02*
X88800000Y-48050000D01*
X97838647Y-52268204D02*
X92725206Y-52268204D01*
X90997907Y-51300021D02*
X88800000Y-49102114D01*
X104262551Y-59354217D02*
X104262551Y-58692108D01*
X104750000Y-59841666D02*
X104262551Y-59354217D01*
%TO.N,SDRAM_D4*%
X80699969Y-56166925D02*
X80100001Y-56766893D01*
X79200000Y-57836002D02*
X79200000Y-59550000D01*
X92591204Y-52699903D02*
X91691206Y-51799904D01*
X104250000Y-66825000D02*
X104250000Y-59907366D01*
X80100001Y-56936001D02*
X79200000Y-57836002D01*
X103822415Y-58862507D02*
X97659811Y-52699903D01*
X104250000Y-59907366D02*
X103862541Y-59519907D01*
X80699969Y-56111265D02*
X80699969Y-56166925D01*
X103822415Y-59325669D02*
X103822415Y-58862507D01*
X86308793Y-51799904D02*
X85208783Y-52899914D01*
X83911320Y-52899914D02*
X80699969Y-56111265D01*
X97659811Y-52699903D02*
X92591204Y-52699903D01*
X80100001Y-56766893D02*
X80100001Y-56936001D01*
X103862541Y-59365795D02*
X103822415Y-59325669D01*
X85208783Y-52899914D02*
X83911320Y-52899914D01*
X91691206Y-51799904D02*
X86308793Y-51799904D01*
X103862541Y-59519907D02*
X103862541Y-59365795D01*
%TO.N,SDRAM_D5*%
X85374474Y-53299924D02*
X86474484Y-52199916D01*
X91525517Y-52199915D02*
X92425515Y-53099914D01*
X103462531Y-59685597D02*
X103750000Y-59973066D01*
X81099979Y-56276955D02*
X84077009Y-53299925D01*
X103422403Y-59028203D02*
X103422405Y-59491359D01*
X103422405Y-59491359D02*
X103462531Y-59531485D01*
X97494117Y-53099917D02*
X103422403Y-59028203D01*
X84077009Y-53299925D02*
X85374474Y-53299924D01*
X80800000Y-56632598D02*
X81099978Y-56332620D01*
X92425515Y-53099914D02*
X97494117Y-53099917D01*
X80800000Y-59550000D02*
X80800000Y-56632598D01*
X81099978Y-56332620D02*
X81099979Y-56276955D01*
X86474484Y-52199916D02*
X91525517Y-52199915D01*
X103462531Y-59531485D02*
X103462531Y-59685597D01*
X103750000Y-59973066D02*
X103750000Y-66825000D01*
%TO.N,SDRAM_D6*%
X103062520Y-59851286D02*
X103250000Y-60038766D01*
X85540163Y-53699935D02*
X86640173Y-52599927D01*
X91359826Y-52599925D02*
X92259825Y-53499925D01*
X103062520Y-59697174D02*
X103062520Y-59851286D01*
X103022395Y-59657049D02*
X103062520Y-59697174D01*
X81499989Y-56442645D02*
X84242698Y-53699936D01*
X81499988Y-59449988D02*
X81499989Y-56442645D01*
X84242698Y-53699936D02*
X85540163Y-53699935D01*
X103022393Y-59193893D02*
X103022395Y-59657049D01*
X103250000Y-60038766D02*
X103250000Y-66825000D01*
X97328427Y-53499927D02*
X103022393Y-59193893D01*
X86640173Y-52599927D02*
X91359826Y-52599925D01*
X92259825Y-53499925D02*
X97328427Y-53499927D01*
%TO.N,SDRAM_D7*%
X83200000Y-58595000D02*
X81899999Y-57294999D01*
X84408387Y-54099947D02*
X85705853Y-54099947D01*
X99212483Y-55949683D02*
X99212484Y-61115417D01*
X85705853Y-54099947D02*
X86805862Y-52999938D01*
X92094135Y-53899936D02*
X97162737Y-53899937D01*
X83200000Y-59550000D02*
X83200000Y-58595000D01*
X97162737Y-53899937D02*
X99212483Y-55949683D01*
X81899999Y-57294999D02*
X81899999Y-56608335D01*
X91194135Y-52999935D02*
X92094135Y-53899936D01*
X86805862Y-52999938D02*
X91194135Y-52999935D01*
X101750000Y-63652933D02*
X101750000Y-66825000D01*
X81899999Y-56608335D02*
X84408387Y-54099947D01*
X99212484Y-61115417D02*
X101750000Y-63652933D01*
%TO.N,SDRAM_D8*%
X91028444Y-53399945D02*
X86971551Y-53399949D01*
X98812472Y-56115372D02*
X96997047Y-54299947D01*
X86971551Y-53399949D02*
X85549332Y-54822168D01*
X96997047Y-54299947D02*
X91928446Y-54299947D01*
X83200000Y-48050000D02*
X83200000Y-51278471D01*
X83200000Y-51278471D02*
X83721413Y-51799884D01*
X98812473Y-61281106D02*
X98812472Y-56115372D01*
X91928446Y-54299947D02*
X91028444Y-53399945D01*
X85549332Y-54822168D02*
X84722168Y-54822168D01*
X101250000Y-63718633D02*
X98812473Y-61281106D01*
X101250000Y-66825000D02*
X101250000Y-63718633D01*
%TO.N,SDRAM_D9*%
X90862760Y-53799959D02*
X87137241Y-53799959D01*
X81600000Y-48050000D02*
X81600000Y-52900000D01*
X96831358Y-54699958D02*
X91762759Y-54699958D01*
X87137241Y-53799959D02*
X85337200Y-55600000D01*
X91762759Y-54699958D02*
X90862760Y-53799959D01*
X81600000Y-52900000D02*
X81400000Y-53100000D01*
X98412462Y-61446795D02*
X98412462Y-56281062D01*
X98412462Y-56281062D02*
X96831358Y-54699958D01*
X100750000Y-63784333D02*
X98412462Y-61446795D01*
X100750000Y-66825000D02*
X100750000Y-63784333D01*
X85337200Y-55600000D02*
X84000000Y-55600000D01*
%TO.N,SDRAM_D10*%
X98012451Y-61646751D02*
X98012450Y-56446750D01*
X90697069Y-54199969D02*
X87302931Y-54199969D01*
X98012450Y-56446750D02*
X96665669Y-55099969D01*
X80800000Y-48050000D02*
X80800000Y-49005000D01*
X87302931Y-54199969D02*
X85102900Y-56400000D01*
X80400000Y-49405000D02*
X80400000Y-53700000D01*
X100250000Y-66825000D02*
X100250000Y-63884300D01*
X91597069Y-55099969D02*
X90697069Y-54199969D01*
X100250000Y-63884300D02*
X98012451Y-61646751D01*
X80800000Y-49005000D02*
X80400000Y-49405000D01*
X85102900Y-56400000D02*
X84600000Y-56400000D01*
X96665669Y-55099969D02*
X91597069Y-55099969D01*
%TO.N,SDRAM_D11*%
X91431380Y-55499980D02*
X90531378Y-54599978D01*
X87468621Y-54599979D02*
X84968600Y-57100000D01*
X79200000Y-53300000D02*
X79300000Y-53400000D01*
X97612440Y-61812440D02*
X97612440Y-56612440D01*
X99750000Y-63950000D02*
X97612440Y-61812440D01*
X79200000Y-48050000D02*
X79200000Y-53300000D01*
X96499980Y-55499980D02*
X91431380Y-55499980D01*
X99750000Y-66825000D02*
X99750000Y-63950000D01*
X97612440Y-56612440D02*
X96499980Y-55499980D01*
X90531378Y-54599978D02*
X87468621Y-54599979D01*
X84968600Y-57100000D02*
X83800000Y-57100000D01*
%TO.N,SDRAM_D12*%
X99250000Y-64015714D02*
X99250000Y-66825000D01*
X78400000Y-48050000D02*
X78400000Y-53800000D01*
X78400000Y-53800000D02*
X79400000Y-54800000D01*
X90365689Y-54999989D02*
X91265699Y-55899999D01*
X97212420Y-61978134D02*
X99250000Y-64015714D01*
X84600000Y-57800000D02*
X84834300Y-57800000D01*
X87634311Y-54999989D02*
X90365689Y-54999989D01*
X84834300Y-57800000D02*
X87634311Y-54999989D01*
X96334285Y-55899999D02*
X97212420Y-56778134D01*
X91265699Y-55899999D02*
X96334285Y-55899999D01*
X97212420Y-56778134D02*
X97212420Y-61978134D01*
%TO.N,SDRAM_D13*%
X88034205Y-71937460D02*
X83293154Y-71937460D01*
X88696744Y-72599999D02*
X88034205Y-71937460D01*
X76800000Y-48050000D02*
X76800000Y-53200000D01*
X89335998Y-72600001D02*
X88696744Y-72599999D01*
X92325000Y-72250000D02*
X89686001Y-72250000D01*
X76800000Y-53200000D02*
X78300000Y-54700000D01*
X83293154Y-71937460D02*
X83034123Y-72196491D01*
X89686001Y-72250000D02*
X89335998Y-72600001D01*
%TO.N,SDRAM_D14*%
X87868515Y-72337469D02*
X84062531Y-72337469D01*
X88531058Y-73000012D02*
X87868515Y-72337469D01*
X89751701Y-72750000D02*
X89501688Y-73000012D01*
X89501688Y-73000012D02*
X88531058Y-73000012D01*
X84062531Y-72337469D02*
X83100000Y-73300000D01*
X76000000Y-48050000D02*
X76000000Y-53900000D01*
X92325000Y-72750000D02*
X89751701Y-72750000D01*
X76000000Y-53900000D02*
X78000000Y-55900000D01*
%TO.N,SDRAM_D15*%
X74400000Y-48050000D02*
X74400000Y-53700000D01*
X74400000Y-53700000D02*
X77500000Y-56800000D01*
X88365368Y-73400023D02*
X87702825Y-72737480D01*
X92325000Y-73250000D02*
X89817401Y-73250000D01*
X85098522Y-72737480D02*
X83836001Y-74000001D01*
X89667377Y-73400023D02*
X88365368Y-73400023D01*
X87702825Y-72737480D02*
X85098522Y-72737480D01*
X82400001Y-74000001D02*
X82300000Y-73900000D01*
X83836001Y-74000001D02*
X82400001Y-74000001D01*
X89817401Y-73250000D02*
X89667377Y-73400023D01*
%TO.N,SDRAM_D0*%
X88835981Y-77500021D02*
X84135506Y-77500021D01*
X92325000Y-76250000D02*
X90586002Y-76250000D01*
X90336001Y-76500001D02*
X89836001Y-76500001D01*
X74400000Y-61010036D02*
X76144982Y-62755018D01*
X84135506Y-77500021D02*
X83016884Y-76381399D01*
X90586002Y-76250000D02*
X90336001Y-76500001D01*
X74400000Y-59550000D02*
X74400000Y-61010036D01*
X89836001Y-76500001D02*
X88835981Y-77500021D01*
%TO.N,SDRAM_D1*%
X89001671Y-77900031D02*
X83500031Y-77900031D01*
X90500011Y-76901691D02*
X90000011Y-76901691D01*
X90651702Y-76750000D02*
X90500011Y-76901691D01*
X83500031Y-77900031D02*
X83100000Y-77500000D01*
X76000000Y-61600000D02*
X77100000Y-62700000D01*
X92325000Y-76750000D02*
X90651702Y-76750000D01*
X76000000Y-59550000D02*
X76000000Y-61600000D01*
X77100000Y-62700000D02*
X77100000Y-63200000D01*
X90000011Y-76901691D02*
X89001671Y-77900031D01*
%TO.N,SDRAM_BA0*%
X88800000Y-59550000D02*
X88800000Y-60610036D01*
X88800000Y-60610036D02*
X88673086Y-60736950D01*
X103459391Y-74740609D02*
X106200010Y-74740609D01*
X99950000Y-78250000D02*
X103459391Y-74740609D01*
X92325000Y-78250000D02*
X99950000Y-78250000D01*
%TO.N,SDRAM_BA1*%
X106900000Y-75500000D02*
X105984454Y-75500000D01*
X103432391Y-75367609D02*
X100050000Y-78750000D01*
X89600000Y-58200000D02*
X89600000Y-59550000D01*
X105852063Y-75367609D02*
X103432391Y-75367609D01*
X105984454Y-75500000D02*
X105852063Y-75367609D01*
X100050000Y-78750000D02*
X92325000Y-78750000D01*
%TO.N,SDRAM_SDCLK*%
X87100000Y-49600000D02*
X87100000Y-50400000D01*
X80150590Y-56150590D02*
X79701180Y-56600000D01*
X80200000Y-56000000D02*
X80200000Y-56101180D01*
X78900000Y-56600000D02*
X79701180Y-56600000D01*
X77600000Y-57900000D02*
X78900000Y-56600000D01*
X85000106Y-52499894D02*
X87100000Y-50400000D01*
X83700106Y-52499894D02*
X85000106Y-52499894D01*
X83100000Y-79700000D02*
X84099948Y-78700052D01*
X80200000Y-56101180D02*
X80150590Y-56150590D01*
X80200000Y-56000000D02*
X83700106Y-52499894D01*
X86400000Y-48050000D02*
X86400000Y-48900000D01*
X77600000Y-57900000D02*
X76700000Y-57900000D01*
X84099948Y-78700052D02*
X88900052Y-78700052D01*
X90450000Y-80250000D02*
X92325000Y-80250000D01*
X86400000Y-48900000D02*
X87100000Y-49600000D01*
X88900052Y-78700052D02*
X90450000Y-80250000D01*
%TO.N,SDRAM_D2*%
X83399958Y-78300042D02*
X89665118Y-78300042D01*
X89665118Y-78300042D02*
X90269597Y-77695563D01*
X98750000Y-92175000D02*
X98750000Y-90850000D01*
X77900000Y-62900000D02*
X77900000Y-63899980D01*
X76800000Y-61800000D02*
X77900000Y-62900000D01*
X83100000Y-78600000D02*
X83399958Y-78300042D01*
X76800000Y-59550000D02*
X76800000Y-61800000D01*
X98750000Y-90850000D02*
X98800000Y-90800000D01*
%TO.N,SDRAM_D3*%
X99250000Y-92175000D02*
X99250000Y-91350000D01*
X88199990Y-77100010D02*
X88800000Y-76500000D01*
X99250000Y-91350000D02*
X99800000Y-90800000D01*
X84900010Y-77100010D02*
X88199990Y-77100010D01*
X77800000Y-61800000D02*
X78400000Y-61200000D01*
X83100000Y-75300000D02*
X84900010Y-77100010D01*
X78400000Y-59550000D02*
X78400000Y-61200000D01*
%TO.N,SDRAM_SDNCAS*%
X108000001Y-85163999D02*
X108000001Y-88299999D01*
X107750000Y-88550000D02*
X107750000Y-92175000D01*
X103900000Y-81063998D02*
X108000001Y-85163999D01*
X86400000Y-62100000D02*
X86500000Y-62200000D01*
X108000001Y-88299999D02*
X107750000Y-88550000D01*
X103900000Y-79500000D02*
X103900000Y-81063998D01*
X86400000Y-59550000D02*
X86400000Y-62100000D01*
%TO.N,Boot0*%
X115990678Y-90300000D02*
X116148171Y-90142507D01*
X114100000Y-90300000D02*
X115990678Y-90300000D01*
X110750000Y-90839395D02*
X110950010Y-90639385D01*
X132377972Y-92985000D02*
X132250041Y-92857069D01*
X110750000Y-92175000D02*
X110750000Y-90839395D01*
X126075022Y-92000000D02*
X126100032Y-92025010D01*
X136075000Y-92985000D02*
X132377972Y-92985000D01*
X123500000Y-92000000D02*
X126075022Y-92000000D01*
%TO.N,SDRAM_NBL0*%
X84800000Y-59550000D02*
X84800000Y-60700000D01*
X105100000Y-79600000D02*
X109100000Y-83600000D01*
X109100000Y-83600000D02*
X112100000Y-83600000D01*
X84800000Y-60700000D02*
X85000000Y-60900000D01*
X112250000Y-92175000D02*
X112250000Y-83750000D01*
X105100000Y-79600000D02*
X104900000Y-79600000D01*
X112250000Y-83750000D02*
X112100000Y-83600000D01*
%TO.N,SDRAM_NBL1*%
X109600000Y-83200000D02*
X112400000Y-83200000D01*
X106500000Y-80100000D02*
X106500000Y-80000000D01*
X112700000Y-91344642D02*
X112700000Y-83500000D01*
X109600000Y-83200000D02*
X106500000Y-80100000D01*
X106500000Y-80000000D02*
X106600000Y-79900000D01*
X112700000Y-83500000D02*
X112400000Y-83200000D01*
X85600000Y-48050000D02*
X85600000Y-49400000D01*
X85600000Y-49400000D02*
X85500000Y-49500000D01*
X112750000Y-91394642D02*
X112700000Y-91344642D01*
X112750000Y-92175000D02*
X112750000Y-91394642D01*
D74*
%TO.N,Net-(C56-Pad2)*%
X90287500Y-30937498D02*
X89750000Y-31474998D01*
X93420000Y-34500000D02*
X93420000Y-35330000D01*
X93420000Y-35330000D02*
X93250000Y-35500000D01*
%TO.N,Net-(C56-Pad1)*%
X88000000Y-34500000D02*
X90000000Y-34500000D01*
X87625000Y-34875000D02*
X88212500Y-34287500D01*
X87500000Y-35000000D02*
X87625000Y-34875000D01*
X88212500Y-30500000D02*
X88212500Y-34287500D01*
X85650000Y-35000000D02*
X87500000Y-35000000D01*
%TO.N,Net-(R30-Pad2)*%
X96250000Y-30500000D02*
X94250000Y-30500000D01*
X93420000Y-32600000D02*
X93420000Y-31330000D01*
X93420000Y-31330000D02*
X94250000Y-30500000D01*
D73*
%TO.N,Vinsense*%
X118750000Y-69250000D02*
X120000000Y-68000000D01*
X117675000Y-69250000D02*
X118750000Y-69250000D01*
X120500000Y-63000000D02*
X120500000Y-65000000D01*
X120500000Y-66500000D02*
X120500000Y-65000000D01*
%TO.N,Power2*%
X109750000Y-67605358D02*
X110302027Y-68157385D01*
X150705020Y-45994980D02*
X149515056Y-45994980D01*
X123500000Y-46000000D02*
X124500000Y-46000000D01*
X149515056Y-45994980D02*
X149384026Y-46126010D01*
X110302027Y-68157385D02*
X110472637Y-68157385D01*
X152000000Y-44700000D02*
X150705020Y-45994980D01*
X143220000Y-40200000D02*
X143220000Y-45780000D01*
X151459989Y-44159989D02*
X152000000Y-44700000D01*
X120000000Y-49500000D02*
X123500000Y-46000000D01*
X109750000Y-66825000D02*
X109750000Y-67605358D01*
X143220000Y-45780000D02*
X143000000Y-46000000D01*
%TO.N,Net-(R37-Pad2)*%
X146225000Y-50405000D02*
X146225000Y-52275000D01*
X144800000Y-52400000D02*
X144200000Y-53000000D01*
X146100000Y-52400000D02*
X144800000Y-52400000D01*
D74*
%TO.N,Net-(R42-Pad2)*%
X109250000Y-43500000D02*
X107250000Y-43500000D01*
X106750000Y-43000000D02*
X106750000Y-41250000D01*
X107250000Y-43500000D02*
X106750000Y-43000000D01*
X106750000Y-41250000D02*
X106805000Y-41195000D01*
X106805000Y-39475000D02*
X106805000Y-41195000D01*
X106805000Y-41195000D02*
X106805000Y-41305000D01*
D73*
%TO.N,Power3*%
X139600000Y-49100000D02*
X134900000Y-49100000D01*
X110250000Y-66825000D02*
X110250000Y-65450010D01*
X149400000Y-49605000D02*
X150200000Y-50405000D01*
X126049999Y-45049999D02*
X122950001Y-45049999D01*
X110250000Y-65450010D02*
X109799990Y-65000000D01*
X134900000Y-49100000D02*
X133500000Y-50500000D01*
X133500000Y-50500000D02*
X131500000Y-50500000D01*
X141400000Y-48400000D02*
X141800000Y-48000000D01*
X118700010Y-49299990D02*
X118500000Y-49299990D01*
X122950001Y-45049999D02*
X118700010Y-49299990D01*
X149400000Y-48600000D02*
X149400000Y-49605000D01*
X131500000Y-50500000D02*
X126049999Y-45049999D01*
X150200000Y-50405000D02*
X151175000Y-50405000D01*
D77*
X141400000Y-49100000D02*
X139600000Y-49100000D01*
D73*
X141400000Y-49100000D02*
X141400000Y-48400000D01*
%TD*%
M02*
