%TF.GenerationSoftware,KiCad,Pcbnew,(5.99.0-9568-gb9d26a55f2)*%
%TF.CreationDate,2021-03-23T11:45:26+01:00*%
%TF.ProjectId,Controller,436f6e74-726f-46c6-9c65-722e6b696361,rev?*%
%TF.SameCoordinates,Original*%
%TF.FileFunction,Legend,Top*%
%TF.FilePolarity,Positive*%
%FSLAX46Y46*%
G04 Gerber Fmt 4.6, Leading zero omitted, Abs format (unit mm)*
G04 Created by KiCad (PCBNEW (5.99.0-9568-gb9d26a55f2)) date 2021-03-23 11:45:26*
%MOMM*%
%LPD*%
G01*
G04 APERTURE LIST*
%ADD10C,0.150000*%
%ADD11C,0.120000*%
G04 APERTURE END LIST*
D10*
X87952380Y-105876190D02*
X87952380Y-105257142D01*
X88333333Y-105590476D01*
X88333333Y-105447619D01*
X88380952Y-105352380D01*
X88428571Y-105304761D01*
X88523809Y-105257142D01*
X88761904Y-105257142D01*
X88857142Y-105304761D01*
X88904761Y-105352380D01*
X88952380Y-105447619D01*
X88952380Y-105733333D01*
X88904761Y-105828571D01*
X88857142Y-105876190D01*
X88857142Y-104828571D02*
X88904761Y-104780952D01*
X88952380Y-104828571D01*
X88904761Y-104876190D01*
X88857142Y-104828571D01*
X88952380Y-104828571D01*
X87952380Y-104447619D02*
X87952380Y-103828571D01*
X88333333Y-104161904D01*
X88333333Y-104019047D01*
X88380952Y-103923809D01*
X88428571Y-103876190D01*
X88523809Y-103828571D01*
X88761904Y-103828571D01*
X88857142Y-103876190D01*
X88904761Y-103923809D01*
X88952380Y-104019047D01*
X88952380Y-104304761D01*
X88904761Y-104400000D01*
X88857142Y-104447619D01*
X87952380Y-103542857D02*
X88952380Y-103209523D01*
X87952380Y-102876190D01*
X98052380Y-105961904D02*
X98052380Y-105390476D01*
X99052380Y-105676190D02*
X98052380Y-105676190D01*
X98052380Y-105152380D02*
X99052380Y-104485714D01*
X98052380Y-104485714D02*
X99052380Y-105152380D01*
X86104761Y-120547142D02*
X86057142Y-120594761D01*
X85914285Y-120642380D01*
X85819047Y-120642380D01*
X85676190Y-120594761D01*
X85580952Y-120499523D01*
X85533333Y-120404285D01*
X85485714Y-120213809D01*
X85485714Y-120070952D01*
X85533333Y-119880476D01*
X85580952Y-119785238D01*
X85676190Y-119690000D01*
X85819047Y-119642380D01*
X85914285Y-119642380D01*
X86057142Y-119690000D01*
X86104761Y-119737619D01*
X86676190Y-120642380D02*
X86580952Y-120594761D01*
X86533333Y-120547142D01*
X86485714Y-120451904D01*
X86485714Y-120166190D01*
X86533333Y-120070952D01*
X86580952Y-120023333D01*
X86676190Y-119975714D01*
X86819047Y-119975714D01*
X86914285Y-120023333D01*
X86961904Y-120070952D01*
X87009523Y-120166190D01*
X87009523Y-120451904D01*
X86961904Y-120547142D01*
X86914285Y-120594761D01*
X86819047Y-120642380D01*
X86676190Y-120642380D01*
X87438095Y-119975714D02*
X87438095Y-120642380D01*
X87438095Y-120070952D02*
X87485714Y-120023333D01*
X87580952Y-119975714D01*
X87723809Y-119975714D01*
X87819047Y-120023333D01*
X87866666Y-120118571D01*
X87866666Y-120642380D01*
X88200000Y-119975714D02*
X88580952Y-119975714D01*
X88342857Y-119642380D02*
X88342857Y-120499523D01*
X88390476Y-120594761D01*
X88485714Y-120642380D01*
X88580952Y-120642380D01*
X89057142Y-120642380D02*
X88961904Y-120594761D01*
X88914285Y-120547142D01*
X88866666Y-120451904D01*
X88866666Y-120166190D01*
X88914285Y-120070952D01*
X88961904Y-120023333D01*
X89057142Y-119975714D01*
X89200000Y-119975714D01*
X89295238Y-120023333D01*
X89342857Y-120070952D01*
X89390476Y-120166190D01*
X89390476Y-120451904D01*
X89342857Y-120547142D01*
X89295238Y-120594761D01*
X89200000Y-120642380D01*
X89057142Y-120642380D01*
X89961904Y-120642380D02*
X89866666Y-120594761D01*
X89819047Y-120499523D01*
X89819047Y-119642380D01*
X90485714Y-120642380D02*
X90390476Y-120594761D01*
X90342857Y-120499523D01*
X90342857Y-119642380D01*
X91247619Y-120594761D02*
X91152380Y-120642380D01*
X90961904Y-120642380D01*
X90866666Y-120594761D01*
X90819047Y-120499523D01*
X90819047Y-120118571D01*
X90866666Y-120023333D01*
X90961904Y-119975714D01*
X91152380Y-119975714D01*
X91247619Y-120023333D01*
X91295238Y-120118571D01*
X91295238Y-120213809D01*
X90819047Y-120309047D01*
X91723809Y-120642380D02*
X91723809Y-119975714D01*
X91723809Y-120166190D02*
X91771428Y-120070952D01*
X91819047Y-120023333D01*
X91914285Y-119975714D01*
X92009523Y-119975714D01*
X76747619Y-121728571D02*
X76890476Y-121776190D01*
X76938095Y-121823809D01*
X76985714Y-121919047D01*
X76985714Y-122061904D01*
X76938095Y-122157142D01*
X76890476Y-122204761D01*
X76795238Y-122252380D01*
X76414285Y-122252380D01*
X76414285Y-121252380D01*
X76747619Y-121252380D01*
X76842857Y-121300000D01*
X76890476Y-121347619D01*
X76938095Y-121442857D01*
X76938095Y-121538095D01*
X76890476Y-121633333D01*
X76842857Y-121680952D01*
X76747619Y-121728571D01*
X76414285Y-121728571D01*
X77319047Y-121585714D02*
X77557142Y-122252380D01*
X77795238Y-121585714D02*
X77557142Y-122252380D01*
X77461904Y-122490476D01*
X77414285Y-122538095D01*
X77319047Y-122585714D01*
X78890476Y-121966666D02*
X79366666Y-121966666D01*
X78795238Y-122252380D02*
X79128571Y-121252380D01*
X79461904Y-122252380D01*
X79795238Y-122252380D02*
X79795238Y-121585714D01*
X79795238Y-121776190D02*
X79842857Y-121680952D01*
X79890476Y-121633333D01*
X79985714Y-121585714D01*
X80080952Y-121585714D01*
X80414285Y-121585714D02*
X80414285Y-122252380D01*
X80414285Y-121680952D02*
X80461904Y-121633333D01*
X80557142Y-121585714D01*
X80700000Y-121585714D01*
X80795238Y-121633333D01*
X80842857Y-121728571D01*
X80842857Y-122252380D01*
X81700000Y-122204761D02*
X81604761Y-122252380D01*
X81414285Y-122252380D01*
X81319047Y-122204761D01*
X81271428Y-122109523D01*
X81271428Y-121728571D01*
X81319047Y-121633333D01*
X81414285Y-121585714D01*
X81604761Y-121585714D01*
X81700000Y-121633333D01*
X81747619Y-121728571D01*
X81747619Y-121823809D01*
X81271428Y-121919047D01*
X82795238Y-121252380D02*
X83128571Y-122252380D01*
X83461904Y-121252380D01*
X84223809Y-122252380D02*
X84223809Y-121728571D01*
X84176190Y-121633333D01*
X84080952Y-121585714D01*
X83890476Y-121585714D01*
X83795238Y-121633333D01*
X84223809Y-122204761D02*
X84128571Y-122252380D01*
X83890476Y-122252380D01*
X83795238Y-122204761D01*
X83747619Y-122109523D01*
X83747619Y-122014285D01*
X83795238Y-121919047D01*
X83890476Y-121871428D01*
X84128571Y-121871428D01*
X84223809Y-121823809D01*
X84700000Y-121585714D02*
X84700000Y-122252380D01*
X84700000Y-121680952D02*
X84747619Y-121633333D01*
X84842857Y-121585714D01*
X84985714Y-121585714D01*
X85080952Y-121633333D01*
X85128571Y-121728571D01*
X85128571Y-122252380D01*
X86795238Y-122252380D02*
X86795238Y-121252380D01*
X86795238Y-122204761D02*
X86700000Y-122252380D01*
X86509523Y-122252380D01*
X86414285Y-122204761D01*
X86366666Y-122157142D01*
X86319047Y-122061904D01*
X86319047Y-121776190D01*
X86366666Y-121680952D01*
X86414285Y-121633333D01*
X86509523Y-121585714D01*
X86700000Y-121585714D01*
X86795238Y-121633333D01*
X87652380Y-122204761D02*
X87557142Y-122252380D01*
X87366666Y-122252380D01*
X87271428Y-122204761D01*
X87223809Y-122109523D01*
X87223809Y-121728571D01*
X87271428Y-121633333D01*
X87366666Y-121585714D01*
X87557142Y-121585714D01*
X87652380Y-121633333D01*
X87700000Y-121728571D01*
X87700000Y-121823809D01*
X87223809Y-121919047D01*
X88128571Y-121585714D02*
X88128571Y-122252380D01*
X88128571Y-121680952D02*
X88176190Y-121633333D01*
X88271428Y-121585714D01*
X88414285Y-121585714D01*
X88509523Y-121633333D01*
X88557142Y-121728571D01*
X88557142Y-122252380D01*
X90128571Y-121728571D02*
X90271428Y-121776190D01*
X90319047Y-121823809D01*
X90366666Y-121919047D01*
X90366666Y-122061904D01*
X90319047Y-122157142D01*
X90271428Y-122204761D01*
X90176190Y-122252380D01*
X89795238Y-122252380D01*
X89795238Y-121252380D01*
X90128571Y-121252380D01*
X90223809Y-121300000D01*
X90271428Y-121347619D01*
X90319047Y-121442857D01*
X90319047Y-121538095D01*
X90271428Y-121633333D01*
X90223809Y-121680952D01*
X90128571Y-121728571D01*
X89795238Y-121728571D01*
X90795238Y-122252380D02*
X90795238Y-121585714D01*
X90795238Y-121776190D02*
X90842857Y-121680952D01*
X90890476Y-121633333D01*
X90985714Y-121585714D01*
X91080952Y-121585714D01*
X91557142Y-122252380D02*
X91461904Y-122204761D01*
X91414285Y-122157142D01*
X91366666Y-122061904D01*
X91366666Y-121776190D01*
X91414285Y-121680952D01*
X91461904Y-121633333D01*
X91557142Y-121585714D01*
X91700000Y-121585714D01*
X91795238Y-121633333D01*
X91842857Y-121680952D01*
X91890476Y-121776190D01*
X91890476Y-122061904D01*
X91842857Y-122157142D01*
X91795238Y-122204761D01*
X91700000Y-122252380D01*
X91557142Y-122252380D01*
X92700000Y-122204761D02*
X92604761Y-122252380D01*
X92414285Y-122252380D01*
X92319047Y-122204761D01*
X92271428Y-122109523D01*
X92271428Y-121728571D01*
X92319047Y-121633333D01*
X92414285Y-121585714D01*
X92604761Y-121585714D01*
X92700000Y-121633333D01*
X92747619Y-121728571D01*
X92747619Y-121823809D01*
X92271428Y-121919047D01*
X93604761Y-122204761D02*
X93509523Y-122252380D01*
X93319047Y-122252380D01*
X93223809Y-122204761D01*
X93176190Y-122157142D01*
X93128571Y-122061904D01*
X93128571Y-121776190D01*
X93176190Y-121680952D01*
X93223809Y-121633333D01*
X93319047Y-121585714D01*
X93509523Y-121585714D01*
X93604761Y-121633333D01*
X94033333Y-122252380D02*
X94033333Y-121252380D01*
X94128571Y-121871428D02*
X94414285Y-122252380D01*
X94414285Y-121585714D02*
X94033333Y-121966666D01*
X95890476Y-122633333D02*
X95842857Y-122585714D01*
X95747619Y-122442857D01*
X95700000Y-122347619D01*
X95652380Y-122204761D01*
X95604761Y-121966666D01*
X95604761Y-121776190D01*
X95652380Y-121538095D01*
X95700000Y-121395238D01*
X95747619Y-121300000D01*
X95842857Y-121157142D01*
X95890476Y-121109523D01*
X96271428Y-122252380D02*
X96271428Y-121252380D01*
X96842857Y-122252380D01*
X96842857Y-121252380D01*
X97461904Y-122252380D02*
X97366666Y-122204761D01*
X97319047Y-122157142D01*
X97271428Y-122061904D01*
X97271428Y-121776190D01*
X97319047Y-121680952D01*
X97366666Y-121633333D01*
X97461904Y-121585714D01*
X97604761Y-121585714D01*
X97700000Y-121633333D01*
X97747619Y-121680952D01*
X97795238Y-121776190D01*
X97795238Y-122061904D01*
X97747619Y-122157142D01*
X97700000Y-122204761D01*
X97604761Y-122252380D01*
X97461904Y-122252380D01*
X98223809Y-122252380D02*
X98223809Y-121585714D01*
X98223809Y-121776190D02*
X98271428Y-121680952D01*
X98319047Y-121633333D01*
X98414285Y-121585714D01*
X98509523Y-121585714D01*
X98700000Y-121585714D02*
X99080952Y-121585714D01*
X98842857Y-121252380D02*
X98842857Y-122109523D01*
X98890476Y-122204761D01*
X98985714Y-122252380D01*
X99080952Y-122252380D01*
X99557142Y-122252380D02*
X99461904Y-122204761D01*
X99414285Y-122109523D01*
X99414285Y-121252380D01*
X100319047Y-122204761D02*
X100223809Y-122252380D01*
X100033333Y-122252380D01*
X99938095Y-122204761D01*
X99890476Y-122109523D01*
X99890476Y-121728571D01*
X99938095Y-121633333D01*
X100033333Y-121585714D01*
X100223809Y-121585714D01*
X100319047Y-121633333D01*
X100366666Y-121728571D01*
X100366666Y-121823809D01*
X99890476Y-121919047D01*
X100700000Y-122633333D02*
X100747619Y-122585714D01*
X100842857Y-122442857D01*
X100890476Y-122347619D01*
X100938095Y-122204761D01*
X100985714Y-121966666D01*
X100985714Y-121776190D01*
X100938095Y-121538095D01*
X100890476Y-121395238D01*
X100842857Y-121300000D01*
X100747619Y-121157142D01*
X100700000Y-121109523D01*
X87342857Y-123862380D02*
X87009523Y-123386190D01*
X86771428Y-123862380D02*
X86771428Y-122862380D01*
X87152380Y-122862380D01*
X87247619Y-122910000D01*
X87295238Y-122957619D01*
X87342857Y-123052857D01*
X87342857Y-123195714D01*
X87295238Y-123290952D01*
X87247619Y-123338571D01*
X87152380Y-123386190D01*
X86771428Y-123386190D01*
X88152380Y-123814761D02*
X88057142Y-123862380D01*
X87866666Y-123862380D01*
X87771428Y-123814761D01*
X87723809Y-123719523D01*
X87723809Y-123338571D01*
X87771428Y-123243333D01*
X87866666Y-123195714D01*
X88057142Y-123195714D01*
X88152380Y-123243333D01*
X88200000Y-123338571D01*
X88200000Y-123433809D01*
X87723809Y-123529047D01*
X88533333Y-123195714D02*
X88771428Y-123862380D01*
X89009523Y-123195714D01*
X90104761Y-122957619D02*
X90152380Y-122910000D01*
X90247619Y-122862380D01*
X90485714Y-122862380D01*
X90580952Y-122910000D01*
X90628571Y-122957619D01*
X90676190Y-123052857D01*
X90676190Y-123148095D01*
X90628571Y-123290952D01*
X90057142Y-123862380D01*
X90676190Y-123862380D01*
X93904761Y-105961904D02*
X93952380Y-105819047D01*
X93952380Y-105580952D01*
X93904761Y-105485714D01*
X93857142Y-105438095D01*
X93761904Y-105390476D01*
X93666666Y-105390476D01*
X93571428Y-105438095D01*
X93523809Y-105485714D01*
X93476190Y-105580952D01*
X93428571Y-105771428D01*
X93380952Y-105866666D01*
X93333333Y-105914285D01*
X93238095Y-105961904D01*
X93142857Y-105961904D01*
X93047619Y-105914285D01*
X93000000Y-105866666D01*
X92952380Y-105771428D01*
X92952380Y-105533333D01*
X93000000Y-105390476D01*
X92952380Y-105057142D02*
X93952380Y-104819047D01*
X93238095Y-104628571D01*
X93952380Y-104438095D01*
X92952380Y-104200000D01*
X93857142Y-103247619D02*
X93904761Y-103295238D01*
X93952380Y-103438095D01*
X93952380Y-103533333D01*
X93904761Y-103676190D01*
X93809523Y-103771428D01*
X93714285Y-103819047D01*
X93523809Y-103866666D01*
X93380952Y-103866666D01*
X93190476Y-103819047D01*
X93095238Y-103771428D01*
X93000000Y-103676190D01*
X92952380Y-103533333D01*
X92952380Y-103438095D01*
X93000000Y-103295238D01*
X93047619Y-103247619D01*
X93952380Y-102342857D02*
X93952380Y-102819047D01*
X92952380Y-102819047D01*
X93952380Y-102009523D02*
X92952380Y-102009523D01*
X93952380Y-101438095D02*
X93380952Y-101866666D01*
X92952380Y-101438095D02*
X93523809Y-102009523D01*
X95600000Y-105461904D02*
X95552380Y-105557142D01*
X95552380Y-105700000D01*
X95600000Y-105842857D01*
X95695238Y-105938095D01*
X95790476Y-105985714D01*
X95980952Y-106033333D01*
X96123809Y-106033333D01*
X96314285Y-105985714D01*
X96409523Y-105938095D01*
X96504761Y-105842857D01*
X96552380Y-105700000D01*
X96552380Y-105604761D01*
X96504761Y-105461904D01*
X96457142Y-105414285D01*
X96123809Y-105414285D01*
X96123809Y-105604761D01*
X96552380Y-104985714D02*
X95552380Y-104985714D01*
X96552380Y-104414285D01*
X95552380Y-104414285D01*
X96552380Y-103938095D02*
X95552380Y-103938095D01*
X95552380Y-103700000D01*
X95600000Y-103557142D01*
X95695238Y-103461904D01*
X95790476Y-103414285D01*
X95980952Y-103366666D01*
X96123809Y-103366666D01*
X96314285Y-103414285D01*
X96409523Y-103461904D01*
X96504761Y-103557142D01*
X96552380Y-103700000D01*
X96552380Y-103938095D01*
X70409523Y-53952380D02*
X69933333Y-53952380D01*
X69885714Y-54428571D01*
X69933333Y-54380952D01*
X70028571Y-54333333D01*
X70266666Y-54333333D01*
X70361904Y-54380952D01*
X70409523Y-54428571D01*
X70457142Y-54523809D01*
X70457142Y-54761904D01*
X70409523Y-54857142D01*
X70361904Y-54904761D01*
X70266666Y-54952380D01*
X70028571Y-54952380D01*
X69933333Y-54904761D01*
X69885714Y-54857142D01*
X70742857Y-53952380D02*
X71076190Y-54952380D01*
X71409523Y-53952380D01*
X69961904Y-57266666D02*
X70438095Y-57266666D01*
X69866666Y-57552380D02*
X70200000Y-56552380D01*
X70533333Y-57552380D01*
X91404761Y-105957142D02*
X91452380Y-105814285D01*
X91452380Y-105576190D01*
X91404761Y-105480952D01*
X91357142Y-105433333D01*
X91261904Y-105385714D01*
X91166666Y-105385714D01*
X91071428Y-105433333D01*
X91023809Y-105480952D01*
X90976190Y-105576190D01*
X90928571Y-105766666D01*
X90880952Y-105861904D01*
X90833333Y-105909523D01*
X90738095Y-105957142D01*
X90642857Y-105957142D01*
X90547619Y-105909523D01*
X90500000Y-105861904D01*
X90452380Y-105766666D01*
X90452380Y-105528571D01*
X90500000Y-105385714D01*
X90452380Y-105052380D02*
X91452380Y-104814285D01*
X90738095Y-104623809D01*
X91452380Y-104433333D01*
X90452380Y-104195238D01*
X91452380Y-103814285D02*
X90452380Y-103814285D01*
X90452380Y-103576190D01*
X90500000Y-103433333D01*
X90595238Y-103338095D01*
X90690476Y-103290476D01*
X90880952Y-103242857D01*
X91023809Y-103242857D01*
X91214285Y-103290476D01*
X91309523Y-103338095D01*
X91404761Y-103433333D01*
X91452380Y-103576190D01*
X91452380Y-103814285D01*
X138452380Y-89952380D02*
X138547619Y-89952380D01*
X138642857Y-90000000D01*
X138690476Y-90047619D01*
X138738095Y-90142857D01*
X138785714Y-90333333D01*
X138785714Y-90571428D01*
X138738095Y-90761904D01*
X138690476Y-90857142D01*
X138642857Y-90904761D01*
X138547619Y-90952380D01*
X138452380Y-90952380D01*
X138357142Y-90904761D01*
X138309523Y-90857142D01*
X138261904Y-90761904D01*
X138214285Y-90571428D01*
X138214285Y-90333333D01*
X138261904Y-90142857D01*
X138309523Y-90047619D01*
X138357142Y-90000000D01*
X138452380Y-89952380D01*
X155857142Y-38195000D02*
X155761904Y-38147380D01*
X155619047Y-38147380D01*
X155476190Y-38195000D01*
X155380952Y-38290238D01*
X155333333Y-38385476D01*
X155285714Y-38575952D01*
X155285714Y-38718809D01*
X155333333Y-38909285D01*
X155380952Y-39004523D01*
X155476190Y-39099761D01*
X155619047Y-39147380D01*
X155714285Y-39147380D01*
X155857142Y-39099761D01*
X155904761Y-39052142D01*
X155904761Y-38718809D01*
X155714285Y-38718809D01*
X156333333Y-38480714D02*
X156333333Y-39147380D01*
X156333333Y-38575952D02*
X156380952Y-38528333D01*
X156476190Y-38480714D01*
X156619047Y-38480714D01*
X156714285Y-38528333D01*
X156761904Y-38623571D01*
X156761904Y-39147380D01*
X157666666Y-39147380D02*
X157666666Y-38147380D01*
X157666666Y-39099761D02*
X157571428Y-39147380D01*
X157380952Y-39147380D01*
X157285714Y-39099761D01*
X157238095Y-39052142D01*
X157190476Y-38956904D01*
X157190476Y-38671190D01*
X157238095Y-38575952D01*
X157285714Y-38528333D01*
X157380952Y-38480714D01*
X157571428Y-38480714D01*
X157666666Y-38528333D01*
X155476190Y-39757380D02*
X155809523Y-40757380D01*
X156142857Y-39757380D01*
X156476190Y-40757380D02*
X156476190Y-40090714D01*
X156476190Y-39757380D02*
X156428571Y-39805000D01*
X156476190Y-39852619D01*
X156523809Y-39805000D01*
X156476190Y-39757380D01*
X156476190Y-39852619D01*
X156952380Y-40090714D02*
X156952380Y-40757380D01*
X156952380Y-40185952D02*
X157000000Y-40138333D01*
X157095238Y-40090714D01*
X157238095Y-40090714D01*
X157333333Y-40138333D01*
X157380952Y-40233571D01*
X157380952Y-40757380D01*
X70271428Y-52028571D02*
X70414285Y-52076190D01*
X70461904Y-52123809D01*
X70509523Y-52219047D01*
X70509523Y-52361904D01*
X70461904Y-52457142D01*
X70414285Y-52504761D01*
X70319047Y-52552380D01*
X69938095Y-52552380D01*
X69938095Y-51552380D01*
X70271428Y-51552380D01*
X70366666Y-51600000D01*
X70414285Y-51647619D01*
X70461904Y-51742857D01*
X70461904Y-51838095D01*
X70414285Y-51933333D01*
X70366666Y-51980952D01*
X70271428Y-52028571D01*
X69938095Y-52028571D01*
X101652380Y-105366666D02*
X101176190Y-105700000D01*
X101652380Y-105938095D02*
X100652380Y-105938095D01*
X100652380Y-105557142D01*
X100700000Y-105461904D01*
X100747619Y-105414285D01*
X100842857Y-105366666D01*
X100985714Y-105366666D01*
X101080952Y-105414285D01*
X101128571Y-105461904D01*
X101176190Y-105557142D01*
X101176190Y-105938095D01*
X100652380Y-105033333D02*
X101652380Y-104366666D01*
X100652380Y-104366666D02*
X101652380Y-105033333D01*
X138785714Y-96052380D02*
X138214285Y-96052380D01*
X138500000Y-96052380D02*
X138500000Y-95052380D01*
X138404761Y-95195238D01*
X138309523Y-95290476D01*
X138214285Y-95338095D01*
X70438095Y-48900000D02*
X70342857Y-48852380D01*
X70200000Y-48852380D01*
X70057142Y-48900000D01*
X69961904Y-48995238D01*
X69914285Y-49090476D01*
X69866666Y-49280952D01*
X69866666Y-49423809D01*
X69914285Y-49614285D01*
X69961904Y-49709523D01*
X70057142Y-49804761D01*
X70200000Y-49852380D01*
X70295238Y-49852380D01*
X70438095Y-49804761D01*
X70485714Y-49757142D01*
X70485714Y-49423809D01*
X70295238Y-49423809D01*
X70914285Y-49852380D02*
X70914285Y-48852380D01*
X71485714Y-49852380D01*
X71485714Y-48852380D01*
X71961904Y-49852380D02*
X71961904Y-48852380D01*
X72200000Y-48852380D01*
X72342857Y-48900000D01*
X72438095Y-48995238D01*
X72485714Y-49090476D01*
X72533333Y-49280952D01*
X72533333Y-49423809D01*
X72485714Y-49614285D01*
X72438095Y-49709523D01*
X72342857Y-49804761D01*
X72200000Y-49852380D01*
X71961904Y-49852380D01*
X70338095Y-59100000D02*
X70242857Y-59052380D01*
X70100000Y-59052380D01*
X69957142Y-59100000D01*
X69861904Y-59195238D01*
X69814285Y-59290476D01*
X69766666Y-59480952D01*
X69766666Y-59623809D01*
X69814285Y-59814285D01*
X69861904Y-59909523D01*
X69957142Y-60004761D01*
X70100000Y-60052380D01*
X70195238Y-60052380D01*
X70338095Y-60004761D01*
X70385714Y-59957142D01*
X70385714Y-59623809D01*
X70195238Y-59623809D01*
X70814285Y-60052380D02*
X70814285Y-59052380D01*
X71385714Y-60052380D01*
X71385714Y-59052380D01*
X71861904Y-60052380D02*
X71861904Y-59052380D01*
X72100000Y-59052380D01*
X72242857Y-59100000D01*
X72338095Y-59195238D01*
X72385714Y-59290476D01*
X72433333Y-59480952D01*
X72433333Y-59623809D01*
X72385714Y-59814285D01*
X72338095Y-59909523D01*
X72242857Y-60004761D01*
X72100000Y-60052380D01*
X71861904Y-60052380D01*
X138580952Y-92928571D02*
X138723809Y-92976190D01*
X138771428Y-93023809D01*
X138819047Y-93119047D01*
X138819047Y-93261904D01*
X138771428Y-93357142D01*
X138723809Y-93404761D01*
X138628571Y-93452380D01*
X138247619Y-93452380D01*
X138247619Y-92452380D01*
X138580952Y-92452380D01*
X138676190Y-92500000D01*
X138723809Y-92547619D01*
X138771428Y-92642857D01*
X138771428Y-92738095D01*
X138723809Y-92833333D01*
X138676190Y-92880952D01*
X138580952Y-92928571D01*
X138247619Y-92928571D01*
X139390476Y-93452380D02*
X139295238Y-93404761D01*
X139247619Y-93357142D01*
X139200000Y-93261904D01*
X139200000Y-92976190D01*
X139247619Y-92880952D01*
X139295238Y-92833333D01*
X139390476Y-92785714D01*
X139533333Y-92785714D01*
X139628571Y-92833333D01*
X139676190Y-92880952D01*
X139723809Y-92976190D01*
X139723809Y-93261904D01*
X139676190Y-93357142D01*
X139628571Y-93404761D01*
X139533333Y-93452380D01*
X139390476Y-93452380D01*
X140295238Y-93452380D02*
X140200000Y-93404761D01*
X140152380Y-93357142D01*
X140104761Y-93261904D01*
X140104761Y-92976190D01*
X140152380Y-92880952D01*
X140200000Y-92833333D01*
X140295238Y-92785714D01*
X140438095Y-92785714D01*
X140533333Y-92833333D01*
X140580952Y-92880952D01*
X140628571Y-92976190D01*
X140628571Y-93261904D01*
X140580952Y-93357142D01*
X140533333Y-93404761D01*
X140438095Y-93452380D01*
X140295238Y-93452380D01*
X140914285Y-92785714D02*
X141295238Y-92785714D01*
X141057142Y-92452380D02*
X141057142Y-93309523D01*
X141104761Y-93404761D01*
X141200000Y-93452380D01*
X141295238Y-93452380D01*
%TO.C,R40*%
X148857142Y-113552380D02*
X148523809Y-113076190D01*
X148285714Y-113552380D02*
X148285714Y-112552380D01*
X148666666Y-112552380D01*
X148761904Y-112600000D01*
X148809523Y-112647619D01*
X148857142Y-112742857D01*
X148857142Y-112885714D01*
X148809523Y-112980952D01*
X148761904Y-113028571D01*
X148666666Y-113076190D01*
X148285714Y-113076190D01*
X149714285Y-112885714D02*
X149714285Y-113552380D01*
X149476190Y-112504761D02*
X149238095Y-113219047D01*
X149857142Y-113219047D01*
X150428571Y-112552380D02*
X150523809Y-112552380D01*
X150619047Y-112600000D01*
X150666666Y-112647619D01*
X150714285Y-112742857D01*
X150761904Y-112933333D01*
X150761904Y-113171428D01*
X150714285Y-113361904D01*
X150666666Y-113457142D01*
X150619047Y-113504761D01*
X150523809Y-113552380D01*
X150428571Y-113552380D01*
X150333333Y-113504761D01*
X150285714Y-113457142D01*
X150238095Y-113361904D01*
X150190476Y-113171428D01*
X150190476Y-112933333D01*
X150238095Y-112742857D01*
X150285714Y-112647619D01*
X150333333Y-112600000D01*
X150428571Y-112552380D01*
%TO.C,U5*%
X99238095Y-29952380D02*
X99238095Y-30761904D01*
X99285714Y-30857142D01*
X99333333Y-30904761D01*
X99428571Y-30952380D01*
X99619047Y-30952380D01*
X99714285Y-30904761D01*
X99761904Y-30857142D01*
X99809523Y-30761904D01*
X99809523Y-29952380D01*
X100761904Y-29952380D02*
X100285714Y-29952380D01*
X100238095Y-30428571D01*
X100285714Y-30380952D01*
X100380952Y-30333333D01*
X100619047Y-30333333D01*
X100714285Y-30380952D01*
X100761904Y-30428571D01*
X100809523Y-30523809D01*
X100809523Y-30761904D01*
X100761904Y-30857142D01*
X100714285Y-30904761D01*
X100619047Y-30952380D01*
X100380952Y-30952380D01*
X100285714Y-30904761D01*
X100238095Y-30857142D01*
%TO.C,C36*%
X131857142Y-107142857D02*
X131904761Y-107190476D01*
X131952380Y-107333333D01*
X131952380Y-107428571D01*
X131904761Y-107571428D01*
X131809523Y-107666666D01*
X131714285Y-107714285D01*
X131523809Y-107761904D01*
X131380952Y-107761904D01*
X131190476Y-107714285D01*
X131095238Y-107666666D01*
X131000000Y-107571428D01*
X130952380Y-107428571D01*
X130952380Y-107333333D01*
X131000000Y-107190476D01*
X131047619Y-107142857D01*
X130952380Y-106809523D02*
X130952380Y-106190476D01*
X131333333Y-106523809D01*
X131333333Y-106380952D01*
X131380952Y-106285714D01*
X131428571Y-106238095D01*
X131523809Y-106190476D01*
X131761904Y-106190476D01*
X131857142Y-106238095D01*
X131904761Y-106285714D01*
X131952380Y-106380952D01*
X131952380Y-106666666D01*
X131904761Y-106761904D01*
X131857142Y-106809523D01*
X130952380Y-105333333D02*
X130952380Y-105523809D01*
X131000000Y-105619047D01*
X131047619Y-105666666D01*
X131190476Y-105761904D01*
X131380952Y-105809523D01*
X131761904Y-105809523D01*
X131857142Y-105761904D01*
X131904761Y-105714285D01*
X131952380Y-105619047D01*
X131952380Y-105428571D01*
X131904761Y-105333333D01*
X131857142Y-105285714D01*
X131761904Y-105238095D01*
X131523809Y-105238095D01*
X131428571Y-105285714D01*
X131380952Y-105333333D01*
X131333333Y-105428571D01*
X131333333Y-105619047D01*
X131380952Y-105714285D01*
X131428571Y-105761904D01*
X131523809Y-105809523D01*
%TO.C,Y1*%
X121376190Y-89876190D02*
X121852380Y-89876190D01*
X120852380Y-90209523D02*
X121376190Y-89876190D01*
X120852380Y-89542857D01*
X121852380Y-88685714D02*
X121852380Y-89257142D01*
X121852380Y-88971428D02*
X120852380Y-88971428D01*
X120995238Y-89066666D01*
X121090476Y-89161904D01*
X121138095Y-89257142D01*
%TO.C,C59*%
X100307142Y-36642857D02*
X100354761Y-36690476D01*
X100402380Y-36833333D01*
X100402380Y-36928571D01*
X100354761Y-37071428D01*
X100259523Y-37166666D01*
X100164285Y-37214285D01*
X99973809Y-37261904D01*
X99830952Y-37261904D01*
X99640476Y-37214285D01*
X99545238Y-37166666D01*
X99450000Y-37071428D01*
X99402380Y-36928571D01*
X99402380Y-36833333D01*
X99450000Y-36690476D01*
X99497619Y-36642857D01*
X99402380Y-35738095D02*
X99402380Y-36214285D01*
X99878571Y-36261904D01*
X99830952Y-36214285D01*
X99783333Y-36119047D01*
X99783333Y-35880952D01*
X99830952Y-35785714D01*
X99878571Y-35738095D01*
X99973809Y-35690476D01*
X100211904Y-35690476D01*
X100307142Y-35738095D01*
X100354761Y-35785714D01*
X100402380Y-35880952D01*
X100402380Y-36119047D01*
X100354761Y-36214285D01*
X100307142Y-36261904D01*
X100402380Y-35214285D02*
X100402380Y-35023809D01*
X100354761Y-34928571D01*
X100307142Y-34880952D01*
X100164285Y-34785714D01*
X99973809Y-34738095D01*
X99592857Y-34738095D01*
X99497619Y-34785714D01*
X99450000Y-34833333D01*
X99402380Y-34928571D01*
X99402380Y-35119047D01*
X99450000Y-35214285D01*
X99497619Y-35261904D01*
X99592857Y-35309523D01*
X99830952Y-35309523D01*
X99926190Y-35261904D01*
X99973809Y-35214285D01*
X100021428Y-35119047D01*
X100021428Y-34928571D01*
X99973809Y-34833333D01*
X99926190Y-34785714D01*
X99830952Y-34738095D01*
%TO.C,C34*%
X136457142Y-106677142D02*
X136409523Y-106724761D01*
X136266666Y-106772380D01*
X136171428Y-106772380D01*
X136028571Y-106724761D01*
X135933333Y-106629523D01*
X135885714Y-106534285D01*
X135838095Y-106343809D01*
X135838095Y-106200952D01*
X135885714Y-106010476D01*
X135933333Y-105915238D01*
X136028571Y-105820000D01*
X136171428Y-105772380D01*
X136266666Y-105772380D01*
X136409523Y-105820000D01*
X136457142Y-105867619D01*
X136790476Y-105772380D02*
X137409523Y-105772380D01*
X137076190Y-106153333D01*
X137219047Y-106153333D01*
X137314285Y-106200952D01*
X137361904Y-106248571D01*
X137409523Y-106343809D01*
X137409523Y-106581904D01*
X137361904Y-106677142D01*
X137314285Y-106724761D01*
X137219047Y-106772380D01*
X136933333Y-106772380D01*
X136838095Y-106724761D01*
X136790476Y-106677142D01*
X138266666Y-106105714D02*
X138266666Y-106772380D01*
X138028571Y-105724761D02*
X137790476Y-106439047D01*
X138409523Y-106439047D01*
%TO.C,R19*%
X143062153Y-60392408D02*
X142728820Y-59916218D01*
X142490725Y-60392408D02*
X142490725Y-59392408D01*
X142871677Y-59392408D01*
X142966915Y-59440028D01*
X143014534Y-59487647D01*
X143062153Y-59582885D01*
X143062153Y-59725742D01*
X143014534Y-59820980D01*
X142966915Y-59868599D01*
X142871677Y-59916218D01*
X142490725Y-59916218D01*
X144014534Y-60392408D02*
X143443106Y-60392408D01*
X143728820Y-60392408D02*
X143728820Y-59392408D01*
X143633582Y-59535266D01*
X143538344Y-59630504D01*
X143443106Y-59678123D01*
X144490725Y-60392408D02*
X144681201Y-60392408D01*
X144776439Y-60344789D01*
X144824058Y-60297170D01*
X144919296Y-60154313D01*
X144966915Y-59963837D01*
X144966915Y-59582885D01*
X144919296Y-59487647D01*
X144871677Y-59440028D01*
X144776439Y-59392408D01*
X144585963Y-59392408D01*
X144490725Y-59440028D01*
X144443106Y-59487647D01*
X144395487Y-59582885D01*
X144395487Y-59820980D01*
X144443106Y-59916218D01*
X144490725Y-59963837D01*
X144585963Y-60011456D01*
X144776439Y-60011456D01*
X144871677Y-59963837D01*
X144919296Y-59916218D01*
X144966915Y-59820980D01*
%TO.C,C20*%
X136112153Y-55697170D02*
X136064534Y-55744789D01*
X135921677Y-55792408D01*
X135826439Y-55792408D01*
X135683582Y-55744789D01*
X135588344Y-55649551D01*
X135540725Y-55554313D01*
X135493106Y-55363837D01*
X135493106Y-55220980D01*
X135540725Y-55030504D01*
X135588344Y-54935266D01*
X135683582Y-54840028D01*
X135826439Y-54792408D01*
X135921677Y-54792408D01*
X136064534Y-54840028D01*
X136112153Y-54887647D01*
X136493106Y-54887647D02*
X136540725Y-54840028D01*
X136635963Y-54792408D01*
X136874058Y-54792408D01*
X136969296Y-54840028D01*
X137016915Y-54887647D01*
X137064534Y-54982885D01*
X137064534Y-55078123D01*
X137016915Y-55220980D01*
X136445487Y-55792408D01*
X137064534Y-55792408D01*
X137683582Y-54792408D02*
X137778820Y-54792408D01*
X137874058Y-54840028D01*
X137921677Y-54887647D01*
X137969296Y-54982885D01*
X138016915Y-55173361D01*
X138016915Y-55411456D01*
X137969296Y-55601932D01*
X137921677Y-55697170D01*
X137874058Y-55744789D01*
X137778820Y-55792408D01*
X137683582Y-55792408D01*
X137588344Y-55744789D01*
X137540725Y-55697170D01*
X137493106Y-55601932D01*
X137445487Y-55411456D01*
X137445487Y-55173361D01*
X137493106Y-54982885D01*
X137540725Y-54887647D01*
X137588344Y-54840028D01*
X137683582Y-54792408D01*
%TO.C,C15*%
X127757142Y-73242857D02*
X127804761Y-73290476D01*
X127852380Y-73433333D01*
X127852380Y-73528571D01*
X127804761Y-73671428D01*
X127709523Y-73766666D01*
X127614285Y-73814285D01*
X127423809Y-73861904D01*
X127280952Y-73861904D01*
X127090476Y-73814285D01*
X126995238Y-73766666D01*
X126900000Y-73671428D01*
X126852380Y-73528571D01*
X126852380Y-73433333D01*
X126900000Y-73290476D01*
X126947619Y-73242857D01*
X127852380Y-72290476D02*
X127852380Y-72861904D01*
X127852380Y-72576190D02*
X126852380Y-72576190D01*
X126995238Y-72671428D01*
X127090476Y-72766666D01*
X127138095Y-72861904D01*
X126852380Y-71385714D02*
X126852380Y-71861904D01*
X127328571Y-71909523D01*
X127280952Y-71861904D01*
X127233333Y-71766666D01*
X127233333Y-71528571D01*
X127280952Y-71433333D01*
X127328571Y-71385714D01*
X127423809Y-71338095D01*
X127661904Y-71338095D01*
X127757142Y-71385714D01*
X127804761Y-71433333D01*
X127852380Y-71528571D01*
X127852380Y-71766666D01*
X127804761Y-71861904D01*
X127757142Y-71909523D01*
%TO.C,C3*%
X85695833Y-69457142D02*
X85648214Y-69504761D01*
X85505357Y-69552380D01*
X85410119Y-69552380D01*
X85267261Y-69504761D01*
X85172023Y-69409523D01*
X85124404Y-69314285D01*
X85076785Y-69123809D01*
X85076785Y-68980952D01*
X85124404Y-68790476D01*
X85172023Y-68695238D01*
X85267261Y-68600000D01*
X85410119Y-68552380D01*
X85505357Y-68552380D01*
X85648214Y-68600000D01*
X85695833Y-68647619D01*
X86029166Y-68552380D02*
X86648214Y-68552380D01*
X86314880Y-68933333D01*
X86457738Y-68933333D01*
X86552976Y-68980952D01*
X86600595Y-69028571D01*
X86648214Y-69123809D01*
X86648214Y-69361904D01*
X86600595Y-69457142D01*
X86552976Y-69504761D01*
X86457738Y-69552380D01*
X86172023Y-69552380D01*
X86076785Y-69504761D01*
X86029166Y-69457142D01*
%TO.C,R11*%
X137262153Y-60392408D02*
X136928820Y-59916218D01*
X136690725Y-60392408D02*
X136690725Y-59392408D01*
X137071677Y-59392408D01*
X137166915Y-59440028D01*
X137214534Y-59487647D01*
X137262153Y-59582885D01*
X137262153Y-59725742D01*
X137214534Y-59820980D01*
X137166915Y-59868599D01*
X137071677Y-59916218D01*
X136690725Y-59916218D01*
X138214534Y-60392408D02*
X137643106Y-60392408D01*
X137928820Y-60392408D02*
X137928820Y-59392408D01*
X137833582Y-59535266D01*
X137738344Y-59630504D01*
X137643106Y-59678123D01*
X139166915Y-60392408D02*
X138595487Y-60392408D01*
X138881201Y-60392408D02*
X138881201Y-59392408D01*
X138785963Y-59535266D01*
X138690725Y-59630504D01*
X138595487Y-59678123D01*
%TO.C,C57*%
X80457142Y-64557142D02*
X80409523Y-64604761D01*
X80266666Y-64652380D01*
X80171428Y-64652380D01*
X80028571Y-64604761D01*
X79933333Y-64509523D01*
X79885714Y-64414285D01*
X79838095Y-64223809D01*
X79838095Y-64080952D01*
X79885714Y-63890476D01*
X79933333Y-63795238D01*
X80028571Y-63700000D01*
X80171428Y-63652380D01*
X80266666Y-63652380D01*
X80409523Y-63700000D01*
X80457142Y-63747619D01*
X81361904Y-63652380D02*
X80885714Y-63652380D01*
X80838095Y-64128571D01*
X80885714Y-64080952D01*
X80980952Y-64033333D01*
X81219047Y-64033333D01*
X81314285Y-64080952D01*
X81361904Y-64128571D01*
X81409523Y-64223809D01*
X81409523Y-64461904D01*
X81361904Y-64557142D01*
X81314285Y-64604761D01*
X81219047Y-64652380D01*
X80980952Y-64652380D01*
X80885714Y-64604761D01*
X80838095Y-64557142D01*
X81742857Y-63652380D02*
X82409523Y-63652380D01*
X81980952Y-64652380D01*
%TO.C,C43*%
X143557142Y-79880357D02*
X143604761Y-79927976D01*
X143652380Y-80070833D01*
X143652380Y-80166071D01*
X143604761Y-80308928D01*
X143509523Y-80404166D01*
X143414285Y-80451785D01*
X143223809Y-80499404D01*
X143080952Y-80499404D01*
X142890476Y-80451785D01*
X142795238Y-80404166D01*
X142700000Y-80308928D01*
X142652380Y-80166071D01*
X142652380Y-80070833D01*
X142700000Y-79927976D01*
X142747619Y-79880357D01*
X142985714Y-79023214D02*
X143652380Y-79023214D01*
X142604761Y-79261309D02*
X143319047Y-79499404D01*
X143319047Y-78880357D01*
X142652380Y-78594642D02*
X142652380Y-77975595D01*
X143033333Y-78308928D01*
X143033333Y-78166071D01*
X143080952Y-78070833D01*
X143128571Y-78023214D01*
X143223809Y-77975595D01*
X143461904Y-77975595D01*
X143557142Y-78023214D01*
X143604761Y-78070833D01*
X143652380Y-78166071D01*
X143652380Y-78451785D01*
X143604761Y-78547023D01*
X143557142Y-78594642D01*
%TO.C,C25*%
X142862153Y-67482885D02*
X142909772Y-67530504D01*
X142957391Y-67673361D01*
X142957391Y-67768599D01*
X142909772Y-67911456D01*
X142814534Y-68006694D01*
X142719296Y-68054313D01*
X142528820Y-68101932D01*
X142385963Y-68101932D01*
X142195487Y-68054313D01*
X142100249Y-68006694D01*
X142005011Y-67911456D01*
X141957391Y-67768599D01*
X141957391Y-67673361D01*
X142005011Y-67530504D01*
X142052630Y-67482885D01*
X142052630Y-67101932D02*
X142005011Y-67054313D01*
X141957391Y-66959075D01*
X141957391Y-66720980D01*
X142005011Y-66625742D01*
X142052630Y-66578123D01*
X142147868Y-66530504D01*
X142243106Y-66530504D01*
X142385963Y-66578123D01*
X142957391Y-67149551D01*
X142957391Y-66530504D01*
X141957391Y-65625742D02*
X141957391Y-66101932D01*
X142433582Y-66149551D01*
X142385963Y-66101932D01*
X142338344Y-66006694D01*
X142338344Y-65768599D01*
X142385963Y-65673361D01*
X142433582Y-65625742D01*
X142528820Y-65578123D01*
X142766915Y-65578123D01*
X142862153Y-65625742D01*
X142909772Y-65673361D01*
X142957391Y-65768599D01*
X142957391Y-66006694D01*
X142909772Y-66101932D01*
X142862153Y-66149551D01*
%TO.C,J8*%
X80866666Y-103602380D02*
X80866666Y-104316666D01*
X80819047Y-104459523D01*
X80723809Y-104554761D01*
X80580952Y-104602380D01*
X80485714Y-104602380D01*
X81485714Y-104030952D02*
X81390476Y-103983333D01*
X81342857Y-103935714D01*
X81295238Y-103840476D01*
X81295238Y-103792857D01*
X81342857Y-103697619D01*
X81390476Y-103650000D01*
X81485714Y-103602380D01*
X81676190Y-103602380D01*
X81771428Y-103650000D01*
X81819047Y-103697619D01*
X81866666Y-103792857D01*
X81866666Y-103840476D01*
X81819047Y-103935714D01*
X81771428Y-103983333D01*
X81676190Y-104030952D01*
X81485714Y-104030952D01*
X81390476Y-104078571D01*
X81342857Y-104126190D01*
X81295238Y-104221428D01*
X81295238Y-104411904D01*
X81342857Y-104507142D01*
X81390476Y-104554761D01*
X81485714Y-104602380D01*
X81676190Y-104602380D01*
X81771428Y-104554761D01*
X81819047Y-104507142D01*
X81866666Y-104411904D01*
X81866666Y-104221428D01*
X81819047Y-104126190D01*
X81771428Y-104078571D01*
X81676190Y-104030952D01*
%TO.C,C33*%
X132157142Y-30357142D02*
X132109523Y-30404761D01*
X131966666Y-30452380D01*
X131871428Y-30452380D01*
X131728571Y-30404761D01*
X131633333Y-30309523D01*
X131585714Y-30214285D01*
X131538095Y-30023809D01*
X131538095Y-29880952D01*
X131585714Y-29690476D01*
X131633333Y-29595238D01*
X131728571Y-29500000D01*
X131871428Y-29452380D01*
X131966666Y-29452380D01*
X132109523Y-29500000D01*
X132157142Y-29547619D01*
X132490476Y-29452380D02*
X133109523Y-29452380D01*
X132776190Y-29833333D01*
X132919047Y-29833333D01*
X133014285Y-29880952D01*
X133061904Y-29928571D01*
X133109523Y-30023809D01*
X133109523Y-30261904D01*
X133061904Y-30357142D01*
X133014285Y-30404761D01*
X132919047Y-30452380D01*
X132633333Y-30452380D01*
X132538095Y-30404761D01*
X132490476Y-30357142D01*
X133442857Y-29452380D02*
X134061904Y-29452380D01*
X133728571Y-29833333D01*
X133871428Y-29833333D01*
X133966666Y-29880952D01*
X134014285Y-29928571D01*
X134061904Y-30023809D01*
X134061904Y-30261904D01*
X134014285Y-30357142D01*
X133966666Y-30404761D01*
X133871428Y-30452380D01*
X133585714Y-30452380D01*
X133490476Y-30404761D01*
X133442857Y-30357142D01*
%TO.C,D2*%
X116261904Y-43202380D02*
X116261904Y-42202380D01*
X116500000Y-42202380D01*
X116642857Y-42250000D01*
X116738095Y-42345238D01*
X116785714Y-42440476D01*
X116833333Y-42630952D01*
X116833333Y-42773809D01*
X116785714Y-42964285D01*
X116738095Y-43059523D01*
X116642857Y-43154761D01*
X116500000Y-43202380D01*
X116261904Y-43202380D01*
X117214285Y-42297619D02*
X117261904Y-42250000D01*
X117357142Y-42202380D01*
X117595238Y-42202380D01*
X117690476Y-42250000D01*
X117738095Y-42297619D01*
X117785714Y-42392857D01*
X117785714Y-42488095D01*
X117738095Y-42630952D01*
X117166666Y-43202380D01*
X117785714Y-43202380D01*
%TO.C,R23*%
X141662153Y-72092408D02*
X141328820Y-71616218D01*
X141090725Y-72092408D02*
X141090725Y-71092408D01*
X141471677Y-71092408D01*
X141566915Y-71140028D01*
X141614534Y-71187647D01*
X141662153Y-71282885D01*
X141662153Y-71425742D01*
X141614534Y-71520980D01*
X141566915Y-71568599D01*
X141471677Y-71616218D01*
X141090725Y-71616218D01*
X142043106Y-71187647D02*
X142090725Y-71140028D01*
X142185963Y-71092408D01*
X142424058Y-71092408D01*
X142519296Y-71140028D01*
X142566915Y-71187647D01*
X142614534Y-71282885D01*
X142614534Y-71378123D01*
X142566915Y-71520980D01*
X141995487Y-72092408D01*
X142614534Y-72092408D01*
X142947868Y-71092408D02*
X143566915Y-71092408D01*
X143233582Y-71473361D01*
X143376439Y-71473361D01*
X143471677Y-71520980D01*
X143519296Y-71568599D01*
X143566915Y-71663837D01*
X143566915Y-71901932D01*
X143519296Y-71997170D01*
X143471677Y-72044789D01*
X143376439Y-72092408D01*
X143090725Y-72092408D01*
X142995487Y-72044789D01*
X142947868Y-71997170D01*
%TO.C,J4*%
X67566666Y-46122380D02*
X67566666Y-46836666D01*
X67519047Y-46979523D01*
X67423809Y-47074761D01*
X67280952Y-47122380D01*
X67185714Y-47122380D01*
X68471428Y-46455714D02*
X68471428Y-47122380D01*
X68233333Y-46074761D02*
X67995238Y-46789047D01*
X68614285Y-46789047D01*
%TO.C,R21*%
X130157142Y-65452380D02*
X129823809Y-64976190D01*
X129585714Y-65452380D02*
X129585714Y-64452380D01*
X129966666Y-64452380D01*
X130061904Y-64500000D01*
X130109523Y-64547619D01*
X130157142Y-64642857D01*
X130157142Y-64785714D01*
X130109523Y-64880952D01*
X130061904Y-64928571D01*
X129966666Y-64976190D01*
X129585714Y-64976190D01*
X130538095Y-64547619D02*
X130585714Y-64500000D01*
X130680952Y-64452380D01*
X130919047Y-64452380D01*
X131014285Y-64500000D01*
X131061904Y-64547619D01*
X131109523Y-64642857D01*
X131109523Y-64738095D01*
X131061904Y-64880952D01*
X130490476Y-65452380D01*
X131109523Y-65452380D01*
X132061904Y-65452380D02*
X131490476Y-65452380D01*
X131776190Y-65452380D02*
X131776190Y-64452380D01*
X131680952Y-64595238D01*
X131585714Y-64690476D01*
X131490476Y-64738095D01*
%TO.C,R49*%
X131857142Y-100952380D02*
X131523809Y-100476190D01*
X131285714Y-100952380D02*
X131285714Y-99952380D01*
X131666666Y-99952380D01*
X131761904Y-100000000D01*
X131809523Y-100047619D01*
X131857142Y-100142857D01*
X131857142Y-100285714D01*
X131809523Y-100380952D01*
X131761904Y-100428571D01*
X131666666Y-100476190D01*
X131285714Y-100476190D01*
X132714285Y-100285714D02*
X132714285Y-100952380D01*
X132476190Y-99904761D02*
X132238095Y-100619047D01*
X132857142Y-100619047D01*
X133285714Y-100952380D02*
X133476190Y-100952380D01*
X133571428Y-100904761D01*
X133619047Y-100857142D01*
X133714285Y-100714285D01*
X133761904Y-100523809D01*
X133761904Y-100142857D01*
X133714285Y-100047619D01*
X133666666Y-100000000D01*
X133571428Y-99952380D01*
X133380952Y-99952380D01*
X133285714Y-100000000D01*
X133238095Y-100047619D01*
X133190476Y-100142857D01*
X133190476Y-100380952D01*
X133238095Y-100476190D01*
X133285714Y-100523809D01*
X133380952Y-100571428D01*
X133571428Y-100571428D01*
X133666666Y-100523809D01*
X133714285Y-100476190D01*
X133761904Y-100380952D01*
%TO.C,R46*%
X118857142Y-61802380D02*
X118523809Y-61326190D01*
X118285714Y-61802380D02*
X118285714Y-60802380D01*
X118666666Y-60802380D01*
X118761904Y-60850000D01*
X118809523Y-60897619D01*
X118857142Y-60992857D01*
X118857142Y-61135714D01*
X118809523Y-61230952D01*
X118761904Y-61278571D01*
X118666666Y-61326190D01*
X118285714Y-61326190D01*
X119714285Y-61135714D02*
X119714285Y-61802380D01*
X119476190Y-60754761D02*
X119238095Y-61469047D01*
X119857142Y-61469047D01*
X120666666Y-60802380D02*
X120476190Y-60802380D01*
X120380952Y-60850000D01*
X120333333Y-60897619D01*
X120238095Y-61040476D01*
X120190476Y-61230952D01*
X120190476Y-61611904D01*
X120238095Y-61707142D01*
X120285714Y-61754761D01*
X120380952Y-61802380D01*
X120571428Y-61802380D01*
X120666666Y-61754761D01*
X120714285Y-61707142D01*
X120761904Y-61611904D01*
X120761904Y-61373809D01*
X120714285Y-61278571D01*
X120666666Y-61230952D01*
X120571428Y-61183333D01*
X120380952Y-61183333D01*
X120285714Y-61230952D01*
X120238095Y-61278571D01*
X120190476Y-61373809D01*
%TO.C,R13*%
X146957391Y-67482885D02*
X146481201Y-67816218D01*
X146957391Y-68054313D02*
X145957391Y-68054313D01*
X145957391Y-67673361D01*
X146005011Y-67578123D01*
X146052630Y-67530504D01*
X146147868Y-67482885D01*
X146290725Y-67482885D01*
X146385963Y-67530504D01*
X146433582Y-67578123D01*
X146481201Y-67673361D01*
X146481201Y-68054313D01*
X146957391Y-66530504D02*
X146957391Y-67101932D01*
X146957391Y-66816218D02*
X145957391Y-66816218D01*
X146100249Y-66911456D01*
X146195487Y-67006694D01*
X146243106Y-67101932D01*
X145957391Y-66197170D02*
X145957391Y-65578123D01*
X146338344Y-65911456D01*
X146338344Y-65768599D01*
X146385963Y-65673361D01*
X146433582Y-65625742D01*
X146528820Y-65578123D01*
X146766915Y-65578123D01*
X146862153Y-65625742D01*
X146909772Y-65673361D01*
X146957391Y-65768599D01*
X146957391Y-66054313D01*
X146909772Y-66149551D01*
X146862153Y-66197170D01*
%TO.C,C2*%
X92657142Y-63329166D02*
X92704761Y-63376785D01*
X92752380Y-63519642D01*
X92752380Y-63614880D01*
X92704761Y-63757738D01*
X92609523Y-63852976D01*
X92514285Y-63900595D01*
X92323809Y-63948214D01*
X92180952Y-63948214D01*
X91990476Y-63900595D01*
X91895238Y-63852976D01*
X91800000Y-63757738D01*
X91752380Y-63614880D01*
X91752380Y-63519642D01*
X91800000Y-63376785D01*
X91847619Y-63329166D01*
X91847619Y-62948214D02*
X91800000Y-62900595D01*
X91752380Y-62805357D01*
X91752380Y-62567261D01*
X91800000Y-62472023D01*
X91847619Y-62424404D01*
X91942857Y-62376785D01*
X92038095Y-62376785D01*
X92180952Y-62424404D01*
X92752380Y-62995833D01*
X92752380Y-62376785D01*
%TO.C,R44*%
X157552380Y-48142857D02*
X157076190Y-48476190D01*
X157552380Y-48714285D02*
X156552380Y-48714285D01*
X156552380Y-48333333D01*
X156600000Y-48238095D01*
X156647619Y-48190476D01*
X156742857Y-48142857D01*
X156885714Y-48142857D01*
X156980952Y-48190476D01*
X157028571Y-48238095D01*
X157076190Y-48333333D01*
X157076190Y-48714285D01*
X156885714Y-47285714D02*
X157552380Y-47285714D01*
X156504761Y-47523809D02*
X157219047Y-47761904D01*
X157219047Y-47142857D01*
X156885714Y-46333333D02*
X157552380Y-46333333D01*
X156504761Y-46571428D02*
X157219047Y-46809523D01*
X157219047Y-46190476D01*
%TO.C,C12*%
X89157142Y-90767857D02*
X89204761Y-90815476D01*
X89252380Y-90958333D01*
X89252380Y-91053571D01*
X89204761Y-91196428D01*
X89109523Y-91291666D01*
X89014285Y-91339285D01*
X88823809Y-91386904D01*
X88680952Y-91386904D01*
X88490476Y-91339285D01*
X88395238Y-91291666D01*
X88300000Y-91196428D01*
X88252380Y-91053571D01*
X88252380Y-90958333D01*
X88300000Y-90815476D01*
X88347619Y-90767857D01*
X89252380Y-89815476D02*
X89252380Y-90386904D01*
X89252380Y-90101190D02*
X88252380Y-90101190D01*
X88395238Y-90196428D01*
X88490476Y-90291666D01*
X88538095Y-90386904D01*
X88347619Y-89434523D02*
X88300000Y-89386904D01*
X88252380Y-89291666D01*
X88252380Y-89053571D01*
X88300000Y-88958333D01*
X88347619Y-88910714D01*
X88442857Y-88863095D01*
X88538095Y-88863095D01*
X88680952Y-88910714D01*
X89252380Y-89482142D01*
X89252380Y-88863095D01*
%TO.C,C23*%
X129957142Y-91057142D02*
X129909523Y-91104761D01*
X129766666Y-91152380D01*
X129671428Y-91152380D01*
X129528571Y-91104761D01*
X129433333Y-91009523D01*
X129385714Y-90914285D01*
X129338095Y-90723809D01*
X129338095Y-90580952D01*
X129385714Y-90390476D01*
X129433333Y-90295238D01*
X129528571Y-90200000D01*
X129671428Y-90152380D01*
X129766666Y-90152380D01*
X129909523Y-90200000D01*
X129957142Y-90247619D01*
X130338095Y-90247619D02*
X130385714Y-90200000D01*
X130480952Y-90152380D01*
X130719047Y-90152380D01*
X130814285Y-90200000D01*
X130861904Y-90247619D01*
X130909523Y-90342857D01*
X130909523Y-90438095D01*
X130861904Y-90580952D01*
X130290476Y-91152380D01*
X130909523Y-91152380D01*
X131242857Y-90152380D02*
X131861904Y-90152380D01*
X131528571Y-90533333D01*
X131671428Y-90533333D01*
X131766666Y-90580952D01*
X131814285Y-90628571D01*
X131861904Y-90723809D01*
X131861904Y-90961904D01*
X131814285Y-91057142D01*
X131766666Y-91104761D01*
X131671428Y-91152380D01*
X131385714Y-91152380D01*
X131290476Y-91104761D01*
X131242857Y-91057142D01*
%TO.C,C31*%
X110257142Y-30357142D02*
X110209523Y-30404761D01*
X110066666Y-30452380D01*
X109971428Y-30452380D01*
X109828571Y-30404761D01*
X109733333Y-30309523D01*
X109685714Y-30214285D01*
X109638095Y-30023809D01*
X109638095Y-29880952D01*
X109685714Y-29690476D01*
X109733333Y-29595238D01*
X109828571Y-29500000D01*
X109971428Y-29452380D01*
X110066666Y-29452380D01*
X110209523Y-29500000D01*
X110257142Y-29547619D01*
X110590476Y-29452380D02*
X111209523Y-29452380D01*
X110876190Y-29833333D01*
X111019047Y-29833333D01*
X111114285Y-29880952D01*
X111161904Y-29928571D01*
X111209523Y-30023809D01*
X111209523Y-30261904D01*
X111161904Y-30357142D01*
X111114285Y-30404761D01*
X111019047Y-30452380D01*
X110733333Y-30452380D01*
X110638095Y-30404761D01*
X110590476Y-30357142D01*
X112161904Y-30452380D02*
X111590476Y-30452380D01*
X111876190Y-30452380D02*
X111876190Y-29452380D01*
X111780952Y-29595238D01*
X111685714Y-29690476D01*
X111590476Y-29738095D01*
%TO.C,R9*%
X128533333Y-83452380D02*
X128200000Y-82976190D01*
X127961904Y-83452380D02*
X127961904Y-82452380D01*
X128342857Y-82452380D01*
X128438095Y-82500000D01*
X128485714Y-82547619D01*
X128533333Y-82642857D01*
X128533333Y-82785714D01*
X128485714Y-82880952D01*
X128438095Y-82928571D01*
X128342857Y-82976190D01*
X127961904Y-82976190D01*
X129009523Y-83452380D02*
X129200000Y-83452380D01*
X129295238Y-83404761D01*
X129342857Y-83357142D01*
X129438095Y-83214285D01*
X129485714Y-83023809D01*
X129485714Y-82642857D01*
X129438095Y-82547619D01*
X129390476Y-82500000D01*
X129295238Y-82452380D01*
X129104761Y-82452380D01*
X129009523Y-82500000D01*
X128961904Y-82547619D01*
X128914285Y-82642857D01*
X128914285Y-82880952D01*
X128961904Y-82976190D01*
X129009523Y-83023809D01*
X129104761Y-83071428D01*
X129295238Y-83071428D01*
X129390476Y-83023809D01*
X129438095Y-82976190D01*
X129485714Y-82880952D01*
%TO.C,R26*%
X158502380Y-80442857D02*
X158026190Y-80776190D01*
X158502380Y-81014285D02*
X157502380Y-81014285D01*
X157502380Y-80633333D01*
X157550000Y-80538095D01*
X157597619Y-80490476D01*
X157692857Y-80442857D01*
X157835714Y-80442857D01*
X157930952Y-80490476D01*
X157978571Y-80538095D01*
X158026190Y-80633333D01*
X158026190Y-81014285D01*
X157597619Y-80061904D02*
X157550000Y-80014285D01*
X157502380Y-79919047D01*
X157502380Y-79680952D01*
X157550000Y-79585714D01*
X157597619Y-79538095D01*
X157692857Y-79490476D01*
X157788095Y-79490476D01*
X157930952Y-79538095D01*
X158502380Y-80109523D01*
X158502380Y-79490476D01*
X157502380Y-78633333D02*
X157502380Y-78823809D01*
X157550000Y-78919047D01*
X157597619Y-78966666D01*
X157740476Y-79061904D01*
X157930952Y-79109523D01*
X158311904Y-79109523D01*
X158407142Y-79061904D01*
X158454761Y-79014285D01*
X158502380Y-78919047D01*
X158502380Y-78728571D01*
X158454761Y-78633333D01*
X158407142Y-78585714D01*
X158311904Y-78538095D01*
X158073809Y-78538095D01*
X157978571Y-78585714D01*
X157930952Y-78633333D01*
X157883333Y-78728571D01*
X157883333Y-78919047D01*
X157930952Y-79014285D01*
X157978571Y-79061904D01*
X158073809Y-79109523D01*
%TO.C,C32*%
X150807142Y-112207142D02*
X150759523Y-112254761D01*
X150616666Y-112302380D01*
X150521428Y-112302380D01*
X150378571Y-112254761D01*
X150283333Y-112159523D01*
X150235714Y-112064285D01*
X150188095Y-111873809D01*
X150188095Y-111730952D01*
X150235714Y-111540476D01*
X150283333Y-111445238D01*
X150378571Y-111350000D01*
X150521428Y-111302380D01*
X150616666Y-111302380D01*
X150759523Y-111350000D01*
X150807142Y-111397619D01*
X151140476Y-111302380D02*
X151759523Y-111302380D01*
X151426190Y-111683333D01*
X151569047Y-111683333D01*
X151664285Y-111730952D01*
X151711904Y-111778571D01*
X151759523Y-111873809D01*
X151759523Y-112111904D01*
X151711904Y-112207142D01*
X151664285Y-112254761D01*
X151569047Y-112302380D01*
X151283333Y-112302380D01*
X151188095Y-112254761D01*
X151140476Y-112207142D01*
X152140476Y-111397619D02*
X152188095Y-111350000D01*
X152283333Y-111302380D01*
X152521428Y-111302380D01*
X152616666Y-111350000D01*
X152664285Y-111397619D01*
X152711904Y-111492857D01*
X152711904Y-111588095D01*
X152664285Y-111730952D01*
X152092857Y-112302380D01*
X152711904Y-112302380D01*
%TO.C,R16*%
X120457391Y-60942857D02*
X119981201Y-61276190D01*
X120457391Y-61514285D02*
X119457391Y-61514285D01*
X119457391Y-61133333D01*
X119505011Y-61038095D01*
X119552630Y-60990476D01*
X119647868Y-60942857D01*
X119790725Y-60942857D01*
X119885963Y-60990476D01*
X119933582Y-61038095D01*
X119981201Y-61133333D01*
X119981201Y-61514285D01*
X120457391Y-59990476D02*
X120457391Y-60561904D01*
X120457391Y-60276190D02*
X119457391Y-60276190D01*
X119600249Y-60371428D01*
X119695487Y-60466666D01*
X119743106Y-60561904D01*
X119457391Y-59133333D02*
X119457391Y-59323809D01*
X119505011Y-59419047D01*
X119552630Y-59466666D01*
X119695487Y-59561904D01*
X119885963Y-59609523D01*
X120266915Y-59609523D01*
X120362153Y-59561904D01*
X120409772Y-59514285D01*
X120457391Y-59419047D01*
X120457391Y-59228571D01*
X120409772Y-59133333D01*
X120362153Y-59085714D01*
X120266915Y-59038095D01*
X120028820Y-59038095D01*
X119933582Y-59085714D01*
X119885963Y-59133333D01*
X119838344Y-59228571D01*
X119838344Y-59419047D01*
X119885963Y-59514285D01*
X119933582Y-59561904D01*
X120028820Y-59609523D01*
%TO.C,U3*%
X98838095Y-112152380D02*
X98838095Y-112961904D01*
X98885714Y-113057142D01*
X98933333Y-113104761D01*
X99028571Y-113152380D01*
X99219047Y-113152380D01*
X99314285Y-113104761D01*
X99361904Y-113057142D01*
X99409523Y-112961904D01*
X99409523Y-112152380D01*
X99790476Y-112152380D02*
X100409523Y-112152380D01*
X100076190Y-112533333D01*
X100219047Y-112533333D01*
X100314285Y-112580952D01*
X100361904Y-112628571D01*
X100409523Y-112723809D01*
X100409523Y-112961904D01*
X100361904Y-113057142D01*
X100314285Y-113104761D01*
X100219047Y-113152380D01*
X99933333Y-113152380D01*
X99838095Y-113104761D01*
X99790476Y-113057142D01*
%TO.C,C6*%
X124470833Y-92177142D02*
X124423214Y-92224761D01*
X124280357Y-92272380D01*
X124185119Y-92272380D01*
X124042261Y-92224761D01*
X123947023Y-92129523D01*
X123899404Y-92034285D01*
X123851785Y-91843809D01*
X123851785Y-91700952D01*
X123899404Y-91510476D01*
X123947023Y-91415238D01*
X124042261Y-91320000D01*
X124185119Y-91272380D01*
X124280357Y-91272380D01*
X124423214Y-91320000D01*
X124470833Y-91367619D01*
X125327976Y-91272380D02*
X125137500Y-91272380D01*
X125042261Y-91320000D01*
X124994642Y-91367619D01*
X124899404Y-91510476D01*
X124851785Y-91700952D01*
X124851785Y-92081904D01*
X124899404Y-92177142D01*
X124947023Y-92224761D01*
X125042261Y-92272380D01*
X125232738Y-92272380D01*
X125327976Y-92224761D01*
X125375595Y-92177142D01*
X125423214Y-92081904D01*
X125423214Y-91843809D01*
X125375595Y-91748571D01*
X125327976Y-91700952D01*
X125232738Y-91653333D01*
X125042261Y-91653333D01*
X124947023Y-91700952D01*
X124899404Y-91748571D01*
X124851785Y-91843809D01*
%TO.C,C44*%
X98557142Y-42357142D02*
X98509523Y-42404761D01*
X98366666Y-42452380D01*
X98271428Y-42452380D01*
X98128571Y-42404761D01*
X98033333Y-42309523D01*
X97985714Y-42214285D01*
X97938095Y-42023809D01*
X97938095Y-41880952D01*
X97985714Y-41690476D01*
X98033333Y-41595238D01*
X98128571Y-41500000D01*
X98271428Y-41452380D01*
X98366666Y-41452380D01*
X98509523Y-41500000D01*
X98557142Y-41547619D01*
X99414285Y-41785714D02*
X99414285Y-42452380D01*
X99176190Y-41404761D02*
X98938095Y-42119047D01*
X99557142Y-42119047D01*
X100366666Y-41785714D02*
X100366666Y-42452380D01*
X100128571Y-41404761D02*
X99890476Y-42119047D01*
X100509523Y-42119047D01*
%TO.C,U11*%
X96052380Y-54738095D02*
X96861904Y-54738095D01*
X96957142Y-54690476D01*
X97004761Y-54642857D01*
X97052380Y-54547619D01*
X97052380Y-54357142D01*
X97004761Y-54261904D01*
X96957142Y-54214285D01*
X96861904Y-54166666D01*
X96052380Y-54166666D01*
X97052380Y-53166666D02*
X97052380Y-53738095D01*
X97052380Y-53452380D02*
X96052380Y-53452380D01*
X96195238Y-53547619D01*
X96290476Y-53642857D01*
X96338095Y-53738095D01*
X97052380Y-52214285D02*
X97052380Y-52785714D01*
X97052380Y-52500000D02*
X96052380Y-52500000D01*
X96195238Y-52595238D01*
X96290476Y-52690476D01*
X96338095Y-52785714D01*
%TO.C,C13*%
X89057142Y-75342857D02*
X89104761Y-75390476D01*
X89152380Y-75533333D01*
X89152380Y-75628571D01*
X89104761Y-75771428D01*
X89009523Y-75866666D01*
X88914285Y-75914285D01*
X88723809Y-75961904D01*
X88580952Y-75961904D01*
X88390476Y-75914285D01*
X88295238Y-75866666D01*
X88200000Y-75771428D01*
X88152380Y-75628571D01*
X88152380Y-75533333D01*
X88200000Y-75390476D01*
X88247619Y-75342857D01*
X89152380Y-74390476D02*
X89152380Y-74961904D01*
X89152380Y-74676190D02*
X88152380Y-74676190D01*
X88295238Y-74771428D01*
X88390476Y-74866666D01*
X88438095Y-74961904D01*
X88152380Y-74057142D02*
X88152380Y-73438095D01*
X88533333Y-73771428D01*
X88533333Y-73628571D01*
X88580952Y-73533333D01*
X88628571Y-73485714D01*
X88723809Y-73438095D01*
X88961904Y-73438095D01*
X89057142Y-73485714D01*
X89104761Y-73533333D01*
X89152380Y-73628571D01*
X89152380Y-73914285D01*
X89104761Y-74009523D01*
X89057142Y-74057142D01*
%TO.C,U1*%
X104238095Y-93332380D02*
X104238095Y-94141904D01*
X104285714Y-94237142D01*
X104333333Y-94284761D01*
X104428571Y-94332380D01*
X104619047Y-94332380D01*
X104714285Y-94284761D01*
X104761904Y-94237142D01*
X104809523Y-94141904D01*
X104809523Y-93332380D01*
X105809523Y-94332380D02*
X105238095Y-94332380D01*
X105523809Y-94332380D02*
X105523809Y-93332380D01*
X105428571Y-93475238D01*
X105333333Y-93570476D01*
X105238095Y-93618095D01*
%TO.C,C16*%
X91057142Y-94342857D02*
X91104761Y-94390476D01*
X91152380Y-94533333D01*
X91152380Y-94628571D01*
X91104761Y-94771428D01*
X91009523Y-94866666D01*
X90914285Y-94914285D01*
X90723809Y-94961904D01*
X90580952Y-94961904D01*
X90390476Y-94914285D01*
X90295238Y-94866666D01*
X90200000Y-94771428D01*
X90152380Y-94628571D01*
X90152380Y-94533333D01*
X90200000Y-94390476D01*
X90247619Y-94342857D01*
X91152380Y-93390476D02*
X91152380Y-93961904D01*
X91152380Y-93676190D02*
X90152380Y-93676190D01*
X90295238Y-93771428D01*
X90390476Y-93866666D01*
X90438095Y-93961904D01*
X90152380Y-92533333D02*
X90152380Y-92723809D01*
X90200000Y-92819047D01*
X90247619Y-92866666D01*
X90390476Y-92961904D01*
X90580952Y-93009523D01*
X90961904Y-93009523D01*
X91057142Y-92961904D01*
X91104761Y-92914285D01*
X91152380Y-92819047D01*
X91152380Y-92628571D01*
X91104761Y-92533333D01*
X91057142Y-92485714D01*
X90961904Y-92438095D01*
X90723809Y-92438095D01*
X90628571Y-92485714D01*
X90580952Y-92533333D01*
X90533333Y-92628571D01*
X90533333Y-92819047D01*
X90580952Y-92914285D01*
X90628571Y-92961904D01*
X90723809Y-93009523D01*
%TO.C,J5*%
X146187380Y-80833333D02*
X146901666Y-80833333D01*
X147044523Y-80880952D01*
X147139761Y-80976190D01*
X147187380Y-81119047D01*
X147187380Y-81214285D01*
X146187380Y-79880952D02*
X146187380Y-80357142D01*
X146663571Y-80404761D01*
X146615952Y-80357142D01*
X146568333Y-80261904D01*
X146568333Y-80023809D01*
X146615952Y-79928571D01*
X146663571Y-79880952D01*
X146758809Y-79833333D01*
X146996904Y-79833333D01*
X147092142Y-79880952D01*
X147139761Y-79928571D01*
X147187380Y-80023809D01*
X147187380Y-80261904D01*
X147139761Y-80357142D01*
X147092142Y-80404761D01*
%TO.C,C27*%
X94257142Y-118657142D02*
X94209523Y-118704761D01*
X94066666Y-118752380D01*
X93971428Y-118752380D01*
X93828571Y-118704761D01*
X93733333Y-118609523D01*
X93685714Y-118514285D01*
X93638095Y-118323809D01*
X93638095Y-118180952D01*
X93685714Y-117990476D01*
X93733333Y-117895238D01*
X93828571Y-117800000D01*
X93971428Y-117752380D01*
X94066666Y-117752380D01*
X94209523Y-117800000D01*
X94257142Y-117847619D01*
X94638095Y-117847619D02*
X94685714Y-117800000D01*
X94780952Y-117752380D01*
X95019047Y-117752380D01*
X95114285Y-117800000D01*
X95161904Y-117847619D01*
X95209523Y-117942857D01*
X95209523Y-118038095D01*
X95161904Y-118180952D01*
X94590476Y-118752380D01*
X95209523Y-118752380D01*
X95542857Y-117752380D02*
X96209523Y-117752380D01*
X95780952Y-118752380D01*
%TO.C,U12*%
X147461904Y-47852380D02*
X147461904Y-48661904D01*
X147509523Y-48757142D01*
X147557142Y-48804761D01*
X147652380Y-48852380D01*
X147842857Y-48852380D01*
X147938095Y-48804761D01*
X147985714Y-48757142D01*
X148033333Y-48661904D01*
X148033333Y-47852380D01*
X149033333Y-48852380D02*
X148461904Y-48852380D01*
X148747619Y-48852380D02*
X148747619Y-47852380D01*
X148652380Y-47995238D01*
X148557142Y-48090476D01*
X148461904Y-48138095D01*
X149414285Y-47947619D02*
X149461904Y-47900000D01*
X149557142Y-47852380D01*
X149795238Y-47852380D01*
X149890476Y-47900000D01*
X149938095Y-47947619D01*
X149985714Y-48042857D01*
X149985714Y-48138095D01*
X149938095Y-48280952D01*
X149366666Y-48852380D01*
X149985714Y-48852380D01*
%TO.C,C1*%
X86857142Y-90691666D02*
X86904761Y-90739285D01*
X86952380Y-90882142D01*
X86952380Y-90977380D01*
X86904761Y-91120238D01*
X86809523Y-91215476D01*
X86714285Y-91263095D01*
X86523809Y-91310714D01*
X86380952Y-91310714D01*
X86190476Y-91263095D01*
X86095238Y-91215476D01*
X86000000Y-91120238D01*
X85952380Y-90977380D01*
X85952380Y-90882142D01*
X86000000Y-90739285D01*
X86047619Y-90691666D01*
X86952380Y-89739285D02*
X86952380Y-90310714D01*
X86952380Y-90025000D02*
X85952380Y-90025000D01*
X86095238Y-90120238D01*
X86190476Y-90215476D01*
X86238095Y-90310714D01*
%TO.C,C19*%
X121862153Y-57197170D02*
X121814534Y-57244789D01*
X121671677Y-57292408D01*
X121576439Y-57292408D01*
X121433582Y-57244789D01*
X121338344Y-57149551D01*
X121290725Y-57054313D01*
X121243106Y-56863837D01*
X121243106Y-56720980D01*
X121290725Y-56530504D01*
X121338344Y-56435266D01*
X121433582Y-56340028D01*
X121576439Y-56292408D01*
X121671677Y-56292408D01*
X121814534Y-56340028D01*
X121862153Y-56387647D01*
X122814534Y-57292408D02*
X122243106Y-57292408D01*
X122528820Y-57292408D02*
X122528820Y-56292408D01*
X122433582Y-56435266D01*
X122338344Y-56530504D01*
X122243106Y-56578123D01*
X123290725Y-57292408D02*
X123481201Y-57292408D01*
X123576439Y-57244789D01*
X123624058Y-57197170D01*
X123719296Y-57054313D01*
X123766915Y-56863837D01*
X123766915Y-56482885D01*
X123719296Y-56387647D01*
X123671677Y-56340028D01*
X123576439Y-56292408D01*
X123385963Y-56292408D01*
X123290725Y-56340028D01*
X123243106Y-56387647D01*
X123195487Y-56482885D01*
X123195487Y-56720980D01*
X123243106Y-56816218D01*
X123290725Y-56863837D01*
X123385963Y-56911456D01*
X123576439Y-56911456D01*
X123671677Y-56863837D01*
X123719296Y-56816218D01*
X123766915Y-56720980D01*
%TO.C,R5*%
X75933333Y-85252380D02*
X75600000Y-84776190D01*
X75361904Y-85252380D02*
X75361904Y-84252380D01*
X75742857Y-84252380D01*
X75838095Y-84300000D01*
X75885714Y-84347619D01*
X75933333Y-84442857D01*
X75933333Y-84585714D01*
X75885714Y-84680952D01*
X75838095Y-84728571D01*
X75742857Y-84776190D01*
X75361904Y-84776190D01*
X76838095Y-84252380D02*
X76361904Y-84252380D01*
X76314285Y-84728571D01*
X76361904Y-84680952D01*
X76457142Y-84633333D01*
X76695238Y-84633333D01*
X76790476Y-84680952D01*
X76838095Y-84728571D01*
X76885714Y-84823809D01*
X76885714Y-85061904D01*
X76838095Y-85157142D01*
X76790476Y-85204761D01*
X76695238Y-85252380D01*
X76457142Y-85252380D01*
X76361904Y-85204761D01*
X76314285Y-85157142D01*
%TO.C,C42*%
X113519642Y-94477142D02*
X113472023Y-94524761D01*
X113329166Y-94572380D01*
X113233928Y-94572380D01*
X113091071Y-94524761D01*
X112995833Y-94429523D01*
X112948214Y-94334285D01*
X112900595Y-94143809D01*
X112900595Y-94000952D01*
X112948214Y-93810476D01*
X112995833Y-93715238D01*
X113091071Y-93620000D01*
X113233928Y-93572380D01*
X113329166Y-93572380D01*
X113472023Y-93620000D01*
X113519642Y-93667619D01*
X114376785Y-93905714D02*
X114376785Y-94572380D01*
X114138690Y-93524761D02*
X113900595Y-94239047D01*
X114519642Y-94239047D01*
X114852976Y-93667619D02*
X114900595Y-93620000D01*
X114995833Y-93572380D01*
X115233928Y-93572380D01*
X115329166Y-93620000D01*
X115376785Y-93667619D01*
X115424404Y-93762857D01*
X115424404Y-93858095D01*
X115376785Y-94000952D01*
X114805357Y-94572380D01*
X115424404Y-94572380D01*
%TO.C,R25*%
X141662153Y-70092408D02*
X141328820Y-69616218D01*
X141090725Y-70092408D02*
X141090725Y-69092408D01*
X141471677Y-69092408D01*
X141566915Y-69140028D01*
X141614534Y-69187647D01*
X141662153Y-69282885D01*
X141662153Y-69425742D01*
X141614534Y-69520980D01*
X141566915Y-69568599D01*
X141471677Y-69616218D01*
X141090725Y-69616218D01*
X142043106Y-69187647D02*
X142090725Y-69140028D01*
X142185963Y-69092408D01*
X142424058Y-69092408D01*
X142519296Y-69140028D01*
X142566915Y-69187647D01*
X142614534Y-69282885D01*
X142614534Y-69378123D01*
X142566915Y-69520980D01*
X141995487Y-70092408D01*
X142614534Y-70092408D01*
X143519296Y-69092408D02*
X143043106Y-69092408D01*
X142995487Y-69568599D01*
X143043106Y-69520980D01*
X143138344Y-69473361D01*
X143376439Y-69473361D01*
X143471677Y-69520980D01*
X143519296Y-69568599D01*
X143566915Y-69663837D01*
X143566915Y-69901932D01*
X143519296Y-69997170D01*
X143471677Y-70044789D01*
X143376439Y-70092408D01*
X143138344Y-70092408D01*
X143043106Y-70044789D01*
X142995487Y-69997170D01*
%TO.C,R34*%
X95457142Y-32752380D02*
X95123809Y-32276190D01*
X94885714Y-32752380D02*
X94885714Y-31752380D01*
X95266666Y-31752380D01*
X95361904Y-31800000D01*
X95409523Y-31847619D01*
X95457142Y-31942857D01*
X95457142Y-32085714D01*
X95409523Y-32180952D01*
X95361904Y-32228571D01*
X95266666Y-32276190D01*
X94885714Y-32276190D01*
X95790476Y-31752380D02*
X96409523Y-31752380D01*
X96076190Y-32133333D01*
X96219047Y-32133333D01*
X96314285Y-32180952D01*
X96361904Y-32228571D01*
X96409523Y-32323809D01*
X96409523Y-32561904D01*
X96361904Y-32657142D01*
X96314285Y-32704761D01*
X96219047Y-32752380D01*
X95933333Y-32752380D01*
X95838095Y-32704761D01*
X95790476Y-32657142D01*
X97266666Y-32085714D02*
X97266666Y-32752380D01*
X97028571Y-31704761D02*
X96790476Y-32419047D01*
X97409523Y-32419047D01*
%TO.C,R38*%
X150907142Y-109702380D02*
X150573809Y-109226190D01*
X150335714Y-109702380D02*
X150335714Y-108702380D01*
X150716666Y-108702380D01*
X150811904Y-108750000D01*
X150859523Y-108797619D01*
X150907142Y-108892857D01*
X150907142Y-109035714D01*
X150859523Y-109130952D01*
X150811904Y-109178571D01*
X150716666Y-109226190D01*
X150335714Y-109226190D01*
X151240476Y-108702380D02*
X151859523Y-108702380D01*
X151526190Y-109083333D01*
X151669047Y-109083333D01*
X151764285Y-109130952D01*
X151811904Y-109178571D01*
X151859523Y-109273809D01*
X151859523Y-109511904D01*
X151811904Y-109607142D01*
X151764285Y-109654761D01*
X151669047Y-109702380D01*
X151383333Y-109702380D01*
X151288095Y-109654761D01*
X151240476Y-109607142D01*
X152430952Y-109130952D02*
X152335714Y-109083333D01*
X152288095Y-109035714D01*
X152240476Y-108940476D01*
X152240476Y-108892857D01*
X152288095Y-108797619D01*
X152335714Y-108750000D01*
X152430952Y-108702380D01*
X152621428Y-108702380D01*
X152716666Y-108750000D01*
X152764285Y-108797619D01*
X152811904Y-108892857D01*
X152811904Y-108940476D01*
X152764285Y-109035714D01*
X152716666Y-109083333D01*
X152621428Y-109130952D01*
X152430952Y-109130952D01*
X152335714Y-109178571D01*
X152288095Y-109226190D01*
X152240476Y-109321428D01*
X152240476Y-109511904D01*
X152288095Y-109607142D01*
X152335714Y-109654761D01*
X152430952Y-109702380D01*
X152621428Y-109702380D01*
X152716666Y-109654761D01*
X152764285Y-109607142D01*
X152811904Y-109511904D01*
X152811904Y-109321428D01*
X152764285Y-109226190D01*
X152716666Y-109178571D01*
X152621428Y-109130952D01*
%TO.C,C35*%
X133257142Y-108042857D02*
X133304761Y-108090476D01*
X133352380Y-108233333D01*
X133352380Y-108328571D01*
X133304761Y-108471428D01*
X133209523Y-108566666D01*
X133114285Y-108614285D01*
X132923809Y-108661904D01*
X132780952Y-108661904D01*
X132590476Y-108614285D01*
X132495238Y-108566666D01*
X132400000Y-108471428D01*
X132352380Y-108328571D01*
X132352380Y-108233333D01*
X132400000Y-108090476D01*
X132447619Y-108042857D01*
X132352380Y-107709523D02*
X132352380Y-107090476D01*
X132733333Y-107423809D01*
X132733333Y-107280952D01*
X132780952Y-107185714D01*
X132828571Y-107138095D01*
X132923809Y-107090476D01*
X133161904Y-107090476D01*
X133257142Y-107138095D01*
X133304761Y-107185714D01*
X133352380Y-107280952D01*
X133352380Y-107566666D01*
X133304761Y-107661904D01*
X133257142Y-107709523D01*
X132352380Y-106185714D02*
X132352380Y-106661904D01*
X132828571Y-106709523D01*
X132780952Y-106661904D01*
X132733333Y-106566666D01*
X132733333Y-106328571D01*
X132780952Y-106233333D01*
X132828571Y-106185714D01*
X132923809Y-106138095D01*
X133161904Y-106138095D01*
X133257142Y-106185714D01*
X133304761Y-106233333D01*
X133352380Y-106328571D01*
X133352380Y-106566666D01*
X133304761Y-106661904D01*
X133257142Y-106709523D01*
%TO.C,R15*%
X144957391Y-67282885D02*
X144481201Y-67616218D01*
X144957391Y-67854313D02*
X143957391Y-67854313D01*
X143957391Y-67473361D01*
X144005011Y-67378123D01*
X144052630Y-67330504D01*
X144147868Y-67282885D01*
X144290725Y-67282885D01*
X144385963Y-67330504D01*
X144433582Y-67378123D01*
X144481201Y-67473361D01*
X144481201Y-67854313D01*
X144957391Y-66330504D02*
X144957391Y-66901932D01*
X144957391Y-66616218D02*
X143957391Y-66616218D01*
X144100249Y-66711456D01*
X144195487Y-66806694D01*
X144243106Y-66901932D01*
X143957391Y-65425742D02*
X143957391Y-65901932D01*
X144433582Y-65949551D01*
X144385963Y-65901932D01*
X144338344Y-65806694D01*
X144338344Y-65568599D01*
X144385963Y-65473361D01*
X144433582Y-65425742D01*
X144528820Y-65378123D01*
X144766915Y-65378123D01*
X144862153Y-65425742D01*
X144909772Y-65473361D01*
X144957391Y-65568599D01*
X144957391Y-65806694D01*
X144909772Y-65901932D01*
X144862153Y-65949551D01*
%TO.C,C58*%
X70457142Y-45957142D02*
X70409523Y-46004761D01*
X70266666Y-46052380D01*
X70171428Y-46052380D01*
X70028571Y-46004761D01*
X69933333Y-45909523D01*
X69885714Y-45814285D01*
X69838095Y-45623809D01*
X69838095Y-45480952D01*
X69885714Y-45290476D01*
X69933333Y-45195238D01*
X70028571Y-45100000D01*
X70171428Y-45052380D01*
X70266666Y-45052380D01*
X70409523Y-45100000D01*
X70457142Y-45147619D01*
X71361904Y-45052380D02*
X70885714Y-45052380D01*
X70838095Y-45528571D01*
X70885714Y-45480952D01*
X70980952Y-45433333D01*
X71219047Y-45433333D01*
X71314285Y-45480952D01*
X71361904Y-45528571D01*
X71409523Y-45623809D01*
X71409523Y-45861904D01*
X71361904Y-45957142D01*
X71314285Y-46004761D01*
X71219047Y-46052380D01*
X70980952Y-46052380D01*
X70885714Y-46004761D01*
X70838095Y-45957142D01*
X71980952Y-45480952D02*
X71885714Y-45433333D01*
X71838095Y-45385714D01*
X71790476Y-45290476D01*
X71790476Y-45242857D01*
X71838095Y-45147619D01*
X71885714Y-45100000D01*
X71980952Y-45052380D01*
X72171428Y-45052380D01*
X72266666Y-45100000D01*
X72314285Y-45147619D01*
X72361904Y-45242857D01*
X72361904Y-45290476D01*
X72314285Y-45385714D01*
X72266666Y-45433333D01*
X72171428Y-45480952D01*
X71980952Y-45480952D01*
X71885714Y-45528571D01*
X71838095Y-45576190D01*
X71790476Y-45671428D01*
X71790476Y-45861904D01*
X71838095Y-45957142D01*
X71885714Y-46004761D01*
X71980952Y-46052380D01*
X72171428Y-46052380D01*
X72266666Y-46004761D01*
X72314285Y-45957142D01*
X72361904Y-45861904D01*
X72361904Y-45671428D01*
X72314285Y-45576190D01*
X72266666Y-45528571D01*
X72171428Y-45480952D01*
%TO.C,R33*%
X153752380Y-47742857D02*
X153276190Y-48076190D01*
X153752380Y-48314285D02*
X152752380Y-48314285D01*
X152752380Y-47933333D01*
X152800000Y-47838095D01*
X152847619Y-47790476D01*
X152942857Y-47742857D01*
X153085714Y-47742857D01*
X153180952Y-47790476D01*
X153228571Y-47838095D01*
X153276190Y-47933333D01*
X153276190Y-48314285D01*
X152752380Y-47409523D02*
X152752380Y-46790476D01*
X153133333Y-47123809D01*
X153133333Y-46980952D01*
X153180952Y-46885714D01*
X153228571Y-46838095D01*
X153323809Y-46790476D01*
X153561904Y-46790476D01*
X153657142Y-46838095D01*
X153704761Y-46885714D01*
X153752380Y-46980952D01*
X153752380Y-47266666D01*
X153704761Y-47361904D01*
X153657142Y-47409523D01*
X152752380Y-46457142D02*
X152752380Y-45838095D01*
X153133333Y-46171428D01*
X153133333Y-46028571D01*
X153180952Y-45933333D01*
X153228571Y-45885714D01*
X153323809Y-45838095D01*
X153561904Y-45838095D01*
X153657142Y-45885714D01*
X153704761Y-45933333D01*
X153752380Y-46028571D01*
X153752380Y-46314285D01*
X153704761Y-46409523D01*
X153657142Y-46457142D01*
%TO.C,C11*%
X114294642Y-61777142D02*
X114247023Y-61824761D01*
X114104166Y-61872380D01*
X114008928Y-61872380D01*
X113866071Y-61824761D01*
X113770833Y-61729523D01*
X113723214Y-61634285D01*
X113675595Y-61443809D01*
X113675595Y-61300952D01*
X113723214Y-61110476D01*
X113770833Y-61015238D01*
X113866071Y-60920000D01*
X114008928Y-60872380D01*
X114104166Y-60872380D01*
X114247023Y-60920000D01*
X114294642Y-60967619D01*
X115247023Y-61872380D02*
X114675595Y-61872380D01*
X114961309Y-61872380D02*
X114961309Y-60872380D01*
X114866071Y-61015238D01*
X114770833Y-61110476D01*
X114675595Y-61158095D01*
X116199404Y-61872380D02*
X115627976Y-61872380D01*
X115913690Y-61872380D02*
X115913690Y-60872380D01*
X115818452Y-61015238D01*
X115723214Y-61110476D01*
X115627976Y-61158095D01*
%TO.C,SW2*%
X135666666Y-80044761D02*
X135809523Y-80092380D01*
X136047619Y-80092380D01*
X136142857Y-80044761D01*
X136190476Y-79997142D01*
X136238095Y-79901904D01*
X136238095Y-79806666D01*
X136190476Y-79711428D01*
X136142857Y-79663809D01*
X136047619Y-79616190D01*
X135857142Y-79568571D01*
X135761904Y-79520952D01*
X135714285Y-79473333D01*
X135666666Y-79378095D01*
X135666666Y-79282857D01*
X135714285Y-79187619D01*
X135761904Y-79140000D01*
X135857142Y-79092380D01*
X136095238Y-79092380D01*
X136238095Y-79140000D01*
X136571428Y-79092380D02*
X136809523Y-80092380D01*
X137000000Y-79378095D01*
X137190476Y-80092380D01*
X137428571Y-79092380D01*
X137761904Y-79187619D02*
X137809523Y-79140000D01*
X137904761Y-79092380D01*
X138142857Y-79092380D01*
X138238095Y-79140000D01*
X138285714Y-79187619D01*
X138333333Y-79282857D01*
X138333333Y-79378095D01*
X138285714Y-79520952D01*
X137714285Y-80092380D01*
X138333333Y-80092380D01*
%TO.C,R2*%
X87452380Y-115166666D02*
X86976190Y-115500000D01*
X87452380Y-115738095D02*
X86452380Y-115738095D01*
X86452380Y-115357142D01*
X86500000Y-115261904D01*
X86547619Y-115214285D01*
X86642857Y-115166666D01*
X86785714Y-115166666D01*
X86880952Y-115214285D01*
X86928571Y-115261904D01*
X86976190Y-115357142D01*
X86976190Y-115738095D01*
X86547619Y-114785714D02*
X86500000Y-114738095D01*
X86452380Y-114642857D01*
X86452380Y-114404761D01*
X86500000Y-114309523D01*
X86547619Y-114261904D01*
X86642857Y-114214285D01*
X86738095Y-114214285D01*
X86880952Y-114261904D01*
X87452380Y-114833333D01*
X87452380Y-114214285D01*
%TO.C,C26*%
X81757142Y-91857142D02*
X81709523Y-91904761D01*
X81566666Y-91952380D01*
X81471428Y-91952380D01*
X81328571Y-91904761D01*
X81233333Y-91809523D01*
X81185714Y-91714285D01*
X81138095Y-91523809D01*
X81138095Y-91380952D01*
X81185714Y-91190476D01*
X81233333Y-91095238D01*
X81328571Y-91000000D01*
X81471428Y-90952380D01*
X81566666Y-90952380D01*
X81709523Y-91000000D01*
X81757142Y-91047619D01*
X82138095Y-91047619D02*
X82185714Y-91000000D01*
X82280952Y-90952380D01*
X82519047Y-90952380D01*
X82614285Y-91000000D01*
X82661904Y-91047619D01*
X82709523Y-91142857D01*
X82709523Y-91238095D01*
X82661904Y-91380952D01*
X82090476Y-91952380D01*
X82709523Y-91952380D01*
X83566666Y-90952380D02*
X83376190Y-90952380D01*
X83280952Y-91000000D01*
X83233333Y-91047619D01*
X83138095Y-91190476D01*
X83090476Y-91380952D01*
X83090476Y-91761904D01*
X83138095Y-91857142D01*
X83185714Y-91904761D01*
X83280952Y-91952380D01*
X83471428Y-91952380D01*
X83566666Y-91904761D01*
X83614285Y-91857142D01*
X83661904Y-91761904D01*
X83661904Y-91523809D01*
X83614285Y-91428571D01*
X83566666Y-91380952D01*
X83471428Y-91333333D01*
X83280952Y-91333333D01*
X83185714Y-91380952D01*
X83138095Y-91428571D01*
X83090476Y-91523809D01*
%TO.C,R10*%
X121957142Y-49252380D02*
X121623809Y-48776190D01*
X121385714Y-49252380D02*
X121385714Y-48252380D01*
X121766666Y-48252380D01*
X121861904Y-48300000D01*
X121909523Y-48347619D01*
X121957142Y-48442857D01*
X121957142Y-48585714D01*
X121909523Y-48680952D01*
X121861904Y-48728571D01*
X121766666Y-48776190D01*
X121385714Y-48776190D01*
X122909523Y-49252380D02*
X122338095Y-49252380D01*
X122623809Y-49252380D02*
X122623809Y-48252380D01*
X122528571Y-48395238D01*
X122433333Y-48490476D01*
X122338095Y-48538095D01*
X123528571Y-48252380D02*
X123623809Y-48252380D01*
X123719047Y-48300000D01*
X123766666Y-48347619D01*
X123814285Y-48442857D01*
X123861904Y-48633333D01*
X123861904Y-48871428D01*
X123814285Y-49061904D01*
X123766666Y-49157142D01*
X123719047Y-49204761D01*
X123623809Y-49252380D01*
X123528571Y-49252380D01*
X123433333Y-49204761D01*
X123385714Y-49157142D01*
X123338095Y-49061904D01*
X123290476Y-48871428D01*
X123290476Y-48633333D01*
X123338095Y-48442857D01*
X123385714Y-48347619D01*
X123433333Y-48300000D01*
X123528571Y-48252380D01*
%TO.C,R35*%
X140252380Y-50742857D02*
X139776190Y-51076190D01*
X140252380Y-51314285D02*
X139252380Y-51314285D01*
X139252380Y-50933333D01*
X139300000Y-50838095D01*
X139347619Y-50790476D01*
X139442857Y-50742857D01*
X139585714Y-50742857D01*
X139680952Y-50790476D01*
X139728571Y-50838095D01*
X139776190Y-50933333D01*
X139776190Y-51314285D01*
X139252380Y-50409523D02*
X139252380Y-49790476D01*
X139633333Y-50123809D01*
X139633333Y-49980952D01*
X139680952Y-49885714D01*
X139728571Y-49838095D01*
X139823809Y-49790476D01*
X140061904Y-49790476D01*
X140157142Y-49838095D01*
X140204761Y-49885714D01*
X140252380Y-49980952D01*
X140252380Y-50266666D01*
X140204761Y-50361904D01*
X140157142Y-50409523D01*
X139252380Y-48885714D02*
X139252380Y-49361904D01*
X139728571Y-49409523D01*
X139680952Y-49361904D01*
X139633333Y-49266666D01*
X139633333Y-49028571D01*
X139680952Y-48933333D01*
X139728571Y-48885714D01*
X139823809Y-48838095D01*
X140061904Y-48838095D01*
X140157142Y-48885714D01*
X140204761Y-48933333D01*
X140252380Y-49028571D01*
X140252380Y-49266666D01*
X140204761Y-49361904D01*
X140157142Y-49409523D01*
%TO.C,U2*%
X134257391Y-60721932D02*
X135066915Y-60721932D01*
X135162153Y-60674313D01*
X135209772Y-60626694D01*
X135257391Y-60531456D01*
X135257391Y-60340980D01*
X135209772Y-60245742D01*
X135162153Y-60198123D01*
X135066915Y-60150504D01*
X134257391Y-60150504D01*
X134352630Y-59721932D02*
X134305011Y-59674313D01*
X134257391Y-59579075D01*
X134257391Y-59340980D01*
X134305011Y-59245742D01*
X134352630Y-59198123D01*
X134447868Y-59150504D01*
X134543106Y-59150504D01*
X134685963Y-59198123D01*
X135257391Y-59769551D01*
X135257391Y-59150504D01*
%TO.C,C38*%
X121157142Y-30357142D02*
X121109523Y-30404761D01*
X120966666Y-30452380D01*
X120871428Y-30452380D01*
X120728571Y-30404761D01*
X120633333Y-30309523D01*
X120585714Y-30214285D01*
X120538095Y-30023809D01*
X120538095Y-29880952D01*
X120585714Y-29690476D01*
X120633333Y-29595238D01*
X120728571Y-29500000D01*
X120871428Y-29452380D01*
X120966666Y-29452380D01*
X121109523Y-29500000D01*
X121157142Y-29547619D01*
X121490476Y-29452380D02*
X122109523Y-29452380D01*
X121776190Y-29833333D01*
X121919047Y-29833333D01*
X122014285Y-29880952D01*
X122061904Y-29928571D01*
X122109523Y-30023809D01*
X122109523Y-30261904D01*
X122061904Y-30357142D01*
X122014285Y-30404761D01*
X121919047Y-30452380D01*
X121633333Y-30452380D01*
X121538095Y-30404761D01*
X121490476Y-30357142D01*
X122680952Y-29880952D02*
X122585714Y-29833333D01*
X122538095Y-29785714D01*
X122490476Y-29690476D01*
X122490476Y-29642857D01*
X122538095Y-29547619D01*
X122585714Y-29500000D01*
X122680952Y-29452380D01*
X122871428Y-29452380D01*
X122966666Y-29500000D01*
X123014285Y-29547619D01*
X123061904Y-29642857D01*
X123061904Y-29690476D01*
X123014285Y-29785714D01*
X122966666Y-29833333D01*
X122871428Y-29880952D01*
X122680952Y-29880952D01*
X122585714Y-29928571D01*
X122538095Y-29976190D01*
X122490476Y-30071428D01*
X122490476Y-30261904D01*
X122538095Y-30357142D01*
X122585714Y-30404761D01*
X122680952Y-30452380D01*
X122871428Y-30452380D01*
X122966666Y-30404761D01*
X123014285Y-30357142D01*
X123061904Y-30261904D01*
X123061904Y-30071428D01*
X123014285Y-29976190D01*
X122966666Y-29928571D01*
X122871428Y-29880952D01*
%TO.C,R48*%
X134857142Y-118302380D02*
X134523809Y-117826190D01*
X134285714Y-118302380D02*
X134285714Y-117302380D01*
X134666666Y-117302380D01*
X134761904Y-117350000D01*
X134809523Y-117397619D01*
X134857142Y-117492857D01*
X134857142Y-117635714D01*
X134809523Y-117730952D01*
X134761904Y-117778571D01*
X134666666Y-117826190D01*
X134285714Y-117826190D01*
X135714285Y-117635714D02*
X135714285Y-118302380D01*
X135476190Y-117254761D02*
X135238095Y-117969047D01*
X135857142Y-117969047D01*
X136380952Y-117730952D02*
X136285714Y-117683333D01*
X136238095Y-117635714D01*
X136190476Y-117540476D01*
X136190476Y-117492857D01*
X136238095Y-117397619D01*
X136285714Y-117350000D01*
X136380952Y-117302380D01*
X136571428Y-117302380D01*
X136666666Y-117350000D01*
X136714285Y-117397619D01*
X136761904Y-117492857D01*
X136761904Y-117540476D01*
X136714285Y-117635714D01*
X136666666Y-117683333D01*
X136571428Y-117730952D01*
X136380952Y-117730952D01*
X136285714Y-117778571D01*
X136238095Y-117826190D01*
X136190476Y-117921428D01*
X136190476Y-118111904D01*
X136238095Y-118207142D01*
X136285714Y-118254761D01*
X136380952Y-118302380D01*
X136571428Y-118302380D01*
X136666666Y-118254761D01*
X136714285Y-118207142D01*
X136761904Y-118111904D01*
X136761904Y-117921428D01*
X136714285Y-117826190D01*
X136666666Y-117778571D01*
X136571428Y-117730952D01*
%TO.C,R1*%
X89452380Y-116266666D02*
X88976190Y-116600000D01*
X89452380Y-116838095D02*
X88452380Y-116838095D01*
X88452380Y-116457142D01*
X88500000Y-116361904D01*
X88547619Y-116314285D01*
X88642857Y-116266666D01*
X88785714Y-116266666D01*
X88880952Y-116314285D01*
X88928571Y-116361904D01*
X88976190Y-116457142D01*
X88976190Y-116838095D01*
X89452380Y-115314285D02*
X89452380Y-115885714D01*
X89452380Y-115600000D02*
X88452380Y-115600000D01*
X88595238Y-115695238D01*
X88690476Y-115790476D01*
X88738095Y-115885714D01*
%TO.C,U10*%
X133952380Y-112138095D02*
X134761904Y-112138095D01*
X134857142Y-112090476D01*
X134904761Y-112042857D01*
X134952380Y-111947619D01*
X134952380Y-111757142D01*
X134904761Y-111661904D01*
X134857142Y-111614285D01*
X134761904Y-111566666D01*
X133952380Y-111566666D01*
X134952380Y-110566666D02*
X134952380Y-111138095D01*
X134952380Y-110852380D02*
X133952380Y-110852380D01*
X134095238Y-110947619D01*
X134190476Y-111042857D01*
X134238095Y-111138095D01*
X133952380Y-109947619D02*
X133952380Y-109852380D01*
X134000000Y-109757142D01*
X134047619Y-109709523D01*
X134142857Y-109661904D01*
X134333333Y-109614285D01*
X134571428Y-109614285D01*
X134761904Y-109661904D01*
X134857142Y-109709523D01*
X134904761Y-109757142D01*
X134952380Y-109852380D01*
X134952380Y-109947619D01*
X134904761Y-110042857D01*
X134857142Y-110090476D01*
X134761904Y-110138095D01*
X134571428Y-110185714D01*
X134333333Y-110185714D01*
X134142857Y-110138095D01*
X134047619Y-110090476D01*
X134000000Y-110042857D01*
X133952380Y-109947619D01*
%TO.C,C30*%
X141657142Y-106657142D02*
X141609523Y-106704761D01*
X141466666Y-106752380D01*
X141371428Y-106752380D01*
X141228571Y-106704761D01*
X141133333Y-106609523D01*
X141085714Y-106514285D01*
X141038095Y-106323809D01*
X141038095Y-106180952D01*
X141085714Y-105990476D01*
X141133333Y-105895238D01*
X141228571Y-105800000D01*
X141371428Y-105752380D01*
X141466666Y-105752380D01*
X141609523Y-105800000D01*
X141657142Y-105847619D01*
X141990476Y-105752380D02*
X142609523Y-105752380D01*
X142276190Y-106133333D01*
X142419047Y-106133333D01*
X142514285Y-106180952D01*
X142561904Y-106228571D01*
X142609523Y-106323809D01*
X142609523Y-106561904D01*
X142561904Y-106657142D01*
X142514285Y-106704761D01*
X142419047Y-106752380D01*
X142133333Y-106752380D01*
X142038095Y-106704761D01*
X141990476Y-106657142D01*
X143228571Y-105752380D02*
X143323809Y-105752380D01*
X143419047Y-105800000D01*
X143466666Y-105847619D01*
X143514285Y-105942857D01*
X143561904Y-106133333D01*
X143561904Y-106371428D01*
X143514285Y-106561904D01*
X143466666Y-106657142D01*
X143419047Y-106704761D01*
X143323809Y-106752380D01*
X143228571Y-106752380D01*
X143133333Y-106704761D01*
X143085714Y-106657142D01*
X143038095Y-106561904D01*
X142990476Y-106371428D01*
X142990476Y-106133333D01*
X143038095Y-105942857D01*
X143085714Y-105847619D01*
X143133333Y-105800000D01*
X143228571Y-105752380D01*
%TO.C,C5*%
X97857142Y-63291666D02*
X97904761Y-63339285D01*
X97952380Y-63482142D01*
X97952380Y-63577380D01*
X97904761Y-63720238D01*
X97809523Y-63815476D01*
X97714285Y-63863095D01*
X97523809Y-63910714D01*
X97380952Y-63910714D01*
X97190476Y-63863095D01*
X97095238Y-63815476D01*
X97000000Y-63720238D01*
X96952380Y-63577380D01*
X96952380Y-63482142D01*
X97000000Y-63339285D01*
X97047619Y-63291666D01*
X96952380Y-62386904D02*
X96952380Y-62863095D01*
X97428571Y-62910714D01*
X97380952Y-62863095D01*
X97333333Y-62767857D01*
X97333333Y-62529761D01*
X97380952Y-62434523D01*
X97428571Y-62386904D01*
X97523809Y-62339285D01*
X97761904Y-62339285D01*
X97857142Y-62386904D01*
X97904761Y-62434523D01*
X97952380Y-62529761D01*
X97952380Y-62767857D01*
X97904761Y-62863095D01*
X97857142Y-62910714D01*
%TO.C,C8*%
X108833333Y-98357142D02*
X108785714Y-98404761D01*
X108642857Y-98452380D01*
X108547619Y-98452380D01*
X108404761Y-98404761D01*
X108309523Y-98309523D01*
X108261904Y-98214285D01*
X108214285Y-98023809D01*
X108214285Y-97880952D01*
X108261904Y-97690476D01*
X108309523Y-97595238D01*
X108404761Y-97500000D01*
X108547619Y-97452380D01*
X108642857Y-97452380D01*
X108785714Y-97500000D01*
X108833333Y-97547619D01*
X109404761Y-97880952D02*
X109309523Y-97833333D01*
X109261904Y-97785714D01*
X109214285Y-97690476D01*
X109214285Y-97642857D01*
X109261904Y-97547619D01*
X109309523Y-97500000D01*
X109404761Y-97452380D01*
X109595238Y-97452380D01*
X109690476Y-97500000D01*
X109738095Y-97547619D01*
X109785714Y-97642857D01*
X109785714Y-97690476D01*
X109738095Y-97785714D01*
X109690476Y-97833333D01*
X109595238Y-97880952D01*
X109404761Y-97880952D01*
X109309523Y-97928571D01*
X109261904Y-97976190D01*
X109214285Y-98071428D01*
X109214285Y-98261904D01*
X109261904Y-98357142D01*
X109309523Y-98404761D01*
X109404761Y-98452380D01*
X109595238Y-98452380D01*
X109690476Y-98404761D01*
X109738095Y-98357142D01*
X109785714Y-98261904D01*
X109785714Y-98071428D01*
X109738095Y-97976190D01*
X109690476Y-97928571D01*
X109595238Y-97880952D01*
%TO.C,R32*%
X98757142Y-118652380D02*
X98423809Y-118176190D01*
X98185714Y-118652380D02*
X98185714Y-117652380D01*
X98566666Y-117652380D01*
X98661904Y-117700000D01*
X98709523Y-117747619D01*
X98757142Y-117842857D01*
X98757142Y-117985714D01*
X98709523Y-118080952D01*
X98661904Y-118128571D01*
X98566666Y-118176190D01*
X98185714Y-118176190D01*
X99090476Y-117652380D02*
X99709523Y-117652380D01*
X99376190Y-118033333D01*
X99519047Y-118033333D01*
X99614285Y-118080952D01*
X99661904Y-118128571D01*
X99709523Y-118223809D01*
X99709523Y-118461904D01*
X99661904Y-118557142D01*
X99614285Y-118604761D01*
X99519047Y-118652380D01*
X99233333Y-118652380D01*
X99138095Y-118604761D01*
X99090476Y-118557142D01*
X100090476Y-117747619D02*
X100138095Y-117700000D01*
X100233333Y-117652380D01*
X100471428Y-117652380D01*
X100566666Y-117700000D01*
X100614285Y-117747619D01*
X100661904Y-117842857D01*
X100661904Y-117938095D01*
X100614285Y-118080952D01*
X100042857Y-118652380D01*
X100661904Y-118652380D01*
%TO.C,R42*%
X107702380Y-48642857D02*
X107226190Y-48976190D01*
X107702380Y-49214285D02*
X106702380Y-49214285D01*
X106702380Y-48833333D01*
X106750000Y-48738095D01*
X106797619Y-48690476D01*
X106892857Y-48642857D01*
X107035714Y-48642857D01*
X107130952Y-48690476D01*
X107178571Y-48738095D01*
X107226190Y-48833333D01*
X107226190Y-49214285D01*
X107035714Y-47785714D02*
X107702380Y-47785714D01*
X106654761Y-48023809D02*
X107369047Y-48261904D01*
X107369047Y-47642857D01*
X106797619Y-47309523D02*
X106750000Y-47261904D01*
X106702380Y-47166666D01*
X106702380Y-46928571D01*
X106750000Y-46833333D01*
X106797619Y-46785714D01*
X106892857Y-46738095D01*
X106988095Y-46738095D01*
X107130952Y-46785714D01*
X107702380Y-47357142D01*
X107702380Y-46738095D01*
%TO.C,R37*%
X142557142Y-55052380D02*
X142223809Y-54576190D01*
X141985714Y-55052380D02*
X141985714Y-54052380D01*
X142366666Y-54052380D01*
X142461904Y-54100000D01*
X142509523Y-54147619D01*
X142557142Y-54242857D01*
X142557142Y-54385714D01*
X142509523Y-54480952D01*
X142461904Y-54528571D01*
X142366666Y-54576190D01*
X141985714Y-54576190D01*
X142890476Y-54052380D02*
X143509523Y-54052380D01*
X143176190Y-54433333D01*
X143319047Y-54433333D01*
X143414285Y-54480952D01*
X143461904Y-54528571D01*
X143509523Y-54623809D01*
X143509523Y-54861904D01*
X143461904Y-54957142D01*
X143414285Y-55004761D01*
X143319047Y-55052380D01*
X143033333Y-55052380D01*
X142938095Y-55004761D01*
X142890476Y-54957142D01*
X143842857Y-54052380D02*
X144509523Y-54052380D01*
X144080952Y-55052380D01*
%TO.C,R39*%
X145352380Y-111242857D02*
X144876190Y-111576190D01*
X145352380Y-111814285D02*
X144352380Y-111814285D01*
X144352380Y-111433333D01*
X144400000Y-111338095D01*
X144447619Y-111290476D01*
X144542857Y-111242857D01*
X144685714Y-111242857D01*
X144780952Y-111290476D01*
X144828571Y-111338095D01*
X144876190Y-111433333D01*
X144876190Y-111814285D01*
X144352380Y-110909523D02*
X144352380Y-110290476D01*
X144733333Y-110623809D01*
X144733333Y-110480952D01*
X144780952Y-110385714D01*
X144828571Y-110338095D01*
X144923809Y-110290476D01*
X145161904Y-110290476D01*
X145257142Y-110338095D01*
X145304761Y-110385714D01*
X145352380Y-110480952D01*
X145352380Y-110766666D01*
X145304761Y-110861904D01*
X145257142Y-110909523D01*
X145352380Y-109814285D02*
X145352380Y-109623809D01*
X145304761Y-109528571D01*
X145257142Y-109480952D01*
X145114285Y-109385714D01*
X144923809Y-109338095D01*
X144542857Y-109338095D01*
X144447619Y-109385714D01*
X144400000Y-109433333D01*
X144352380Y-109528571D01*
X144352380Y-109719047D01*
X144400000Y-109814285D01*
X144447619Y-109861904D01*
X144542857Y-109909523D01*
X144780952Y-109909523D01*
X144876190Y-109861904D01*
X144923809Y-109814285D01*
X144971428Y-109719047D01*
X144971428Y-109528571D01*
X144923809Y-109433333D01*
X144876190Y-109385714D01*
X144780952Y-109338095D01*
%TO.C,C53*%
X84857142Y-44477142D02*
X84809523Y-44524761D01*
X84666666Y-44572380D01*
X84571428Y-44572380D01*
X84428571Y-44524761D01*
X84333333Y-44429523D01*
X84285714Y-44334285D01*
X84238095Y-44143809D01*
X84238095Y-44000952D01*
X84285714Y-43810476D01*
X84333333Y-43715238D01*
X84428571Y-43620000D01*
X84571428Y-43572380D01*
X84666666Y-43572380D01*
X84809523Y-43620000D01*
X84857142Y-43667619D01*
X85761904Y-43572380D02*
X85285714Y-43572380D01*
X85238095Y-44048571D01*
X85285714Y-44000952D01*
X85380952Y-43953333D01*
X85619047Y-43953333D01*
X85714285Y-44000952D01*
X85761904Y-44048571D01*
X85809523Y-44143809D01*
X85809523Y-44381904D01*
X85761904Y-44477142D01*
X85714285Y-44524761D01*
X85619047Y-44572380D01*
X85380952Y-44572380D01*
X85285714Y-44524761D01*
X85238095Y-44477142D01*
X86142857Y-43572380D02*
X86761904Y-43572380D01*
X86428571Y-43953333D01*
X86571428Y-43953333D01*
X86666666Y-44000952D01*
X86714285Y-44048571D01*
X86761904Y-44143809D01*
X86761904Y-44381904D01*
X86714285Y-44477142D01*
X86666666Y-44524761D01*
X86571428Y-44572380D01*
X86285714Y-44572380D01*
X86190476Y-44524761D01*
X86142857Y-44477142D01*
%TO.C,C7*%
X100970833Y-59077142D02*
X100923214Y-59124761D01*
X100780357Y-59172380D01*
X100685119Y-59172380D01*
X100542261Y-59124761D01*
X100447023Y-59029523D01*
X100399404Y-58934285D01*
X100351785Y-58743809D01*
X100351785Y-58600952D01*
X100399404Y-58410476D01*
X100447023Y-58315238D01*
X100542261Y-58220000D01*
X100685119Y-58172380D01*
X100780357Y-58172380D01*
X100923214Y-58220000D01*
X100970833Y-58267619D01*
X101304166Y-58172380D02*
X101970833Y-58172380D01*
X101542261Y-59172380D01*
%TO.C,SW1*%
X74804761Y-99733333D02*
X74852380Y-99590476D01*
X74852380Y-99352380D01*
X74804761Y-99257142D01*
X74757142Y-99209523D01*
X74661904Y-99161904D01*
X74566666Y-99161904D01*
X74471428Y-99209523D01*
X74423809Y-99257142D01*
X74376190Y-99352380D01*
X74328571Y-99542857D01*
X74280952Y-99638095D01*
X74233333Y-99685714D01*
X74138095Y-99733333D01*
X74042857Y-99733333D01*
X73947619Y-99685714D01*
X73900000Y-99638095D01*
X73852380Y-99542857D01*
X73852380Y-99304761D01*
X73900000Y-99161904D01*
X73852380Y-98828571D02*
X74852380Y-98590476D01*
X74138095Y-98400000D01*
X74852380Y-98209523D01*
X73852380Y-97971428D01*
X74852380Y-97066666D02*
X74852380Y-97638095D01*
X74852380Y-97352380D02*
X73852380Y-97352380D01*
X73995238Y-97447619D01*
X74090476Y-97542857D01*
X74138095Y-97638095D01*
%TO.C,R22*%
X145962153Y-60392408D02*
X145628820Y-59916218D01*
X145390725Y-60392408D02*
X145390725Y-59392408D01*
X145771677Y-59392408D01*
X145866915Y-59440028D01*
X145914534Y-59487647D01*
X145962153Y-59582885D01*
X145962153Y-59725742D01*
X145914534Y-59820980D01*
X145866915Y-59868599D01*
X145771677Y-59916218D01*
X145390725Y-59916218D01*
X146343106Y-59487647D02*
X146390725Y-59440028D01*
X146485963Y-59392408D01*
X146724058Y-59392408D01*
X146819296Y-59440028D01*
X146866915Y-59487647D01*
X146914534Y-59582885D01*
X146914534Y-59678123D01*
X146866915Y-59820980D01*
X146295487Y-60392408D01*
X146914534Y-60392408D01*
X147295487Y-59487647D02*
X147343106Y-59440028D01*
X147438344Y-59392408D01*
X147676439Y-59392408D01*
X147771677Y-59440028D01*
X147819296Y-59487647D01*
X147866915Y-59582885D01*
X147866915Y-59678123D01*
X147819296Y-59820980D01*
X147247868Y-60392408D01*
X147866915Y-60392408D01*
%TO.C,C17*%
X138862153Y-63197170D02*
X138814534Y-63244789D01*
X138671677Y-63292408D01*
X138576439Y-63292408D01*
X138433582Y-63244789D01*
X138338344Y-63149551D01*
X138290725Y-63054313D01*
X138243106Y-62863837D01*
X138243106Y-62720980D01*
X138290725Y-62530504D01*
X138338344Y-62435266D01*
X138433582Y-62340028D01*
X138576439Y-62292408D01*
X138671677Y-62292408D01*
X138814534Y-62340028D01*
X138862153Y-62387647D01*
X139814534Y-63292408D02*
X139243106Y-63292408D01*
X139528820Y-63292408D02*
X139528820Y-62292408D01*
X139433582Y-62435266D01*
X139338344Y-62530504D01*
X139243106Y-62578123D01*
X140147868Y-62292408D02*
X140814534Y-62292408D01*
X140385963Y-63292408D01*
%TO.C,R45*%
X109702380Y-48642857D02*
X109226190Y-48976190D01*
X109702380Y-49214285D02*
X108702380Y-49214285D01*
X108702380Y-48833333D01*
X108750000Y-48738095D01*
X108797619Y-48690476D01*
X108892857Y-48642857D01*
X109035714Y-48642857D01*
X109130952Y-48690476D01*
X109178571Y-48738095D01*
X109226190Y-48833333D01*
X109226190Y-49214285D01*
X109035714Y-47785714D02*
X109702380Y-47785714D01*
X108654761Y-48023809D02*
X109369047Y-48261904D01*
X109369047Y-47642857D01*
X108702380Y-46785714D02*
X108702380Y-47261904D01*
X109178571Y-47309523D01*
X109130952Y-47261904D01*
X109083333Y-47166666D01*
X109083333Y-46928571D01*
X109130952Y-46833333D01*
X109178571Y-46785714D01*
X109273809Y-46738095D01*
X109511904Y-46738095D01*
X109607142Y-46785714D01*
X109654761Y-46833333D01*
X109702380Y-46928571D01*
X109702380Y-47166666D01*
X109654761Y-47261904D01*
X109607142Y-47309523D01*
%TO.C,R3*%
X82533333Y-70052380D02*
X82200000Y-69576190D01*
X81961904Y-70052380D02*
X81961904Y-69052380D01*
X82342857Y-69052380D01*
X82438095Y-69100000D01*
X82485714Y-69147619D01*
X82533333Y-69242857D01*
X82533333Y-69385714D01*
X82485714Y-69480952D01*
X82438095Y-69528571D01*
X82342857Y-69576190D01*
X81961904Y-69576190D01*
X82866666Y-69052380D02*
X83485714Y-69052380D01*
X83152380Y-69433333D01*
X83295238Y-69433333D01*
X83390476Y-69480952D01*
X83438095Y-69528571D01*
X83485714Y-69623809D01*
X83485714Y-69861904D01*
X83438095Y-69957142D01*
X83390476Y-70004761D01*
X83295238Y-70052380D01*
X83009523Y-70052380D01*
X82914285Y-70004761D01*
X82866666Y-69957142D01*
%TO.C,X1*%
X114590476Y-54352380D02*
X115257142Y-55352380D01*
X115257142Y-54352380D02*
X114590476Y-55352380D01*
X116161904Y-55352380D02*
X115590476Y-55352380D01*
X115876190Y-55352380D02*
X115876190Y-54352380D01*
X115780952Y-54495238D01*
X115685714Y-54590476D01*
X115590476Y-54638095D01*
%TO.C,R4*%
X76252380Y-66766666D02*
X75776190Y-67100000D01*
X76252380Y-67338095D02*
X75252380Y-67338095D01*
X75252380Y-66957142D01*
X75300000Y-66861904D01*
X75347619Y-66814285D01*
X75442857Y-66766666D01*
X75585714Y-66766666D01*
X75680952Y-66814285D01*
X75728571Y-66861904D01*
X75776190Y-66957142D01*
X75776190Y-67338095D01*
X75585714Y-65909523D02*
X76252380Y-65909523D01*
X75204761Y-66147619D02*
X75919047Y-66385714D01*
X75919047Y-65766666D01*
%TO.C,J10*%
X135290476Y-87452380D02*
X135290476Y-88166666D01*
X135242857Y-88309523D01*
X135147619Y-88404761D01*
X135004761Y-88452380D01*
X134909523Y-88452380D01*
X136290476Y-88452380D02*
X135719047Y-88452380D01*
X136004761Y-88452380D02*
X136004761Y-87452380D01*
X135909523Y-87595238D01*
X135814285Y-87690476D01*
X135719047Y-87738095D01*
X136909523Y-87452380D02*
X137004761Y-87452380D01*
X137100000Y-87500000D01*
X137147619Y-87547619D01*
X137195238Y-87642857D01*
X137242857Y-87833333D01*
X137242857Y-88071428D01*
X137195238Y-88261904D01*
X137147619Y-88357142D01*
X137100000Y-88404761D01*
X137004761Y-88452380D01*
X136909523Y-88452380D01*
X136814285Y-88404761D01*
X136766666Y-88357142D01*
X136719047Y-88261904D01*
X136671428Y-88071428D01*
X136671428Y-87833333D01*
X136719047Y-87642857D01*
X136766666Y-87547619D01*
X136814285Y-87500000D01*
X136909523Y-87452380D01*
%TO.C,R20*%
X128157142Y-69952380D02*
X127823809Y-69476190D01*
X127585714Y-69952380D02*
X127585714Y-68952380D01*
X127966666Y-68952380D01*
X128061904Y-69000000D01*
X128109523Y-69047619D01*
X128157142Y-69142857D01*
X128157142Y-69285714D01*
X128109523Y-69380952D01*
X128061904Y-69428571D01*
X127966666Y-69476190D01*
X127585714Y-69476190D01*
X128538095Y-69047619D02*
X128585714Y-69000000D01*
X128680952Y-68952380D01*
X128919047Y-68952380D01*
X129014285Y-69000000D01*
X129061904Y-69047619D01*
X129109523Y-69142857D01*
X129109523Y-69238095D01*
X129061904Y-69380952D01*
X128490476Y-69952380D01*
X129109523Y-69952380D01*
X129728571Y-68952380D02*
X129823809Y-68952380D01*
X129919047Y-69000000D01*
X129966666Y-69047619D01*
X130014285Y-69142857D01*
X130061904Y-69333333D01*
X130061904Y-69571428D01*
X130014285Y-69761904D01*
X129966666Y-69857142D01*
X129919047Y-69904761D01*
X129823809Y-69952380D01*
X129728571Y-69952380D01*
X129633333Y-69904761D01*
X129585714Y-69857142D01*
X129538095Y-69761904D01*
X129490476Y-69571428D01*
X129490476Y-69333333D01*
X129538095Y-69142857D01*
X129585714Y-69047619D01*
X129633333Y-69000000D01*
X129728571Y-68952380D01*
%TO.C,R6*%
X76733333Y-88052380D02*
X76400000Y-87576190D01*
X76161904Y-88052380D02*
X76161904Y-87052380D01*
X76542857Y-87052380D01*
X76638095Y-87100000D01*
X76685714Y-87147619D01*
X76733333Y-87242857D01*
X76733333Y-87385714D01*
X76685714Y-87480952D01*
X76638095Y-87528571D01*
X76542857Y-87576190D01*
X76161904Y-87576190D01*
X77590476Y-87052380D02*
X77400000Y-87052380D01*
X77304761Y-87100000D01*
X77257142Y-87147619D01*
X77161904Y-87290476D01*
X77114285Y-87480952D01*
X77114285Y-87861904D01*
X77161904Y-87957142D01*
X77209523Y-88004761D01*
X77304761Y-88052380D01*
X77495238Y-88052380D01*
X77590476Y-88004761D01*
X77638095Y-87957142D01*
X77685714Y-87861904D01*
X77685714Y-87623809D01*
X77638095Y-87528571D01*
X77590476Y-87480952D01*
X77495238Y-87433333D01*
X77304761Y-87433333D01*
X77209523Y-87480952D01*
X77161904Y-87528571D01*
X77114285Y-87623809D01*
%TO.C,R36*%
X90052380Y-98642857D02*
X89576190Y-98976190D01*
X90052380Y-99214285D02*
X89052380Y-99214285D01*
X89052380Y-98833333D01*
X89100000Y-98738095D01*
X89147619Y-98690476D01*
X89242857Y-98642857D01*
X89385714Y-98642857D01*
X89480952Y-98690476D01*
X89528571Y-98738095D01*
X89576190Y-98833333D01*
X89576190Y-99214285D01*
X89052380Y-98309523D02*
X89052380Y-97690476D01*
X89433333Y-98023809D01*
X89433333Y-97880952D01*
X89480952Y-97785714D01*
X89528571Y-97738095D01*
X89623809Y-97690476D01*
X89861904Y-97690476D01*
X89957142Y-97738095D01*
X90004761Y-97785714D01*
X90052380Y-97880952D01*
X90052380Y-98166666D01*
X90004761Y-98261904D01*
X89957142Y-98309523D01*
X89052380Y-96833333D02*
X89052380Y-97023809D01*
X89100000Y-97119047D01*
X89147619Y-97166666D01*
X89290476Y-97261904D01*
X89480952Y-97309523D01*
X89861904Y-97309523D01*
X89957142Y-97261904D01*
X90004761Y-97214285D01*
X90052380Y-97119047D01*
X90052380Y-96928571D01*
X90004761Y-96833333D01*
X89957142Y-96785714D01*
X89861904Y-96738095D01*
X89623809Y-96738095D01*
X89528571Y-96785714D01*
X89480952Y-96833333D01*
X89433333Y-96928571D01*
X89433333Y-97119047D01*
X89480952Y-97214285D01*
X89528571Y-97261904D01*
X89623809Y-97309523D01*
%TO.C,C9*%
X107995833Y-61377142D02*
X107948214Y-61424761D01*
X107805357Y-61472380D01*
X107710119Y-61472380D01*
X107567261Y-61424761D01*
X107472023Y-61329523D01*
X107424404Y-61234285D01*
X107376785Y-61043809D01*
X107376785Y-60900952D01*
X107424404Y-60710476D01*
X107472023Y-60615238D01*
X107567261Y-60520000D01*
X107710119Y-60472380D01*
X107805357Y-60472380D01*
X107948214Y-60520000D01*
X107995833Y-60567619D01*
X108472023Y-61472380D02*
X108662500Y-61472380D01*
X108757738Y-61424761D01*
X108805357Y-61377142D01*
X108900595Y-61234285D01*
X108948214Y-61043809D01*
X108948214Y-60662857D01*
X108900595Y-60567619D01*
X108852976Y-60520000D01*
X108757738Y-60472380D01*
X108567261Y-60472380D01*
X108472023Y-60520000D01*
X108424404Y-60567619D01*
X108376785Y-60662857D01*
X108376785Y-60900952D01*
X108424404Y-60996190D01*
X108472023Y-61043809D01*
X108567261Y-61091428D01*
X108757738Y-61091428D01*
X108852976Y-61043809D01*
X108900595Y-60996190D01*
X108948214Y-60900952D01*
%TO.C,C45*%
X104557142Y-55757142D02*
X104509523Y-55804761D01*
X104366666Y-55852380D01*
X104271428Y-55852380D01*
X104128571Y-55804761D01*
X104033333Y-55709523D01*
X103985714Y-55614285D01*
X103938095Y-55423809D01*
X103938095Y-55280952D01*
X103985714Y-55090476D01*
X104033333Y-54995238D01*
X104128571Y-54900000D01*
X104271428Y-54852380D01*
X104366666Y-54852380D01*
X104509523Y-54900000D01*
X104557142Y-54947619D01*
X105414285Y-55185714D02*
X105414285Y-55852380D01*
X105176190Y-54804761D02*
X104938095Y-55519047D01*
X105557142Y-55519047D01*
X106414285Y-54852380D02*
X105938095Y-54852380D01*
X105890476Y-55328571D01*
X105938095Y-55280952D01*
X106033333Y-55233333D01*
X106271428Y-55233333D01*
X106366666Y-55280952D01*
X106414285Y-55328571D01*
X106461904Y-55423809D01*
X106461904Y-55661904D01*
X106414285Y-55757142D01*
X106366666Y-55804761D01*
X106271428Y-55852380D01*
X106033333Y-55852380D01*
X105938095Y-55804761D01*
X105890476Y-55757142D01*
%TO.C,C37*%
X134257142Y-114057142D02*
X134209523Y-114104761D01*
X134066666Y-114152380D01*
X133971428Y-114152380D01*
X133828571Y-114104761D01*
X133733333Y-114009523D01*
X133685714Y-113914285D01*
X133638095Y-113723809D01*
X133638095Y-113580952D01*
X133685714Y-113390476D01*
X133733333Y-113295238D01*
X133828571Y-113200000D01*
X133971428Y-113152380D01*
X134066666Y-113152380D01*
X134209523Y-113200000D01*
X134257142Y-113247619D01*
X134590476Y-113152380D02*
X135209523Y-113152380D01*
X134876190Y-113533333D01*
X135019047Y-113533333D01*
X135114285Y-113580952D01*
X135161904Y-113628571D01*
X135209523Y-113723809D01*
X135209523Y-113961904D01*
X135161904Y-114057142D01*
X135114285Y-114104761D01*
X135019047Y-114152380D01*
X134733333Y-114152380D01*
X134638095Y-114104761D01*
X134590476Y-114057142D01*
X135542857Y-113152380D02*
X136209523Y-113152380D01*
X135780952Y-114152380D01*
%TO.C,C21*%
X121862153Y-53197170D02*
X121814534Y-53244789D01*
X121671677Y-53292408D01*
X121576439Y-53292408D01*
X121433582Y-53244789D01*
X121338344Y-53149551D01*
X121290725Y-53054313D01*
X121243106Y-52863837D01*
X121243106Y-52720980D01*
X121290725Y-52530504D01*
X121338344Y-52435266D01*
X121433582Y-52340028D01*
X121576439Y-52292408D01*
X121671677Y-52292408D01*
X121814534Y-52340028D01*
X121862153Y-52387647D01*
X122243106Y-52387647D02*
X122290725Y-52340028D01*
X122385963Y-52292408D01*
X122624058Y-52292408D01*
X122719296Y-52340028D01*
X122766915Y-52387647D01*
X122814534Y-52482885D01*
X122814534Y-52578123D01*
X122766915Y-52720980D01*
X122195487Y-53292408D01*
X122814534Y-53292408D01*
X123766915Y-53292408D02*
X123195487Y-53292408D01*
X123481201Y-53292408D02*
X123481201Y-52292408D01*
X123385963Y-52435266D01*
X123290725Y-52530504D01*
X123195487Y-52578123D01*
%TO.C,R18*%
X123607391Y-66032885D02*
X123131201Y-66366218D01*
X123607391Y-66604313D02*
X122607391Y-66604313D01*
X122607391Y-66223361D01*
X122655011Y-66128123D01*
X122702630Y-66080504D01*
X122797868Y-66032885D01*
X122940725Y-66032885D01*
X123035963Y-66080504D01*
X123083582Y-66128123D01*
X123131201Y-66223361D01*
X123131201Y-66604313D01*
X123607391Y-65080504D02*
X123607391Y-65651932D01*
X123607391Y-65366218D02*
X122607391Y-65366218D01*
X122750249Y-65461456D01*
X122845487Y-65556694D01*
X122893106Y-65651932D01*
X123035963Y-64509075D02*
X122988344Y-64604313D01*
X122940725Y-64651932D01*
X122845487Y-64699551D01*
X122797868Y-64699551D01*
X122702630Y-64651932D01*
X122655011Y-64604313D01*
X122607391Y-64509075D01*
X122607391Y-64318599D01*
X122655011Y-64223361D01*
X122702630Y-64175742D01*
X122797868Y-64128123D01*
X122845487Y-64128123D01*
X122940725Y-64175742D01*
X122988344Y-64223361D01*
X123035963Y-64318599D01*
X123035963Y-64509075D01*
X123083582Y-64604313D01*
X123131201Y-64651932D01*
X123226439Y-64699551D01*
X123416915Y-64699551D01*
X123512153Y-64651932D01*
X123559772Y-64604313D01*
X123607391Y-64509075D01*
X123607391Y-64318599D01*
X123559772Y-64223361D01*
X123512153Y-64175742D01*
X123416915Y-64128123D01*
X123226439Y-64128123D01*
X123131201Y-64175742D01*
X123083582Y-64223361D01*
X123035963Y-64318599D01*
%TO.C,J7*%
X159666666Y-68952380D02*
X159666666Y-69666666D01*
X159619047Y-69809523D01*
X159523809Y-69904761D01*
X159380952Y-69952380D01*
X159285714Y-69952380D01*
X160047619Y-68952380D02*
X160714285Y-68952380D01*
X160285714Y-69952380D01*
%TO.C,C18*%
X121799653Y-55222170D02*
X121752034Y-55269789D01*
X121609177Y-55317408D01*
X121513939Y-55317408D01*
X121371082Y-55269789D01*
X121275844Y-55174551D01*
X121228225Y-55079313D01*
X121180606Y-54888837D01*
X121180606Y-54745980D01*
X121228225Y-54555504D01*
X121275844Y-54460266D01*
X121371082Y-54365028D01*
X121513939Y-54317408D01*
X121609177Y-54317408D01*
X121752034Y-54365028D01*
X121799653Y-54412647D01*
X122752034Y-55317408D02*
X122180606Y-55317408D01*
X122466320Y-55317408D02*
X122466320Y-54317408D01*
X122371082Y-54460266D01*
X122275844Y-54555504D01*
X122180606Y-54603123D01*
X123323463Y-54745980D02*
X123228225Y-54698361D01*
X123180606Y-54650742D01*
X123132987Y-54555504D01*
X123132987Y-54507885D01*
X123180606Y-54412647D01*
X123228225Y-54365028D01*
X123323463Y-54317408D01*
X123513939Y-54317408D01*
X123609177Y-54365028D01*
X123656796Y-54412647D01*
X123704415Y-54507885D01*
X123704415Y-54555504D01*
X123656796Y-54650742D01*
X123609177Y-54698361D01*
X123513939Y-54745980D01*
X123323463Y-54745980D01*
X123228225Y-54793599D01*
X123180606Y-54841218D01*
X123132987Y-54936456D01*
X123132987Y-55126932D01*
X123180606Y-55222170D01*
X123228225Y-55269789D01*
X123323463Y-55317408D01*
X123513939Y-55317408D01*
X123609177Y-55269789D01*
X123656796Y-55222170D01*
X123704415Y-55126932D01*
X123704415Y-54936456D01*
X123656796Y-54841218D01*
X123609177Y-54793599D01*
X123513939Y-54745980D01*
%TO.C,R30*%
X99057142Y-34052380D02*
X98723809Y-33576190D01*
X98485714Y-34052380D02*
X98485714Y-33052380D01*
X98866666Y-33052380D01*
X98961904Y-33100000D01*
X99009523Y-33147619D01*
X99057142Y-33242857D01*
X99057142Y-33385714D01*
X99009523Y-33480952D01*
X98961904Y-33528571D01*
X98866666Y-33576190D01*
X98485714Y-33576190D01*
X99390476Y-33052380D02*
X100009523Y-33052380D01*
X99676190Y-33433333D01*
X99819047Y-33433333D01*
X99914285Y-33480952D01*
X99961904Y-33528571D01*
X100009523Y-33623809D01*
X100009523Y-33861904D01*
X99961904Y-33957142D01*
X99914285Y-34004761D01*
X99819047Y-34052380D01*
X99533333Y-34052380D01*
X99438095Y-34004761D01*
X99390476Y-33957142D01*
X100628571Y-33052380D02*
X100723809Y-33052380D01*
X100819047Y-33100000D01*
X100866666Y-33147619D01*
X100914285Y-33242857D01*
X100961904Y-33433333D01*
X100961904Y-33671428D01*
X100914285Y-33861904D01*
X100866666Y-33957142D01*
X100819047Y-34004761D01*
X100723809Y-34052380D01*
X100628571Y-34052380D01*
X100533333Y-34004761D01*
X100485714Y-33957142D01*
X100438095Y-33861904D01*
X100390476Y-33671428D01*
X100390476Y-33433333D01*
X100438095Y-33242857D01*
X100485714Y-33147619D01*
X100533333Y-33100000D01*
X100628571Y-33052380D01*
%TO.C,R24*%
X125352380Y-65632885D02*
X124876190Y-65966218D01*
X125352380Y-66204313D02*
X124352380Y-66204313D01*
X124352380Y-65823361D01*
X124400000Y-65728123D01*
X124447619Y-65680504D01*
X124542857Y-65632885D01*
X124685714Y-65632885D01*
X124780952Y-65680504D01*
X124828571Y-65728123D01*
X124876190Y-65823361D01*
X124876190Y-66204313D01*
X124447619Y-65251932D02*
X124400000Y-65204313D01*
X124352380Y-65109075D01*
X124352380Y-64870980D01*
X124400000Y-64775742D01*
X124447619Y-64728123D01*
X124542857Y-64680504D01*
X124638095Y-64680504D01*
X124780952Y-64728123D01*
X125352380Y-65299551D01*
X125352380Y-64680504D01*
X124685714Y-63823361D02*
X125352380Y-63823361D01*
X124304761Y-64061456D02*
X125019047Y-64299551D01*
X125019047Y-63680504D01*
%TO.C,C54*%
X89394642Y-62057142D02*
X89347023Y-62104761D01*
X89204166Y-62152380D01*
X89108928Y-62152380D01*
X88966071Y-62104761D01*
X88870833Y-62009523D01*
X88823214Y-61914285D01*
X88775595Y-61723809D01*
X88775595Y-61580952D01*
X88823214Y-61390476D01*
X88870833Y-61295238D01*
X88966071Y-61200000D01*
X89108928Y-61152380D01*
X89204166Y-61152380D01*
X89347023Y-61200000D01*
X89394642Y-61247619D01*
X90299404Y-61152380D02*
X89823214Y-61152380D01*
X89775595Y-61628571D01*
X89823214Y-61580952D01*
X89918452Y-61533333D01*
X90156547Y-61533333D01*
X90251785Y-61580952D01*
X90299404Y-61628571D01*
X90347023Y-61723809D01*
X90347023Y-61961904D01*
X90299404Y-62057142D01*
X90251785Y-62104761D01*
X90156547Y-62152380D01*
X89918452Y-62152380D01*
X89823214Y-62104761D01*
X89775595Y-62057142D01*
X91204166Y-61485714D02*
X91204166Y-62152380D01*
X90966071Y-61104761D02*
X90727976Y-61819047D01*
X91347023Y-61819047D01*
%TO.C,J6*%
X158197380Y-82533333D02*
X158911666Y-82533333D01*
X159054523Y-82580952D01*
X159149761Y-82676190D01*
X159197380Y-82819047D01*
X159197380Y-82914285D01*
X158197380Y-81628571D02*
X158197380Y-81819047D01*
X158245000Y-81914285D01*
X158292619Y-81961904D01*
X158435476Y-82057142D01*
X158625952Y-82104761D01*
X159006904Y-82104761D01*
X159102142Y-82057142D01*
X159149761Y-82009523D01*
X159197380Y-81914285D01*
X159197380Y-81723809D01*
X159149761Y-81628571D01*
X159102142Y-81580952D01*
X159006904Y-81533333D01*
X158768809Y-81533333D01*
X158673571Y-81580952D01*
X158625952Y-81628571D01*
X158578333Y-81723809D01*
X158578333Y-81914285D01*
X158625952Y-82009523D01*
X158673571Y-82057142D01*
X158768809Y-82104761D01*
%TO.C,C10*%
X99719642Y-98637142D02*
X99672023Y-98684761D01*
X99529166Y-98732380D01*
X99433928Y-98732380D01*
X99291071Y-98684761D01*
X99195833Y-98589523D01*
X99148214Y-98494285D01*
X99100595Y-98303809D01*
X99100595Y-98160952D01*
X99148214Y-97970476D01*
X99195833Y-97875238D01*
X99291071Y-97780000D01*
X99433928Y-97732380D01*
X99529166Y-97732380D01*
X99672023Y-97780000D01*
X99719642Y-97827619D01*
X100672023Y-98732380D02*
X100100595Y-98732380D01*
X100386309Y-98732380D02*
X100386309Y-97732380D01*
X100291071Y-97875238D01*
X100195833Y-97970476D01*
X100100595Y-98018095D01*
X101291071Y-97732380D02*
X101386309Y-97732380D01*
X101481547Y-97780000D01*
X101529166Y-97827619D01*
X101576785Y-97922857D01*
X101624404Y-98113333D01*
X101624404Y-98351428D01*
X101576785Y-98541904D01*
X101529166Y-98637142D01*
X101481547Y-98684761D01*
X101386309Y-98732380D01*
X101291071Y-98732380D01*
X101195833Y-98684761D01*
X101148214Y-98637142D01*
X101100595Y-98541904D01*
X101052976Y-98351428D01*
X101052976Y-98113333D01*
X101100595Y-97922857D01*
X101148214Y-97827619D01*
X101195833Y-97780000D01*
X101291071Y-97732380D01*
%TO.C,C4*%
X121733333Y-78377142D02*
X121685714Y-78424761D01*
X121542857Y-78472380D01*
X121447619Y-78472380D01*
X121304761Y-78424761D01*
X121209523Y-78329523D01*
X121161904Y-78234285D01*
X121114285Y-78043809D01*
X121114285Y-77900952D01*
X121161904Y-77710476D01*
X121209523Y-77615238D01*
X121304761Y-77520000D01*
X121447619Y-77472380D01*
X121542857Y-77472380D01*
X121685714Y-77520000D01*
X121733333Y-77567619D01*
X122590476Y-77805714D02*
X122590476Y-78472380D01*
X122352380Y-77424761D02*
X122114285Y-78139047D01*
X122733333Y-78139047D01*
%TO.C,C40*%
X129857142Y-88157142D02*
X129809523Y-88204761D01*
X129666666Y-88252380D01*
X129571428Y-88252380D01*
X129428571Y-88204761D01*
X129333333Y-88109523D01*
X129285714Y-88014285D01*
X129238095Y-87823809D01*
X129238095Y-87680952D01*
X129285714Y-87490476D01*
X129333333Y-87395238D01*
X129428571Y-87300000D01*
X129571428Y-87252380D01*
X129666666Y-87252380D01*
X129809523Y-87300000D01*
X129857142Y-87347619D01*
X130714285Y-87585714D02*
X130714285Y-88252380D01*
X130476190Y-87204761D02*
X130238095Y-87919047D01*
X130857142Y-87919047D01*
X131428571Y-87252380D02*
X131523809Y-87252380D01*
X131619047Y-87300000D01*
X131666666Y-87347619D01*
X131714285Y-87442857D01*
X131761904Y-87633333D01*
X131761904Y-87871428D01*
X131714285Y-88061904D01*
X131666666Y-88157142D01*
X131619047Y-88204761D01*
X131523809Y-88252380D01*
X131428571Y-88252380D01*
X131333333Y-88204761D01*
X131285714Y-88157142D01*
X131238095Y-88061904D01*
X131190476Y-87871428D01*
X131190476Y-87633333D01*
X131238095Y-87442857D01*
X131285714Y-87347619D01*
X131333333Y-87300000D01*
X131428571Y-87252380D01*
%TO.C,D1*%
X159511904Y-114702380D02*
X159511904Y-113702380D01*
X159750000Y-113702380D01*
X159892857Y-113750000D01*
X159988095Y-113845238D01*
X160035714Y-113940476D01*
X160083333Y-114130952D01*
X160083333Y-114273809D01*
X160035714Y-114464285D01*
X159988095Y-114559523D01*
X159892857Y-114654761D01*
X159750000Y-114702380D01*
X159511904Y-114702380D01*
X161035714Y-114702380D02*
X160464285Y-114702380D01*
X160750000Y-114702380D02*
X160750000Y-113702380D01*
X160654761Y-113845238D01*
X160559523Y-113940476D01*
X160464285Y-113988095D01*
%TO.C,C24*%
X140162153Y-60297170D02*
X140114534Y-60344789D01*
X139971677Y-60392408D01*
X139876439Y-60392408D01*
X139733582Y-60344789D01*
X139638344Y-60249551D01*
X139590725Y-60154313D01*
X139543106Y-59963837D01*
X139543106Y-59820980D01*
X139590725Y-59630504D01*
X139638344Y-59535266D01*
X139733582Y-59440028D01*
X139876439Y-59392408D01*
X139971677Y-59392408D01*
X140114534Y-59440028D01*
X140162153Y-59487647D01*
X140543106Y-59487647D02*
X140590725Y-59440028D01*
X140685963Y-59392408D01*
X140924058Y-59392408D01*
X141019296Y-59440028D01*
X141066915Y-59487647D01*
X141114534Y-59582885D01*
X141114534Y-59678123D01*
X141066915Y-59820980D01*
X140495487Y-60392408D01*
X141114534Y-60392408D01*
X141971677Y-59725742D02*
X141971677Y-60392408D01*
X141733582Y-59344789D02*
X141495487Y-60059075D01*
X142114534Y-60059075D01*
%TO.C,R28*%
X109352380Y-57642857D02*
X108876190Y-57976190D01*
X109352380Y-58214285D02*
X108352380Y-58214285D01*
X108352380Y-57833333D01*
X108400000Y-57738095D01*
X108447619Y-57690476D01*
X108542857Y-57642857D01*
X108685714Y-57642857D01*
X108780952Y-57690476D01*
X108828571Y-57738095D01*
X108876190Y-57833333D01*
X108876190Y-58214285D01*
X108447619Y-57261904D02*
X108400000Y-57214285D01*
X108352380Y-57119047D01*
X108352380Y-56880952D01*
X108400000Y-56785714D01*
X108447619Y-56738095D01*
X108542857Y-56690476D01*
X108638095Y-56690476D01*
X108780952Y-56738095D01*
X109352380Y-57309523D01*
X109352380Y-56690476D01*
X108780952Y-56119047D02*
X108733333Y-56214285D01*
X108685714Y-56261904D01*
X108590476Y-56309523D01*
X108542857Y-56309523D01*
X108447619Y-56261904D01*
X108400000Y-56214285D01*
X108352380Y-56119047D01*
X108352380Y-55928571D01*
X108400000Y-55833333D01*
X108447619Y-55785714D01*
X108542857Y-55738095D01*
X108590476Y-55738095D01*
X108685714Y-55785714D01*
X108733333Y-55833333D01*
X108780952Y-55928571D01*
X108780952Y-56119047D01*
X108828571Y-56214285D01*
X108876190Y-56261904D01*
X108971428Y-56309523D01*
X109161904Y-56309523D01*
X109257142Y-56261904D01*
X109304761Y-56214285D01*
X109352380Y-56119047D01*
X109352380Y-55928571D01*
X109304761Y-55833333D01*
X109257142Y-55785714D01*
X109161904Y-55738095D01*
X108971428Y-55738095D01*
X108876190Y-55785714D01*
X108828571Y-55833333D01*
X108780952Y-55928571D01*
%TO.C,C48*%
X94357142Y-40157142D02*
X94309523Y-40204761D01*
X94166666Y-40252380D01*
X94071428Y-40252380D01*
X93928571Y-40204761D01*
X93833333Y-40109523D01*
X93785714Y-40014285D01*
X93738095Y-39823809D01*
X93738095Y-39680952D01*
X93785714Y-39490476D01*
X93833333Y-39395238D01*
X93928571Y-39300000D01*
X94071428Y-39252380D01*
X94166666Y-39252380D01*
X94309523Y-39300000D01*
X94357142Y-39347619D01*
X95214285Y-39585714D02*
X95214285Y-40252380D01*
X94976190Y-39204761D02*
X94738095Y-39919047D01*
X95357142Y-39919047D01*
X95880952Y-39680952D02*
X95785714Y-39633333D01*
X95738095Y-39585714D01*
X95690476Y-39490476D01*
X95690476Y-39442857D01*
X95738095Y-39347619D01*
X95785714Y-39300000D01*
X95880952Y-39252380D01*
X96071428Y-39252380D01*
X96166666Y-39300000D01*
X96214285Y-39347619D01*
X96261904Y-39442857D01*
X96261904Y-39490476D01*
X96214285Y-39585714D01*
X96166666Y-39633333D01*
X96071428Y-39680952D01*
X95880952Y-39680952D01*
X95785714Y-39728571D01*
X95738095Y-39776190D01*
X95690476Y-39871428D01*
X95690476Y-40061904D01*
X95738095Y-40157142D01*
X95785714Y-40204761D01*
X95880952Y-40252380D01*
X96071428Y-40252380D01*
X96166666Y-40204761D01*
X96214285Y-40157142D01*
X96261904Y-40061904D01*
X96261904Y-39871428D01*
X96214285Y-39776190D01*
X96166666Y-39728571D01*
X96071428Y-39680952D01*
%TO.C,R12*%
X133062153Y-50992408D02*
X132728820Y-50516218D01*
X132490725Y-50992408D02*
X132490725Y-49992408D01*
X132871677Y-49992408D01*
X132966915Y-50040028D01*
X133014534Y-50087647D01*
X133062153Y-50182885D01*
X133062153Y-50325742D01*
X133014534Y-50420980D01*
X132966915Y-50468599D01*
X132871677Y-50516218D01*
X132490725Y-50516218D01*
X134014534Y-50992408D02*
X133443106Y-50992408D01*
X133728820Y-50992408D02*
X133728820Y-49992408D01*
X133633582Y-50135266D01*
X133538344Y-50230504D01*
X133443106Y-50278123D01*
X134395487Y-50087647D02*
X134443106Y-50040028D01*
X134538344Y-49992408D01*
X134776439Y-49992408D01*
X134871677Y-50040028D01*
X134919296Y-50087647D01*
X134966915Y-50182885D01*
X134966915Y-50278123D01*
X134919296Y-50420980D01*
X134347868Y-50992408D01*
X134966915Y-50992408D01*
%TO.C,C49*%
X85607142Y-42107142D02*
X85559523Y-42154761D01*
X85416666Y-42202380D01*
X85321428Y-42202380D01*
X85178571Y-42154761D01*
X85083333Y-42059523D01*
X85035714Y-41964285D01*
X84988095Y-41773809D01*
X84988095Y-41630952D01*
X85035714Y-41440476D01*
X85083333Y-41345238D01*
X85178571Y-41250000D01*
X85321428Y-41202380D01*
X85416666Y-41202380D01*
X85559523Y-41250000D01*
X85607142Y-41297619D01*
X86464285Y-41535714D02*
X86464285Y-42202380D01*
X86226190Y-41154761D02*
X85988095Y-41869047D01*
X86607142Y-41869047D01*
X87035714Y-42202380D02*
X87226190Y-42202380D01*
X87321428Y-42154761D01*
X87369047Y-42107142D01*
X87464285Y-41964285D01*
X87511904Y-41773809D01*
X87511904Y-41392857D01*
X87464285Y-41297619D01*
X87416666Y-41250000D01*
X87321428Y-41202380D01*
X87130952Y-41202380D01*
X87035714Y-41250000D01*
X86988095Y-41297619D01*
X86940476Y-41392857D01*
X86940476Y-41630952D01*
X86988095Y-41726190D01*
X87035714Y-41773809D01*
X87130952Y-41821428D01*
X87321428Y-41821428D01*
X87416666Y-41773809D01*
X87464285Y-41726190D01*
X87511904Y-41630952D01*
%TO.C,U9*%
X149338095Y-30602380D02*
X149338095Y-31411904D01*
X149385714Y-31507142D01*
X149433333Y-31554761D01*
X149528571Y-31602380D01*
X149719047Y-31602380D01*
X149814285Y-31554761D01*
X149861904Y-31507142D01*
X149909523Y-31411904D01*
X149909523Y-30602380D01*
X150433333Y-31602380D02*
X150623809Y-31602380D01*
X150719047Y-31554761D01*
X150766666Y-31507142D01*
X150861904Y-31364285D01*
X150909523Y-31173809D01*
X150909523Y-30792857D01*
X150861904Y-30697619D01*
X150814285Y-30650000D01*
X150719047Y-30602380D01*
X150528571Y-30602380D01*
X150433333Y-30650000D01*
X150385714Y-30697619D01*
X150338095Y-30792857D01*
X150338095Y-31030952D01*
X150385714Y-31126190D01*
X150433333Y-31173809D01*
X150528571Y-31221428D01*
X150719047Y-31221428D01*
X150814285Y-31173809D01*
X150861904Y-31126190D01*
X150909523Y-31030952D01*
%TO.C,R51*%
X131857142Y-102952380D02*
X131523809Y-102476190D01*
X131285714Y-102952380D02*
X131285714Y-101952380D01*
X131666666Y-101952380D01*
X131761904Y-102000000D01*
X131809523Y-102047619D01*
X131857142Y-102142857D01*
X131857142Y-102285714D01*
X131809523Y-102380952D01*
X131761904Y-102428571D01*
X131666666Y-102476190D01*
X131285714Y-102476190D01*
X132761904Y-101952380D02*
X132285714Y-101952380D01*
X132238095Y-102428571D01*
X132285714Y-102380952D01*
X132380952Y-102333333D01*
X132619047Y-102333333D01*
X132714285Y-102380952D01*
X132761904Y-102428571D01*
X132809523Y-102523809D01*
X132809523Y-102761904D01*
X132761904Y-102857142D01*
X132714285Y-102904761D01*
X132619047Y-102952380D01*
X132380952Y-102952380D01*
X132285714Y-102904761D01*
X132238095Y-102857142D01*
X133761904Y-102952380D02*
X133190476Y-102952380D01*
X133476190Y-102952380D02*
X133476190Y-101952380D01*
X133380952Y-102095238D01*
X133285714Y-102190476D01*
X133190476Y-102238095D01*
%TO.C,R27*%
X83957142Y-94252380D02*
X83623809Y-93776190D01*
X83385714Y-94252380D02*
X83385714Y-93252380D01*
X83766666Y-93252380D01*
X83861904Y-93300000D01*
X83909523Y-93347619D01*
X83957142Y-93442857D01*
X83957142Y-93585714D01*
X83909523Y-93680952D01*
X83861904Y-93728571D01*
X83766666Y-93776190D01*
X83385714Y-93776190D01*
X84338095Y-93347619D02*
X84385714Y-93300000D01*
X84480952Y-93252380D01*
X84719047Y-93252380D01*
X84814285Y-93300000D01*
X84861904Y-93347619D01*
X84909523Y-93442857D01*
X84909523Y-93538095D01*
X84861904Y-93680952D01*
X84290476Y-94252380D01*
X84909523Y-94252380D01*
X85242857Y-93252380D02*
X85909523Y-93252380D01*
X85480952Y-94252380D01*
%TO.C,J9*%
X115666666Y-108982380D02*
X115666666Y-109696666D01*
X115619047Y-109839523D01*
X115523809Y-109934761D01*
X115380952Y-109982380D01*
X115285714Y-109982380D01*
X116190476Y-109982380D02*
X116380952Y-109982380D01*
X116476190Y-109934761D01*
X116523809Y-109887142D01*
X116619047Y-109744285D01*
X116666666Y-109553809D01*
X116666666Y-109172857D01*
X116619047Y-109077619D01*
X116571428Y-109030000D01*
X116476190Y-108982380D01*
X116285714Y-108982380D01*
X116190476Y-109030000D01*
X116142857Y-109077619D01*
X116095238Y-109172857D01*
X116095238Y-109410952D01*
X116142857Y-109506190D01*
X116190476Y-109553809D01*
X116285714Y-109601428D01*
X116476190Y-109601428D01*
X116571428Y-109553809D01*
X116619047Y-109506190D01*
X116666666Y-109410952D01*
%TO.C,L3*%
X83433333Y-41652380D02*
X82957142Y-41652380D01*
X82957142Y-40652380D01*
X83671428Y-40652380D02*
X84290476Y-40652380D01*
X83957142Y-41033333D01*
X84100000Y-41033333D01*
X84195238Y-41080952D01*
X84242857Y-41128571D01*
X84290476Y-41223809D01*
X84290476Y-41461904D01*
X84242857Y-41557142D01*
X84195238Y-41604761D01*
X84100000Y-41652380D01*
X83814285Y-41652380D01*
X83719047Y-41604761D01*
X83671428Y-41557142D01*
%TO.C,C56*%
X98257142Y-32657142D02*
X98209523Y-32704761D01*
X98066666Y-32752380D01*
X97971428Y-32752380D01*
X97828571Y-32704761D01*
X97733333Y-32609523D01*
X97685714Y-32514285D01*
X97638095Y-32323809D01*
X97638095Y-32180952D01*
X97685714Y-31990476D01*
X97733333Y-31895238D01*
X97828571Y-31800000D01*
X97971428Y-31752380D01*
X98066666Y-31752380D01*
X98209523Y-31800000D01*
X98257142Y-31847619D01*
X99161904Y-31752380D02*
X98685714Y-31752380D01*
X98638095Y-32228571D01*
X98685714Y-32180952D01*
X98780952Y-32133333D01*
X99019047Y-32133333D01*
X99114285Y-32180952D01*
X99161904Y-32228571D01*
X99209523Y-32323809D01*
X99209523Y-32561904D01*
X99161904Y-32657142D01*
X99114285Y-32704761D01*
X99019047Y-32752380D01*
X98780952Y-32752380D01*
X98685714Y-32704761D01*
X98638095Y-32657142D01*
X100066666Y-31752380D02*
X99876190Y-31752380D01*
X99780952Y-31800000D01*
X99733333Y-31847619D01*
X99638095Y-31990476D01*
X99590476Y-32180952D01*
X99590476Y-32561904D01*
X99638095Y-32657142D01*
X99685714Y-32704761D01*
X99780952Y-32752380D01*
X99971428Y-32752380D01*
X100066666Y-32704761D01*
X100114285Y-32657142D01*
X100161904Y-32561904D01*
X100161904Y-32323809D01*
X100114285Y-32228571D01*
X100066666Y-32180952D01*
X99971428Y-32133333D01*
X99780952Y-32133333D01*
X99685714Y-32180952D01*
X99638095Y-32228571D01*
X99590476Y-32323809D01*
%TO.C,C55*%
X75057142Y-62557142D02*
X75009523Y-62604761D01*
X74866666Y-62652380D01*
X74771428Y-62652380D01*
X74628571Y-62604761D01*
X74533333Y-62509523D01*
X74485714Y-62414285D01*
X74438095Y-62223809D01*
X74438095Y-62080952D01*
X74485714Y-61890476D01*
X74533333Y-61795238D01*
X74628571Y-61700000D01*
X74771428Y-61652380D01*
X74866666Y-61652380D01*
X75009523Y-61700000D01*
X75057142Y-61747619D01*
X75961904Y-61652380D02*
X75485714Y-61652380D01*
X75438095Y-62128571D01*
X75485714Y-62080952D01*
X75580952Y-62033333D01*
X75819047Y-62033333D01*
X75914285Y-62080952D01*
X75961904Y-62128571D01*
X76009523Y-62223809D01*
X76009523Y-62461904D01*
X75961904Y-62557142D01*
X75914285Y-62604761D01*
X75819047Y-62652380D01*
X75580952Y-62652380D01*
X75485714Y-62604761D01*
X75438095Y-62557142D01*
X76914285Y-61652380D02*
X76438095Y-61652380D01*
X76390476Y-62128571D01*
X76438095Y-62080952D01*
X76533333Y-62033333D01*
X76771428Y-62033333D01*
X76866666Y-62080952D01*
X76914285Y-62128571D01*
X76961904Y-62223809D01*
X76961904Y-62461904D01*
X76914285Y-62557142D01*
X76866666Y-62604761D01*
X76771428Y-62652380D01*
X76533333Y-62652380D01*
X76438095Y-62604761D01*
X76390476Y-62557142D01*
%TO.C,C14*%
X86257142Y-78557142D02*
X86209523Y-78604761D01*
X86066666Y-78652380D01*
X85971428Y-78652380D01*
X85828571Y-78604761D01*
X85733333Y-78509523D01*
X85685714Y-78414285D01*
X85638095Y-78223809D01*
X85638095Y-78080952D01*
X85685714Y-77890476D01*
X85733333Y-77795238D01*
X85828571Y-77700000D01*
X85971428Y-77652380D01*
X86066666Y-77652380D01*
X86209523Y-77700000D01*
X86257142Y-77747619D01*
X87209523Y-78652380D02*
X86638095Y-78652380D01*
X86923809Y-78652380D02*
X86923809Y-77652380D01*
X86828571Y-77795238D01*
X86733333Y-77890476D01*
X86638095Y-77938095D01*
X88066666Y-77985714D02*
X88066666Y-78652380D01*
X87828571Y-77604761D02*
X87590476Y-78319047D01*
X88209523Y-78319047D01*
%TO.C,R47*%
X118857142Y-67102380D02*
X118523809Y-66626190D01*
X118285714Y-67102380D02*
X118285714Y-66102380D01*
X118666666Y-66102380D01*
X118761904Y-66150000D01*
X118809523Y-66197619D01*
X118857142Y-66292857D01*
X118857142Y-66435714D01*
X118809523Y-66530952D01*
X118761904Y-66578571D01*
X118666666Y-66626190D01*
X118285714Y-66626190D01*
X119714285Y-66435714D02*
X119714285Y-67102380D01*
X119476190Y-66054761D02*
X119238095Y-66769047D01*
X119857142Y-66769047D01*
X120142857Y-66102380D02*
X120809523Y-66102380D01*
X120380952Y-67102380D01*
%TO.C,C51*%
X152557142Y-37605357D02*
X152604761Y-37652976D01*
X152652380Y-37795833D01*
X152652380Y-37891071D01*
X152604761Y-38033928D01*
X152509523Y-38129166D01*
X152414285Y-38176785D01*
X152223809Y-38224404D01*
X152080952Y-38224404D01*
X151890476Y-38176785D01*
X151795238Y-38129166D01*
X151700000Y-38033928D01*
X151652380Y-37891071D01*
X151652380Y-37795833D01*
X151700000Y-37652976D01*
X151747619Y-37605357D01*
X151652380Y-36700595D02*
X151652380Y-37176785D01*
X152128571Y-37224404D01*
X152080952Y-37176785D01*
X152033333Y-37081547D01*
X152033333Y-36843452D01*
X152080952Y-36748214D01*
X152128571Y-36700595D01*
X152223809Y-36652976D01*
X152461904Y-36652976D01*
X152557142Y-36700595D01*
X152604761Y-36748214D01*
X152652380Y-36843452D01*
X152652380Y-37081547D01*
X152604761Y-37176785D01*
X152557142Y-37224404D01*
X152652380Y-35700595D02*
X152652380Y-36272023D01*
X152652380Y-35986309D02*
X151652380Y-35986309D01*
X151795238Y-36081547D01*
X151890476Y-36176785D01*
X151938095Y-36272023D01*
%TO.C,U6*%
X87452380Y-35261904D02*
X88261904Y-35261904D01*
X88357142Y-35214285D01*
X88404761Y-35166666D01*
X88452380Y-35071428D01*
X88452380Y-34880952D01*
X88404761Y-34785714D01*
X88357142Y-34738095D01*
X88261904Y-34690476D01*
X87452380Y-34690476D01*
X87452380Y-33785714D02*
X87452380Y-33976190D01*
X87500000Y-34071428D01*
X87547619Y-34119047D01*
X87690476Y-34214285D01*
X87880952Y-34261904D01*
X88261904Y-34261904D01*
X88357142Y-34214285D01*
X88404761Y-34166666D01*
X88452380Y-34071428D01*
X88452380Y-33880952D01*
X88404761Y-33785714D01*
X88357142Y-33738095D01*
X88261904Y-33690476D01*
X88023809Y-33690476D01*
X87928571Y-33738095D01*
X87880952Y-33785714D01*
X87833333Y-33880952D01*
X87833333Y-34071428D01*
X87880952Y-34166666D01*
X87928571Y-34214285D01*
X88023809Y-34261904D01*
%TO.C,R8*%
X128433333Y-85452380D02*
X128100000Y-84976190D01*
X127861904Y-85452380D02*
X127861904Y-84452380D01*
X128242857Y-84452380D01*
X128338095Y-84500000D01*
X128385714Y-84547619D01*
X128433333Y-84642857D01*
X128433333Y-84785714D01*
X128385714Y-84880952D01*
X128338095Y-84928571D01*
X128242857Y-84976190D01*
X127861904Y-84976190D01*
X129004761Y-84880952D02*
X128909523Y-84833333D01*
X128861904Y-84785714D01*
X128814285Y-84690476D01*
X128814285Y-84642857D01*
X128861904Y-84547619D01*
X128909523Y-84500000D01*
X129004761Y-84452380D01*
X129195238Y-84452380D01*
X129290476Y-84500000D01*
X129338095Y-84547619D01*
X129385714Y-84642857D01*
X129385714Y-84690476D01*
X129338095Y-84785714D01*
X129290476Y-84833333D01*
X129195238Y-84880952D01*
X129004761Y-84880952D01*
X128909523Y-84928571D01*
X128861904Y-84976190D01*
X128814285Y-85071428D01*
X128814285Y-85261904D01*
X128861904Y-85357142D01*
X128909523Y-85404761D01*
X129004761Y-85452380D01*
X129195238Y-85452380D01*
X129290476Y-85404761D01*
X129338095Y-85357142D01*
X129385714Y-85261904D01*
X129385714Y-85071428D01*
X129338095Y-84976190D01*
X129290476Y-84928571D01*
X129195238Y-84880952D01*
%TO.C,R41*%
X148152380Y-54342857D02*
X147676190Y-54676190D01*
X148152380Y-54914285D02*
X147152380Y-54914285D01*
X147152380Y-54533333D01*
X147200000Y-54438095D01*
X147247619Y-54390476D01*
X147342857Y-54342857D01*
X147485714Y-54342857D01*
X147580952Y-54390476D01*
X147628571Y-54438095D01*
X147676190Y-54533333D01*
X147676190Y-54914285D01*
X147485714Y-53485714D02*
X148152380Y-53485714D01*
X147104761Y-53723809D02*
X147819047Y-53961904D01*
X147819047Y-53342857D01*
X148152380Y-52438095D02*
X148152380Y-53009523D01*
X148152380Y-52723809D02*
X147152380Y-52723809D01*
X147295238Y-52819047D01*
X147390476Y-52914285D01*
X147438095Y-53009523D01*
%TO.C,J3*%
X85552380Y-108533333D02*
X86266666Y-108533333D01*
X86409523Y-108580952D01*
X86504761Y-108676190D01*
X86552380Y-108819047D01*
X86552380Y-108914285D01*
X85552380Y-108152380D02*
X85552380Y-107533333D01*
X85933333Y-107866666D01*
X85933333Y-107723809D01*
X85980952Y-107628571D01*
X86028571Y-107580952D01*
X86123809Y-107533333D01*
X86361904Y-107533333D01*
X86457142Y-107580952D01*
X86504761Y-107628571D01*
X86552380Y-107723809D01*
X86552380Y-108009523D01*
X86504761Y-108104761D01*
X86457142Y-108152380D01*
%TO.C,R31*%
X106857142Y-107602380D02*
X106523809Y-107126190D01*
X106285714Y-107602380D02*
X106285714Y-106602380D01*
X106666666Y-106602380D01*
X106761904Y-106650000D01*
X106809523Y-106697619D01*
X106857142Y-106792857D01*
X106857142Y-106935714D01*
X106809523Y-107030952D01*
X106761904Y-107078571D01*
X106666666Y-107126190D01*
X106285714Y-107126190D01*
X107190476Y-106602380D02*
X107809523Y-106602380D01*
X107476190Y-106983333D01*
X107619047Y-106983333D01*
X107714285Y-107030952D01*
X107761904Y-107078571D01*
X107809523Y-107173809D01*
X107809523Y-107411904D01*
X107761904Y-107507142D01*
X107714285Y-107554761D01*
X107619047Y-107602380D01*
X107333333Y-107602380D01*
X107238095Y-107554761D01*
X107190476Y-107507142D01*
X108761904Y-107602380D02*
X108190476Y-107602380D01*
X108476190Y-107602380D02*
X108476190Y-106602380D01*
X108380952Y-106745238D01*
X108285714Y-106840476D01*
X108190476Y-106888095D01*
%TO.C,C41*%
X123937142Y-83880357D02*
X123984761Y-83927976D01*
X124032380Y-84070833D01*
X124032380Y-84166071D01*
X123984761Y-84308928D01*
X123889523Y-84404166D01*
X123794285Y-84451785D01*
X123603809Y-84499404D01*
X123460952Y-84499404D01*
X123270476Y-84451785D01*
X123175238Y-84404166D01*
X123080000Y-84308928D01*
X123032380Y-84166071D01*
X123032380Y-84070833D01*
X123080000Y-83927976D01*
X123127619Y-83880357D01*
X123365714Y-83023214D02*
X124032380Y-83023214D01*
X122984761Y-83261309D02*
X123699047Y-83499404D01*
X123699047Y-82880357D01*
X124032380Y-81975595D02*
X124032380Y-82547023D01*
X124032380Y-82261309D02*
X123032380Y-82261309D01*
X123175238Y-82356547D01*
X123270476Y-82451785D01*
X123318095Y-82547023D01*
%TO.C,L1*%
X157033333Y-91952380D02*
X156557142Y-91952380D01*
X156557142Y-90952380D01*
X157890476Y-91952380D02*
X157319047Y-91952380D01*
X157604761Y-91952380D02*
X157604761Y-90952380D01*
X157509523Y-91095238D01*
X157414285Y-91190476D01*
X157319047Y-91238095D01*
%TO.C,R7*%
X122333333Y-72252380D02*
X122000000Y-71776190D01*
X121761904Y-72252380D02*
X121761904Y-71252380D01*
X122142857Y-71252380D01*
X122238095Y-71300000D01*
X122285714Y-71347619D01*
X122333333Y-71442857D01*
X122333333Y-71585714D01*
X122285714Y-71680952D01*
X122238095Y-71728571D01*
X122142857Y-71776190D01*
X121761904Y-71776190D01*
X122666666Y-71252380D02*
X123333333Y-71252380D01*
X122904761Y-72252380D01*
%TO.C,C22*%
X121862153Y-51197170D02*
X121814534Y-51244789D01*
X121671677Y-51292408D01*
X121576439Y-51292408D01*
X121433582Y-51244789D01*
X121338344Y-51149551D01*
X121290725Y-51054313D01*
X121243106Y-50863837D01*
X121243106Y-50720980D01*
X121290725Y-50530504D01*
X121338344Y-50435266D01*
X121433582Y-50340028D01*
X121576439Y-50292408D01*
X121671677Y-50292408D01*
X121814534Y-50340028D01*
X121862153Y-50387647D01*
X122243106Y-50387647D02*
X122290725Y-50340028D01*
X122385963Y-50292408D01*
X122624058Y-50292408D01*
X122719296Y-50340028D01*
X122766915Y-50387647D01*
X122814534Y-50482885D01*
X122814534Y-50578123D01*
X122766915Y-50720980D01*
X122195487Y-51292408D01*
X122814534Y-51292408D01*
X123195487Y-50387647D02*
X123243106Y-50340028D01*
X123338344Y-50292408D01*
X123576439Y-50292408D01*
X123671677Y-50340028D01*
X123719296Y-50387647D01*
X123766915Y-50482885D01*
X123766915Y-50578123D01*
X123719296Y-50720980D01*
X123147868Y-51292408D01*
X123766915Y-51292408D01*
%TO.C,U8*%
X158288095Y-102002380D02*
X158288095Y-102811904D01*
X158335714Y-102907142D01*
X158383333Y-102954761D01*
X158478571Y-103002380D01*
X158669047Y-103002380D01*
X158764285Y-102954761D01*
X158811904Y-102907142D01*
X158859523Y-102811904D01*
X158859523Y-102002380D01*
X159478571Y-102430952D02*
X159383333Y-102383333D01*
X159335714Y-102335714D01*
X159288095Y-102240476D01*
X159288095Y-102192857D01*
X159335714Y-102097619D01*
X159383333Y-102050000D01*
X159478571Y-102002380D01*
X159669047Y-102002380D01*
X159764285Y-102050000D01*
X159811904Y-102097619D01*
X159859523Y-102192857D01*
X159859523Y-102240476D01*
X159811904Y-102335714D01*
X159764285Y-102383333D01*
X159669047Y-102430952D01*
X159478571Y-102430952D01*
X159383333Y-102478571D01*
X159335714Y-102526190D01*
X159288095Y-102621428D01*
X159288095Y-102811904D01*
X159335714Y-102907142D01*
X159383333Y-102954761D01*
X159478571Y-103002380D01*
X159669047Y-103002380D01*
X159764285Y-102954761D01*
X159811904Y-102907142D01*
X159859523Y-102811904D01*
X159859523Y-102621428D01*
X159811904Y-102526190D01*
X159764285Y-102478571D01*
X159669047Y-102430952D01*
%TO.C,R14*%
X118257391Y-55232885D02*
X117781201Y-55566218D01*
X118257391Y-55804313D02*
X117257391Y-55804313D01*
X117257391Y-55423361D01*
X117305011Y-55328123D01*
X117352630Y-55280504D01*
X117447868Y-55232885D01*
X117590725Y-55232885D01*
X117685963Y-55280504D01*
X117733582Y-55328123D01*
X117781201Y-55423361D01*
X117781201Y-55804313D01*
X118257391Y-54280504D02*
X118257391Y-54851932D01*
X118257391Y-54566218D02*
X117257391Y-54566218D01*
X117400249Y-54661456D01*
X117495487Y-54756694D01*
X117543106Y-54851932D01*
X117590725Y-53423361D02*
X118257391Y-53423361D01*
X117209772Y-53661456D02*
X117924058Y-53899551D01*
X117924058Y-53280504D01*
%TO.C,R43*%
X157552380Y-44242857D02*
X157076190Y-44576190D01*
X157552380Y-44814285D02*
X156552380Y-44814285D01*
X156552380Y-44433333D01*
X156600000Y-44338095D01*
X156647619Y-44290476D01*
X156742857Y-44242857D01*
X156885714Y-44242857D01*
X156980952Y-44290476D01*
X157028571Y-44338095D01*
X157076190Y-44433333D01*
X157076190Y-44814285D01*
X156885714Y-43385714D02*
X157552380Y-43385714D01*
X156504761Y-43623809D02*
X157219047Y-43861904D01*
X157219047Y-43242857D01*
X156552380Y-42957142D02*
X156552380Y-42338095D01*
X156933333Y-42671428D01*
X156933333Y-42528571D01*
X156980952Y-42433333D01*
X157028571Y-42385714D01*
X157123809Y-42338095D01*
X157361904Y-42338095D01*
X157457142Y-42385714D01*
X157504761Y-42433333D01*
X157552380Y-42528571D01*
X157552380Y-42814285D01*
X157504761Y-42909523D01*
X157457142Y-42957142D01*
%TO.C,C29*%
X147957142Y-52157142D02*
X147909523Y-52204761D01*
X147766666Y-52252380D01*
X147671428Y-52252380D01*
X147528571Y-52204761D01*
X147433333Y-52109523D01*
X147385714Y-52014285D01*
X147338095Y-51823809D01*
X147338095Y-51680952D01*
X147385714Y-51490476D01*
X147433333Y-51395238D01*
X147528571Y-51300000D01*
X147671428Y-51252380D01*
X147766666Y-51252380D01*
X147909523Y-51300000D01*
X147957142Y-51347619D01*
X148338095Y-51347619D02*
X148385714Y-51300000D01*
X148480952Y-51252380D01*
X148719047Y-51252380D01*
X148814285Y-51300000D01*
X148861904Y-51347619D01*
X148909523Y-51442857D01*
X148909523Y-51538095D01*
X148861904Y-51680952D01*
X148290476Y-52252380D01*
X148909523Y-52252380D01*
X149385714Y-52252380D02*
X149576190Y-52252380D01*
X149671428Y-52204761D01*
X149719047Y-52157142D01*
X149814285Y-52014285D01*
X149861904Y-51823809D01*
X149861904Y-51442857D01*
X149814285Y-51347619D01*
X149766666Y-51300000D01*
X149671428Y-51252380D01*
X149480952Y-51252380D01*
X149385714Y-51300000D01*
X149338095Y-51347619D01*
X149290476Y-51442857D01*
X149290476Y-51680952D01*
X149338095Y-51776190D01*
X149385714Y-51823809D01*
X149480952Y-51871428D01*
X149671428Y-51871428D01*
X149766666Y-51823809D01*
X149814285Y-51776190D01*
X149861904Y-51680952D01*
%TO.C,R50*%
X145857142Y-106802380D02*
X145523809Y-106326190D01*
X145285714Y-106802380D02*
X145285714Y-105802380D01*
X145666666Y-105802380D01*
X145761904Y-105850000D01*
X145809523Y-105897619D01*
X145857142Y-105992857D01*
X145857142Y-106135714D01*
X145809523Y-106230952D01*
X145761904Y-106278571D01*
X145666666Y-106326190D01*
X145285714Y-106326190D01*
X146761904Y-105802380D02*
X146285714Y-105802380D01*
X146238095Y-106278571D01*
X146285714Y-106230952D01*
X146380952Y-106183333D01*
X146619047Y-106183333D01*
X146714285Y-106230952D01*
X146761904Y-106278571D01*
X146809523Y-106373809D01*
X146809523Y-106611904D01*
X146761904Y-106707142D01*
X146714285Y-106754761D01*
X146619047Y-106802380D01*
X146380952Y-106802380D01*
X146285714Y-106754761D01*
X146238095Y-106707142D01*
X147428571Y-105802380D02*
X147523809Y-105802380D01*
X147619047Y-105850000D01*
X147666666Y-105897619D01*
X147714285Y-105992857D01*
X147761904Y-106183333D01*
X147761904Y-106421428D01*
X147714285Y-106611904D01*
X147666666Y-106707142D01*
X147619047Y-106754761D01*
X147523809Y-106802380D01*
X147428571Y-106802380D01*
X147333333Y-106754761D01*
X147285714Y-106707142D01*
X147238095Y-106611904D01*
X147190476Y-106421428D01*
X147190476Y-106183333D01*
X147238095Y-105992857D01*
X147285714Y-105897619D01*
X147333333Y-105850000D01*
X147428571Y-105802380D01*
%TO.C,C52*%
X84457142Y-62477142D02*
X84409523Y-62524761D01*
X84266666Y-62572380D01*
X84171428Y-62572380D01*
X84028571Y-62524761D01*
X83933333Y-62429523D01*
X83885714Y-62334285D01*
X83838095Y-62143809D01*
X83838095Y-62000952D01*
X83885714Y-61810476D01*
X83933333Y-61715238D01*
X84028571Y-61620000D01*
X84171428Y-61572380D01*
X84266666Y-61572380D01*
X84409523Y-61620000D01*
X84457142Y-61667619D01*
X85361904Y-61572380D02*
X84885714Y-61572380D01*
X84838095Y-62048571D01*
X84885714Y-62000952D01*
X84980952Y-61953333D01*
X85219047Y-61953333D01*
X85314285Y-62000952D01*
X85361904Y-62048571D01*
X85409523Y-62143809D01*
X85409523Y-62381904D01*
X85361904Y-62477142D01*
X85314285Y-62524761D01*
X85219047Y-62572380D01*
X84980952Y-62572380D01*
X84885714Y-62524761D01*
X84838095Y-62477142D01*
X85790476Y-61667619D02*
X85838095Y-61620000D01*
X85933333Y-61572380D01*
X86171428Y-61572380D01*
X86266666Y-61620000D01*
X86314285Y-61667619D01*
X86361904Y-61762857D01*
X86361904Y-61858095D01*
X86314285Y-62000952D01*
X85742857Y-62572380D01*
X86361904Y-62572380D01*
%TO.C,R29*%
X73157142Y-94152380D02*
X72823809Y-93676190D01*
X72585714Y-94152380D02*
X72585714Y-93152380D01*
X72966666Y-93152380D01*
X73061904Y-93200000D01*
X73109523Y-93247619D01*
X73157142Y-93342857D01*
X73157142Y-93485714D01*
X73109523Y-93580952D01*
X73061904Y-93628571D01*
X72966666Y-93676190D01*
X72585714Y-93676190D01*
X73538095Y-93247619D02*
X73585714Y-93200000D01*
X73680952Y-93152380D01*
X73919047Y-93152380D01*
X74014285Y-93200000D01*
X74061904Y-93247619D01*
X74109523Y-93342857D01*
X74109523Y-93438095D01*
X74061904Y-93580952D01*
X73490476Y-94152380D01*
X74109523Y-94152380D01*
X74585714Y-94152380D02*
X74776190Y-94152380D01*
X74871428Y-94104761D01*
X74919047Y-94057142D01*
X75014285Y-93914285D01*
X75061904Y-93723809D01*
X75061904Y-93342857D01*
X75014285Y-93247619D01*
X74966666Y-93200000D01*
X74871428Y-93152380D01*
X74680952Y-93152380D01*
X74585714Y-93200000D01*
X74538095Y-93247619D01*
X74490476Y-93342857D01*
X74490476Y-93580952D01*
X74538095Y-93676190D01*
X74585714Y-93723809D01*
X74680952Y-93771428D01*
X74871428Y-93771428D01*
X74966666Y-93723809D01*
X75014285Y-93676190D01*
X75061904Y-93580952D01*
%TO.C,J1*%
X161666666Y-49452380D02*
X161666666Y-50166666D01*
X161619047Y-50309523D01*
X161523809Y-50404761D01*
X161380952Y-50452380D01*
X161285714Y-50452380D01*
X162666666Y-50452380D02*
X162095238Y-50452380D01*
X162380952Y-50452380D02*
X162380952Y-49452380D01*
X162285714Y-49595238D01*
X162190476Y-49690476D01*
X162095238Y-49738095D01*
%TO.C,R17*%
X133062153Y-53792408D02*
X132728820Y-53316218D01*
X132490725Y-53792408D02*
X132490725Y-52792408D01*
X132871677Y-52792408D01*
X132966915Y-52840028D01*
X133014534Y-52887647D01*
X133062153Y-52982885D01*
X133062153Y-53125742D01*
X133014534Y-53220980D01*
X132966915Y-53268599D01*
X132871677Y-53316218D01*
X132490725Y-53316218D01*
X134014534Y-53792408D02*
X133443106Y-53792408D01*
X133728820Y-53792408D02*
X133728820Y-52792408D01*
X133633582Y-52935266D01*
X133538344Y-53030504D01*
X133443106Y-53078123D01*
X134347868Y-52792408D02*
X135014534Y-52792408D01*
X134585963Y-53792408D01*
%TO.C,J2*%
X67466666Y-62552380D02*
X67466666Y-63266666D01*
X67419047Y-63409523D01*
X67323809Y-63504761D01*
X67180952Y-63552380D01*
X67085714Y-63552380D01*
X67895238Y-62647619D02*
X67942857Y-62600000D01*
X68038095Y-62552380D01*
X68276190Y-62552380D01*
X68371428Y-62600000D01*
X68419047Y-62647619D01*
X68466666Y-62742857D01*
X68466666Y-62838095D01*
X68419047Y-62980952D01*
X67847619Y-63552380D01*
X68466666Y-63552380D01*
D11*
%TO.C,R40*%
X145872936Y-113835000D02*
X146327064Y-113835000D01*
X145872936Y-112365000D02*
X146327064Y-112365000D01*
%TO.C,U5*%
X101075000Y-37745000D02*
X101545000Y-37745000D01*
X107505000Y-37745000D02*
X107505000Y-38845000D01*
X101545000Y-37745000D02*
X101545000Y-40575000D01*
X107975000Y-36245000D02*
X107975000Y-37745000D01*
X107975000Y-37745000D02*
X107505000Y-37745000D01*
X101075000Y-36245000D02*
X101075000Y-37745000D01*
%TO.C,C36*%
X128690000Y-107373752D02*
X128690000Y-105951248D01*
X130510000Y-107373752D02*
X130510000Y-105951248D01*
%TO.C,Y1*%
X124275000Y-90075000D02*
X124275000Y-88725000D01*
X122525000Y-90075000D02*
X122525000Y-88725000D01*
%TO.C,C59*%
X95490000Y-37760000D02*
X96190000Y-37760000D01*
X98685000Y-33625000D02*
X98685000Y-34000000D01*
X98872500Y-33812500D02*
X98497500Y-33812500D01*
X99010000Y-35129437D02*
X99010000Y-37760000D01*
X99010000Y-37760000D02*
X98310000Y-37760000D01*
X96190000Y-34429437D02*
X95490000Y-35129437D01*
X98310000Y-34429437D02*
X99010000Y-35129437D01*
X95490000Y-35129437D02*
X95490000Y-37760000D01*
%TO.C,C34*%
X136838748Y-108735000D02*
X137361252Y-108735000D01*
X136838748Y-107265000D02*
X137361252Y-107265000D01*
%TO.C,R19*%
X145240011Y-57112964D02*
X145240011Y-57567092D01*
X143770011Y-57112964D02*
X143770011Y-57567092D01*
%TO.C,C20*%
X136493759Y-57825028D02*
X137016263Y-57825028D01*
X136493759Y-56355028D02*
X137016263Y-56355028D01*
%TO.C,C15*%
X124865000Y-72138748D02*
X124865000Y-72661252D01*
X126335000Y-72138748D02*
X126335000Y-72661252D01*
%TO.C,C3*%
X88701248Y-69835000D02*
X89223752Y-69835000D01*
X88701248Y-68365000D02*
X89223752Y-68365000D01*
%TO.C,R11*%
X141240011Y-57567092D02*
X141240011Y-57112964D01*
X139770011Y-57567092D02*
X139770011Y-57112964D01*
%TO.C,C57*%
X80838748Y-61765000D02*
X81361252Y-61765000D01*
X80838748Y-63235000D02*
X81361252Y-63235000D01*
%TO.C,C43*%
X143935000Y-75376248D02*
X143935000Y-75898752D01*
X142465000Y-75376248D02*
X142465000Y-75898752D01*
%TO.C,C25*%
X141770011Y-63116276D02*
X141770011Y-63638780D01*
X143240011Y-63116276D02*
X143240011Y-63638780D01*
%TO.C,J8*%
X82860000Y-106550000D02*
X84350000Y-106550000D01*
X84350000Y-112350000D02*
X84350000Y-110610000D01*
X84350000Y-106550000D02*
X84350000Y-107890000D01*
X78050000Y-110610000D02*
X78050000Y-112350000D01*
X79540000Y-106550000D02*
X79540000Y-105350000D01*
X78050000Y-112350000D02*
X84350000Y-112350000D01*
X79540000Y-106550000D02*
X78050000Y-106550000D01*
X78050000Y-106550000D02*
X78050000Y-107890000D01*
%TO.C,C33*%
X131954437Y-41610000D02*
X130890000Y-40545563D01*
X140545563Y-41610000D02*
X137760000Y-41610000D01*
X133490000Y-43100000D02*
X133490000Y-41850000D01*
X132865000Y-42475000D02*
X134115000Y-42475000D01*
X141610000Y-30890000D02*
X137760000Y-30890000D01*
X141610000Y-40545563D02*
X141610000Y-30890000D01*
X140545563Y-41610000D02*
X141610000Y-40545563D01*
X130890000Y-40545563D02*
X130890000Y-30890000D01*
X130890000Y-30890000D02*
X134740000Y-30890000D01*
X131954437Y-41610000D02*
X134740000Y-41610000D01*
%TO.C,D2*%
X112600000Y-43600000D02*
X112600000Y-46900000D01*
X112600000Y-43600000D02*
X119500000Y-43600000D01*
X112600000Y-46900000D02*
X119500000Y-46900000D01*
%TO.C,R23*%
X145932075Y-70805028D02*
X145477947Y-70805028D01*
X145932075Y-72275028D02*
X145477947Y-72275028D01*
%TO.C,J4*%
X66570000Y-60930000D02*
X69230000Y-60930000D01*
X69230000Y-50710000D02*
X69230000Y-60930000D01*
X67900000Y-48110000D02*
X69230000Y-48110000D01*
X66570000Y-50710000D02*
X66570000Y-60930000D01*
X69230000Y-48110000D02*
X69230000Y-49440000D01*
X66570000Y-50710000D02*
X69230000Y-50710000D01*
%TO.C,R21*%
X127172936Y-65735000D02*
X127627064Y-65735000D01*
X127172936Y-64265000D02*
X127627064Y-64265000D01*
%TO.C,R49*%
X128772936Y-101235000D02*
X129227064Y-101235000D01*
X128772936Y-99765000D02*
X129227064Y-99765000D01*
%TO.C,R46*%
X119272936Y-62265000D02*
X119727064Y-62265000D01*
X119272936Y-63735000D02*
X119727064Y-63735000D01*
%TO.C,R13*%
X147240011Y-63567092D02*
X147240011Y-63112964D01*
X145770011Y-63567092D02*
X145770011Y-63112964D01*
%TO.C,C2*%
X93165000Y-63423752D02*
X93165000Y-62901248D01*
X94635000Y-63423752D02*
X94635000Y-62901248D01*
%TO.C,R44*%
X154665000Y-47272936D02*
X154665000Y-47727064D01*
X156135000Y-47272936D02*
X156135000Y-47727064D01*
%TO.C,C12*%
X87965000Y-86923752D02*
X87965000Y-86401248D01*
X89435000Y-86923752D02*
X89435000Y-86401248D01*
%TO.C,C23*%
X127361252Y-89965000D02*
X126838748Y-89965000D01*
X127361252Y-91435000D02*
X126838748Y-91435000D01*
%TO.C,C31*%
X109954437Y-41610000D02*
X112740000Y-41610000D01*
X119610000Y-40545563D02*
X119610000Y-30890000D01*
X110865000Y-42475000D02*
X112115000Y-42475000D01*
X108890000Y-30890000D02*
X112740000Y-30890000D01*
X118545563Y-41610000D02*
X115760000Y-41610000D01*
X111490000Y-43100000D02*
X111490000Y-41850000D01*
X109954437Y-41610000D02*
X108890000Y-40545563D01*
X119610000Y-30890000D02*
X115760000Y-30890000D01*
X108890000Y-40545563D02*
X108890000Y-30890000D01*
X118545563Y-41610000D02*
X119610000Y-40545563D01*
%TO.C,R9*%
X131372936Y-82265000D02*
X131827064Y-82265000D01*
X131372936Y-83735000D02*
X131827064Y-83735000D01*
%TO.C,R26*%
X155665000Y-79572936D02*
X155665000Y-80027064D01*
X157135000Y-79572936D02*
X157135000Y-80027064D01*
%TO.C,C32*%
X156161252Y-112860000D02*
X154738748Y-112860000D01*
X156161252Y-111040000D02*
X154738748Y-111040000D01*
%TO.C,R16*%
X119270011Y-56712964D02*
X119270011Y-57167092D01*
X120740011Y-56712964D02*
X120740011Y-57167092D01*
%TO.C,U3*%
X95000000Y-115260000D02*
X93050000Y-115260000D01*
X95000000Y-110140000D02*
X96950000Y-110140000D01*
X95000000Y-115260000D02*
X98450000Y-115260000D01*
X95000000Y-110140000D02*
X93050000Y-110140000D01*
%TO.C,C6*%
X124376248Y-92765000D02*
X124898752Y-92765000D01*
X124376248Y-94235000D02*
X124898752Y-94235000D01*
%TO.C,C44*%
X97560000Y-45495563D02*
X96495563Y-46560000D01*
X97560000Y-42104437D02*
X96495563Y-41040000D01*
X92040000Y-41040000D02*
X92040000Y-42740000D01*
X96495563Y-46560000D02*
X92040000Y-46560000D01*
X97560000Y-45495563D02*
X97560000Y-44860000D01*
X92040000Y-46560000D02*
X92040000Y-44860000D01*
X96495563Y-41040000D02*
X92040000Y-41040000D01*
X98425000Y-45485000D02*
X97800000Y-45485000D01*
X98112500Y-45797500D02*
X98112500Y-45172500D01*
X97560000Y-42104437D02*
X97560000Y-42740000D01*
%TO.C,U11*%
X73100000Y-59100000D02*
X72700000Y-59100000D01*
X72700000Y-48500000D02*
X73100000Y-48500000D01*
X95300000Y-59100000D02*
X95300000Y-48500000D01*
X73100000Y-60300000D02*
X73100000Y-59100000D01*
X94900000Y-48500000D02*
X95300000Y-48500000D01*
X72700000Y-59100000D02*
X72700000Y-48500000D01*
X94900000Y-59100000D02*
X95300000Y-59100000D01*
%TO.C,C13*%
X86265000Y-74923752D02*
X86265000Y-74401248D01*
X87735000Y-74923752D02*
X87735000Y-74401248D01*
%TO.C,U1*%
X93840000Y-91610000D02*
X92890000Y-91610000D01*
X93840000Y-67390000D02*
X92890000Y-67390000D01*
X116160000Y-67390000D02*
X117110000Y-67390000D01*
X117110000Y-67390000D02*
X117110000Y-68340000D01*
X92890000Y-67390000D02*
X92890000Y-68340000D01*
X92890000Y-91610000D02*
X92890000Y-90660000D01*
X116160000Y-91610000D02*
X117110000Y-91610000D01*
X117110000Y-91610000D02*
X117110000Y-90660000D01*
X117110000Y-90660000D02*
X118425000Y-90660000D01*
%TO.C,C16*%
X91665000Y-93476248D02*
X91665000Y-93998752D01*
X93135000Y-93476248D02*
X93135000Y-93998752D01*
%TO.C,J5*%
X154885000Y-74700000D02*
X154885000Y-88100000D01*
X148885000Y-88100000D02*
X151485000Y-88100000D01*
X148885000Y-74700000D02*
X151485000Y-74700000D01*
X148885000Y-88100000D02*
X148885000Y-83150000D01*
X148885000Y-74700000D02*
X148885000Y-79650000D01*
%TO.C,C27*%
X94638748Y-117235000D02*
X95161252Y-117235000D01*
X94638748Y-115765000D02*
X95161252Y-115765000D01*
%TO.C,U12*%
X148700000Y-51060000D02*
X150650000Y-51060000D01*
X148700000Y-45940000D02*
X150650000Y-45940000D01*
X148700000Y-45940000D02*
X145250000Y-45940000D01*
X148700000Y-51060000D02*
X146750000Y-51060000D01*
%TO.C,C1*%
X87335000Y-86948752D02*
X87335000Y-86426248D01*
X85865000Y-86948752D02*
X85865000Y-86426248D01*
%TO.C,C19*%
X126266263Y-57575028D02*
X125743759Y-57575028D01*
X126266263Y-56105028D02*
X125743759Y-56105028D01*
%TO.C,R5*%
X78772936Y-85435000D02*
X79227064Y-85435000D01*
X78772936Y-83965000D02*
X79227064Y-83965000D01*
%TO.C,C42*%
X113901248Y-95065000D02*
X114423752Y-95065000D01*
X113901248Y-96535000D02*
X114423752Y-96535000D01*
%TO.C,R25*%
X145932075Y-70275028D02*
X145477947Y-70275028D01*
X145932075Y-68805028D02*
X145477947Y-68805028D01*
%TO.C,R34*%
X93477064Y-31235000D02*
X93022936Y-31235000D01*
X93477064Y-29765000D02*
X93022936Y-29765000D01*
%TO.C,R38*%
X156277064Y-110160000D02*
X154822936Y-110160000D01*
X156277064Y-108340000D02*
X154822936Y-108340000D01*
%TO.C,C35*%
X133635000Y-110601248D02*
X133635000Y-111123752D01*
X132165000Y-110601248D02*
X132165000Y-111123752D01*
%TO.C,R15*%
X145240011Y-63567092D02*
X145240011Y-63112964D01*
X143770011Y-63567092D02*
X143770011Y-63112964D01*
%TO.C,C58*%
X74723752Y-46335000D02*
X74201248Y-46335000D01*
X74723752Y-44865000D02*
X74201248Y-44865000D01*
%TO.C,R33*%
X151227064Y-43965000D02*
X150772936Y-43965000D01*
X151227064Y-45435000D02*
X150772936Y-45435000D01*
%TO.C,C11*%
X114676248Y-63835000D02*
X115198752Y-63835000D01*
X114676248Y-62365000D02*
X115198752Y-62365000D01*
%TO.C,SW2*%
X133790000Y-78200000D02*
X133790000Y-78610000D01*
X140210000Y-76600000D02*
X140210000Y-74200000D01*
X133790000Y-78610000D02*
X140210000Y-78610000D01*
X133790000Y-72190000D02*
X133790000Y-72600000D01*
X140210000Y-72190000D02*
X133790000Y-72190000D01*
X133790000Y-74200000D02*
X133790000Y-76600000D01*
X140210000Y-78610000D02*
X140210000Y-78330000D01*
X140210000Y-72600000D02*
X140210000Y-72190000D01*
%TO.C,R2*%
X86265000Y-111772936D02*
X86265000Y-112227064D01*
X87735000Y-111772936D02*
X87735000Y-112227064D01*
%TO.C,C26*%
X79298752Y-92235000D02*
X78776248Y-92235000D01*
X79298752Y-90765000D02*
X78776248Y-90765000D01*
%TO.C,R10*%
X125777947Y-48105028D02*
X126232075Y-48105028D01*
X125777947Y-49575028D02*
X126232075Y-49575028D01*
%TO.C,R35*%
X140665000Y-49872936D02*
X140665000Y-50327064D01*
X142135000Y-49872936D02*
X142135000Y-50327064D01*
%TO.C,U2*%
X129395011Y-58325028D02*
X129395011Y-57850028D01*
X133615011Y-58325028D02*
X133615011Y-57850028D01*
X133615011Y-62070028D02*
X133140011Y-62070028D01*
X133615011Y-61595028D02*
X133615011Y-62070028D01*
X129395011Y-62070028D02*
X129870011Y-62070028D01*
X129395011Y-57850028D02*
X129870011Y-57850028D01*
X129395011Y-61595028D02*
X129395011Y-62070028D01*
%TO.C,C38*%
X130610000Y-40545563D02*
X130610000Y-30890000D01*
X129545563Y-41610000D02*
X130610000Y-40545563D01*
X119890000Y-40545563D02*
X119890000Y-30890000D01*
X121865000Y-42475000D02*
X123115000Y-42475000D01*
X119890000Y-30890000D02*
X123740000Y-30890000D01*
X130610000Y-30890000D02*
X126760000Y-30890000D01*
X129545563Y-41610000D02*
X126760000Y-41610000D01*
X120954437Y-41610000D02*
X123740000Y-41610000D01*
X122490000Y-43100000D02*
X122490000Y-41850000D01*
X120954437Y-41610000D02*
X119890000Y-40545563D01*
%TO.C,R48*%
X135272936Y-120235000D02*
X135727064Y-120235000D01*
X135272936Y-118765000D02*
X135727064Y-118765000D01*
%TO.C,R1*%
X89735000Y-112972936D02*
X89735000Y-113427064D01*
X88265000Y-112972936D02*
X88265000Y-113427064D01*
%TO.C,U10*%
X138300000Y-112510000D02*
X139800000Y-112510000D01*
X138300000Y-109290000D02*
X139800000Y-109290000D01*
X138300000Y-109290000D02*
X135375000Y-109290000D01*
X138300000Y-112510000D02*
X136800000Y-112510000D01*
%TO.C,C30*%
X142523752Y-107265000D02*
X142001248Y-107265000D01*
X142523752Y-108735000D02*
X142001248Y-108735000D01*
%TO.C,C5*%
X96635000Y-63423752D02*
X96635000Y-62901248D01*
X95165000Y-63423752D02*
X95165000Y-62901248D01*
%TO.C,C8*%
X109198752Y-95465000D02*
X108676248Y-95465000D01*
X109198752Y-96935000D02*
X108676248Y-96935000D01*
%TO.C,R32*%
X99627064Y-115765000D02*
X99172936Y-115765000D01*
X99627064Y-117235000D02*
X99172936Y-117235000D01*
%TO.C,R42*%
X106515000Y-44727064D02*
X106515000Y-44272936D01*
X107985000Y-44727064D02*
X107985000Y-44272936D01*
%TO.C,R37*%
X142972936Y-52265000D02*
X143427064Y-52265000D01*
X142972936Y-53735000D02*
X143427064Y-53735000D01*
%TO.C,R39*%
X142465000Y-111972936D02*
X142465000Y-112427064D01*
X143935000Y-111972936D02*
X143935000Y-112427064D01*
%TO.C,C53*%
X85238748Y-46535000D02*
X85761252Y-46535000D01*
X85238748Y-45065000D02*
X85761252Y-45065000D01*
%TO.C,C7*%
X100876248Y-59665000D02*
X101398752Y-59665000D01*
X100876248Y-61135000D02*
X101398752Y-61135000D01*
%TO.C,SW1*%
X82810000Y-95190000D02*
X76390000Y-95190000D01*
X82810000Y-99600000D02*
X82810000Y-97200000D01*
X76390000Y-95190000D02*
X76390000Y-95470000D01*
X76390000Y-101610000D02*
X82810000Y-101610000D01*
X76390000Y-97200000D02*
X76390000Y-99600000D01*
X82810000Y-101610000D02*
X82810000Y-101200000D01*
X76390000Y-101200000D02*
X76390000Y-101610000D01*
X82810000Y-95600000D02*
X82810000Y-95190000D01*
%TO.C,R22*%
X145770011Y-57112964D02*
X145770011Y-57567092D01*
X147240011Y-57112964D02*
X147240011Y-57567092D01*
%TO.C,C17*%
X135956259Y-63575028D02*
X136478763Y-63575028D01*
X135956259Y-62105028D02*
X136478763Y-62105028D01*
%TO.C,R45*%
X109985000Y-44272936D02*
X109985000Y-44727064D01*
X108515000Y-44272936D02*
X108515000Y-44727064D01*
%TO.C,R3*%
X79672936Y-70235000D02*
X80127064Y-70235000D01*
X79672936Y-68765000D02*
X80127064Y-68765000D01*
%TO.C,X1*%
X111315000Y-54065000D02*
X114100000Y-54065000D01*
X114100000Y-57735000D02*
X111500000Y-57735000D01*
X111315000Y-54265000D02*
X111315000Y-54065000D01*
%TO.C,R4*%
X73265000Y-66727064D02*
X73265000Y-66272936D01*
X74735000Y-66727064D02*
X74735000Y-66272936D01*
%TO.C,J10*%
X136075000Y-96855000D02*
X134745000Y-96855000D01*
X134745000Y-96855000D02*
X134745000Y-95525000D01*
X137405000Y-89115000D02*
X134745000Y-89115000D01*
X134745000Y-94255000D02*
X134745000Y-89115000D01*
X137405000Y-94255000D02*
X134745000Y-94255000D01*
X137405000Y-94255000D02*
X137405000Y-89115000D01*
%TO.C,R20*%
X128572936Y-66965000D02*
X129027064Y-66965000D01*
X128572936Y-68435000D02*
X129027064Y-68435000D01*
%TO.C,R6*%
X79572936Y-86765000D02*
X80027064Y-86765000D01*
X79572936Y-88235000D02*
X80027064Y-88235000D01*
%TO.C,R36*%
X91985000Y-98227064D02*
X91985000Y-97772936D01*
X90515000Y-98227064D02*
X90515000Y-97772936D01*
%TO.C,C9*%
X107901248Y-61965000D02*
X108423752Y-61965000D01*
X107901248Y-63435000D02*
X108423752Y-63435000D01*
%TO.C,C45*%
X104938748Y-54335000D02*
X105461252Y-54335000D01*
X104938748Y-52865000D02*
X105461252Y-52865000D01*
%TO.C,C37*%
X138723752Y-114435000D02*
X138201248Y-114435000D01*
X138723752Y-112965000D02*
X138201248Y-112965000D01*
%TO.C,C21*%
X126236263Y-53575028D02*
X125713759Y-53575028D01*
X126236263Y-52105028D02*
X125713759Y-52105028D01*
%TO.C,R18*%
X123940011Y-62167092D02*
X123940011Y-61712964D01*
X122470011Y-62167092D02*
X122470011Y-61712964D01*
%TO.C,J7*%
X169710011Y-52410028D02*
X148110011Y-52410028D01*
X148110011Y-52410028D02*
X148110011Y-68510028D01*
X148110011Y-68510028D02*
X169710011Y-68510028D01*
X169710011Y-68510028D02*
X169710011Y-52410028D01*
%TO.C,C18*%
X126228763Y-54105028D02*
X125706259Y-54105028D01*
X126228763Y-55575028D02*
X125706259Y-55575028D01*
%TO.C,R30*%
X97477064Y-29765000D02*
X97022936Y-29765000D01*
X97477064Y-31235000D02*
X97022936Y-31235000D01*
%TO.C,R24*%
X124520011Y-61767092D02*
X124520011Y-61312964D01*
X125990011Y-61767092D02*
X125990011Y-61312964D01*
%TO.C,C54*%
X89776248Y-63935000D02*
X90298752Y-63935000D01*
X89776248Y-62465000D02*
X90298752Y-62465000D01*
%TO.C,J6*%
X168165000Y-86670000D02*
X166705000Y-86670000D01*
X168165000Y-77730000D02*
X168165000Y-86670000D01*
X168165000Y-77730000D02*
X166705000Y-77730000D01*
X162655000Y-86670000D02*
X164455000Y-86670000D01*
X162655000Y-77730000D02*
X164455000Y-77730000D01*
%TO.C,C10*%
X100623752Y-95865000D02*
X100101248Y-95865000D01*
X100623752Y-97335000D02*
X100101248Y-97335000D01*
%TO.C,C4*%
X121638748Y-80435000D02*
X122161252Y-80435000D01*
X121638748Y-78965000D02*
X122161252Y-78965000D01*
%TO.C,C40*%
X127298752Y-88535000D02*
X126776248Y-88535000D01*
X127298752Y-87065000D02*
X126776248Y-87065000D01*
%TO.C,D1*%
X158700000Y-113450000D02*
X158700000Y-106550000D01*
X162000000Y-113450000D02*
X162000000Y-106550000D01*
X158700000Y-113450000D02*
X162000000Y-113450000D01*
%TO.C,C24*%
X143240011Y-57601280D02*
X143240011Y-57078776D01*
X141770011Y-57601280D02*
X141770011Y-57078776D01*
%TO.C,R28*%
X109735000Y-53272936D02*
X109735000Y-53727064D01*
X108265000Y-53272936D02*
X108265000Y-53727064D01*
%TO.C,C48*%
X88450000Y-36190000D02*
X88450000Y-36690000D01*
X93460000Y-40260000D02*
X93460000Y-39060000D01*
X88940000Y-39195563D02*
X90004437Y-40260000D01*
X93460000Y-35740000D02*
X93460000Y-36940000D01*
X88940000Y-39195563D02*
X88940000Y-39060000D01*
X90004437Y-40260000D02*
X93460000Y-40260000D01*
X88200000Y-36440000D02*
X88700000Y-36440000D01*
X90004437Y-35740000D02*
X93460000Y-35740000D01*
X88940000Y-36804437D02*
X88940000Y-36940000D01*
X88940000Y-36804437D02*
X90004437Y-35740000D01*
%TO.C,R12*%
X136977947Y-51275028D02*
X137432075Y-51275028D01*
X136977947Y-49805028D02*
X137432075Y-49805028D01*
%TO.C,C49*%
X89451248Y-41015000D02*
X89973752Y-41015000D01*
X89451248Y-42485000D02*
X89973752Y-42485000D01*
%TO.C,U9*%
X142050000Y-38470000D02*
X142520000Y-38470000D01*
X148950000Y-36970000D02*
X148950000Y-38470000D01*
X142520000Y-38470000D02*
X142520000Y-41300000D01*
X148950000Y-38470000D02*
X148480000Y-38470000D01*
X142050000Y-36970000D02*
X142050000Y-38470000D01*
X148480000Y-38470000D02*
X148480000Y-39570000D01*
%TO.C,R51*%
X128772936Y-103235000D02*
X129227064Y-103235000D01*
X128772936Y-101765000D02*
X129227064Y-101765000D01*
%TO.C,R27*%
X80972936Y-94435000D02*
X81427064Y-94435000D01*
X80972936Y-92965000D02*
X81427064Y-92965000D01*
%TO.C,J9*%
X100790000Y-111690000D02*
X103500000Y-111690000D01*
X128500000Y-110350000D02*
X103500000Y-110350000D01*
X128500000Y-111690000D02*
X128500000Y-110350000D01*
X131210000Y-111690000D02*
X128500000Y-111690000D01*
X103500000Y-112310000D02*
X103500000Y-115050000D01*
X128500000Y-115050000D02*
X131210000Y-115050000D01*
X103500000Y-111690000D02*
X103500000Y-110350000D01*
X128500000Y-112310000D02*
X128500000Y-115050000D01*
X131210000Y-115050000D02*
X131210000Y-111690000D01*
X100790000Y-115050000D02*
X100790000Y-111690000D01*
X128500000Y-112310000D02*
X103500000Y-112310000D01*
X103500000Y-115050000D02*
X100790000Y-115050000D01*
%TO.C,L3*%
X86800000Y-40300000D02*
X76200000Y-40300000D01*
X76200000Y-40300000D02*
X76200000Y-37100000D01*
X76200000Y-29700000D02*
X86800000Y-29700000D01*
X86800000Y-37100000D02*
X86800000Y-40300000D01*
X86800000Y-29700000D02*
X86800000Y-32900000D01*
X76200000Y-32900000D02*
X76200000Y-29700000D01*
%TO.C,C56*%
X88988748Y-29765000D02*
X89511252Y-29765000D01*
X88988748Y-31235000D02*
X89511252Y-31235000D01*
%TO.C,C55*%
X72138748Y-62935000D02*
X72661252Y-62935000D01*
X72138748Y-61465000D02*
X72661252Y-61465000D01*
%TO.C,C14*%
X86601248Y-80635000D02*
X87123752Y-80635000D01*
X86601248Y-79165000D02*
X87123752Y-79165000D01*
%TO.C,R47*%
X119727064Y-65735000D02*
X119272936Y-65735000D01*
X119727064Y-64265000D02*
X119272936Y-64265000D01*
%TO.C,C51*%
X151235000Y-37223752D02*
X151235000Y-36701248D01*
X149765000Y-37223752D02*
X149765000Y-36701248D01*
%TO.C,U6*%
X92590000Y-31990000D02*
X90830000Y-31990000D01*
X90830000Y-35060000D02*
X93260000Y-35060000D01*
%TO.C,R8*%
X131372936Y-84265000D02*
X131827064Y-84265000D01*
X131372936Y-85735000D02*
X131827064Y-85735000D01*
%TO.C,R41*%
X145365000Y-53172936D02*
X145365000Y-53627064D01*
X146835000Y-53172936D02*
X146835000Y-53627064D01*
%TO.C,J3*%
X89745000Y-106845000D02*
X102505000Y-106845000D01*
X102505000Y-109505000D02*
X102505000Y-106845000D01*
X87145000Y-106845000D02*
X88475000Y-106845000D01*
X89745000Y-109505000D02*
X102505000Y-109505000D01*
X89745000Y-109505000D02*
X89745000Y-106845000D01*
X87145000Y-108175000D02*
X87145000Y-106845000D01*
%TO.C,R31*%
X109920000Y-106020000D02*
X109920000Y-104740000D01*
X105080000Y-103760000D02*
X105080000Y-103240000D01*
X109920000Y-106020000D02*
X105080000Y-106020000D01*
X105080000Y-106020000D02*
X105080000Y-105540000D01*
X109920000Y-105640000D02*
X109920000Y-104740000D01*
X109920000Y-100980000D02*
X105080000Y-100980000D01*
X105080000Y-101460000D02*
X105080000Y-100980000D01*
X109920000Y-105640000D02*
X109920000Y-105640000D01*
X109920000Y-102260000D02*
X109920000Y-100980000D01*
X109920000Y-105640000D02*
X109920000Y-104740000D01*
%TO.C,C41*%
X121165000Y-82976248D02*
X121165000Y-83498752D01*
X122635000Y-82976248D02*
X122635000Y-83498752D01*
%TO.C,L1*%
X158450000Y-92500000D02*
X155950000Y-92500000D01*
X155950000Y-100900000D02*
X158450000Y-100900000D01*
%TO.C,R7*%
X122727064Y-72865000D02*
X122272936Y-72865000D01*
X122727064Y-74335000D02*
X122272936Y-74335000D01*
%TO.C,C22*%
X126236263Y-50105028D02*
X125713759Y-50105028D01*
X126236263Y-51575028D02*
X125713759Y-51575028D01*
%TO.C,U8*%
X157530000Y-102010000D02*
X157530000Y-103190000D01*
X153140000Y-105910000D02*
X153140000Y-103190000D01*
X153470000Y-105910000D02*
X153140000Y-105910000D01*
X157860000Y-103190000D02*
X157860000Y-105910000D01*
X153140000Y-103190000D02*
X153470000Y-103190000D01*
X157860000Y-103190000D02*
X157530000Y-103190000D01*
X157860000Y-105910000D02*
X157530000Y-105910000D01*
%TO.C,R14*%
X117070011Y-57612964D02*
X117070011Y-58067092D01*
X118540011Y-57612964D02*
X118540011Y-58067092D01*
%TO.C,R43*%
X156135000Y-43372936D02*
X156135000Y-43827064D01*
X154665000Y-43372936D02*
X154665000Y-43827064D01*
%TO.C,C29*%
X142765000Y-50361252D02*
X142765000Y-49838748D01*
X144235000Y-50361252D02*
X144235000Y-49838748D01*
%TO.C,R50*%
X146272936Y-107265000D02*
X146727064Y-107265000D01*
X146272936Y-108735000D02*
X146727064Y-108735000D01*
%TO.C,C52*%
X84838748Y-64535000D02*
X85361252Y-64535000D01*
X84838748Y-63065000D02*
X85361252Y-63065000D01*
%TO.C,R29*%
X76872936Y-94435000D02*
X77327064Y-94435000D01*
X76872936Y-92965000D02*
X77327064Y-92965000D01*
%TO.C,J1*%
X165810000Y-38920000D02*
X158190000Y-38920000D01*
X158190000Y-49080000D02*
X165810000Y-49080000D01*
X158190000Y-38920000D02*
X158190000Y-49080000D01*
X164540000Y-38920000D02*
X164540000Y-49080000D01*
X165810000Y-49080000D02*
X165810000Y-38920000D01*
%TO.C,R17*%
X136977947Y-52605028D02*
X137432075Y-52605028D01*
X136977947Y-54075028D02*
X137432075Y-54075028D01*
%TO.C,J2*%
X69330000Y-66570000D02*
X71930000Y-66570000D01*
X66730000Y-114890000D02*
X71930000Y-114890000D01*
X66730000Y-63970000D02*
X66730000Y-114890000D01*
X70600000Y-63970000D02*
X71930000Y-63970000D01*
X69330000Y-63970000D02*
X69330000Y-66570000D01*
X71930000Y-63970000D02*
X71930000Y-65300000D01*
X71930000Y-66570000D02*
X71930000Y-114890000D01*
X66730000Y-63970000D02*
X69330000Y-63970000D01*
%TD*%
M02*
