%TF.GenerationSoftware,KiCad,Pcbnew,(5.99.0-9544-g366189b864)*%
%TF.CreationDate,2021-03-13T10:42:39+01:00*%
%TF.ProjectId,Controller,436f6e74-726f-46c6-9c65-722e6b696361,rev?*%
%TF.SameCoordinates,Original*%
%TF.FileFunction,Legend,Top*%
%TF.FilePolarity,Positive*%
%FSLAX46Y46*%
G04 Gerber Fmt 4.6, Leading zero omitted, Abs format (unit mm)*
G04 Created by KiCad (PCBNEW (5.99.0-9544-g366189b864)) date 2021-03-13 10:42:39*
%MOMM*%
%LPD*%
G01*
G04 APERTURE LIST*
%ADD10C,0.150000*%
%ADD11C,0.120000*%
G04 APERTURE END LIST*
D10*
X87952380Y-105876190D02*
X87952380Y-105257142D01*
X88333333Y-105590476D01*
X88333333Y-105447619D01*
X88380952Y-105352380D01*
X88428571Y-105304761D01*
X88523809Y-105257142D01*
X88761904Y-105257142D01*
X88857142Y-105304761D01*
X88904761Y-105352380D01*
X88952380Y-105447619D01*
X88952380Y-105733333D01*
X88904761Y-105828571D01*
X88857142Y-105876190D01*
X88857142Y-104828571D02*
X88904761Y-104780952D01*
X88952380Y-104828571D01*
X88904761Y-104876190D01*
X88857142Y-104828571D01*
X88952380Y-104828571D01*
X87952380Y-104447619D02*
X87952380Y-103828571D01*
X88333333Y-104161904D01*
X88333333Y-104019047D01*
X88380952Y-103923809D01*
X88428571Y-103876190D01*
X88523809Y-103828571D01*
X88761904Y-103828571D01*
X88857142Y-103876190D01*
X88904761Y-103923809D01*
X88952380Y-104019047D01*
X88952380Y-104304761D01*
X88904761Y-104400000D01*
X88857142Y-104447619D01*
X87952380Y-103542857D02*
X88952380Y-103209523D01*
X87952380Y-102876190D01*
X98052380Y-105961904D02*
X98052380Y-105390476D01*
X99052380Y-105676190D02*
X98052380Y-105676190D01*
X98052380Y-105152380D02*
X99052380Y-104485714D01*
X98052380Y-104485714D02*
X99052380Y-105152380D01*
X93904761Y-105961904D02*
X93952380Y-105819047D01*
X93952380Y-105580952D01*
X93904761Y-105485714D01*
X93857142Y-105438095D01*
X93761904Y-105390476D01*
X93666666Y-105390476D01*
X93571428Y-105438095D01*
X93523809Y-105485714D01*
X93476190Y-105580952D01*
X93428571Y-105771428D01*
X93380952Y-105866666D01*
X93333333Y-105914285D01*
X93238095Y-105961904D01*
X93142857Y-105961904D01*
X93047619Y-105914285D01*
X93000000Y-105866666D01*
X92952380Y-105771428D01*
X92952380Y-105533333D01*
X93000000Y-105390476D01*
X92952380Y-105057142D02*
X93952380Y-104819047D01*
X93238095Y-104628571D01*
X93952380Y-104438095D01*
X92952380Y-104200000D01*
X93857142Y-103247619D02*
X93904761Y-103295238D01*
X93952380Y-103438095D01*
X93952380Y-103533333D01*
X93904761Y-103676190D01*
X93809523Y-103771428D01*
X93714285Y-103819047D01*
X93523809Y-103866666D01*
X93380952Y-103866666D01*
X93190476Y-103819047D01*
X93095238Y-103771428D01*
X93000000Y-103676190D01*
X92952380Y-103533333D01*
X92952380Y-103438095D01*
X93000000Y-103295238D01*
X93047619Y-103247619D01*
X93952380Y-102342857D02*
X93952380Y-102819047D01*
X92952380Y-102819047D01*
X93952380Y-102009523D02*
X92952380Y-102009523D01*
X93952380Y-101438095D02*
X93380952Y-101866666D01*
X92952380Y-101438095D02*
X93523809Y-102009523D01*
X95600000Y-105461904D02*
X95552380Y-105557142D01*
X95552380Y-105700000D01*
X95600000Y-105842857D01*
X95695238Y-105938095D01*
X95790476Y-105985714D01*
X95980952Y-106033333D01*
X96123809Y-106033333D01*
X96314285Y-105985714D01*
X96409523Y-105938095D01*
X96504761Y-105842857D01*
X96552380Y-105700000D01*
X96552380Y-105604761D01*
X96504761Y-105461904D01*
X96457142Y-105414285D01*
X96123809Y-105414285D01*
X96123809Y-105604761D01*
X96552380Y-104985714D02*
X95552380Y-104985714D01*
X96552380Y-104414285D01*
X95552380Y-104414285D01*
X96552380Y-103938095D02*
X95552380Y-103938095D01*
X95552380Y-103700000D01*
X95600000Y-103557142D01*
X95695238Y-103461904D01*
X95790476Y-103414285D01*
X95980952Y-103366666D01*
X96123809Y-103366666D01*
X96314285Y-103414285D01*
X96409523Y-103461904D01*
X96504761Y-103557142D01*
X96552380Y-103700000D01*
X96552380Y-103938095D01*
X70709523Y-53952380D02*
X70233333Y-53952380D01*
X70185714Y-54428571D01*
X70233333Y-54380952D01*
X70328571Y-54333333D01*
X70566666Y-54333333D01*
X70661904Y-54380952D01*
X70709523Y-54428571D01*
X70757142Y-54523809D01*
X70757142Y-54761904D01*
X70709523Y-54857142D01*
X70661904Y-54904761D01*
X70566666Y-54952380D01*
X70328571Y-54952380D01*
X70233333Y-54904761D01*
X70185714Y-54857142D01*
X71042857Y-53952380D02*
X71376190Y-54952380D01*
X71709523Y-53952380D01*
X70657142Y-57504761D02*
X70561904Y-57552380D01*
X70371428Y-57552380D01*
X70276190Y-57504761D01*
X70228571Y-57409523D01*
X70228571Y-57028571D01*
X70276190Y-56933333D01*
X70371428Y-56885714D01*
X70561904Y-56885714D01*
X70657142Y-56933333D01*
X70704761Y-57028571D01*
X70704761Y-57123809D01*
X70228571Y-57219047D01*
X71133333Y-56885714D02*
X71133333Y-57552380D01*
X71133333Y-56980952D02*
X71180952Y-56933333D01*
X71276190Y-56885714D01*
X71419047Y-56885714D01*
X71514285Y-56933333D01*
X71561904Y-57028571D01*
X71561904Y-57552380D01*
X72466666Y-57504761D02*
X72371428Y-57552380D01*
X72180952Y-57552380D01*
X72085714Y-57504761D01*
X72038095Y-57457142D01*
X71990476Y-57361904D01*
X71990476Y-57076190D01*
X72038095Y-56980952D01*
X72085714Y-56933333D01*
X72180952Y-56885714D01*
X72371428Y-56885714D01*
X72466666Y-56933333D01*
X73038095Y-57552380D02*
X72942857Y-57504761D01*
X72895238Y-57457142D01*
X72847619Y-57361904D01*
X72847619Y-57076190D01*
X72895238Y-56980952D01*
X72942857Y-56933333D01*
X73038095Y-56885714D01*
X73180952Y-56885714D01*
X73276190Y-56933333D01*
X73323809Y-56980952D01*
X73371428Y-57076190D01*
X73371428Y-57361904D01*
X73323809Y-57457142D01*
X73276190Y-57504761D01*
X73180952Y-57552380D01*
X73038095Y-57552380D01*
X74228571Y-57552380D02*
X74228571Y-56552380D01*
X74228571Y-57504761D02*
X74133333Y-57552380D01*
X73942857Y-57552380D01*
X73847619Y-57504761D01*
X73800000Y-57457142D01*
X73752380Y-57361904D01*
X73752380Y-57076190D01*
X73800000Y-56980952D01*
X73847619Y-56933333D01*
X73942857Y-56885714D01*
X74133333Y-56885714D01*
X74228571Y-56933333D01*
X75085714Y-57504761D02*
X74990476Y-57552380D01*
X74800000Y-57552380D01*
X74704761Y-57504761D01*
X74657142Y-57409523D01*
X74657142Y-57028571D01*
X74704761Y-56933333D01*
X74800000Y-56885714D01*
X74990476Y-56885714D01*
X75085714Y-56933333D01*
X75133333Y-57028571D01*
X75133333Y-57123809D01*
X74657142Y-57219047D01*
X75561904Y-57552380D02*
X75561904Y-56885714D01*
X75561904Y-57076190D02*
X75609523Y-56980952D01*
X75657142Y-56933333D01*
X75752380Y-56885714D01*
X75847619Y-56885714D01*
X76895238Y-57266666D02*
X77371428Y-57266666D01*
X76800000Y-57552380D02*
X77133333Y-56552380D01*
X77466666Y-57552380D01*
X91404761Y-105957142D02*
X91452380Y-105814285D01*
X91452380Y-105576190D01*
X91404761Y-105480952D01*
X91357142Y-105433333D01*
X91261904Y-105385714D01*
X91166666Y-105385714D01*
X91071428Y-105433333D01*
X91023809Y-105480952D01*
X90976190Y-105576190D01*
X90928571Y-105766666D01*
X90880952Y-105861904D01*
X90833333Y-105909523D01*
X90738095Y-105957142D01*
X90642857Y-105957142D01*
X90547619Y-105909523D01*
X90500000Y-105861904D01*
X90452380Y-105766666D01*
X90452380Y-105528571D01*
X90500000Y-105385714D01*
X90452380Y-105052380D02*
X91452380Y-104814285D01*
X90738095Y-104623809D01*
X91452380Y-104433333D01*
X90452380Y-104195238D01*
X91452380Y-103814285D02*
X90452380Y-103814285D01*
X90452380Y-103576190D01*
X90500000Y-103433333D01*
X90595238Y-103338095D01*
X90690476Y-103290476D01*
X90880952Y-103242857D01*
X91023809Y-103242857D01*
X91214285Y-103290476D01*
X91309523Y-103338095D01*
X91404761Y-103433333D01*
X91452380Y-103576190D01*
X91452380Y-103814285D01*
X70585714Y-52404761D02*
X70490476Y-52452380D01*
X70300000Y-52452380D01*
X70204761Y-52404761D01*
X70157142Y-52309523D01*
X70157142Y-51928571D01*
X70204761Y-51833333D01*
X70300000Y-51785714D01*
X70490476Y-51785714D01*
X70585714Y-51833333D01*
X70633333Y-51928571D01*
X70633333Y-52023809D01*
X70157142Y-52119047D01*
X71061904Y-51785714D02*
X71061904Y-52452380D01*
X71061904Y-51880952D02*
X71109523Y-51833333D01*
X71204761Y-51785714D01*
X71347619Y-51785714D01*
X71442857Y-51833333D01*
X71490476Y-51928571D01*
X71490476Y-52452380D01*
X72395238Y-52404761D02*
X72300000Y-52452380D01*
X72109523Y-52452380D01*
X72014285Y-52404761D01*
X71966666Y-52357142D01*
X71919047Y-52261904D01*
X71919047Y-51976190D01*
X71966666Y-51880952D01*
X72014285Y-51833333D01*
X72109523Y-51785714D01*
X72300000Y-51785714D01*
X72395238Y-51833333D01*
X72966666Y-52452380D02*
X72871428Y-52404761D01*
X72823809Y-52357142D01*
X72776190Y-52261904D01*
X72776190Y-51976190D01*
X72823809Y-51880952D01*
X72871428Y-51833333D01*
X72966666Y-51785714D01*
X73109523Y-51785714D01*
X73204761Y-51833333D01*
X73252380Y-51880952D01*
X73300000Y-51976190D01*
X73300000Y-52261904D01*
X73252380Y-52357142D01*
X73204761Y-52404761D01*
X73109523Y-52452380D01*
X72966666Y-52452380D01*
X74157142Y-52452380D02*
X74157142Y-51452380D01*
X74157142Y-52404761D02*
X74061904Y-52452380D01*
X73871428Y-52452380D01*
X73776190Y-52404761D01*
X73728571Y-52357142D01*
X73680952Y-52261904D01*
X73680952Y-51976190D01*
X73728571Y-51880952D01*
X73776190Y-51833333D01*
X73871428Y-51785714D01*
X74061904Y-51785714D01*
X74157142Y-51833333D01*
X75014285Y-52404761D02*
X74919047Y-52452380D01*
X74728571Y-52452380D01*
X74633333Y-52404761D01*
X74585714Y-52309523D01*
X74585714Y-51928571D01*
X74633333Y-51833333D01*
X74728571Y-51785714D01*
X74919047Y-51785714D01*
X75014285Y-51833333D01*
X75061904Y-51928571D01*
X75061904Y-52023809D01*
X74585714Y-52119047D01*
X75490476Y-52452380D02*
X75490476Y-51785714D01*
X75490476Y-51976190D02*
X75538095Y-51880952D01*
X75585714Y-51833333D01*
X75680952Y-51785714D01*
X75776190Y-51785714D01*
X77204761Y-51928571D02*
X77347619Y-51976190D01*
X77395238Y-52023809D01*
X77442857Y-52119047D01*
X77442857Y-52261904D01*
X77395238Y-52357142D01*
X77347619Y-52404761D01*
X77252380Y-52452380D01*
X76871428Y-52452380D01*
X76871428Y-51452380D01*
X77204761Y-51452380D01*
X77300000Y-51500000D01*
X77347619Y-51547619D01*
X77395238Y-51642857D01*
X77395238Y-51738095D01*
X77347619Y-51833333D01*
X77300000Y-51880952D01*
X77204761Y-51928571D01*
X76871428Y-51928571D01*
X101652380Y-105366666D02*
X101176190Y-105700000D01*
X101652380Y-105938095D02*
X100652380Y-105938095D01*
X100652380Y-105557142D01*
X100700000Y-105461904D01*
X100747619Y-105414285D01*
X100842857Y-105366666D01*
X100985714Y-105366666D01*
X101080952Y-105414285D01*
X101128571Y-105461904D01*
X101176190Y-105557142D01*
X101176190Y-105938095D01*
X100652380Y-105033333D02*
X101652380Y-104366666D01*
X100652380Y-104366666D02*
X101652380Y-105033333D01*
X70738095Y-48900000D02*
X70642857Y-48852380D01*
X70500000Y-48852380D01*
X70357142Y-48900000D01*
X70261904Y-48995238D01*
X70214285Y-49090476D01*
X70166666Y-49280952D01*
X70166666Y-49423809D01*
X70214285Y-49614285D01*
X70261904Y-49709523D01*
X70357142Y-49804761D01*
X70500000Y-49852380D01*
X70595238Y-49852380D01*
X70738095Y-49804761D01*
X70785714Y-49757142D01*
X70785714Y-49423809D01*
X70595238Y-49423809D01*
X71214285Y-49852380D02*
X71214285Y-48852380D01*
X71785714Y-49852380D01*
X71785714Y-48852380D01*
X72261904Y-49852380D02*
X72261904Y-48852380D01*
X72500000Y-48852380D01*
X72642857Y-48900000D01*
X72738095Y-48995238D01*
X72785714Y-49090476D01*
X72833333Y-49280952D01*
X72833333Y-49423809D01*
X72785714Y-49614285D01*
X72738095Y-49709523D01*
X72642857Y-49804761D01*
X72500000Y-49852380D01*
X72261904Y-49852380D01*
X70738095Y-59100000D02*
X70642857Y-59052380D01*
X70500000Y-59052380D01*
X70357142Y-59100000D01*
X70261904Y-59195238D01*
X70214285Y-59290476D01*
X70166666Y-59480952D01*
X70166666Y-59623809D01*
X70214285Y-59814285D01*
X70261904Y-59909523D01*
X70357142Y-60004761D01*
X70500000Y-60052380D01*
X70595238Y-60052380D01*
X70738095Y-60004761D01*
X70785714Y-59957142D01*
X70785714Y-59623809D01*
X70595238Y-59623809D01*
X71214285Y-60052380D02*
X71214285Y-59052380D01*
X71785714Y-60052380D01*
X71785714Y-59052380D01*
X72261904Y-60052380D02*
X72261904Y-59052380D01*
X72500000Y-59052380D01*
X72642857Y-59100000D01*
X72738095Y-59195238D01*
X72785714Y-59290476D01*
X72833333Y-59480952D01*
X72833333Y-59623809D01*
X72785714Y-59814285D01*
X72738095Y-59909523D01*
X72642857Y-60004761D01*
X72500000Y-60052380D01*
X72261904Y-60052380D01*
%TO.C,R40*%
X148857142Y-113552380D02*
X148523809Y-113076190D01*
X148285714Y-113552380D02*
X148285714Y-112552380D01*
X148666666Y-112552380D01*
X148761904Y-112600000D01*
X148809523Y-112647619D01*
X148857142Y-112742857D01*
X148857142Y-112885714D01*
X148809523Y-112980952D01*
X148761904Y-113028571D01*
X148666666Y-113076190D01*
X148285714Y-113076190D01*
X149714285Y-112885714D02*
X149714285Y-113552380D01*
X149476190Y-112504761D02*
X149238095Y-113219047D01*
X149857142Y-113219047D01*
X150428571Y-112552380D02*
X150523809Y-112552380D01*
X150619047Y-112600000D01*
X150666666Y-112647619D01*
X150714285Y-112742857D01*
X150761904Y-112933333D01*
X150761904Y-113171428D01*
X150714285Y-113361904D01*
X150666666Y-113457142D01*
X150619047Y-113504761D01*
X150523809Y-113552380D01*
X150428571Y-113552380D01*
X150333333Y-113504761D01*
X150285714Y-113457142D01*
X150238095Y-113361904D01*
X150190476Y-113171428D01*
X150190476Y-112933333D01*
X150238095Y-112742857D01*
X150285714Y-112647619D01*
X150333333Y-112600000D01*
X150428571Y-112552380D01*
%TO.C,C36*%
X102257142Y-122357142D02*
X102209523Y-122404761D01*
X102066666Y-122452380D01*
X101971428Y-122452380D01*
X101828571Y-122404761D01*
X101733333Y-122309523D01*
X101685714Y-122214285D01*
X101638095Y-122023809D01*
X101638095Y-121880952D01*
X101685714Y-121690476D01*
X101733333Y-121595238D01*
X101828571Y-121500000D01*
X101971428Y-121452380D01*
X102066666Y-121452380D01*
X102209523Y-121500000D01*
X102257142Y-121547619D01*
X102590476Y-121452380D02*
X103209523Y-121452380D01*
X102876190Y-121833333D01*
X103019047Y-121833333D01*
X103114285Y-121880952D01*
X103161904Y-121928571D01*
X103209523Y-122023809D01*
X103209523Y-122261904D01*
X103161904Y-122357142D01*
X103114285Y-122404761D01*
X103019047Y-122452380D01*
X102733333Y-122452380D01*
X102638095Y-122404761D01*
X102590476Y-122357142D01*
X104066666Y-121452380D02*
X103876190Y-121452380D01*
X103780952Y-121500000D01*
X103733333Y-121547619D01*
X103638095Y-121690476D01*
X103590476Y-121880952D01*
X103590476Y-122261904D01*
X103638095Y-122357142D01*
X103685714Y-122404761D01*
X103780952Y-122452380D01*
X103971428Y-122452380D01*
X104066666Y-122404761D01*
X104114285Y-122357142D01*
X104161904Y-122261904D01*
X104161904Y-122023809D01*
X104114285Y-121928571D01*
X104066666Y-121880952D01*
X103971428Y-121833333D01*
X103780952Y-121833333D01*
X103685714Y-121880952D01*
X103638095Y-121928571D01*
X103590476Y-122023809D01*
%TO.C,Y1*%
X121376190Y-89876190D02*
X121852380Y-89876190D01*
X120852380Y-90209523D02*
X121376190Y-89876190D01*
X120852380Y-89542857D01*
X121852380Y-88685714D02*
X121852380Y-89257142D01*
X121852380Y-88971428D02*
X120852380Y-88971428D01*
X120995238Y-89066666D01*
X121090476Y-89161904D01*
X121138095Y-89257142D01*
%TO.C,C34*%
X136457142Y-106677142D02*
X136409523Y-106724761D01*
X136266666Y-106772380D01*
X136171428Y-106772380D01*
X136028571Y-106724761D01*
X135933333Y-106629523D01*
X135885714Y-106534285D01*
X135838095Y-106343809D01*
X135838095Y-106200952D01*
X135885714Y-106010476D01*
X135933333Y-105915238D01*
X136028571Y-105820000D01*
X136171428Y-105772380D01*
X136266666Y-105772380D01*
X136409523Y-105820000D01*
X136457142Y-105867619D01*
X136790476Y-105772380D02*
X137409523Y-105772380D01*
X137076190Y-106153333D01*
X137219047Y-106153333D01*
X137314285Y-106200952D01*
X137361904Y-106248571D01*
X137409523Y-106343809D01*
X137409523Y-106581904D01*
X137361904Y-106677142D01*
X137314285Y-106724761D01*
X137219047Y-106772380D01*
X136933333Y-106772380D01*
X136838095Y-106724761D01*
X136790476Y-106677142D01*
X138266666Y-106105714D02*
X138266666Y-106772380D01*
X138028571Y-105724761D02*
X137790476Y-106439047D01*
X138409523Y-106439047D01*
%TO.C,R19*%
X143062153Y-60392408D02*
X142728820Y-59916218D01*
X142490725Y-60392408D02*
X142490725Y-59392408D01*
X142871677Y-59392408D01*
X142966915Y-59440028D01*
X143014534Y-59487647D01*
X143062153Y-59582885D01*
X143062153Y-59725742D01*
X143014534Y-59820980D01*
X142966915Y-59868599D01*
X142871677Y-59916218D01*
X142490725Y-59916218D01*
X144014534Y-60392408D02*
X143443106Y-60392408D01*
X143728820Y-60392408D02*
X143728820Y-59392408D01*
X143633582Y-59535266D01*
X143538344Y-59630504D01*
X143443106Y-59678123D01*
X144490725Y-60392408D02*
X144681201Y-60392408D01*
X144776439Y-60344789D01*
X144824058Y-60297170D01*
X144919296Y-60154313D01*
X144966915Y-59963837D01*
X144966915Y-59582885D01*
X144919296Y-59487647D01*
X144871677Y-59440028D01*
X144776439Y-59392408D01*
X144585963Y-59392408D01*
X144490725Y-59440028D01*
X144443106Y-59487647D01*
X144395487Y-59582885D01*
X144395487Y-59820980D01*
X144443106Y-59916218D01*
X144490725Y-59963837D01*
X144585963Y-60011456D01*
X144776439Y-60011456D01*
X144871677Y-59963837D01*
X144919296Y-59916218D01*
X144966915Y-59820980D01*
%TO.C,C20*%
X136112153Y-55697170D02*
X136064534Y-55744789D01*
X135921677Y-55792408D01*
X135826439Y-55792408D01*
X135683582Y-55744789D01*
X135588344Y-55649551D01*
X135540725Y-55554313D01*
X135493106Y-55363837D01*
X135493106Y-55220980D01*
X135540725Y-55030504D01*
X135588344Y-54935266D01*
X135683582Y-54840028D01*
X135826439Y-54792408D01*
X135921677Y-54792408D01*
X136064534Y-54840028D01*
X136112153Y-54887647D01*
X136493106Y-54887647D02*
X136540725Y-54840028D01*
X136635963Y-54792408D01*
X136874058Y-54792408D01*
X136969296Y-54840028D01*
X137016915Y-54887647D01*
X137064534Y-54982885D01*
X137064534Y-55078123D01*
X137016915Y-55220980D01*
X136445487Y-55792408D01*
X137064534Y-55792408D01*
X137683582Y-54792408D02*
X137778820Y-54792408D01*
X137874058Y-54840028D01*
X137921677Y-54887647D01*
X137969296Y-54982885D01*
X138016915Y-55173361D01*
X138016915Y-55411456D01*
X137969296Y-55601932D01*
X137921677Y-55697170D01*
X137874058Y-55744789D01*
X137778820Y-55792408D01*
X137683582Y-55792408D01*
X137588344Y-55744789D01*
X137540725Y-55697170D01*
X137493106Y-55601932D01*
X137445487Y-55411456D01*
X137445487Y-55173361D01*
X137493106Y-54982885D01*
X137540725Y-54887647D01*
X137588344Y-54840028D01*
X137683582Y-54792408D01*
%TO.C,C15*%
X127757142Y-73242857D02*
X127804761Y-73290476D01*
X127852380Y-73433333D01*
X127852380Y-73528571D01*
X127804761Y-73671428D01*
X127709523Y-73766666D01*
X127614285Y-73814285D01*
X127423809Y-73861904D01*
X127280952Y-73861904D01*
X127090476Y-73814285D01*
X126995238Y-73766666D01*
X126900000Y-73671428D01*
X126852380Y-73528571D01*
X126852380Y-73433333D01*
X126900000Y-73290476D01*
X126947619Y-73242857D01*
X127852380Y-72290476D02*
X127852380Y-72861904D01*
X127852380Y-72576190D02*
X126852380Y-72576190D01*
X126995238Y-72671428D01*
X127090476Y-72766666D01*
X127138095Y-72861904D01*
X126852380Y-71385714D02*
X126852380Y-71861904D01*
X127328571Y-71909523D01*
X127280952Y-71861904D01*
X127233333Y-71766666D01*
X127233333Y-71528571D01*
X127280952Y-71433333D01*
X127328571Y-71385714D01*
X127423809Y-71338095D01*
X127661904Y-71338095D01*
X127757142Y-71385714D01*
X127804761Y-71433333D01*
X127852380Y-71528571D01*
X127852380Y-71766666D01*
X127804761Y-71861904D01*
X127757142Y-71909523D01*
%TO.C,C3*%
X85433333Y-70157142D02*
X85385714Y-70204761D01*
X85242857Y-70252380D01*
X85147619Y-70252380D01*
X85004761Y-70204761D01*
X84909523Y-70109523D01*
X84861904Y-70014285D01*
X84814285Y-69823809D01*
X84814285Y-69680952D01*
X84861904Y-69490476D01*
X84909523Y-69395238D01*
X85004761Y-69300000D01*
X85147619Y-69252380D01*
X85242857Y-69252380D01*
X85385714Y-69300000D01*
X85433333Y-69347619D01*
X85766666Y-69252380D02*
X86385714Y-69252380D01*
X86052380Y-69633333D01*
X86195238Y-69633333D01*
X86290476Y-69680952D01*
X86338095Y-69728571D01*
X86385714Y-69823809D01*
X86385714Y-70061904D01*
X86338095Y-70157142D01*
X86290476Y-70204761D01*
X86195238Y-70252380D01*
X85909523Y-70252380D01*
X85814285Y-70204761D01*
X85766666Y-70157142D01*
%TO.C,R11*%
X137262153Y-60392408D02*
X136928820Y-59916218D01*
X136690725Y-60392408D02*
X136690725Y-59392408D01*
X137071677Y-59392408D01*
X137166915Y-59440028D01*
X137214534Y-59487647D01*
X137262153Y-59582885D01*
X137262153Y-59725742D01*
X137214534Y-59820980D01*
X137166915Y-59868599D01*
X137071677Y-59916218D01*
X136690725Y-59916218D01*
X138214534Y-60392408D02*
X137643106Y-60392408D01*
X137928820Y-60392408D02*
X137928820Y-59392408D01*
X137833582Y-59535266D01*
X137738344Y-59630504D01*
X137643106Y-59678123D01*
X139166915Y-60392408D02*
X138595487Y-60392408D01*
X138881201Y-60392408D02*
X138881201Y-59392408D01*
X138785963Y-59535266D01*
X138690725Y-59630504D01*
X138595487Y-59678123D01*
%TO.C,C28*%
X152757142Y-37557142D02*
X152709523Y-37604761D01*
X152566666Y-37652380D01*
X152471428Y-37652380D01*
X152328571Y-37604761D01*
X152233333Y-37509523D01*
X152185714Y-37414285D01*
X152138095Y-37223809D01*
X152138095Y-37080952D01*
X152185714Y-36890476D01*
X152233333Y-36795238D01*
X152328571Y-36700000D01*
X152471428Y-36652380D01*
X152566666Y-36652380D01*
X152709523Y-36700000D01*
X152757142Y-36747619D01*
X153138095Y-36747619D02*
X153185714Y-36700000D01*
X153280952Y-36652380D01*
X153519047Y-36652380D01*
X153614285Y-36700000D01*
X153661904Y-36747619D01*
X153709523Y-36842857D01*
X153709523Y-36938095D01*
X153661904Y-37080952D01*
X153090476Y-37652380D01*
X153709523Y-37652380D01*
X154280952Y-37080952D02*
X154185714Y-37033333D01*
X154138095Y-36985714D01*
X154090476Y-36890476D01*
X154090476Y-36842857D01*
X154138095Y-36747619D01*
X154185714Y-36700000D01*
X154280952Y-36652380D01*
X154471428Y-36652380D01*
X154566666Y-36700000D01*
X154614285Y-36747619D01*
X154661904Y-36842857D01*
X154661904Y-36890476D01*
X154614285Y-36985714D01*
X154566666Y-37033333D01*
X154471428Y-37080952D01*
X154280952Y-37080952D01*
X154185714Y-37128571D01*
X154138095Y-37176190D01*
X154090476Y-37271428D01*
X154090476Y-37461904D01*
X154138095Y-37557142D01*
X154185714Y-37604761D01*
X154280952Y-37652380D01*
X154471428Y-37652380D01*
X154566666Y-37604761D01*
X154614285Y-37557142D01*
X154661904Y-37461904D01*
X154661904Y-37271428D01*
X154614285Y-37176190D01*
X154566666Y-37128571D01*
X154471428Y-37080952D01*
%TO.C,C43*%
X143557142Y-79880357D02*
X143604761Y-79927976D01*
X143652380Y-80070833D01*
X143652380Y-80166071D01*
X143604761Y-80308928D01*
X143509523Y-80404166D01*
X143414285Y-80451785D01*
X143223809Y-80499404D01*
X143080952Y-80499404D01*
X142890476Y-80451785D01*
X142795238Y-80404166D01*
X142700000Y-80308928D01*
X142652380Y-80166071D01*
X142652380Y-80070833D01*
X142700000Y-79927976D01*
X142747619Y-79880357D01*
X142985714Y-79023214D02*
X143652380Y-79023214D01*
X142604761Y-79261309D02*
X143319047Y-79499404D01*
X143319047Y-78880357D01*
X142652380Y-78594642D02*
X142652380Y-77975595D01*
X143033333Y-78308928D01*
X143033333Y-78166071D01*
X143080952Y-78070833D01*
X143128571Y-78023214D01*
X143223809Y-77975595D01*
X143461904Y-77975595D01*
X143557142Y-78023214D01*
X143604761Y-78070833D01*
X143652380Y-78166071D01*
X143652380Y-78451785D01*
X143604761Y-78547023D01*
X143557142Y-78594642D01*
%TO.C,C25*%
X142862153Y-67482885D02*
X142909772Y-67530504D01*
X142957391Y-67673361D01*
X142957391Y-67768599D01*
X142909772Y-67911456D01*
X142814534Y-68006694D01*
X142719296Y-68054313D01*
X142528820Y-68101932D01*
X142385963Y-68101932D01*
X142195487Y-68054313D01*
X142100249Y-68006694D01*
X142005011Y-67911456D01*
X141957391Y-67768599D01*
X141957391Y-67673361D01*
X142005011Y-67530504D01*
X142052630Y-67482885D01*
X142052630Y-67101932D02*
X142005011Y-67054313D01*
X141957391Y-66959075D01*
X141957391Y-66720980D01*
X142005011Y-66625742D01*
X142052630Y-66578123D01*
X142147868Y-66530504D01*
X142243106Y-66530504D01*
X142385963Y-66578123D01*
X142957391Y-67149551D01*
X142957391Y-66530504D01*
X141957391Y-65625742D02*
X141957391Y-66101932D01*
X142433582Y-66149551D01*
X142385963Y-66101932D01*
X142338344Y-66006694D01*
X142338344Y-65768599D01*
X142385963Y-65673361D01*
X142433582Y-65625742D01*
X142528820Y-65578123D01*
X142766915Y-65578123D01*
X142862153Y-65625742D01*
X142909772Y-65673361D01*
X142957391Y-65768599D01*
X142957391Y-66006694D01*
X142909772Y-66101932D01*
X142862153Y-66149551D01*
%TO.C,U4*%
X77988095Y-109452380D02*
X77988095Y-110261904D01*
X78035714Y-110357142D01*
X78083333Y-110404761D01*
X78178571Y-110452380D01*
X78369047Y-110452380D01*
X78464285Y-110404761D01*
X78511904Y-110357142D01*
X78559523Y-110261904D01*
X78559523Y-109452380D01*
X79464285Y-109785714D02*
X79464285Y-110452380D01*
X79226190Y-109404761D02*
X78988095Y-110119047D01*
X79607142Y-110119047D01*
%TO.C,J8*%
X155066666Y-104602380D02*
X155066666Y-105316666D01*
X155019047Y-105459523D01*
X154923809Y-105554761D01*
X154780952Y-105602380D01*
X154685714Y-105602380D01*
X155685714Y-105030952D02*
X155590476Y-104983333D01*
X155542857Y-104935714D01*
X155495238Y-104840476D01*
X155495238Y-104792857D01*
X155542857Y-104697619D01*
X155590476Y-104650000D01*
X155685714Y-104602380D01*
X155876190Y-104602380D01*
X155971428Y-104650000D01*
X156019047Y-104697619D01*
X156066666Y-104792857D01*
X156066666Y-104840476D01*
X156019047Y-104935714D01*
X155971428Y-104983333D01*
X155876190Y-105030952D01*
X155685714Y-105030952D01*
X155590476Y-105078571D01*
X155542857Y-105126190D01*
X155495238Y-105221428D01*
X155495238Y-105411904D01*
X155542857Y-105507142D01*
X155590476Y-105554761D01*
X155685714Y-105602380D01*
X155876190Y-105602380D01*
X155971428Y-105554761D01*
X156019047Y-105507142D01*
X156066666Y-105411904D01*
X156066666Y-105221428D01*
X156019047Y-105126190D01*
X155971428Y-105078571D01*
X155876190Y-105030952D01*
%TO.C,R35*%
X101857142Y-45452380D02*
X101523809Y-44976190D01*
X101285714Y-45452380D02*
X101285714Y-44452380D01*
X101666666Y-44452380D01*
X101761904Y-44500000D01*
X101809523Y-44547619D01*
X101857142Y-44642857D01*
X101857142Y-44785714D01*
X101809523Y-44880952D01*
X101761904Y-44928571D01*
X101666666Y-44976190D01*
X101285714Y-44976190D01*
X102190476Y-44452380D02*
X102809523Y-44452380D01*
X102476190Y-44833333D01*
X102619047Y-44833333D01*
X102714285Y-44880952D01*
X102761904Y-44928571D01*
X102809523Y-45023809D01*
X102809523Y-45261904D01*
X102761904Y-45357142D01*
X102714285Y-45404761D01*
X102619047Y-45452380D01*
X102333333Y-45452380D01*
X102238095Y-45404761D01*
X102190476Y-45357142D01*
X103714285Y-44452380D02*
X103238095Y-44452380D01*
X103190476Y-44928571D01*
X103238095Y-44880952D01*
X103333333Y-44833333D01*
X103571428Y-44833333D01*
X103666666Y-44880952D01*
X103714285Y-44928571D01*
X103761904Y-45023809D01*
X103761904Y-45261904D01*
X103714285Y-45357142D01*
X103666666Y-45404761D01*
X103571428Y-45452380D01*
X103333333Y-45452380D01*
X103238095Y-45404761D01*
X103190476Y-45357142D01*
%TO.C,R23*%
X141662153Y-72092408D02*
X141328820Y-71616218D01*
X141090725Y-72092408D02*
X141090725Y-71092408D01*
X141471677Y-71092408D01*
X141566915Y-71140028D01*
X141614534Y-71187647D01*
X141662153Y-71282885D01*
X141662153Y-71425742D01*
X141614534Y-71520980D01*
X141566915Y-71568599D01*
X141471677Y-71616218D01*
X141090725Y-71616218D01*
X142043106Y-71187647D02*
X142090725Y-71140028D01*
X142185963Y-71092408D01*
X142424058Y-71092408D01*
X142519296Y-71140028D01*
X142566915Y-71187647D01*
X142614534Y-71282885D01*
X142614534Y-71378123D01*
X142566915Y-71520980D01*
X141995487Y-72092408D01*
X142614534Y-72092408D01*
X142947868Y-71092408D02*
X143566915Y-71092408D01*
X143233582Y-71473361D01*
X143376439Y-71473361D01*
X143471677Y-71520980D01*
X143519296Y-71568599D01*
X143566915Y-71663837D01*
X143566915Y-71901932D01*
X143519296Y-71997170D01*
X143471677Y-72044789D01*
X143376439Y-72092408D01*
X143090725Y-72092408D01*
X142995487Y-72044789D01*
X142947868Y-71997170D01*
%TO.C,J4*%
X67566666Y-46122380D02*
X67566666Y-46836666D01*
X67519047Y-46979523D01*
X67423809Y-47074761D01*
X67280952Y-47122380D01*
X67185714Y-47122380D01*
X68471428Y-46455714D02*
X68471428Y-47122380D01*
X68233333Y-46074761D02*
X67995238Y-46789047D01*
X68614285Y-46789047D01*
%TO.C,R21*%
X130157142Y-65452380D02*
X129823809Y-64976190D01*
X129585714Y-65452380D02*
X129585714Y-64452380D01*
X129966666Y-64452380D01*
X130061904Y-64500000D01*
X130109523Y-64547619D01*
X130157142Y-64642857D01*
X130157142Y-64785714D01*
X130109523Y-64880952D01*
X130061904Y-64928571D01*
X129966666Y-64976190D01*
X129585714Y-64976190D01*
X130538095Y-64547619D02*
X130585714Y-64500000D01*
X130680952Y-64452380D01*
X130919047Y-64452380D01*
X131014285Y-64500000D01*
X131061904Y-64547619D01*
X131109523Y-64642857D01*
X131109523Y-64738095D01*
X131061904Y-64880952D01*
X130490476Y-65452380D01*
X131109523Y-65452380D01*
X132061904Y-65452380D02*
X131490476Y-65452380D01*
X131776190Y-65452380D02*
X131776190Y-64452380D01*
X131680952Y-64595238D01*
X131585714Y-64690476D01*
X131490476Y-64738095D01*
%TO.C,R13*%
X146957391Y-67482885D02*
X146481201Y-67816218D01*
X146957391Y-68054313D02*
X145957391Y-68054313D01*
X145957391Y-67673361D01*
X146005011Y-67578123D01*
X146052630Y-67530504D01*
X146147868Y-67482885D01*
X146290725Y-67482885D01*
X146385963Y-67530504D01*
X146433582Y-67578123D01*
X146481201Y-67673361D01*
X146481201Y-68054313D01*
X146957391Y-66530504D02*
X146957391Y-67101932D01*
X146957391Y-66816218D02*
X145957391Y-66816218D01*
X146100249Y-66911456D01*
X146195487Y-67006694D01*
X146243106Y-67101932D01*
X145957391Y-66197170D02*
X145957391Y-65578123D01*
X146338344Y-65911456D01*
X146338344Y-65768599D01*
X146385963Y-65673361D01*
X146433582Y-65625742D01*
X146528820Y-65578123D01*
X146766915Y-65578123D01*
X146862153Y-65625742D01*
X146909772Y-65673361D01*
X146957391Y-65768599D01*
X146957391Y-66054313D01*
X146909772Y-66149551D01*
X146862153Y-66197170D01*
%TO.C,C2*%
X91577142Y-63904166D02*
X91624761Y-63951785D01*
X91672380Y-64094642D01*
X91672380Y-64189880D01*
X91624761Y-64332738D01*
X91529523Y-64427976D01*
X91434285Y-64475595D01*
X91243809Y-64523214D01*
X91100952Y-64523214D01*
X90910476Y-64475595D01*
X90815238Y-64427976D01*
X90720000Y-64332738D01*
X90672380Y-64189880D01*
X90672380Y-64094642D01*
X90720000Y-63951785D01*
X90767619Y-63904166D01*
X90767619Y-63523214D02*
X90720000Y-63475595D01*
X90672380Y-63380357D01*
X90672380Y-63142261D01*
X90720000Y-63047023D01*
X90767619Y-62999404D01*
X90862857Y-62951785D01*
X90958095Y-62951785D01*
X91100952Y-62999404D01*
X91672380Y-63570833D01*
X91672380Y-62951785D01*
%TO.C,R44*%
X86357142Y-45952380D02*
X86023809Y-45476190D01*
X85785714Y-45952380D02*
X85785714Y-44952380D01*
X86166666Y-44952380D01*
X86261904Y-45000000D01*
X86309523Y-45047619D01*
X86357142Y-45142857D01*
X86357142Y-45285714D01*
X86309523Y-45380952D01*
X86261904Y-45428571D01*
X86166666Y-45476190D01*
X85785714Y-45476190D01*
X87214285Y-45285714D02*
X87214285Y-45952380D01*
X86976190Y-44904761D02*
X86738095Y-45619047D01*
X87357142Y-45619047D01*
X88166666Y-45285714D02*
X88166666Y-45952380D01*
X87928571Y-44904761D02*
X87690476Y-45619047D01*
X88309523Y-45619047D01*
%TO.C,C12*%
X89157142Y-90767857D02*
X89204761Y-90815476D01*
X89252380Y-90958333D01*
X89252380Y-91053571D01*
X89204761Y-91196428D01*
X89109523Y-91291666D01*
X89014285Y-91339285D01*
X88823809Y-91386904D01*
X88680952Y-91386904D01*
X88490476Y-91339285D01*
X88395238Y-91291666D01*
X88300000Y-91196428D01*
X88252380Y-91053571D01*
X88252380Y-90958333D01*
X88300000Y-90815476D01*
X88347619Y-90767857D01*
X89252380Y-89815476D02*
X89252380Y-90386904D01*
X89252380Y-90101190D02*
X88252380Y-90101190D01*
X88395238Y-90196428D01*
X88490476Y-90291666D01*
X88538095Y-90386904D01*
X88347619Y-89434523D02*
X88300000Y-89386904D01*
X88252380Y-89291666D01*
X88252380Y-89053571D01*
X88300000Y-88958333D01*
X88347619Y-88910714D01*
X88442857Y-88863095D01*
X88538095Y-88863095D01*
X88680952Y-88910714D01*
X89252380Y-89482142D01*
X89252380Y-88863095D01*
%TO.C,C23*%
X129957142Y-91257142D02*
X129909523Y-91304761D01*
X129766666Y-91352380D01*
X129671428Y-91352380D01*
X129528571Y-91304761D01*
X129433333Y-91209523D01*
X129385714Y-91114285D01*
X129338095Y-90923809D01*
X129338095Y-90780952D01*
X129385714Y-90590476D01*
X129433333Y-90495238D01*
X129528571Y-90400000D01*
X129671428Y-90352380D01*
X129766666Y-90352380D01*
X129909523Y-90400000D01*
X129957142Y-90447619D01*
X130338095Y-90447619D02*
X130385714Y-90400000D01*
X130480952Y-90352380D01*
X130719047Y-90352380D01*
X130814285Y-90400000D01*
X130861904Y-90447619D01*
X130909523Y-90542857D01*
X130909523Y-90638095D01*
X130861904Y-90780952D01*
X130290476Y-91352380D01*
X130909523Y-91352380D01*
X131242857Y-90352380D02*
X131861904Y-90352380D01*
X131528571Y-90733333D01*
X131671428Y-90733333D01*
X131766666Y-90780952D01*
X131814285Y-90828571D01*
X131861904Y-90923809D01*
X131861904Y-91161904D01*
X131814285Y-91257142D01*
X131766666Y-91304761D01*
X131671428Y-91352380D01*
X131385714Y-91352380D01*
X131290476Y-91304761D01*
X131242857Y-91257142D01*
%TO.C,C50*%
X75757142Y-43957142D02*
X75709523Y-44004761D01*
X75566666Y-44052380D01*
X75471428Y-44052380D01*
X75328571Y-44004761D01*
X75233333Y-43909523D01*
X75185714Y-43814285D01*
X75138095Y-43623809D01*
X75138095Y-43480952D01*
X75185714Y-43290476D01*
X75233333Y-43195238D01*
X75328571Y-43100000D01*
X75471428Y-43052380D01*
X75566666Y-43052380D01*
X75709523Y-43100000D01*
X75757142Y-43147619D01*
X76661904Y-43052380D02*
X76185714Y-43052380D01*
X76138095Y-43528571D01*
X76185714Y-43480952D01*
X76280952Y-43433333D01*
X76519047Y-43433333D01*
X76614285Y-43480952D01*
X76661904Y-43528571D01*
X76709523Y-43623809D01*
X76709523Y-43861904D01*
X76661904Y-43957142D01*
X76614285Y-44004761D01*
X76519047Y-44052380D01*
X76280952Y-44052380D01*
X76185714Y-44004761D01*
X76138095Y-43957142D01*
X77328571Y-43052380D02*
X77423809Y-43052380D01*
X77519047Y-43100000D01*
X77566666Y-43147619D01*
X77614285Y-43242857D01*
X77661904Y-43433333D01*
X77661904Y-43671428D01*
X77614285Y-43861904D01*
X77566666Y-43957142D01*
X77519047Y-44004761D01*
X77423809Y-44052380D01*
X77328571Y-44052380D01*
X77233333Y-44004761D01*
X77185714Y-43957142D01*
X77138095Y-43861904D01*
X77090476Y-43671428D01*
X77090476Y-43433333D01*
X77138095Y-43242857D01*
X77185714Y-43147619D01*
X77233333Y-43100000D01*
X77328571Y-43052380D01*
%TO.C,R9*%
X128533333Y-83452380D02*
X128200000Y-82976190D01*
X127961904Y-83452380D02*
X127961904Y-82452380D01*
X128342857Y-82452380D01*
X128438095Y-82500000D01*
X128485714Y-82547619D01*
X128533333Y-82642857D01*
X128533333Y-82785714D01*
X128485714Y-82880952D01*
X128438095Y-82928571D01*
X128342857Y-82976190D01*
X127961904Y-82976190D01*
X129009523Y-83452380D02*
X129200000Y-83452380D01*
X129295238Y-83404761D01*
X129342857Y-83357142D01*
X129438095Y-83214285D01*
X129485714Y-83023809D01*
X129485714Y-82642857D01*
X129438095Y-82547619D01*
X129390476Y-82500000D01*
X129295238Y-82452380D01*
X129104761Y-82452380D01*
X129009523Y-82500000D01*
X128961904Y-82547619D01*
X128914285Y-82642857D01*
X128914285Y-82880952D01*
X128961904Y-82976190D01*
X129009523Y-83023809D01*
X129104761Y-83071428D01*
X129295238Y-83071428D01*
X129390476Y-83023809D01*
X129438095Y-82976190D01*
X129485714Y-82880952D01*
%TO.C,Q1*%
X135104761Y-44047619D02*
X135009523Y-44000000D01*
X134914285Y-43904761D01*
X134771428Y-43761904D01*
X134676190Y-43714285D01*
X134580952Y-43714285D01*
X134628571Y-43952380D02*
X134533333Y-43904761D01*
X134438095Y-43809523D01*
X134390476Y-43619047D01*
X134390476Y-43285714D01*
X134438095Y-43095238D01*
X134533333Y-43000000D01*
X134628571Y-42952380D01*
X134819047Y-42952380D01*
X134914285Y-43000000D01*
X135009523Y-43095238D01*
X135057142Y-43285714D01*
X135057142Y-43619047D01*
X135009523Y-43809523D01*
X134914285Y-43904761D01*
X134819047Y-43952380D01*
X134628571Y-43952380D01*
X136009523Y-43952380D02*
X135438095Y-43952380D01*
X135723809Y-43952380D02*
X135723809Y-42952380D01*
X135628571Y-43095238D01*
X135533333Y-43190476D01*
X135438095Y-43238095D01*
%TO.C,R26*%
X158502380Y-80442857D02*
X158026190Y-80776190D01*
X158502380Y-81014285D02*
X157502380Y-81014285D01*
X157502380Y-80633333D01*
X157550000Y-80538095D01*
X157597619Y-80490476D01*
X157692857Y-80442857D01*
X157835714Y-80442857D01*
X157930952Y-80490476D01*
X157978571Y-80538095D01*
X158026190Y-80633333D01*
X158026190Y-81014285D01*
X157597619Y-80061904D02*
X157550000Y-80014285D01*
X157502380Y-79919047D01*
X157502380Y-79680952D01*
X157550000Y-79585714D01*
X157597619Y-79538095D01*
X157692857Y-79490476D01*
X157788095Y-79490476D01*
X157930952Y-79538095D01*
X158502380Y-80109523D01*
X158502380Y-79490476D01*
X157502380Y-78633333D02*
X157502380Y-78823809D01*
X157550000Y-78919047D01*
X157597619Y-78966666D01*
X157740476Y-79061904D01*
X157930952Y-79109523D01*
X158311904Y-79109523D01*
X158407142Y-79061904D01*
X158454761Y-79014285D01*
X158502380Y-78919047D01*
X158502380Y-78728571D01*
X158454761Y-78633333D01*
X158407142Y-78585714D01*
X158311904Y-78538095D01*
X158073809Y-78538095D01*
X157978571Y-78585714D01*
X157930952Y-78633333D01*
X157883333Y-78728571D01*
X157883333Y-78919047D01*
X157930952Y-79014285D01*
X157978571Y-79061904D01*
X158073809Y-79109523D01*
%TO.C,C45*%
X107757142Y-41837142D02*
X107709523Y-41884761D01*
X107566666Y-41932380D01*
X107471428Y-41932380D01*
X107328571Y-41884761D01*
X107233333Y-41789523D01*
X107185714Y-41694285D01*
X107138095Y-41503809D01*
X107138095Y-41360952D01*
X107185714Y-41170476D01*
X107233333Y-41075238D01*
X107328571Y-40980000D01*
X107471428Y-40932380D01*
X107566666Y-40932380D01*
X107709523Y-40980000D01*
X107757142Y-41027619D01*
X108614285Y-41265714D02*
X108614285Y-41932380D01*
X108376190Y-40884761D02*
X108138095Y-41599047D01*
X108757142Y-41599047D01*
X109614285Y-40932380D02*
X109138095Y-40932380D01*
X109090476Y-41408571D01*
X109138095Y-41360952D01*
X109233333Y-41313333D01*
X109471428Y-41313333D01*
X109566666Y-41360952D01*
X109614285Y-41408571D01*
X109661904Y-41503809D01*
X109661904Y-41741904D01*
X109614285Y-41837142D01*
X109566666Y-41884761D01*
X109471428Y-41932380D01*
X109233333Y-41932380D01*
X109138095Y-41884761D01*
X109090476Y-41837142D01*
%TO.C,C32*%
X83157142Y-121257142D02*
X83109523Y-121304761D01*
X82966666Y-121352380D01*
X82871428Y-121352380D01*
X82728571Y-121304761D01*
X82633333Y-121209523D01*
X82585714Y-121114285D01*
X82538095Y-120923809D01*
X82538095Y-120780952D01*
X82585714Y-120590476D01*
X82633333Y-120495238D01*
X82728571Y-120400000D01*
X82871428Y-120352380D01*
X82966666Y-120352380D01*
X83109523Y-120400000D01*
X83157142Y-120447619D01*
X83490476Y-120352380D02*
X84109523Y-120352380D01*
X83776190Y-120733333D01*
X83919047Y-120733333D01*
X84014285Y-120780952D01*
X84061904Y-120828571D01*
X84109523Y-120923809D01*
X84109523Y-121161904D01*
X84061904Y-121257142D01*
X84014285Y-121304761D01*
X83919047Y-121352380D01*
X83633333Y-121352380D01*
X83538095Y-121304761D01*
X83490476Y-121257142D01*
X84490476Y-120447619D02*
X84538095Y-120400000D01*
X84633333Y-120352380D01*
X84871428Y-120352380D01*
X84966666Y-120400000D01*
X85014285Y-120447619D01*
X85061904Y-120542857D01*
X85061904Y-120638095D01*
X85014285Y-120780952D01*
X84442857Y-121352380D01*
X85061904Y-121352380D01*
%TO.C,R16*%
X120457391Y-54332885D02*
X119981201Y-54666218D01*
X120457391Y-54904313D02*
X119457391Y-54904313D01*
X119457391Y-54523361D01*
X119505011Y-54428123D01*
X119552630Y-54380504D01*
X119647868Y-54332885D01*
X119790725Y-54332885D01*
X119885963Y-54380504D01*
X119933582Y-54428123D01*
X119981201Y-54523361D01*
X119981201Y-54904313D01*
X120457391Y-53380504D02*
X120457391Y-53951932D01*
X120457391Y-53666218D02*
X119457391Y-53666218D01*
X119600249Y-53761456D01*
X119695487Y-53856694D01*
X119743106Y-53951932D01*
X119457391Y-52523361D02*
X119457391Y-52713837D01*
X119505011Y-52809075D01*
X119552630Y-52856694D01*
X119695487Y-52951932D01*
X119885963Y-52999551D01*
X120266915Y-52999551D01*
X120362153Y-52951932D01*
X120409772Y-52904313D01*
X120457391Y-52809075D01*
X120457391Y-52618599D01*
X120409772Y-52523361D01*
X120362153Y-52475742D01*
X120266915Y-52428123D01*
X120028820Y-52428123D01*
X119933582Y-52475742D01*
X119885963Y-52523361D01*
X119838344Y-52618599D01*
X119838344Y-52809075D01*
X119885963Y-52904313D01*
X119933582Y-52951932D01*
X120028820Y-52999551D01*
%TO.C,U3*%
X143138095Y-104952380D02*
X143138095Y-105761904D01*
X143185714Y-105857142D01*
X143233333Y-105904761D01*
X143328571Y-105952380D01*
X143519047Y-105952380D01*
X143614285Y-105904761D01*
X143661904Y-105857142D01*
X143709523Y-105761904D01*
X143709523Y-104952380D01*
X144090476Y-104952380D02*
X144709523Y-104952380D01*
X144376190Y-105333333D01*
X144519047Y-105333333D01*
X144614285Y-105380952D01*
X144661904Y-105428571D01*
X144709523Y-105523809D01*
X144709523Y-105761904D01*
X144661904Y-105857142D01*
X144614285Y-105904761D01*
X144519047Y-105952380D01*
X144233333Y-105952380D01*
X144138095Y-105904761D01*
X144090476Y-105857142D01*
%TO.C,C6*%
X124470833Y-92177142D02*
X124423214Y-92224761D01*
X124280357Y-92272380D01*
X124185119Y-92272380D01*
X124042261Y-92224761D01*
X123947023Y-92129523D01*
X123899404Y-92034285D01*
X123851785Y-91843809D01*
X123851785Y-91700952D01*
X123899404Y-91510476D01*
X123947023Y-91415238D01*
X124042261Y-91320000D01*
X124185119Y-91272380D01*
X124280357Y-91272380D01*
X124423214Y-91320000D01*
X124470833Y-91367619D01*
X125327976Y-91272380D02*
X125137500Y-91272380D01*
X125042261Y-91320000D01*
X124994642Y-91367619D01*
X124899404Y-91510476D01*
X124851785Y-91700952D01*
X124851785Y-92081904D01*
X124899404Y-92177142D01*
X124947023Y-92224761D01*
X125042261Y-92272380D01*
X125232738Y-92272380D01*
X125327976Y-92224761D01*
X125375595Y-92177142D01*
X125423214Y-92081904D01*
X125423214Y-91843809D01*
X125375595Y-91748571D01*
X125327976Y-91700952D01*
X125232738Y-91653333D01*
X125042261Y-91653333D01*
X124947023Y-91700952D01*
X124899404Y-91748571D01*
X124851785Y-91843809D01*
%TO.C,C13*%
X88357142Y-73542857D02*
X88404761Y-73590476D01*
X88452380Y-73733333D01*
X88452380Y-73828571D01*
X88404761Y-73971428D01*
X88309523Y-74066666D01*
X88214285Y-74114285D01*
X88023809Y-74161904D01*
X87880952Y-74161904D01*
X87690476Y-74114285D01*
X87595238Y-74066666D01*
X87500000Y-73971428D01*
X87452380Y-73828571D01*
X87452380Y-73733333D01*
X87500000Y-73590476D01*
X87547619Y-73542857D01*
X88452380Y-72590476D02*
X88452380Y-73161904D01*
X88452380Y-72876190D02*
X87452380Y-72876190D01*
X87595238Y-72971428D01*
X87690476Y-73066666D01*
X87738095Y-73161904D01*
X87452380Y-72257142D02*
X87452380Y-71638095D01*
X87833333Y-71971428D01*
X87833333Y-71828571D01*
X87880952Y-71733333D01*
X87928571Y-71685714D01*
X88023809Y-71638095D01*
X88261904Y-71638095D01*
X88357142Y-71685714D01*
X88404761Y-71733333D01*
X88452380Y-71828571D01*
X88452380Y-72114285D01*
X88404761Y-72209523D01*
X88357142Y-72257142D01*
%TO.C,U1*%
X104238095Y-93332380D02*
X104238095Y-94141904D01*
X104285714Y-94237142D01*
X104333333Y-94284761D01*
X104428571Y-94332380D01*
X104619047Y-94332380D01*
X104714285Y-94284761D01*
X104761904Y-94237142D01*
X104809523Y-94141904D01*
X104809523Y-93332380D01*
X105809523Y-94332380D02*
X105238095Y-94332380D01*
X105523809Y-94332380D02*
X105523809Y-93332380D01*
X105428571Y-93475238D01*
X105333333Y-93570476D01*
X105238095Y-93618095D01*
%TO.C,C16*%
X92757142Y-97742857D02*
X92804761Y-97790476D01*
X92852380Y-97933333D01*
X92852380Y-98028571D01*
X92804761Y-98171428D01*
X92709523Y-98266666D01*
X92614285Y-98314285D01*
X92423809Y-98361904D01*
X92280952Y-98361904D01*
X92090476Y-98314285D01*
X91995238Y-98266666D01*
X91900000Y-98171428D01*
X91852380Y-98028571D01*
X91852380Y-97933333D01*
X91900000Y-97790476D01*
X91947619Y-97742857D01*
X92852380Y-96790476D02*
X92852380Y-97361904D01*
X92852380Y-97076190D02*
X91852380Y-97076190D01*
X91995238Y-97171428D01*
X92090476Y-97266666D01*
X92138095Y-97361904D01*
X91852380Y-95933333D02*
X91852380Y-96123809D01*
X91900000Y-96219047D01*
X91947619Y-96266666D01*
X92090476Y-96361904D01*
X92280952Y-96409523D01*
X92661904Y-96409523D01*
X92757142Y-96361904D01*
X92804761Y-96314285D01*
X92852380Y-96219047D01*
X92852380Y-96028571D01*
X92804761Y-95933333D01*
X92757142Y-95885714D01*
X92661904Y-95838095D01*
X92423809Y-95838095D01*
X92328571Y-95885714D01*
X92280952Y-95933333D01*
X92233333Y-96028571D01*
X92233333Y-96219047D01*
X92280952Y-96314285D01*
X92328571Y-96361904D01*
X92423809Y-96409523D01*
%TO.C,R34*%
X101857142Y-43952380D02*
X101523809Y-43476190D01*
X101285714Y-43952380D02*
X101285714Y-42952380D01*
X101666666Y-42952380D01*
X101761904Y-43000000D01*
X101809523Y-43047619D01*
X101857142Y-43142857D01*
X101857142Y-43285714D01*
X101809523Y-43380952D01*
X101761904Y-43428571D01*
X101666666Y-43476190D01*
X101285714Y-43476190D01*
X102190476Y-42952380D02*
X102809523Y-42952380D01*
X102476190Y-43333333D01*
X102619047Y-43333333D01*
X102714285Y-43380952D01*
X102761904Y-43428571D01*
X102809523Y-43523809D01*
X102809523Y-43761904D01*
X102761904Y-43857142D01*
X102714285Y-43904761D01*
X102619047Y-43952380D01*
X102333333Y-43952380D01*
X102238095Y-43904761D01*
X102190476Y-43857142D01*
X103666666Y-43285714D02*
X103666666Y-43952380D01*
X103428571Y-42904761D02*
X103190476Y-43619047D01*
X103809523Y-43619047D01*
%TO.C,J5*%
X146187380Y-80833333D02*
X146901666Y-80833333D01*
X147044523Y-80880952D01*
X147139761Y-80976190D01*
X147187380Y-81119047D01*
X147187380Y-81214285D01*
X146187380Y-79880952D02*
X146187380Y-80357142D01*
X146663571Y-80404761D01*
X146615952Y-80357142D01*
X146568333Y-80261904D01*
X146568333Y-80023809D01*
X146615952Y-79928571D01*
X146663571Y-79880952D01*
X146758809Y-79833333D01*
X146996904Y-79833333D01*
X147092142Y-79880952D01*
X147139761Y-79928571D01*
X147187380Y-80023809D01*
X147187380Y-80261904D01*
X147139761Y-80357142D01*
X147092142Y-80404761D01*
%TO.C,C27*%
X146557142Y-98557142D02*
X146509523Y-98604761D01*
X146366666Y-98652380D01*
X146271428Y-98652380D01*
X146128571Y-98604761D01*
X146033333Y-98509523D01*
X145985714Y-98414285D01*
X145938095Y-98223809D01*
X145938095Y-98080952D01*
X145985714Y-97890476D01*
X146033333Y-97795238D01*
X146128571Y-97700000D01*
X146271428Y-97652380D01*
X146366666Y-97652380D01*
X146509523Y-97700000D01*
X146557142Y-97747619D01*
X146938095Y-97747619D02*
X146985714Y-97700000D01*
X147080952Y-97652380D01*
X147319047Y-97652380D01*
X147414285Y-97700000D01*
X147461904Y-97747619D01*
X147509523Y-97842857D01*
X147509523Y-97938095D01*
X147461904Y-98080952D01*
X146890476Y-98652380D01*
X147509523Y-98652380D01*
X147842857Y-97652380D02*
X148509523Y-97652380D01*
X148080952Y-98652380D01*
%TO.C,C1*%
X86857142Y-90691666D02*
X86904761Y-90739285D01*
X86952380Y-90882142D01*
X86952380Y-90977380D01*
X86904761Y-91120238D01*
X86809523Y-91215476D01*
X86714285Y-91263095D01*
X86523809Y-91310714D01*
X86380952Y-91310714D01*
X86190476Y-91263095D01*
X86095238Y-91215476D01*
X86000000Y-91120238D01*
X85952380Y-90977380D01*
X85952380Y-90882142D01*
X86000000Y-90739285D01*
X86047619Y-90691666D01*
X86952380Y-89739285D02*
X86952380Y-90310714D01*
X86952380Y-90025000D02*
X85952380Y-90025000D01*
X86095238Y-90120238D01*
X86190476Y-90215476D01*
X86238095Y-90310714D01*
%TO.C,C19*%
X121862153Y-57197170D02*
X121814534Y-57244789D01*
X121671677Y-57292408D01*
X121576439Y-57292408D01*
X121433582Y-57244789D01*
X121338344Y-57149551D01*
X121290725Y-57054313D01*
X121243106Y-56863837D01*
X121243106Y-56720980D01*
X121290725Y-56530504D01*
X121338344Y-56435266D01*
X121433582Y-56340028D01*
X121576439Y-56292408D01*
X121671677Y-56292408D01*
X121814534Y-56340028D01*
X121862153Y-56387647D01*
X122814534Y-57292408D02*
X122243106Y-57292408D01*
X122528820Y-57292408D02*
X122528820Y-56292408D01*
X122433582Y-56435266D01*
X122338344Y-56530504D01*
X122243106Y-56578123D01*
X123290725Y-57292408D02*
X123481201Y-57292408D01*
X123576439Y-57244789D01*
X123624058Y-57197170D01*
X123719296Y-57054313D01*
X123766915Y-56863837D01*
X123766915Y-56482885D01*
X123719296Y-56387647D01*
X123671677Y-56340028D01*
X123576439Y-56292408D01*
X123385963Y-56292408D01*
X123290725Y-56340028D01*
X123243106Y-56387647D01*
X123195487Y-56482885D01*
X123195487Y-56720980D01*
X123243106Y-56816218D01*
X123290725Y-56863837D01*
X123385963Y-56911456D01*
X123576439Y-56911456D01*
X123671677Y-56863837D01*
X123719296Y-56816218D01*
X123766915Y-56720980D01*
%TO.C,R5*%
X78933333Y-84552380D02*
X78600000Y-84076190D01*
X78361904Y-84552380D02*
X78361904Y-83552380D01*
X78742857Y-83552380D01*
X78838095Y-83600000D01*
X78885714Y-83647619D01*
X78933333Y-83742857D01*
X78933333Y-83885714D01*
X78885714Y-83980952D01*
X78838095Y-84028571D01*
X78742857Y-84076190D01*
X78361904Y-84076190D01*
X79838095Y-83552380D02*
X79361904Y-83552380D01*
X79314285Y-84028571D01*
X79361904Y-83980952D01*
X79457142Y-83933333D01*
X79695238Y-83933333D01*
X79790476Y-83980952D01*
X79838095Y-84028571D01*
X79885714Y-84123809D01*
X79885714Y-84361904D01*
X79838095Y-84457142D01*
X79790476Y-84504761D01*
X79695238Y-84552380D01*
X79457142Y-84552380D01*
X79361904Y-84504761D01*
X79314285Y-84457142D01*
%TO.C,C42*%
X113519642Y-94477142D02*
X113472023Y-94524761D01*
X113329166Y-94572380D01*
X113233928Y-94572380D01*
X113091071Y-94524761D01*
X112995833Y-94429523D01*
X112948214Y-94334285D01*
X112900595Y-94143809D01*
X112900595Y-94000952D01*
X112948214Y-93810476D01*
X112995833Y-93715238D01*
X113091071Y-93620000D01*
X113233928Y-93572380D01*
X113329166Y-93572380D01*
X113472023Y-93620000D01*
X113519642Y-93667619D01*
X114376785Y-93905714D02*
X114376785Y-94572380D01*
X114138690Y-93524761D02*
X113900595Y-94239047D01*
X114519642Y-94239047D01*
X114852976Y-93667619D02*
X114900595Y-93620000D01*
X114995833Y-93572380D01*
X115233928Y-93572380D01*
X115329166Y-93620000D01*
X115376785Y-93667619D01*
X115424404Y-93762857D01*
X115424404Y-93858095D01*
X115376785Y-94000952D01*
X114805357Y-94572380D01*
X115424404Y-94572380D01*
%TO.C,R25*%
X141662153Y-70092408D02*
X141328820Y-69616218D01*
X141090725Y-70092408D02*
X141090725Y-69092408D01*
X141471677Y-69092408D01*
X141566915Y-69140028D01*
X141614534Y-69187647D01*
X141662153Y-69282885D01*
X141662153Y-69425742D01*
X141614534Y-69520980D01*
X141566915Y-69568599D01*
X141471677Y-69616218D01*
X141090725Y-69616218D01*
X142043106Y-69187647D02*
X142090725Y-69140028D01*
X142185963Y-69092408D01*
X142424058Y-69092408D01*
X142519296Y-69140028D01*
X142566915Y-69187647D01*
X142614534Y-69282885D01*
X142614534Y-69378123D01*
X142566915Y-69520980D01*
X141995487Y-70092408D01*
X142614534Y-70092408D01*
X143519296Y-69092408D02*
X143043106Y-69092408D01*
X142995487Y-69568599D01*
X143043106Y-69520980D01*
X143138344Y-69473361D01*
X143376439Y-69473361D01*
X143471677Y-69520980D01*
X143519296Y-69568599D01*
X143566915Y-69663837D01*
X143566915Y-69901932D01*
X143519296Y-69997170D01*
X143471677Y-70044789D01*
X143376439Y-70092408D01*
X143138344Y-70092408D01*
X143043106Y-70044789D01*
X142995487Y-69997170D01*
%TO.C,R38*%
X83257142Y-118752380D02*
X82923809Y-118276190D01*
X82685714Y-118752380D02*
X82685714Y-117752380D01*
X83066666Y-117752380D01*
X83161904Y-117800000D01*
X83209523Y-117847619D01*
X83257142Y-117942857D01*
X83257142Y-118085714D01*
X83209523Y-118180952D01*
X83161904Y-118228571D01*
X83066666Y-118276190D01*
X82685714Y-118276190D01*
X83590476Y-117752380D02*
X84209523Y-117752380D01*
X83876190Y-118133333D01*
X84019047Y-118133333D01*
X84114285Y-118180952D01*
X84161904Y-118228571D01*
X84209523Y-118323809D01*
X84209523Y-118561904D01*
X84161904Y-118657142D01*
X84114285Y-118704761D01*
X84019047Y-118752380D01*
X83733333Y-118752380D01*
X83638095Y-118704761D01*
X83590476Y-118657142D01*
X84780952Y-118180952D02*
X84685714Y-118133333D01*
X84638095Y-118085714D01*
X84590476Y-117990476D01*
X84590476Y-117942857D01*
X84638095Y-117847619D01*
X84685714Y-117800000D01*
X84780952Y-117752380D01*
X84971428Y-117752380D01*
X85066666Y-117800000D01*
X85114285Y-117847619D01*
X85161904Y-117942857D01*
X85161904Y-117990476D01*
X85114285Y-118085714D01*
X85066666Y-118133333D01*
X84971428Y-118180952D01*
X84780952Y-118180952D01*
X84685714Y-118228571D01*
X84638095Y-118276190D01*
X84590476Y-118371428D01*
X84590476Y-118561904D01*
X84638095Y-118657142D01*
X84685714Y-118704761D01*
X84780952Y-118752380D01*
X84971428Y-118752380D01*
X85066666Y-118704761D01*
X85114285Y-118657142D01*
X85161904Y-118561904D01*
X85161904Y-118371428D01*
X85114285Y-118276190D01*
X85066666Y-118228571D01*
X84971428Y-118180952D01*
%TO.C,C35*%
X131657142Y-111505357D02*
X131704761Y-111552976D01*
X131752380Y-111695833D01*
X131752380Y-111791071D01*
X131704761Y-111933928D01*
X131609523Y-112029166D01*
X131514285Y-112076785D01*
X131323809Y-112124404D01*
X131180952Y-112124404D01*
X130990476Y-112076785D01*
X130895238Y-112029166D01*
X130800000Y-111933928D01*
X130752380Y-111791071D01*
X130752380Y-111695833D01*
X130800000Y-111552976D01*
X130847619Y-111505357D01*
X130752380Y-111172023D02*
X130752380Y-110552976D01*
X131133333Y-110886309D01*
X131133333Y-110743452D01*
X131180952Y-110648214D01*
X131228571Y-110600595D01*
X131323809Y-110552976D01*
X131561904Y-110552976D01*
X131657142Y-110600595D01*
X131704761Y-110648214D01*
X131752380Y-110743452D01*
X131752380Y-111029166D01*
X131704761Y-111124404D01*
X131657142Y-111172023D01*
X130752380Y-109648214D02*
X130752380Y-110124404D01*
X131228571Y-110172023D01*
X131180952Y-110124404D01*
X131133333Y-110029166D01*
X131133333Y-109791071D01*
X131180952Y-109695833D01*
X131228571Y-109648214D01*
X131323809Y-109600595D01*
X131561904Y-109600595D01*
X131657142Y-109648214D01*
X131704761Y-109695833D01*
X131752380Y-109791071D01*
X131752380Y-110029166D01*
X131704761Y-110124404D01*
X131657142Y-110172023D01*
%TO.C,C46*%
X79257142Y-102957142D02*
X79209523Y-103004761D01*
X79066666Y-103052380D01*
X78971428Y-103052380D01*
X78828571Y-103004761D01*
X78733333Y-102909523D01*
X78685714Y-102814285D01*
X78638095Y-102623809D01*
X78638095Y-102480952D01*
X78685714Y-102290476D01*
X78733333Y-102195238D01*
X78828571Y-102100000D01*
X78971428Y-102052380D01*
X79066666Y-102052380D01*
X79209523Y-102100000D01*
X79257142Y-102147619D01*
X80114285Y-102385714D02*
X80114285Y-103052380D01*
X79876190Y-102004761D02*
X79638095Y-102719047D01*
X80257142Y-102719047D01*
X81066666Y-102052380D02*
X80876190Y-102052380D01*
X80780952Y-102100000D01*
X80733333Y-102147619D01*
X80638095Y-102290476D01*
X80590476Y-102480952D01*
X80590476Y-102861904D01*
X80638095Y-102957142D01*
X80685714Y-103004761D01*
X80780952Y-103052380D01*
X80971428Y-103052380D01*
X81066666Y-103004761D01*
X81114285Y-102957142D01*
X81161904Y-102861904D01*
X81161904Y-102623809D01*
X81114285Y-102528571D01*
X81066666Y-102480952D01*
X80971428Y-102433333D01*
X80780952Y-102433333D01*
X80685714Y-102480952D01*
X80638095Y-102528571D01*
X80590476Y-102623809D01*
%TO.C,R15*%
X144957391Y-67282885D02*
X144481201Y-67616218D01*
X144957391Y-67854313D02*
X143957391Y-67854313D01*
X143957391Y-67473361D01*
X144005011Y-67378123D01*
X144052630Y-67330504D01*
X144147868Y-67282885D01*
X144290725Y-67282885D01*
X144385963Y-67330504D01*
X144433582Y-67378123D01*
X144481201Y-67473361D01*
X144481201Y-67854313D01*
X144957391Y-66330504D02*
X144957391Y-66901932D01*
X144957391Y-66616218D02*
X143957391Y-66616218D01*
X144100249Y-66711456D01*
X144195487Y-66806694D01*
X144243106Y-66901932D01*
X143957391Y-65425742D02*
X143957391Y-65901932D01*
X144433582Y-65949551D01*
X144385963Y-65901932D01*
X144338344Y-65806694D01*
X144338344Y-65568599D01*
X144385963Y-65473361D01*
X144433582Y-65425742D01*
X144528820Y-65378123D01*
X144766915Y-65378123D01*
X144862153Y-65425742D01*
X144909772Y-65473361D01*
X144957391Y-65568599D01*
X144957391Y-65806694D01*
X144909772Y-65901932D01*
X144862153Y-65949551D01*
%TO.C,D2*%
X140661904Y-40552380D02*
X140661904Y-39552380D01*
X140900000Y-39552380D01*
X141042857Y-39600000D01*
X141138095Y-39695238D01*
X141185714Y-39790476D01*
X141233333Y-39980952D01*
X141233333Y-40123809D01*
X141185714Y-40314285D01*
X141138095Y-40409523D01*
X141042857Y-40504761D01*
X140900000Y-40552380D01*
X140661904Y-40552380D01*
X141614285Y-39647619D02*
X141661904Y-39600000D01*
X141757142Y-39552380D01*
X141995238Y-39552380D01*
X142090476Y-39600000D01*
X142138095Y-39647619D01*
X142185714Y-39742857D01*
X142185714Y-39838095D01*
X142138095Y-39980952D01*
X141566666Y-40552380D01*
X142185714Y-40552380D01*
%TO.C,R33*%
X120757142Y-34752380D02*
X120423809Y-34276190D01*
X120185714Y-34752380D02*
X120185714Y-33752380D01*
X120566666Y-33752380D01*
X120661904Y-33800000D01*
X120709523Y-33847619D01*
X120757142Y-33942857D01*
X120757142Y-34085714D01*
X120709523Y-34180952D01*
X120661904Y-34228571D01*
X120566666Y-34276190D01*
X120185714Y-34276190D01*
X121090476Y-33752380D02*
X121709523Y-33752380D01*
X121376190Y-34133333D01*
X121519047Y-34133333D01*
X121614285Y-34180952D01*
X121661904Y-34228571D01*
X121709523Y-34323809D01*
X121709523Y-34561904D01*
X121661904Y-34657142D01*
X121614285Y-34704761D01*
X121519047Y-34752380D01*
X121233333Y-34752380D01*
X121138095Y-34704761D01*
X121090476Y-34657142D01*
X122042857Y-33752380D02*
X122661904Y-33752380D01*
X122328571Y-34133333D01*
X122471428Y-34133333D01*
X122566666Y-34180952D01*
X122614285Y-34228571D01*
X122661904Y-34323809D01*
X122661904Y-34561904D01*
X122614285Y-34657142D01*
X122566666Y-34704761D01*
X122471428Y-34752380D01*
X122185714Y-34752380D01*
X122090476Y-34704761D01*
X122042857Y-34657142D01*
%TO.C,C11*%
X114294642Y-61777142D02*
X114247023Y-61824761D01*
X114104166Y-61872380D01*
X114008928Y-61872380D01*
X113866071Y-61824761D01*
X113770833Y-61729523D01*
X113723214Y-61634285D01*
X113675595Y-61443809D01*
X113675595Y-61300952D01*
X113723214Y-61110476D01*
X113770833Y-61015238D01*
X113866071Y-60920000D01*
X114008928Y-60872380D01*
X114104166Y-60872380D01*
X114247023Y-60920000D01*
X114294642Y-60967619D01*
X115247023Y-61872380D02*
X114675595Y-61872380D01*
X114961309Y-61872380D02*
X114961309Y-60872380D01*
X114866071Y-61015238D01*
X114770833Y-61110476D01*
X114675595Y-61158095D01*
X116199404Y-61872380D02*
X115627976Y-61872380D01*
X115913690Y-61872380D02*
X115913690Y-60872380D01*
X115818452Y-61015238D01*
X115723214Y-61110476D01*
X115627976Y-61158095D01*
%TO.C,SW2*%
X135666666Y-80044761D02*
X135809523Y-80092380D01*
X136047619Y-80092380D01*
X136142857Y-80044761D01*
X136190476Y-79997142D01*
X136238095Y-79901904D01*
X136238095Y-79806666D01*
X136190476Y-79711428D01*
X136142857Y-79663809D01*
X136047619Y-79616190D01*
X135857142Y-79568571D01*
X135761904Y-79520952D01*
X135714285Y-79473333D01*
X135666666Y-79378095D01*
X135666666Y-79282857D01*
X135714285Y-79187619D01*
X135761904Y-79140000D01*
X135857142Y-79092380D01*
X136095238Y-79092380D01*
X136238095Y-79140000D01*
X136571428Y-79092380D02*
X136809523Y-80092380D01*
X137000000Y-79378095D01*
X137190476Y-80092380D01*
X137428571Y-79092380D01*
X137761904Y-79187619D02*
X137809523Y-79140000D01*
X137904761Y-79092380D01*
X138142857Y-79092380D01*
X138238095Y-79140000D01*
X138285714Y-79187619D01*
X138333333Y-79282857D01*
X138333333Y-79378095D01*
X138285714Y-79520952D01*
X137714285Y-80092380D01*
X138333333Y-80092380D01*
%TO.C,R2*%
X148052380Y-110566666D02*
X147576190Y-110900000D01*
X148052380Y-111138095D02*
X147052380Y-111138095D01*
X147052380Y-110757142D01*
X147100000Y-110661904D01*
X147147619Y-110614285D01*
X147242857Y-110566666D01*
X147385714Y-110566666D01*
X147480952Y-110614285D01*
X147528571Y-110661904D01*
X147576190Y-110757142D01*
X147576190Y-111138095D01*
X147147619Y-110185714D02*
X147100000Y-110138095D01*
X147052380Y-110042857D01*
X147052380Y-109804761D01*
X147100000Y-109709523D01*
X147147619Y-109661904D01*
X147242857Y-109614285D01*
X147338095Y-109614285D01*
X147480952Y-109661904D01*
X148052380Y-110233333D01*
X148052380Y-109614285D01*
%TO.C,C26*%
X81757142Y-91857142D02*
X81709523Y-91904761D01*
X81566666Y-91952380D01*
X81471428Y-91952380D01*
X81328571Y-91904761D01*
X81233333Y-91809523D01*
X81185714Y-91714285D01*
X81138095Y-91523809D01*
X81138095Y-91380952D01*
X81185714Y-91190476D01*
X81233333Y-91095238D01*
X81328571Y-91000000D01*
X81471428Y-90952380D01*
X81566666Y-90952380D01*
X81709523Y-91000000D01*
X81757142Y-91047619D01*
X82138095Y-91047619D02*
X82185714Y-91000000D01*
X82280952Y-90952380D01*
X82519047Y-90952380D01*
X82614285Y-91000000D01*
X82661904Y-91047619D01*
X82709523Y-91142857D01*
X82709523Y-91238095D01*
X82661904Y-91380952D01*
X82090476Y-91952380D01*
X82709523Y-91952380D01*
X83566666Y-90952380D02*
X83376190Y-90952380D01*
X83280952Y-91000000D01*
X83233333Y-91047619D01*
X83138095Y-91190476D01*
X83090476Y-91380952D01*
X83090476Y-91761904D01*
X83138095Y-91857142D01*
X83185714Y-91904761D01*
X83280952Y-91952380D01*
X83471428Y-91952380D01*
X83566666Y-91904761D01*
X83614285Y-91857142D01*
X83661904Y-91761904D01*
X83661904Y-91523809D01*
X83614285Y-91428571D01*
X83566666Y-91380952D01*
X83471428Y-91333333D01*
X83280952Y-91333333D01*
X83185714Y-91380952D01*
X83138095Y-91428571D01*
X83090476Y-91523809D01*
%TO.C,R10*%
X128857142Y-49452380D02*
X128523809Y-48976190D01*
X128285714Y-49452380D02*
X128285714Y-48452380D01*
X128666666Y-48452380D01*
X128761904Y-48500000D01*
X128809523Y-48547619D01*
X128857142Y-48642857D01*
X128857142Y-48785714D01*
X128809523Y-48880952D01*
X128761904Y-48928571D01*
X128666666Y-48976190D01*
X128285714Y-48976190D01*
X129809523Y-49452380D02*
X129238095Y-49452380D01*
X129523809Y-49452380D02*
X129523809Y-48452380D01*
X129428571Y-48595238D01*
X129333333Y-48690476D01*
X129238095Y-48738095D01*
X130428571Y-48452380D02*
X130523809Y-48452380D01*
X130619047Y-48500000D01*
X130666666Y-48547619D01*
X130714285Y-48642857D01*
X130761904Y-48833333D01*
X130761904Y-49071428D01*
X130714285Y-49261904D01*
X130666666Y-49357142D01*
X130619047Y-49404761D01*
X130523809Y-49452380D01*
X130428571Y-49452380D01*
X130333333Y-49404761D01*
X130285714Y-49357142D01*
X130238095Y-49261904D01*
X130190476Y-49071428D01*
X130190476Y-48833333D01*
X130238095Y-48642857D01*
X130285714Y-48547619D01*
X130333333Y-48500000D01*
X130428571Y-48452380D01*
%TO.C,U2*%
X134257391Y-60721932D02*
X135066915Y-60721932D01*
X135162153Y-60674313D01*
X135209772Y-60626694D01*
X135257391Y-60531456D01*
X135257391Y-60340980D01*
X135209772Y-60245742D01*
X135162153Y-60198123D01*
X135066915Y-60150504D01*
X134257391Y-60150504D01*
X134352630Y-59721932D02*
X134305011Y-59674313D01*
X134257391Y-59579075D01*
X134257391Y-59340980D01*
X134305011Y-59245742D01*
X134352630Y-59198123D01*
X134447868Y-59150504D01*
X134543106Y-59150504D01*
X134685963Y-59198123D01*
X135257391Y-59769551D01*
X135257391Y-59150504D01*
%TO.C,R1*%
X150052380Y-110466666D02*
X149576190Y-110800000D01*
X150052380Y-111038095D02*
X149052380Y-111038095D01*
X149052380Y-110657142D01*
X149100000Y-110561904D01*
X149147619Y-110514285D01*
X149242857Y-110466666D01*
X149385714Y-110466666D01*
X149480952Y-110514285D01*
X149528571Y-110561904D01*
X149576190Y-110657142D01*
X149576190Y-111038095D01*
X150052380Y-109514285D02*
X150052380Y-110085714D01*
X150052380Y-109800000D02*
X149052380Y-109800000D01*
X149195238Y-109895238D01*
X149290476Y-109990476D01*
X149338095Y-110085714D01*
%TO.C,U10*%
X139361904Y-107902380D02*
X139361904Y-108711904D01*
X139409523Y-108807142D01*
X139457142Y-108854761D01*
X139552380Y-108902380D01*
X139742857Y-108902380D01*
X139838095Y-108854761D01*
X139885714Y-108807142D01*
X139933333Y-108711904D01*
X139933333Y-107902380D01*
X140933333Y-108902380D02*
X140361904Y-108902380D01*
X140647619Y-108902380D02*
X140647619Y-107902380D01*
X140552380Y-108045238D01*
X140457142Y-108140476D01*
X140361904Y-108188095D01*
X141552380Y-107902380D02*
X141647619Y-107902380D01*
X141742857Y-107950000D01*
X141790476Y-107997619D01*
X141838095Y-108092857D01*
X141885714Y-108283333D01*
X141885714Y-108521428D01*
X141838095Y-108711904D01*
X141790476Y-108807142D01*
X141742857Y-108854761D01*
X141647619Y-108902380D01*
X141552380Y-108902380D01*
X141457142Y-108854761D01*
X141409523Y-108807142D01*
X141361904Y-108711904D01*
X141314285Y-108521428D01*
X141314285Y-108283333D01*
X141361904Y-108092857D01*
X141409523Y-107997619D01*
X141457142Y-107950000D01*
X141552380Y-107902380D01*
%TO.C,C30*%
X121457142Y-31057142D02*
X121409523Y-31104761D01*
X121266666Y-31152380D01*
X121171428Y-31152380D01*
X121028571Y-31104761D01*
X120933333Y-31009523D01*
X120885714Y-30914285D01*
X120838095Y-30723809D01*
X120838095Y-30580952D01*
X120885714Y-30390476D01*
X120933333Y-30295238D01*
X121028571Y-30200000D01*
X121171428Y-30152380D01*
X121266666Y-30152380D01*
X121409523Y-30200000D01*
X121457142Y-30247619D01*
X121790476Y-30152380D02*
X122409523Y-30152380D01*
X122076190Y-30533333D01*
X122219047Y-30533333D01*
X122314285Y-30580952D01*
X122361904Y-30628571D01*
X122409523Y-30723809D01*
X122409523Y-30961904D01*
X122361904Y-31057142D01*
X122314285Y-31104761D01*
X122219047Y-31152380D01*
X121933333Y-31152380D01*
X121838095Y-31104761D01*
X121790476Y-31057142D01*
X123028571Y-30152380D02*
X123123809Y-30152380D01*
X123219047Y-30200000D01*
X123266666Y-30247619D01*
X123314285Y-30342857D01*
X123361904Y-30533333D01*
X123361904Y-30771428D01*
X123314285Y-30961904D01*
X123266666Y-31057142D01*
X123219047Y-31104761D01*
X123123809Y-31152380D01*
X123028571Y-31152380D01*
X122933333Y-31104761D01*
X122885714Y-31057142D01*
X122838095Y-30961904D01*
X122790476Y-30771428D01*
X122790476Y-30533333D01*
X122838095Y-30342857D01*
X122885714Y-30247619D01*
X122933333Y-30200000D01*
X123028571Y-30152380D01*
%TO.C,C5*%
X96333333Y-60257142D02*
X96285714Y-60304761D01*
X96142857Y-60352380D01*
X96047619Y-60352380D01*
X95904761Y-60304761D01*
X95809523Y-60209523D01*
X95761904Y-60114285D01*
X95714285Y-59923809D01*
X95714285Y-59780952D01*
X95761904Y-59590476D01*
X95809523Y-59495238D01*
X95904761Y-59400000D01*
X96047619Y-59352380D01*
X96142857Y-59352380D01*
X96285714Y-59400000D01*
X96333333Y-59447619D01*
X97238095Y-59352380D02*
X96761904Y-59352380D01*
X96714285Y-59828571D01*
X96761904Y-59780952D01*
X96857142Y-59733333D01*
X97095238Y-59733333D01*
X97190476Y-59780952D01*
X97238095Y-59828571D01*
X97285714Y-59923809D01*
X97285714Y-60161904D01*
X97238095Y-60257142D01*
X97190476Y-60304761D01*
X97095238Y-60352380D01*
X96857142Y-60352380D01*
X96761904Y-60304761D01*
X96714285Y-60257142D01*
%TO.C,C8*%
X108833333Y-98357142D02*
X108785714Y-98404761D01*
X108642857Y-98452380D01*
X108547619Y-98452380D01*
X108404761Y-98404761D01*
X108309523Y-98309523D01*
X108261904Y-98214285D01*
X108214285Y-98023809D01*
X108214285Y-97880952D01*
X108261904Y-97690476D01*
X108309523Y-97595238D01*
X108404761Y-97500000D01*
X108547619Y-97452380D01*
X108642857Y-97452380D01*
X108785714Y-97500000D01*
X108833333Y-97547619D01*
X109404761Y-97880952D02*
X109309523Y-97833333D01*
X109261904Y-97785714D01*
X109214285Y-97690476D01*
X109214285Y-97642857D01*
X109261904Y-97547619D01*
X109309523Y-97500000D01*
X109404761Y-97452380D01*
X109595238Y-97452380D01*
X109690476Y-97500000D01*
X109738095Y-97547619D01*
X109785714Y-97642857D01*
X109785714Y-97690476D01*
X109738095Y-97785714D01*
X109690476Y-97833333D01*
X109595238Y-97880952D01*
X109404761Y-97880952D01*
X109309523Y-97928571D01*
X109261904Y-97976190D01*
X109214285Y-98071428D01*
X109214285Y-98261904D01*
X109261904Y-98357142D01*
X109309523Y-98404761D01*
X109404761Y-98452380D01*
X109595238Y-98452380D01*
X109690476Y-98404761D01*
X109738095Y-98357142D01*
X109785714Y-98261904D01*
X109785714Y-98071428D01*
X109738095Y-97976190D01*
X109690476Y-97928571D01*
X109595238Y-97880952D01*
%TO.C,R32*%
X82857142Y-123352380D02*
X82523809Y-122876190D01*
X82285714Y-123352380D02*
X82285714Y-122352380D01*
X82666666Y-122352380D01*
X82761904Y-122400000D01*
X82809523Y-122447619D01*
X82857142Y-122542857D01*
X82857142Y-122685714D01*
X82809523Y-122780952D01*
X82761904Y-122828571D01*
X82666666Y-122876190D01*
X82285714Y-122876190D01*
X83190476Y-122352380D02*
X83809523Y-122352380D01*
X83476190Y-122733333D01*
X83619047Y-122733333D01*
X83714285Y-122780952D01*
X83761904Y-122828571D01*
X83809523Y-122923809D01*
X83809523Y-123161904D01*
X83761904Y-123257142D01*
X83714285Y-123304761D01*
X83619047Y-123352380D01*
X83333333Y-123352380D01*
X83238095Y-123304761D01*
X83190476Y-123257142D01*
X84190476Y-122447619D02*
X84238095Y-122400000D01*
X84333333Y-122352380D01*
X84571428Y-122352380D01*
X84666666Y-122400000D01*
X84714285Y-122447619D01*
X84761904Y-122542857D01*
X84761904Y-122638095D01*
X84714285Y-122780952D01*
X84142857Y-123352380D01*
X84761904Y-123352380D01*
%TO.C,R42*%
X122452380Y-41242857D02*
X121976190Y-41576190D01*
X122452380Y-41814285D02*
X121452380Y-41814285D01*
X121452380Y-41433333D01*
X121500000Y-41338095D01*
X121547619Y-41290476D01*
X121642857Y-41242857D01*
X121785714Y-41242857D01*
X121880952Y-41290476D01*
X121928571Y-41338095D01*
X121976190Y-41433333D01*
X121976190Y-41814285D01*
X121785714Y-40385714D02*
X122452380Y-40385714D01*
X121404761Y-40623809D02*
X122119047Y-40861904D01*
X122119047Y-40242857D01*
X121547619Y-39909523D02*
X121500000Y-39861904D01*
X121452380Y-39766666D01*
X121452380Y-39528571D01*
X121500000Y-39433333D01*
X121547619Y-39385714D01*
X121642857Y-39338095D01*
X121738095Y-39338095D01*
X121880952Y-39385714D01*
X122452380Y-39957142D01*
X122452380Y-39338095D01*
%TO.C,C49*%
X90119642Y-45357142D02*
X90072023Y-45404761D01*
X89929166Y-45452380D01*
X89833928Y-45452380D01*
X89691071Y-45404761D01*
X89595833Y-45309523D01*
X89548214Y-45214285D01*
X89500595Y-45023809D01*
X89500595Y-44880952D01*
X89548214Y-44690476D01*
X89595833Y-44595238D01*
X89691071Y-44500000D01*
X89833928Y-44452380D01*
X89929166Y-44452380D01*
X90072023Y-44500000D01*
X90119642Y-44547619D01*
X90976785Y-44785714D02*
X90976785Y-45452380D01*
X90738690Y-44404761D02*
X90500595Y-45119047D01*
X91119642Y-45119047D01*
X91548214Y-45452380D02*
X91738690Y-45452380D01*
X91833928Y-45404761D01*
X91881547Y-45357142D01*
X91976785Y-45214285D01*
X92024404Y-45023809D01*
X92024404Y-44642857D01*
X91976785Y-44547619D01*
X91929166Y-44500000D01*
X91833928Y-44452380D01*
X91643452Y-44452380D01*
X91548214Y-44500000D01*
X91500595Y-44547619D01*
X91452976Y-44642857D01*
X91452976Y-44880952D01*
X91500595Y-44976190D01*
X91548214Y-45023809D01*
X91643452Y-45071428D01*
X91833928Y-45071428D01*
X91929166Y-45023809D01*
X91976785Y-44976190D01*
X92024404Y-44880952D01*
%TO.C,R37*%
X130057142Y-47852380D02*
X129723809Y-47376190D01*
X129485714Y-47852380D02*
X129485714Y-46852380D01*
X129866666Y-46852380D01*
X129961904Y-46900000D01*
X130009523Y-46947619D01*
X130057142Y-47042857D01*
X130057142Y-47185714D01*
X130009523Y-47280952D01*
X129961904Y-47328571D01*
X129866666Y-47376190D01*
X129485714Y-47376190D01*
X130390476Y-46852380D02*
X131009523Y-46852380D01*
X130676190Y-47233333D01*
X130819047Y-47233333D01*
X130914285Y-47280952D01*
X130961904Y-47328571D01*
X131009523Y-47423809D01*
X131009523Y-47661904D01*
X130961904Y-47757142D01*
X130914285Y-47804761D01*
X130819047Y-47852380D01*
X130533333Y-47852380D01*
X130438095Y-47804761D01*
X130390476Y-47757142D01*
X131342857Y-46852380D02*
X132009523Y-46852380D01*
X131580952Y-47852380D01*
%TO.C,R39*%
X143652380Y-109642857D02*
X143176190Y-109976190D01*
X143652380Y-110214285D02*
X142652380Y-110214285D01*
X142652380Y-109833333D01*
X142700000Y-109738095D01*
X142747619Y-109690476D01*
X142842857Y-109642857D01*
X142985714Y-109642857D01*
X143080952Y-109690476D01*
X143128571Y-109738095D01*
X143176190Y-109833333D01*
X143176190Y-110214285D01*
X142652380Y-109309523D02*
X142652380Y-108690476D01*
X143033333Y-109023809D01*
X143033333Y-108880952D01*
X143080952Y-108785714D01*
X143128571Y-108738095D01*
X143223809Y-108690476D01*
X143461904Y-108690476D01*
X143557142Y-108738095D01*
X143604761Y-108785714D01*
X143652380Y-108880952D01*
X143652380Y-109166666D01*
X143604761Y-109261904D01*
X143557142Y-109309523D01*
X143652380Y-108214285D02*
X143652380Y-108023809D01*
X143604761Y-107928571D01*
X143557142Y-107880952D01*
X143414285Y-107785714D01*
X143223809Y-107738095D01*
X142842857Y-107738095D01*
X142747619Y-107785714D01*
X142700000Y-107833333D01*
X142652380Y-107928571D01*
X142652380Y-108119047D01*
X142700000Y-108214285D01*
X142747619Y-108261904D01*
X142842857Y-108309523D01*
X143080952Y-108309523D01*
X143176190Y-108261904D01*
X143223809Y-108214285D01*
X143271428Y-108119047D01*
X143271428Y-107928571D01*
X143223809Y-107833333D01*
X143176190Y-107785714D01*
X143080952Y-107738095D01*
%TO.C,C7*%
X102095833Y-60277142D02*
X102048214Y-60324761D01*
X101905357Y-60372380D01*
X101810119Y-60372380D01*
X101667261Y-60324761D01*
X101572023Y-60229523D01*
X101524404Y-60134285D01*
X101476785Y-59943809D01*
X101476785Y-59800952D01*
X101524404Y-59610476D01*
X101572023Y-59515238D01*
X101667261Y-59420000D01*
X101810119Y-59372380D01*
X101905357Y-59372380D01*
X102048214Y-59420000D01*
X102095833Y-59467619D01*
X102429166Y-59372380D02*
X103095833Y-59372380D01*
X102667261Y-60372380D01*
%TO.C,SW1*%
X74804761Y-99733333D02*
X74852380Y-99590476D01*
X74852380Y-99352380D01*
X74804761Y-99257142D01*
X74757142Y-99209523D01*
X74661904Y-99161904D01*
X74566666Y-99161904D01*
X74471428Y-99209523D01*
X74423809Y-99257142D01*
X74376190Y-99352380D01*
X74328571Y-99542857D01*
X74280952Y-99638095D01*
X74233333Y-99685714D01*
X74138095Y-99733333D01*
X74042857Y-99733333D01*
X73947619Y-99685714D01*
X73900000Y-99638095D01*
X73852380Y-99542857D01*
X73852380Y-99304761D01*
X73900000Y-99161904D01*
X73852380Y-98828571D02*
X74852380Y-98590476D01*
X74138095Y-98400000D01*
X74852380Y-98209523D01*
X73852380Y-97971428D01*
X74852380Y-97066666D02*
X74852380Y-97638095D01*
X74852380Y-97352380D02*
X73852380Y-97352380D01*
X73995238Y-97447619D01*
X74090476Y-97542857D01*
X74138095Y-97638095D01*
%TO.C,R22*%
X145962153Y-60392408D02*
X145628820Y-59916218D01*
X145390725Y-60392408D02*
X145390725Y-59392408D01*
X145771677Y-59392408D01*
X145866915Y-59440028D01*
X145914534Y-59487647D01*
X145962153Y-59582885D01*
X145962153Y-59725742D01*
X145914534Y-59820980D01*
X145866915Y-59868599D01*
X145771677Y-59916218D01*
X145390725Y-59916218D01*
X146343106Y-59487647D02*
X146390725Y-59440028D01*
X146485963Y-59392408D01*
X146724058Y-59392408D01*
X146819296Y-59440028D01*
X146866915Y-59487647D01*
X146914534Y-59582885D01*
X146914534Y-59678123D01*
X146866915Y-59820980D01*
X146295487Y-60392408D01*
X146914534Y-60392408D01*
X147295487Y-59487647D02*
X147343106Y-59440028D01*
X147438344Y-59392408D01*
X147676439Y-59392408D01*
X147771677Y-59440028D01*
X147819296Y-59487647D01*
X147866915Y-59582885D01*
X147866915Y-59678123D01*
X147819296Y-59820980D01*
X147247868Y-60392408D01*
X147866915Y-60392408D01*
%TO.C,C17*%
X138862153Y-63197170D02*
X138814534Y-63244789D01*
X138671677Y-63292408D01*
X138576439Y-63292408D01*
X138433582Y-63244789D01*
X138338344Y-63149551D01*
X138290725Y-63054313D01*
X138243106Y-62863837D01*
X138243106Y-62720980D01*
X138290725Y-62530504D01*
X138338344Y-62435266D01*
X138433582Y-62340028D01*
X138576439Y-62292408D01*
X138671677Y-62292408D01*
X138814534Y-62340028D01*
X138862153Y-62387647D01*
X139814534Y-63292408D02*
X139243106Y-63292408D01*
X139528820Y-63292408D02*
X139528820Y-62292408D01*
X139433582Y-62435266D01*
X139338344Y-62530504D01*
X139243106Y-62578123D01*
X140147868Y-62292408D02*
X140814534Y-62292408D01*
X140385963Y-63292408D01*
%TO.C,R3*%
X90133333Y-82052380D02*
X89800000Y-81576190D01*
X89561904Y-82052380D02*
X89561904Y-81052380D01*
X89942857Y-81052380D01*
X90038095Y-81100000D01*
X90085714Y-81147619D01*
X90133333Y-81242857D01*
X90133333Y-81385714D01*
X90085714Y-81480952D01*
X90038095Y-81528571D01*
X89942857Y-81576190D01*
X89561904Y-81576190D01*
X90466666Y-81052380D02*
X91085714Y-81052380D01*
X90752380Y-81433333D01*
X90895238Y-81433333D01*
X90990476Y-81480952D01*
X91038095Y-81528571D01*
X91085714Y-81623809D01*
X91085714Y-81861904D01*
X91038095Y-81957142D01*
X90990476Y-82004761D01*
X90895238Y-82052380D01*
X90609523Y-82052380D01*
X90514285Y-82004761D01*
X90466666Y-81957142D01*
%TO.C,X1*%
X111990476Y-51852380D02*
X112657142Y-52852380D01*
X112657142Y-51852380D02*
X111990476Y-52852380D01*
X113561904Y-52852380D02*
X112990476Y-52852380D01*
X113276190Y-52852380D02*
X113276190Y-51852380D01*
X113180952Y-51995238D01*
X113085714Y-52090476D01*
X112990476Y-52138095D01*
%TO.C,R4*%
X90133333Y-83752380D02*
X89800000Y-83276190D01*
X89561904Y-83752380D02*
X89561904Y-82752380D01*
X89942857Y-82752380D01*
X90038095Y-82800000D01*
X90085714Y-82847619D01*
X90133333Y-82942857D01*
X90133333Y-83085714D01*
X90085714Y-83180952D01*
X90038095Y-83228571D01*
X89942857Y-83276190D01*
X89561904Y-83276190D01*
X90990476Y-83085714D02*
X90990476Y-83752380D01*
X90752380Y-82704761D02*
X90514285Y-83419047D01*
X91133333Y-83419047D01*
%TO.C,C31*%
X124757142Y-34657142D02*
X124709523Y-34704761D01*
X124566666Y-34752380D01*
X124471428Y-34752380D01*
X124328571Y-34704761D01*
X124233333Y-34609523D01*
X124185714Y-34514285D01*
X124138095Y-34323809D01*
X124138095Y-34180952D01*
X124185714Y-33990476D01*
X124233333Y-33895238D01*
X124328571Y-33800000D01*
X124471428Y-33752380D01*
X124566666Y-33752380D01*
X124709523Y-33800000D01*
X124757142Y-33847619D01*
X125090476Y-33752380D02*
X125709523Y-33752380D01*
X125376190Y-34133333D01*
X125519047Y-34133333D01*
X125614285Y-34180952D01*
X125661904Y-34228571D01*
X125709523Y-34323809D01*
X125709523Y-34561904D01*
X125661904Y-34657142D01*
X125614285Y-34704761D01*
X125519047Y-34752380D01*
X125233333Y-34752380D01*
X125138095Y-34704761D01*
X125090476Y-34657142D01*
X126661904Y-34752380D02*
X126090476Y-34752380D01*
X126376190Y-34752380D02*
X126376190Y-33752380D01*
X126280952Y-33895238D01*
X126185714Y-33990476D01*
X126090476Y-34038095D01*
%TO.C,R20*%
X127757142Y-67352380D02*
X127423809Y-66876190D01*
X127185714Y-67352380D02*
X127185714Y-66352380D01*
X127566666Y-66352380D01*
X127661904Y-66400000D01*
X127709523Y-66447619D01*
X127757142Y-66542857D01*
X127757142Y-66685714D01*
X127709523Y-66780952D01*
X127661904Y-66828571D01*
X127566666Y-66876190D01*
X127185714Y-66876190D01*
X128138095Y-66447619D02*
X128185714Y-66400000D01*
X128280952Y-66352380D01*
X128519047Y-66352380D01*
X128614285Y-66400000D01*
X128661904Y-66447619D01*
X128709523Y-66542857D01*
X128709523Y-66638095D01*
X128661904Y-66780952D01*
X128090476Y-67352380D01*
X128709523Y-67352380D01*
X129328571Y-66352380D02*
X129423809Y-66352380D01*
X129519047Y-66400000D01*
X129566666Y-66447619D01*
X129614285Y-66542857D01*
X129661904Y-66733333D01*
X129661904Y-66971428D01*
X129614285Y-67161904D01*
X129566666Y-67257142D01*
X129519047Y-67304761D01*
X129423809Y-67352380D01*
X129328571Y-67352380D01*
X129233333Y-67304761D01*
X129185714Y-67257142D01*
X129138095Y-67161904D01*
X129090476Y-66971428D01*
X129090476Y-66733333D01*
X129138095Y-66542857D01*
X129185714Y-66447619D01*
X129233333Y-66400000D01*
X129328571Y-66352380D01*
%TO.C,R6*%
X78933333Y-87552380D02*
X78600000Y-87076190D01*
X78361904Y-87552380D02*
X78361904Y-86552380D01*
X78742857Y-86552380D01*
X78838095Y-86600000D01*
X78885714Y-86647619D01*
X78933333Y-86742857D01*
X78933333Y-86885714D01*
X78885714Y-86980952D01*
X78838095Y-87028571D01*
X78742857Y-87076190D01*
X78361904Y-87076190D01*
X79790476Y-86552380D02*
X79600000Y-86552380D01*
X79504761Y-86600000D01*
X79457142Y-86647619D01*
X79361904Y-86790476D01*
X79314285Y-86980952D01*
X79314285Y-87361904D01*
X79361904Y-87457142D01*
X79409523Y-87504761D01*
X79504761Y-87552380D01*
X79695238Y-87552380D01*
X79790476Y-87504761D01*
X79838095Y-87457142D01*
X79885714Y-87361904D01*
X79885714Y-87123809D01*
X79838095Y-87028571D01*
X79790476Y-86980952D01*
X79695238Y-86933333D01*
X79504761Y-86933333D01*
X79409523Y-86980952D01*
X79361904Y-87028571D01*
X79314285Y-87123809D01*
%TO.C,R36*%
X128952380Y-42042857D02*
X128476190Y-42376190D01*
X128952380Y-42614285D02*
X127952380Y-42614285D01*
X127952380Y-42233333D01*
X128000000Y-42138095D01*
X128047619Y-42090476D01*
X128142857Y-42042857D01*
X128285714Y-42042857D01*
X128380952Y-42090476D01*
X128428571Y-42138095D01*
X128476190Y-42233333D01*
X128476190Y-42614285D01*
X127952380Y-41709523D02*
X127952380Y-41090476D01*
X128333333Y-41423809D01*
X128333333Y-41280952D01*
X128380952Y-41185714D01*
X128428571Y-41138095D01*
X128523809Y-41090476D01*
X128761904Y-41090476D01*
X128857142Y-41138095D01*
X128904761Y-41185714D01*
X128952380Y-41280952D01*
X128952380Y-41566666D01*
X128904761Y-41661904D01*
X128857142Y-41709523D01*
X127952380Y-40233333D02*
X127952380Y-40423809D01*
X128000000Y-40519047D01*
X128047619Y-40566666D01*
X128190476Y-40661904D01*
X128380952Y-40709523D01*
X128761904Y-40709523D01*
X128857142Y-40661904D01*
X128904761Y-40614285D01*
X128952380Y-40519047D01*
X128952380Y-40328571D01*
X128904761Y-40233333D01*
X128857142Y-40185714D01*
X128761904Y-40138095D01*
X128523809Y-40138095D01*
X128428571Y-40185714D01*
X128380952Y-40233333D01*
X128333333Y-40328571D01*
X128333333Y-40519047D01*
X128380952Y-40614285D01*
X128428571Y-40661904D01*
X128523809Y-40709523D01*
%TO.C,C9*%
X107233333Y-60277142D02*
X107185714Y-60324761D01*
X107042857Y-60372380D01*
X106947619Y-60372380D01*
X106804761Y-60324761D01*
X106709523Y-60229523D01*
X106661904Y-60134285D01*
X106614285Y-59943809D01*
X106614285Y-59800952D01*
X106661904Y-59610476D01*
X106709523Y-59515238D01*
X106804761Y-59420000D01*
X106947619Y-59372380D01*
X107042857Y-59372380D01*
X107185714Y-59420000D01*
X107233333Y-59467619D01*
X107709523Y-60372380D02*
X107900000Y-60372380D01*
X107995238Y-60324761D01*
X108042857Y-60277142D01*
X108138095Y-60134285D01*
X108185714Y-59943809D01*
X108185714Y-59562857D01*
X108138095Y-59467619D01*
X108090476Y-59420000D01*
X107995238Y-59372380D01*
X107804761Y-59372380D01*
X107709523Y-59420000D01*
X107661904Y-59467619D01*
X107614285Y-59562857D01*
X107614285Y-59800952D01*
X107661904Y-59896190D01*
X107709523Y-59943809D01*
X107804761Y-59991428D01*
X107995238Y-59991428D01*
X108090476Y-59943809D01*
X108138095Y-59896190D01*
X108185714Y-59800952D01*
%TO.C,C37*%
X134257142Y-114057142D02*
X134209523Y-114104761D01*
X134066666Y-114152380D01*
X133971428Y-114152380D01*
X133828571Y-114104761D01*
X133733333Y-114009523D01*
X133685714Y-113914285D01*
X133638095Y-113723809D01*
X133638095Y-113580952D01*
X133685714Y-113390476D01*
X133733333Y-113295238D01*
X133828571Y-113200000D01*
X133971428Y-113152380D01*
X134066666Y-113152380D01*
X134209523Y-113200000D01*
X134257142Y-113247619D01*
X134590476Y-113152380D02*
X135209523Y-113152380D01*
X134876190Y-113533333D01*
X135019047Y-113533333D01*
X135114285Y-113580952D01*
X135161904Y-113628571D01*
X135209523Y-113723809D01*
X135209523Y-113961904D01*
X135161904Y-114057142D01*
X135114285Y-114104761D01*
X135019047Y-114152380D01*
X134733333Y-114152380D01*
X134638095Y-114104761D01*
X134590476Y-114057142D01*
X135542857Y-113152380D02*
X136209523Y-113152380D01*
X135780952Y-114152380D01*
%TO.C,C21*%
X121862153Y-53197170D02*
X121814534Y-53244789D01*
X121671677Y-53292408D01*
X121576439Y-53292408D01*
X121433582Y-53244789D01*
X121338344Y-53149551D01*
X121290725Y-53054313D01*
X121243106Y-52863837D01*
X121243106Y-52720980D01*
X121290725Y-52530504D01*
X121338344Y-52435266D01*
X121433582Y-52340028D01*
X121576439Y-52292408D01*
X121671677Y-52292408D01*
X121814534Y-52340028D01*
X121862153Y-52387647D01*
X122243106Y-52387647D02*
X122290725Y-52340028D01*
X122385963Y-52292408D01*
X122624058Y-52292408D01*
X122719296Y-52340028D01*
X122766915Y-52387647D01*
X122814534Y-52482885D01*
X122814534Y-52578123D01*
X122766915Y-52720980D01*
X122195487Y-53292408D01*
X122814534Y-53292408D01*
X123766915Y-53292408D02*
X123195487Y-53292408D01*
X123481201Y-53292408D02*
X123481201Y-52292408D01*
X123385963Y-52435266D01*
X123290725Y-52530504D01*
X123195487Y-52578123D01*
%TO.C,R18*%
X123607391Y-66032885D02*
X123131201Y-66366218D01*
X123607391Y-66604313D02*
X122607391Y-66604313D01*
X122607391Y-66223361D01*
X122655011Y-66128123D01*
X122702630Y-66080504D01*
X122797868Y-66032885D01*
X122940725Y-66032885D01*
X123035963Y-66080504D01*
X123083582Y-66128123D01*
X123131201Y-66223361D01*
X123131201Y-66604313D01*
X123607391Y-65080504D02*
X123607391Y-65651932D01*
X123607391Y-65366218D02*
X122607391Y-65366218D01*
X122750249Y-65461456D01*
X122845487Y-65556694D01*
X122893106Y-65651932D01*
X123035963Y-64509075D02*
X122988344Y-64604313D01*
X122940725Y-64651932D01*
X122845487Y-64699551D01*
X122797868Y-64699551D01*
X122702630Y-64651932D01*
X122655011Y-64604313D01*
X122607391Y-64509075D01*
X122607391Y-64318599D01*
X122655011Y-64223361D01*
X122702630Y-64175742D01*
X122797868Y-64128123D01*
X122845487Y-64128123D01*
X122940725Y-64175742D01*
X122988344Y-64223361D01*
X123035963Y-64318599D01*
X123035963Y-64509075D01*
X123083582Y-64604313D01*
X123131201Y-64651932D01*
X123226439Y-64699551D01*
X123416915Y-64699551D01*
X123512153Y-64651932D01*
X123559772Y-64604313D01*
X123607391Y-64509075D01*
X123607391Y-64318599D01*
X123559772Y-64223361D01*
X123512153Y-64175742D01*
X123416915Y-64128123D01*
X123226439Y-64128123D01*
X123131201Y-64175742D01*
X123083582Y-64223361D01*
X123035963Y-64318599D01*
%TO.C,C47*%
X85057142Y-111642857D02*
X85104761Y-111690476D01*
X85152380Y-111833333D01*
X85152380Y-111928571D01*
X85104761Y-112071428D01*
X85009523Y-112166666D01*
X84914285Y-112214285D01*
X84723809Y-112261904D01*
X84580952Y-112261904D01*
X84390476Y-112214285D01*
X84295238Y-112166666D01*
X84200000Y-112071428D01*
X84152380Y-111928571D01*
X84152380Y-111833333D01*
X84200000Y-111690476D01*
X84247619Y-111642857D01*
X84485714Y-110785714D02*
X85152380Y-110785714D01*
X84104761Y-111023809D02*
X84819047Y-111261904D01*
X84819047Y-110642857D01*
X84152380Y-110357142D02*
X84152380Y-109690476D01*
X85152380Y-110119047D01*
%TO.C,J7*%
X159666666Y-68952380D02*
X159666666Y-69666666D01*
X159619047Y-69809523D01*
X159523809Y-69904761D01*
X159380952Y-69952380D01*
X159285714Y-69952380D01*
X160047619Y-68952380D02*
X160714285Y-68952380D01*
X160285714Y-69952380D01*
%TO.C,C18*%
X121799653Y-55222170D02*
X121752034Y-55269789D01*
X121609177Y-55317408D01*
X121513939Y-55317408D01*
X121371082Y-55269789D01*
X121275844Y-55174551D01*
X121228225Y-55079313D01*
X121180606Y-54888837D01*
X121180606Y-54745980D01*
X121228225Y-54555504D01*
X121275844Y-54460266D01*
X121371082Y-54365028D01*
X121513939Y-54317408D01*
X121609177Y-54317408D01*
X121752034Y-54365028D01*
X121799653Y-54412647D01*
X122752034Y-55317408D02*
X122180606Y-55317408D01*
X122466320Y-55317408D02*
X122466320Y-54317408D01*
X122371082Y-54460266D01*
X122275844Y-54555504D01*
X122180606Y-54603123D01*
X123323463Y-54745980D02*
X123228225Y-54698361D01*
X123180606Y-54650742D01*
X123132987Y-54555504D01*
X123132987Y-54507885D01*
X123180606Y-54412647D01*
X123228225Y-54365028D01*
X123323463Y-54317408D01*
X123513939Y-54317408D01*
X123609177Y-54365028D01*
X123656796Y-54412647D01*
X123704415Y-54507885D01*
X123704415Y-54555504D01*
X123656796Y-54650742D01*
X123609177Y-54698361D01*
X123513939Y-54745980D01*
X123323463Y-54745980D01*
X123228225Y-54793599D01*
X123180606Y-54841218D01*
X123132987Y-54936456D01*
X123132987Y-55126932D01*
X123180606Y-55222170D01*
X123228225Y-55269789D01*
X123323463Y-55317408D01*
X123513939Y-55317408D01*
X123609177Y-55269789D01*
X123656796Y-55222170D01*
X123704415Y-55126932D01*
X123704415Y-54936456D01*
X123656796Y-54841218D01*
X123609177Y-54793599D01*
X123513939Y-54745980D01*
%TO.C,C33*%
X126857142Y-42142857D02*
X126904761Y-42190476D01*
X126952380Y-42333333D01*
X126952380Y-42428571D01*
X126904761Y-42571428D01*
X126809523Y-42666666D01*
X126714285Y-42714285D01*
X126523809Y-42761904D01*
X126380952Y-42761904D01*
X126190476Y-42714285D01*
X126095238Y-42666666D01*
X126000000Y-42571428D01*
X125952380Y-42428571D01*
X125952380Y-42333333D01*
X126000000Y-42190476D01*
X126047619Y-42142857D01*
X125952380Y-41809523D02*
X125952380Y-41190476D01*
X126333333Y-41523809D01*
X126333333Y-41380952D01*
X126380952Y-41285714D01*
X126428571Y-41238095D01*
X126523809Y-41190476D01*
X126761904Y-41190476D01*
X126857142Y-41238095D01*
X126904761Y-41285714D01*
X126952380Y-41380952D01*
X126952380Y-41666666D01*
X126904761Y-41761904D01*
X126857142Y-41809523D01*
X125952380Y-40857142D02*
X125952380Y-40238095D01*
X126333333Y-40571428D01*
X126333333Y-40428571D01*
X126380952Y-40333333D01*
X126428571Y-40285714D01*
X126523809Y-40238095D01*
X126761904Y-40238095D01*
X126857142Y-40285714D01*
X126904761Y-40333333D01*
X126952380Y-40428571D01*
X126952380Y-40714285D01*
X126904761Y-40809523D01*
X126857142Y-40857142D01*
%TO.C,R24*%
X125657391Y-65632885D02*
X125181201Y-65966218D01*
X125657391Y-66204313D02*
X124657391Y-66204313D01*
X124657391Y-65823361D01*
X124705011Y-65728123D01*
X124752630Y-65680504D01*
X124847868Y-65632885D01*
X124990725Y-65632885D01*
X125085963Y-65680504D01*
X125133582Y-65728123D01*
X125181201Y-65823361D01*
X125181201Y-66204313D01*
X124752630Y-65251932D02*
X124705011Y-65204313D01*
X124657391Y-65109075D01*
X124657391Y-64870980D01*
X124705011Y-64775742D01*
X124752630Y-64728123D01*
X124847868Y-64680504D01*
X124943106Y-64680504D01*
X125085963Y-64728123D01*
X125657391Y-65299551D01*
X125657391Y-64680504D01*
X124990725Y-63823361D02*
X125657391Y-63823361D01*
X124609772Y-64061456D02*
X125324058Y-64299551D01*
X125324058Y-63680504D01*
%TO.C,J6*%
X158197380Y-82533333D02*
X158911666Y-82533333D01*
X159054523Y-82580952D01*
X159149761Y-82676190D01*
X159197380Y-82819047D01*
X159197380Y-82914285D01*
X158197380Y-81628571D02*
X158197380Y-81819047D01*
X158245000Y-81914285D01*
X158292619Y-81961904D01*
X158435476Y-82057142D01*
X158625952Y-82104761D01*
X159006904Y-82104761D01*
X159102142Y-82057142D01*
X159149761Y-82009523D01*
X159197380Y-81914285D01*
X159197380Y-81723809D01*
X159149761Y-81628571D01*
X159102142Y-81580952D01*
X159006904Y-81533333D01*
X158768809Y-81533333D01*
X158673571Y-81580952D01*
X158625952Y-81628571D01*
X158578333Y-81723809D01*
X158578333Y-81914285D01*
X158625952Y-82009523D01*
X158673571Y-82057142D01*
X158768809Y-82104761D01*
%TO.C,C10*%
X101137142Y-100180357D02*
X101184761Y-100227976D01*
X101232380Y-100370833D01*
X101232380Y-100466071D01*
X101184761Y-100608928D01*
X101089523Y-100704166D01*
X100994285Y-100751785D01*
X100803809Y-100799404D01*
X100660952Y-100799404D01*
X100470476Y-100751785D01*
X100375238Y-100704166D01*
X100280000Y-100608928D01*
X100232380Y-100466071D01*
X100232380Y-100370833D01*
X100280000Y-100227976D01*
X100327619Y-100180357D01*
X101232380Y-99227976D02*
X101232380Y-99799404D01*
X101232380Y-99513690D02*
X100232380Y-99513690D01*
X100375238Y-99608928D01*
X100470476Y-99704166D01*
X100518095Y-99799404D01*
X100232380Y-98608928D02*
X100232380Y-98513690D01*
X100280000Y-98418452D01*
X100327619Y-98370833D01*
X100422857Y-98323214D01*
X100613333Y-98275595D01*
X100851428Y-98275595D01*
X101041904Y-98323214D01*
X101137142Y-98370833D01*
X101184761Y-98418452D01*
X101232380Y-98513690D01*
X101232380Y-98608928D01*
X101184761Y-98704166D01*
X101137142Y-98751785D01*
X101041904Y-98799404D01*
X100851428Y-98847023D01*
X100613333Y-98847023D01*
X100422857Y-98799404D01*
X100327619Y-98751785D01*
X100280000Y-98704166D01*
X100232380Y-98608928D01*
%TO.C,C4*%
X121733333Y-78377142D02*
X121685714Y-78424761D01*
X121542857Y-78472380D01*
X121447619Y-78472380D01*
X121304761Y-78424761D01*
X121209523Y-78329523D01*
X121161904Y-78234285D01*
X121114285Y-78043809D01*
X121114285Y-77900952D01*
X121161904Y-77710476D01*
X121209523Y-77615238D01*
X121304761Y-77520000D01*
X121447619Y-77472380D01*
X121542857Y-77472380D01*
X121685714Y-77520000D01*
X121733333Y-77567619D01*
X122590476Y-77805714D02*
X122590476Y-78472380D01*
X122352380Y-77424761D02*
X122114285Y-78139047D01*
X122733333Y-78139047D01*
%TO.C,C40*%
X129857142Y-88157142D02*
X129809523Y-88204761D01*
X129666666Y-88252380D01*
X129571428Y-88252380D01*
X129428571Y-88204761D01*
X129333333Y-88109523D01*
X129285714Y-88014285D01*
X129238095Y-87823809D01*
X129238095Y-87680952D01*
X129285714Y-87490476D01*
X129333333Y-87395238D01*
X129428571Y-87300000D01*
X129571428Y-87252380D01*
X129666666Y-87252380D01*
X129809523Y-87300000D01*
X129857142Y-87347619D01*
X130714285Y-87585714D02*
X130714285Y-88252380D01*
X130476190Y-87204761D02*
X130238095Y-87919047D01*
X130857142Y-87919047D01*
X131428571Y-87252380D02*
X131523809Y-87252380D01*
X131619047Y-87300000D01*
X131666666Y-87347619D01*
X131714285Y-87442857D01*
X131761904Y-87633333D01*
X131761904Y-87871428D01*
X131714285Y-88061904D01*
X131666666Y-88157142D01*
X131619047Y-88204761D01*
X131523809Y-88252380D01*
X131428571Y-88252380D01*
X131333333Y-88204761D01*
X131285714Y-88157142D01*
X131238095Y-88061904D01*
X131190476Y-87871428D01*
X131190476Y-87633333D01*
X131238095Y-87442857D01*
X131285714Y-87347619D01*
X131333333Y-87300000D01*
X131428571Y-87252380D01*
%TO.C,D1*%
X91861904Y-123752380D02*
X91861904Y-122752380D01*
X92100000Y-122752380D01*
X92242857Y-122800000D01*
X92338095Y-122895238D01*
X92385714Y-122990476D01*
X92433333Y-123180952D01*
X92433333Y-123323809D01*
X92385714Y-123514285D01*
X92338095Y-123609523D01*
X92242857Y-123704761D01*
X92100000Y-123752380D01*
X91861904Y-123752380D01*
X93385714Y-123752380D02*
X92814285Y-123752380D01*
X93100000Y-123752380D02*
X93100000Y-122752380D01*
X93004761Y-122895238D01*
X92909523Y-122990476D01*
X92814285Y-123038095D01*
%TO.C,C24*%
X140162153Y-60297170D02*
X140114534Y-60344789D01*
X139971677Y-60392408D01*
X139876439Y-60392408D01*
X139733582Y-60344789D01*
X139638344Y-60249551D01*
X139590725Y-60154313D01*
X139543106Y-59963837D01*
X139543106Y-59820980D01*
X139590725Y-59630504D01*
X139638344Y-59535266D01*
X139733582Y-59440028D01*
X139876439Y-59392408D01*
X139971677Y-59392408D01*
X140114534Y-59440028D01*
X140162153Y-59487647D01*
X140543106Y-59487647D02*
X140590725Y-59440028D01*
X140685963Y-59392408D01*
X140924058Y-59392408D01*
X141019296Y-59440028D01*
X141066915Y-59487647D01*
X141114534Y-59582885D01*
X141114534Y-59678123D01*
X141066915Y-59820980D01*
X140495487Y-60392408D01*
X141114534Y-60392408D01*
X141971677Y-59725742D02*
X141971677Y-60392408D01*
X141733582Y-59344789D02*
X141495487Y-60059075D01*
X142114534Y-60059075D01*
%TO.C,C48*%
X90157142Y-43957142D02*
X90109523Y-44004761D01*
X89966666Y-44052380D01*
X89871428Y-44052380D01*
X89728571Y-44004761D01*
X89633333Y-43909523D01*
X89585714Y-43814285D01*
X89538095Y-43623809D01*
X89538095Y-43480952D01*
X89585714Y-43290476D01*
X89633333Y-43195238D01*
X89728571Y-43100000D01*
X89871428Y-43052380D01*
X89966666Y-43052380D01*
X90109523Y-43100000D01*
X90157142Y-43147619D01*
X91014285Y-43385714D02*
X91014285Y-44052380D01*
X90776190Y-43004761D02*
X90538095Y-43719047D01*
X91157142Y-43719047D01*
X91680952Y-43480952D02*
X91585714Y-43433333D01*
X91538095Y-43385714D01*
X91490476Y-43290476D01*
X91490476Y-43242857D01*
X91538095Y-43147619D01*
X91585714Y-43100000D01*
X91680952Y-43052380D01*
X91871428Y-43052380D01*
X91966666Y-43100000D01*
X92014285Y-43147619D01*
X92061904Y-43242857D01*
X92061904Y-43290476D01*
X92014285Y-43385714D01*
X91966666Y-43433333D01*
X91871428Y-43480952D01*
X91680952Y-43480952D01*
X91585714Y-43528571D01*
X91538095Y-43576190D01*
X91490476Y-43671428D01*
X91490476Y-43861904D01*
X91538095Y-43957142D01*
X91585714Y-44004761D01*
X91680952Y-44052380D01*
X91871428Y-44052380D01*
X91966666Y-44004761D01*
X92014285Y-43957142D01*
X92061904Y-43861904D01*
X92061904Y-43671428D01*
X92014285Y-43576190D01*
X91966666Y-43528571D01*
X91871428Y-43480952D01*
%TO.C,C38*%
X142057142Y-121857142D02*
X142009523Y-121904761D01*
X141866666Y-121952380D01*
X141771428Y-121952380D01*
X141628571Y-121904761D01*
X141533333Y-121809523D01*
X141485714Y-121714285D01*
X141438095Y-121523809D01*
X141438095Y-121380952D01*
X141485714Y-121190476D01*
X141533333Y-121095238D01*
X141628571Y-121000000D01*
X141771428Y-120952380D01*
X141866666Y-120952380D01*
X142009523Y-121000000D01*
X142057142Y-121047619D01*
X142390476Y-120952380D02*
X143009523Y-120952380D01*
X142676190Y-121333333D01*
X142819047Y-121333333D01*
X142914285Y-121380952D01*
X142961904Y-121428571D01*
X143009523Y-121523809D01*
X143009523Y-121761904D01*
X142961904Y-121857142D01*
X142914285Y-121904761D01*
X142819047Y-121952380D01*
X142533333Y-121952380D01*
X142438095Y-121904761D01*
X142390476Y-121857142D01*
X143580952Y-121380952D02*
X143485714Y-121333333D01*
X143438095Y-121285714D01*
X143390476Y-121190476D01*
X143390476Y-121142857D01*
X143438095Y-121047619D01*
X143485714Y-121000000D01*
X143580952Y-120952380D01*
X143771428Y-120952380D01*
X143866666Y-121000000D01*
X143914285Y-121047619D01*
X143961904Y-121142857D01*
X143961904Y-121190476D01*
X143914285Y-121285714D01*
X143866666Y-121333333D01*
X143771428Y-121380952D01*
X143580952Y-121380952D01*
X143485714Y-121428571D01*
X143438095Y-121476190D01*
X143390476Y-121571428D01*
X143390476Y-121761904D01*
X143438095Y-121857142D01*
X143485714Y-121904761D01*
X143580952Y-121952380D01*
X143771428Y-121952380D01*
X143866666Y-121904761D01*
X143914285Y-121857142D01*
X143961904Y-121761904D01*
X143961904Y-121571428D01*
X143914285Y-121476190D01*
X143866666Y-121428571D01*
X143771428Y-121380952D01*
%TO.C,R12*%
X133062153Y-50992408D02*
X132728820Y-50516218D01*
X132490725Y-50992408D02*
X132490725Y-49992408D01*
X132871677Y-49992408D01*
X132966915Y-50040028D01*
X133014534Y-50087647D01*
X133062153Y-50182885D01*
X133062153Y-50325742D01*
X133014534Y-50420980D01*
X132966915Y-50468599D01*
X132871677Y-50516218D01*
X132490725Y-50516218D01*
X134014534Y-50992408D02*
X133443106Y-50992408D01*
X133728820Y-50992408D02*
X133728820Y-49992408D01*
X133633582Y-50135266D01*
X133538344Y-50230504D01*
X133443106Y-50278123D01*
X134395487Y-50087647D02*
X134443106Y-50040028D01*
X134538344Y-49992408D01*
X134776439Y-49992408D01*
X134871677Y-50040028D01*
X134919296Y-50087647D01*
X134966915Y-50182885D01*
X134966915Y-50278123D01*
X134919296Y-50420980D01*
X134347868Y-50992408D01*
X134966915Y-50992408D01*
%TO.C,U9*%
X86238095Y-33452380D02*
X86238095Y-34261904D01*
X86285714Y-34357142D01*
X86333333Y-34404761D01*
X86428571Y-34452380D01*
X86619047Y-34452380D01*
X86714285Y-34404761D01*
X86761904Y-34357142D01*
X86809523Y-34261904D01*
X86809523Y-33452380D01*
X87333333Y-34452380D02*
X87523809Y-34452380D01*
X87619047Y-34404761D01*
X87666666Y-34357142D01*
X87761904Y-34214285D01*
X87809523Y-34023809D01*
X87809523Y-33642857D01*
X87761904Y-33547619D01*
X87714285Y-33500000D01*
X87619047Y-33452380D01*
X87428571Y-33452380D01*
X87333333Y-33500000D01*
X87285714Y-33547619D01*
X87238095Y-33642857D01*
X87238095Y-33880952D01*
X87285714Y-33976190D01*
X87333333Y-34023809D01*
X87428571Y-34071428D01*
X87619047Y-34071428D01*
X87714285Y-34023809D01*
X87761904Y-33976190D01*
X87809523Y-33880952D01*
%TO.C,R27*%
X83957142Y-94252380D02*
X83623809Y-93776190D01*
X83385714Y-94252380D02*
X83385714Y-93252380D01*
X83766666Y-93252380D01*
X83861904Y-93300000D01*
X83909523Y-93347619D01*
X83957142Y-93442857D01*
X83957142Y-93585714D01*
X83909523Y-93680952D01*
X83861904Y-93728571D01*
X83766666Y-93776190D01*
X83385714Y-93776190D01*
X84338095Y-93347619D02*
X84385714Y-93300000D01*
X84480952Y-93252380D01*
X84719047Y-93252380D01*
X84814285Y-93300000D01*
X84861904Y-93347619D01*
X84909523Y-93442857D01*
X84909523Y-93538095D01*
X84861904Y-93680952D01*
X84290476Y-94252380D01*
X84909523Y-94252380D01*
X85242857Y-93252380D02*
X85909523Y-93252380D01*
X85480952Y-94252380D01*
%TO.C,J9*%
X120666666Y-117852380D02*
X120666666Y-118566666D01*
X120619047Y-118709523D01*
X120523809Y-118804761D01*
X120380952Y-118852380D01*
X120285714Y-118852380D01*
X121190476Y-118852380D02*
X121380952Y-118852380D01*
X121476190Y-118804761D01*
X121523809Y-118757142D01*
X121619047Y-118614285D01*
X121666666Y-118423809D01*
X121666666Y-118042857D01*
X121619047Y-117947619D01*
X121571428Y-117900000D01*
X121476190Y-117852380D01*
X121285714Y-117852380D01*
X121190476Y-117900000D01*
X121142857Y-117947619D01*
X121095238Y-118042857D01*
X121095238Y-118280952D01*
X121142857Y-118376190D01*
X121190476Y-118423809D01*
X121285714Y-118471428D01*
X121476190Y-118471428D01*
X121571428Y-118423809D01*
X121619047Y-118376190D01*
X121666666Y-118280952D01*
%TO.C,L2*%
X145552380Y-37266666D02*
X145552380Y-37742857D01*
X144552380Y-37742857D01*
X144647619Y-36980952D02*
X144600000Y-36933333D01*
X144552380Y-36838095D01*
X144552380Y-36600000D01*
X144600000Y-36504761D01*
X144647619Y-36457142D01*
X144742857Y-36409523D01*
X144838095Y-36409523D01*
X144980952Y-36457142D01*
X145552380Y-37028571D01*
X145552380Y-36409523D01*
%TO.C,C14*%
X86257142Y-75442857D02*
X86304761Y-75490476D01*
X86352380Y-75633333D01*
X86352380Y-75728571D01*
X86304761Y-75871428D01*
X86209523Y-75966666D01*
X86114285Y-76014285D01*
X85923809Y-76061904D01*
X85780952Y-76061904D01*
X85590476Y-76014285D01*
X85495238Y-75966666D01*
X85400000Y-75871428D01*
X85352380Y-75728571D01*
X85352380Y-75633333D01*
X85400000Y-75490476D01*
X85447619Y-75442857D01*
X86352380Y-74490476D02*
X86352380Y-75061904D01*
X86352380Y-74776190D02*
X85352380Y-74776190D01*
X85495238Y-74871428D01*
X85590476Y-74966666D01*
X85638095Y-75061904D01*
X85685714Y-73633333D02*
X86352380Y-73633333D01*
X85304761Y-73871428D02*
X86019047Y-74109523D01*
X86019047Y-73490476D01*
%TO.C,C51*%
X75757142Y-45357142D02*
X75709523Y-45404761D01*
X75566666Y-45452380D01*
X75471428Y-45452380D01*
X75328571Y-45404761D01*
X75233333Y-45309523D01*
X75185714Y-45214285D01*
X75138095Y-45023809D01*
X75138095Y-44880952D01*
X75185714Y-44690476D01*
X75233333Y-44595238D01*
X75328571Y-44500000D01*
X75471428Y-44452380D01*
X75566666Y-44452380D01*
X75709523Y-44500000D01*
X75757142Y-44547619D01*
X76661904Y-44452380D02*
X76185714Y-44452380D01*
X76138095Y-44928571D01*
X76185714Y-44880952D01*
X76280952Y-44833333D01*
X76519047Y-44833333D01*
X76614285Y-44880952D01*
X76661904Y-44928571D01*
X76709523Y-45023809D01*
X76709523Y-45261904D01*
X76661904Y-45357142D01*
X76614285Y-45404761D01*
X76519047Y-45452380D01*
X76280952Y-45452380D01*
X76185714Y-45404761D01*
X76138095Y-45357142D01*
X77661904Y-45452380D02*
X77090476Y-45452380D01*
X77376190Y-45452380D02*
X77376190Y-44452380D01*
X77280952Y-44595238D01*
X77185714Y-44690476D01*
X77090476Y-44738095D01*
%TO.C,U6*%
X95963095Y-29127380D02*
X95963095Y-29936904D01*
X96010714Y-30032142D01*
X96058333Y-30079761D01*
X96153571Y-30127380D01*
X96344047Y-30127380D01*
X96439285Y-30079761D01*
X96486904Y-30032142D01*
X96534523Y-29936904D01*
X96534523Y-29127380D01*
X97439285Y-29127380D02*
X97248809Y-29127380D01*
X97153571Y-29175000D01*
X97105952Y-29222619D01*
X97010714Y-29365476D01*
X96963095Y-29555952D01*
X96963095Y-29936904D01*
X97010714Y-30032142D01*
X97058333Y-30079761D01*
X97153571Y-30127380D01*
X97344047Y-30127380D01*
X97439285Y-30079761D01*
X97486904Y-30032142D01*
X97534523Y-29936904D01*
X97534523Y-29698809D01*
X97486904Y-29603571D01*
X97439285Y-29555952D01*
X97344047Y-29508333D01*
X97153571Y-29508333D01*
X97058333Y-29555952D01*
X97010714Y-29603571D01*
X96963095Y-29698809D01*
%TO.C,C39*%
X109857142Y-44042857D02*
X109904761Y-44090476D01*
X109952380Y-44233333D01*
X109952380Y-44328571D01*
X109904761Y-44471428D01*
X109809523Y-44566666D01*
X109714285Y-44614285D01*
X109523809Y-44661904D01*
X109380952Y-44661904D01*
X109190476Y-44614285D01*
X109095238Y-44566666D01*
X109000000Y-44471428D01*
X108952380Y-44328571D01*
X108952380Y-44233333D01*
X109000000Y-44090476D01*
X109047619Y-44042857D01*
X108952380Y-43709523D02*
X108952380Y-43090476D01*
X109333333Y-43423809D01*
X109333333Y-43280952D01*
X109380952Y-43185714D01*
X109428571Y-43138095D01*
X109523809Y-43090476D01*
X109761904Y-43090476D01*
X109857142Y-43138095D01*
X109904761Y-43185714D01*
X109952380Y-43280952D01*
X109952380Y-43566666D01*
X109904761Y-43661904D01*
X109857142Y-43709523D01*
X109952380Y-42614285D02*
X109952380Y-42423809D01*
X109904761Y-42328571D01*
X109857142Y-42280952D01*
X109714285Y-42185714D01*
X109523809Y-42138095D01*
X109142857Y-42138095D01*
X109047619Y-42185714D01*
X109000000Y-42233333D01*
X108952380Y-42328571D01*
X108952380Y-42519047D01*
X109000000Y-42614285D01*
X109047619Y-42661904D01*
X109142857Y-42709523D01*
X109380952Y-42709523D01*
X109476190Y-42661904D01*
X109523809Y-42614285D01*
X109571428Y-42519047D01*
X109571428Y-42328571D01*
X109523809Y-42233333D01*
X109476190Y-42185714D01*
X109380952Y-42138095D01*
%TO.C,R8*%
X128433333Y-85452380D02*
X128100000Y-84976190D01*
X127861904Y-85452380D02*
X127861904Y-84452380D01*
X128242857Y-84452380D01*
X128338095Y-84500000D01*
X128385714Y-84547619D01*
X128433333Y-84642857D01*
X128433333Y-84785714D01*
X128385714Y-84880952D01*
X128338095Y-84928571D01*
X128242857Y-84976190D01*
X127861904Y-84976190D01*
X129004761Y-84880952D02*
X128909523Y-84833333D01*
X128861904Y-84785714D01*
X128814285Y-84690476D01*
X128814285Y-84642857D01*
X128861904Y-84547619D01*
X128909523Y-84500000D01*
X129004761Y-84452380D01*
X129195238Y-84452380D01*
X129290476Y-84500000D01*
X129338095Y-84547619D01*
X129385714Y-84642857D01*
X129385714Y-84690476D01*
X129338095Y-84785714D01*
X129290476Y-84833333D01*
X129195238Y-84880952D01*
X129004761Y-84880952D01*
X128909523Y-84928571D01*
X128861904Y-84976190D01*
X128814285Y-85071428D01*
X128814285Y-85261904D01*
X128861904Y-85357142D01*
X128909523Y-85404761D01*
X129004761Y-85452380D01*
X129195238Y-85452380D01*
X129290476Y-85404761D01*
X129338095Y-85357142D01*
X129385714Y-85261904D01*
X129385714Y-85071428D01*
X129338095Y-84976190D01*
X129290476Y-84928571D01*
X129195238Y-84880952D01*
%TO.C,R41*%
X122452380Y-37442857D02*
X121976190Y-37776190D01*
X122452380Y-38014285D02*
X121452380Y-38014285D01*
X121452380Y-37633333D01*
X121500000Y-37538095D01*
X121547619Y-37490476D01*
X121642857Y-37442857D01*
X121785714Y-37442857D01*
X121880952Y-37490476D01*
X121928571Y-37538095D01*
X121976190Y-37633333D01*
X121976190Y-38014285D01*
X121785714Y-36585714D02*
X122452380Y-36585714D01*
X121404761Y-36823809D02*
X122119047Y-37061904D01*
X122119047Y-36442857D01*
X122452380Y-35538095D02*
X122452380Y-36109523D01*
X122452380Y-35823809D02*
X121452380Y-35823809D01*
X121595238Y-35919047D01*
X121690476Y-36014285D01*
X121738095Y-36109523D01*
%TO.C,J3*%
X85552380Y-108433333D02*
X86266666Y-108433333D01*
X86409523Y-108480952D01*
X86504761Y-108576190D01*
X86552380Y-108719047D01*
X86552380Y-108814285D01*
X85552380Y-108052380D02*
X85552380Y-107433333D01*
X85933333Y-107766666D01*
X85933333Y-107623809D01*
X85980952Y-107528571D01*
X86028571Y-107480952D01*
X86123809Y-107433333D01*
X86361904Y-107433333D01*
X86457142Y-107480952D01*
X86504761Y-107528571D01*
X86552380Y-107623809D01*
X86552380Y-107909523D01*
X86504761Y-108004761D01*
X86457142Y-108052380D01*
%TO.C,U5*%
X117952380Y-36561904D02*
X118761904Y-36561904D01*
X118857142Y-36514285D01*
X118904761Y-36466666D01*
X118952380Y-36371428D01*
X118952380Y-36180952D01*
X118904761Y-36085714D01*
X118857142Y-36038095D01*
X118761904Y-35990476D01*
X117952380Y-35990476D01*
X117952380Y-35038095D02*
X117952380Y-35514285D01*
X118428571Y-35561904D01*
X118380952Y-35514285D01*
X118333333Y-35419047D01*
X118333333Y-35180952D01*
X118380952Y-35085714D01*
X118428571Y-35038095D01*
X118523809Y-34990476D01*
X118761904Y-34990476D01*
X118857142Y-35038095D01*
X118904761Y-35085714D01*
X118952380Y-35180952D01*
X118952380Y-35419047D01*
X118904761Y-35514285D01*
X118857142Y-35561904D01*
%TO.C,R31*%
X72357142Y-124452380D02*
X72023809Y-123976190D01*
X71785714Y-124452380D02*
X71785714Y-123452380D01*
X72166666Y-123452380D01*
X72261904Y-123500000D01*
X72309523Y-123547619D01*
X72357142Y-123642857D01*
X72357142Y-123785714D01*
X72309523Y-123880952D01*
X72261904Y-123928571D01*
X72166666Y-123976190D01*
X71785714Y-123976190D01*
X72690476Y-123452380D02*
X73309523Y-123452380D01*
X72976190Y-123833333D01*
X73119047Y-123833333D01*
X73214285Y-123880952D01*
X73261904Y-123928571D01*
X73309523Y-124023809D01*
X73309523Y-124261904D01*
X73261904Y-124357142D01*
X73214285Y-124404761D01*
X73119047Y-124452380D01*
X72833333Y-124452380D01*
X72738095Y-124404761D01*
X72690476Y-124357142D01*
X74261904Y-124452380D02*
X73690476Y-124452380D01*
X73976190Y-124452380D02*
X73976190Y-123452380D01*
X73880952Y-123595238D01*
X73785714Y-123690476D01*
X73690476Y-123738095D01*
%TO.C,U7*%
X128038095Y-30452380D02*
X128038095Y-31261904D01*
X128085714Y-31357142D01*
X128133333Y-31404761D01*
X128228571Y-31452380D01*
X128419047Y-31452380D01*
X128514285Y-31404761D01*
X128561904Y-31357142D01*
X128609523Y-31261904D01*
X128609523Y-30452380D01*
X128990476Y-30452380D02*
X129657142Y-30452380D01*
X129228571Y-31452380D01*
%TO.C,C41*%
X124037142Y-84405357D02*
X124084761Y-84452976D01*
X124132380Y-84595833D01*
X124132380Y-84691071D01*
X124084761Y-84833928D01*
X123989523Y-84929166D01*
X123894285Y-84976785D01*
X123703809Y-85024404D01*
X123560952Y-85024404D01*
X123370476Y-84976785D01*
X123275238Y-84929166D01*
X123180000Y-84833928D01*
X123132380Y-84691071D01*
X123132380Y-84595833D01*
X123180000Y-84452976D01*
X123227619Y-84405357D01*
X123465714Y-83548214D02*
X124132380Y-83548214D01*
X123084761Y-83786309D02*
X123799047Y-84024404D01*
X123799047Y-83405357D01*
X124132380Y-82500595D02*
X124132380Y-83072023D01*
X124132380Y-82786309D02*
X123132380Y-82786309D01*
X123275238Y-82881547D01*
X123370476Y-82976785D01*
X123418095Y-83072023D01*
%TO.C,L1*%
X99023333Y-111522380D02*
X98547142Y-111522380D01*
X98547142Y-110522380D01*
X99880476Y-111522380D02*
X99309047Y-111522380D01*
X99594761Y-111522380D02*
X99594761Y-110522380D01*
X99499523Y-110665238D01*
X99404285Y-110760476D01*
X99309047Y-110808095D01*
%TO.C,R7*%
X122333333Y-72252380D02*
X122000000Y-71776190D01*
X121761904Y-72252380D02*
X121761904Y-71252380D01*
X122142857Y-71252380D01*
X122238095Y-71300000D01*
X122285714Y-71347619D01*
X122333333Y-71442857D01*
X122333333Y-71585714D01*
X122285714Y-71680952D01*
X122238095Y-71728571D01*
X122142857Y-71776190D01*
X121761904Y-71776190D01*
X122666666Y-71252380D02*
X123333333Y-71252380D01*
X122904761Y-72252380D01*
%TO.C,C22*%
X121862153Y-51197170D02*
X121814534Y-51244789D01*
X121671677Y-51292408D01*
X121576439Y-51292408D01*
X121433582Y-51244789D01*
X121338344Y-51149551D01*
X121290725Y-51054313D01*
X121243106Y-50863837D01*
X121243106Y-50720980D01*
X121290725Y-50530504D01*
X121338344Y-50435266D01*
X121433582Y-50340028D01*
X121576439Y-50292408D01*
X121671677Y-50292408D01*
X121814534Y-50340028D01*
X121862153Y-50387647D01*
X122243106Y-50387647D02*
X122290725Y-50340028D01*
X122385963Y-50292408D01*
X122624058Y-50292408D01*
X122719296Y-50340028D01*
X122766915Y-50387647D01*
X122814534Y-50482885D01*
X122814534Y-50578123D01*
X122766915Y-50720980D01*
X122195487Y-51292408D01*
X122814534Y-51292408D01*
X123195487Y-50387647D02*
X123243106Y-50340028D01*
X123338344Y-50292408D01*
X123576439Y-50292408D01*
X123671677Y-50340028D01*
X123719296Y-50387647D01*
X123766915Y-50482885D01*
X123766915Y-50578123D01*
X123719296Y-50720980D01*
X123147868Y-51292408D01*
X123766915Y-51292408D01*
%TO.C,U8*%
X90638095Y-111052380D02*
X90638095Y-111861904D01*
X90685714Y-111957142D01*
X90733333Y-112004761D01*
X90828571Y-112052380D01*
X91019047Y-112052380D01*
X91114285Y-112004761D01*
X91161904Y-111957142D01*
X91209523Y-111861904D01*
X91209523Y-111052380D01*
X91828571Y-111480952D02*
X91733333Y-111433333D01*
X91685714Y-111385714D01*
X91638095Y-111290476D01*
X91638095Y-111242857D01*
X91685714Y-111147619D01*
X91733333Y-111100000D01*
X91828571Y-111052380D01*
X92019047Y-111052380D01*
X92114285Y-111100000D01*
X92161904Y-111147619D01*
X92209523Y-111242857D01*
X92209523Y-111290476D01*
X92161904Y-111385714D01*
X92114285Y-111433333D01*
X92019047Y-111480952D01*
X91828571Y-111480952D01*
X91733333Y-111528571D01*
X91685714Y-111576190D01*
X91638095Y-111671428D01*
X91638095Y-111861904D01*
X91685714Y-111957142D01*
X91733333Y-112004761D01*
X91828571Y-112052380D01*
X92019047Y-112052380D01*
X92114285Y-112004761D01*
X92161904Y-111957142D01*
X92209523Y-111861904D01*
X92209523Y-111671428D01*
X92161904Y-111576190D01*
X92114285Y-111528571D01*
X92019047Y-111480952D01*
%TO.C,R14*%
X118257391Y-55232885D02*
X117781201Y-55566218D01*
X118257391Y-55804313D02*
X117257391Y-55804313D01*
X117257391Y-55423361D01*
X117305011Y-55328123D01*
X117352630Y-55280504D01*
X117447868Y-55232885D01*
X117590725Y-55232885D01*
X117685963Y-55280504D01*
X117733582Y-55328123D01*
X117781201Y-55423361D01*
X117781201Y-55804313D01*
X118257391Y-54280504D02*
X118257391Y-54851932D01*
X118257391Y-54566218D02*
X117257391Y-54566218D01*
X117400249Y-54661456D01*
X117495487Y-54756694D01*
X117543106Y-54851932D01*
X117590725Y-53423361D02*
X118257391Y-53423361D01*
X117209772Y-53661456D02*
X117924058Y-53899551D01*
X117924058Y-53280504D01*
%TO.C,C44*%
X110557142Y-37142857D02*
X110604761Y-37190476D01*
X110652380Y-37333333D01*
X110652380Y-37428571D01*
X110604761Y-37571428D01*
X110509523Y-37666666D01*
X110414285Y-37714285D01*
X110223809Y-37761904D01*
X110080952Y-37761904D01*
X109890476Y-37714285D01*
X109795238Y-37666666D01*
X109700000Y-37571428D01*
X109652380Y-37428571D01*
X109652380Y-37333333D01*
X109700000Y-37190476D01*
X109747619Y-37142857D01*
X109985714Y-36285714D02*
X110652380Y-36285714D01*
X109604761Y-36523809D02*
X110319047Y-36761904D01*
X110319047Y-36142857D01*
X109985714Y-35333333D02*
X110652380Y-35333333D01*
X109604761Y-35571428D02*
X110319047Y-35809523D01*
X110319047Y-35190476D01*
%TO.C,R43*%
X86357142Y-44452380D02*
X86023809Y-43976190D01*
X85785714Y-44452380D02*
X85785714Y-43452380D01*
X86166666Y-43452380D01*
X86261904Y-43500000D01*
X86309523Y-43547619D01*
X86357142Y-43642857D01*
X86357142Y-43785714D01*
X86309523Y-43880952D01*
X86261904Y-43928571D01*
X86166666Y-43976190D01*
X85785714Y-43976190D01*
X87214285Y-43785714D02*
X87214285Y-44452380D01*
X86976190Y-43404761D02*
X86738095Y-44119047D01*
X87357142Y-44119047D01*
X87642857Y-43452380D02*
X88261904Y-43452380D01*
X87928571Y-43833333D01*
X88071428Y-43833333D01*
X88166666Y-43880952D01*
X88214285Y-43928571D01*
X88261904Y-44023809D01*
X88261904Y-44261904D01*
X88214285Y-44357142D01*
X88166666Y-44404761D01*
X88071428Y-44452380D01*
X87785714Y-44452380D01*
X87690476Y-44404761D01*
X87642857Y-44357142D01*
%TO.C,C29*%
X146857142Y-41080357D02*
X146904761Y-41127976D01*
X146952380Y-41270833D01*
X146952380Y-41366071D01*
X146904761Y-41508928D01*
X146809523Y-41604166D01*
X146714285Y-41651785D01*
X146523809Y-41699404D01*
X146380952Y-41699404D01*
X146190476Y-41651785D01*
X146095238Y-41604166D01*
X146000000Y-41508928D01*
X145952380Y-41366071D01*
X145952380Y-41270833D01*
X146000000Y-41127976D01*
X146047619Y-41080357D01*
X146047619Y-40699404D02*
X146000000Y-40651785D01*
X145952380Y-40556547D01*
X145952380Y-40318452D01*
X146000000Y-40223214D01*
X146047619Y-40175595D01*
X146142857Y-40127976D01*
X146238095Y-40127976D01*
X146380952Y-40175595D01*
X146952380Y-40747023D01*
X146952380Y-40127976D01*
X146952380Y-39651785D02*
X146952380Y-39461309D01*
X146904761Y-39366071D01*
X146857142Y-39318452D01*
X146714285Y-39223214D01*
X146523809Y-39175595D01*
X146142857Y-39175595D01*
X146047619Y-39223214D01*
X146000000Y-39270833D01*
X145952380Y-39366071D01*
X145952380Y-39556547D01*
X146000000Y-39651785D01*
X146047619Y-39699404D01*
X146142857Y-39747023D01*
X146380952Y-39747023D01*
X146476190Y-39699404D01*
X146523809Y-39651785D01*
X146571428Y-39556547D01*
X146571428Y-39366071D01*
X146523809Y-39270833D01*
X146476190Y-39223214D01*
X146380952Y-39175595D01*
%TO.C,R29*%
X73157142Y-94152380D02*
X72823809Y-93676190D01*
X72585714Y-94152380D02*
X72585714Y-93152380D01*
X72966666Y-93152380D01*
X73061904Y-93200000D01*
X73109523Y-93247619D01*
X73157142Y-93342857D01*
X73157142Y-93485714D01*
X73109523Y-93580952D01*
X73061904Y-93628571D01*
X72966666Y-93676190D01*
X72585714Y-93676190D01*
X73538095Y-93247619D02*
X73585714Y-93200000D01*
X73680952Y-93152380D01*
X73919047Y-93152380D01*
X74014285Y-93200000D01*
X74061904Y-93247619D01*
X74109523Y-93342857D01*
X74109523Y-93438095D01*
X74061904Y-93580952D01*
X73490476Y-94152380D01*
X74109523Y-94152380D01*
X74585714Y-94152380D02*
X74776190Y-94152380D01*
X74871428Y-94104761D01*
X74919047Y-94057142D01*
X75014285Y-93914285D01*
X75061904Y-93723809D01*
X75061904Y-93342857D01*
X75014285Y-93247619D01*
X74966666Y-93200000D01*
X74871428Y-93152380D01*
X74680952Y-93152380D01*
X74585714Y-93200000D01*
X74538095Y-93247619D01*
X74490476Y-93342857D01*
X74490476Y-93580952D01*
X74538095Y-93676190D01*
X74585714Y-93723809D01*
X74680952Y-93771428D01*
X74871428Y-93771428D01*
X74966666Y-93723809D01*
X75014285Y-93676190D01*
X75061904Y-93580952D01*
%TO.C,J1*%
X161666666Y-49452380D02*
X161666666Y-50166666D01*
X161619047Y-50309523D01*
X161523809Y-50404761D01*
X161380952Y-50452380D01*
X161285714Y-50452380D01*
X162666666Y-50452380D02*
X162095238Y-50452380D01*
X162380952Y-50452380D02*
X162380952Y-49452380D01*
X162285714Y-49595238D01*
X162190476Y-49690476D01*
X162095238Y-49738095D01*
%TO.C,R17*%
X133062153Y-53792408D02*
X132728820Y-53316218D01*
X132490725Y-53792408D02*
X132490725Y-52792408D01*
X132871677Y-52792408D01*
X132966915Y-52840028D01*
X133014534Y-52887647D01*
X133062153Y-52982885D01*
X133062153Y-53125742D01*
X133014534Y-53220980D01*
X132966915Y-53268599D01*
X132871677Y-53316218D01*
X132490725Y-53316218D01*
X134014534Y-53792408D02*
X133443106Y-53792408D01*
X133728820Y-53792408D02*
X133728820Y-52792408D01*
X133633582Y-52935266D01*
X133538344Y-53030504D01*
X133443106Y-53078123D01*
X134347868Y-52792408D02*
X135014534Y-52792408D01*
X134585963Y-53792408D01*
%TO.C,J2*%
X68996666Y-61982380D02*
X68996666Y-62696666D01*
X68949047Y-62839523D01*
X68853809Y-62934761D01*
X68710952Y-62982380D01*
X68615714Y-62982380D01*
X69425238Y-62077619D02*
X69472857Y-62030000D01*
X69568095Y-61982380D01*
X69806190Y-61982380D01*
X69901428Y-62030000D01*
X69949047Y-62077619D01*
X69996666Y-62172857D01*
X69996666Y-62268095D01*
X69949047Y-62410952D01*
X69377619Y-62982380D01*
X69996666Y-62982380D01*
D11*
%TO.C,R40*%
X145872936Y-113835000D02*
X146327064Y-113835000D01*
X145872936Y-112365000D02*
X146327064Y-112365000D01*
%TO.C,C36*%
X98188748Y-121090000D02*
X99611252Y-121090000D01*
X98188748Y-122910000D02*
X99611252Y-122910000D01*
%TO.C,Y1*%
X124275000Y-90075000D02*
X124275000Y-88725000D01*
X122525000Y-90075000D02*
X122525000Y-88725000D01*
%TO.C,C34*%
X136838748Y-108735000D02*
X137361252Y-108735000D01*
X136838748Y-107265000D02*
X137361252Y-107265000D01*
%TO.C,R19*%
X145240011Y-57112964D02*
X145240011Y-57567092D01*
X143770011Y-57112964D02*
X143770011Y-57567092D01*
%TO.C,C20*%
X136493759Y-57825028D02*
X137016263Y-57825028D01*
X136493759Y-56355028D02*
X137016263Y-56355028D01*
%TO.C,C15*%
X124865000Y-72138748D02*
X124865000Y-72661252D01*
X126335000Y-72138748D02*
X126335000Y-72661252D01*
%TO.C,C3*%
X88438748Y-70535000D02*
X88961252Y-70535000D01*
X88438748Y-69065000D02*
X88961252Y-69065000D01*
%TO.C,R11*%
X141240011Y-57567092D02*
X141240011Y-57112964D01*
X139770011Y-57567092D02*
X139770011Y-57112964D01*
%TO.C,C28*%
X150890000Y-48700000D02*
X150890000Y-47700000D01*
X150204437Y-47460000D02*
X151890000Y-47460000D01*
X156595563Y-47460000D02*
X157660000Y-46395563D01*
X156595563Y-47460000D02*
X154910000Y-47460000D01*
X157660000Y-38940000D02*
X154910000Y-38940000D01*
X150390000Y-48200000D02*
X151390000Y-48200000D01*
X149140000Y-46395563D02*
X149140000Y-38940000D01*
X157660000Y-46395563D02*
X157660000Y-38940000D01*
X149140000Y-38940000D02*
X151890000Y-38940000D01*
X150204437Y-47460000D02*
X149140000Y-46395563D01*
%TO.C,C43*%
X143935000Y-75376248D02*
X143935000Y-75898752D01*
X142465000Y-75376248D02*
X142465000Y-75898752D01*
%TO.C,C25*%
X141770011Y-63116276D02*
X141770011Y-63638780D01*
X143240011Y-63116276D02*
X143240011Y-63638780D01*
%TO.C,U4*%
X75495000Y-118595000D02*
X75495000Y-121425000D01*
X75225000Y-117095000D02*
X75225000Y-118595000D01*
X75225000Y-118595000D02*
X75495000Y-118595000D01*
X81855000Y-118595000D02*
X81855000Y-119695000D01*
X82125000Y-118595000D02*
X81855000Y-118595000D01*
X82125000Y-117095000D02*
X82125000Y-118595000D01*
%TO.C,J8*%
X157060000Y-107550000D02*
X158550000Y-107550000D01*
X158550000Y-113350000D02*
X158550000Y-111610000D01*
X158550000Y-107550000D02*
X158550000Y-108890000D01*
X152250000Y-111610000D02*
X152250000Y-113350000D01*
X153740000Y-107550000D02*
X153740000Y-106350000D01*
X152250000Y-113350000D02*
X158550000Y-113350000D01*
X153740000Y-107550000D02*
X152250000Y-107550000D01*
X152250000Y-107550000D02*
X152250000Y-108890000D01*
%TO.C,R35*%
X102827064Y-41065000D02*
X102372936Y-41065000D01*
X102827064Y-42535000D02*
X102372936Y-42535000D01*
%TO.C,R23*%
X145932075Y-70805028D02*
X145477947Y-70805028D01*
X145932075Y-72275028D02*
X145477947Y-72275028D01*
%TO.C,J4*%
X66570000Y-60930000D02*
X69230000Y-60930000D01*
X69230000Y-50710000D02*
X69230000Y-60930000D01*
X67900000Y-48110000D02*
X69230000Y-48110000D01*
X66570000Y-50710000D02*
X66570000Y-60930000D01*
X69230000Y-48110000D02*
X69230000Y-49440000D01*
X66570000Y-50710000D02*
X69230000Y-50710000D01*
%TO.C,R21*%
X127172936Y-65735000D02*
X127627064Y-65735000D01*
X127172936Y-64265000D02*
X127627064Y-64265000D01*
%TO.C,R13*%
X147240011Y-63567092D02*
X147240011Y-63112964D01*
X145770011Y-63567092D02*
X145770011Y-63112964D01*
%TO.C,C2*%
X92165000Y-63998752D02*
X92165000Y-63476248D01*
X93635000Y-63998752D02*
X93635000Y-63476248D01*
%TO.C,R44*%
X88427064Y-41065000D02*
X87972936Y-41065000D01*
X88427064Y-42535000D02*
X87972936Y-42535000D01*
%TO.C,C12*%
X87965000Y-86923752D02*
X87965000Y-86401248D01*
X89435000Y-86923752D02*
X89435000Y-86401248D01*
%TO.C,C23*%
X127361252Y-90165000D02*
X126838748Y-90165000D01*
X127361252Y-91635000D02*
X126838748Y-91635000D01*
%TO.C,C50*%
X83360000Y-43560000D02*
X83360000Y-41860000D01*
X78904437Y-38040000D02*
X83360000Y-38040000D01*
X78904437Y-43560000D02*
X83360000Y-43560000D01*
X77840000Y-39104437D02*
X77840000Y-39740000D01*
X77840000Y-42495563D02*
X77840000Y-41860000D01*
X83360000Y-38040000D02*
X83360000Y-39740000D01*
X77840000Y-39104437D02*
X78904437Y-38040000D01*
X76975000Y-39115000D02*
X77600000Y-39115000D01*
X77287500Y-38802500D02*
X77287500Y-39427500D01*
X77840000Y-42495563D02*
X78904437Y-43560000D01*
%TO.C,R9*%
X131372936Y-82265000D02*
X131827064Y-82265000D01*
X131372936Y-83735000D02*
X131827064Y-83735000D01*
%TO.C,Q1*%
X130465000Y-36040000D02*
X130165000Y-36040000D01*
X130165000Y-36040000D02*
X130165000Y-42160000D01*
X135185000Y-42160000D02*
X135535000Y-42160000D01*
X135235000Y-36040000D02*
X135535000Y-36040000D01*
X135535000Y-36040000D02*
X135535000Y-42160000D01*
%TO.C,R26*%
X155665000Y-79572936D02*
X155665000Y-80027064D01*
X157135000Y-79572936D02*
X157135000Y-80027064D01*
%TO.C,C45*%
X108661252Y-39065000D02*
X108138748Y-39065000D01*
X108661252Y-40535000D02*
X108138748Y-40535000D01*
%TO.C,C32*%
X88511252Y-121910000D02*
X87088748Y-121910000D01*
X88511252Y-120090000D02*
X87088748Y-120090000D01*
%TO.C,R16*%
X119270011Y-56712964D02*
X119270011Y-57167092D01*
X120740011Y-56712964D02*
X120740011Y-57167092D01*
%TO.C,U3*%
X143925000Y-99405000D02*
X145875000Y-99405000D01*
X143925000Y-104525000D02*
X141975000Y-104525000D01*
X143925000Y-99405000D02*
X140475000Y-99405000D01*
X143925000Y-104525000D02*
X145875000Y-104525000D01*
%TO.C,C6*%
X124376248Y-92765000D02*
X124898752Y-92765000D01*
X124376248Y-94235000D02*
X124898752Y-94235000D01*
%TO.C,C13*%
X88735000Y-76176248D02*
X88735000Y-76698752D01*
X87265000Y-76176248D02*
X87265000Y-76698752D01*
%TO.C,U1*%
X93840000Y-91610000D02*
X92890000Y-91610000D01*
X93840000Y-67390000D02*
X92890000Y-67390000D01*
X116160000Y-67390000D02*
X117110000Y-67390000D01*
X117110000Y-67390000D02*
X117110000Y-68340000D01*
X92890000Y-67390000D02*
X92890000Y-68340000D01*
X92890000Y-91610000D02*
X92890000Y-90660000D01*
X116160000Y-91610000D02*
X117110000Y-91610000D01*
X117110000Y-91610000D02*
X117110000Y-90660000D01*
X117110000Y-90660000D02*
X118425000Y-90660000D01*
%TO.C,C16*%
X91665000Y-93476248D02*
X91665000Y-93998752D01*
X93135000Y-93476248D02*
X93135000Y-93998752D01*
%TO.C,R34*%
X102372936Y-40535000D02*
X102827064Y-40535000D01*
X102372936Y-39065000D02*
X102827064Y-39065000D01*
%TO.C,J5*%
X154885000Y-74700000D02*
X154885000Y-88100000D01*
X148885000Y-88100000D02*
X151485000Y-88100000D01*
X148885000Y-74700000D02*
X151485000Y-74700000D01*
X148885000Y-88100000D02*
X148885000Y-83150000D01*
X148885000Y-74700000D02*
X148885000Y-79650000D01*
%TO.C,C27*%
X144061252Y-97465000D02*
X143538748Y-97465000D01*
X144061252Y-98935000D02*
X143538748Y-98935000D01*
%TO.C,C1*%
X87335000Y-86948752D02*
X87335000Y-86426248D01*
X85865000Y-86948752D02*
X85865000Y-86426248D01*
%TO.C,C19*%
X126266263Y-57575028D02*
X125743759Y-57575028D01*
X126266263Y-56105028D02*
X125743759Y-56105028D01*
%TO.C,R5*%
X81772936Y-84735000D02*
X82227064Y-84735000D01*
X81772936Y-83265000D02*
X82227064Y-83265000D01*
%TO.C,C42*%
X113901248Y-95065000D02*
X114423752Y-95065000D01*
X113901248Y-96535000D02*
X114423752Y-96535000D01*
%TO.C,R25*%
X145932075Y-70275028D02*
X145477947Y-70275028D01*
X145932075Y-68805028D02*
X145477947Y-68805028D01*
%TO.C,R38*%
X88627064Y-119210000D02*
X87172936Y-119210000D01*
X88627064Y-117390000D02*
X87172936Y-117390000D01*
%TO.C,C35*%
X133635000Y-110601248D02*
X133635000Y-111123752D01*
X132165000Y-110601248D02*
X132165000Y-111123752D01*
%TO.C,C46*%
X77140000Y-104404437D02*
X78204437Y-103340000D01*
X82660000Y-108860000D02*
X82660000Y-107160000D01*
X78204437Y-103340000D02*
X82660000Y-103340000D01*
X77140000Y-104404437D02*
X77140000Y-105040000D01*
X77140000Y-107795563D02*
X77140000Y-107160000D01*
X76275000Y-104415000D02*
X76900000Y-104415000D01*
X82660000Y-103340000D02*
X82660000Y-105040000D01*
X76587500Y-104102500D02*
X76587500Y-104727500D01*
X77140000Y-107795563D02*
X78204437Y-108860000D01*
X78204437Y-108860000D02*
X82660000Y-108860000D01*
%TO.C,R15*%
X145240011Y-63567092D02*
X145240011Y-63112964D01*
X143770011Y-63567092D02*
X143770011Y-63112964D01*
%TO.C,D2*%
X137000000Y-44250000D02*
X143900000Y-44250000D01*
X137000000Y-40950000D02*
X137000000Y-44250000D01*
X137000000Y-40950000D02*
X143900000Y-40950000D01*
%TO.C,R33*%
X121627064Y-31865000D02*
X121172936Y-31865000D01*
X121627064Y-33335000D02*
X121172936Y-33335000D01*
%TO.C,C11*%
X114676248Y-63835000D02*
X115198752Y-63835000D01*
X114676248Y-62365000D02*
X115198752Y-62365000D01*
%TO.C,SW2*%
X133790000Y-78200000D02*
X133790000Y-78610000D01*
X140210000Y-76600000D02*
X140210000Y-74200000D01*
X133790000Y-78610000D02*
X140210000Y-78610000D01*
X133790000Y-72190000D02*
X133790000Y-72600000D01*
X140210000Y-72190000D02*
X133790000Y-72190000D01*
X133790000Y-74200000D02*
X133790000Y-76600000D01*
X140210000Y-78610000D02*
X140210000Y-78330000D01*
X140210000Y-72600000D02*
X140210000Y-72190000D01*
%TO.C,R2*%
X146865000Y-107172936D02*
X146865000Y-107627064D01*
X148335000Y-107172936D02*
X148335000Y-107627064D01*
%TO.C,C26*%
X79298752Y-92235000D02*
X78776248Y-92235000D01*
X79298752Y-90765000D02*
X78776248Y-90765000D01*
%TO.C,R10*%
X125777947Y-48105028D02*
X126232075Y-48105028D01*
X125777947Y-49575028D02*
X126232075Y-49575028D01*
%TO.C,U2*%
X129395011Y-58325028D02*
X129395011Y-57850028D01*
X133615011Y-58325028D02*
X133615011Y-57850028D01*
X133615011Y-62070028D02*
X133140011Y-62070028D01*
X133615011Y-61595028D02*
X133615011Y-62070028D01*
X129395011Y-62070028D02*
X129870011Y-62070028D01*
X129395011Y-57850028D02*
X129870011Y-57850028D01*
X129395011Y-61595028D02*
X129395011Y-62070028D01*
%TO.C,R1*%
X150335000Y-107172936D02*
X150335000Y-107627064D01*
X148865000Y-107172936D02*
X148865000Y-107627064D01*
%TO.C,U10*%
X138300000Y-112510000D02*
X139800000Y-112510000D01*
X138300000Y-109290000D02*
X139800000Y-109290000D01*
X138300000Y-109290000D02*
X135375000Y-109290000D01*
X138300000Y-112510000D02*
X136800000Y-112510000D01*
%TO.C,C30*%
X125661252Y-29865000D02*
X125138748Y-29865000D01*
X125661252Y-31335000D02*
X125138748Y-31335000D01*
%TO.C,C5*%
X96798752Y-60765000D02*
X96276248Y-60765000D01*
X96798752Y-62235000D02*
X96276248Y-62235000D01*
%TO.C,C8*%
X109198752Y-95465000D02*
X108676248Y-95465000D01*
X109198752Y-96935000D02*
X108676248Y-96935000D01*
%TO.C,R32*%
X79972936Y-123635000D02*
X80427064Y-123635000D01*
X79972936Y-122165000D02*
X80427064Y-122165000D01*
%TO.C,R42*%
X124335000Y-40372936D02*
X124335000Y-40827064D01*
X122865000Y-40372936D02*
X122865000Y-40827064D01*
%TO.C,C49*%
X93901248Y-44265000D02*
X94423752Y-44265000D01*
X93901248Y-45735000D02*
X94423752Y-45735000D01*
%TO.C,R37*%
X131377064Y-46510000D02*
X127022936Y-46510000D01*
X131377064Y-43090000D02*
X127022936Y-43090000D01*
%TO.C,R39*%
X142465000Y-111972936D02*
X142465000Y-112427064D01*
X143935000Y-111972936D02*
X143935000Y-112427064D01*
%TO.C,C7*%
X102001248Y-60865000D02*
X102523752Y-60865000D01*
X102001248Y-62335000D02*
X102523752Y-62335000D01*
%TO.C,SW1*%
X82810000Y-95190000D02*
X76390000Y-95190000D01*
X82810000Y-99600000D02*
X82810000Y-97200000D01*
X76390000Y-95190000D02*
X76390000Y-95470000D01*
X76390000Y-101610000D02*
X82810000Y-101610000D01*
X76390000Y-97200000D02*
X76390000Y-99600000D01*
X82810000Y-101610000D02*
X82810000Y-101200000D01*
X76390000Y-101200000D02*
X76390000Y-101610000D01*
X82810000Y-95600000D02*
X82810000Y-95190000D01*
%TO.C,R22*%
X145770011Y-57112964D02*
X145770011Y-57567092D01*
X147240011Y-57112964D02*
X147240011Y-57567092D01*
%TO.C,C17*%
X135956259Y-63575028D02*
X136478763Y-63575028D01*
X135956259Y-62105028D02*
X136478763Y-62105028D01*
%TO.C,R3*%
X87272936Y-82235000D02*
X87727064Y-82235000D01*
X87272936Y-80765000D02*
X87727064Y-80765000D01*
%TO.C,X1*%
X111315000Y-53165000D02*
X114100000Y-53165000D01*
X114100000Y-56835000D02*
X111500000Y-56835000D01*
X111315000Y-53365000D02*
X111315000Y-53165000D01*
%TO.C,R4*%
X87272936Y-82765000D02*
X87727064Y-82765000D01*
X87272936Y-84235000D02*
X87727064Y-84235000D01*
%TO.C,C31*%
X125661252Y-33335000D02*
X125138748Y-33335000D01*
X125661252Y-31865000D02*
X125138748Y-31865000D01*
%TO.C,R20*%
X128172936Y-67865000D02*
X128627064Y-67865000D01*
X128172936Y-69335000D02*
X128627064Y-69335000D01*
%TO.C,R6*%
X81772936Y-86265000D02*
X82227064Y-86265000D01*
X81772936Y-87735000D02*
X82227064Y-87735000D01*
%TO.C,R36*%
X127765000Y-37772936D02*
X127765000Y-38227064D01*
X129235000Y-37772936D02*
X129235000Y-38227064D01*
%TO.C,C9*%
X107138748Y-60865000D02*
X107661252Y-60865000D01*
X107138748Y-62335000D02*
X107661252Y-62335000D01*
%TO.C,C37*%
X138723752Y-114435000D02*
X138201248Y-114435000D01*
X138723752Y-112965000D02*
X138201248Y-112965000D01*
%TO.C,C21*%
X126236263Y-53575028D02*
X125713759Y-53575028D01*
X126236263Y-52105028D02*
X125713759Y-52105028D01*
%TO.C,R18*%
X123940011Y-62167092D02*
X123940011Y-61712964D01*
X122470011Y-62167092D02*
X122470011Y-61712964D01*
%TO.C,C47*%
X83735000Y-111261252D02*
X83735000Y-110738748D01*
X82265000Y-111261252D02*
X82265000Y-110738748D01*
%TO.C,J7*%
X169710011Y-52410028D02*
X148110011Y-52410028D01*
X148110011Y-52410028D02*
X148110011Y-68510028D01*
X148110011Y-68510028D02*
X169710011Y-68510028D01*
X169710011Y-68510028D02*
X169710011Y-52410028D01*
%TO.C,C18*%
X126228763Y-54105028D02*
X125706259Y-54105028D01*
X126228763Y-55575028D02*
X125706259Y-55575028D01*
%TO.C,C33*%
X127235000Y-38261252D02*
X127235000Y-37738748D01*
X125765000Y-38261252D02*
X125765000Y-37738748D01*
%TO.C,R24*%
X124520011Y-61767092D02*
X124520011Y-61312964D01*
X125990011Y-61767092D02*
X125990011Y-61312964D01*
%TO.C,J6*%
X168165000Y-86670000D02*
X166705000Y-86670000D01*
X168165000Y-77730000D02*
X168165000Y-86670000D01*
X168165000Y-77730000D02*
X166705000Y-77730000D01*
X162655000Y-86670000D02*
X164455000Y-86670000D01*
X162655000Y-77730000D02*
X164455000Y-77730000D01*
%TO.C,C10*%
X98365000Y-99276248D02*
X98365000Y-99798752D01*
X99835000Y-99276248D02*
X99835000Y-99798752D01*
%TO.C,C4*%
X121638748Y-80435000D02*
X122161252Y-80435000D01*
X121638748Y-78965000D02*
X122161252Y-78965000D01*
%TO.C,C40*%
X127298752Y-88535000D02*
X126776248Y-88535000D01*
X127298752Y-87065000D02*
X126776248Y-87065000D01*
%TO.C,D1*%
X91050000Y-122500000D02*
X91050000Y-115600000D01*
X94350000Y-122500000D02*
X94350000Y-115600000D01*
X91050000Y-122500000D02*
X94350000Y-122500000D01*
%TO.C,C24*%
X143240011Y-57601280D02*
X143240011Y-57078776D01*
X141770011Y-57601280D02*
X141770011Y-57078776D01*
%TO.C,C48*%
X91287500Y-38602500D02*
X91287500Y-39227500D01*
X91840000Y-42295563D02*
X91840000Y-41660000D01*
X91840000Y-42295563D02*
X92904437Y-43360000D01*
X90975000Y-38915000D02*
X91600000Y-38915000D01*
X97360000Y-43360000D02*
X97360000Y-41660000D01*
X91840000Y-38904437D02*
X92904437Y-37840000D01*
X97360000Y-37840000D02*
X97360000Y-39540000D01*
X92904437Y-37840000D02*
X97360000Y-37840000D01*
X91840000Y-38904437D02*
X91840000Y-39540000D01*
X92904437Y-43360000D02*
X97360000Y-43360000D01*
%TO.C,C38*%
X145460000Y-119495563D02*
X144395563Y-120560000D01*
X146325000Y-119485000D02*
X145700000Y-119485000D01*
X145460000Y-119495563D02*
X145460000Y-118860000D01*
X145460000Y-116104437D02*
X145460000Y-116740000D01*
X139940000Y-115040000D02*
X139940000Y-116740000D01*
X139940000Y-120560000D02*
X139940000Y-118860000D01*
X146012500Y-119797500D02*
X146012500Y-119172500D01*
X144395563Y-120560000D02*
X139940000Y-120560000D01*
X144395563Y-115040000D02*
X139940000Y-115040000D01*
X145460000Y-116104437D02*
X144395563Y-115040000D01*
%TO.C,R12*%
X136977947Y-51275028D02*
X137432075Y-51275028D01*
X136977947Y-49805028D02*
X137432075Y-49805028D01*
%TO.C,U9*%
X85270000Y-30350000D02*
X85270000Y-30620000D01*
X83770000Y-37250000D02*
X85270000Y-37250000D01*
X85270000Y-37250000D02*
X85270000Y-36980000D01*
X83770000Y-30350000D02*
X85270000Y-30350000D01*
X85270000Y-30620000D02*
X86370000Y-30620000D01*
X85270000Y-36980000D02*
X88100000Y-36980000D01*
%TO.C,R27*%
X80972936Y-94435000D02*
X81427064Y-94435000D01*
X80972936Y-92965000D02*
X81427064Y-92965000D01*
%TO.C,J9*%
X105790000Y-123920000D02*
X105790000Y-120560000D01*
X136210000Y-120560000D02*
X133500000Y-120560000D01*
X133500000Y-120560000D02*
X133500000Y-119220000D01*
X108500000Y-123920000D02*
X105790000Y-123920000D01*
X133500000Y-123920000D02*
X136210000Y-123920000D01*
X108500000Y-119220000D02*
X133500000Y-119220000D01*
X108500000Y-121180000D02*
X133500000Y-121180000D01*
X105790000Y-120560000D02*
X108500000Y-120560000D01*
X108500000Y-120560000D02*
X108500000Y-119220000D01*
X108500000Y-121180000D02*
X108500000Y-123920000D01*
X136210000Y-123920000D02*
X136210000Y-120560000D01*
X133500000Y-121180000D02*
X133500000Y-123920000D01*
%TO.C,L2*%
X143900000Y-31800000D02*
X143900000Y-33500000D01*
X137300000Y-31800000D02*
X143900000Y-31800000D01*
X143900000Y-38200000D02*
X137300000Y-38200000D01*
X137300000Y-33500000D02*
X137300000Y-31800000D01*
X143900000Y-36500000D02*
X143900000Y-38200000D01*
X137300000Y-38200000D02*
X137300000Y-36500000D01*
%TO.C,C14*%
X86635000Y-78598752D02*
X86635000Y-78076248D01*
X85165000Y-78598752D02*
X85165000Y-78076248D01*
%TO.C,C51*%
X79738748Y-45735000D02*
X80261252Y-45735000D01*
X79738748Y-44265000D02*
X80261252Y-44265000D01*
%TO.C,U6*%
X99270000Y-30350000D02*
X99270000Y-30620000D01*
X99270000Y-30620000D02*
X100370000Y-30620000D01*
X97770000Y-37250000D02*
X99270000Y-37250000D01*
X99270000Y-37250000D02*
X99270000Y-36980000D01*
X99270000Y-36980000D02*
X102100000Y-36980000D01*
X97770000Y-30350000D02*
X99270000Y-30350000D01*
%TO.C,C39*%
X120860000Y-42204437D02*
X120860000Y-45190000D01*
X120860000Y-50595563D02*
X120860000Y-47610000D01*
X119795563Y-41140000D02*
X110340000Y-41140000D01*
X110340000Y-41140000D02*
X110340000Y-45190000D01*
X120860000Y-42204437D02*
X119795563Y-41140000D01*
X120860000Y-50595563D02*
X119795563Y-51660000D01*
X121725000Y-49485000D02*
X121725000Y-48235000D01*
X119795563Y-51660000D02*
X110340000Y-51660000D01*
X110340000Y-51660000D02*
X110340000Y-47610000D01*
X122350000Y-48860000D02*
X121100000Y-48860000D01*
%TO.C,R8*%
X131372936Y-84265000D02*
X131827064Y-84265000D01*
X131372936Y-85735000D02*
X131827064Y-85735000D01*
%TO.C,R41*%
X124335000Y-37027064D02*
X124335000Y-36572936D01*
X122865000Y-37027064D02*
X122865000Y-36572936D01*
%TO.C,J3*%
X89745000Y-106745000D02*
X102505000Y-106745000D01*
X102505000Y-109405000D02*
X102505000Y-106745000D01*
X87145000Y-106745000D02*
X88475000Y-106745000D01*
X89745000Y-109405000D02*
X102505000Y-109405000D01*
X89745000Y-109405000D02*
X89745000Y-106745000D01*
X87145000Y-108075000D02*
X87145000Y-106745000D01*
%TO.C,U5*%
X110790000Y-32490000D02*
X112050000Y-32490000D01*
X110790000Y-38500000D02*
X110790000Y-32490000D01*
X117610000Y-36250000D02*
X117610000Y-32490000D01*
X117610000Y-32490000D02*
X116350000Y-32490000D01*
%TO.C,R31*%
X76172936Y-122165000D02*
X76627064Y-122165000D01*
X76172936Y-123635000D02*
X76627064Y-123635000D01*
%TO.C,U7*%
X133000000Y-33610000D02*
X131500000Y-33610000D01*
X133000000Y-30390000D02*
X130075000Y-30390000D01*
X133000000Y-30390000D02*
X134500000Y-30390000D01*
X133000000Y-33610000D02*
X134500000Y-33610000D01*
%TO.C,C41*%
X121265000Y-83501248D02*
X121265000Y-84023752D01*
X122735000Y-83501248D02*
X122735000Y-84023752D01*
%TO.C,L1*%
X97850000Y-120500000D02*
X100350000Y-120500000D01*
X100350000Y-112100000D02*
X97850000Y-112100000D01*
%TO.C,R7*%
X122727064Y-72865000D02*
X122272936Y-72865000D01*
X122727064Y-74335000D02*
X122272936Y-74335000D01*
%TO.C,C22*%
X126236263Y-50105028D02*
X125713759Y-50105028D01*
X126236263Y-51575028D02*
X125713759Y-51575028D01*
%TO.C,U8*%
X89880000Y-111060000D02*
X89880000Y-112240000D01*
X85490000Y-114960000D02*
X85490000Y-112240000D01*
X85820000Y-114960000D02*
X85490000Y-114960000D01*
X90210000Y-112240000D02*
X90210000Y-114960000D01*
X85490000Y-112240000D02*
X85820000Y-112240000D01*
X90210000Y-112240000D02*
X89880000Y-112240000D01*
X90210000Y-114960000D02*
X89880000Y-114960000D01*
%TO.C,R14*%
X117070011Y-57612964D02*
X117070011Y-58067092D01*
X118540011Y-57612964D02*
X118540011Y-58067092D01*
%TO.C,C44*%
X104904437Y-31040000D02*
X105540000Y-31040000D01*
X103840000Y-32104437D02*
X103840000Y-36560000D01*
X109360000Y-32104437D02*
X109360000Y-36560000D01*
X108597500Y-30487500D02*
X107972500Y-30487500D01*
X108295563Y-31040000D02*
X107660000Y-31040000D01*
X109360000Y-36560000D02*
X107660000Y-36560000D01*
X103840000Y-36560000D02*
X105540000Y-36560000D01*
X108285000Y-30175000D02*
X108285000Y-30800000D01*
X104904437Y-31040000D02*
X103840000Y-32104437D01*
X108295563Y-31040000D02*
X109360000Y-32104437D01*
%TO.C,R43*%
X87972936Y-39065000D02*
X88427064Y-39065000D01*
X87972936Y-40535000D02*
X88427064Y-40535000D01*
%TO.C,C29*%
X145765000Y-37261252D02*
X145765000Y-36738748D01*
X147235000Y-37261252D02*
X147235000Y-36738748D01*
%TO.C,R29*%
X76872936Y-94435000D02*
X77327064Y-94435000D01*
X76872936Y-92965000D02*
X77327064Y-92965000D01*
%TO.C,J1*%
X165810000Y-38920000D02*
X158190000Y-38920000D01*
X158190000Y-49080000D02*
X165810000Y-49080000D01*
X158190000Y-38920000D02*
X158190000Y-49080000D01*
X164540000Y-38920000D02*
X164540000Y-49080000D01*
X165810000Y-49080000D02*
X165810000Y-38920000D01*
%TO.C,R17*%
X136977947Y-52605028D02*
X137432075Y-52605028D01*
X136977947Y-54075028D02*
X137432075Y-54075028D01*
%TO.C,J2*%
X69330000Y-66570000D02*
X71930000Y-66570000D01*
X66730000Y-114890000D02*
X71930000Y-114890000D01*
X66730000Y-63970000D02*
X66730000Y-114890000D01*
X70600000Y-63970000D02*
X71930000Y-63970000D01*
X69330000Y-63970000D02*
X69330000Y-66570000D01*
X71930000Y-63970000D02*
X71930000Y-65300000D01*
X71930000Y-66570000D02*
X71930000Y-114890000D01*
X66730000Y-63970000D02*
X69330000Y-63970000D01*
%TD*%
M02*
