%TF.GenerationSoftware,KiCad,Pcbnew,(5.99.0-9544-g366189b864)*%
%TF.CreationDate,2021-03-13T10:42:39+01:00*%
%TF.ProjectId,Controller,436f6e74-726f-46c6-9c65-722e6b696361,rev?*%
%TF.SameCoordinates,Original*%
%TF.FileFunction,Copper,L4,Bot*%
%TF.FilePolarity,Positive*%
%FSLAX46Y46*%
G04 Gerber Fmt 4.6, Leading zero omitted, Abs format (unit mm)*
G04 Created by KiCad (PCBNEW (5.99.0-9544-g366189b864)) date 2021-03-13 10:42:39*
%MOMM*%
%LPD*%
G01*
G04 APERTURE LIST*
%TA.AperFunction,ComponentPad*%
%ADD10R,1.700000X1.700000*%
%TD*%
%TA.AperFunction,ComponentPad*%
%ADD11O,1.700000X1.700000*%
%TD*%
%TA.AperFunction,ComponentPad*%
%ADD12R,1.300000X1.300000*%
%TD*%
%TA.AperFunction,ComponentPad*%
%ADD13C,1.300000*%
%TD*%
%TA.AperFunction,ComponentPad*%
%ADD14O,2.900000X1.900000*%
%TD*%
%TA.AperFunction,ComponentPad*%
%ADD15O,1.900000X2.900000*%
%TD*%
%TA.AperFunction,ComponentPad*%
%ADD16C,0.800000*%
%TD*%
%TA.AperFunction,ComponentPad*%
%ADD17C,6.400000*%
%TD*%
%TA.AperFunction,ComponentPad*%
%ADD18C,2.600000*%
%TD*%
%TA.AperFunction,ComponentPad*%
%ADD19C,1.890000*%
%TD*%
%TA.AperFunction,ComponentPad*%
%ADD20R,1.900000X1.900000*%
%TD*%
%TA.AperFunction,ComponentPad*%
%ADD21C,1.900000*%
%TD*%
%TA.AperFunction,ComponentPad*%
%ADD22O,1.700000X0.900000*%
%TD*%
%TA.AperFunction,ComponentPad*%
%ADD23O,2.000000X0.900000*%
%TD*%
%TA.AperFunction,ComponentPad*%
%ADD24R,3.000000X3.000000*%
%TD*%
%TA.AperFunction,ComponentPad*%
%ADD25C,3.000000*%
%TD*%
%TA.AperFunction,ViaPad*%
%ADD26C,0.800000*%
%TD*%
%TA.AperFunction,ViaPad*%
%ADD27C,1.600000*%
%TD*%
%TA.AperFunction,ViaPad*%
%ADD28C,1.800000*%
%TD*%
%TA.AperFunction,ViaPad*%
%ADD29C,1.200000*%
%TD*%
%TA.AperFunction,Conductor*%
%ADD30C,0.200000*%
%TD*%
%TA.AperFunction,Conductor*%
%ADD31C,0.300000*%
%TD*%
%TA.AperFunction,Conductor*%
%ADD32C,1.000000*%
%TD*%
%TA.AperFunction,Conductor*%
%ADD33C,0.500000*%
%TD*%
G04 APERTURE END LIST*
D10*
%TO.P,J4,1,Pin_1*%
%TO.N,GND*%
X67900000Y-49440000D03*
D11*
%TO.P,J4,2,Pin_2*%
%TO.N,Encoder_B*%
X67900000Y-51980000D03*
%TO.P,J4,3,Pin_3*%
%TO.N,+5V*%
X67900000Y-54520000D03*
%TO.P,J4,4,Pin_4*%
%TO.N,Encoder_A*%
X67900000Y-57060000D03*
%TO.P,J4,5,Pin_5*%
%TO.N,GND*%
X67900000Y-59600000D03*
%TD*%
D12*
%TO.P,J5,1,VBUS*%
%TO.N,+5V*%
X153785000Y-84900000D03*
D13*
%TO.P,J5,2,D-*%
%TO.N,USB_OTG_D-*%
X153785000Y-82400000D03*
%TO.P,J5,3,D+*%
%TO.N,USB_OTG_D+*%
X153785000Y-80400000D03*
%TO.P,J5,4,GND*%
%TO.N,GND*%
X153785000Y-77900000D03*
D14*
%TO.P,J5,5,Shield*%
X153185000Y-87970000D03*
D15*
X149005000Y-81400000D03*
D14*
X153185000Y-74830000D03*
%TD*%
D16*
%TO.P,REF\u002A\u002A,1*%
%TO.N,N/C*%
X69100000Y-34500000D03*
D17*
X71500000Y-34500000D03*
D16*
X73197056Y-36197056D03*
X73900000Y-34500000D03*
X69802944Y-36197056D03*
X73197056Y-32802944D03*
X69802944Y-32802944D03*
X71500000Y-32100000D03*
X71500000Y-36900000D03*
%TD*%
%TO.P,REF\u002A\u002A,1*%
%TO.N,N/C*%
X159100000Y-119500000D03*
D17*
X161500000Y-119500000D03*
D16*
X163197056Y-121197056D03*
X163900000Y-119500000D03*
X159802944Y-121197056D03*
X163197056Y-117802944D03*
X159802944Y-117802944D03*
X161500000Y-117100000D03*
X161500000Y-121900000D03*
%TD*%
D18*
%TO.P,J7,13,SHIELD*%
%TO.N,GND*%
X155760011Y-68210028D03*
X155760011Y-52710028D03*
D19*
%TO.P,J7,L1,LEDY_A*%
%TO.N,Net-(J7-PadL1)*%
X163710011Y-53835028D03*
%TO.P,J7,L2,LEDY_K*%
%TO.N,Net-(J7-PadL2)*%
X163710011Y-56375028D03*
%TO.P,J7,L3,LEDG_K*%
%TO.N,Net-(J7-PadL3)*%
X163710011Y-64532528D03*
%TO.P,J7,L4,LEDG_A*%
%TO.N,Net-(J7-PadL4)*%
X163710011Y-67072528D03*
D20*
%TO.P,J7,R1,TD+*%
%TO.N,/TX+*%
X152450011Y-64910028D03*
D21*
%TO.P,J7,R2,TD-*%
%TO.N,/TX-*%
X149910011Y-63640028D03*
%TO.P,J7,R3,RD+*%
%TO.N,/RX+*%
X152450011Y-62370028D03*
%TO.P,J7,R4,TCT*%
%TO.N,LCD_VDD*%
X149910011Y-61100028D03*
%TO.P,J7,R5,RCT*%
X152450011Y-59830028D03*
%TO.P,J7,R6,RD-*%
%TO.N,/RX-*%
X149910011Y-58560028D03*
%TO.P,J7,R7,NC*%
%TO.N,N/C*%
X152450011Y-57290028D03*
%TO.P,J7,R8,GND*%
%TO.N,GND*%
X149910011Y-56020028D03*
%TD*%
D22*
%TO.P,J6,S1,SHIELD*%
%TO.N,GND*%
X165565000Y-77880000D03*
D23*
X161395000Y-86520000D03*
D22*
X165565000Y-86520000D03*
D23*
X161395000Y-77880000D03*
%TD*%
D16*
%TO.P,REF\u002A\u002A,1*%
%TO.N,N/C*%
X159100000Y-34500000D03*
X163197056Y-32802944D03*
X161500000Y-32100000D03*
X159802944Y-32802944D03*
X159802944Y-36197056D03*
X163197056Y-36197056D03*
X163900000Y-34500000D03*
X161500000Y-36900000D03*
D17*
X161500000Y-34500000D03*
%TD*%
D10*
%TO.P,J3,1,Pin_1*%
%TO.N,LCD_VDD*%
X88475000Y-108075000D03*
D11*
%TO.P,J3,2,Pin_2*%
%TO.N,SWD*%
X91015000Y-108075000D03*
%TO.P,J3,3,Pin_3*%
%TO.N,SWCLK*%
X93555000Y-108075000D03*
%TO.P,J3,4,Pin_4*%
%TO.N,GND*%
X96095000Y-108075000D03*
%TO.P,J3,5,Pin_5*%
%TO.N,UART_TX1*%
X98635000Y-108075000D03*
%TO.P,J3,6,Pin_6*%
%TO.N,UART_RX1*%
X101175000Y-108075000D03*
%TD*%
D24*
%TO.P,J1,1,Pin_1*%
%TO.N,Vin*%
X162000000Y-46540000D03*
D25*
%TO.P,J1,2,Pin_2*%
%TO.N,GND*%
X162000000Y-41460000D03*
%TD*%
D16*
%TO.P,R,1*%
%TO.N,N/C*%
X69100000Y-119500000D03*
D17*
X71500000Y-119500000D03*
D16*
X73197056Y-121197056D03*
X73900000Y-119500000D03*
X69802944Y-121197056D03*
X73197056Y-117802944D03*
X69802944Y-117802944D03*
X71500000Y-117100000D03*
X71500000Y-121900000D03*
%TD*%
D10*
%TO.P,J2,1,Pin_1*%
%TO.N,I2C2_SDA*%
X70600000Y-65300000D03*
D11*
%TO.P,J2,2,Pin_2*%
%TO.N,SPI1_MSIO*%
X68060000Y-65300000D03*
%TO.P,J2,3,Pin_3*%
%TO.N,I2C2_SCL*%
X70600000Y-67840000D03*
%TO.P,J2,4,Pin_4*%
%TO.N,SPI1_MOSI*%
X68060000Y-67840000D03*
%TO.P,J2,5,Pin_5*%
%TO.N,ADDR_LED4*%
X70600000Y-70380000D03*
%TO.P,J2,6,Pin_6*%
%TO.N,SPI1_SCK*%
X68060000Y-70380000D03*
%TO.P,J2,7,Pin_7*%
%TO.N,ADDR_LED3*%
X70600000Y-72920000D03*
%TO.P,J2,8,Pin_8*%
%TO.N,SPI2_MSIO*%
X68060000Y-72920000D03*
%TO.P,J2,9,Pin_9*%
%TO.N,ADDR_LED2*%
X70600000Y-75460000D03*
%TO.P,J2,10,Pin_10*%
%TO.N,SPI2_MOSI*%
X68060000Y-75460000D03*
%TO.P,J2,11,Pin_11*%
%TO.N,ADDR_LED1*%
X70600000Y-78000000D03*
%TO.P,J2,12,Pin_12*%
%TO.N,SPI2_SCK*%
X68060000Y-78000000D03*
%TO.P,J2,13,Pin_13*%
%TO.N,UART_TX1*%
X70600000Y-80540000D03*
%TO.P,J2,14,Pin_14*%
%TO.N,UART_TX2*%
X68060000Y-80540000D03*
%TO.P,J2,15,Pin_15*%
%TO.N,UART_RX1*%
X70600000Y-83080000D03*
%TO.P,J2,16,Pin_16*%
%TO.N,UART_RX2*%
X68060000Y-83080000D03*
%TO.P,J2,17,Pin_17*%
%TO.N,I2C1_SCL*%
X70600000Y-85620000D03*
%TO.P,J2,18,Pin_18*%
%TO.N,I2C1_SDA*%
X68060000Y-85620000D03*
%TO.P,J2,19,Pin_19*%
%TO.N,GND*%
X70600000Y-88160000D03*
%TO.P,J2,20,Pin_20*%
%TO.N,LCD_VDD*%
X68060000Y-88160000D03*
%TO.P,J2,21,Pin_21*%
%TO.N,Galv_Interrupt*%
X70600000Y-90700000D03*
%TO.P,J2,22,Pin_22*%
%TO.N,Galv_Enable*%
X68060000Y-90700000D03*
%TO.P,J2,23,Pin_23*%
%TO.N,N/C*%
X70600000Y-93240000D03*
%TO.P,J2,24,Pin_24*%
X68060000Y-93240000D03*
%TO.P,J2,25,Pin_25*%
%TO.N,Virt-Bus2*%
X70600000Y-95780000D03*
%TO.P,J2,26,Pin_26*%
X68060000Y-95780000D03*
%TO.P,J2,27,Pin_27*%
X70600000Y-98320000D03*
%TO.P,J2,28,Pin_28*%
X68060000Y-98320000D03*
%TO.P,J2,29,Pin_29*%
X70600000Y-100860000D03*
%TO.P,J2,30,Pin_30*%
X68060000Y-100860000D03*
%TO.P,J2,31,Pin_31*%
X70600000Y-103400000D03*
%TO.P,J2,32,Pin_32*%
X68060000Y-103400000D03*
%TO.P,J2,33,Pin_33*%
%TO.N,Virt-Bus1*%
X70600000Y-105940000D03*
%TO.P,J2,34,Pin_34*%
X68060000Y-105940000D03*
%TO.P,J2,35,Pin_35*%
X70600000Y-108480000D03*
%TO.P,J2,36,Pin_36*%
X68060000Y-108480000D03*
%TO.P,J2,37,Pin_37*%
X70600000Y-111020000D03*
%TO.P,J2,38,Pin_38*%
X68060000Y-111020000D03*
%TO.P,J2,39,Pin_39*%
X70600000Y-113560000D03*
%TO.P,J2,40,Pin_40*%
X68060000Y-113560000D03*
%TD*%
D26*
%TO.N,GND*%
X110600000Y-56000000D03*
D27*
X108800000Y-37800000D03*
X98200000Y-43200000D03*
D26*
X141200000Y-105000000D03*
X139115046Y-53640029D03*
X124500000Y-80100000D03*
D27*
X83700000Y-108200000D03*
D26*
X130400000Y-34200000D03*
X128137500Y-89362500D03*
X132500000Y-118400000D03*
X139505011Y-50640028D03*
X100900000Y-93600000D03*
X94695398Y-64898014D03*
X110600000Y-121600000D03*
X116067905Y-72197020D03*
X148400000Y-113400000D03*
X116400000Y-97000000D03*
X87200000Y-43400000D03*
X106750000Y-94950000D03*
X126300000Y-122049991D03*
X116600022Y-64500000D03*
X93900000Y-76300000D03*
D27*
X146200000Y-33800000D03*
D26*
X127005011Y-62440028D03*
X138005011Y-55840028D03*
X93700000Y-69200000D03*
X127000000Y-35600000D03*
X127500000Y-122000000D03*
X91800000Y-62700000D03*
X119400000Y-80100000D03*
X156800000Y-110000000D03*
X82600000Y-122300000D03*
X89800000Y-77500000D03*
X119500000Y-85100000D03*
D27*
X111800000Y-39800000D03*
D26*
X93100000Y-94000000D03*
X123605011Y-56740028D03*
D28*
X131605011Y-59940028D03*
D27*
X150600000Y-37600000D03*
D26*
X144600000Y-76600000D03*
D27*
X84900000Y-113500000D03*
D29*
X87900000Y-117000000D03*
D26*
X135500000Y-113500000D03*
D27*
X111600000Y-44300010D03*
D29*
X84700000Y-120300000D03*
D26*
X137105011Y-64340028D03*
D27*
X124200000Y-44600000D03*
D26*
X95000010Y-94772177D03*
X144800000Y-72800000D03*
X90400000Y-80099990D03*
X153900000Y-109900000D03*
X94200010Y-88830764D03*
X83200000Y-93900000D03*
X90500000Y-85900000D03*
X102750000Y-64150000D03*
X108100000Y-64900000D03*
X124800000Y-35600000D03*
D27*
X82600000Y-45000000D03*
D26*
X123754951Y-30700010D03*
X120200000Y-31000000D03*
X99200000Y-102200000D03*
X138000000Y-110000000D03*
X147500000Y-117100000D03*
X156700000Y-104800000D03*
%TO.N,Vcap1*%
X97950010Y-65094982D03*
X93404235Y-63886806D03*
%TO.N,LCD_VDD*%
X101225000Y-63825000D03*
X135205011Y-61540028D03*
X86400000Y-74200000D03*
X92200000Y-91500000D03*
X128000000Y-67600000D03*
D27*
X114200000Y-39800000D03*
D26*
X111400000Y-117600000D03*
X124200000Y-82600000D03*
X88900000Y-79950010D03*
X84000000Y-84500000D03*
X119500000Y-78400000D03*
X148005011Y-56040028D03*
X146000000Y-108500000D03*
X87200000Y-91200000D03*
X123792056Y-95002092D03*
X97100000Y-63500000D03*
X128505011Y-56940028D03*
X107250000Y-63550000D03*
X144600000Y-100200000D03*
X108100000Y-94600000D03*
X120805011Y-54540028D03*
D27*
X73500000Y-86000000D03*
D26*
X113750000Y-64950000D03*
X114600000Y-53800000D03*
X85100000Y-88400000D03*
X129200000Y-70000000D03*
X126905011Y-63440028D03*
X101450000Y-95050000D03*
X112000000Y-94600000D03*
X87300000Y-71500000D03*
X148205011Y-64840028D03*
X127674673Y-60009690D03*
X86500000Y-105500000D03*
X134105011Y-57340028D03*
%TO.N,USER_BTN*%
X77800000Y-75300000D03*
X75638933Y-90241030D03*
X90700000Y-77000000D03*
X82100000Y-75300000D03*
%TO.N,Net-(C30-Pad1)*%
X129200000Y-31800000D03*
X127600000Y-32200000D03*
D27*
%TO.N,18V*%
X104800000Y-35420020D03*
D26*
X128700000Y-121900000D03*
D27*
X119000000Y-39600000D03*
X137600000Y-40800000D03*
X89400000Y-33200000D03*
X78500000Y-119900000D03*
X94900000Y-121500000D03*
X150600000Y-116800000D03*
D26*
%TO.N,+5V*%
X143600000Y-93800000D03*
X90600000Y-30800000D03*
X146400000Y-91200000D03*
D27*
X99000000Y-33800000D03*
X161800000Y-88200000D03*
D26*
%TO.N,-6V*%
X138500000Y-114800000D03*
X133000000Y-115900000D03*
X137800000Y-116500000D03*
X129500000Y-116400000D03*
%TO.N,RESET*%
X131600000Y-73400000D03*
X127600000Y-75600000D03*
X130927957Y-66117921D03*
%TO.N,Galv_Interrupt*%
X76000000Y-77500000D03*
X90600000Y-78200000D03*
X82500000Y-77700000D03*
%TO.N,Galv_Enable*%
X74500000Y-87000000D03*
X73700000Y-78200001D03*
%TO.N,SPI2_SCK*%
X76000000Y-88500000D03*
X97300000Y-104000000D03*
X87741752Y-104268284D03*
X75600020Y-79117747D03*
%TO.N,SPI1_SCK*%
X112712736Y-62707718D03*
X85412401Y-66500086D03*
X86300000Y-69900000D03*
X108400000Y-58300000D03*
%TO.N,SPI2_MOSI*%
X115200000Y-73400000D03*
X83678629Y-73764658D03*
%TO.N,SPI1_MOSI*%
X78300000Y-69400000D03*
X86800000Y-89300000D03*
X108700000Y-88700000D03*
X77938933Y-86548135D03*
%TO.N,SPI2_MSIO*%
X83100000Y-74600000D03*
X116200000Y-73997041D03*
%TO.N,SPI1_MSIO*%
X77900000Y-67000000D03*
X77187929Y-87216066D03*
X87763944Y-89646092D03*
X107276421Y-89879997D03*
%TO.N,ADDR_LED1*%
X75000334Y-77310021D03*
X102300000Y-59700010D03*
X75100000Y-65400000D03*
X97000000Y-59600000D03*
X97600000Y-55000000D03*
X103450010Y-65350270D03*
%TO.N,USB_OTG_D-*%
X133800000Y-84800000D03*
%TO.N,ADDR_LED2*%
X76200010Y-75600000D03*
X101300000Y-65400000D03*
X101800000Y-55400000D03*
X76200000Y-66100000D03*
%TO.N,USB_OTG_D+*%
X133800000Y-83400000D03*
%TO.N,ADDR_LED3*%
X100300000Y-65300000D03*
X82200000Y-73200000D03*
X100494802Y-56357360D03*
X82400000Y-65500000D03*
%TO.N,I2C3_SCL*%
X125000000Y-65400000D03*
X110200000Y-58500000D03*
X114700000Y-64500000D03*
X136400000Y-83200000D03*
%TO.N,ADDR_LED4*%
X86200000Y-68800000D03*
X99600000Y-63700000D03*
X98413213Y-58400000D03*
X86400000Y-67000000D03*
%TO.N,I2C3_SDA*%
X150600000Y-104200000D03*
X152400000Y-104500000D03*
X129600000Y-80600000D03*
X93600000Y-83200000D03*
%TO.N,I2C2_SCL*%
X116325000Y-81317081D03*
X81300000Y-69000000D03*
X85000000Y-81000000D03*
%TO.N,I2C2_SDA*%
X115800000Y-82200000D03*
X81120795Y-67926280D03*
X84042368Y-81688406D03*
%TO.N,I2C1_SCL*%
X109950010Y-89890766D03*
X84999999Y-86499999D03*
%TO.N,I2C1_SDA*%
X84653782Y-87463817D03*
X108600000Y-87200000D03*
%TO.N,UART_RX2*%
X79700000Y-84300000D03*
X81500000Y-65000000D03*
X110200000Y-57500000D03*
X115163835Y-65475103D03*
%TO.N,UART_RX1*%
X101700000Y-100100000D03*
X91700000Y-99800000D03*
X108479420Y-106120580D03*
X82000000Y-82800000D03*
X83147396Y-89268760D03*
X115200000Y-99200000D03*
%TO.N,UART_TX2*%
X100702773Y-85810163D03*
X85000000Y-85000000D03*
%TO.N,UART_TX1*%
X99055018Y-93755018D03*
X98000000Y-90700000D03*
%TO.N,SWD*%
X97149970Y-93789474D03*
X97000000Y-90700000D03*
%TO.N,Encoder_A*%
X95300000Y-79799979D03*
X71400000Y-60000000D03*
X90400000Y-66900000D03*
X98300000Y-79799979D03*
%TO.N,Encoder_B*%
X79000000Y-60600000D03*
X89400000Y-66900000D03*
%TO.N,Net-(J7-PadL3)*%
X158305011Y-62840028D03*
%TO.N,Net-(J7-PadL2)*%
X157605011Y-61140028D03*
%TO.N,LCD_CT_RESET*%
X129600000Y-79600000D03*
X125000000Y-82000000D03*
%TO.N,LCD_DITHB*%
X127000000Y-80400000D03*
X127000000Y-82000000D03*
D27*
%TO.N,2.9V*%
X82800000Y-116100000D03*
D26*
X131200000Y-122200000D03*
X112000000Y-122000000D03*
%TO.N,9.6V*%
X75600000Y-40800000D03*
X129800000Y-122000000D03*
%TO.N,LCD_SHLR*%
X126000000Y-82400000D03*
X125800000Y-80000000D03*
%TO.N,LCD_PCLK*%
X114400000Y-98500000D03*
X102704889Y-83912897D03*
X102700000Y-80099990D03*
X93675010Y-80099990D03*
%TO.N,LCD_R0*%
X113200000Y-85400000D03*
X126400000Y-116800000D03*
%TO.N,LCD_R1*%
X112400000Y-84600000D03*
X126200000Y-115600000D03*
%TO.N,LCD_R2*%
X113400000Y-98200000D03*
X103102428Y-84887887D03*
%TO.N,LCD_R3*%
X110500000Y-72400000D03*
X108300000Y-72499990D03*
X112400000Y-98300000D03*
X107924844Y-84893291D03*
%TO.N,LCD_R4*%
X102100000Y-84900000D03*
X111500000Y-97800000D03*
%TO.N,LCD_R5*%
X128800000Y-76400000D03*
X124400000Y-95800000D03*
X123226380Y-107873620D03*
X123544547Y-115568605D03*
%TO.N,LCD_R6*%
X109700000Y-71799990D03*
X110500000Y-98100000D03*
X106050021Y-73900000D03*
X106500010Y-88903200D03*
%TO.N,LCD_R7*%
X102200000Y-88200000D03*
X109500000Y-98400000D03*
%TO.N,LCD_G0*%
X121999990Y-114500000D03*
X120800000Y-104500000D03*
%TO.N,LCD_G1*%
X121900000Y-105400000D03*
X121500000Y-113600000D03*
%TO.N,LCD_G2*%
X106000000Y-72900000D03*
X106246410Y-96153590D03*
X105500010Y-90561964D03*
X112500000Y-71700032D03*
%TO.N,LCD_G3*%
X103000000Y-99300000D03*
X91500000Y-98800000D03*
X114699970Y-112572101D03*
X120500000Y-112500000D03*
%TO.N,LCD_G4*%
X120000000Y-111600000D03*
X115000000Y-111600000D03*
X101600000Y-98499990D03*
X91534703Y-97755261D03*
%TO.N,LCD_G5*%
X115000000Y-110600000D03*
X92900010Y-97600000D03*
X119500000Y-110700000D03*
X102920464Y-97757150D03*
%TO.N,LCD_G6*%
X115000000Y-109600000D03*
X119000000Y-109800000D03*
X102300000Y-96900000D03*
X93084821Y-96605003D03*
%TO.N,LCD_G7*%
X101300000Y-96500000D03*
X94114729Y-96404693D03*
X115000000Y-108600000D03*
X118571393Y-108827058D03*
%TO.N,LCD_B0*%
X117850020Y-108126795D03*
X120176830Y-100511844D03*
%TO.N,LCD_B3*%
X103999990Y-89300021D03*
X104078846Y-71993956D03*
X104100000Y-95700000D03*
X95100000Y-73900000D03*
%TO.N,LCD_B4*%
X103500000Y-90200000D03*
X103000000Y-95600000D03*
%TO.N,LCD_B5*%
X117600000Y-99500000D03*
X111000000Y-109200000D03*
%TO.N,LCD_B6*%
X116400000Y-99100000D03*
X110000000Y-109200000D03*
%TO.N,LCD_B7*%
X117811497Y-100506423D03*
X111610354Y-113466018D03*
%TO.N,LCD_HSYNC*%
X118000043Y-101499980D03*
X111700000Y-114600000D03*
%TO.N,LCD_VSYNC*%
X119000000Y-101600000D03*
X111900000Y-115600000D03*
%TO.N,LDC_MODE*%
X119100000Y-102600000D03*
X112444982Y-116455018D03*
X114100000Y-83800011D03*
X115000010Y-86183556D03*
%TO.N,LCD_DEN*%
X104037214Y-100460239D03*
X102400000Y-89500000D03*
X116200000Y-76800000D03*
X103400032Y-76500000D03*
%TO.N,Net-(Q1-Pad4)*%
X136000000Y-41200000D03*
X137000000Y-32600000D03*
%TO.N,Net-(R8-Pad1)*%
X94900000Y-85000000D03*
X129200000Y-84800000D03*
%TO.N,Net-(R9-Pad1)*%
X94100000Y-85700000D03*
X129400000Y-83000000D03*
%TO.N,25Mhz*%
X115230011Y-56115028D03*
X115600000Y-69600000D03*
%TO.N,RMII_TXD+*%
X130099990Y-72800000D03*
X94700000Y-71501600D03*
%TO.N,RMII_TXD-*%
X94700000Y-70498400D03*
X130000000Y-71800000D03*
%TO.N,RMII_RXER*%
X96100000Y-69800020D03*
X116500000Y-60300000D03*
%TO.N,Net-(R41-Pad1)*%
X127600000Y-33400000D03*
X129200000Y-32800000D03*
%TO.N,RMII_TXEN*%
X130000000Y-70800000D03*
X106000000Y-69350010D03*
%TO.N,RMII_MDC*%
X129405011Y-66200000D03*
X119430393Y-74049990D03*
%TO.N,Net-(J7-PadL1)*%
X152205011Y-54940028D03*
X138505011Y-54840028D03*
X157505011Y-59840028D03*
%TO.N,Net-(J7-PadL4)*%
X153069009Y-54340028D03*
X140237287Y-54289436D03*
%TD*%
D30*
%TO.N,Vcap1*%
X93404235Y-63886806D02*
X96450804Y-63886806D01*
X96450804Y-63886806D02*
X97658980Y-65094982D01*
X97658980Y-65094982D02*
X97950010Y-65094982D01*
%TO.N,LCD_VDD*%
X128505011Y-59179352D02*
X127674673Y-60009690D01*
D31*
X68060000Y-88160000D02*
X69260011Y-86959989D01*
X69260011Y-86959989D02*
X72540011Y-86959989D01*
D30*
X128505011Y-56940028D02*
X128505011Y-59179352D01*
D31*
X72540011Y-86959989D02*
X73500000Y-86000000D01*
D30*
X86500000Y-105500000D02*
X88475000Y-107475000D01*
%TO.N,USER_BTN*%
X76400000Y-86531400D02*
X76400000Y-87863998D01*
X76700001Y-89179962D02*
X75638933Y-90241030D01*
X76700001Y-88163999D02*
X76700001Y-89179962D01*
X89600021Y-75900021D02*
X82700021Y-75900021D01*
X77800000Y-85131400D02*
X76400000Y-86531400D01*
X82700021Y-75900021D02*
X82100000Y-75300000D01*
X77800000Y-75300000D02*
X77800000Y-85131400D01*
X76400000Y-87863998D02*
X76700001Y-88163999D01*
X90700000Y-77000000D02*
X89600021Y-75900021D01*
D31*
%TO.N,Net-(C30-Pad1)*%
X128000000Y-31800000D02*
X129200000Y-31800000D01*
X127600000Y-32200000D02*
X128000000Y-31800000D01*
D32*
%TO.N,18V*%
X95300000Y-33200000D02*
X98300000Y-36200000D01*
X104020020Y-36200000D02*
X104800000Y-35420020D01*
X89400000Y-33200000D02*
X95300000Y-33200000D01*
X98300000Y-36200000D02*
X104020020Y-36200000D01*
D30*
%TO.N,+5V*%
X143800000Y-93800000D02*
X146400000Y-91200000D01*
X143600000Y-93800000D02*
X143800000Y-93800000D01*
%TO.N,-6V*%
X138500000Y-115800000D02*
X137800000Y-116500000D01*
D31*
X132750001Y-116149999D02*
X133000000Y-115900000D01*
X129500000Y-116400000D02*
X129750001Y-116149999D01*
D30*
X138500000Y-114800000D02*
X138500000Y-115800000D01*
D31*
X129750001Y-116149999D02*
X132750001Y-116149999D01*
D30*
%TO.N,RESET*%
X130927957Y-66014505D02*
X130927957Y-66117921D01*
X131600000Y-73400000D02*
X129400000Y-75600000D01*
X129400000Y-75600000D02*
X127600000Y-75600000D01*
X131600000Y-73400000D02*
X131600000Y-66789964D01*
X131014242Y-65928220D02*
X130927957Y-66014505D01*
X131600000Y-66789964D02*
X130927957Y-66117921D01*
%TO.N,Galv_Interrupt*%
X75431995Y-87568005D02*
X72300000Y-90700000D01*
X74900011Y-78599989D02*
X74900011Y-85206309D01*
X76000000Y-77500000D02*
X74900011Y-78599989D01*
X83000000Y-78200000D02*
X82500000Y-77700000D01*
X75431995Y-85738293D02*
X75431995Y-87568005D01*
X90600000Y-78200000D02*
X83000000Y-78200000D01*
X74900011Y-85206309D02*
X75431995Y-85738293D01*
X72300000Y-90700000D02*
X70600000Y-90700000D01*
%TO.N,Galv_Enable*%
X74500000Y-79000001D02*
X74500000Y-85371998D01*
X74600001Y-85471999D02*
X74600001Y-86899999D01*
X74500000Y-85371998D02*
X74600001Y-85471999D01*
X73700000Y-78200001D02*
X74500000Y-79000001D01*
X74600001Y-86899999D02*
X74500000Y-87000000D01*
%TO.N,SPI2_SCK*%
X76000000Y-79517727D02*
X75600020Y-79117747D01*
X76000000Y-88500000D02*
X76000000Y-79517727D01*
X88010036Y-104000000D02*
X87741752Y-104268284D01*
X97300000Y-104000000D02*
X88010036Y-104000000D01*
%TO.N,SPI1_SCK*%
X108400000Y-58300000D02*
X109000000Y-58300000D01*
X85412401Y-66500086D02*
X85100000Y-66812487D01*
X85100000Y-68700000D02*
X86300000Y-69900000D01*
X112712736Y-62012736D02*
X112712736Y-62707718D01*
X85100000Y-66812487D02*
X85100000Y-68700000D01*
X109000000Y-58300000D02*
X112712736Y-62012736D01*
%TO.N,SPI2_MOSI*%
X85013971Y-75100000D02*
X83678629Y-73764658D01*
X113500000Y-75100000D02*
X85013971Y-75100000D01*
X115200000Y-73400000D02*
X113500000Y-75100000D01*
%TO.N,SPI1_MOSI*%
X77938933Y-86548135D02*
X78799998Y-85687070D01*
X79100011Y-81363985D02*
X79100011Y-70200011D01*
X101834310Y-86799990D02*
X100734010Y-87900290D01*
X88199710Y-87900290D02*
X86800000Y-89300000D01*
X108700000Y-88300000D02*
X107199990Y-86799990D01*
X79100011Y-70200011D02*
X78300000Y-69400000D01*
X107199990Y-86799990D02*
X101834310Y-86799990D01*
X78799999Y-81663997D02*
X79100011Y-81363985D01*
X78799998Y-85687070D02*
X78799999Y-81663997D01*
X100734010Y-87900290D02*
X88199710Y-87900290D01*
X108700000Y-88700000D02*
X108700000Y-88300000D01*
%TO.N,SPI2_MSIO*%
X83100000Y-74600000D02*
X84000010Y-75500010D01*
X114697031Y-75500010D02*
X116200000Y-73997041D01*
X84000010Y-75500010D02*
X114697031Y-75500010D01*
%TO.N,SPI1_MSIO*%
X78399987Y-85097112D02*
X77187929Y-86309170D01*
X105832819Y-87200007D02*
X107276421Y-88643609D01*
X102199993Y-87200007D02*
X105832819Y-87200007D01*
X99753908Y-89646092D02*
X102199993Y-87200007D01*
X87763944Y-89646092D02*
X99753908Y-89646092D01*
X78700000Y-81198296D02*
X78399988Y-81498308D01*
X107276421Y-88643609D02*
X107276421Y-89879997D01*
X77600000Y-67300000D02*
X77600000Y-70798298D01*
X78700001Y-71898299D02*
X78700000Y-81198296D01*
X78399988Y-81498308D02*
X78399987Y-85097112D01*
X77600000Y-70798298D02*
X78700001Y-71898299D01*
X77900000Y-67000000D02*
X77600000Y-67300000D01*
X77187929Y-86309170D02*
X77187929Y-87216066D01*
%TO.N,ADDR_LED1*%
X103450010Y-60850020D02*
X102300000Y-59700010D01*
X97600000Y-55000000D02*
X97600000Y-59000000D01*
X97600000Y-59000000D02*
X97000000Y-59600000D01*
X103450010Y-65350270D02*
X103450010Y-60850020D01*
X75000334Y-65499666D02*
X75100000Y-65400000D01*
X75000334Y-77310021D02*
X75000334Y-65499666D01*
%TO.N,USB_OTG_D-*%
X151385000Y-84800000D02*
X153785000Y-82400000D01*
X133800000Y-84800000D02*
X151385000Y-84800000D01*
%TO.N,ADDR_LED2*%
X101925001Y-63488999D02*
X101399990Y-62963988D01*
X101399990Y-55800010D02*
X101800000Y-55400000D01*
X101399990Y-62963988D02*
X101399990Y-55800010D01*
X101925001Y-64774999D02*
X101925001Y-63488999D01*
X76200010Y-75600000D02*
X75900011Y-75300001D01*
X101300000Y-65400000D02*
X101925001Y-64774999D01*
X75900011Y-66399989D02*
X76200000Y-66100000D01*
X75900011Y-75300001D02*
X75900011Y-66399989D01*
%TO.N,USB_OTG_D+*%
X134600000Y-84200000D02*
X133800000Y-83400000D01*
X149400000Y-84200000D02*
X134600000Y-84200000D01*
X149985000Y-84200000D02*
X149400000Y-84200000D01*
X153785000Y-80400000D02*
X149985000Y-84200000D01*
%TO.N,ADDR_LED3*%
X82000000Y-73000000D02*
X82200000Y-73200000D01*
X100299968Y-63463966D02*
X100299968Y-58966930D01*
X82000000Y-65900000D02*
X82000000Y-73000000D01*
X100300000Y-63463998D02*
X100299968Y-63463966D01*
X100599968Y-56462526D02*
X100494802Y-56357360D01*
X100299968Y-58966930D02*
X100599968Y-58666930D01*
X100300000Y-65300000D02*
X100300000Y-63463998D01*
X100599968Y-58666930D02*
X100599968Y-56462526D01*
X82400000Y-65500000D02*
X82000000Y-65900000D01*
%TO.N,I2C3_SCL*%
X110200000Y-58500000D02*
X112300000Y-58500000D01*
X133200000Y-67400000D02*
X136400000Y-70600000D01*
X131200000Y-65400000D02*
X133200000Y-67400000D01*
X114618667Y-64418667D02*
X114700000Y-64500000D01*
X125000000Y-65400000D02*
X131200000Y-65400000D01*
X114618667Y-60818667D02*
X114618667Y-64418667D01*
X136400000Y-70600000D02*
X136400000Y-83200000D01*
X112300000Y-58500000D02*
X114618667Y-60818667D01*
%TO.N,ADDR_LED4*%
X86400000Y-67000000D02*
X86200000Y-67200000D01*
X99600000Y-59586787D02*
X98413213Y-58400000D01*
X86200000Y-67200000D02*
X86200000Y-68800000D01*
X99600000Y-63700000D02*
X99600000Y-59586787D01*
%TO.N,I2C3_SDA*%
X127600000Y-84000000D02*
X124599998Y-84000000D01*
X94500021Y-82299979D02*
X93600000Y-83200000D01*
X124599998Y-84000000D02*
X124400019Y-83800021D01*
X128400000Y-83200000D02*
X127600000Y-84000000D01*
X123499999Y-82900001D02*
X115463999Y-82900001D01*
X128400000Y-81800000D02*
X128400000Y-83200000D01*
X114863977Y-82299979D02*
X94500021Y-82299979D01*
X152100000Y-104200000D02*
X152400000Y-104500000D01*
X150600000Y-104200000D02*
X152100000Y-104200000D01*
X124599998Y-84000000D02*
X123499999Y-82900001D01*
X115463999Y-82900001D02*
X114863977Y-82299979D01*
X129600000Y-80600000D02*
X128400000Y-81800000D01*
%TO.N,I2C2_SCL*%
X85000000Y-81000000D02*
X84389964Y-81000000D01*
X116007919Y-81000000D02*
X116325000Y-81317081D01*
X84389964Y-81000000D02*
X81300000Y-77910036D01*
X81300000Y-77910036D02*
X81300000Y-69000000D01*
X116007919Y-81000000D02*
X85000000Y-81000000D01*
%TO.N,I2C2_SDA*%
X80499990Y-78146028D02*
X84042368Y-81688406D01*
X115400021Y-81800021D02*
X91699979Y-81800021D01*
X115800000Y-82200000D02*
X115400021Y-81800021D01*
X84042368Y-81688406D02*
X85353962Y-83000000D01*
X85353962Y-83000000D02*
X90500000Y-83000000D01*
X80499990Y-68547085D02*
X80499990Y-78146028D01*
X91699979Y-81800021D02*
X90500000Y-83000000D01*
X81120795Y-67926280D02*
X80499990Y-68547085D01*
%TO.N,I2C1_SCL*%
X109950010Y-87514008D02*
X108435970Y-85999968D01*
X85600269Y-87100269D02*
X84999999Y-86499999D01*
X100402631Y-87100269D02*
X85600269Y-87100269D01*
X109950010Y-89890766D02*
X109950010Y-87514008D01*
X108435970Y-85999968D02*
X101502932Y-85999968D01*
X101502932Y-85999968D02*
X100402631Y-87100269D01*
%TO.N,I2C1_SDA*%
X108600000Y-87200000D02*
X107799979Y-86399979D01*
X100568330Y-87500270D02*
X84690235Y-87500270D01*
X107799979Y-86399979D02*
X101668621Y-86399979D01*
X101668621Y-86399979D02*
X100568330Y-87500270D01*
X84690235Y-87500270D02*
X84653782Y-87463817D01*
%TO.N,UART_RX2*%
X112500000Y-57500000D02*
X115400001Y-60400001D01*
X79600000Y-84200000D02*
X79700000Y-84300000D01*
X115400001Y-65238937D02*
X115163835Y-65475103D01*
X115400001Y-60400001D02*
X115400001Y-65238937D01*
X110200000Y-57500000D02*
X112500000Y-57500000D01*
X79600000Y-66900000D02*
X79600000Y-84200000D01*
X81500000Y-65000000D02*
X79600000Y-66900000D01*
%TO.N,UART_RX1*%
X83147396Y-89268760D02*
X83228695Y-89187461D01*
X108479420Y-105720580D02*
X108479420Y-106120580D01*
X115200000Y-99200000D02*
X115000000Y-99200000D01*
X83228695Y-84028695D02*
X82000000Y-82800000D01*
X115000000Y-99200000D02*
X108479420Y-105720580D01*
X91700000Y-99800000D02*
X101400000Y-99800000D01*
X83228695Y-89187461D02*
X83228695Y-84028695D01*
X101400000Y-99800000D02*
X101700000Y-100100000D01*
%TO.N,UART_TX2*%
X99812673Y-86700263D02*
X86700263Y-86700263D01*
X86700263Y-86700263D02*
X85000000Y-85000000D01*
X100702773Y-85810163D02*
X99812673Y-86700263D01*
%TO.N,UART_TX1*%
X98000000Y-92700000D02*
X99055018Y-93755018D01*
X98000000Y-90700000D02*
X98000000Y-92700000D01*
%TO.N,SWD*%
X97000000Y-90700000D02*
X97149970Y-90849970D01*
X97149970Y-90849970D02*
X97149970Y-93789474D01*
%TO.N,Encoder_A*%
X90400000Y-66900000D02*
X83399999Y-59899999D01*
X71500001Y-59899999D02*
X71400000Y-60000000D01*
X83399999Y-59899999D02*
X71500001Y-59899999D01*
X95300000Y-79799979D02*
X98300000Y-79799979D01*
%TO.N,Encoder_B*%
X79177952Y-60777952D02*
X79000000Y-60600000D01*
X83277952Y-60777952D02*
X79177952Y-60777952D01*
X89400000Y-66900000D02*
X83277952Y-60777952D01*
%TO.N,Net-(J7-PadL3)*%
X159505011Y-61640028D02*
X160817511Y-61640028D01*
X163710011Y-64532528D02*
X160817511Y-61640028D01*
X159505011Y-61640028D02*
X158305011Y-62840028D01*
%TO.N,Net-(J7-PadL2)*%
X158945011Y-61140028D02*
X163710011Y-56375028D01*
X157605011Y-61140028D02*
X158945011Y-61140028D01*
%TO.N,LCD_CT_RESET*%
X125000000Y-83200000D02*
X125000000Y-82000000D01*
X128000000Y-83000000D02*
X127400000Y-83600000D01*
X129600000Y-79600000D02*
X128000000Y-81200000D01*
X125400000Y-83600000D02*
X125000000Y-83200000D01*
X128000000Y-81200000D02*
X128000000Y-82600000D01*
X127400000Y-83600000D02*
X125400000Y-83600000D01*
X128000000Y-82600000D02*
X128000000Y-83000000D01*
%TO.N,LCD_DITHB*%
X127000000Y-80400000D02*
X127000000Y-82000000D01*
%TO.N,2.9V*%
X112000000Y-122750001D02*
X112000000Y-122000000D01*
D33*
X82800000Y-116100000D02*
X89450001Y-122750001D01*
D30*
X130649999Y-122750001D02*
X112000000Y-122750001D01*
X131200000Y-122200000D02*
X130649999Y-122750001D01*
D33*
X89450001Y-122750001D02*
X112000000Y-122750001D01*
D30*
%TO.N,LCD_SHLR*%
X126000000Y-82400000D02*
X126000000Y-80200000D01*
X126000000Y-80200000D02*
X125800000Y-80000000D01*
%TO.N,LCD_PCLK*%
X93675010Y-80099990D02*
X94075009Y-80499989D01*
X114400000Y-89701198D02*
X114400000Y-98500000D01*
X94075009Y-80499989D02*
X102300001Y-80499989D01*
X102300001Y-80499989D02*
X102700000Y-80099990D01*
X108492081Y-83793279D02*
X114400000Y-89701198D01*
X102704889Y-83912897D02*
X102824507Y-83793279D01*
X102824507Y-83793279D02*
X108492081Y-83793279D01*
%TO.N,LCD_R0*%
X126900001Y-99334301D02*
X126900001Y-116299999D01*
X113200000Y-85634300D02*
X126900001Y-99334301D01*
X126900001Y-116299999D02*
X126400000Y-116800000D01*
X113200000Y-85400000D02*
X113200000Y-85634300D01*
%TO.N,LCD_R1*%
X112400000Y-85636017D02*
X126400000Y-99636017D01*
X126400000Y-115400000D02*
X126200000Y-115600000D01*
X112400000Y-84600000D02*
X112400000Y-85636017D01*
X126400000Y-99636017D02*
X126400000Y-115400000D01*
%TO.N,LCD_R2*%
X103797025Y-84193290D02*
X108326392Y-84193290D01*
X108326392Y-84193290D02*
X113400000Y-89266898D01*
X103102428Y-84887887D02*
X103797025Y-84193290D01*
X113400000Y-89266898D02*
X113400000Y-98200000D01*
%TO.N,LCD_R3*%
X107924844Y-84893291D02*
X108460693Y-84893291D01*
X108460693Y-84893291D02*
X112700001Y-89132599D01*
X110400010Y-72499990D02*
X108300000Y-72499990D01*
X112700001Y-97999999D02*
X112400000Y-98300000D01*
X110500000Y-72400000D02*
X110400010Y-72499990D01*
X112700001Y-89132599D02*
X112700001Y-97999999D01*
%TO.N,LCD_R4*%
X102793301Y-85593301D02*
X108595003Y-85593301D01*
X111299999Y-88298297D02*
X111299999Y-97599999D01*
X111299999Y-97599999D02*
X111500000Y-97800000D01*
X108595003Y-85593301D02*
X111299999Y-88298297D01*
X102100000Y-84900000D02*
X102793301Y-85593301D01*
%TO.N,LCD_R5*%
X123589319Y-115523833D02*
X123544547Y-115568605D01*
X123589319Y-108236559D02*
X123589319Y-115523833D01*
X124400000Y-95800000D02*
X130300001Y-89899999D01*
X130300001Y-89899999D02*
X130300001Y-77900001D01*
X123226380Y-107873620D02*
X123589319Y-108236559D01*
X130300001Y-77900001D02*
X128800000Y-76400000D01*
%TO.N,LCD_R6*%
X107963999Y-71799989D02*
X107599999Y-72163989D01*
X110500000Y-98100000D02*
X110500000Y-94236002D01*
X107599999Y-72163989D02*
X107599999Y-72350022D01*
X106600022Y-90336024D02*
X106600022Y-90060274D01*
X106500010Y-89960262D02*
X106500010Y-88903200D01*
X109700000Y-71799990D02*
X107963999Y-71799989D01*
X107599999Y-72350022D02*
X106050021Y-73900000D01*
X106600022Y-90060274D02*
X106500010Y-89960262D01*
X110500000Y-94236002D02*
X106600022Y-90336024D01*
%TO.N,LCD_R7*%
X105034300Y-88200000D02*
X105300000Y-88465700D01*
X102200000Y-88200000D02*
X105034300Y-88200000D01*
X105300000Y-88465700D02*
X105300000Y-89325952D01*
X106200011Y-90225963D02*
X106200011Y-90501713D01*
X109500000Y-93801702D02*
X109500000Y-98400000D01*
X106200011Y-90501713D02*
X109500000Y-93801702D01*
X105300000Y-89325952D02*
X106200011Y-90225963D01*
%TO.N,LCD_G0*%
X122400000Y-106536002D02*
X122600001Y-106336001D01*
X122600001Y-106336001D02*
X122600001Y-105063999D01*
X121999990Y-114500000D02*
X122400000Y-114099990D01*
X122036002Y-104500000D02*
X120800000Y-104500000D01*
X122600001Y-105063999D02*
X122036002Y-104500000D01*
X122400000Y-114099990D02*
X122400000Y-106536002D01*
%TO.N,LCD_G1*%
X121500000Y-105800000D02*
X121900000Y-105400000D01*
X121500000Y-113600000D02*
X121500000Y-105800000D01*
%TO.N,LCD_G2*%
X106000000Y-72900000D02*
X106000000Y-72734300D01*
X105400010Y-90661964D02*
X105500010Y-90561964D01*
X106000000Y-72734300D02*
X107634311Y-71099989D01*
X111899957Y-71099989D02*
X112500000Y-71700032D01*
X106246410Y-96153590D02*
X105400010Y-95307190D01*
X105400010Y-95307190D02*
X105400010Y-90661964D01*
X107634311Y-71099989D02*
X111899957Y-71099989D01*
%TO.N,LCD_G3*%
X102900000Y-99200000D02*
X103000000Y-99300000D01*
X92136002Y-99200000D02*
X102900000Y-99200000D01*
X114772071Y-112500000D02*
X114699970Y-112572101D01*
X91500000Y-98800000D02*
X91736002Y-98800000D01*
X91736002Y-98800000D02*
X92136002Y-99200000D01*
X120500000Y-112500000D02*
X114772071Y-112500000D01*
%TO.N,LCD_G4*%
X101499990Y-98600000D02*
X92379442Y-98600000D01*
X120000000Y-111600000D02*
X115000000Y-111600000D01*
X92379442Y-98600000D02*
X91534703Y-97755261D01*
X101600000Y-98499990D02*
X101499990Y-98600000D01*
%TO.N,LCD_G5*%
X93057160Y-97757150D02*
X102920464Y-97757150D01*
X115100000Y-110500000D02*
X115000000Y-110600000D01*
X92900010Y-97600000D02*
X93057160Y-97757150D01*
X119500000Y-110700000D02*
X119300000Y-110500000D01*
X115100000Y-110500000D02*
X119300000Y-110500000D01*
%TO.N,LCD_G6*%
X93100000Y-96700000D02*
X93084821Y-96684821D01*
X101999999Y-97200001D02*
X102300000Y-96900000D01*
X115200000Y-109800000D02*
X115000000Y-109600000D01*
X93084821Y-96684821D02*
X93084821Y-96605003D01*
X119000000Y-109800000D02*
X115200000Y-109800000D01*
X93084821Y-96605003D02*
X93679819Y-97200001D01*
X93679819Y-97200001D02*
X101999999Y-97200001D01*
%TO.N,LCD_G7*%
X101100000Y-96700000D02*
X94410036Y-96700000D01*
X115227399Y-108827399D02*
X118571052Y-108827399D01*
X118571052Y-108827399D02*
X118571393Y-108827058D01*
X115000000Y-108600000D02*
X115227399Y-108827399D01*
X101300000Y-96500000D02*
X101100000Y-96700000D01*
X94410036Y-96700000D02*
X94114729Y-96404693D01*
%TO.N,LCD_B0*%
X117850020Y-108126795D02*
X120099979Y-105876836D01*
X120099979Y-100588695D02*
X120176830Y-100511844D01*
X120099979Y-105876836D02*
X120099979Y-100588695D01*
%TO.N,LCD_B3*%
X95200000Y-74000000D02*
X102072802Y-74000000D01*
X102072802Y-74000000D02*
X104078846Y-71993956D01*
X104200001Y-89500032D02*
X104200001Y-95599999D01*
X95100000Y-73900000D02*
X95200000Y-74000000D01*
X104200001Y-95599999D02*
X104100000Y-95700000D01*
X103999990Y-89300021D02*
X104200001Y-89500032D01*
%TO.N,LCD_B4*%
X103500000Y-90200000D02*
X103000000Y-90700000D01*
X103000000Y-90700000D02*
X103000000Y-95600000D01*
%TO.N,LCD_B5*%
X117600000Y-99700000D02*
X117600000Y-99500000D01*
X111000000Y-106300000D02*
X117600000Y-99700000D01*
X111000000Y-109200000D02*
X111000000Y-106300000D01*
%TO.N,LCD_B6*%
X110000000Y-105500000D02*
X116400000Y-99100000D01*
X110000000Y-109200000D02*
X110000000Y-105500000D01*
%TO.N,LCD_B7*%
X111610354Y-113466018D02*
X112799937Y-112276435D01*
X112799937Y-105517983D02*
X117811497Y-100506423D01*
X112799937Y-112276435D02*
X112799937Y-105517983D01*
%TO.N,LCD_HSYNC*%
X113199948Y-113100052D02*
X113199948Y-106362852D01*
X111700000Y-114600000D02*
X113199948Y-113100052D01*
X118000043Y-101562757D02*
X118000043Y-101499980D01*
X113199948Y-106362852D02*
X118000043Y-101562757D01*
%TO.N,LCD_VSYNC*%
X119000000Y-101600000D02*
X113599959Y-107000041D01*
X113599959Y-113900041D02*
X111900000Y-115600000D01*
X113599959Y-107000041D02*
X113599959Y-113900041D01*
%TO.N,LDC_MODE*%
X113999969Y-114900031D02*
X112444982Y-116455018D01*
X115000010Y-86183556D02*
X114100000Y-85283546D01*
X119100000Y-102600000D02*
X119100000Y-102900000D01*
X113999969Y-108000031D02*
X113999969Y-114900031D01*
X114100000Y-85283546D02*
X114100000Y-83800011D01*
X119100000Y-102900000D02*
X113999969Y-108000031D01*
%TO.N,LCD_DEN*%
X104700000Y-95263998D02*
X104800001Y-95363999D01*
X104800001Y-99697452D02*
X104037214Y-100460239D01*
X103299989Y-88600011D02*
X104700000Y-88600011D01*
X104700000Y-88600011D02*
X104700000Y-95263998D01*
X116200000Y-76800000D02*
X115900000Y-76500000D01*
X104800001Y-95363999D02*
X104800001Y-99697452D01*
X115900000Y-76500000D02*
X103400032Y-76500000D01*
X102400000Y-89500000D02*
X103299989Y-88600011D01*
D31*
%TO.N,Net-(Q1-Pad4)*%
X136000000Y-33600000D02*
X137000000Y-32600000D01*
X136000000Y-41200000D02*
X136000000Y-33600000D01*
D30*
%TO.N,Net-(R8-Pad1)*%
X114436003Y-83100001D02*
X115036025Y-83700023D01*
X124232618Y-84800020D02*
X129199980Y-84800020D01*
X129199980Y-84800020D02*
X129200000Y-84800000D01*
X94900000Y-85000000D02*
X96799999Y-83100001D01*
X115036025Y-83700023D02*
X123132621Y-83700023D01*
X96799999Y-83100001D02*
X114436003Y-83100001D01*
X123132621Y-83700023D02*
X124232618Y-84800020D01*
%TO.N,Net-(R9-Pad1)*%
X96163993Y-82699990D02*
X114698288Y-82699990D01*
X114698288Y-82699990D02*
X115298310Y-83300012D01*
X94100000Y-85700000D02*
X94100000Y-84763983D01*
X127999990Y-84400010D02*
X129400000Y-83000000D01*
X94100000Y-84763983D02*
X96163993Y-82699990D01*
X115298310Y-83300012D02*
X123298310Y-83300012D01*
X124398308Y-84400010D02*
X127999990Y-84400010D01*
X123298310Y-83300012D02*
X124398308Y-84400010D01*
%TO.N,25Mhz*%
X118000000Y-58885017D02*
X115230011Y-56115028D01*
X118000000Y-67200000D02*
X116200000Y-69000000D01*
X118000000Y-62400000D02*
X118000000Y-58885017D01*
X118000000Y-62400000D02*
X118000000Y-67200000D01*
X116200000Y-69000000D02*
X115600000Y-69600000D01*
D31*
%TO.N,RMII_TXD+*%
X116335779Y-71350023D02*
X117785756Y-72800000D01*
X94700000Y-71501600D02*
X96215544Y-71501600D01*
X97116522Y-70600622D02*
X113949967Y-70600622D01*
X96215544Y-71501600D02*
X97116522Y-70600622D01*
X117785756Y-72800000D02*
X130099990Y-72800000D01*
X113949967Y-70600622D02*
X114699368Y-71350023D01*
X114699368Y-71350023D02*
X116335779Y-71350023D01*
%TO.N,RMII_TXD-*%
X96910011Y-70100011D02*
X114156478Y-70100011D01*
X116542890Y-70850012D02*
X117892878Y-72200000D01*
X94700000Y-70498400D02*
X94751621Y-70550021D01*
X129600000Y-72200000D02*
X130000000Y-71800000D01*
X114906479Y-70850012D02*
X116542890Y-70850012D01*
X114156478Y-70100011D02*
X114906479Y-70850012D01*
X96460001Y-70550021D02*
X96910011Y-70100011D01*
X117892878Y-72200000D02*
X129600000Y-72200000D01*
X94751621Y-70550021D02*
X96460001Y-70550021D01*
%TO.N,RMII_RXER*%
X113148940Y-68600000D02*
X97300020Y-68600000D01*
X115913836Y-65115102D02*
X115913836Y-65835104D01*
X116500000Y-60300000D02*
X115850012Y-60949988D01*
X115913836Y-65835104D02*
X113148940Y-68600000D01*
X115850012Y-60949988D02*
X115850012Y-65051278D01*
X97300020Y-68600000D02*
X96100000Y-69800020D01*
X115850012Y-65051278D02*
X115913836Y-65115102D01*
D30*
%TO.N,Net-(R41-Pad1)*%
X128200000Y-32800000D02*
X127600000Y-33400000D01*
X129200000Y-32800000D02*
X128200000Y-32800000D01*
D31*
%TO.N,RMII_TXEN*%
X115113590Y-70350001D02*
X114113599Y-69350010D01*
X116750001Y-70350001D02*
X115113590Y-70350001D01*
X114113599Y-69350010D02*
X106000000Y-69350010D01*
X117200000Y-70800000D02*
X116750001Y-70350001D01*
X130000000Y-70800000D02*
X117200000Y-70800000D01*
D30*
%TO.N,RMII_MDC*%
X130800000Y-73600000D02*
X130800000Y-67594989D01*
X119430393Y-74049990D02*
X130350010Y-74049990D01*
X130800000Y-67594989D02*
X129405011Y-66200000D01*
X130350010Y-74049990D02*
X130800000Y-73600000D01*
%TO.N,Net-(J7-PadL1)*%
X162005011Y-56840028D02*
X162005011Y-55540028D01*
X141205011Y-56240028D02*
X145705011Y-56240028D01*
X145705011Y-56240028D02*
X147175022Y-54770017D01*
X152205011Y-54940028D02*
X152035000Y-54770017D01*
X152035000Y-54770017D02*
X147175022Y-54770017D01*
X162005011Y-55540028D02*
X163710011Y-53835028D01*
X157505011Y-59840028D02*
X159005011Y-59840028D01*
X139805011Y-54840028D02*
X141205011Y-56240028D01*
X159005011Y-59840028D02*
X162005011Y-56840028D01*
X139805011Y-54840028D02*
X138505011Y-54840028D01*
%TO.N,Net-(J7-PadL4)*%
X145405011Y-55840028D02*
X141787879Y-55840028D01*
X147105011Y-54140028D02*
X145405011Y-55840028D01*
X153069009Y-54340028D02*
X152869009Y-54140028D01*
X152869009Y-54140028D02*
X147105011Y-54140028D01*
X141787879Y-55840028D02*
X140237287Y-54289436D01*
%TD*%
M02*
