M48
; DRILL file {KiCad (5.99.0-9544-g366189b864)} date 03/21/21 22:22:08
; FORMAT={-:-/ absolute / inch / decimal}
; #@! TF.CreationDate,2021-03-21T22:22:08+01:00
; #@! TF.GenerationSoftware,Kicad,Pcbnew,(5.99.0-9544-g366189b864)
; #@! TF.FileFunction,Plated,1,4,PTH
FMAT,2
INCH
T1C0.0157
T2C0.0197
T3C0.0236
T4C0.0315
T5C0.0350
T6C0.0354
T7C0.0394
T8C0.0472
T9C0.0512
T10C0.0598
T11C0.0630
T12C0.1260
%
G90
G05
T1
X2.748Y-2.4409
X2.752Y-2.3465
X2.8465Y-1.8425
X2.8465Y-2.9213
X2.8622Y-2.8425
X2.874Y-2.8031
X2.874Y-3.1417
X2.9094Y-2.7835
X2.9094Y-3.4094
X2.9125Y-2.5127
X2.9173Y-2.8937
X2.9646Y-2.8465
X2.9764Y-1.6063
X2.9978Y-2.4707
X3.0157Y-2.8386
X3.0197Y-2.2795
X3.0276Y-1.7953
X3.0354Y-2.4882
X3.0354Y-3.1102
X3.0433Y-2.7253
X3.0512Y-2.2362
X3.0512Y-2.3937
X3.0591Y-2.9707
X3.063Y-2.4331
X3.0669Y-1.2323
X3.0669Y-1.2717
X3.0669Y-1.311
X3.0669Y-1.3504
X3.0669Y-1.3898
X3.0669Y-1.4291
X3.0669Y-2.5157
X3.0709Y-2.2008
X3.0744Y-2.9274
X3.0787Y-3.0591
X3.0827Y-2.1535
X3.1063Y-1.2323
X3.1063Y-1.2717
X3.1063Y-1.311
X3.1063Y-1.3504
X3.1063Y-1.3898
X3.1063Y-1.4291
X3.1181Y-4.3031
X3.122Y-2.1024
X3.126Y-2.1575
X3.1457Y-1.2323
X3.1457Y-1.2717
X3.1457Y-1.311
X3.1457Y-1.3504
X3.1457Y-1.3898
X3.1457Y-1.4291
X3.1457Y-2.3976
X3.1596Y-3.5709
X3.1654Y-2.1142
X3.1654Y-3.2835
X3.1772Y-2.7365
X3.179Y-3.4805
X3.185Y-1.2323
X3.185Y-1.2717
X3.185Y-1.311
X3.185Y-1.3504
X3.185Y-1.3898
X3.185Y-1.4291
X3.185Y-3.3543
X3.185Y-4.3701
X3.1929Y-4.252
X3.2047Y-2.0906
X3.2165Y-3.3268
X3.2244Y-1.2323
X3.2244Y-1.2717
X3.2244Y-1.311
X3.2244Y-1.3504
X3.2244Y-1.3898
X3.2244Y-1.4291
X3.2244Y-4.3189
X3.2323Y-4.4409
X3.2362Y-2.3939
X3.2402Y-2.9094
X3.2638Y-1.2323
X3.2638Y-1.2717
X3.2638Y-1.311
X3.2638Y-1.3504
X3.2638Y-1.3898
X3.2638Y-1.4291
X3.2638Y-4.2913
X3.2684Y-3.0071
X3.2691Y-2.8424
X3.2717Y-2.8858
X3.2717Y-2.9646
X3.2717Y-3.0512
X3.2717Y-3.0945
X3.2717Y-3.1378
X3.2756Y-3.5353
X3.2756Y-3.1777
X3.278Y-3.6279
X3.2874Y-3.2165
X3.2915Y-4.1063
X3.2961Y-2.0394
X3.2992Y-2.248
X3.3071Y-2.189
X3.3071Y-2.3937
X3.31Y-3.9478
X3.311Y-4.1417
X3.315Y-2.6337
X3.3307Y-2.2205
X3.3307Y-2.2756
X3.3346Y-1.748
X3.3355Y-2.1584
X3.3465Y-2.3976
X3.3504Y-3.7047
X3.3543Y-2.6339
X3.3622Y-3.6654
X3.3622Y-2.7598
X3.3661Y-1.9488
X3.3819Y-4.3268
X3.3823Y-2.9871
X3.3858Y-2.9008
X3.3898Y-3.1847
X3.3937Y-2.6339
X3.3976Y-2.7874
X3.3996Y-4.1988
X3.4055Y-2.4488
X3.4134Y-4.685
X3.4286Y-3.2701
X3.4331Y-1.7087
X3.4378Y-2.6368
X3.4449Y-2.5079
X3.4606Y-1.8268
X3.4606Y-3.5185
X3.4685Y-1.9488
X3.4803Y-2.6496
X3.4882Y-3.622
X3.49Y-2.262
X3.4903Y-2.5157
X3.4911Y-2.3912
X3.4921Y-3.3228
X3.4961Y-3.0118
X3.5029Y-2.6825
X3.5039Y-2.8307
X3.5039Y-3.1496
X3.5266Y-4.1417
X3.5276Y-2.2913
X3.5336Y-3.3246
X3.5394Y-2.6181
X3.5394Y-2.9843
X3.5433Y-2.1969
X3.5458Y-3.5
X3.5472Y-2.4016
X3.5484Y-2.2559
X3.5502Y-3.5394
X3.5539Y-3.0589
X3.5603Y-3.3937
X3.5641Y-3.2509
X3.5669Y-1.2126
X3.5711Y-4.512
X3.5748Y-3.122
X3.5787Y-2.2283
X3.5787Y-2.7717
X3.5787Y-3.7402
X3.5827Y-2.7244
X3.5827Y-3.5906
X3.5827Y-3.6535
X3.5906Y-2.2677
X3.5945Y-2.5876
X3.6023Y-1.9764
X3.6192Y-4.0028
X3.622Y-2.2441
X3.6373Y-2.4722
X3.6481Y-3.5842
X3.6496Y-4.0315
X3.6614Y-2.2402
X3.6811Y-3.5591
X3.6853Y-3.8057
X3.6912Y-1.9388
X3.6929Y-3.2717
X3.6929Y-3.3937
X3.6969Y-3.4331
X3.7007Y-2.2442
X3.7047Y-3.315
X3.7087Y-3.7402
X3.7126Y-3.6929
X3.7158Y-1.9713
X3.7244Y-4.122
X3.7283Y-3.815
X3.7323Y-3.4803
X3.7323Y-3.7717
X3.7362Y-3.0512
X3.7365Y-2.7756
X3.7402Y-2.7362
X3.7441Y-3.1693
X3.748Y-3.315
X3.752Y-1.874
X3.7638Y-3.7217
X3.7638Y-3.5197
X3.7756Y-4.1142
X3.7795Y-3.0512
X3.7834Y-3.172
X3.8031Y-2.5748
X3.8071Y-3.0157
X3.811Y-1.9528
X3.8135Y-2.8071
X3.815Y-1.9921
X3.8189Y-4.1378
X3.8307Y-4.2244
X3.8336Y-3.4488
X3.8602Y-2.7199
X3.8701Y-3.4055
X3.883Y-2.0261
X3.8858Y-3.8728
X3.8898Y-3.5748
X3.9134Y-2.8937
X3.9134Y-3.7532
X3.9291Y-3.5748
X3.9373Y-3.878
X3.9488Y-4.1378
X3.968Y-3.7001
X3.9882Y-2.311
X4.0107Y-4.1468
X4.0197Y-2.3346
X4.0236Y-3.5787
X4.0472Y-1.9882
X4.0472Y-2.0236
X4.0472Y-3.1339
X4.0512Y-4.185
X4.0545Y-3.7294
X4.0748Y-3.8976
X4.0787Y-1.9882
X4.0787Y-2.0236
X4.0851Y-3.8521
X4.0906Y-1.7362
X4.0906Y-1.7638
X4.0906Y-1.7913
X4.0906Y-3.1299
X4.0945Y-4.2835
X4.1102Y-1.9882
X4.1102Y-2.0236
X4.1142Y-3.9055
X4.122Y-1.7362
X4.122Y-1.7638
X4.122Y-1.7913
X4.122Y-4.4449
X4.1299Y-3.1339
X4.1417Y-1.9882
X4.1417Y-2.0236
X4.1417Y-3.2992
X4.1486Y-2.3135
X4.1496Y-3.3465
X4.1535Y-3.9173
X4.1535Y-4.4724
X4.1575Y-3.7244
X4.1596Y-2.3994
X4.1693Y-3.685
X4.1732Y-1.9882
X4.1732Y-2.0236
X4.1811Y-1.7362
X4.1811Y-1.7638
X4.1811Y-1.7913
X4.1811Y-2.9425
X4.1929Y-3.937
X4.1969Y-3.1457
X4.2045Y-2.5235
X4.2087Y-2.9724
X4.2126Y-1.7362
X4.2126Y-1.7638
X4.2126Y-1.7913
X4.2244Y-3.3661
X4.2244Y-3.4055
X4.2244Y-3.4449
X4.2283Y-2.3701
X4.2323Y-2.4252
X4.2323Y-3.9567
X4.2362Y-2.0591
X4.2362Y-3.1457
X4.2375Y-3.7714
X4.252Y-4.2795
X4.2638Y-2.5039
X4.2638Y-2.685
X4.2717Y-2.5669
X4.2717Y-3.9724
X4.2756Y-3.1417
X4.2795Y-3.4331
X4.2874Y-4.2598
X4.2992Y-3.3937
X4.3035Y-2.6841
X4.311Y-3.9882
X4.315Y-3.1417
X4.3268Y-4.2835
X4.3278Y-3.7401
X4.3307Y-1.1654
X4.3386Y-3.3661
X4.3504Y-4.0
X4.3543Y-2.2402
X4.3543Y-3.1378
X4.3543Y-4.1732
X4.3681Y-3.5685
X4.3772Y-4.3121
X4.3858Y-4.0236
X4.3898Y-3.7244
X4.3898Y-4.1457
X4.3937Y-3.1339
X4.3976Y-4.437
X4.4123Y-4.1131
X4.4134Y-3.6929
X4.414Y-2.6869
X4.4252Y-4.0354
X4.4291Y-4.0748
X4.4331Y-3.1339
X4.4528Y-3.8029
X4.4646Y-2.5315
X4.4664Y-2.8324
X4.468Y-2.9114
X4.4921Y-3.5551
X4.515Y-2.8228
X4.5272Y-2.7064
X4.5354Y-3.3425
X4.5354Y-3.9843
X4.5669Y-2.685
X4.5669Y-3.3661
X4.5669Y-4.0079
X4.5719Y-2.2077
X4.5719Y-2.7964
X4.5728Y-3.5489
X4.5787Y-3.7717
X4.6063Y-2.4843
X4.6063Y-3.6929
X4.6378Y-3.7244
X4.6579Y-3.8827
X4.7047Y-3.1024
X4.7049Y-3.1811
X4.7088Y-3.4168
X4.7165Y-2.8661
X4.7205Y-3.7244
X4.7244Y-3.6517
X4.7244Y-3.2677
X4.7244Y-3.3071
X4.7323Y-1.2205
X4.7323Y-3.3462
X4.752Y-3.7559
X4.7677Y-2.4016
X4.7717Y-3.4685
X4.7843Y-3.7827
X4.7874Y-2.2008
X4.7874Y-3.0118
X4.8268Y-2.7401
X4.8268Y-2.7796
X4.8346Y-3.4016
X4.8346Y-3.8622
X4.8533Y-3.8263
X4.8622Y-2.7126
X4.8622Y-3.622
X4.8622Y-3.7362
X4.8661Y-3.3412
X4.8722Y-1.2087
X4.8819Y-2.2795
X4.8898Y-2.5315
X4.8898Y-4.4528
X4.8937Y-2.6319
X4.9134Y-1.4016
X4.9331Y-2.9409
X4.9331Y-3.0315
X4.9409Y-4.2008
X4.9488Y-3.8268
X4.9526Y-4.24
X4.9528Y-3.3858
X4.9646Y-3.623
X4.9764Y-2.3661
X4.9843Y-2.4646
X4.9882Y-3.8307
X4.9961Y-2.9252
X5.0Y-1.4016
X5.0039Y-2.8071
X5.0236Y-1.2677
X5.0236Y-1.315
X5.0264Y-2.361
X5.0448Y-3.5133
X5.0551Y-2.2362
X5.0709Y-2.6142
X5.0866Y-1.252
X5.0866Y-1.2913
X5.1142Y-2.6024
X5.1339Y-1.3465
X5.1542Y-2.7008
X5.2067Y-3.6558
X5.2165Y-2.7835
X5.2677Y-3.2874
X5.2677Y-3.3386
X5.315Y-2.1969
X5.3189Y-2.5315
X5.3543Y-1.622
X5.3622Y-4.4803
X5.3937Y-1.2835
X5.3937Y-2.5354
X5.4333Y-2.1984
X5.453Y-2.1591
X5.477Y-2.1118
X5.4803Y-4.2559
X5.4923Y-1.9937
X5.5212Y-2.1374
X5.6929Y-3.0157
X5.7008Y-2.8661
X5.827Y-2.2063
X5.8348Y-2.5528
X5.9252Y-4.126
X5.9921Y-4.1614
X5.9923Y-2.163
X6.0263Y-2.1394
X6.201Y-2.3559
X6.2049Y-2.4071
X6.2325Y-2.474
T2
X2.7008Y-1.3386
X2.7008Y-4.7244
X2.7285Y-1.2718
X2.7285Y-1.4054
X2.7285Y-4.6576
X2.7285Y-4.7912
X2.7953Y-1.2441
X2.7953Y-1.4331
X2.7953Y-4.6299
X2.7953Y-4.8189
X2.8621Y-1.2718
X2.8621Y-1.4054
X2.8621Y-4.6576
X2.8621Y-4.7912
X2.8898Y-1.3386
X2.8898Y-4.7244
X6.2835Y-1.3386
X6.2835Y-4.7244
X6.3111Y-1.2718
X6.3111Y-1.4054
X6.3111Y-4.6576
X6.3111Y-4.7912
X6.378Y-1.2441
X6.378Y-1.4331
X6.378Y-4.6299
X6.378Y-4.8189
X6.4448Y-1.2718
X6.4448Y-1.4054
X6.4448Y-4.6576
X6.4448Y-4.7912
X6.4724Y-1.3386
X6.4724Y-4.7244
T4
X2.9412Y-3.6494
X3.9252Y-4.3386
X4.2205Y-2.1732
X4.937Y-4.5945
X4.9488Y-4.4921
X4.984Y-4.181
X5.0039Y-4.4567
X5.0236Y-4.5945
X5.0708Y-4.5562
X5.1142Y-4.1929
X5.122Y-4.3071
X5.2323Y-4.1378
X5.2402Y-3.9961
X5.5039Y-4.6024
X5.5787Y-4.4961
X5.5984Y-3.9528
X5.6378Y-4.3307
X5.7835Y-4.3819
X5.87Y-4.1339
X5.9055Y-4.0315
X5.9921Y-4.2874
X6.0039Y-4.4685
X6.0827Y-4.1181
X6.1654Y-4.4803
T5
X6.4453Y-2.1195
X6.4453Y-2.2195
X6.4453Y-2.5407
X6.4453Y-2.6407
T6
X3.252Y-1.7717
X3.5197Y-1.3071
X3.5354Y-1.7362
X3.8307Y-1.2047
X4.0157Y-1.6496
X4.0669Y-1.2648
X4.126Y-1.3945
X4.3937Y-1.7441
X4.4724Y-1.3307
X4.4882Y-1.4409
X4.5354Y-1.2953
X4.685Y-1.5591
X4.8898Y-1.7559
X5.4173Y-1.6063
X5.7559Y-1.3307
X5.902Y-2.2055
X5.902Y-2.3055
X5.902Y-2.4055
X5.902Y-2.5055
X5.9291Y-1.4803
X6.002Y-2.2555
X6.002Y-2.3555
X6.002Y-2.4555
X6.002Y-2.5555
X6.0545Y-3.0669
X6.0545Y-3.1654
X6.0545Y-3.2441
X6.0545Y-3.3425
X6.3701Y-3.4724
T7
X2.6732Y-1.9465
X2.6732Y-2.0465
X2.6732Y-2.1465
X2.6732Y-2.2465
X2.6732Y-2.3465
X2.6795Y-2.5709
X2.6795Y-2.6709
X2.6795Y-2.7709
X2.6795Y-2.8709
X2.6795Y-2.9709
X2.6795Y-3.0709
X2.6795Y-3.1709
X2.6795Y-3.2709
X2.6795Y-3.3709
X2.6795Y-3.4709
X2.6795Y-3.5709
X2.6795Y-3.6709
X2.6795Y-3.7709
X2.6795Y-3.8709
X2.6795Y-3.9709
X2.6795Y-4.0709
X2.6795Y-4.1709
X2.6795Y-4.2709
X2.6795Y-4.3709
X2.6795Y-4.4709
X2.7795Y-2.5709
X2.7795Y-2.6709
X2.7795Y-2.7709
X2.7795Y-2.8709
X2.7795Y-2.9709
X2.7795Y-3.0709
X2.7795Y-3.1709
X2.7795Y-3.2709
X2.7795Y-3.3709
X2.7795Y-3.4709
X2.7795Y-3.5709
X2.7795Y-3.6709
X2.7795Y-3.7709
X2.7795Y-3.8709
X2.7795Y-3.9709
X2.7795Y-4.0709
X2.7795Y-4.1709
X2.7795Y-4.2709
X2.7795Y-4.3709
X2.7795Y-4.4709
X3.4833Y-4.2589
X3.5833Y-4.2589
X3.6833Y-4.2589
X3.7833Y-4.2589
X3.8833Y-4.2589
X3.9833Y-4.2589
X5.3573Y-3.5608
X5.3573Y-3.6608
X5.3573Y-3.7608
T8
X5.1772Y-2.3622
T10
X6.378Y-1.6323
X6.378Y-1.8323
T11
X6.1323Y-2.0752
X6.1323Y-2.6854
T12
X2.7953Y-1.3386
X2.7953Y-4.7244
X6.378Y-1.3386
X6.378Y-4.7244
T3
G00X6.3758Y-3.0661
M15
G01X6.3325Y-3.0661
M16
G05
G00X6.3758Y-3.4063
M15
G01X6.3325Y-3.4063
M16
G05
G00X6.5341Y-3.0661
M15
G01X6.5026Y-3.0661
M16
G05
G00X6.5341Y-3.4063
M15
G01X6.5026Y-3.4063
M16
G05
T9
G00X5.8663Y-3.2244
M15
G01X5.8663Y-3.185
M16
G05
G00X6.0112Y-2.9461
M15
G01X6.0506Y-2.9461
M16
G05
G00X6.0506Y-3.4634
M15
G01X6.0112Y-3.4634
M16
G05
T0
M30
