M48
; DRILL file {KiCad (5.99.0-9544-g366189b864)} date 03/13/21 10:42:41
; FORMAT={-:-/ absolute / inch / decimal}
; #@! TF.CreationDate,2021-03-13T10:42:41+01:00
; #@! TF.GenerationSoftware,Kicad,Pcbnew,(5.99.0-9544-g366189b864)
; #@! TF.FileFunction,Plated,1,4,PTH
FMAT,2
INCH
T1C0.0157
T2C0.0197
T3C0.0236
T4C0.0315
T5C0.0350
T6C0.0354
T7C0.0394
T8C0.0512
T9C0.0598
T10C0.0630
T11C0.1260
%
G90
G05
T1
X2.811Y-2.3622
X2.9016Y-3.0787
X2.9331Y-3.4252
X2.9528Y-3.0437
X2.9567Y-2.5748
X2.9764Y-1.6063
X2.9764Y-3.1149
X2.9779Y-3.5528
X2.9921Y-3.0512
X2.9921Y-3.4843
X3.0Y-2.6024
X3.0Y-2.9764
X3.0389Y-3.4337
X3.063Y-2.9646
X3.0669Y-2.6378
X3.0685Y-3.4074
X3.0827Y-2.7323
X3.1102Y-2.3858
X3.1378Y-3.3189
X3.1937Y-2.6743
X3.2008Y-2.7165
X3.2087Y-2.5591
X3.2283Y-3.2598
X3.2323Y-2.9646
X3.2362Y-2.8819
X3.2441Y-2.5787
X3.248Y-3.0591
X3.252Y-4.815
X3.2717Y-2.937
X3.2735Y-3.5145
X3.2756Y-3.6969
X3.2944Y-2.9041
X3.3071Y-3.3268
X3.3088Y-3.2161
X3.3328Y-3.4435
X3.3465Y-3.4055
X3.3465Y-3.189
X3.3465Y-3.3465
X3.3504Y-3.4803
X3.3627Y-2.6181
X3.3937Y-2.7087
X3.3976Y-2.752
X3.4016Y-2.6378
X3.4016Y-2.9213
X3.4055Y-4.1535
X3.4173Y-3.5157
X3.4331Y-1.7087
X3.4331Y-3.5906
X3.437Y-2.815
X3.4544Y-4.1051
X3.4553Y-3.5294
X3.5Y-3.1476
X3.5197Y-2.6339
X3.5354Y-3.0512
X3.5591Y-2.6339
X3.5591Y-3.1535
X3.563Y-3.3819
X3.5669Y-1.2126
X3.5669Y-3.0787
X3.5709Y-3.0315
X3.6024Y-3.8898
X3.6037Y-3.8486
X3.6102Y-3.9291
X3.6142Y-2.4685
X3.6299Y-3.6024
X3.6575Y-3.8425
X3.6648Y-3.8033
X3.6654Y-3.7008
X3.6773Y-2.5152
X3.685Y-3.2756
X3.688Y-3.1535
X3.689Y-2.7244
X3.6969Y-3.0039
X3.7047Y-3.374
X3.7053Y-3.7955
X3.7087Y-3.4973
X3.7282Y-2.555
X3.7283Y-2.7755
X3.7283Y-2.815
X3.7362Y-3.3465
X3.7402Y-3.7312
X3.7441Y-2.9094
X3.752Y-3.1417
X3.7835Y-2.748
X3.8189Y-2.3465
X3.8189Y-3.5709
X3.8228Y-2.5
X3.8248Y-3.6925
X3.8307Y-4.0945
X3.8425Y-2.1654
X3.8563Y-2.5628
X3.8583Y-3.5709
X3.8701Y-3.1417
X3.8745Y-2.2992
X3.8998Y-3.6911
X3.9055Y-4.0236
X3.9213Y-2.5079
X3.9488Y-2.5709
X3.9565Y-2.2188
X3.9647Y-3.3784
X3.9724Y-3.685
X3.9852Y-2.5128
X3.9882Y-2.5748
X3.9882Y-3.7992
X3.9941Y-3.7421
X4.0Y-3.878
X4.0039Y-3.9409
X4.0079Y-2.1811
X4.0197Y-3.3425
X4.0236Y-3.4724
X4.0276Y-2.3504
X4.0276Y-3.815
X4.0315Y-3.5236
X4.0433Y-3.1535
X4.0435Y-3.3037
X4.0453Y-2.5256
X4.052Y-3.8487
X4.0551Y-3.7638
X4.0551Y-3.9094
X4.0592Y-3.342
X4.0709Y-3.0118
X4.0728Y-2.5728
X4.0748Y-3.5512
X4.0945Y-3.5157
X4.096Y-3.9551
X4.0976Y-2.8344
X4.0984Y-3.7677
X4.1535Y-3.5654
X4.1732Y-2.7303
X4.1732Y-2.8701
X4.1752Y-2.9094
X4.1829Y-3.7856
X4.1929Y-3.5001
X4.2028Y-3.7382
X4.2224Y-2.502
X4.2235Y-3.5386
X4.249Y-3.3423
X4.2559Y-2.5551
X4.2559Y-3.7244
X4.2638Y-2.8543
X4.2677Y-2.2953
X4.2708Y-4.178
X4.2756Y-3.4331
X4.2795Y-3.4921
X4.311Y-3.874
X4.3189Y-2.8268
X4.3287Y-3.539
X4.3307Y-4.2992
X4.3386Y-2.2638
X4.3386Y-2.3031
X4.3504Y-2.8504
X4.3504Y-3.8622
X4.3543Y-2.2047
X4.3543Y-4.7874
X4.3701Y-4.2992
X4.3858Y-4.6299
X4.3898Y-3.8504
X4.3941Y-4.4672
X4.3976Y-4.5118
X4.4055Y-4.5512
X4.4094Y-3.7244
X4.4094Y-4.8031
X4.4252Y-3.3307
X4.4252Y-3.8701
X4.427Y-4.5848
X4.4291Y-2.8228
X4.4375Y-2.4688
X4.4567Y-3.3622
X4.4646Y-3.8661
X4.4783Y-2.5571
X4.4921Y-3.2992
X4.5039Y-3.878
X4.5118Y-2.1181
X4.5157Y-4.432
X4.5157Y-2.5394
X4.5276Y-4.2756
X4.5276Y-4.315
X4.5276Y-4.3543
X4.5276Y-4.3937
X4.5276Y-3.3931
X4.534Y-2.5778
X4.5354Y-2.8898
X4.5354Y-3.9055
X4.5366Y-2.2093
X4.5512Y-2.7402
X4.5591Y-3.2362
X4.5696Y-2.8424
X4.5748Y-2.9133
X4.5748Y-3.0236
X4.5797Y-3.2015
X4.5827Y-3.8189
X4.5827Y-3.9016
X4.5866Y-2.374
X4.5906Y-2.5394
X4.6299Y-3.9173
X4.6382Y-3.9569
X4.6398Y-4.257
X4.6457Y-3.9961
X4.6682Y-4.2845
X4.685Y-4.0
X4.685Y-4.3228
X4.689Y-4.0394
X4.7008Y-3.1535
X4.702Y-2.9154
X4.7047Y-3.0866
X4.7047Y-3.3504
X4.7047Y-4.3583
X4.7244Y-4.3937
X4.7314Y-3.9572
X4.7323Y-1.2205
X4.7441Y-4.4291
X4.7559Y-4.1142
X4.7561Y-2.1472
X4.7835Y-4.4724
X4.7992Y-4.1496
X4.8031Y-4.5079
X4.8514Y-4.247
X4.864Y-4.5499
X4.8663Y-2.2339
X4.8722Y-1.2087
X4.8737Y-3.7402
X4.8898Y-3.252
X4.8976Y-3.7717
X4.9016Y-3.1535
X4.9134Y-1.4016
X4.9213Y-2.5748
X4.9213Y-3.2283
X4.9528Y-3.1496
X4.9606Y-3.2441
X4.9685Y-4.5512
X4.9724Y-4.8051
X4.9764Y-4.5984
X4.9963Y-2.4976
X5.0Y-1.4016
X5.0Y-3.1654
X5.0Y-3.2283
X5.0002Y-2.4583
X5.0197Y-4.8031
X5.0236Y-1.2677
X5.0236Y-1.315
X5.0236Y-2.9764
X5.0266Y-2.3626
X5.0394Y-2.6614
X5.0448Y-3.5182
X5.0593Y-2.2417
X5.0669Y-4.7992
X5.0709Y-3.0079
X5.0866Y-1.252
X5.0866Y-1.2913
X5.0866Y-2.7559
X5.0866Y-3.3386
X5.0945Y-3.2677
X5.0947Y-2.6063
X5.0984Y-4.5827
X5.1024Y-3.1339
X5.1024Y-3.1732
X5.1102Y-4.8031
X5.1181Y-2.7874
X5.1181Y-2.8268
X5.122Y-2.8661
X5.1339Y-1.3465
X5.1546Y-2.6031
X5.1654Y-4.811
X5.1811Y-2.8898
X5.2165Y-4.6614
X5.2362Y-4.563
X5.2677Y-3.2835
X5.2677Y-3.3386
X5.2797Y-2.2575
X5.323Y-2.4228
X5.3346Y-4.4685
X5.3543Y-1.622
X5.3701Y-3.2756
X5.3937Y-1.2835
X5.3978Y-2.5331
X5.4252Y-4.5866
X5.4331Y-4.3307
X5.4333Y-2.1984
X5.4528Y-4.5197
X5.453Y-2.1591
X5.477Y-2.1118
X5.4923Y-1.9937
X5.5212Y-2.1374
X5.5591Y-4.1339
X5.6535Y-3.6929
X5.6929Y-3.0157
X5.6929Y-3.9449
X5.7008Y-2.8661
X5.748Y-4.2717
X5.7638Y-3.5906
X5.8071Y-4.6102
X5.827Y-2.2063
X5.8348Y-2.5528
X5.8425Y-4.4646
X5.9291Y-4.1024
X5.9923Y-2.163
X6.0Y-4.1142
X6.0263Y-2.1394
X6.0591Y-4.3268
X6.1693Y-4.126
X6.1732Y-4.3307
X6.201Y-2.3559
X6.2049Y-2.4071
X6.2325Y-2.474
T2
X2.7205Y-1.3583
X2.7205Y-4.7047
X2.7481Y-1.2915
X2.7481Y-1.4251
X2.7481Y-4.6379
X2.7481Y-4.7715
X2.815Y-1.2638
X2.815Y-1.4528
X2.815Y-4.6102
X2.815Y-4.7992
X2.8818Y-1.2915
X2.8818Y-1.4251
X2.8818Y-4.6379
X2.8818Y-4.7715
X2.9094Y-1.3583
X2.9094Y-4.7047
X6.2638Y-1.3583
X6.2638Y-4.7047
X6.2915Y-1.2915
X6.2915Y-1.4251
X6.2915Y-4.6379
X6.2915Y-4.7715
X6.3583Y-1.2638
X6.3583Y-1.4528
X6.3583Y-4.6102
X6.3583Y-4.7992
X6.4251Y-1.2915
X6.4251Y-1.4251
X6.4251Y-4.6379
X6.4251Y-4.7715
X6.4528Y-1.3583
X6.4528Y-4.7047
T4
X3.3346Y-4.7362
X3.4606Y-4.6063
T5
X6.4453Y-2.1195
X6.4453Y-2.2195
X6.4453Y-2.5407
X6.4453Y-2.6407
T6
X2.8937Y-3.3858
X3.0906Y-4.7205
X3.252Y-1.7717
X3.2598Y-4.5709
X3.2953Y-4.2598
X3.3425Y-4.4685
X3.5197Y-1.3071
X3.7362Y-4.7835
X3.8661Y-1.7008
X3.8976Y-1.3307
X4.126Y-1.3945
X4.2835Y-1.4882
X4.3937Y-1.7441
X4.4016Y-1.5669
X4.4961Y-1.5669
X4.685Y-1.5591
X4.8898Y-1.7559
X5.4173Y-1.6063
X5.7559Y-1.3307
X5.902Y-2.2055
X5.902Y-2.3055
X5.902Y-2.4055
X5.902Y-2.5055
X5.9291Y-1.4803
X5.9291Y-4.5984
X6.002Y-2.2555
X6.002Y-2.3555
X6.002Y-2.4555
X6.002Y-2.5555
X6.0545Y-3.0669
X6.0545Y-3.1654
X6.0545Y-3.2441
X6.0545Y-3.3425
X6.3701Y-3.4724
T7
X2.6732Y-1.9465
X2.6732Y-2.0465
X2.6732Y-2.1465
X2.6732Y-2.2465
X2.6732Y-2.3465
X2.6795Y-2.5709
X2.6795Y-2.6709
X2.6795Y-2.7709
X2.6795Y-2.8709
X2.6795Y-2.9709
X2.6795Y-3.0709
X2.6795Y-3.1709
X2.6795Y-3.2709
X2.6795Y-3.3709
X2.6795Y-3.4709
X2.6795Y-3.5709
X2.6795Y-3.6709
X2.6795Y-3.7709
X2.6795Y-3.8709
X2.6795Y-3.9709
X2.6795Y-4.0709
X2.6795Y-4.1709
X2.6795Y-4.2709
X2.6795Y-4.3709
X2.6795Y-4.4709
X2.7795Y-2.5709
X2.7795Y-2.6709
X2.7795Y-2.7709
X2.7795Y-2.8709
X2.7795Y-2.9709
X2.7795Y-3.0709
X2.7795Y-3.1709
X2.7795Y-3.2709
X2.7795Y-3.3709
X2.7795Y-3.4709
X2.7795Y-3.5709
X2.7795Y-3.6709
X2.7795Y-3.7709
X2.7795Y-3.8709
X2.7795Y-3.9709
X2.7795Y-4.0709
X2.7795Y-4.1709
X2.7795Y-4.2709
X2.7795Y-4.3709
X2.7795Y-4.4709
X3.4833Y-4.2549
X3.5833Y-4.2549
X3.6833Y-4.2549
X3.7833Y-4.2549
X3.8833Y-4.2549
X3.9833Y-4.2549
X5.1813Y-2.3598
T9
X6.378Y-1.6323
X6.378Y-1.8323
T10
X6.1323Y-2.0752
X6.1323Y-2.6854
T11
X2.815Y-1.3583
X2.815Y-4.7047
X6.3583Y-1.3583
X6.3583Y-4.7047
T3
G00X6.3758Y-3.0661
M15
G01X6.3325Y-3.0661
M16
G05
G00X6.3758Y-3.4063
M15
G01X6.3325Y-3.4063
M16
G05
G00X6.5341Y-3.0661
M15
G01X6.5026Y-3.0661
M16
G05
G00X6.5341Y-3.4063
M15
G01X6.5026Y-3.4063
M16
G05
T8
G00X5.8663Y-3.2244
M15
G01X5.8663Y-3.185
M16
G05
G00X6.0112Y-2.9461
M15
G01X6.0506Y-2.9461
M16
G05
G00X6.0506Y-3.4634
M15
G01X6.0112Y-3.4634
M16
G05
T0
M30
