%TF.GenerationSoftware,KiCad,Pcbnew,(5.99.0-9568-gb9d26a55f2)*%
%TF.CreationDate,2021-03-23T11:45:26+01:00*%
%TF.ProjectId,Controller,436f6e74-726f-46c6-9c65-722e6b696361,rev?*%
%TF.SameCoordinates,Original*%
%TF.FileFunction,Soldermask,Top*%
%TF.FilePolarity,Negative*%
%FSLAX46Y46*%
G04 Gerber Fmt 4.6, Leading zero omitted, Abs format (unit mm)*
G04 Created by KiCad (PCBNEW (5.99.0-9568-gb9d26a55f2)) date 2021-03-23 11:45:26*
%MOMM*%
%LPD*%
G01*
G04 APERTURE LIST*
G04 Aperture macros list*
%AMRoundRect*
0 Rectangle with rounded corners*
0 $1 Rounding radius*
0 $2 $3 $4 $5 $6 $7 $8 $9 X,Y pos of 4 corners*
0 Add a 4 corners polygon primitive as box body*
4,1,4,$2,$3,$4,$5,$6,$7,$8,$9,$2,$3,0*
0 Add four circle primitives for the rounded corners*
1,1,$1+$1,$2,$3*
1,1,$1+$1,$4,$5*
1,1,$1+$1,$6,$7*
1,1,$1+$1,$8,$9*
0 Add four rect primitives between the rounded corners*
20,1,$1+$1,$2,$3,$4,$5,0*
20,1,$1+$1,$4,$5,$6,$7,0*
20,1,$1+$1,$6,$7,$8,$9,0*
20,1,$1+$1,$8,$9,$2,$3,0*%
%AMFreePoly0*
4,1,13,0.900000,0.500000,2.600000,0.500000,2.600000,-0.500000,0.900000,-0.500000,0.400000,-1.000000,-0.400000,-1.000000,-0.900000,-0.500000,-2.600000,-0.500000,-2.600000,0.500000,-0.900000,0.500000,-0.400000,1.000000,0.400000,1.000000,0.900000,0.500000,0.900000,0.500000,$1*%
G04 Aperture macros list end*
%ADD10C,6.400000*%
%ADD11RoundRect,0.250000X-0.350000X-0.450000X0.350000X-0.450000X0.350000X0.450000X-0.350000X0.450000X0*%
%ADD12R,0.800000X2.200000*%
%ADD13R,5.800000X6.400000*%
%ADD14RoundRect,0.250000X0.650000X-0.412500X0.650000X0.412500X-0.650000X0.412500X-0.650000X-0.412500X0*%
%ADD15R,1.800000X1.000000*%
%ADD16R,1.600000X2.200000*%
%ADD17RoundRect,0.250000X-0.337500X-0.475000X0.337500X-0.475000X0.337500X0.475000X-0.337500X0.475000X0*%
%ADD18RoundRect,0.250000X-0.450000X0.350000X-0.450000X-0.350000X0.450000X-0.350000X0.450000X0.350000X0*%
%ADD19RoundRect,0.250000X-0.475000X0.337500X-0.475000X-0.337500X0.475000X-0.337500X0.475000X0.337500X0*%
%ADD20RoundRect,0.250000X0.450000X-0.350000X0.450000X0.350000X-0.450000X0.350000X-0.450000X-0.350000X0*%
%ADD21R,0.300000X1.300000*%
%ADD22R,1.800000X2.200000*%
%ADD23RoundRect,0.250000X1.000000X-1.950000X1.000000X1.950000X-1.000000X1.950000X-1.000000X-1.950000X0*%
%ADD24R,3.500000X1.800000*%
%ADD25RoundRect,0.250000X0.350000X0.450000X-0.350000X0.450000X-0.350000X-0.450000X0.350000X-0.450000X0*%
%ADD26R,1.700000X1.700000*%
%ADD27O,1.700000X1.700000*%
%ADD28RoundRect,0.250000X0.475000X-0.337500X0.475000X0.337500X-0.475000X0.337500X-0.475000X-0.337500X0*%
%ADD29RoundRect,0.250000X0.337500X0.475000X-0.337500X0.475000X-0.337500X-0.475000X0.337500X-0.475000X0*%
%ADD30RoundRect,0.250000X0.412500X0.650000X-0.412500X0.650000X-0.412500X-0.650000X0.412500X-0.650000X0*%
%ADD31RoundRect,0.150000X0.825000X0.150000X-0.825000X0.150000X-0.825000X-0.150000X0.825000X-0.150000X0*%
%ADD32RoundRect,0.250000X1.250000X0.550000X-1.250000X0.550000X-1.250000X-0.550000X1.250000X-0.550000X0*%
%ADD33R,0.458000X1.510000*%
%ADD34RoundRect,0.075000X0.675000X0.075000X-0.675000X0.075000X-0.675000X-0.075000X0.675000X-0.075000X0*%
%ADD35RoundRect,0.075000X0.075000X0.675000X-0.075000X0.675000X-0.075000X-0.675000X0.075000X-0.675000X0*%
%ADD36R,1.300000X1.300000*%
%ADD37C,1.300000*%
%ADD38O,2.900000X1.900000*%
%ADD39O,1.900000X2.900000*%
%ADD40RoundRect,0.150000X-0.825000X-0.150000X0.825000X-0.150000X0.825000X0.150000X-0.825000X0.150000X0*%
%ADD41RoundRect,0.250000X0.400000X0.625000X-0.400000X0.625000X-0.400000X-0.625000X0.400000X-0.625000X0*%
%ADD42R,2.800000X1.000000*%
%ADD43RoundRect,0.062500X-0.062500X0.350000X-0.062500X-0.350000X0.062500X-0.350000X0.062500X0.350000X0*%
%ADD44RoundRect,0.062500X-0.350000X0.062500X-0.350000X-0.062500X0.350000X-0.062500X0.350000X0.062500X0*%
%ADD45R,2.600000X2.600000*%
%ADD46RoundRect,0.100000X-0.712500X-0.100000X0.712500X-0.100000X0.712500X0.100000X-0.712500X0.100000X0*%
%ADD47R,0.900000X1.000000*%
%ADD48C,3.250000*%
%ADD49C,2.600000*%
%ADD50C,1.890000*%
%ADD51R,1.900000X1.900000*%
%ADD52C,1.900000*%
%ADD53C,0.600000*%
%ADD54R,1.160000X0.600000*%
%ADD55R,1.160000X0.300000*%
%ADD56O,1.700000X0.900000*%
%ADD57O,2.000000X0.900000*%
%ADD58R,1.800000X3.500000*%
%ADD59RoundRect,0.250000X-1.050000X-0.550000X1.050000X-0.550000X1.050000X0.550000X-1.050000X0.550000X0*%
%ADD60R,2.000000X3.000000*%
%ADD61R,0.300000X1.600000*%
%ADD62R,2.700000X3.600000*%
%ADD63R,2.000000X0.650000*%
%ADD64R,2.000000X1.300000*%
%ADD65R,2.000000X2.000000*%
%ADD66R,2.600000X8.200000*%
%ADD67R,0.700000X1.500000*%
%ADD68FreePoly0,270.000000*%
%ADD69R,3.000000X3.000000*%
%ADD70C,3.000000*%
G04 APERTURE END LIST*
D10*
%TO.C,REF\u002A\u002A*%
X71000000Y-34000000D03*
%TD*%
D11*
%TO.C,R40*%
X145100000Y-113100000D03*
X147100000Y-113100000D03*
%TD*%
D12*
%TO.C,U5*%
X102245000Y-39475000D03*
X103385000Y-39475000D03*
D13*
X104525000Y-33175000D03*
D12*
X104525000Y-39475000D03*
X105665000Y-39475000D03*
X106805000Y-39475000D03*
%TD*%
D14*
%TO.C,C36*%
X129600000Y-108225000D03*
X129600000Y-105100000D03*
%TD*%
D15*
%TO.C,Y1*%
X123400000Y-88150000D03*
X123400000Y-90650000D03*
%TD*%
D16*
%TO.C,C59*%
X97250000Y-34500000D03*
X97250000Y-37500000D03*
%TD*%
D17*
%TO.C,C34*%
X136062500Y-108000000D03*
X138137500Y-108000000D03*
%TD*%
D18*
%TO.C,R19*%
X144505011Y-56340028D03*
X144505011Y-58340028D03*
%TD*%
D17*
%TO.C,C20*%
X135717511Y-57090028D03*
X137792511Y-57090028D03*
%TD*%
D19*
%TO.C,C15*%
X125600000Y-71362500D03*
X125600000Y-73437500D03*
%TD*%
D17*
%TO.C,C3*%
X87925000Y-69100000D03*
X90000000Y-69100000D03*
%TD*%
D20*
%TO.C,R11*%
X140505011Y-58340028D03*
X140505011Y-56340028D03*
%TD*%
D17*
%TO.C,C57*%
X80062500Y-62500000D03*
X82137500Y-62500000D03*
%TD*%
D19*
%TO.C,C43*%
X143200000Y-74600000D03*
X143200000Y-76675000D03*
%TD*%
%TO.C,C25*%
X142505011Y-62340028D03*
X142505011Y-64415028D03*
%TD*%
D21*
%TO.C,J8*%
X79950000Y-106000000D03*
X80450000Y-106000000D03*
X80950000Y-106000000D03*
X81450000Y-106000000D03*
X81950000Y-106000000D03*
X82450000Y-106000000D03*
D22*
X78050000Y-109250000D03*
X84350000Y-109250000D03*
%TD*%
D23*
%TO.C,C33*%
X136250000Y-40450000D03*
X136250000Y-32050000D03*
%TD*%
D24*
%TO.C,D2*%
X114500000Y-45250000D03*
X119500000Y-45250000D03*
%TD*%
D25*
%TO.C,R23*%
X146705011Y-71540028D03*
X144705011Y-71540028D03*
%TD*%
D26*
%TO.C,J4*%
X67900000Y-49440000D03*
D27*
X67900000Y-51980000D03*
X67900000Y-54520000D03*
X67900000Y-57060000D03*
X67900000Y-59600000D03*
%TD*%
D11*
%TO.C,R21*%
X126400000Y-65000000D03*
X128400000Y-65000000D03*
%TD*%
D10*
%TO.C,REF\u002A\u002A*%
X162000000Y-34000000D03*
%TD*%
D11*
%TO.C,R49*%
X128000000Y-100500000D03*
X130000000Y-100500000D03*
%TD*%
%TO.C,R46*%
X118500000Y-63000000D03*
X120500000Y-63000000D03*
%TD*%
D20*
%TO.C,R13*%
X146505011Y-64340028D03*
X146505011Y-62340028D03*
%TD*%
D28*
%TO.C,C2*%
X93900000Y-64200000D03*
X93900000Y-62125000D03*
%TD*%
D18*
%TO.C,R44*%
X155400000Y-46500000D03*
X155400000Y-48500000D03*
%TD*%
D28*
%TO.C,C12*%
X88700000Y-87700000D03*
X88700000Y-85625000D03*
%TD*%
D29*
%TO.C,C23*%
X128137500Y-90700000D03*
X126062500Y-90700000D03*
%TD*%
D23*
%TO.C,C31*%
X114250000Y-40450000D03*
X114250000Y-32050000D03*
%TD*%
D11*
%TO.C,R9*%
X130600000Y-83000000D03*
X132600000Y-83000000D03*
%TD*%
D18*
%TO.C,R26*%
X156400000Y-78800000D03*
X156400000Y-80800000D03*
%TD*%
D30*
%TO.C,C32*%
X157012500Y-111950000D03*
X153887500Y-111950000D03*
%TD*%
D18*
%TO.C,R16*%
X120005011Y-55940028D03*
X120005011Y-57940028D03*
%TD*%
D31*
%TO.C,U3*%
X97475000Y-114605000D03*
X97475000Y-113335000D03*
X97475000Y-112065000D03*
X97475000Y-110795000D03*
X92525000Y-110795000D03*
X92525000Y-112065000D03*
X92525000Y-113335000D03*
X92525000Y-114605000D03*
%TD*%
D17*
%TO.C,C6*%
X123600000Y-93500000D03*
X125675000Y-93500000D03*
%TD*%
D32*
%TO.C,C44*%
X97000000Y-43800000D03*
X92600000Y-43800000D03*
%TD*%
D33*
%TO.C,U11*%
X73600000Y-59550000D03*
X74400000Y-59550000D03*
X75200000Y-59550000D03*
X76000000Y-59550000D03*
X76800000Y-59550000D03*
X77600000Y-59550000D03*
X78400000Y-59550000D03*
X79200000Y-59550000D03*
X80000000Y-59550000D03*
X80800000Y-59550000D03*
X81600000Y-59550000D03*
X82400000Y-59550000D03*
X83200000Y-59550000D03*
X84000000Y-59550000D03*
X84800000Y-59550000D03*
X85600000Y-59550000D03*
X86400000Y-59550000D03*
X87200000Y-59550000D03*
X88000000Y-59550000D03*
X88800000Y-59550000D03*
X89600000Y-59550000D03*
X90400000Y-59550000D03*
X91200000Y-59550000D03*
X92000000Y-59550000D03*
X92800000Y-59550000D03*
X93600000Y-59550000D03*
X94400000Y-59550000D03*
X94400000Y-48050000D03*
X93600000Y-48050000D03*
X92800000Y-48050000D03*
X92000000Y-48050000D03*
X91200000Y-48050000D03*
X90400000Y-48050000D03*
X89600000Y-48050000D03*
X88800000Y-48050000D03*
X88000000Y-48050000D03*
X87200000Y-48050000D03*
X86400000Y-48050000D03*
X85600000Y-48050000D03*
X84800000Y-48050000D03*
X84000000Y-48050000D03*
X83200000Y-48050000D03*
X82400000Y-48050000D03*
X81600000Y-48050000D03*
X80800000Y-48050000D03*
X80000000Y-48050000D03*
X79200000Y-48050000D03*
X78400000Y-48050000D03*
X77600000Y-48050000D03*
X76800000Y-48050000D03*
X76000000Y-48050000D03*
X75200000Y-48050000D03*
X74400000Y-48050000D03*
X73600000Y-48050000D03*
%TD*%
D28*
%TO.C,C13*%
X87000000Y-75700000D03*
X87000000Y-73625000D03*
%TD*%
D34*
%TO.C,U1*%
X117675000Y-90250000D03*
X117675000Y-89750000D03*
X117675000Y-89250000D03*
X117675000Y-88750000D03*
X117675000Y-88250000D03*
X117675000Y-87750000D03*
X117675000Y-87250000D03*
X117675000Y-86750000D03*
X117675000Y-86250000D03*
X117675000Y-85750000D03*
X117675000Y-85250000D03*
X117675000Y-84750000D03*
X117675000Y-84250000D03*
X117675000Y-83750000D03*
X117675000Y-83250000D03*
X117675000Y-82750000D03*
X117675000Y-82250000D03*
X117675000Y-81750000D03*
X117675000Y-81250000D03*
X117675000Y-80750000D03*
X117675000Y-80250000D03*
X117675000Y-79750000D03*
X117675000Y-79250000D03*
X117675000Y-78750000D03*
X117675000Y-78250000D03*
X117675000Y-77750000D03*
X117675000Y-77250000D03*
X117675000Y-76750000D03*
X117675000Y-76250000D03*
X117675000Y-75750000D03*
X117675000Y-75250000D03*
X117675000Y-74750000D03*
X117675000Y-74250000D03*
X117675000Y-73750000D03*
X117675000Y-73250000D03*
X117675000Y-72750000D03*
X117675000Y-72250000D03*
X117675000Y-71750000D03*
X117675000Y-71250000D03*
X117675000Y-70750000D03*
X117675000Y-70250000D03*
X117675000Y-69750000D03*
X117675000Y-69250000D03*
X117675000Y-68750000D03*
D35*
X115750000Y-66825000D03*
X115250000Y-66825000D03*
X114750000Y-66825000D03*
X114250000Y-66825000D03*
X113750000Y-66825000D03*
X113250000Y-66825000D03*
X112750000Y-66825000D03*
X112250000Y-66825000D03*
X111750000Y-66825000D03*
X111250000Y-66825000D03*
X110750000Y-66825000D03*
X110250000Y-66825000D03*
X109750000Y-66825000D03*
X109250000Y-66825000D03*
X108750000Y-66825000D03*
X108250000Y-66825000D03*
X107750000Y-66825000D03*
X107250000Y-66825000D03*
X106750000Y-66825000D03*
X106250000Y-66825000D03*
X105750000Y-66825000D03*
X105250000Y-66825000D03*
X104750000Y-66825000D03*
X104250000Y-66825000D03*
X103750000Y-66825000D03*
X103250000Y-66825000D03*
X102750000Y-66825000D03*
X102250000Y-66825000D03*
X101750000Y-66825000D03*
X101250000Y-66825000D03*
X100750000Y-66825000D03*
X100250000Y-66825000D03*
X99750000Y-66825000D03*
X99250000Y-66825000D03*
X98750000Y-66825000D03*
X98250000Y-66825000D03*
X97750000Y-66825000D03*
X97250000Y-66825000D03*
X96750000Y-66825000D03*
X96250000Y-66825000D03*
X95750000Y-66825000D03*
X95250000Y-66825000D03*
X94750000Y-66825000D03*
X94250000Y-66825000D03*
D34*
X92325000Y-68750000D03*
X92325000Y-69250000D03*
X92325000Y-69750000D03*
X92325000Y-70250000D03*
X92325000Y-70750000D03*
X92325000Y-71250000D03*
X92325000Y-71750000D03*
X92325000Y-72250000D03*
X92325000Y-72750000D03*
X92325000Y-73250000D03*
X92325000Y-73750000D03*
X92325000Y-74250000D03*
X92325000Y-74750000D03*
X92325000Y-75250000D03*
X92325000Y-75750000D03*
X92325000Y-76250000D03*
X92325000Y-76750000D03*
X92325000Y-77250000D03*
X92325000Y-77750000D03*
X92325000Y-78250000D03*
X92325000Y-78750000D03*
X92325000Y-79250000D03*
X92325000Y-79750000D03*
X92325000Y-80250000D03*
X92325000Y-80750000D03*
X92325000Y-81250000D03*
X92325000Y-81750000D03*
X92325000Y-82250000D03*
X92325000Y-82750000D03*
X92325000Y-83250000D03*
X92325000Y-83750000D03*
X92325000Y-84250000D03*
X92325000Y-84750000D03*
X92325000Y-85250000D03*
X92325000Y-85750000D03*
X92325000Y-86250000D03*
X92325000Y-86750000D03*
X92325000Y-87250000D03*
X92325000Y-87750000D03*
X92325000Y-88250000D03*
X92325000Y-88750000D03*
X92325000Y-89250000D03*
X92325000Y-89750000D03*
X92325000Y-90250000D03*
D35*
X94250000Y-92175000D03*
X94750000Y-92175000D03*
X95250000Y-92175000D03*
X95750000Y-92175000D03*
X96250000Y-92175000D03*
X96750000Y-92175000D03*
X97250000Y-92175000D03*
X97750000Y-92175000D03*
X98250000Y-92175000D03*
X98750000Y-92175000D03*
X99250000Y-92175000D03*
X99750000Y-92175000D03*
X100250000Y-92175000D03*
X100750000Y-92175000D03*
X101250000Y-92175000D03*
X101750000Y-92175000D03*
X102250000Y-92175000D03*
X102750000Y-92175000D03*
X103250000Y-92175000D03*
X103750000Y-92175000D03*
X104250000Y-92175000D03*
X104750000Y-92175000D03*
X105250000Y-92175000D03*
X105750000Y-92175000D03*
X106250000Y-92175000D03*
X106750000Y-92175000D03*
X107250000Y-92175000D03*
X107750000Y-92175000D03*
X108250000Y-92175000D03*
X108750000Y-92175000D03*
X109250000Y-92175000D03*
X109750000Y-92175000D03*
X110250000Y-92175000D03*
X110750000Y-92175000D03*
X111250000Y-92175000D03*
X111750000Y-92175000D03*
X112250000Y-92175000D03*
X112750000Y-92175000D03*
X113250000Y-92175000D03*
X113750000Y-92175000D03*
X114250000Y-92175000D03*
X114750000Y-92175000D03*
X115250000Y-92175000D03*
X115750000Y-92175000D03*
%TD*%
D19*
%TO.C,C16*%
X92400000Y-92700000D03*
X92400000Y-94775000D03*
%TD*%
D36*
%TO.C,J5*%
X153785000Y-84900000D03*
D37*
X153785000Y-82400000D03*
X153785000Y-80400000D03*
X153785000Y-77900000D03*
D38*
X153185000Y-87970000D03*
D39*
X149005000Y-81400000D03*
D38*
X153185000Y-74830000D03*
%TD*%
D17*
%TO.C,C27*%
X93862500Y-116500000D03*
X95937500Y-116500000D03*
%TD*%
D40*
%TO.C,U12*%
X146225000Y-46595000D03*
X146225000Y-47865000D03*
X146225000Y-49135000D03*
X146225000Y-50405000D03*
X151175000Y-50405000D03*
X151175000Y-49135000D03*
X151175000Y-47865000D03*
X151175000Y-46595000D03*
%TD*%
D28*
%TO.C,C1*%
X86600000Y-87725000D03*
X86600000Y-85650000D03*
%TD*%
D29*
%TO.C,C19*%
X127042511Y-56840028D03*
X124967511Y-56840028D03*
%TD*%
D11*
%TO.C,R5*%
X78000000Y-84700000D03*
X80000000Y-84700000D03*
%TD*%
D17*
%TO.C,C42*%
X113125000Y-95800000D03*
X115200000Y-95800000D03*
%TD*%
D25*
%TO.C,R25*%
X146705011Y-69540028D03*
X144705011Y-69540028D03*
%TD*%
%TO.C,R34*%
X94250000Y-30500000D03*
X92250000Y-30500000D03*
%TD*%
D41*
%TO.C,R38*%
X157100000Y-109250000D03*
X154000000Y-109250000D03*
%TD*%
D19*
%TO.C,C35*%
X132900000Y-109825000D03*
X132900000Y-111900000D03*
%TD*%
D20*
%TO.C,R15*%
X144505011Y-64340028D03*
X144505011Y-62340028D03*
%TD*%
D29*
%TO.C,C58*%
X75500000Y-45600000D03*
X73425000Y-45600000D03*
%TD*%
D25*
%TO.C,R33*%
X152000000Y-44700000D03*
X150000000Y-44700000D03*
%TD*%
D17*
%TO.C,C11*%
X113900000Y-63100000D03*
X115975000Y-63100000D03*
%TD*%
D42*
%TO.C,SW2*%
X139900000Y-73400000D03*
X134100000Y-73400000D03*
X134100000Y-77400000D03*
X139900000Y-77400000D03*
%TD*%
D18*
%TO.C,R2*%
X87000000Y-111000000D03*
X87000000Y-113000000D03*
%TD*%
D29*
%TO.C,C26*%
X80075000Y-91500000D03*
X78000000Y-91500000D03*
%TD*%
D11*
%TO.C,R10*%
X125005011Y-48840028D03*
X127005011Y-48840028D03*
%TD*%
D18*
%TO.C,R35*%
X141400000Y-49100000D03*
X141400000Y-51100000D03*
%TD*%
D43*
%TO.C,U2*%
X132755011Y-58022528D03*
X132255011Y-58022528D03*
X131755011Y-58022528D03*
X131255011Y-58022528D03*
X130755011Y-58022528D03*
X130255011Y-58022528D03*
D44*
X129567511Y-58710028D03*
X129567511Y-59210028D03*
X129567511Y-59710028D03*
X129567511Y-60210028D03*
X129567511Y-60710028D03*
X129567511Y-61210028D03*
D43*
X130255011Y-61897528D03*
X130755011Y-61897528D03*
X131255011Y-61897528D03*
X131755011Y-61897528D03*
X132255011Y-61897528D03*
X132755011Y-61897528D03*
D44*
X133442511Y-61210028D03*
X133442511Y-60710028D03*
X133442511Y-60210028D03*
X133442511Y-59710028D03*
X133442511Y-59210028D03*
X133442511Y-58710028D03*
D45*
X131505011Y-59960028D03*
%TD*%
D23*
%TO.C,C38*%
X125250000Y-40450000D03*
X125250000Y-32050000D03*
%TD*%
D11*
%TO.C,R48*%
X134500000Y-119500000D03*
X136500000Y-119500000D03*
%TD*%
D10*
%TO.C,REF\u002A\u002A*%
X71000000Y-120000000D03*
%TD*%
D18*
%TO.C,R1*%
X89000000Y-112200000D03*
X89000000Y-114200000D03*
%TD*%
D46*
%TO.C,U10*%
X136187500Y-109925000D03*
X136187500Y-110575000D03*
X136187500Y-111225000D03*
X136187500Y-111875000D03*
X140412500Y-111875000D03*
X140412500Y-111225000D03*
X140412500Y-110575000D03*
X140412500Y-109925000D03*
%TD*%
D29*
%TO.C,C30*%
X143300000Y-108000000D03*
X141225000Y-108000000D03*
%TD*%
D28*
%TO.C,C5*%
X95900000Y-64200000D03*
X95900000Y-62125000D03*
%TD*%
D29*
%TO.C,C8*%
X109975000Y-96200000D03*
X107900000Y-96200000D03*
%TD*%
D25*
%TO.C,R32*%
X100400000Y-116500000D03*
X98400000Y-116500000D03*
%TD*%
D20*
%TO.C,R42*%
X107250000Y-45500000D03*
X107250000Y-43500000D03*
%TD*%
D11*
%TO.C,R37*%
X142200000Y-53000000D03*
X144200000Y-53000000D03*
%TD*%
D18*
%TO.C,R39*%
X143200000Y-111200000D03*
X143200000Y-113200000D03*
%TD*%
D17*
%TO.C,C53*%
X84462500Y-45800000D03*
X86537500Y-45800000D03*
%TD*%
%TO.C,C7*%
X100100000Y-60400000D03*
X102175000Y-60400000D03*
%TD*%
D42*
%TO.C,SW1*%
X82500000Y-100400000D03*
X76700000Y-100400000D03*
X82500000Y-96400000D03*
X76700000Y-96400000D03*
%TD*%
D18*
%TO.C,R22*%
X146505011Y-56340028D03*
X146505011Y-58340028D03*
%TD*%
D17*
%TO.C,C17*%
X135180011Y-62840028D03*
X137255011Y-62840028D03*
%TD*%
D18*
%TO.C,R45*%
X109250000Y-43500000D03*
X109250000Y-45500000D03*
%TD*%
D11*
%TO.C,R3*%
X78900000Y-69500000D03*
X80900000Y-69500000D03*
%TD*%
D47*
%TO.C,X1*%
X112025000Y-54825000D03*
X112025000Y-56975000D03*
X113575000Y-56975000D03*
X113575000Y-54825000D03*
%TD*%
D20*
%TO.C,R4*%
X74000000Y-67500000D03*
X74000000Y-65500000D03*
%TD*%
D26*
%TO.C,J10*%
X136075000Y-95525000D03*
D27*
X136075000Y-92985000D03*
X136075000Y-90445000D03*
%TD*%
D11*
%TO.C,R20*%
X127800000Y-67700000D03*
X129800000Y-67700000D03*
%TD*%
%TO.C,R6*%
X78800000Y-87500000D03*
X80800000Y-87500000D03*
%TD*%
D20*
%TO.C,R36*%
X91250000Y-99000000D03*
X91250000Y-97000000D03*
%TD*%
D17*
%TO.C,C9*%
X107125000Y-62700000D03*
X109200000Y-62700000D03*
%TD*%
%TO.C,C45*%
X104162500Y-53600000D03*
X106237500Y-53600000D03*
%TD*%
D29*
%TO.C,C37*%
X139500000Y-113700000D03*
X137425000Y-113700000D03*
%TD*%
%TO.C,C21*%
X127012511Y-52840028D03*
X124937511Y-52840028D03*
%TD*%
D20*
%TO.C,R18*%
X123205011Y-62940028D03*
X123205011Y-60940028D03*
%TD*%
D48*
%TO.C,J7*%
X158810011Y-54735028D03*
X158810011Y-66175028D03*
D49*
X155760011Y-68210028D03*
X155760011Y-52710028D03*
D50*
X163710011Y-53835028D03*
X163710011Y-56375028D03*
X163710011Y-64532528D03*
X163710011Y-67072528D03*
D51*
X152450011Y-64910028D03*
D52*
X149910011Y-63640028D03*
X152450011Y-62370028D03*
X149910011Y-61100028D03*
X152450011Y-59830028D03*
X149910011Y-58560028D03*
X152450011Y-57290028D03*
X149910011Y-56020028D03*
%TD*%
D29*
%TO.C,C18*%
X127005011Y-54840028D03*
X124930011Y-54840028D03*
%TD*%
D25*
%TO.C,R30*%
X98250000Y-30500000D03*
X96250000Y-30500000D03*
%TD*%
D20*
%TO.C,R24*%
X125255011Y-62540028D03*
X125255011Y-60540028D03*
%TD*%
D17*
%TO.C,C54*%
X89000000Y-63200000D03*
X91075000Y-63200000D03*
%TD*%
D53*
%TO.C,J6*%
X161875000Y-85090000D03*
X161875000Y-79310000D03*
D54*
X160815000Y-85400000D03*
X160815000Y-84600000D03*
D55*
X160815000Y-83450000D03*
X160815000Y-82450000D03*
X160815000Y-81950000D03*
X160815000Y-80950000D03*
D54*
X160815000Y-79800000D03*
X160815000Y-79000000D03*
X160815000Y-79000000D03*
X160815000Y-79800000D03*
D55*
X160815000Y-80450000D03*
X160815000Y-81450000D03*
X160815000Y-82950000D03*
X160815000Y-83950000D03*
D54*
X160815000Y-84600000D03*
X160815000Y-85400000D03*
D56*
X165565000Y-77880000D03*
D57*
X161395000Y-86520000D03*
D56*
X165565000Y-86520000D03*
D57*
X161395000Y-77880000D03*
%TD*%
D29*
%TO.C,C10*%
X101400000Y-96600000D03*
X99325000Y-96600000D03*
%TD*%
D10*
%TO.C,REF\u002A\u002A*%
X162000000Y-120000000D03*
%TD*%
D17*
%TO.C,C4*%
X120862500Y-79700000D03*
X122937500Y-79700000D03*
%TD*%
D29*
%TO.C,C40*%
X128075000Y-87800000D03*
X126000000Y-87800000D03*
%TD*%
D58*
%TO.C,D1*%
X160350000Y-111550000D03*
X160350000Y-106550000D03*
%TD*%
D28*
%TO.C,C24*%
X142505011Y-58377528D03*
X142505011Y-56302528D03*
%TD*%
D18*
%TO.C,R28*%
X109000000Y-52500000D03*
X109000000Y-54500000D03*
%TD*%
D59*
%TO.C,C48*%
X89400000Y-38000000D03*
X93000000Y-38000000D03*
%TD*%
D11*
%TO.C,R12*%
X136205011Y-50540028D03*
X138205011Y-50540028D03*
%TD*%
D17*
%TO.C,C49*%
X88675000Y-41750000D03*
X90750000Y-41750000D03*
%TD*%
D12*
%TO.C,U9*%
X143220000Y-40200000D03*
X144360000Y-40200000D03*
D13*
X145500000Y-33900000D03*
D12*
X145500000Y-40200000D03*
X146640000Y-40200000D03*
X147780000Y-40200000D03*
%TD*%
D11*
%TO.C,R51*%
X128000000Y-102500000D03*
X130000000Y-102500000D03*
%TD*%
%TO.C,R27*%
X80200000Y-93700000D03*
X82200000Y-93700000D03*
%TD*%
D60*
%TO.C,J9*%
X102150000Y-113430000D03*
X129850000Y-113430000D03*
D61*
X128250000Y-111330000D03*
X127750000Y-111330000D03*
X127250000Y-111330000D03*
X126750000Y-111330000D03*
X126250000Y-111330000D03*
X125750000Y-111330000D03*
X125250000Y-111330000D03*
X124750000Y-111330000D03*
X124250000Y-111330000D03*
X123750000Y-111330000D03*
X123250000Y-111330000D03*
X122750000Y-111330000D03*
X122250000Y-111330000D03*
X121750000Y-111330000D03*
X121250000Y-111330000D03*
X120750000Y-111330000D03*
X120250000Y-111330000D03*
X119750000Y-111330000D03*
X119250000Y-111330000D03*
X118750000Y-111330000D03*
X118250000Y-111330000D03*
X117750000Y-111330000D03*
X117250000Y-111330000D03*
X116750000Y-111330000D03*
X116250000Y-111330000D03*
X115750000Y-111330000D03*
X115250000Y-111330000D03*
X114750000Y-111330000D03*
X114250000Y-111330000D03*
X113750000Y-111330000D03*
X113250000Y-111330000D03*
X112750000Y-111330000D03*
X112250000Y-111330000D03*
X111750000Y-111330000D03*
X111250000Y-111330000D03*
X110750000Y-111330000D03*
X110250000Y-111330000D03*
X109750000Y-111330000D03*
X109250000Y-111330000D03*
X108750000Y-111330000D03*
X108250000Y-111330000D03*
X107750000Y-111330000D03*
X107250000Y-111330000D03*
X106750000Y-111330000D03*
X106250000Y-111330000D03*
X105750000Y-111330000D03*
X105250000Y-111330000D03*
X104750000Y-111330000D03*
X104250000Y-111330000D03*
X103750000Y-111330000D03*
%TD*%
D62*
%TO.C,L3*%
X85650000Y-35000000D03*
X77350000Y-35000000D03*
%TD*%
D17*
%TO.C,C56*%
X88212500Y-30500000D03*
X90287500Y-30500000D03*
%TD*%
%TO.C,C55*%
X71362500Y-62200000D03*
X73437500Y-62200000D03*
%TD*%
%TO.C,C14*%
X85825000Y-79900000D03*
X87900000Y-79900000D03*
%TD*%
D25*
%TO.C,R47*%
X120500000Y-65000000D03*
X118500000Y-65000000D03*
%TD*%
D28*
%TO.C,C51*%
X150500000Y-38000000D03*
X150500000Y-35925000D03*
%TD*%
D63*
%TO.C,U6*%
X93420000Y-34500000D03*
X93420000Y-33550000D03*
X93420000Y-32600000D03*
X90000000Y-32600000D03*
X90000000Y-33550000D03*
X90000000Y-34500000D03*
%TD*%
D11*
%TO.C,R8*%
X130600000Y-85000000D03*
X132600000Y-85000000D03*
%TD*%
D18*
%TO.C,R41*%
X146100000Y-52400000D03*
X146100000Y-54400000D03*
%TD*%
D26*
%TO.C,J3*%
X88475000Y-108175000D03*
D27*
X91015000Y-108175000D03*
X93555000Y-108175000D03*
X96095000Y-108175000D03*
X98635000Y-108175000D03*
X101175000Y-108175000D03*
%TD*%
D64*
%TO.C,R31*%
X105500000Y-104650000D03*
D65*
X109500000Y-103500000D03*
D64*
X105500000Y-102350000D03*
%TD*%
D19*
%TO.C,C41*%
X121900000Y-82200000D03*
X121900000Y-84275000D03*
%TD*%
D66*
%TO.C,L1*%
X160000000Y-96700000D03*
X154400000Y-96700000D03*
%TD*%
D25*
%TO.C,R7*%
X123500000Y-73600000D03*
X121500000Y-73600000D03*
%TD*%
D29*
%TO.C,C22*%
X127012511Y-50840028D03*
X124937511Y-50840028D03*
%TD*%
D67*
%TO.C,U8*%
X157000000Y-102700000D03*
D68*
X155500000Y-104550000D03*
D67*
X154000000Y-102700000D03*
X154000000Y-106400000D03*
X157000000Y-106400000D03*
%TD*%
D18*
%TO.C,R14*%
X117805011Y-56840028D03*
X117805011Y-58840028D03*
%TD*%
%TO.C,R43*%
X155400000Y-42600000D03*
X155400000Y-44600000D03*
%TD*%
D28*
%TO.C,C29*%
X143500000Y-51137500D03*
X143500000Y-49062500D03*
%TD*%
D11*
%TO.C,R50*%
X145500000Y-108000000D03*
X147500000Y-108000000D03*
%TD*%
D17*
%TO.C,C52*%
X84062500Y-63800000D03*
X86137500Y-63800000D03*
%TD*%
D11*
%TO.C,R29*%
X76100000Y-93700000D03*
X78100000Y-93700000D03*
%TD*%
D69*
%TO.C,J1*%
X162000000Y-46540000D03*
D70*
X162000000Y-41460000D03*
%TD*%
D11*
%TO.C,R17*%
X136205011Y-53340028D03*
X138205011Y-53340028D03*
%TD*%
D26*
%TO.C,J2*%
X70600000Y-65300000D03*
D27*
X68060000Y-65300000D03*
X70600000Y-67840000D03*
X68060000Y-67840000D03*
X70600000Y-70380000D03*
X68060000Y-70380000D03*
X70600000Y-72920000D03*
X68060000Y-72920000D03*
X70600000Y-75460000D03*
X68060000Y-75460000D03*
X70600000Y-78000000D03*
X68060000Y-78000000D03*
X70600000Y-80540000D03*
X68060000Y-80540000D03*
X70600000Y-83080000D03*
X68060000Y-83080000D03*
X70600000Y-85620000D03*
X68060000Y-85620000D03*
X70600000Y-88160000D03*
X68060000Y-88160000D03*
X70600000Y-90700000D03*
X68060000Y-90700000D03*
X70600000Y-93240000D03*
X68060000Y-93240000D03*
X70600000Y-95780000D03*
X68060000Y-95780000D03*
X70600000Y-98320000D03*
X68060000Y-98320000D03*
X70600000Y-100860000D03*
X68060000Y-100860000D03*
X70600000Y-103400000D03*
X68060000Y-103400000D03*
X70600000Y-105940000D03*
X68060000Y-105940000D03*
X70600000Y-108480000D03*
X68060000Y-108480000D03*
X70600000Y-111020000D03*
X68060000Y-111020000D03*
X70600000Y-113560000D03*
X68060000Y-113560000D03*
%TD*%
M02*
