<?xml version="1.0" standalone="no"?>
 <!DOCTYPE svg PUBLIC "-//W3C//DTD SVG 1.1//EN" 
 "http://www.w3.org/Graphics/SVG/1.1/DTD/svg11.dtd"> 
<svg
  xmlns:svg="http://www.w3.org/2000/svg"
  xmlns="http://www.w3.org/2000/svg"
  xmlns:xlink="http://www.w3.org/1999/xlink"
  version="1.1"
  width="21.719540cm" height="12.877800cm" viewBox="0 0 217195400 128778000">
<title>SVG Picture created as Controller Front-Edge_Cuts.svg date 2021/04/15 20:19:40 </title>
  <desc>Picture generated by PCBNEW </desc>
<g style="fill:#000000; fill-opacity:1.000000;stroke:#000000; stroke-opacity:1.000000;
stroke-linecap:round; stroke-linejoin:round;"
 transform="translate(0 0) scale(1 1)">
</g>
<g style="fill:#000000; fill-opacity:0.0; 
stroke:#000000; stroke-width:0.000000; stroke-opacity:1; 
stroke-linecap:round; stroke-linejoin:round;">
</g>
<g style="fill:#000000; fill-opacity:0.0; 
stroke:#000000; stroke-width:100000.000000; stroke-opacity:1; 
stroke-linecap:round; stroke-linejoin:round;">
<circle cx="196100000.000000" cy="85700000.000000" r="17500000.000000" /> 
<circle cx="108600000.000000" cy="3200000.000000" r="1600000.000000" /> 
<circle cx="108600000.000000" cy="125700000.000000" r="1600000.000000" /> 
<circle cx="5100000.000000" cy="26200000.000000" r="1600000.000000" /> 
<circle cx="212100000.000000" cy="125700000.000000" r="1600000.000000" /> 
<circle cx="5100000.000000" cy="3200000.000000" r="1600000.000000" /> 
<path d="M217100000 128700000
L100000 128700000
" />
<path d="M100000 128700000
L100000 200000
" />
<path d="M100000 200000
L217100000 200000
" />
<path d="M217100000 200000
L217100000 128700000
" />
<path d="M15100000 21200000
L170100000 21200000
" />
<path d="M170100000 21200000
L170100000 107700000
" />
<path d="M170100000 107700000
L15100000 107700000
" />
<path d="M15100000 107700000
L15100000 21200000
" />
<circle cx="212100000.000000" cy="102700000.000000" r="1600000.000000" /> 
<circle cx="5100000.000000" cy="125700000.000000" r="1600000.000000" /> 
<circle cx="5100000.000000" cy="102700000.000000" r="1600000.000000" /> 
<circle cx="212100000.000000" cy="3200000.000000" r="1600000.000000" /> 
<circle cx="180100000.000000" cy="102700000.000000" r="1600000.000000" /> 
<circle cx="208100000.000000" cy="40700000.000000" r="1600000.000000" /> 
<path d="M188100000 36200000
L204100000 36200000
" />
<path d="M204100000 36200000
L204100000 45200000
" />
<path d="M204100000 45200000
L188100000 45200000
" />
<path d="M188100000 45200000
L188100000 36200000
" />
<circle cx="180100000.000000" cy="26200000.000000" r="1600000.000000" /> 
<circle cx="184100000.000000" cy="40700000.000000" r="1600000.000000" /> 
<circle cx="212100000.000000" cy="26200000.000000" r="1600000.000000" /> 
<g >
</g>
<g >
</g>
<g >
</g>
</g> 
</svg>
