<?xml version="1.0" standalone="no"?>
 <!DOCTYPE svg PUBLIC "-//W3C//DTD SVG 1.1//EN" 
 "http://www.w3.org/Graphics/SVG/1.1/DTD/svg11.dtd"> 
<svg
  xmlns:svg="http://www.w3.org/2000/svg"
  xmlns="http://www.w3.org/2000/svg"
  xmlns:xlink="http://www.w3.org/1999/xlink"
  version="1.1"
  width="29.700220cm" height="21.000720cm" viewBox="0 0 116930 82680">
<title>SVG Picture created as PowerBoard 1-TempSens.svg date 2021/05/20 17:19:01 </title>
  <desc>Picture generated by Eeschema-SVG </desc>
<g style="fill:#000000; fill-opacity:1.000000;stroke:#000000; stroke-opacity:1.000000;
stroke-linecap:round; stroke-linejoin:round;"
 transform="translate(0 0) scale(1 1)">
</g>
<g style="fill:#840000; fill-opacity:0.0; 
stroke:#840000; stroke-width:0.000000; stroke-opacity:1; 
stroke-linecap:round; stroke-linejoin:round;">
</g>
<g style="fill:#840000; fill-opacity:0.0; 
stroke:#840000; stroke-width:59.842520; stroke-opacity:1; 
stroke-linecap:round; stroke-linejoin:round;">
<rect x="69685.905512" y="65357.165354" width="42519.685039" height="12598.425197" rx="0.000000" />
<rect x="3937.007874" y="3937.007874" width="109055.984252" height="74805.984252" rx="0.000000" />
<rect x="4724.409449" y="4724.409449" width="107481.181102" height="73231.181102" rx="0.000000" />
<path d="M23622 4724
L23622 3937
" />
<path d="M43307 4724
L43307 3937
" />
<path d="M62992 4724
L62992 3937
" />
<path d="M82677 4724
L82677 3937
" />
<path d="M102362 4724
L102362 3937
" />
<text x="13779.527559" y="4586.614173"
textLength="549.960630" font-size="682.401575" lengthAdjust="spacingAndGlyphs"
text-anchor="start" opacity="0">1</text>
<g class="stroked-text"><desc>1</desc>
<path d="M14199 4562
L13906 4562
" />
<path d="M14053 4562
L14053 4050
L14004 4123
L13955 4172
L13906 4196
" />
</g><text x="33464.566929" y="4586.614173"
textLength="547.283465" font-size="682.401575" lengthAdjust="spacingAndGlyphs"
text-anchor="start" opacity="0">2</text>
<g class="stroked-text"><desc>2</desc>
<path d="M33591 4099
L33616 4074
L33665 4050
L33786 4050
L33835 4074
L33860 4099
L33884 4147
L33884 4196
L33860 4269
L33567 4562
L33884 4562
" />
</g><text x="53149.606299" y="4586.614173"
textLength="547.283465" font-size="682.401575" lengthAdjust="spacingAndGlyphs"
text-anchor="start" opacity="0">3</text>
<g class="stroked-text"><desc>3</desc>
<path d="M53252 4050
L53569 4050
L53398 4245
L53471 4245
L53520 4269
L53545 4294
L53569 4342
L53569 4464
L53545 4513
L53520 4537
L53471 4562
L53325 4562
L53277 4537
L53252 4513
" />
</g><text x="72834.645669" y="4586.614173"
textLength="547.283465" font-size="682.401575" lengthAdjust="spacingAndGlyphs"
text-anchor="start" opacity="0">4</text>
<g class="stroked-text"><desc>4</desc>
<path d="M73205 4221
L73205 4562
" />
<path d="M73083 4026
L72962 4391
L73278 4391
" />
</g><text x="92519.685039" y="4586.614173"
textLength="547.283465" font-size="682.401575" lengthAdjust="spacingAndGlyphs"
text-anchor="start" opacity="0">5</text>
<g class="stroked-text"><desc>5</desc>
<path d="M92915 4050
L92671 4050
L92647 4294
L92671 4269
L92720 4245
L92842 4245
L92890 4269
L92915 4294
L92939 4342
L92939 4464
L92915 4513
L92890 4537
L92842 4562
L92720 4562
L92671 4537
L92647 4513
" />
</g><text x="112204.724409" y="4586.614173"
textLength="547.283465" font-size="682.401575" lengthAdjust="spacingAndGlyphs"
text-anchor="start" opacity="0">6</text>
<g class="stroked-text"><desc>6</desc>
<path d="M112575 4050
L112478 4050
L112429 4074
L112405 4099
L112356 4172
L112332 4269
L112332 4464
L112356 4513
L112380 4537
L112429 4562
L112527 4562
L112575 4537
L112600 4513
L112624 4464
L112624 4342
L112600 4294
L112575 4269
L112527 4245
L112429 4245
L112380 4269
L112356 4294
L112332 4342
" />
</g><path d="M23622 77955
L23622 78742
" />
<path d="M43307 77955
L43307 78742
" />
<path d="M62992 77955
L62992 78742
" />
<path d="M82677 77955
L82677 78742
" />
<path d="M102362 77955
L102362 78742
" />
<text x="13779.527559" y="78605.196850"
textLength="547.283465" font-size="682.401575" lengthAdjust="spacingAndGlyphs"
text-anchor="start" opacity="0">1</text>
<g class="stroked-text"><desc>1</desc>
<path d="M14199 78580
L13906 78580
" />
<path d="M14053 78580
L14053 78068
L14004 78142
L13955 78190
L13906 78215
" />
</g><text x="33464.566929" y="78605.196850"
textLength="547.283465" font-size="682.401575" lengthAdjust="spacingAndGlyphs"
text-anchor="start" opacity="0">2</text>
<g class="stroked-text"><desc>2</desc>
<path d="M33591 78117
L33616 78093
L33665 78068
L33786 78068
L33835 78093
L33860 78117
L33884 78166
L33884 78215
L33860 78288
L33567 78580
L33884 78580
" />
</g><text x="53149.606299" y="78605.196850"
textLength="547.283465" font-size="682.401575" lengthAdjust="spacingAndGlyphs"
text-anchor="start" opacity="0">3</text>
<g class="stroked-text"><desc>3</desc>
<path d="M53252 78068
L53569 78068
L53398 78263
L53471 78263
L53520 78288
L53545 78312
L53569 78361
L53569 78483
L53545 78532
L53520 78556
L53471 78580
L53325 78580
L53277 78556
L53252 78532
" />
</g><text x="72834.645669" y="78605.196850"
textLength="547.283465" font-size="682.401575" lengthAdjust="spacingAndGlyphs"
text-anchor="start" opacity="0">4</text>
<g class="stroked-text"><desc>4</desc>
<path d="M73205 78239
L73205 78580
" />
<path d="M73083 78044
L72962 78410
L73278 78410
" />
</g><text x="92519.685039" y="78605.196850"
textLength="547.283465" font-size="682.401575" lengthAdjust="spacingAndGlyphs"
text-anchor="start" opacity="0">5</text>
<g class="stroked-text"><desc>5</desc>
<path d="M92915 78068
L92671 78068
L92647 78312
L92671 78288
L92720 78263
L92842 78263
L92890 78288
L92915 78312
L92939 78361
L92939 78483
L92915 78532
L92890 78556
L92842 78580
L92720 78580
L92671 78556
L92647 78532
" />
</g><text x="112204.724409" y="78605.196850"
textLength="547.283465" font-size="682.401575" lengthAdjust="spacingAndGlyphs"
text-anchor="start" opacity="0">6</text>
<g class="stroked-text"><desc>6</desc>
<path d="M112575 78068
L112478 78068
L112429 78093
L112405 78117
L112356 78190
L112332 78288
L112332 78483
L112356 78532
L112380 78556
L112429 78580
L112527 78580
L112575 78556
L112600 78532
L112624 78483
L112624 78361
L112600 78312
L112575 78288
L112527 78263
L112429 78263
L112380 78288
L112356 78312
L112332 78361
" />
</g><path d="M3937 23622
L4724 23622
" />
<path d="M3937 43307
L4724 43307
" />
<path d="M3937 62992
L4724 62992
" />
<text x="4330.708661" y="14035.433071"
textLength="498.543307" font-size="682.401575" lengthAdjust="spacingAndGlyphs"
text-anchor="middle" opacity="0">A</text>
<g class="stroked-text"><desc>A</desc>
<path d="M4208 13864
L4452 13864
" />
<path d="M4160 14011
L4330 13499
L4501 14011
" />
</g><text x="4330.708661" y="33720.472441"
textLength="571.653543" font-size="682.401575" lengthAdjust="spacingAndGlyphs"
text-anchor="middle" opacity="0">B</text>
<g class="stroked-text"><desc>B</desc>
<path d="M4367 33427
L4440 33452
L4464 33476
L4489 33525
L4489 33598
L4464 33647
L4440 33671
L4391 33696
L4196 33696
L4196 33184
L4367 33184
L4415 33208
L4440 33233
L4464 33281
L4464 33330
L4440 33379
L4415 33403
L4367 33427
L4196 33427
" />
</g><text x="4330.708661" y="53405.511811"
textLength="571.653543" font-size="682.401575" lengthAdjust="spacingAndGlyphs"
text-anchor="middle" opacity="0">C</text>
<g class="stroked-text"><desc>C</desc>
<path d="M4489 53332
L4464 53356
L4391 53381
L4342 53381
L4269 53356
L4221 53307
L4196 53259
L4172 53161
L4172 53088
L4196 52991
L4221 52942
L4269 52893
L4342 52869
L4391 52869
L4464 52893
L4489 52918
" />
</g><text x="4330.708661" y="73090.551181"
textLength="571.653543" font-size="682.401575" lengthAdjust="spacingAndGlyphs"
text-anchor="middle" opacity="0">D</text>
<g class="stroked-text"><desc>D</desc>
<path d="M4196 73066
L4196 72554
L4318 72554
L4391 72578
L4440 72627
L4464 72676
L4489 72773
L4489 72846
L4464 72944
L4440 72993
L4391 73041
L4318 73066
L4196 73066
" />
</g><path d="M112992 23622
L112205 23622
" />
<path d="M112992 43307
L112205 43307
" />
<path d="M112992 62992
L112205 62992
" />
<text x="112599.291339" y="14035.433071"
textLength="498.543307" font-size="682.401575" lengthAdjust="spacingAndGlyphs"
text-anchor="middle" opacity="0">A</text>
<g class="stroked-text"><desc>A</desc>
<path d="M112477 13864
L112721 13864
" />
<path d="M112428 14011
L112599 13499
L112769 14011
" />
</g><text x="112599.291339" y="33720.472441"
textLength="571.653543" font-size="682.401575" lengthAdjust="spacingAndGlyphs"
text-anchor="middle" opacity="0">B</text>
<g class="stroked-text"><desc>B</desc>
<path d="M112635 33427
L112708 33452
L112733 33476
L112757 33525
L112757 33598
L112733 33647
L112708 33671
L112660 33696
L112465 33696
L112465 33184
L112635 33184
L112684 33208
L112708 33233
L112733 33281
L112733 33330
L112708 33379
L112684 33403
L112635 33427
L112465 33427
" />
</g><text x="112599.291339" y="53405.511811"
textLength="571.653543" font-size="682.401575" lengthAdjust="spacingAndGlyphs"
text-anchor="middle" opacity="0">C</text>
<g class="stroked-text"><desc>C</desc>
<path d="M112757 53332
L112733 53356
L112660 53381
L112611 53381
L112538 53356
L112489 53307
L112465 53259
L112440 53161
L112440 53088
L112465 52991
L112489 52942
L112538 52893
L112611 52869
L112660 52869
L112733 52893
L112757 52918
" />
</g><text x="112599.291339" y="73090.551181"
textLength="571.653543" font-size="682.401575" lengthAdjust="spacingAndGlyphs"
text-anchor="middle" opacity="0">D</text>
<g class="stroked-text"><desc>D</desc>
<path d="M112465 73066
L112465 72554
L112587 72554
L112660 72578
L112708 72627
L112733 72676
L112757 72773
L112757 72846
L112733 72944
L112708 72993
L112660 73041
L112587 73066
L112465 73066
" />
</g><text x="78741.023622" y="76321.732283"
textLength="2759.488189" font-size="787.401575" lengthAdjust="spacingAndGlyphs"
text-anchor="start" opacity="0">Date: </text>
<g class="stroked-text"><desc>Date: </desc>
<path d="M78911 76293
L78911 75703
L79052 75703
L79136 75731
L79192 75787
L79220 75843
L79248 75956
L79248 76040
L79220 76152
L79192 76209
L79136 76265
L79052 76293
L78911 76293
" />
<path d="M79755 76293
L79755 75984
L79727 75928
L79670 75899
L79558 75899
L79502 75928
" />
<path d="M79755 76265
L79698 76293
L79558 76293
L79502 76265
L79473 76209
L79473 76152
L79502 76096
L79558 76068
L79698 76068
L79755 76040
" />
<path d="M79952 75899
L80177 75899
" />
<path d="M80036 75703
L80036 76209
L80064 76265
L80120 76293
L80177 76293
" />
<path d="M80598 76265
L80542 76293
L80430 76293
L80373 76265
L80345 76209
L80345 75984
L80373 75928
L80430 75899
L80542 75899
L80598 75928
L80626 75984
L80626 76040
L80345 76096
" />
<path d="M80880 76237
L80908 76265
L80880 76293
L80851 76265
L80880 76237
L80880 76293
" />
<path d="M80880 75928
L80908 75956
L80880 75984
L80851 75956
L80880 75928
L80880 75984
" />
</g><path d="M69685 76577
L112205 76577
" />
<text x="70079.606299" y="77424.094488"
textLength="22641.377953" font-size="787.401575" lengthAdjust="spacingAndGlyphs"
text-anchor="start" opacity="0">KiCad E.D.A.  kicad (5.99.0-9544-g366189b864)</text>
<g class="stroked-text"><desc>KiCad E.D.A.  kicad (5.99.0-9544-g366189b864)</desc>
<path d="M70250 77395
L70250 76805
" />
<path d="M70587 77395
L70334 77058
" />
<path d="M70587 76805
L70250 77142
" />
<path d="M70840 77395
L70840 77002
" />
<path d="M70840 76805
L70812 76833
L70840 76861
L70868 76833
L70840 76805
L70840 76861
" />
<path d="M71459 77339
L71431 77367
L71346 77395
L71290 77395
L71206 77367
L71150 77311
L71121 77255
L71093 77142
L71093 77058
L71121 76946
L71150 76889
L71206 76833
L71290 76805
L71346 76805
L71431 76833
L71459 76861
" />
<path d="M71965 77395
L71965 77086
L71937 77030
L71881 77002
L71768 77002
L71712 77030
" />
<path d="M71965 77367
L71909 77395
L71768 77395
L71712 77367
L71684 77311
L71684 77255
L71712 77199
L71768 77170
L71909 77170
L71965 77142
" />
<path d="M72499 77395
L72499 76805
" />
<path d="M72499 77367
L72443 77395
L72331 77395
L72274 77367
L72246 77339
L72218 77283
L72218 77114
L72246 77058
L72274 77030
L72331 77002
L72443 77002
L72499 77030
" />
<path d="M73230 77086
L73427 77086
" />
<path d="M73512 77395
L73230 77395
L73230 76805
L73512 76805
" />
<path d="M73765 77339
L73793 77367
L73765 77395
L73737 77367
L73765 77339
L73765 77395
" />
<path d="M74046 77395
L74046 76805
L74187 76805
L74271 76833
L74327 76889
L74355 76946
L74383 77058
L74383 77142
L74355 77255
L74327 77311
L74271 77367
L74187 77395
L74046 77395
" />
<path d="M74637 77339
L74665 77367
L74637 77395
L74608 77367
L74637 77339
L74637 77395
" />
<path d="M74890 77227
L75171 77227
" />
<path d="M74833 77395
L75030 76805
L75227 77395
" />
<path d="M75424 77339
L75452 77367
L75424 77395
L75396 77367
L75424 77339
L75424 77395
" />
<path d="M76605 77395
L76605 76805
" />
<path d="M76661 77170
L76830 77395
" />
<path d="M76830 77002
L76605 77227
" />
<path d="M77083 77395
L77083 77002
" />
<path d="M77083 76805
L77055 76833
L77083 76861
L77111 76833
L77083 76805
L77083 76861
" />
<path d="M77617 77367
L77561 77395
L77449 77395
L77392 77367
L77364 77339
L77336 77283
L77336 77114
L77364 77058
L77392 77030
L77449 77002
L77561 77002
L77617 77030
" />
<path d="M78124 77395
L78124 77086
L78096 77030
L78039 77002
L77927 77002
L77871 77030
" />
<path d="M78124 77367
L78067 77395
L77927 77395
L77871 77367
L77842 77311
L77842 77255
L77871 77199
L77927 77170
L78067 77170
L78124 77142
" />
<path d="M78658 77395
L78658 76805
" />
<path d="M78658 77367
L78602 77395
L78489 77395
L78433 77367
L78405 77339
L78377 77283
L78377 77114
L78405 77058
L78433 77030
L78489 77002
L78602 77002
L78658 77030
" />
<path d="M79558 77620
L79530 77592
L79473 77508
L79445 77452
L79417 77367
L79389 77227
L79389 77114
L79417 76974
L79445 76889
L79473 76833
L79530 76749
L79558 76721
" />
<path d="M80064 76805
L79783 76805
L79755 77086
L79783 77058
L79839 77030
L79980 77030
L80036 77058
L80064 77086
L80092 77142
L80092 77283
L80064 77339
L80036 77367
L79980 77395
L79839 77395
L79783 77367
L79755 77339
" />
<path d="M80345 77339
L80373 77367
L80345 77395
L80317 77367
L80345 77339
L80345 77395
" />
<path d="M80655 77395
L80767 77395
L80823 77367
L80851 77339
L80908 77255
L80936 77142
L80936 76917
L80908 76861
L80880 76833
L80823 76805
L80711 76805
L80655 76833
L80626 76861
L80598 76917
L80598 77058
L80626 77114
L80655 77142
L80711 77170
L80823 77170
L80880 77142
L80908 77114
L80936 77058
" />
<path d="M81217 77395
L81330 77395
L81386 77367
L81414 77339
L81470 77255
L81498 77142
L81498 76917
L81470 76861
L81442 76833
L81386 76805
L81273 76805
L81217 76833
L81189 76861
L81161 76917
L81161 77058
L81189 77114
L81217 77142
L81273 77170
L81386 77170
L81442 77142
L81470 77114
L81498 77058
" />
<path d="M81751 77339
L81779 77367
L81751 77395
L81723 77367
L81751 77339
L81751 77395
" />
<path d="M82145 76805
L82201 76805
L82257 76833
L82286 76861
L82314 76917
L82342 77030
L82342 77170
L82314 77283
L82286 77339
L82257 77367
L82201 77395
L82145 77395
L82089 77367
L82061 77339
L82033 77283
L82004 77170
L82004 77030
L82033 76917
L82061 76861
L82089 76833
L82145 76805
" />
<path d="M82595 77170
L83045 77170
" />
<path d="M83354 77395
L83467 77395
L83523 77367
L83551 77339
L83607 77255
L83635 77142
L83635 76917
L83607 76861
L83579 76833
L83523 76805
L83410 76805
L83354 76833
L83326 76861
L83298 76917
L83298 77058
L83326 77114
L83354 77142
L83410 77170
L83523 77170
L83579 77142
L83607 77114
L83635 77058
" />
<path d="M84170 76805
L83889 76805
L83860 77086
L83889 77058
L83945 77030
L84085 77030
L84142 77058
L84170 77086
L84198 77142
L84198 77283
L84170 77339
L84142 77367
L84085 77395
L83945 77395
L83889 77367
L83860 77339
" />
<path d="M84704 77002
L84704 77395
" />
<path d="M84563 76777
L84423 77199
L84788 77199
" />
<path d="M85267 77002
L85267 77395
" />
<path d="M85126 76777
L84985 77199
L85351 77199
" />
<path d="M85576 77170
L86026 77170
" />
<path d="M86560 77002
L86560 77480
L86532 77536
L86504 77564
L86448 77592
L86363 77592
L86307 77564
" />
<path d="M86560 77367
L86504 77395
L86391 77395
L86335 77367
L86307 77339
L86279 77283
L86279 77114
L86307 77058
L86335 77030
L86391 77002
L86504 77002
L86560 77030
" />
<path d="M86785 76805
L87151 76805
L86954 77030
L87038 77030
L87094 77058
L87122 77086
L87151 77142
L87151 77283
L87122 77339
L87094 77367
L87038 77395
L86869 77395
L86813 77367
L86785 77339
" />
<path d="M87657 76805
L87544 76805
L87488 76833
L87460 76861
L87404 76946
L87376 77058
L87376 77283
L87404 77339
L87432 77367
L87488 77395
L87601 77395
L87657 77367
L87685 77339
L87713 77283
L87713 77142
L87685 77086
L87657 77058
L87601 77030
L87488 77030
L87432 77058
L87404 77086
L87376 77142
" />
<path d="M88219 76805
L88107 76805
L88051 76833
L88022 76861
L87966 76946
L87938 77058
L87938 77283
L87966 77339
L87994 77367
L88051 77395
L88163 77395
L88219 77367
L88247 77339
L88275 77283
L88275 77142
L88247 77086
L88219 77058
L88163 77030
L88051 77030
L87994 77058
L87966 77086
L87938 77142
" />
<path d="M88838 77395
L88500 77395
" />
<path d="M88669 77395
L88669 76805
L88613 76889
L88557 76946
L88500 76974
" />
<path d="M89175 77058
L89119 77030
L89091 77002
L89063 76946
L89063 76917
L89091 76861
L89119 76833
L89175 76805
L89288 76805
L89344 76833
L89372 76861
L89400 76917
L89400 76946
L89372 77002
L89344 77030
L89288 77058
L89175 77058
L89119 77086
L89091 77114
L89063 77170
L89063 77283
L89091 77339
L89119 77367
L89175 77395
L89288 77395
L89344 77367
L89372 77339
L89400 77283
L89400 77170
L89372 77114
L89344 77086
L89288 77058
" />
<path d="M89682 77395
L89794 77395
L89850 77367
L89878 77339
L89935 77255
L89963 77142
L89963 76917
L89935 76861
L89907 76833
L89850 76805
L89738 76805
L89682 76833
L89653 76861
L89625 76917
L89625 77058
L89653 77114
L89682 77142
L89738 77170
L89850 77170
L89907 77142
L89935 77114
L89963 77058
" />
<path d="M90216 77395
L90216 76805
" />
<path d="M90216 77030
L90272 77002
L90385 77002
L90441 77030
L90469 77058
L90497 77114
L90497 77283
L90469 77339
L90441 77367
L90385 77395
L90272 77395
L90216 77367
" />
<path d="M90835 77058
L90778 77030
L90750 77002
L90722 76946
L90722 76917
L90750 76861
L90778 76833
L90835 76805
L90947 76805
L91003 76833
L91031 76861
L91060 76917
L91060 76946
L91031 77002
L91003 77030
L90947 77058
L90835 77058
L90778 77086
L90750 77114
L90722 77170
L90722 77283
L90750 77339
L90778 77367
L90835 77395
L90947 77395
L91003 77367
L91031 77339
L91060 77283
L91060 77170
L91031 77114
L91003 77086
L90947 77058
" />
<path d="M91566 76805
L91453 76805
L91397 76833
L91369 76861
L91313 76946
L91285 77058
L91285 77283
L91313 77339
L91341 77367
L91397 77395
L91509 77395
L91566 77367
L91594 77339
L91622 77283
L91622 77142
L91594 77086
L91566 77058
L91509 77030
L91397 77030
L91341 77058
L91313 77086
L91285 77142
" />
<path d="M92128 77002
L92128 77395
" />
<path d="M91988 76777
L91847 77199
L92212 77199
" />
<path d="M92381 77620
L92409 77592
L92466 77508
L92494 77452
L92522 77367
L92550 77227
L92550 77114
L92522 76974
L92494 76889
L92466 76833
L92409 76749
L92381 76721
" />
</g><path d="M69685 75396
L112205 75396
" />
</g>
<g style="fill:#840000; fill-opacity:0.0; 
stroke:#840000; stroke-width:118.110236; stroke-opacity:1; 
stroke-linecap:round; stroke-linejoin:round;">
<text x="103544.173228" y="76321.732283"
textLength="2337.677165" font-size="787.401575" lengthAdjust="spacingAndGlyphs"
text-anchor="start" opacity="0">Rev: </text>
<g class="stroked-text"><desc>Rev: </desc>
<path d="M104098 76293
L103902 76012
" />
<path d="M103761 76293
L103761 75703
L103986 75703
L104042 75731
L104070 75759
L104098 75815
L104098 75899
L104070 75956
L104042 75984
L103986 76012
L103761 76012
" />
<path d="M104577 76265
L104520 76293
L104408 76293
L104352 76265
L104323 76209
L104323 75984
L104352 75928
L104408 75899
L104520 75899
L104577 75928
L104605 75984
L104605 76040
L104323 76096
" />
<path d="M104802 75899
L104942 76293
L105083 75899
" />
<path d="M105308 76237
L105336 76265
L105308 76293
L105280 76265
L105308 76237
L105308 76293
" />
<path d="M105308 75928
L105336 75956
L105308 75984
L105280 75956
L105308 75928
L105308 75984
" />
</g></g>
<g style="fill:#840000; fill-opacity:0.0; 
stroke:#840000; stroke-width:59.842520; stroke-opacity:1; 
stroke-linecap:round; stroke-linejoin:round;">
<text x="70079.606299" y="76321.732283"
textLength="3781.220472" font-size="787.401575" lengthAdjust="spacingAndGlyphs"
text-anchor="start" opacity="0">Size: A4</text>
<g class="stroked-text"><desc>Size: A4</desc>
<path d="M70222 76265
L70306 76293
L70446 76293
L70503 76265
L70531 76237
L70559 76181
L70559 76124
L70531 76068
L70503 76040
L70446 76012
L70334 75984
L70278 75956
L70250 75928
L70222 75871
L70222 75815
L70250 75759
L70278 75731
L70334 75703
L70475 75703
L70559 75731
" />
<path d="M70812 76293
L70812 75899
" />
<path d="M70812 75703
L70784 75731
L70812 75759
L70840 75731
L70812 75703
L70812 75759
" />
<path d="M71037 75899
L71346 75899
L71037 76293
L71346 76293
" />
<path d="M71796 76265
L71740 76293
L71628 76293
L71571 76265
L71543 76209
L71543 75984
L71571 75928
L71628 75899
L71740 75899
L71796 75928
L71824 75984
L71824 76040
L71543 76096
" />
<path d="M72078 76237
L72106 76265
L72078 76293
L72049 76265
L72078 76237
L72078 76293
" />
<path d="M72078 75928
L72106 75956
L72078 75984
L72049 75956
L72078 75928
L72078 75984
" />
<path d="M72781 76124
L73062 76124
" />
<path d="M72724 76293
L72921 75703
L73118 76293
" />
<path d="M73568 75899
L73568 76293
" />
<path d="M73427 75674
L73287 76096
L73652 76096
" />
</g><text x="103544.173228" y="77424.094488"
textLength="3350.039370" font-size="787.401575" lengthAdjust="spacingAndGlyphs"
text-anchor="start" opacity="0">Id: 6/6</text>
<g class="stroked-text"><desc>Id: 6/6</desc>
<path d="M103714 77395
L103714 76805
" />
<path d="M104248 77395
L104248 76805
" />
<path d="M104248 77367
L104192 77395
L104080 77395
L104024 77367
L103995 77339
L103967 77283
L103967 77114
L103995 77058
L104024 77030
L104080 77002
L104192 77002
L104248 77030
" />
<path d="M104530 77339
L104558 77367
L104530 77395
L104502 77367
L104530 77339
L104530 77395
" />
<path d="M104530 77030
L104558 77058
L104530 77086
L104502 77058
L104530 77030
L104530 77086
" />
<path d="M105514 76805
L105401 76805
L105345 76833
L105317 76861
L105261 76946
L105233 77058
L105233 77283
L105261 77339
L105289 77367
L105345 77395
L105458 77395
L105514 77367
L105542 77339
L105570 77283
L105570 77142
L105542 77086
L105514 77058
L105458 77030
L105345 77030
L105289 77058
L105261 77086
L105233 77142
" />
<path d="M106245 76777
L105739 77536
" />
<path d="M106695 76805
L106583 76805
L106526 76833
L106498 76861
L106442 76946
L106414 77058
L106414 77283
L106442 77339
L106470 77367
L106526 77395
L106639 77395
L106695 77367
L106723 77339
L106751 77283
L106751 77142
L106723 77086
L106695 77058
L106639 77030
L106526 77030
L106470 77058
L106442 77086
L106414 77142
" />
</g><path d="M69685 73821
L112205 73821
" />
</g>
<g style="fill:#840000; fill-opacity:0.0; 
stroke:#840000; stroke-width:157.480315; stroke-opacity:1; 
stroke-linecap:round; stroke-linejoin:round;">
<text x="70079.606299" y="74924.094488"
textLength="3705.354331" font-size="1049.842520" lengthAdjust="spacingAndGlyphs"
text-anchor="start" opacity="0">Title: </text>
<g class="stroked-text"><desc>Title: </desc>
<path d="M70360 74099
L70810 74099
" />
<path d="M70486 74886
L70585 74099
" />
<path d="M70974 74886
L71039 74361
" />
<path d="M71072 74099
L71030 74136
L71063 74174
L71105 74136
L71072 74099
L71063 74174
" />
<path d="M71302 74361
L71602 74361
" />
<path d="M71447 74099
L71363 74774
L71391 74849
L71461 74886
L71536 74886
" />
<path d="M71911 74886
L71841 74849
L71812 74774
L71897 74099
" />
<path d="M72516 74849
L72436 74886
L72286 74886
L72216 74849
L72187 74774
L72225 74474
L72272 74399
L72352 74361
L72501 74361
L72572 74399
L72600 74474
L72591 74549
L72206 74624
" />
<path d="M72895 74811
L72928 74849
L72886 74886
L72853 74849
L72895 74811
L72886 74886
" />
<path d="M72947 74399
L72980 74436
L72937 74474
L72905 74436
L72947 74399
L72937 74474
" />
</g></g>
<g style="fill:#840000; fill-opacity:0.0; 
stroke:#840000; stroke-width:59.842520; stroke-opacity:1; 
stroke-linecap:round; stroke-linejoin:round;">
<text x="70079.606299" y="73408.346457"
textLength="11481.456693" font-size="787.401575" lengthAdjust="spacingAndGlyphs"
text-anchor="start" opacity="0">File: TempSens.kicad_sch</text>
<g class="stroked-text"><desc>File: TempSens.kicad_sch</desc>
<path d="M70446 73070
L70250 73070
" />
<path d="M70250 73380
L70250 72789
L70531 72789
" />
<path d="M70756 73380
L70756 72986
" />
<path d="M70756 72789
L70728 72817
L70756 72845
L70784 72817
L70756 72789
L70756 72845
" />
<path d="M71121 73380
L71065 73352
L71037 73295
L71037 72789
" />
<path d="M71571 73352
L71515 73380
L71403 73380
L71346 73352
L71318 73295
L71318 73070
L71346 73014
L71403 72986
L71515 72986
L71571 73014
L71599 73070
L71599 73127
L71318 73183
" />
<path d="M71853 73323
L71881 73352
L71853 73380
L71824 73352
L71853 73323
L71853 73380
" />
<path d="M71853 73014
L71881 73042
L71853 73070
L71824 73042
L71853 73014
L71853 73070
" />
<path d="M72499 72789
L72837 72789
" />
<path d="M72668 73380
L72668 72789
" />
<path d="M73259 73352
L73202 73380
L73090 73380
L73034 73352
L73006 73295
L73006 73070
L73034 73014
L73090 72986
L73202 72986
L73259 73014
L73287 73070
L73287 73127
L73006 73183
" />
<path d="M73540 73380
L73540 72986
" />
<path d="M73540 73042
L73568 73014
L73624 72986
L73709 72986
L73765 73014
L73793 73070
L73793 73380
" />
<path d="M73793 73070
L73821 73014
L73877 72986
L73962 72986
L74018 73014
L74046 73070
L74046 73380
" />
<path d="M74327 72986
L74327 73577
" />
<path d="M74327 73014
L74383 72986
L74496 72986
L74552 73014
L74580 73042
L74608 73098
L74608 73267
L74580 73323
L74552 73352
L74496 73380
L74383 73380
L74327 73352
" />
<path d="M74833 73352
L74918 73380
L75058 73380
L75115 73352
L75143 73323
L75171 73267
L75171 73211
L75143 73155
L75115 73127
L75058 73098
L74946 73070
L74890 73042
L74862 73014
L74833 72958
L74833 72902
L74862 72845
L74890 72817
L74946 72789
L75087 72789
L75171 72817
" />
<path d="M75649 73352
L75593 73380
L75480 73380
L75424 73352
L75396 73295
L75396 73070
L75424 73014
L75480 72986
L75593 72986
L75649 73014
L75677 73070
L75677 73127
L75396 73183
" />
<path d="M75930 72986
L75930 73380
" />
<path d="M75930 73042
L75958 73014
L76015 72986
L76099 72986
L76155 73014
L76183 73070
L76183 73380
" />
<path d="M76436 73352
L76493 73380
L76605 73380
L76661 73352
L76689 73295
L76689 73267
L76661 73211
L76605 73183
L76521 73183
L76464 73155
L76436 73098
L76436 73070
L76464 73014
L76521 72986
L76605 72986
L76661 73014
" />
<path d="M76943 73323
L76971 73352
L76943 73380
L76914 73352
L76943 73323
L76943 73380
" />
<path d="M77224 73380
L77224 72789
" />
<path d="M77280 73155
L77449 73380
" />
<path d="M77449 72986
L77224 73211
" />
<path d="M77702 73380
L77702 72986
" />
<path d="M77702 72789
L77674 72817
L77702 72845
L77730 72817
L77702 72789
L77702 72845
" />
<path d="M78236 73352
L78180 73380
L78067 73380
L78011 73352
L77983 73323
L77955 73267
L77955 73098
L77983 73042
L78011 73014
L78067 72986
L78180 72986
L78236 73014
" />
<path d="M78742 73380
L78742 73070
L78714 73014
L78658 72986
L78545 72986
L78489 73014
" />
<path d="M78742 73352
L78686 73380
L78545 73380
L78489 73352
L78461 73295
L78461 73239
L78489 73183
L78545 73155
L78686 73155
L78742 73127
" />
<path d="M79277 73380
L79277 72789
" />
<path d="M79277 73352
L79220 73380
L79108 73380
L79052 73352
L79024 73323
L78995 73267
L78995 73098
L79024 73042
L79052 73014
L79108 72986
L79220 72986
L79277 73014
" />
<path d="M79417 73436
L79867 73436
" />
<path d="M79980 73352
L80036 73380
L80148 73380
L80205 73352
L80233 73295
L80233 73267
L80205 73211
L80148 73183
L80064 73183
L80008 73155
L79980 73098
L79980 73070
L80008 73014
L80064 72986
L80148 72986
L80205 73014
" />
<path d="M80739 73352
L80683 73380
L80570 73380
L80514 73352
L80486 73323
L80458 73267
L80458 73098
L80486 73042
L80514 73014
L80570 72986
L80683 72986
L80739 73014
" />
<path d="M80992 73380
L80992 72789
" />
<path d="M81245 73380
L81245 73070
L81217 73014
L81161 72986
L81076 72986
L81020 73014
L80992 73042
" />
</g><path d="M69685 71459
L112205 71459
" />
<text x="70079.606299" y="72345.354331"
textLength="8833.740157" font-size="787.401575" lengthAdjust="spacingAndGlyphs"
text-anchor="start" opacity="0">Sheet: /TempSens/</text>
<g class="stroked-text"><desc>Sheet: /TempSens/</desc>
<path d="M70222 72289
L70306 72317
L70446 72317
L70503 72289
L70531 72260
L70559 72204
L70559 72148
L70531 72092
L70503 72064
L70446 72035
L70334 72007
L70278 71979
L70250 71951
L70222 71895
L70222 71839
L70250 71782
L70278 71754
L70334 71726
L70475 71726
L70559 71754
" />
<path d="M70812 72317
L70812 71726
" />
<path d="M71065 72317
L71065 72007
L71037 71951
L70981 71923
L70896 71923
L70840 71951
L70812 71979
" />
<path d="M71571 72289
L71515 72317
L71403 72317
L71346 72289
L71318 72232
L71318 72007
L71346 71951
L71403 71923
L71515 71923
L71571 71951
L71599 72007
L71599 72064
L71318 72120
" />
<path d="M72078 72289
L72021 72317
L71909 72317
L71853 72289
L71824 72232
L71824 72007
L71853 71951
L71909 71923
L72021 71923
L72078 71951
L72106 72007
L72106 72064
L71824 72120
" />
<path d="M72274 71923
L72499 71923
" />
<path d="M72359 71726
L72359 72232
L72387 72289
L72443 72317
L72499 72317
" />
<path d="M72696 72260
L72724 72289
L72696 72317
L72668 72289
L72696 72260
L72696 72317
" />
<path d="M72696 71951
L72724 71979
L72696 72007
L72668 71979
L72696 71951
L72696 72007
" />
<path d="M73849 71698
L73343 72457
" />
<path d="M73962 71726
L74299 71726
" />
<path d="M74130 72317
L74130 71726
" />
<path d="M74721 72289
L74665 72317
L74552 72317
L74496 72289
L74468 72232
L74468 72007
L74496 71951
L74552 71923
L74665 71923
L74721 71951
L74749 72007
L74749 72064
L74468 72120
" />
<path d="M75002 72317
L75002 71923
" />
<path d="M75002 71979
L75030 71951
L75087 71923
L75171 71923
L75227 71951
L75255 72007
L75255 72317
" />
<path d="M75255 72007
L75283 71951
L75340 71923
L75424 71923
L75480 71951
L75508 72007
L75508 72317
" />
<path d="M75790 71923
L75790 72514
" />
<path d="M75790 71951
L75846 71923
L75958 71923
L76015 71951
L76043 71979
L76071 72035
L76071 72204
L76043 72260
L76015 72289
L75958 72317
L75846 72317
L75790 72289
" />
<path d="M76296 72289
L76380 72317
L76521 72317
L76577 72289
L76605 72260
L76633 72204
L76633 72148
L76605 72092
L76577 72064
L76521 72035
L76408 72007
L76352 71979
L76324 71951
L76296 71895
L76296 71839
L76324 71782
L76352 71754
L76408 71726
L76549 71726
L76633 71754
" />
<path d="M77111 72289
L77055 72317
L76943 72317
L76886 72289
L76858 72232
L76858 72007
L76886 71951
L76943 71923
L77055 71923
L77111 71951
L77139 72007
L77139 72064
L76858 72120
" />
<path d="M77392 71923
L77392 72317
" />
<path d="M77392 71979
L77421 71951
L77477 71923
L77561 71923
L77617 71951
L77646 72007
L77646 72317
" />
<path d="M77899 72289
L77955 72317
L78067 72317
L78124 72289
L78152 72232
L78152 72204
L78124 72148
L78067 72120
L77983 72120
L77927 72092
L77899 72035
L77899 72007
L77927 71951
L77983 71923
L78067 71923
L78124 71951
" />
<path d="M78827 71698
L78320 72457
" />
</g></g>
<g style="fill:#840000; fill-opacity:0.0; 
stroke:#840000; stroke-width:118.110236; stroke-opacity:1; 
stroke-linecap:round; stroke-linejoin:round;">
<text x="70079.606299" y="71164.251969"
textLength="59.842520" font-size="787.401575" lengthAdjust="spacingAndGlyphs"
text-anchor="start" opacity="0"></text>
<g class="stroked-text"><desc></desc>
</g></g>
<g style="fill:#840000; fill-opacity:0.0; 
stroke:#840000; stroke-width:59.842520; stroke-opacity:1; 
stroke-linecap:round; stroke-linejoin:round;">
<text x="70079.606299" y="69983.149606"
textLength="118.110236" font-size="787.401575" lengthAdjust="spacingAndGlyphs"
text-anchor="start" opacity="0"></text>
<g class="stroked-text"><desc></desc>
</g><text x="70079.606299" y="68802.047244"
textLength="59.842520" font-size="787.401575" lengthAdjust="spacingAndGlyphs"
text-anchor="start" opacity="0"></text>
<g class="stroked-text"><desc></desc>
</g><text x="70079.606299" y="67620.944882"
textLength="59.842520" font-size="787.401575" lengthAdjust="spacingAndGlyphs"
text-anchor="start" opacity="0"></text>
<g class="stroked-text"><desc></desc>
</g><text x="70079.606299" y="66439.842520"
textLength="59.842520" font-size="787.401575" lengthAdjust="spacingAndGlyphs"
text-anchor="start" opacity="0"></text>
<g class="stroked-text"><desc></desc>
</g><path d="M77559 75396
L77559 76577
" />
<path d="M102756 75396
L102756 77955
" />
<g >
</g>
<g style="fill:#840000; fill-opacity:0.0; 
stroke:#840000; stroke-width:8.346457; stroke-opacity:1; 
stroke-linecap:round; stroke-linejoin:round;">
<rect x="12500.000000" y="18750.000000" width="3000.000000" height="4000.000000" rx="0.000000" />
</g>
<g style="fill:#840000; fill-opacity:0.0; 
stroke:#840000; stroke-width:59.842520; stroke-opacity:1; 
stroke-linecap:round; stroke-linejoin:round;">
<path d="M14000 18750
L14000 17750
" />
</g>
<g style="fill:#008484; fill-opacity:0.0; 
stroke:#008484; stroke-width:59.842520; stroke-opacity:1; 
stroke-linecap:round; stroke-linejoin:round;">
<g transform="rotate(-90.000000 14000.000000 18950.000000)">
<text x="14000.000000" y="19200.000000"
textLength="1107.480315" font-size="666.653543" lengthAdjust="spacingAndGlyphs"
text-anchor="end" opacity="0">V+</text>
</g>
<g class="stroked-text"><desc>V+</desc>
<path d="M13726 19979
L14226 19813
L13726 19646
" />
<path d="M14035 19479
L14035 19098
" />
<path d="M14226 19289
L13845 19289
" />
</g></g>
<g style="fill:#840000; fill-opacity:0.0; 
stroke:#840000; stroke-width:59.842520; stroke-opacity:1; 
stroke-linecap:round; stroke-linejoin:round;">
<g transform="rotate(-90.000000 13900.157480 18250.000000)">
<text x="13900.157480" y="18250.000000"
textLength="536.023622" font-size="666.653543" lengthAdjust="spacingAndGlyphs"
text-anchor="middle" opacity="0">2</text>
</g>
<g class="stroked-text"><desc>2</desc>
<path d="M13423 18392
L13400 18369
L13376 18321
L13376 18202
L13400 18154
L13423 18130
L13471 18107
L13519 18107
L13590 18130
L13876 18416
L13876 18107
" />
</g><path d="M14000 22750
L14000 23750
" />
</g>
<g style="fill:#008484; fill-opacity:0.0; 
stroke:#008484; stroke-width:59.842520; stroke-opacity:1; 
stroke-linecap:round; stroke-linejoin:round;">
<g transform="rotate(-90.000000 14000.000000 22550.000000)">
<text x="14000.000000" y="22800.000000"
textLength="1107.480315" font-size="666.653543" lengthAdjust="spacingAndGlyphs"
text-anchor="start" opacity="0">V-</text>
</g>
<g class="stroked-text"><desc>V-</desc>
<path d="M13726 22472
L14226 22305
L13726 22139
" />
<path d="M14035 21972
L14035 21591
" />
</g></g>
<g style="fill:#840000; fill-opacity:0.0; 
stroke:#840000; stroke-width:59.842520; stroke-opacity:1; 
stroke-linecap:round; stroke-linejoin:round;">
<g transform="rotate(-90.000000 13900.157480 23250.000000)">
<text x="13900.157480" y="23250.000000"
textLength="536.023622" font-size="666.653543" lengthAdjust="spacingAndGlyphs"
text-anchor="middle" opacity="0">1</text>
</g>
<g class="stroked-text"><desc>1</desc>
<path d="M13876 23107
L13876 23392
" />
<path d="M13876 23250
L13376 23250
L13447 23297
L13495 23345
L13519 23392
" />
</g><path d="M15500 20750
L16500 20750
" />
</g>
<g style="fill:#008484; fill-opacity:0.0; 
stroke:#008484; stroke-width:59.842520; stroke-opacity:1; 
stroke-linecap:round; stroke-linejoin:round;">
<text x="15300.000000" y="21000.000000"
textLength="1369.370079" font-size="666.653543" lengthAdjust="spacingAndGlyphs"
text-anchor="end" opacity="0">ADJ</text>
<g class="stroked-text"><desc>ADJ</desc>
<path d="M14055 20833
L14293 20833
" />
<path d="M14008 20976
L14174 20476
L14341 20976
" />
<path d="M14508 20976
L14508 20476
L14627 20476
L14698 20500
L14746 20547
L14770 20595
L14793 20690
L14793 20761
L14770 20857
L14746 20904
L14698 20952
L14627 20976
L14508 20976
" />
<path d="M15151 20476
L15151 20833
L15127 20904
L15079 20952
L15008 20976
L14960 20976
" />
</g></g>
<g style="fill:#840000; fill-opacity:0.0; 
stroke:#840000; stroke-width:59.842520; stroke-opacity:1; 
stroke-linecap:round; stroke-linejoin:round;">
<text x="16000.000000" y="20650.157480"
textLength="536.023622" font-size="666.653543" lengthAdjust="spacingAndGlyphs"
text-anchor="middle" opacity="0">3</text>
<g class="stroked-text"><desc>3</desc>
<path d="M15833 20126
L16142 20126
L15976 20316
L16047 20316
L16095 20340
L16119 20364
L16142 20412
L16142 20531
L16119 20578
L16095 20602
L16047 20626
L15904 20626
L15857 20602
L15833 20578
" />
</g></g>
<g style="fill:#008484; fill-opacity:0.0; 
stroke:#008484; stroke-width:59.842520; stroke-opacity:1; 
stroke-linecap:round; stroke-linejoin:round;">
<text x="11742.559055" y="20574.488189"
textLength="1012.204724" font-size="666.653543" lengthAdjust="spacingAndGlyphs"
text-anchor="middle" opacity="0">U?</text>
<g class="stroked-text"><desc>U?</desc>
<path d="M11385 20050
L11385 20455
L11409 20503
L11433 20526
L11480 20550
L11575 20550
L11623 20526
L11647 20503
L11671 20455
L11671 20050
" />
<path d="M11980 20503
L12004 20526
L11980 20550
L11956 20526
L11980 20503
L11980 20550
" />
<path d="M11885 20074
L11933 20050
L12052 20050
L12099 20074
L12123 20122
L12123 20169
L12099 20217
L12075 20241
L12028 20264
L12004 20288
L11980 20336
L11980 20360
" />
</g><text x="10778.267717" y="21479.212598"
textLength="2940.787402" font-size="666.653543" lengthAdjust="spacingAndGlyphs"
text-anchor="middle" opacity="0">LM335Z</text>
<g class="stroked-text"><desc>LM335Z</desc>
<path d="M9694 21455
L9456 21455
L9456 20955
" />
<path d="M9861 21455
L9861 20955
L10028 21312
L10194 20955
L10194 21455
" />
<path d="M10385 20955
L10694 20955
L10528 21145
L10599 21145
L10647 21169
L10671 21193
L10694 21241
L10694 21360
L10671 21407
L10647 21431
L10599 21455
L10456 21455
L10409 21431
L10385 21407
" />
<path d="M10861 20955
L11171 20955
L11004 21145
L11075 21145
L11123 21169
L11147 21193
L11171 21241
L11171 21360
L11147 21407
L11123 21431
L11075 21455
L10932 21455
L10885 21431
L10861 21407
" />
<path d="M11623 20955
L11385 20955
L11361 21193
L11385 21169
L11432 21145
L11552 21145
L11599 21169
L11623 21193
L11647 21241
L11647 21360
L11623 21407
L11599 21431
L11552 21455
L11432 21455
L11385 21431
L11361 21407
" />
<path d="M11813 20955
L12147 20955
L11813 21455
L12147 21455
" />
</g></g>
</g>
<g style="fill:#008484; fill-opacity:0.0; 
stroke:#008484; stroke-width:59.842520; stroke-opacity:1; 
stroke-linecap:round; stroke-linejoin:round;">
<g >
</g>
<g style="fill:#840000; fill-opacity:0.0; 
stroke:#840000; stroke-width:59.842520; stroke-opacity:1; 
stroke-linecap:round; stroke-linejoin:round;">
</g>
<g style="fill:#840000; fill-opacity:0.0; 
stroke:#840000; stroke-width:100.000000; stroke-opacity:1; 
stroke-linecap:round; stroke-linejoin:round;">
<rect x="42100.000000" y="25250.000000" width="800.000000" height="2000.000000" rx="0.000000" />
</g>
<g style="fill:#840000; fill-opacity:0.0; 
stroke:#840000; stroke-width:59.842520; stroke-opacity:1; 
stroke-linecap:round; stroke-linejoin:round;">
<path d="M42500 25250
L42500 24750
" />
<path d="M42500 27250
L42500 27750
" />
</g>
<g style="fill:#008484; fill-opacity:0.0; 
stroke:#008484; stroke-width:59.842520; stroke-opacity:1; 
stroke-linecap:round; stroke-linejoin:round;">
<text x="43695.590551" y="26074.330709"
textLength="988.425197" font-size="666.653543" lengthAdjust="spacingAndGlyphs"
text-anchor="middle" opacity="0">R?</text>
<g class="stroked-text"><desc>R?</desc>
<path d="M43636 26050
L43469 25812
" />
<path d="M43350 26050
L43350 25550
L43540 25550
L43588 25574
L43612 25598
L43636 25645
L43636 25717
L43612 25764
L43588 25788
L43540 25812
L43350 25812
" />
<path d="M43921 26002
L43945 26026
L43921 26050
L43897 26026
L43921 26002
L43921 26050
" />
<path d="M43826 25574
L43874 25550
L43993 25550
L44040 25574
L44064 25621
L44064 25669
L44040 25717
L44017 25740
L43969 25764
L43945 25788
L43921 25836
L43921 25860
" />
</g><text x="44743.149606" y="26979.212598"
textLength="3083.661417" font-size="666.653543" lengthAdjust="spacingAndGlyphs"
text-anchor="middle" opacity="0">10Kohm</text>
<g class="stroked-text"><desc>10Kohm</desc>
<path d="M43612 26955
L43326 26955
" />
<path d="M43469 26955
L43469 26455
L43421 26526
L43374 26574
L43326 26598
" />
<path d="M43921 26455
L43969 26455
L44016 26479
L44040 26502
L44064 26550
L44088 26645
L44088 26764
L44064 26860
L44040 26907
L44016 26931
L43969 26955
L43921 26955
L43874 26931
L43850 26907
L43826 26860
L43802 26764
L43802 26645
L43826 26550
L43850 26502
L43874 26479
L43921 26455
" />
<path d="M44302 26955
L44302 26455
" />
<path d="M44588 26955
L44374 26669
" />
<path d="M44588 26455
L44302 26741
" />
<path d="M44874 26955
L44826 26931
L44802 26907
L44778 26860
L44778 26717
L44802 26669
L44826 26645
L44874 26622
L44945 26622
L44993 26645
L45016 26669
L45040 26717
L45040 26860
L45016 26907
L44993 26931
L44945 26955
L44874 26955
" />
<path d="M45255 26955
L45255 26455
" />
<path d="M45469 26955
L45469 26693
L45445 26645
L45397 26622
L45326 26622
L45278 26645
L45255 26669
" />
<path d="M45707 26955
L45707 26622
" />
<path d="M45707 26669
L45731 26645
L45778 26622
L45850 26622
L45897 26645
L45921 26693
L45921 26955
" />
<path d="M45921 26693
L45945 26645
L45993 26622
L46064 26622
L46112 26645
L46135 26693
L46135 26955
" />
</g></g>
</g>
<g style="fill:#008484; fill-opacity:0.0; 
stroke:#008484; stroke-width:59.842520; stroke-opacity:1; 
stroke-linecap:round; stroke-linejoin:round;">
<g >
</g>
<g style="fill:#840000; fill-opacity:0.0; 
stroke:#840000; stroke-width:59.842520; stroke-opacity:1; 
stroke-linecap:round; stroke-linejoin:round;">
</g>
<g style="fill:#840000; fill-opacity:0.0; 
stroke:#840000; stroke-width:100.000000; stroke-opacity:1; 
stroke-linecap:round; stroke-linejoin:round;">
<rect x="42100.000000" y="21250.000000" width="800.000000" height="2000.000000" rx="0.000000" />
</g>
<g style="fill:#840000; fill-opacity:0.0; 
stroke:#840000; stroke-width:59.842520; stroke-opacity:1; 
stroke-linecap:round; stroke-linejoin:round;">
<path d="M42500 21250
L42500 20750
" />
<path d="M42500 23250
L42500 23750
" />
</g>
<g style="fill:#008484; fill-opacity:0.0; 
stroke:#008484; stroke-width:59.842520; stroke-opacity:1; 
stroke-linecap:round; stroke-linejoin:round;">
<text x="43695.590551" y="22074.330709"
textLength="988.425197" font-size="666.653543" lengthAdjust="spacingAndGlyphs"
text-anchor="middle" opacity="0">R?</text>
<g class="stroked-text"><desc>R?</desc>
<path d="M43636 22050
L43469 21812
" />
<path d="M43350 22050
L43350 21550
L43540 21550
L43588 21574
L43612 21598
L43636 21645
L43636 21717
L43612 21764
L43588 21788
L43540 21812
L43350 21812
" />
<path d="M43921 22002
L43945 22026
L43921 22050
L43897 22026
L43921 22002
L43921 22050
" />
<path d="M43826 21574
L43874 21550
L43993 21550
L44040 21574
L44064 21621
L44064 21669
L44040 21717
L44017 21740
L43969 21764
L43945 21788
L43921 21836
L43921 21860
" />
</g><text x="44743.149606" y="22979.212598"
textLength="3083.661417" font-size="666.653543" lengthAdjust="spacingAndGlyphs"
text-anchor="middle" opacity="0">10Kohm</text>
<g class="stroked-text"><desc>10Kohm</desc>
<path d="M43612 22955
L43326 22955
" />
<path d="M43469 22955
L43469 22455
L43421 22526
L43374 22574
L43326 22598
" />
<path d="M43921 22455
L43969 22455
L44016 22479
L44040 22502
L44064 22550
L44088 22645
L44088 22764
L44064 22860
L44040 22907
L44016 22931
L43969 22955
L43921 22955
L43874 22931
L43850 22907
L43826 22860
L43802 22764
L43802 22645
L43826 22550
L43850 22502
L43874 22479
L43921 22455
" />
<path d="M44302 22955
L44302 22455
" />
<path d="M44588 22955
L44374 22669
" />
<path d="M44588 22455
L44302 22741
" />
<path d="M44874 22955
L44826 22931
L44802 22907
L44778 22860
L44778 22717
L44802 22669
L44826 22645
L44874 22622
L44945 22622
L44993 22645
L45016 22669
L45040 22717
L45040 22860
L45016 22907
L44993 22931
L44945 22955
L44874 22955
" />
<path d="M45255 22955
L45255 22455
" />
<path d="M45469 22955
L45469 22693
L45445 22645
L45397 22622
L45326 22622
L45278 22645
L45255 22669
" />
<path d="M45707 22955
L45707 22622
" />
<path d="M45707 22669
L45731 22645
L45778 22622
L45850 22622
L45897 22645
L45921 22693
L45921 22955
" />
<path d="M45921 22693
L45945 22645
L45993 22622
L46064 22622
L46112 22645
L46135 22693
L46135 22955
" />
</g></g>
</g>
<g style="fill:#008484; fill-opacity:0.0; 
stroke:#008484; stroke-width:59.842520; stroke-opacity:1; 
stroke-linecap:round; stroke-linejoin:round;">
<g >
</g>
<g style="fill:#840000; fill-opacity:0.0; 
stroke:#840000; stroke-width:59.842520; stroke-opacity:1; 
stroke-linecap:round; stroke-linejoin:round;">
</g>
<g style="fill:#840000; fill-opacity:0.0; 
stroke:#840000; stroke-width:100.000000; stroke-opacity:1; 
stroke-linecap:round; stroke-linejoin:round;">
<rect x="39600.000000" y="14250.000000" width="800.000000" height="2000.000000" rx="0.000000" />
</g>
<g style="fill:#840000; fill-opacity:0.0; 
stroke:#840000; stroke-width:59.842520; stroke-opacity:1; 
stroke-linecap:round; stroke-linejoin:round;">
<path d="M40000 14250
L40000 13750
" />
<path d="M40000 16250
L40000 16750
" />
</g>
<g style="fill:#008484; fill-opacity:0.0; 
stroke:#008484; stroke-width:59.842520; stroke-opacity:1; 
stroke-linecap:round; stroke-linejoin:round;">
<text x="41195.590551" y="15074.330709"
textLength="988.425197" font-size="666.653543" lengthAdjust="spacingAndGlyphs"
text-anchor="middle" opacity="0">R?</text>
<g class="stroked-text"><desc>R?</desc>
<path d="M41136 15050
L40969 14812
" />
<path d="M40850 15050
L40850 14550
L41040 14550
L41088 14574
L41112 14598
L41136 14645
L41136 14717
L41112 14764
L41088 14788
L41040 14812
L40850 14812
" />
<path d="M41421 15002
L41445 15026
L41421 15050
L41397 15026
L41421 15002
L41421 15050
" />
<path d="M41326 14574
L41374 14550
L41493 14550
L41540 14574
L41564 14621
L41564 14669
L41540 14717
L41517 14740
L41469 14764
L41445 14788
L41421 14836
L41421 14860
" />
</g><text x="41993.149606" y="15979.212598"
textLength="2583.661417" font-size="666.653543" lengthAdjust="spacingAndGlyphs"
text-anchor="middle" opacity="0">68ohm</text>
<g class="stroked-text"><desc>68ohm</desc>
<path d="M41064 15455
L40969 15455
L40921 15479
L40897 15502
L40850 15574
L40826 15669
L40826 15860
L40850 15907
L40874 15931
L40921 15955
L41016 15955
L41064 15931
L41088 15907
L41112 15860
L41112 15741
L41088 15693
L41064 15669
L41016 15645
L40921 15645
L40874 15669
L40850 15693
L40826 15741
" />
<path d="M41397 15669
L41350 15645
L41326 15622
L41302 15574
L41302 15550
L41326 15502
L41350 15479
L41397 15455
L41493 15455
L41540 15479
L41564 15502
L41588 15550
L41588 15574
L41564 15622
L41540 15645
L41493 15669
L41397 15669
L41350 15693
L41326 15717
L41302 15764
L41302 15860
L41326 15907
L41350 15931
L41397 15955
L41493 15955
L41540 15931
L41564 15907
L41588 15860
L41588 15764
L41564 15717
L41540 15693
L41493 15669
" />
<path d="M41874 15955
L41826 15931
L41802 15907
L41778 15860
L41778 15717
L41802 15669
L41826 15645
L41874 15622
L41945 15622
L41993 15645
L42016 15669
L42040 15717
L42040 15860
L42016 15907
L41993 15931
L41945 15955
L41874 15955
" />
<path d="M42255 15955
L42255 15455
" />
<path d="M42469 15955
L42469 15693
L42445 15645
L42397 15622
L42326 15622
L42278 15645
L42255 15669
" />
<path d="M42707 15955
L42707 15622
" />
<path d="M42707 15669
L42731 15645
L42778 15622
L42850 15622
L42897 15645
L42921 15693
L42921 15955
" />
<path d="M42921 15693
L42945 15645
L42993 15622
L43064 15622
L43112 15645
L43135 15693
L43135 15955
" />
</g></g>
</g>
<g style="fill:#008484; fill-opacity:0.0; 
stroke:#008484; stroke-width:59.842520; stroke-opacity:1; 
stroke-linecap:round; stroke-linejoin:round;">
<g >
</g>
<g style="fill:#840000; fill-opacity:0.0; 
stroke:#840000; stroke-width:59.842520; stroke-opacity:1; 
stroke-linecap:round; stroke-linejoin:round;">
<path style="fill:#840000; fill-opacity:0.0; 
stroke:#840000; stroke-width:59.842520; stroke-opacity:1; 
stroke-linecap:round; stroke-linejoin:round;fill:none"
d="M 42500.000000,28250.000000
42500.000000,28750.000000
43000.000000,28750.000000
42500.000000,29250.000000
42000.000000,28750.000000
42500.000000,28750.000000
" /> 
</g>
<g style="fill:#008484; fill-opacity:0.0; 
stroke:#008484; stroke-width:59.842520; stroke-opacity:1; 
stroke-linecap:round; stroke-linejoin:round;">
<text x="42545.000000" y="30229.370079"
textLength="1583.661417" font-size="666.653543" lengthAdjust="spacingAndGlyphs"
text-anchor="middle" opacity="0">GND</text>
<g class="stroked-text"><desc>GND</desc>
<path d="M42164 29729
L42116 29705
L42045 29705
L41973 29729
L41925 29776
L41902 29824
L41878 29919
L41878 29991
L41902 30086
L41925 30134
L41973 30181
L42045 30205
L42092 30205
L42164 30181
L42187 30157
L42187 29991
L42092 29991
" />
<path d="M42402 30205
L42402 29705
L42687 30205
L42687 29705
" />
<path d="M42925 30205
L42925 29705
L43045 29705
L43116 29729
L43164 29776
L43187 29824
L43211 29919
L43211 29991
L43187 30086
L43164 30134
L43116 30181
L43045 30205
L42925 30205
" />
</g></g>
</g>
<g style="fill:#008484; fill-opacity:0.0; 
stroke:#008484; stroke-width:59.842520; stroke-opacity:1; 
stroke-linecap:round; stroke-linejoin:round;">
<g >
</g>
<g style="fill:#840000; fill-opacity:0.0; 
stroke:#840000; stroke-width:59.842520; stroke-opacity:1; 
stroke-linecap:round; stroke-linejoin:round;">
</g>
<g style="fill:#FFFFC2; fill-opacity:0.0; 
stroke:#FFFFC2; stroke-width:59.842520; stroke-opacity:1; 
stroke-linecap:round; stroke-linejoin:round;">
</g>
<g style="fill:#FFFFC2; fill-opacity:0.6; 
stroke:#FFFFC2; stroke-width:0.039370; stroke-opacity:1; 
stroke-linecap:round; stroke-linejoin:round;">
<rect x="33500.000000" y="12000.000000" width="2000.000000" height="2500.000000" rx="0.000000" />
</g>
<g style="fill:#840000; fill-opacity:0.6; 
stroke:#840000; stroke-width:0.039370; stroke-opacity:1; 
stroke-linecap:round; stroke-linejoin:round;">
</g>
<g style="fill:#840000; fill-opacity:0.0; 
stroke:#840000; stroke-width:100.000000; stroke-opacity:1; 
stroke-linecap:round; stroke-linejoin:round;">
<rect x="33500.000000" y="12000.000000" width="2000.000000" height="2500.000000" rx="0.000000" />
</g>
<g style="fill:#840000; fill-opacity:0.0; 
stroke:#840000; stroke-width:8.346457; stroke-opacity:1; 
stroke-linecap:round; stroke-linejoin:round;">
<circle cx="34500.000000" cy="13500.000000" r="500.000000" /> 
<circle cx="34500.000000" cy="13000.000000" r="500.000000" /> 
</g>
<g style="fill:#840000; fill-opacity:0.0; 
stroke:#840000; stroke-width:100.000000; stroke-opacity:1; 
stroke-linecap:round; stroke-linejoin:round;">
<rect x="33500.000000" y="12000.000000" width="2000.000000" height="2500.000000" rx="0.000000" />
</g>
<g style="fill:#840000; fill-opacity:0.0; 
stroke:#840000; stroke-width:59.842520; stroke-opacity:1; 
stroke-linecap:round; stroke-linejoin:round;">
<path style="fill:#840000; fill-opacity:0.0; 
stroke:#840000; stroke-width:59.842520; stroke-opacity:1; 
stroke-linecap:round; stroke-linejoin:round;fill:none"
d="M 34050.000000,14200.000000
34350.000000,14200.000000
" /> 
<path style="fill:#840000; fill-opacity:0.0; 
stroke:#840000; stroke-width:59.842520; stroke-opacity:1; 
stroke-linecap:round; stroke-linejoin:round;fill:none"
d="M 34100.000000,12300.000000
34400.000000,12300.000000
" /> 
<path style="fill:#840000; fill-opacity:0.0; 
stroke:#840000; stroke-width:59.842520; stroke-opacity:1; 
stroke-linecap:round; stroke-linejoin:round;fill:none"
d="M 34250.000000,12150.000000
34250.000000,12450.000000
" /> 
<path style="fill:#840000; fill-opacity:0.0; 
stroke:#840000; stroke-width:59.842520; stroke-opacity:1; 
stroke-linecap:round; stroke-linejoin:round;fill:none"
d="M 34500.000000,14000.000000
34500.000000,15250.000000
" /> 
</g>
<g style="fill:#840000; fill-opacity:0.0; 
stroke:#840000; stroke-width:100.000000; stroke-opacity:1; 
stroke-linecap:round; stroke-linejoin:round;">
<path style="fill:#840000; fill-opacity:0.0; 
stroke:#840000; stroke-width:100.000000; stroke-opacity:1; 
stroke-linecap:round; stroke-linejoin:round;fill:none"
d="M 34500.000000,12700.000000
34500.000000,13800.000000
" /> 
</g>
<g style="fill:#840000; fill-opacity:0.0; 
stroke:#840000; stroke-width:59.842520; stroke-opacity:1; 
stroke-linecap:round; stroke-linejoin:round;">
<path style="fill:#840000; fill-opacity:0.0; 
stroke:#840000; stroke-width:59.842520; stroke-opacity:1; 
stroke-linecap:round; stroke-linejoin:round;fill:none"
d="M 34500.000000,11250.000000
34500.000000,12500.000000
" /> 
<path style="fill:#840000; fill-opacity:0.0; 
stroke:#840000; stroke-width:59.842520; stroke-opacity:1; 
stroke-linecap:round; stroke-linejoin:round;fill:none"
d="M 35500.000000,13250.000000
35000.000000,13250.000000
" /> 
</g>
<g style="fill:#840000; fill-opacity:0.0; 
stroke:#840000; stroke-width:100.000000; stroke-opacity:1; 
stroke-linecap:round; stroke-linejoin:round;">
<path style="fill:#840000; fill-opacity:0.0; 
stroke:#840000; stroke-width:100.000000; stroke-opacity:1; 
stroke-linecap:round; stroke-linejoin:round;fill:none"
d="M 34500.000000,13800.000000
34400.000000,13600.000000
34600.000000,13600.000000
Z" /> 
</g>
<g style="fill:#840000; fill-opacity:0.0; 
stroke:#840000; stroke-width:59.842520; stroke-opacity:1; 
stroke-linecap:round; stroke-linejoin:round;">
<path style="fill:#840000; fill-opacity:0.0; 
stroke:#840000; stroke-width:59.842520; stroke-opacity:1; 
stroke-linecap:round; stroke-linejoin:round;fill:none"
d="M 35000.000000,13250.000000
35350.000000,13150.000000
35350.000000,13350.000000
Z" /> 
<path d="M34500 12250
L34500 11250
" />
<g transform="rotate(-90.000000 34400.157480 11750.000000)">
<text x="34400.157480" y="11750.000000"
textLength="536.023622" font-size="666.653543" lengthAdjust="spacingAndGlyphs"
text-anchor="middle" opacity="0">1</text>
</g>
<g class="stroked-text"><desc>1</desc>
<path d="M34376 11607
L34376 11892
" />
<path d="M34376 11750
L33876 11750
L33947 11797
L33995 11845
L34019 11892
" />
</g><path d="M35500 13250
L36500 13250
" />
<text x="36000.000000" y="13150.157480"
textLength="536.023622" font-size="666.653543" lengthAdjust="spacingAndGlyphs"
text-anchor="middle" opacity="0">2</text>
<g class="stroked-text"><desc>2</desc>
<path d="M35857 12673
L35880 12650
L35928 12626
L36047 12626
L36095 12650
L36119 12673
L36142 12721
L36142 12769
L36119 12840
L35833 13126
L36142 13126
" />
</g><path d="M34500 14250
L34500 15250
" />
<g transform="rotate(-90.000000 34400.157480 14750.000000)">
<text x="34400.157480" y="14750.000000"
textLength="536.023622" font-size="666.653543" lengthAdjust="spacingAndGlyphs"
text-anchor="middle" opacity="0">3</text>
</g>
<g class="stroked-text"><desc>3</desc>
<path d="M33876 14916
L33876 14607
L34066 14773
L34066 14702
L34090 14654
L34114 14630
L34162 14607
L34281 14607
L34328 14630
L34352 14654
L34376 14702
L34376 14845
L34352 14892
L34328 14916
" />
</g></g>
<g style="fill:#008484; fill-opacity:0.0; 
stroke:#008484; stroke-width:59.842520; stroke-opacity:1; 
stroke-linecap:round; stroke-linejoin:round;">
<text x="32692.519685" y="13074.330709"
textLength="1012.204724" font-size="666.653543" lengthAdjust="spacingAndGlyphs"
text-anchor="middle" opacity="0">U?</text>
<g class="stroked-text"><desc>U?</desc>
<path d="M32335 12550
L32335 12955
L32359 13002
L32382 13026
L32430 13050
L32525 13050
L32573 13026
L32597 13002
L32621 12955
L32621 12550
" />
<path d="M32930 13002
L32954 13026
L32930 13050
L32906 13026
L32930 13002
L32930 13050
" />
<path d="M32835 12574
L32882 12550
L33002 12550
L33049 12574
L33073 12621
L33073 12669
L33049 12717
L33025 12740
L32978 12764
L32954 12788
L32930 12836
L32930 12860
" />
</g><text x="31728.228346" y="13979.330709"
textLength="2940.787402" font-size="666.653543" lengthAdjust="spacingAndGlyphs"
text-anchor="middle" opacity="0">LM334Z</text>
<g class="stroked-text"><desc>LM334Z</desc>
<path d="M30644 13955
L30406 13955
L30406 13455
" />
<path d="M30811 13955
L30811 13455
L30978 13812
L31144 13455
L31144 13955
" />
<path d="M31335 13455
L31644 13455
L31478 13645
L31549 13645
L31597 13669
L31621 13693
L31644 13741
L31644 13860
L31621 13907
L31597 13931
L31549 13955
L31406 13955
L31359 13931
L31335 13907
" />
<path d="M31811 13455
L32121 13455
L31954 13645
L32025 13645
L32073 13669
L32097 13693
L32121 13741
L32121 13860
L32097 13907
L32073 13931
L32025 13955
L31882 13955
L31835 13931
L31811 13907
" />
<path d="M32549 13622
L32549 13955
" />
<path d="M32430 13431
L32311 13788
L32621 13788
" />
<path d="M32763 13455
L33097 13455
L32763 13955
L33097 13955
" />
</g></g>
</g>
<g style="fill:#008484; fill-opacity:0.0; 
stroke:#008484; stroke-width:59.842520; stroke-opacity:1; 
stroke-linecap:round; stroke-linejoin:round;">
<g >
</g>
<g style="fill:#840000; fill-opacity:0.0; 
stroke:#840000; stroke-width:59.842520; stroke-opacity:1; 
stroke-linecap:round; stroke-linejoin:round;">
<path style="fill:#840000; fill-opacity:0.0; 
stroke:#840000; stroke-width:59.842520; stroke-opacity:1; 
stroke-linecap:round; stroke-linejoin:round;fill:none"
d="M 34500.000000,28250.000000
34500.000000,28750.000000
35000.000000,28750.000000
34500.000000,29250.000000
34000.000000,28750.000000
34500.000000,28750.000000
" /> 
</g>
<g style="fill:#008484; fill-opacity:0.0; 
stroke:#008484; stroke-width:59.842520; stroke-opacity:1; 
stroke-linecap:round; stroke-linejoin:round;">
<text x="34545.000000" y="30229.370079"
textLength="1583.661417" font-size="666.653543" lengthAdjust="spacingAndGlyphs"
text-anchor="middle" opacity="0">GND</text>
<g class="stroked-text"><desc>GND</desc>
<path d="M34164 29729
L34116 29705
L34045 29705
L33973 29729
L33925 29776
L33902 29824
L33878 29919
L33878 29991
L33902 30086
L33925 30134
L33973 30181
L34045 30205
L34092 30205
L34164 30181
L34187 30157
L34187 29991
L34092 29991
" />
<path d="M34402 30205
L34402 29705
L34687 30205
L34687 29705
" />
<path d="M34925 30205
L34925 29705
L35045 29705
L35116 29729
L35164 29776
L35187 29824
L35211 29919
L35211 29991
L35187 30086
L35164 30134
L35116 30181
L35045 30205
L34925 30205
" />
</g></g>
</g>
<g style="fill:#008484; fill-opacity:0.0; 
stroke:#008484; stroke-width:59.842520; stroke-opacity:1; 
stroke-linecap:round; stroke-linejoin:round;">
<g >
</g>
<g style="fill:#840000; fill-opacity:0.0; 
stroke:#840000; stroke-width:59.842520; stroke-opacity:1; 
stroke-linecap:round; stroke-linejoin:round;">
</g>
<g style="fill:#840000; fill-opacity:0.0; 
stroke:#840000; stroke-width:100.000000; stroke-opacity:1; 
stroke-linecap:round; stroke-linejoin:round;">
<rect x="19100.000000" y="14250.000000" width="800.000000" height="2000.000000" rx="0.000000" />
</g>
<g style="fill:#840000; fill-opacity:0.0; 
stroke:#840000; stroke-width:59.842520; stroke-opacity:1; 
stroke-linecap:round; stroke-linejoin:round;">
<path d="M19500 14250
L19500 13750
" />
<path d="M19500 16250
L19500 16750
" />
</g>
<g style="fill:#008484; fill-opacity:0.0; 
stroke:#008484; stroke-width:59.842520; stroke-opacity:1; 
stroke-linecap:round; stroke-linejoin:round;">
<text x="20695.590551" y="15074.330709"
textLength="988.425197" font-size="666.653543" lengthAdjust="spacingAndGlyphs"
text-anchor="middle" opacity="0">R?</text>
<g class="stroked-text"><desc>R?</desc>
<path d="M20636 15050
L20469 14812
" />
<path d="M20350 15050
L20350 14550
L20540 14550
L20588 14574
L20612 14598
L20636 14645
L20636 14717
L20612 14764
L20588 14788
L20540 14812
L20350 14812
" />
<path d="M20921 15002
L20945 15026
L20921 15050
L20897 15026
L20921 15002
L20921 15050
" />
<path d="M20826 14574
L20874 14550
L20993 14550
L21040 14574
L21064 14621
L21064 14669
L21040 14717
L21017 14740
L20969 14764
L20945 14788
L20921 14836
L20921 14860
" />
</g><text x="21493.149606" y="15979.212598"
textLength="2583.661417" font-size="666.653543" lengthAdjust="spacingAndGlyphs"
text-anchor="middle" opacity="0">68ohm</text>
<g class="stroked-text"><desc>68ohm</desc>
<path d="M20564 15455
L20469 15455
L20421 15479
L20397 15502
L20350 15574
L20326 15669
L20326 15860
L20350 15907
L20374 15931
L20421 15955
L20516 15955
L20564 15931
L20588 15907
L20612 15860
L20612 15741
L20588 15693
L20564 15669
L20516 15645
L20421 15645
L20374 15669
L20350 15693
L20326 15741
" />
<path d="M20897 15669
L20850 15645
L20826 15622
L20802 15574
L20802 15550
L20826 15502
L20850 15479
L20897 15455
L20993 15455
L21040 15479
L21064 15502
L21088 15550
L21088 15574
L21064 15622
L21040 15645
L20993 15669
L20897 15669
L20850 15693
L20826 15717
L20802 15764
L20802 15860
L20826 15907
L20850 15931
L20897 15955
L20993 15955
L21040 15931
L21064 15907
L21088 15860
L21088 15764
L21064 15717
L21040 15693
L20993 15669
" />
<path d="M21374 15955
L21326 15931
L21302 15907
L21278 15860
L21278 15717
L21302 15669
L21326 15645
L21374 15622
L21445 15622
L21493 15645
L21516 15669
L21540 15717
L21540 15860
L21516 15907
L21493 15931
L21445 15955
L21374 15955
" />
<path d="M21755 15955
L21755 15455
" />
<path d="M21969 15955
L21969 15693
L21945 15645
L21897 15622
L21826 15622
L21778 15645
L21755 15669
" />
<path d="M22207 15955
L22207 15622
" />
<path d="M22207 15669
L22231 15645
L22278 15622
L22350 15622
L22397 15645
L22421 15693
L22421 15955
" />
<path d="M22421 15693
L22445 15645
L22493 15622
L22564 15622
L22612 15645
L22635 15693
L22635 15955
" />
</g></g>
</g>
<g style="fill:#008484; fill-opacity:0.0; 
stroke:#008484; stroke-width:59.842520; stroke-opacity:1; 
stroke-linecap:round; stroke-linejoin:round;">
<g >
</g>
<g style="fill:#840000; fill-opacity:0.0; 
stroke:#840000; stroke-width:59.842520; stroke-opacity:1; 
stroke-linecap:round; stroke-linejoin:round;">
</g>
<g style="fill:#840000; fill-opacity:0.0; 
stroke:#840000; stroke-width:100.000000; stroke-opacity:1; 
stroke-linecap:round; stroke-linejoin:round;">
<rect x="21600.000000" y="21250.000000" width="800.000000" height="2000.000000" rx="0.000000" />
</g>
<g style="fill:#840000; fill-opacity:0.0; 
stroke:#840000; stroke-width:59.842520; stroke-opacity:1; 
stroke-linecap:round; stroke-linejoin:round;">
<path d="M22000 21250
L22000 20750
" />
<path d="M22000 23250
L22000 23750
" />
</g>
<g style="fill:#008484; fill-opacity:0.0; 
stroke:#008484; stroke-width:59.842520; stroke-opacity:1; 
stroke-linecap:round; stroke-linejoin:round;">
<text x="23195.590551" y="22074.330709"
textLength="988.425197" font-size="666.653543" lengthAdjust="spacingAndGlyphs"
text-anchor="middle" opacity="0">R?</text>
<g class="stroked-text"><desc>R?</desc>
<path d="M23136 22050
L22969 21812
" />
<path d="M22850 22050
L22850 21550
L23040 21550
L23088 21574
L23112 21598
L23136 21645
L23136 21717
L23112 21764
L23088 21788
L23040 21812
L22850 21812
" />
<path d="M23421 22002
L23445 22026
L23421 22050
L23397 22026
L23421 22002
L23421 22050
" />
<path d="M23326 21574
L23374 21550
L23493 21550
L23540 21574
L23564 21621
L23564 21669
L23540 21717
L23517 21740
L23469 21764
L23445 21788
L23421 21836
L23421 21860
" />
</g><text x="24243.149606" y="22979.212598"
textLength="3083.661417" font-size="666.653543" lengthAdjust="spacingAndGlyphs"
text-anchor="middle" opacity="0">10Kohm</text>
<g class="stroked-text"><desc>10Kohm</desc>
<path d="M23112 22955
L22826 22955
" />
<path d="M22969 22955
L22969 22455
L22921 22526
L22874 22574
L22826 22598
" />
<path d="M23421 22455
L23469 22455
L23516 22479
L23540 22502
L23564 22550
L23588 22645
L23588 22764
L23564 22860
L23540 22907
L23516 22931
L23469 22955
L23421 22955
L23374 22931
L23350 22907
L23326 22860
L23302 22764
L23302 22645
L23326 22550
L23350 22502
L23374 22479
L23421 22455
" />
<path d="M23802 22955
L23802 22455
" />
<path d="M24088 22955
L23874 22669
" />
<path d="M24088 22455
L23802 22741
" />
<path d="M24374 22955
L24326 22931
L24302 22907
L24278 22860
L24278 22717
L24302 22669
L24326 22645
L24374 22622
L24445 22622
L24493 22645
L24516 22669
L24540 22717
L24540 22860
L24516 22907
L24493 22931
L24445 22955
L24374 22955
" />
<path d="M24755 22955
L24755 22455
" />
<path d="M24969 22955
L24969 22693
L24945 22645
L24897 22622
L24826 22622
L24778 22645
L24755 22669
" />
<path d="M25207 22955
L25207 22622
" />
<path d="M25207 22669
L25231 22645
L25278 22622
L25350 22622
L25397 22645
L25421 22693
L25421 22955
" />
<path d="M25421 22693
L25445 22645
L25493 22622
L25564 22622
L25612 22645
L25635 22693
L25635 22955
" />
</g></g>
</g>
<g style="fill:#008484; fill-opacity:0.0; 
stroke:#008484; stroke-width:59.842520; stroke-opacity:1; 
stroke-linecap:round; stroke-linejoin:round;">
<g >
</g>
<g style="fill:#840000; fill-opacity:0.0; 
stroke:#840000; stroke-width:59.842520; stroke-opacity:1; 
stroke-linecap:round; stroke-linejoin:round;">
<path style="fill:#840000; fill-opacity:0.0; 
stroke:#840000; stroke-width:59.842520; stroke-opacity:1; 
stroke-linecap:round; stroke-linejoin:round;fill:none"
d="M 22000.000000,28250.000000
22000.000000,28750.000000
22500.000000,28750.000000
22000.000000,29250.000000
21500.000000,28750.000000
22000.000000,28750.000000
" /> 
</g>
<g style="fill:#008484; fill-opacity:0.0; 
stroke:#008484; stroke-width:59.842520; stroke-opacity:1; 
stroke-linecap:round; stroke-linejoin:round;">
<text x="22045.000000" y="30229.370079"
textLength="1583.661417" font-size="666.653543" lengthAdjust="spacingAndGlyphs"
text-anchor="middle" opacity="0">GND</text>
<g class="stroked-text"><desc>GND</desc>
<path d="M21664 29729
L21616 29705
L21545 29705
L21473 29729
L21425 29776
L21402 29824
L21378 29919
L21378 29991
L21402 30086
L21425 30134
L21473 30181
L21545 30205
L21592 30205
L21664 30181
L21687 30157
L21687 29991
L21592 29991
" />
<path d="M21902 30205
L21902 29705
L22187 30205
L22187 29705
" />
<path d="M22425 30205
L22425 29705
L22545 29705
L22616 29729
L22664 29776
L22687 29824
L22711 29919
L22711 29991
L22687 30086
L22664 30134
L22616 30181
L22545 30205
L22425 30205
" />
</g></g>
</g>
<g style="fill:#008484; fill-opacity:0.0; 
stroke:#008484; stroke-width:59.842520; stroke-opacity:1; 
stroke-linecap:round; stroke-linejoin:round;">
<g >
</g>
<g style="fill:#840000; fill-opacity:0.0; 
stroke:#840000; stroke-width:59.842520; stroke-opacity:1; 
stroke-linecap:round; stroke-linejoin:round;">
<path style="fill:#840000; fill-opacity:0.0; 
stroke:#840000; stroke-width:59.842520; stroke-opacity:1; 
stroke-linecap:round; stroke-linejoin:round;fill:none"
d="M 14000.000000,28250.000000
14000.000000,28750.000000
14500.000000,28750.000000
14000.000000,29250.000000
13500.000000,28750.000000
14000.000000,28750.000000
" /> 
</g>
<g style="fill:#008484; fill-opacity:0.0; 
stroke:#008484; stroke-width:59.842520; stroke-opacity:1; 
stroke-linecap:round; stroke-linejoin:round;">
<text x="14045.000000" y="30229.370079"
textLength="1583.661417" font-size="666.653543" lengthAdjust="spacingAndGlyphs"
text-anchor="middle" opacity="0">GND</text>
<g class="stroked-text"><desc>GND</desc>
<path d="M13664 29729
L13616 29705
L13545 29705
L13473 29729
L13425 29776
L13402 29824
L13378 29919
L13378 29991
L13402 30086
L13425 30134
L13473 30181
L13545 30205
L13592 30205
L13664 30181
L13687 30157
L13687 29991
L13592 29991
" />
<path d="M13902 30205
L13902 29705
L14187 30205
L14187 29705
" />
<path d="M14425 30205
L14425 29705
L14545 29705
L14616 29729
L14664 29776
L14687 29824
L14711 29919
L14711 29991
L14687 30086
L14664 30134
L14616 30181
L14545 30205
L14425 30205
" />
</g></g>
</g>
<g style="fill:#008484; fill-opacity:0.0; 
stroke:#008484; stroke-width:59.842520; stroke-opacity:1; 
stroke-linecap:round; stroke-linejoin:round;">
<g >
</g>
<g style="fill:#840000; fill-opacity:0.0; 
stroke:#840000; stroke-width:59.842520; stroke-opacity:1; 
stroke-linecap:round; stroke-linejoin:round;">
</g>
<g style="fill:#840000; fill-opacity:0.0; 
stroke:#840000; stroke-width:100.000000; stroke-opacity:1; 
stroke-linecap:round; stroke-linejoin:round;">
<rect x="21600.000000" y="25250.000000" width="800.000000" height="2000.000000" rx="0.000000" />
</g>
<g style="fill:#840000; fill-opacity:0.0; 
stroke:#840000; stroke-width:59.842520; stroke-opacity:1; 
stroke-linecap:round; stroke-linejoin:round;">
<path d="M22000 25250
L22000 24750
" />
<path d="M22000 27250
L22000 27750
" />
</g>
<g style="fill:#008484; fill-opacity:0.0; 
stroke:#008484; stroke-width:59.842520; stroke-opacity:1; 
stroke-linecap:round; stroke-linejoin:round;">
<text x="23195.590551" y="26074.330709"
textLength="988.425197" font-size="666.653543" lengthAdjust="spacingAndGlyphs"
text-anchor="middle" opacity="0">R?</text>
<g class="stroked-text"><desc>R?</desc>
<path d="M23136 26050
L22969 25812
" />
<path d="M22850 26050
L22850 25550
L23040 25550
L23088 25574
L23112 25598
L23136 25645
L23136 25717
L23112 25764
L23088 25788
L23040 25812
L22850 25812
" />
<path d="M23421 26002
L23445 26026
L23421 26050
L23397 26026
L23421 26002
L23421 26050
" />
<path d="M23326 25574
L23374 25550
L23493 25550
L23540 25574
L23564 25621
L23564 25669
L23540 25717
L23517 25740
L23469 25764
L23445 25788
L23421 25836
L23421 25860
" />
</g><text x="24243.149606" y="26979.212598"
textLength="3083.661417" font-size="666.653543" lengthAdjust="spacingAndGlyphs"
text-anchor="middle" opacity="0">10Kohm</text>
<g class="stroked-text"><desc>10Kohm</desc>
<path d="M23112 26955
L22826 26955
" />
<path d="M22969 26955
L22969 26455
L22921 26526
L22874 26574
L22826 26598
" />
<path d="M23421 26455
L23469 26455
L23516 26479
L23540 26502
L23564 26550
L23588 26645
L23588 26764
L23564 26860
L23540 26907
L23516 26931
L23469 26955
L23421 26955
L23374 26931
L23350 26907
L23326 26860
L23302 26764
L23302 26645
L23326 26550
L23350 26502
L23374 26479
L23421 26455
" />
<path d="M23802 26955
L23802 26455
" />
<path d="M24088 26955
L23874 26669
" />
<path d="M24088 26455
L23802 26741
" />
<path d="M24374 26955
L24326 26931
L24302 26907
L24278 26860
L24278 26717
L24302 26669
L24326 26645
L24374 26622
L24445 26622
L24493 26645
L24516 26669
L24540 26717
L24540 26860
L24516 26907
L24493 26931
L24445 26955
L24374 26955
" />
<path d="M24755 26955
L24755 26455
" />
<path d="M24969 26955
L24969 26693
L24945 26645
L24897 26622
L24826 26622
L24778 26645
L24755 26669
" />
<path d="M25207 26955
L25207 26622
" />
<path d="M25207 26669
L25231 26645
L25278 26622
L25350 26622
L25397 26645
L25421 26693
L25421 26955
" />
<path d="M25421 26693
L25445 26645
L25493 26622
L25564 26622
L25612 26645
L25635 26693
L25635 26955
" />
</g></g>
</g>
<g style="fill:#008484; fill-opacity:0.0; 
stroke:#008484; stroke-width:59.842520; stroke-opacity:1; 
stroke-linecap:round; stroke-linejoin:round;">
<g >
</g>
<g style="fill:#840000; fill-opacity:0.0; 
stroke:#840000; stroke-width:59.842520; stroke-opacity:1; 
stroke-linecap:round; stroke-linejoin:round;">
</g>
<g style="fill:#FFFFC2; fill-opacity:0.0; 
stroke:#FFFFC2; stroke-width:59.842520; stroke-opacity:1; 
stroke-linecap:round; stroke-linejoin:round;">
</g>
<g style="fill:#FFFFC2; fill-opacity:0.6; 
stroke:#FFFFC2; stroke-width:0.039370; stroke-opacity:1; 
stroke-linecap:round; stroke-linejoin:round;">
<rect x="13000.000000" y="12000.000000" width="2000.000000" height="2500.000000" rx="0.000000" />
</g>
<g style="fill:#840000; fill-opacity:0.6; 
stroke:#840000; stroke-width:0.039370; stroke-opacity:1; 
stroke-linecap:round; stroke-linejoin:round;">
</g>
<g style="fill:#840000; fill-opacity:0.0; 
stroke:#840000; stroke-width:100.000000; stroke-opacity:1; 
stroke-linecap:round; stroke-linejoin:round;">
<rect x="13000.000000" y="12000.000000" width="2000.000000" height="2500.000000" rx="0.000000" />
</g>
<g style="fill:#840000; fill-opacity:0.0; 
stroke:#840000; stroke-width:8.346457; stroke-opacity:1; 
stroke-linecap:round; stroke-linejoin:round;">
<circle cx="14000.000000" cy="13500.000000" r="500.000000" /> 
<circle cx="14000.000000" cy="13000.000000" r="500.000000" /> 
</g>
<g style="fill:#840000; fill-opacity:0.0; 
stroke:#840000; stroke-width:100.000000; stroke-opacity:1; 
stroke-linecap:round; stroke-linejoin:round;">
<rect x="13000.000000" y="12000.000000" width="2000.000000" height="2500.000000" rx="0.000000" />
</g>
<g style="fill:#840000; fill-opacity:0.0; 
stroke:#840000; stroke-width:59.842520; stroke-opacity:1; 
stroke-linecap:round; stroke-linejoin:round;">
<path style="fill:#840000; fill-opacity:0.0; 
stroke:#840000; stroke-width:59.842520; stroke-opacity:1; 
stroke-linecap:round; stroke-linejoin:round;fill:none"
d="M 13550.000000,14200.000000
13850.000000,14200.000000
" /> 
<path style="fill:#840000; fill-opacity:0.0; 
stroke:#840000; stroke-width:59.842520; stroke-opacity:1; 
stroke-linecap:round; stroke-linejoin:round;fill:none"
d="M 13600.000000,12300.000000
13900.000000,12300.000000
" /> 
<path style="fill:#840000; fill-opacity:0.0; 
stroke:#840000; stroke-width:59.842520; stroke-opacity:1; 
stroke-linecap:round; stroke-linejoin:round;fill:none"
d="M 13750.000000,12150.000000
13750.000000,12450.000000
" /> 
<path style="fill:#840000; fill-opacity:0.0; 
stroke:#840000; stroke-width:59.842520; stroke-opacity:1; 
stroke-linecap:round; stroke-linejoin:round;fill:none"
d="M 14000.000000,14000.000000
14000.000000,15250.000000
" /> 
</g>
<g style="fill:#840000; fill-opacity:0.0; 
stroke:#840000; stroke-width:100.000000; stroke-opacity:1; 
stroke-linecap:round; stroke-linejoin:round;">
<path style="fill:#840000; fill-opacity:0.0; 
stroke:#840000; stroke-width:100.000000; stroke-opacity:1; 
stroke-linecap:round; stroke-linejoin:round;fill:none"
d="M 14000.000000,12700.000000
14000.000000,13800.000000
" /> 
</g>
<g style="fill:#840000; fill-opacity:0.0; 
stroke:#840000; stroke-width:59.842520; stroke-opacity:1; 
stroke-linecap:round; stroke-linejoin:round;">
<path style="fill:#840000; fill-opacity:0.0; 
stroke:#840000; stroke-width:59.842520; stroke-opacity:1; 
stroke-linecap:round; stroke-linejoin:round;fill:none"
d="M 14000.000000,11250.000000
14000.000000,12500.000000
" /> 
<path style="fill:#840000; fill-opacity:0.0; 
stroke:#840000; stroke-width:59.842520; stroke-opacity:1; 
stroke-linecap:round; stroke-linejoin:round;fill:none"
d="M 15000.000000,13250.000000
14500.000000,13250.000000
" /> 
</g>
<g style="fill:#840000; fill-opacity:0.0; 
stroke:#840000; stroke-width:100.000000; stroke-opacity:1; 
stroke-linecap:round; stroke-linejoin:round;">
<path style="fill:#840000; fill-opacity:0.0; 
stroke:#840000; stroke-width:100.000000; stroke-opacity:1; 
stroke-linecap:round; stroke-linejoin:round;fill:none"
d="M 14000.000000,13800.000000
13900.000000,13600.000000
14100.000000,13600.000000
Z" /> 
</g>
<g style="fill:#840000; fill-opacity:0.0; 
stroke:#840000; stroke-width:59.842520; stroke-opacity:1; 
stroke-linecap:round; stroke-linejoin:round;">
<path style="fill:#840000; fill-opacity:0.0; 
stroke:#840000; stroke-width:59.842520; stroke-opacity:1; 
stroke-linecap:round; stroke-linejoin:round;fill:none"
d="M 14500.000000,13250.000000
14850.000000,13150.000000
14850.000000,13350.000000
Z" /> 
<path d="M14000 12250
L14000 11250
" />
<g transform="rotate(-90.000000 13900.157480 11750.000000)">
<text x="13900.157480" y="11750.000000"
textLength="536.023622" font-size="666.653543" lengthAdjust="spacingAndGlyphs"
text-anchor="middle" opacity="0">1</text>
</g>
<g class="stroked-text"><desc>1</desc>
<path d="M13876 11607
L13876 11892
" />
<path d="M13876 11750
L13376 11750
L13447 11797
L13495 11845
L13519 11892
" />
</g><path d="M15000 13250
L16000 13250
" />
<text x="15500.000000" y="13150.157480"
textLength="536.023622" font-size="666.653543" lengthAdjust="spacingAndGlyphs"
text-anchor="middle" opacity="0">2</text>
<g class="stroked-text"><desc>2</desc>
<path d="M15357 12673
L15380 12650
L15428 12626
L15547 12626
L15595 12650
L15619 12673
L15642 12721
L15642 12769
L15619 12840
L15333 13126
L15642 13126
" />
</g><path d="M14000 14250
L14000 15250
" />
<g transform="rotate(-90.000000 13900.157480 14750.000000)">
<text x="13900.157480" y="14750.000000"
textLength="536.023622" font-size="666.653543" lengthAdjust="spacingAndGlyphs"
text-anchor="middle" opacity="0">3</text>
</g>
<g class="stroked-text"><desc>3</desc>
<path d="M13376 14916
L13376 14607
L13566 14773
L13566 14702
L13590 14654
L13614 14630
L13662 14607
L13781 14607
L13828 14630
L13852 14654
L13876 14702
L13876 14845
L13852 14892
L13828 14916
" />
</g></g>
<g style="fill:#008484; fill-opacity:0.0; 
stroke:#008484; stroke-width:59.842520; stroke-opacity:1; 
stroke-linecap:round; stroke-linejoin:round;">
<text x="12192.519685" y="13074.330709"
textLength="1012.204724" font-size="666.653543" lengthAdjust="spacingAndGlyphs"
text-anchor="middle" opacity="0">U?</text>
<g class="stroked-text"><desc>U?</desc>
<path d="M11835 12550
L11835 12955
L11859 13002
L11882 13026
L11930 13050
L12025 13050
L12073 13026
L12097 13002
L12121 12955
L12121 12550
" />
<path d="M12430 13002
L12454 13026
L12430 13050
L12406 13026
L12430 13002
L12430 13050
" />
<path d="M12335 12574
L12382 12550
L12502 12550
L12549 12574
L12573 12621
L12573 12669
L12549 12717
L12525 12740
L12478 12764
L12454 12788
L12430 12836
L12430 12860
" />
</g><text x="11228.228346" y="13979.330709"
textLength="2940.787402" font-size="666.653543" lengthAdjust="spacingAndGlyphs"
text-anchor="middle" opacity="0">LM334Z</text>
<g class="stroked-text"><desc>LM334Z</desc>
<path d="M10144 13955
L9906 13955
L9906 13455
" />
<path d="M10311 13955
L10311 13455
L10478 13812
L10644 13455
L10644 13955
" />
<path d="M10835 13455
L11144 13455
L10978 13645
L11049 13645
L11097 13669
L11121 13693
L11144 13741
L11144 13860
L11121 13907
L11097 13931
L11049 13955
L10906 13955
L10859 13931
L10835 13907
" />
<path d="M11311 13455
L11621 13455
L11454 13645
L11525 13645
L11573 13669
L11597 13693
L11621 13741
L11621 13860
L11597 13907
L11573 13931
L11525 13955
L11382 13955
L11335 13931
L11311 13907
" />
<path d="M12049 13622
L12049 13955
" />
<path d="M11930 13431
L11811 13788
L12121 13788
" />
<path d="M12263 13455
L12597 13455
L12263 13955
L12597 13955
" />
</g></g>
</g>
<g style="fill:#008484; fill-opacity:0.0; 
stroke:#008484; stroke-width:59.842520; stroke-opacity:1; 
stroke-linecap:round; stroke-linejoin:round;">
<g >
</g>
<g style="fill:#840000; fill-opacity:0.0; 
stroke:#840000; stroke-width:59.842520; stroke-opacity:1; 
stroke-linecap:round; stroke-linejoin:round;">
</g>
<g style="fill:#840000; fill-opacity:0.0; 
stroke:#840000; stroke-width:8.346457; stroke-opacity:1; 
stroke-linecap:round; stroke-linejoin:round;">
<rect x="33000.000000" y="18750.000000" width="3000.000000" height="4000.000000" rx="0.000000" />
</g>
<g style="fill:#840000; fill-opacity:0.0; 
stroke:#840000; stroke-width:59.842520; stroke-opacity:1; 
stroke-linecap:round; stroke-linejoin:round;">
<path d="M34500 18750
L34500 17750
" />
</g>
<g style="fill:#008484; fill-opacity:0.0; 
stroke:#008484; stroke-width:59.842520; stroke-opacity:1; 
stroke-linecap:round; stroke-linejoin:round;">
<g transform="rotate(-90.000000 34500.000000 18950.000000)">
<text x="34500.000000" y="19200.000000"
textLength="1107.480315" font-size="666.653543" lengthAdjust="spacingAndGlyphs"
text-anchor="end" opacity="0">V+</text>
</g>
<g class="stroked-text"><desc>V+</desc>
<path d="M34226 19979
L34726 19813
L34226 19646
" />
<path d="M34535 19479
L34535 19098
" />
<path d="M34726 19289
L34345 19289
" />
</g></g>
<g style="fill:#840000; fill-opacity:0.0; 
stroke:#840000; stroke-width:59.842520; stroke-opacity:1; 
stroke-linecap:round; stroke-linejoin:round;">
<g transform="rotate(-90.000000 34400.157480 18250.000000)">
<text x="34400.157480" y="18250.000000"
textLength="536.023622" font-size="666.653543" lengthAdjust="spacingAndGlyphs"
text-anchor="middle" opacity="0">2</text>
</g>
<g class="stroked-text"><desc>2</desc>
<path d="M33923 18392
L33900 18369
L33876 18321
L33876 18202
L33900 18154
L33923 18130
L33971 18107
L34019 18107
L34090 18130
L34376 18416
L34376 18107
" />
</g><path d="M34500 22750
L34500 23750
" />
</g>
<g style="fill:#008484; fill-opacity:0.0; 
stroke:#008484; stroke-width:59.842520; stroke-opacity:1; 
stroke-linecap:round; stroke-linejoin:round;">
<g transform="rotate(-90.000000 34500.000000 22550.000000)">
<text x="34500.000000" y="22800.000000"
textLength="1107.480315" font-size="666.653543" lengthAdjust="spacingAndGlyphs"
text-anchor="start" opacity="0">V-</text>
</g>
<g class="stroked-text"><desc>V-</desc>
<path d="M34226 22472
L34726 22305
L34226 22139
" />
<path d="M34535 21972
L34535 21591
" />
</g></g>
<g style="fill:#840000; fill-opacity:0.0; 
stroke:#840000; stroke-width:59.842520; stroke-opacity:1; 
stroke-linecap:round; stroke-linejoin:round;">
<g transform="rotate(-90.000000 34400.157480 23250.000000)">
<text x="34400.157480" y="23250.000000"
textLength="536.023622" font-size="666.653543" lengthAdjust="spacingAndGlyphs"
text-anchor="middle" opacity="0">1</text>
</g>
<g class="stroked-text"><desc>1</desc>
<path d="M34376 23107
L34376 23392
" />
<path d="M34376 23250
L33876 23250
L33947 23297
L33995 23345
L34019 23392
" />
</g><path d="M36000 20750
L37000 20750
" />
</g>
<g style="fill:#008484; fill-opacity:0.0; 
stroke:#008484; stroke-width:59.842520; stroke-opacity:1; 
stroke-linecap:round; stroke-linejoin:round;">
<text x="35800.000000" y="21000.000000"
textLength="1369.370079" font-size="666.653543" lengthAdjust="spacingAndGlyphs"
text-anchor="end" opacity="0">ADJ</text>
<g class="stroked-text"><desc>ADJ</desc>
<path d="M34555 20833
L34793 20833
" />
<path d="M34508 20976
L34674 20476
L34841 20976
" />
<path d="M35008 20976
L35008 20476
L35127 20476
L35198 20500
L35246 20547
L35270 20595
L35293 20690
L35293 20761
L35270 20857
L35246 20904
L35198 20952
L35127 20976
L35008 20976
" />
<path d="M35651 20476
L35651 20833
L35627 20904
L35579 20952
L35508 20976
L35460 20976
" />
</g></g>
<g style="fill:#840000; fill-opacity:0.0; 
stroke:#840000; stroke-width:59.842520; stroke-opacity:1; 
stroke-linecap:round; stroke-linejoin:round;">
<text x="36500.000000" y="20650.157480"
textLength="536.023622" font-size="666.653543" lengthAdjust="spacingAndGlyphs"
text-anchor="middle" opacity="0">3</text>
<g class="stroked-text"><desc>3</desc>
<path d="M36333 20126
L36642 20126
L36476 20316
L36547 20316
L36595 20340
L36619 20364
L36642 20412
L36642 20531
L36619 20578
L36595 20602
L36547 20626
L36404 20626
L36357 20602
L36333 20578
" />
</g></g>
<g style="fill:#008484; fill-opacity:0.0; 
stroke:#008484; stroke-width:59.842520; stroke-opacity:1; 
stroke-linecap:round; stroke-linejoin:round;">
<text x="32242.559055" y="20574.488189"
textLength="1012.204724" font-size="666.653543" lengthAdjust="spacingAndGlyphs"
text-anchor="middle" opacity="0">U?</text>
<g class="stroked-text"><desc>U?</desc>
<path d="M31885 20050
L31885 20455
L31909 20503
L31933 20526
L31980 20550
L32075 20550
L32123 20526
L32147 20503
L32171 20455
L32171 20050
" />
<path d="M32480 20503
L32504 20526
L32480 20550
L32456 20526
L32480 20503
L32480 20550
" />
<path d="M32385 20074
L32433 20050
L32552 20050
L32599 20074
L32623 20122
L32623 20169
L32599 20217
L32575 20241
L32528 20264
L32504 20288
L32480 20336
L32480 20360
" />
</g><text x="31278.267717" y="21479.212598"
textLength="2940.787402" font-size="666.653543" lengthAdjust="spacingAndGlyphs"
text-anchor="middle" opacity="0">LM335Z</text>
<g class="stroked-text"><desc>LM335Z</desc>
<path d="M30194 21455
L29956 21455
L29956 20955
" />
<path d="M30361 21455
L30361 20955
L30528 21312
L30694 20955
L30694 21455
" />
<path d="M30885 20955
L31194 20955
L31028 21145
L31099 21145
L31147 21169
L31171 21193
L31194 21241
L31194 21360
L31171 21407
L31147 21431
L31099 21455
L30956 21455
L30909 21431
L30885 21407
" />
<path d="M31361 20955
L31671 20955
L31504 21145
L31575 21145
L31623 21169
L31647 21193
L31671 21241
L31671 21360
L31647 21407
L31623 21431
L31575 21455
L31432 21455
L31385 21431
L31361 21407
" />
<path d="M32123 20955
L31885 20955
L31861 21193
L31885 21169
L31932 21145
L32052 21145
L32099 21169
L32123 21193
L32147 21241
L32147 21360
L32123 21407
L32099 21431
L32052 21455
L31932 21455
L31885 21431
L31861 21407
" />
<path d="M32313 20955
L32647 20955
L32313 21455
L32647 21455
" />
</g></g>
</g>
<g style="fill:#008484; fill-opacity:0.0; 
stroke:#008484; stroke-width:62.519685; stroke-opacity:1; 
stroke-linecap:round; stroke-linejoin:round;">
</g>
<g style="fill:#008484; fill-opacity:0.0; 
stroke:#008484; stroke-width:59.842520; stroke-opacity:1; 
stroke-linecap:round; stroke-linejoin:round;">
</g>
<g style="fill:#840000; fill-opacity:0.0; 
stroke:#840000; stroke-width:59.842520; stroke-opacity:1; 
stroke-linecap:round; stroke-linejoin:round;">
<g transform="rotate(-90.000000 34500.000000 10725.000000)">
<text x="34500.000000" y="10975.000000"
textLength="1178.897638" font-size="666.653543" lengthAdjust="spacingAndGlyphs"
text-anchor="start" opacity="0">Vin</text>
</g>
<g class="stroked-text"><desc>Vin</desc>
<path d="M34226 10647
L34726 10480
L34226 10314
" />
<path d="M34726 10147
L34392 10147
" />
<path d="M34226 10147
L34250 10171
L34273 10147
L34250 10123
L34226 10147
L34273 10147
" />
<path d="M34392 9909
L34726 9909
" />
<path d="M34440 9909
L34416 9885
L34392 9837
L34392 9766
L34416 9718
L34464 9695
L34726 9695
" />
</g><path style="fill:#840000; fill-opacity:0.0; 
stroke:#840000; stroke-width:59.842520; stroke-opacity:1; 
stroke-linecap:round; stroke-linejoin:round;fill:none"
d="M 34500.000000,11250.000000
34962.637795,10850.000000
34962.637795,9305.787402
34500.000000,9305.787402
34037.362205,9305.787402
34037.362205,10850.000000
Z" /> 
</g>
<g style="fill:#840000; fill-opacity:0.0; 
stroke:#840000; stroke-width:62.519685; stroke-opacity:1; 
stroke-linecap:round; stroke-linejoin:round;">
</g>
<g style="fill:#840000; fill-opacity:0.0; 
stroke:#840000; stroke-width:59.842520; stroke-opacity:1; 
stroke-linecap:round; stroke-linejoin:round;">
<g transform="rotate(-90.000000 14000.000000 10725.000000)">
<text x="14000.000000" y="10975.000000"
textLength="1181.574803" font-size="666.653543" lengthAdjust="spacingAndGlyphs"
text-anchor="start" opacity="0">Vin</text>
</g>
<g class="stroked-text"><desc>Vin</desc>
<path d="M13726 10647
L14226 10480
L13726 10314
" />
<path d="M14226 10147
L13892 10147
" />
<path d="M13726 10147
L13750 10171
L13773 10147
L13750 10123
L13726 10147
L13773 10147
" />
<path d="M13892 9909
L14226 9909
" />
<path d="M13940 9909
L13916 9885
L13892 9837
L13892 9766
L13916 9718
L13964 9695
L14226 9695
" />
</g><path style="fill:#840000; fill-opacity:0.0; 
stroke:#840000; stroke-width:59.842520; stroke-opacity:1; 
stroke-linecap:round; stroke-linejoin:round;fill:none"
d="M 14000.000000,11250.000000
14462.637795,10850.000000
14462.637795,9305.787402
14000.000000,9305.787402
13537.362205,9305.787402
13537.362205,10850.000000
Z" /> 
</g>
<g style="fill:#840000; fill-opacity:0.0; 
stroke:#840000; stroke-width:62.519685; stroke-opacity:1; 
stroke-linecap:round; stroke-linejoin:round;">
</g>
<g style="fill:#840000; fill-opacity:0.0; 
stroke:#840000; stroke-width:59.842520; stroke-opacity:1; 
stroke-linecap:round; stroke-linejoin:round;">
<text x="22525.000000" y="24500.000000"
textLength="2848.228346" font-size="666.653543" lengthAdjust="spacingAndGlyphs"
text-anchor="start" opacity="0">Temp_1</text>
<g class="stroked-text"><desc>Temp_1</desc>
<path d="M22602 23976
L22888 23976
" />
<path d="M22745 24476
L22745 23976
" />
<path d="M23245 24452
L23197 24476
L23102 24476
L23054 24452
L23031 24404
L23031 24214
L23054 24166
L23102 24142
L23197 24142
L23245 24166
L23269 24214
L23269 24261
L23031 24309
" />
<path d="M23483 24476
L23483 24142
" />
<path d="M23483 24190
L23507 24166
L23554 24142
L23626 24142
L23673 24166
L23697 24214
L23697 24476
" />
<path d="M23697 24214
L23721 24166
L23769 24142
L23840 24142
L23888 24166
L23912 24214
L23912 24476
" />
<path d="M24150 24142
L24150 24642
" />
<path d="M24150 24166
L24197 24142
L24292 24142
L24340 24166
L24364 24190
L24388 24238
L24388 24380
L24364 24428
L24340 24452
L24292 24476
L24197 24476
L24150 24452
" />
<path d="M24483 24523
L24864 24523
" />
<path d="M25245 24476
L24959 24476
" />
<path d="M25102 24476
L25102 23976
L25054 24047
L25007 24095
L24959 24119
" />
</g><path style="fill:#840000; fill-opacity:0.0; 
stroke:#840000; stroke-width:59.842520; stroke-opacity:1; 
stroke-linecap:round; stroke-linejoin:round;fill:none"
d="M 22000.000000,24250.000000
22400.000000,24712.637795
25610.866142,24712.637795
25610.866142,24250.000000
25610.866142,23787.362205
22400.000000,23787.362205
Z" /> 
</g>
<g style="fill:#840000; fill-opacity:0.0; 
stroke:#840000; stroke-width:62.519685; stroke-opacity:1; 
stroke-linecap:round; stroke-linejoin:round;">
</g>
<g style="fill:#840000; fill-opacity:0.0; 
stroke:#840000; stroke-width:59.842520; stroke-opacity:1; 
stroke-linecap:round; stroke-linejoin:round;">
<text x="43025.000000" y="24500.000000"
textLength="2848.228346" font-size="666.653543" lengthAdjust="spacingAndGlyphs"
text-anchor="start" opacity="0">Temp_2</text>
<g class="stroked-text"><desc>Temp_2</desc>
<path d="M43102 23976
L43388 23976
" />
<path d="M43245 24476
L43245 23976
" />
<path d="M43745 24452
L43697 24476
L43602 24476
L43554 24452
L43531 24404
L43531 24214
L43554 24166
L43602 24142
L43697 24142
L43745 24166
L43769 24214
L43769 24261
L43531 24309
" />
<path d="M43983 24476
L43983 24142
" />
<path d="M43983 24190
L44007 24166
L44054 24142
L44126 24142
L44173 24166
L44197 24214
L44197 24476
" />
<path d="M44197 24214
L44221 24166
L44269 24142
L44340 24142
L44388 24166
L44412 24214
L44412 24476
" />
<path d="M44650 24142
L44650 24642
" />
<path d="M44650 24166
L44697 24142
L44792 24142
L44840 24166
L44864 24190
L44888 24238
L44888 24380
L44864 24428
L44840 24452
L44792 24476
L44697 24476
L44650 24452
" />
<path d="M44983 24523
L45364 24523
" />
<path d="M45459 24023
L45483 24000
L45531 23976
L45650 23976
L45697 24000
L45721 24023
L45745 24071
L45745 24119
L45721 24190
L45435 24476
L45745 24476
" />
</g><path style="fill:#840000; fill-opacity:0.0; 
stroke:#840000; stroke-width:59.842520; stroke-opacity:1; 
stroke-linecap:round; stroke-linejoin:round;fill:none"
d="M 42500.000000,24250.000000
42900.000000,24712.637795
46110.866142,24712.637795
46110.866142,24250.000000
46110.866142,23787.362205
42900.000000,23787.362205
Z" /> 
</g>
<g style="fill:#840000; fill-opacity:0.0; 
stroke:#840000; stroke-width:62.519685; stroke-opacity:1; 
stroke-linecap:round; stroke-linejoin:round;">
</g>
<g style="fill:#840000; fill-opacity:0.0; 
stroke:#840000; stroke-width:59.842520; stroke-opacity:1; 
stroke-linecap:round; stroke-linejoin:round;">
</g>
<g style="fill:#0000C2; fill-opacity:0.0; 
stroke:#0000C2; stroke-width:59.842520; stroke-opacity:1; 
stroke-linecap:round; stroke-linejoin:round;">
<text x="50500.000000" y="34037.480315"
textLength="8276.811024" font-size="666.653543" lengthAdjust="spacingAndGlyphs"
text-anchor="end" opacity="0">Temperature sensors </text>
<g class="stroked-text"><desc>Temperature sensors </desc>
<path d="M42303 33513
L42589 33513
" />
<path d="M42446 34013
L42446 33513
" />
<path d="M42946 33989
L42898 34013
L42803 34013
L42755 33989
L42731 33942
L42731 33751
L42755 33704
L42803 33680
L42898 33680
L42946 33704
L42970 33751
L42970 33799
L42731 33846
" />
<path d="M43184 34013
L43184 33680
" />
<path d="M43184 33727
L43208 33704
L43255 33680
L43327 33680
L43374 33704
L43398 33751
L43398 34013
" />
<path d="M43398 33751
L43422 33704
L43470 33680
L43541 33680
L43589 33704
L43612 33751
L43612 34013
" />
<path d="M43851 33680
L43851 34180
" />
<path d="M43851 33704
L43898 33680
L43993 33680
L44041 33704
L44065 33727
L44089 33775
L44089 33918
L44065 33966
L44041 33989
L43993 34013
L43898 34013
L43851 33989
" />
<path d="M44493 33989
L44446 34013
L44351 34013
L44303 33989
L44279 33942
L44279 33751
L44303 33704
L44351 33680
L44446 33680
L44493 33704
L44517 33751
L44517 33799
L44279 33846
" />
<path d="M44731 34013
L44731 33680
" />
<path d="M44731 33775
L44755 33727
L44779 33704
L44827 33680
L44874 33680
" />
<path d="M45255 34013
L45255 33751
L45231 33704
L45184 33680
L45089 33680
L45041 33704
" />
<path d="M45255 33989
L45208 34013
L45089 34013
L45041 33989
L45017 33942
L45017 33894
L45041 33846
L45089 33823
L45208 33823
L45255 33799
" />
<path d="M45422 33680
L45612 33680
" />
<path d="M45493 33513
L45493 33942
L45517 33989
L45565 34013
L45612 34013
" />
<path d="M45993 33680
L45993 34013
" />
<path d="M45779 33680
L45779 33942
L45803 33989
L45851 34013
L45922 34013
L45970 33989
L45993 33966
" />
<path d="M46231 34013
L46231 33680
" />
<path d="M46231 33775
L46255 33727
L46279 33704
L46327 33680
L46374 33680
" />
<path d="M46731 33989
L46684 34013
L46589 34013
L46541 33989
L46517 33942
L46517 33751
L46541 33704
L46589 33680
L46684 33680
L46731 33704
L46755 33751
L46755 33799
L46517 33846
" />
<path d="M47327 33989
L47374 34013
L47470 34013
L47517 33989
L47541 33942
L47541 33918
L47517 33870
L47470 33846
L47398 33846
L47351 33823
L47327 33775
L47327 33751
L47351 33704
L47398 33680
L47470 33680
L47517 33704
" />
<path d="M47946 33989
L47898 34013
L47803 34013
L47755 33989
L47731 33942
L47731 33751
L47755 33704
L47803 33680
L47898 33680
L47946 33704
L47970 33751
L47970 33799
L47731 33846
" />
<path d="M48184 33680
L48184 34013
" />
<path d="M48184 33727
L48208 33704
L48255 33680
L48327 33680
L48374 33704
L48398 33751
L48398 34013
" />
<path d="M48612 33989
L48660 34013
L48755 34013
L48803 33989
L48827 33942
L48827 33918
L48803 33870
L48755 33846
L48684 33846
L48636 33823
L48612 33775
L48612 33751
L48636 33704
L48684 33680
L48755 33680
L48803 33704
" />
<path d="M49112 34013
L49065 33989
L49041 33966
L49017 33918
L49017 33775
L49041 33727
L49065 33704
L49112 33680
L49184 33680
L49231 33704
L49255 33727
L49279 33775
L49279 33918
L49255 33966
L49231 33989
L49184 34013
L49112 34013
" />
<path d="M49493 34013
L49493 33680
" />
<path d="M49493 33775
L49517 33727
L49541 33704
L49589 33680
L49636 33680
" />
<path d="M49779 33989
L49827 34013
L49922 34013
L49970 33989
L49993 33942
L49993 33918
L49970 33870
L49922 33846
L49851 33846
L49803 33823
L49779 33775
L49779 33751
L49803 33704
L49851 33680
L49922 33680
L49970 33704
" />
</g></g>
<g style="fill:#0000C2; fill-opacity:0.0; 
stroke:#0000C2; stroke-width:60.000000; stroke-opacity:1; 
stroke-linecap:round; stroke-linejoin:round;">
</g>
<g style="fill:#0000C2; fill-opacity:0.0; 
stroke:#0000C2; stroke-width:60.000000; stroke-opacity:1; 
stroke-linecap:round; stroke-linejoin:round;stroke-dasharray:120.118110,120.118110;">
<path d="M50500 34250
L50500 7250
" />
</g>
<g style="fill:#0000C2; fill-opacity:0.0; 
stroke:#0000C2; stroke-width:60.000000; stroke-opacity:1; 
stroke-linecap:round; stroke-linejoin:round;">
</g>
<g style="fill:#0000C2; fill-opacity:0.0; 
stroke:#0000C2; stroke-width:60.000000; stroke-opacity:1; 
stroke-linecap:round; stroke-linejoin:round;stroke-dasharray:120.118110,120.118110;">
<path d="M7000 34250
L50500 34250
" />
</g>
<g style="fill:#0000C2; fill-opacity:0.0; 
stroke:#0000C2; stroke-width:60.000000; stroke-opacity:1; 
stroke-linecap:round; stroke-linejoin:round;">
</g>
<g style="fill:#0000C2; fill-opacity:0.0; 
stroke:#0000C2; stroke-width:60.000000; stroke-opacity:1; 
stroke-linecap:round; stroke-linejoin:round;stroke-dasharray:120.118110,120.118110;">
<path d="M7000 7250
L7000 34250
" />
</g>
<g style="fill:#0000C2; fill-opacity:0.0; 
stroke:#0000C2; stroke-width:60.000000; stroke-opacity:1; 
stroke-linecap:round; stroke-linejoin:round;">
</g>
<g style="fill:#0000C2; fill-opacity:0.0; 
stroke:#0000C2; stroke-width:60.000000; stroke-opacity:1; 
stroke-linecap:round; stroke-linejoin:round;stroke-dasharray:120.118110,120.118110;">
<path d="M50500 7250
L7000 7250
" />
</g>
<g style="fill:#0000C2; fill-opacity:0.0; 
stroke:#0000C2; stroke-width:60.000000; stroke-opacity:1; 
stroke-linecap:round; stroke-linejoin:round;">
</g>
<g style="fill:#008400; fill-opacity:0.0; 
stroke:#008400; stroke-width:60.000000; stroke-opacity:1; 
stroke-linecap:round; stroke-linejoin:round;">
<path d="M14000 15250
L14000 17750
" />
<path d="M42500 27750
L42500 28250
" />
<path d="M42500 23750
L42500 24750
" />
<path d="M42500 20750
L40000 20750
" />
<path d="M14000 23750
L14000 28250
" />
<path d="M19500 16750
L19500 20750
" />
<path d="M40000 16750
L40000 20750
" />
<path d="M40000 13250
L40000 13750
" />
<path d="M37000 20750
L40000 20750
" />
<path d="M36500 13250
L40000 13250
" />
<path d="M34500 15250
L34500 17750
" />
<path d="M22000 27750
L22000 28250
" />
<path d="M22000 23750
L22000 24750
" />
<path d="M19500 13250
L19500 13750
" />
<path d="M16500 20750
L19500 20750
" />
<path d="M16000 13250
L19500 13250
" />
<path d="M34500 23750
L34500 28250
" />
<path d="M22000 20750
L19500 20750
" />
</g>
<g style="fill:#008400; fill-opacity:0.0; 
stroke:#008400; stroke-width:59.842520; stroke-opacity:1; 
stroke-linecap:round; stroke-linejoin:round;">
</g>
<g style="fill:#008400; fill-opacity:1.0; 
stroke:#008400; stroke-width:59.842520; stroke-opacity:1; 
stroke-linecap:round; stroke-linejoin:round;">
<circle cx="19500.000000" cy="20750.000000" r="200.000000" /> 
<circle cx="40000.000000" cy="20750.000000" r="200.000000" /> 
</g> 
</svg>
