%TF.GenerationSoftware,KiCad,Pcbnew,(5.99.0-9568-gb9d26a55f2)*%
%TF.CreationDate,2021-03-16T11:19:51+01:00*%
%TF.ProjectId,Controller Front,436f6e74-726f-46c6-9c65-722046726f6e,rev?*%
%TF.SameCoordinates,Original*%
%TF.FileFunction,Copper,L1,Top*%
%TF.FilePolarity,Positive*%
%FSLAX46Y46*%
G04 Gerber Fmt 4.6, Leading zero omitted, Abs format (unit mm)*
G04 Created by KiCad (PCBNEW (5.99.0-9568-gb9d26a55f2)) date 2021-03-16 11:19:51*
%MOMM*%
%LPD*%
G01*
G04 APERTURE LIST*
G04 APERTURE END LIST*
%TA.AperFunction,NonConductor*%
G36*
X247998163Y-43508607D02*
G01*
X248174740Y-43525999D01*
X248198957Y-43530815D01*
X248362809Y-43580518D01*
X248385629Y-43589971D01*
X248536631Y-43670683D01*
X248557158Y-43684399D01*
X248689521Y-43793026D01*
X248706974Y-43810479D01*
X248815601Y-43942842D01*
X248829317Y-43963369D01*
X248856190Y-44013644D01*
X248910029Y-44114371D01*
X248919482Y-44137190D01*
X248969185Y-44301043D01*
X248974001Y-44325260D01*
X248985495Y-44441950D01*
X248991393Y-44501837D01*
X248992000Y-44514187D01*
X248992000Y-169985813D01*
X248991393Y-169998163D01*
X248975927Y-170155196D01*
X248974002Y-170174737D01*
X248969185Y-170198957D01*
X248965309Y-170211736D01*
X248919482Y-170362809D01*
X248910029Y-170385629D01*
X248829319Y-170536628D01*
X248815601Y-170557158D01*
X248706974Y-170689521D01*
X248689521Y-170706974D01*
X248557158Y-170815601D01*
X248536631Y-170829317D01*
X248444417Y-170878607D01*
X248385629Y-170910029D01*
X248362810Y-170919482D01*
X248198957Y-170969185D01*
X248174740Y-170974001D01*
X247998163Y-170991393D01*
X247985813Y-170992000D01*
X34014187Y-170992000D01*
X34001837Y-170991393D01*
X33825260Y-170974001D01*
X33801043Y-170969185D01*
X33637190Y-170919482D01*
X33614371Y-170910029D01*
X33555583Y-170878607D01*
X33463369Y-170829317D01*
X33442842Y-170815601D01*
X33310479Y-170706974D01*
X33293026Y-170689521D01*
X33184399Y-170557158D01*
X33170681Y-170536628D01*
X33089971Y-170385629D01*
X33080518Y-170362809D01*
X33034691Y-170211736D01*
X33030815Y-170198957D01*
X33025998Y-170174737D01*
X33024074Y-170155196D01*
X33008607Y-169998163D01*
X33008000Y-169985813D01*
X33008000Y-168477873D01*
X35387116Y-168477873D01*
X35394235Y-168601331D01*
X35403662Y-168764829D01*
X35458999Y-169046885D01*
X35460386Y-169050936D01*
X35460387Y-169050940D01*
X35550714Y-169314765D01*
X35550718Y-169314774D01*
X35552103Y-169318820D01*
X35681252Y-169575605D01*
X35683678Y-169579134D01*
X35683681Y-169579140D01*
X35841625Y-169808948D01*
X35844056Y-169812485D01*
X36037501Y-170025079D01*
X36123666Y-170097124D01*
X36254718Y-170206701D01*
X36254723Y-170206705D01*
X36258010Y-170209453D01*
X36314632Y-170244972D01*
X36497860Y-170359911D01*
X36497864Y-170359913D01*
X36501500Y-170362194D01*
X36568928Y-170392639D01*
X36759555Y-170478711D01*
X36759559Y-170478713D01*
X36763467Y-170480477D01*
X36767587Y-170481697D01*
X36767586Y-170481697D01*
X37034950Y-170560894D01*
X37034954Y-170560895D01*
X37039063Y-170562112D01*
X37043297Y-170562760D01*
X37043302Y-170562761D01*
X37318947Y-170604940D01*
X37318949Y-170604940D01*
X37323189Y-170605589D01*
X37469499Y-170607888D01*
X37606295Y-170610037D01*
X37606301Y-170610037D01*
X37610586Y-170610104D01*
X37895937Y-170575573D01*
X38173961Y-170502635D01*
X38177921Y-170500995D01*
X38177926Y-170500993D01*
X38306737Y-170447637D01*
X38439514Y-170392639D01*
X38687682Y-170247621D01*
X38913873Y-170070265D01*
X38957662Y-170025079D01*
X39110918Y-169866930D01*
X39113901Y-169863852D01*
X39116434Y-169860404D01*
X39116438Y-169860399D01*
X39281527Y-169635657D01*
X39284065Y-169632202D01*
X39316875Y-169571774D01*
X39419166Y-169383377D01*
X39419167Y-169383375D01*
X39421216Y-169379601D01*
X39522816Y-169110724D01*
X39586985Y-168830546D01*
X39597470Y-168713075D01*
X39612317Y-168546716D01*
X39612537Y-168544251D01*
X39613000Y-168500000D01*
X39611492Y-168477873D01*
X138887116Y-168477873D01*
X138894235Y-168601331D01*
X138903662Y-168764829D01*
X138958999Y-169046885D01*
X138960386Y-169050936D01*
X138960387Y-169050940D01*
X139050714Y-169314765D01*
X139050718Y-169314774D01*
X139052103Y-169318820D01*
X139181252Y-169575605D01*
X139183678Y-169579134D01*
X139183681Y-169579140D01*
X139341625Y-169808948D01*
X139344056Y-169812485D01*
X139537501Y-170025079D01*
X139623666Y-170097124D01*
X139754718Y-170206701D01*
X139754723Y-170206705D01*
X139758010Y-170209453D01*
X139814632Y-170244972D01*
X139997860Y-170359911D01*
X139997864Y-170359913D01*
X140001500Y-170362194D01*
X140068928Y-170392639D01*
X140259555Y-170478711D01*
X140259559Y-170478713D01*
X140263467Y-170480477D01*
X140267587Y-170481697D01*
X140267586Y-170481697D01*
X140534950Y-170560894D01*
X140534954Y-170560895D01*
X140539063Y-170562112D01*
X140543297Y-170562760D01*
X140543302Y-170562761D01*
X140818947Y-170604940D01*
X140818949Y-170604940D01*
X140823189Y-170605589D01*
X140969499Y-170607888D01*
X141106295Y-170610037D01*
X141106301Y-170610037D01*
X141110586Y-170610104D01*
X141395937Y-170575573D01*
X141673961Y-170502635D01*
X141677921Y-170500995D01*
X141677926Y-170500993D01*
X141806738Y-170447637D01*
X141939514Y-170392639D01*
X142187682Y-170247621D01*
X142413873Y-170070265D01*
X142457662Y-170025079D01*
X142610918Y-169866930D01*
X142613901Y-169863852D01*
X142616434Y-169860404D01*
X142616438Y-169860399D01*
X142781527Y-169635657D01*
X142784065Y-169632202D01*
X142816875Y-169571774D01*
X142919166Y-169383377D01*
X142919167Y-169383375D01*
X142921216Y-169379601D01*
X143022816Y-169110724D01*
X143086985Y-168830546D01*
X143097470Y-168713075D01*
X143112317Y-168546716D01*
X143112537Y-168544251D01*
X143113000Y-168500000D01*
X143111492Y-168477873D01*
X242387116Y-168477873D01*
X242394235Y-168601331D01*
X242403662Y-168764829D01*
X242458999Y-169046885D01*
X242460386Y-169050936D01*
X242460387Y-169050940D01*
X242550714Y-169314765D01*
X242550718Y-169314774D01*
X242552103Y-169318820D01*
X242681252Y-169575605D01*
X242683678Y-169579134D01*
X242683681Y-169579140D01*
X242841625Y-169808948D01*
X242844056Y-169812485D01*
X243037501Y-170025079D01*
X243123666Y-170097124D01*
X243254718Y-170206701D01*
X243254723Y-170206705D01*
X243258010Y-170209453D01*
X243314632Y-170244972D01*
X243497860Y-170359911D01*
X243497864Y-170359913D01*
X243501500Y-170362194D01*
X243568928Y-170392639D01*
X243759555Y-170478711D01*
X243759559Y-170478713D01*
X243763467Y-170480477D01*
X243767587Y-170481697D01*
X243767586Y-170481697D01*
X244034950Y-170560894D01*
X244034954Y-170560895D01*
X244039063Y-170562112D01*
X244043297Y-170562760D01*
X244043302Y-170562761D01*
X244318947Y-170604940D01*
X244318949Y-170604940D01*
X244323189Y-170605589D01*
X244469499Y-170607888D01*
X244606295Y-170610037D01*
X244606301Y-170610037D01*
X244610586Y-170610104D01*
X244895937Y-170575573D01*
X245173961Y-170502635D01*
X245177921Y-170500995D01*
X245177926Y-170500993D01*
X245306738Y-170447637D01*
X245439514Y-170392639D01*
X245687682Y-170247621D01*
X245913873Y-170070265D01*
X245957662Y-170025079D01*
X246110918Y-169866930D01*
X246113901Y-169863852D01*
X246116434Y-169860404D01*
X246116438Y-169860399D01*
X246281527Y-169635657D01*
X246284065Y-169632202D01*
X246316875Y-169571774D01*
X246419166Y-169383377D01*
X246419167Y-169383375D01*
X246421216Y-169379601D01*
X246522816Y-169110724D01*
X246586985Y-168830546D01*
X246597470Y-168713075D01*
X246612317Y-168546716D01*
X246612537Y-168544251D01*
X246613000Y-168500000D01*
X246611492Y-168477873D01*
X246593742Y-168217510D01*
X246593741Y-168217504D01*
X246593450Y-168213233D01*
X246535163Y-167931772D01*
X246439216Y-167660827D01*
X246381505Y-167549014D01*
X246309350Y-167409216D01*
X246309350Y-167409215D01*
X246307385Y-167405409D01*
X246142109Y-167170246D01*
X245946448Y-166959689D01*
X245724021Y-166777635D01*
X245673659Y-166746773D01*
X245482595Y-166629688D01*
X245482587Y-166629684D01*
X245478945Y-166627452D01*
X245475028Y-166625733D01*
X245475025Y-166625731D01*
X245359089Y-166574839D01*
X245215753Y-166511919D01*
X245211625Y-166510743D01*
X245211622Y-166510742D01*
X244943445Y-166434350D01*
X244943446Y-166434350D01*
X244939317Y-166433174D01*
X244727073Y-166402968D01*
X244659004Y-166393280D01*
X244659002Y-166393280D01*
X244654752Y-166392675D01*
X244503235Y-166391882D01*
X244371610Y-166391192D01*
X244371604Y-166391192D01*
X244367324Y-166391170D01*
X244363080Y-166391729D01*
X244363076Y-166391729D01*
X244238051Y-166408189D01*
X244082350Y-166428687D01*
X244078210Y-166429820D01*
X244078208Y-166429820D01*
X243809250Y-166503399D01*
X243805105Y-166504533D01*
X243540718Y-166617303D01*
X243391841Y-166706404D01*
X243297764Y-166762708D01*
X243297760Y-166762711D01*
X243294082Y-166764912D01*
X243069761Y-166944627D01*
X242871906Y-167153123D01*
X242704177Y-167386542D01*
X242569678Y-167640565D01*
X242470899Y-167910492D01*
X242469986Y-167914678D01*
X242469986Y-167914679D01*
X242410581Y-168187137D01*
X242410580Y-168187145D01*
X242409668Y-168191327D01*
X242387116Y-168477873D01*
X143111492Y-168477873D01*
X143093742Y-168217510D01*
X143093741Y-168217504D01*
X143093450Y-168213233D01*
X143035163Y-167931772D01*
X142939216Y-167660827D01*
X142881505Y-167549014D01*
X142809350Y-167409216D01*
X142809350Y-167409215D01*
X142807385Y-167405409D01*
X142642109Y-167170246D01*
X142446448Y-166959689D01*
X142224021Y-166777635D01*
X142173659Y-166746773D01*
X141982595Y-166629688D01*
X141982587Y-166629684D01*
X141978945Y-166627452D01*
X141975028Y-166625733D01*
X141975025Y-166625731D01*
X141859089Y-166574839D01*
X141715753Y-166511919D01*
X141711625Y-166510743D01*
X141711622Y-166510742D01*
X141443445Y-166434350D01*
X141443446Y-166434350D01*
X141439317Y-166433174D01*
X141227073Y-166402968D01*
X141159004Y-166393280D01*
X141159002Y-166393280D01*
X141154752Y-166392675D01*
X141003235Y-166391882D01*
X140871610Y-166391192D01*
X140871604Y-166391192D01*
X140867324Y-166391170D01*
X140863080Y-166391729D01*
X140863076Y-166391729D01*
X140738051Y-166408189D01*
X140582350Y-166428687D01*
X140578210Y-166429820D01*
X140578208Y-166429820D01*
X140309250Y-166503399D01*
X140305105Y-166504533D01*
X140040718Y-166617303D01*
X139891841Y-166706404D01*
X139797764Y-166762708D01*
X139797760Y-166762711D01*
X139794082Y-166764912D01*
X139569761Y-166944627D01*
X139371906Y-167153123D01*
X139204177Y-167386542D01*
X139069678Y-167640565D01*
X138970899Y-167910492D01*
X138969986Y-167914678D01*
X138969986Y-167914679D01*
X138910581Y-168187137D01*
X138910580Y-168187145D01*
X138909668Y-168191327D01*
X138887116Y-168477873D01*
X39611492Y-168477873D01*
X39593742Y-168217510D01*
X39593741Y-168217504D01*
X39593450Y-168213233D01*
X39535163Y-167931772D01*
X39439216Y-167660827D01*
X39381505Y-167549014D01*
X39309350Y-167409216D01*
X39309350Y-167409215D01*
X39307385Y-167405409D01*
X39142109Y-167170246D01*
X38946448Y-166959689D01*
X38724021Y-166777635D01*
X38673659Y-166746773D01*
X38482595Y-166629688D01*
X38482587Y-166629684D01*
X38478945Y-166627452D01*
X38475028Y-166625733D01*
X38475025Y-166625731D01*
X38359089Y-166574839D01*
X38215753Y-166511919D01*
X38211625Y-166510743D01*
X38211622Y-166510742D01*
X37943445Y-166434350D01*
X37943446Y-166434350D01*
X37939317Y-166433174D01*
X37727073Y-166402968D01*
X37659004Y-166393280D01*
X37659002Y-166393280D01*
X37654752Y-166392675D01*
X37503235Y-166391882D01*
X37371610Y-166391192D01*
X37371604Y-166391192D01*
X37367324Y-166391170D01*
X37363080Y-166391729D01*
X37363076Y-166391729D01*
X37238051Y-166408189D01*
X37082350Y-166428687D01*
X37078210Y-166429820D01*
X37078208Y-166429820D01*
X36809250Y-166503399D01*
X36805105Y-166504533D01*
X36540718Y-166617303D01*
X36391841Y-166706404D01*
X36297764Y-166762708D01*
X36297760Y-166762711D01*
X36294082Y-166764912D01*
X36069761Y-166944627D01*
X35871906Y-167153123D01*
X35704177Y-167386542D01*
X35569678Y-167640565D01*
X35470899Y-167910492D01*
X35469986Y-167914678D01*
X35469986Y-167914679D01*
X35410581Y-168187137D01*
X35410580Y-168187145D01*
X35409668Y-168191327D01*
X35387116Y-168477873D01*
X33008000Y-168477873D01*
X33008000Y-145477873D01*
X35387116Y-145477873D01*
X35394235Y-145601331D01*
X35403662Y-145764829D01*
X35458999Y-146046885D01*
X35460386Y-146050936D01*
X35460387Y-146050940D01*
X35550714Y-146314765D01*
X35550718Y-146314774D01*
X35552103Y-146318820D01*
X35681252Y-146575605D01*
X35683678Y-146579134D01*
X35683681Y-146579140D01*
X35841625Y-146808948D01*
X35844056Y-146812485D01*
X36037501Y-147025079D01*
X36123666Y-147097124D01*
X36254718Y-147206701D01*
X36254723Y-147206705D01*
X36258010Y-147209453D01*
X36314632Y-147244972D01*
X36497860Y-147359911D01*
X36497864Y-147359913D01*
X36501500Y-147362194D01*
X36568928Y-147392639D01*
X36759555Y-147478711D01*
X36759559Y-147478713D01*
X36763467Y-147480477D01*
X36767587Y-147481697D01*
X36767586Y-147481697D01*
X37034950Y-147560894D01*
X37034954Y-147560895D01*
X37039063Y-147562112D01*
X37043297Y-147562760D01*
X37043302Y-147562761D01*
X37318947Y-147604940D01*
X37318949Y-147604940D01*
X37323189Y-147605589D01*
X37469499Y-147607888D01*
X37606295Y-147610037D01*
X37606301Y-147610037D01*
X37610586Y-147610104D01*
X37895937Y-147575573D01*
X38173961Y-147502635D01*
X38177921Y-147500995D01*
X38177926Y-147500993D01*
X38306738Y-147447637D01*
X38439514Y-147392639D01*
X38687682Y-147247621D01*
X38913873Y-147070265D01*
X38957662Y-147025079D01*
X39110918Y-146866930D01*
X39113901Y-146863852D01*
X39116434Y-146860404D01*
X39116438Y-146860399D01*
X39281527Y-146635657D01*
X39284065Y-146632202D01*
X39316875Y-146571774D01*
X39419166Y-146383377D01*
X39419167Y-146383375D01*
X39421216Y-146379601D01*
X39522816Y-146110724D01*
X39586985Y-145830546D01*
X39589911Y-145797770D01*
X39612317Y-145546716D01*
X39612537Y-145544251D01*
X39613000Y-145500000D01*
X39612831Y-145497519D01*
X39593742Y-145217510D01*
X39593741Y-145217504D01*
X39593450Y-145213233D01*
X39535163Y-144931772D01*
X39439216Y-144660827D01*
X39381498Y-144549001D01*
X39309350Y-144409216D01*
X39309350Y-144409215D01*
X39307385Y-144405409D01*
X39235700Y-144303411D01*
X39144576Y-144173756D01*
X39144575Y-144173755D01*
X39142109Y-144170246D01*
X38946448Y-143959689D01*
X38724021Y-143777635D01*
X38611822Y-143708879D01*
X38482595Y-143629688D01*
X38482587Y-143629684D01*
X38478945Y-143627452D01*
X38475028Y-143625733D01*
X38475025Y-143625731D01*
X38359089Y-143574839D01*
X38215753Y-143511919D01*
X38211625Y-143510743D01*
X38211622Y-143510742D01*
X37943445Y-143434350D01*
X37943446Y-143434350D01*
X37939317Y-143433174D01*
X37727073Y-143402968D01*
X37659004Y-143393280D01*
X37659002Y-143393280D01*
X37654752Y-143392675D01*
X37503235Y-143391882D01*
X37371610Y-143391192D01*
X37371604Y-143391192D01*
X37367324Y-143391170D01*
X37363080Y-143391729D01*
X37363076Y-143391729D01*
X37238051Y-143408189D01*
X37082350Y-143428687D01*
X37078210Y-143429820D01*
X37078208Y-143429820D01*
X36809250Y-143503399D01*
X36805105Y-143504533D01*
X36540718Y-143617303D01*
X36391841Y-143706404D01*
X36297764Y-143762708D01*
X36297760Y-143762711D01*
X36294082Y-143764912D01*
X36069761Y-143944627D01*
X36055468Y-143959689D01*
X35878774Y-144145886D01*
X35871906Y-144153123D01*
X35704177Y-144386542D01*
X35569678Y-144640565D01*
X35470899Y-144910492D01*
X35469986Y-144914678D01*
X35469986Y-144914679D01*
X35410581Y-145187137D01*
X35410580Y-145187145D01*
X35409668Y-145191327D01*
X35387116Y-145477873D01*
X33008000Y-145477873D01*
X33008000Y-68977873D01*
X35387116Y-68977873D01*
X35394235Y-69101331D01*
X35403662Y-69264829D01*
X35458999Y-69546885D01*
X35460386Y-69550936D01*
X35460387Y-69550940D01*
X35550714Y-69814765D01*
X35550718Y-69814774D01*
X35552103Y-69818820D01*
X35681252Y-70075605D01*
X35683678Y-70079134D01*
X35683681Y-70079140D01*
X35841625Y-70308948D01*
X35844056Y-70312485D01*
X36037501Y-70525079D01*
X36123666Y-70597124D01*
X36254718Y-70706701D01*
X36254723Y-70706705D01*
X36258010Y-70709453D01*
X36314632Y-70744972D01*
X36497860Y-70859911D01*
X36497864Y-70859913D01*
X36501500Y-70862194D01*
X36568928Y-70892639D01*
X36759555Y-70978711D01*
X36759559Y-70978713D01*
X36763467Y-70980477D01*
X36767587Y-70981697D01*
X36767586Y-70981697D01*
X37034950Y-71060894D01*
X37034954Y-71060895D01*
X37039063Y-71062112D01*
X37043297Y-71062760D01*
X37043302Y-71062761D01*
X37318947Y-71104940D01*
X37318949Y-71104940D01*
X37323189Y-71105589D01*
X37469499Y-71107888D01*
X37606295Y-71110037D01*
X37606301Y-71110037D01*
X37610586Y-71110104D01*
X37895937Y-71075573D01*
X38173961Y-71002635D01*
X38177921Y-71000995D01*
X38177926Y-71000993D01*
X38306737Y-70947637D01*
X38439514Y-70892639D01*
X38687682Y-70747621D01*
X38913873Y-70570265D01*
X38957662Y-70525079D01*
X39110918Y-70366930D01*
X39113901Y-70363852D01*
X39116434Y-70360404D01*
X39116438Y-70360399D01*
X39281527Y-70135657D01*
X39284065Y-70132202D01*
X39316875Y-70071774D01*
X39419166Y-69883377D01*
X39419167Y-69883375D01*
X39421216Y-69879601D01*
X39522816Y-69610724D01*
X39586985Y-69330546D01*
X39597470Y-69213075D01*
X39612317Y-69046716D01*
X39612537Y-69044251D01*
X39613000Y-69000000D01*
X39611492Y-68977873D01*
X39593742Y-68717510D01*
X39593741Y-68717504D01*
X39593450Y-68713233D01*
X39535163Y-68431772D01*
X39439216Y-68160827D01*
X39381505Y-68049014D01*
X39309350Y-67909216D01*
X39309350Y-67909215D01*
X39307385Y-67905409D01*
X39142109Y-67670246D01*
X38946448Y-67459689D01*
X38724021Y-67277635D01*
X38673659Y-67246773D01*
X38482595Y-67129688D01*
X38482587Y-67129684D01*
X38478945Y-67127452D01*
X38475028Y-67125733D01*
X38475025Y-67125731D01*
X38359089Y-67074839D01*
X38215753Y-67011919D01*
X38211625Y-67010743D01*
X38211622Y-67010742D01*
X37943445Y-66934350D01*
X37943446Y-66934350D01*
X37939317Y-66933174D01*
X37727073Y-66902968D01*
X37659004Y-66893280D01*
X37659002Y-66893280D01*
X37654752Y-66892675D01*
X37503235Y-66891882D01*
X37371610Y-66891192D01*
X37371604Y-66891192D01*
X37367324Y-66891170D01*
X37363080Y-66891729D01*
X37363076Y-66891729D01*
X37238051Y-66908189D01*
X37082350Y-66928687D01*
X37078210Y-66929820D01*
X37078208Y-66929820D01*
X36809250Y-67003399D01*
X36805105Y-67004533D01*
X36540718Y-67117303D01*
X36391841Y-67206404D01*
X36297764Y-67262708D01*
X36297760Y-67262711D01*
X36294082Y-67264912D01*
X36069761Y-67444627D01*
X35871906Y-67653123D01*
X35704177Y-67886542D01*
X35569678Y-68140565D01*
X35470899Y-68410492D01*
X35469986Y-68414678D01*
X35469986Y-68414679D01*
X35410581Y-68687137D01*
X35410580Y-68687145D01*
X35409668Y-68691327D01*
X35387116Y-68977873D01*
X33008000Y-68977873D01*
X33008000Y-64069622D01*
X46991746Y-64069622D01*
X46991984Y-64070454D01*
X46992000Y-64070692D01*
X46992000Y-150527622D01*
X46991998Y-150528392D01*
X46991746Y-150569622D01*
X46994212Y-150578250D01*
X46994212Y-150578251D01*
X46999859Y-150598013D01*
X47003436Y-150614770D01*
X47004303Y-150620820D01*
X47007620Y-150643982D01*
X47011335Y-150652152D01*
X47011336Y-150652156D01*
X47018224Y-150667305D01*
X47024673Y-150684833D01*
X47029248Y-150700842D01*
X47029251Y-150700849D01*
X47031716Y-150709474D01*
X47047472Y-150734445D01*
X47055605Y-150749519D01*
X47067822Y-150776389D01*
X47084550Y-150795803D01*
X47095654Y-150810810D01*
X47109331Y-150832486D01*
X47121344Y-150843095D01*
X47131453Y-150852023D01*
X47143500Y-150864219D01*
X47156905Y-150879777D01*
X47156909Y-150879780D01*
X47162766Y-150886578D01*
X47170295Y-150891458D01*
X47170296Y-150891459D01*
X47184271Y-150900517D01*
X47199145Y-150911807D01*
X47218351Y-150928769D01*
X47245077Y-150941317D01*
X47260048Y-150949633D01*
X47284821Y-150965690D01*
X47293425Y-150968263D01*
X47293427Y-150968264D01*
X47309377Y-150973034D01*
X47326822Y-150979696D01*
X47341887Y-150986769D01*
X47341889Y-150986769D01*
X47350013Y-150990584D01*
X47358877Y-150991964D01*
X47358886Y-150991967D01*
X47379180Y-150995127D01*
X47395891Y-150998908D01*
X47415572Y-151004793D01*
X47415575Y-151004793D01*
X47424174Y-151007365D01*
X47433146Y-151007420D01*
X47433147Y-151007420D01*
X47456998Y-151007566D01*
X47459838Y-151007684D01*
X47461865Y-151008000D01*
X47527622Y-151008000D01*
X47528392Y-151008002D01*
X47569622Y-151008254D01*
X47570454Y-151008016D01*
X47570692Y-151008000D01*
X202527622Y-151008000D01*
X202528392Y-151008002D01*
X202569622Y-151008254D01*
X202578251Y-151005788D01*
X202598013Y-151000141D01*
X202614770Y-150996564D01*
X202635097Y-150993653D01*
X202635100Y-150993652D01*
X202643982Y-150992380D01*
X202652152Y-150988665D01*
X202652156Y-150988664D01*
X202667305Y-150981776D01*
X202684833Y-150975327D01*
X202700842Y-150970752D01*
X202700849Y-150970749D01*
X202709474Y-150968284D01*
X202734445Y-150952528D01*
X202749519Y-150944395D01*
X202776389Y-150932178D01*
X202795803Y-150915450D01*
X202810810Y-150904346D01*
X202832486Y-150890669D01*
X202852026Y-150868544D01*
X202864219Y-150856500D01*
X202879777Y-150843095D01*
X202879780Y-150843091D01*
X202886578Y-150837234D01*
X202900517Y-150815729D01*
X202911807Y-150800855D01*
X202922826Y-150788378D01*
X202928769Y-150781649D01*
X202941317Y-150754923D01*
X202949633Y-150739952D01*
X202965690Y-150715179D01*
X202968264Y-150706573D01*
X202973034Y-150690623D01*
X202979696Y-150673178D01*
X202986769Y-150658113D01*
X202986769Y-150658111D01*
X202990584Y-150649987D01*
X202991964Y-150641123D01*
X202991967Y-150641114D01*
X202995127Y-150620820D01*
X202998908Y-150604109D01*
X203004793Y-150584428D01*
X203004793Y-150584425D01*
X203007365Y-150575826D01*
X203007566Y-150543002D01*
X203007684Y-150540162D01*
X203008000Y-150538135D01*
X203008000Y-150472378D01*
X203008002Y-150471608D01*
X203008239Y-150432817D01*
X203008254Y-150430378D01*
X203008016Y-150429546D01*
X203008000Y-150429308D01*
X203008000Y-145477873D01*
X210387116Y-145477873D01*
X210394235Y-145601331D01*
X210403662Y-145764829D01*
X210458999Y-146046885D01*
X210460386Y-146050936D01*
X210460387Y-146050940D01*
X210550714Y-146314765D01*
X210550718Y-146314774D01*
X210552103Y-146318820D01*
X210681252Y-146575605D01*
X210683678Y-146579134D01*
X210683681Y-146579140D01*
X210841625Y-146808948D01*
X210844056Y-146812485D01*
X211037501Y-147025079D01*
X211123666Y-147097124D01*
X211254718Y-147206701D01*
X211254723Y-147206705D01*
X211258010Y-147209453D01*
X211314632Y-147244972D01*
X211497860Y-147359911D01*
X211497864Y-147359913D01*
X211501500Y-147362194D01*
X211568928Y-147392639D01*
X211759555Y-147478711D01*
X211759559Y-147478713D01*
X211763467Y-147480477D01*
X211767587Y-147481697D01*
X211767586Y-147481697D01*
X212034950Y-147560894D01*
X212034954Y-147560895D01*
X212039063Y-147562112D01*
X212043297Y-147562760D01*
X212043302Y-147562761D01*
X212318947Y-147604940D01*
X212318949Y-147604940D01*
X212323189Y-147605589D01*
X212469499Y-147607888D01*
X212606295Y-147610037D01*
X212606301Y-147610037D01*
X212610586Y-147610104D01*
X212895937Y-147575573D01*
X213173961Y-147502635D01*
X213177921Y-147500995D01*
X213177926Y-147500993D01*
X213306738Y-147447637D01*
X213439514Y-147392639D01*
X213687682Y-147247621D01*
X213913873Y-147070265D01*
X213957662Y-147025079D01*
X214110918Y-146866930D01*
X214113901Y-146863852D01*
X214116434Y-146860404D01*
X214116438Y-146860399D01*
X214281527Y-146635657D01*
X214284065Y-146632202D01*
X214316875Y-146571774D01*
X214419166Y-146383377D01*
X214419167Y-146383375D01*
X214421216Y-146379601D01*
X214522816Y-146110724D01*
X214586985Y-145830546D01*
X214589911Y-145797770D01*
X214612317Y-145546716D01*
X214612537Y-145544251D01*
X214613000Y-145500000D01*
X214612831Y-145497519D01*
X214593742Y-145217510D01*
X214593741Y-145217504D01*
X214593450Y-145213233D01*
X214535163Y-144931772D01*
X214439216Y-144660827D01*
X214381498Y-144549001D01*
X214309350Y-144409216D01*
X214309350Y-144409215D01*
X214307385Y-144405409D01*
X214235700Y-144303411D01*
X214144576Y-144173756D01*
X214144575Y-144173755D01*
X214142109Y-144170246D01*
X213946448Y-143959689D01*
X213724021Y-143777635D01*
X213611822Y-143708879D01*
X213482595Y-143629688D01*
X213482587Y-143629684D01*
X213478945Y-143627452D01*
X213475028Y-143625733D01*
X213475025Y-143625731D01*
X213359089Y-143574839D01*
X213215753Y-143511919D01*
X213211625Y-143510743D01*
X213211622Y-143510742D01*
X212943445Y-143434350D01*
X212943446Y-143434350D01*
X212939317Y-143433174D01*
X212727073Y-143402968D01*
X212659004Y-143393280D01*
X212659002Y-143393280D01*
X212654752Y-143392675D01*
X212503235Y-143391882D01*
X212371610Y-143391192D01*
X212371604Y-143391192D01*
X212367324Y-143391170D01*
X212363080Y-143391729D01*
X212363076Y-143391729D01*
X212238051Y-143408189D01*
X212082350Y-143428687D01*
X212078210Y-143429820D01*
X212078208Y-143429820D01*
X211809250Y-143503399D01*
X211805105Y-143504533D01*
X211540718Y-143617303D01*
X211391841Y-143706404D01*
X211297764Y-143762708D01*
X211297760Y-143762711D01*
X211294082Y-143764912D01*
X211069761Y-143944627D01*
X211055468Y-143959689D01*
X210878774Y-144145886D01*
X210871906Y-144153123D01*
X210704177Y-144386542D01*
X210569678Y-144640565D01*
X210470899Y-144910492D01*
X210469986Y-144914678D01*
X210469986Y-144914679D01*
X210410581Y-145187137D01*
X210410580Y-145187145D01*
X210409668Y-145191327D01*
X210387116Y-145477873D01*
X203008000Y-145477873D01*
X203008000Y-128782936D01*
X210489222Y-128782936D01*
X210522545Y-129631046D01*
X210595781Y-130476644D01*
X210708770Y-131317854D01*
X210861260Y-132152808D01*
X211052912Y-132979651D01*
X211283300Y-133796548D01*
X211551915Y-134601686D01*
X211858158Y-135393277D01*
X212201350Y-136169562D01*
X212580730Y-136928820D01*
X212995454Y-137669363D01*
X213444602Y-138389548D01*
X213927177Y-139087776D01*
X213928068Y-139088944D01*
X213928080Y-139088960D01*
X214441215Y-139761328D01*
X214441228Y-139761344D01*
X214442107Y-139762496D01*
X214988249Y-140412211D01*
X215564391Y-141035477D01*
X215565438Y-141036508D01*
X215565448Y-141036518D01*
X216168200Y-141629876D01*
X216168213Y-141629888D01*
X216169253Y-141630912D01*
X216801492Y-142197193D01*
X217459705Y-142733062D01*
X218142430Y-143237331D01*
X218848152Y-143708879D01*
X218849446Y-143709658D01*
X219574018Y-144145886D01*
X219574038Y-144145897D01*
X219575303Y-144146659D01*
X219576612Y-144147365D01*
X219576615Y-144147367D01*
X220320971Y-144549001D01*
X220320983Y-144549007D01*
X220322269Y-144549701D01*
X220813276Y-144785479D01*
X221086044Y-144916460D01*
X221086054Y-144916465D01*
X221087392Y-144917107D01*
X221868972Y-145248064D01*
X222665276Y-145541836D01*
X223474533Y-145797770D01*
X223475961Y-145798149D01*
X223475976Y-145798153D01*
X224293541Y-146014926D01*
X224293554Y-146014929D01*
X224294949Y-146015299D01*
X225124700Y-146193940D01*
X225961946Y-146333296D01*
X225963415Y-146333470D01*
X225963423Y-146333471D01*
X226385076Y-146383377D01*
X226804827Y-146433058D01*
X227306983Y-146468612D01*
X227649970Y-146492897D01*
X227649985Y-146492898D01*
X227651472Y-146493003D01*
X228500000Y-146513000D01*
X229348528Y-146493003D01*
X229350015Y-146492898D01*
X229350030Y-146492897D01*
X229693017Y-146468612D01*
X230195173Y-146433058D01*
X230614924Y-146383377D01*
X231036577Y-146333471D01*
X231036585Y-146333470D01*
X231038054Y-146333296D01*
X231875300Y-146193940D01*
X232705051Y-146015299D01*
X232706446Y-146014929D01*
X232706459Y-146014926D01*
X233524024Y-145798153D01*
X233524039Y-145798149D01*
X233525467Y-145797770D01*
X234334724Y-145541836D01*
X234508103Y-145477873D01*
X242387116Y-145477873D01*
X242394235Y-145601331D01*
X242403662Y-145764829D01*
X242458999Y-146046885D01*
X242460386Y-146050936D01*
X242460387Y-146050940D01*
X242550714Y-146314765D01*
X242550718Y-146314774D01*
X242552103Y-146318820D01*
X242681252Y-146575605D01*
X242683678Y-146579134D01*
X242683681Y-146579140D01*
X242841625Y-146808948D01*
X242844056Y-146812485D01*
X243037501Y-147025079D01*
X243123666Y-147097124D01*
X243254718Y-147206701D01*
X243254723Y-147206705D01*
X243258010Y-147209453D01*
X243314632Y-147244972D01*
X243497860Y-147359911D01*
X243497864Y-147359913D01*
X243501500Y-147362194D01*
X243568928Y-147392639D01*
X243759555Y-147478711D01*
X243759559Y-147478713D01*
X243763467Y-147480477D01*
X243767587Y-147481697D01*
X243767586Y-147481697D01*
X244034950Y-147560894D01*
X244034954Y-147560895D01*
X244039063Y-147562112D01*
X244043297Y-147562760D01*
X244043302Y-147562761D01*
X244318947Y-147604940D01*
X244318949Y-147604940D01*
X244323189Y-147605589D01*
X244469499Y-147607888D01*
X244606295Y-147610037D01*
X244606301Y-147610037D01*
X244610586Y-147610104D01*
X244895937Y-147575573D01*
X245173961Y-147502635D01*
X245177921Y-147500995D01*
X245177926Y-147500993D01*
X245306738Y-147447637D01*
X245439514Y-147392639D01*
X245687682Y-147247621D01*
X245913873Y-147070265D01*
X245957662Y-147025079D01*
X246110918Y-146866930D01*
X246113901Y-146863852D01*
X246116434Y-146860404D01*
X246116438Y-146860399D01*
X246281527Y-146635657D01*
X246284065Y-146632202D01*
X246316875Y-146571774D01*
X246419166Y-146383377D01*
X246419167Y-146383375D01*
X246421216Y-146379601D01*
X246522816Y-146110724D01*
X246586985Y-145830546D01*
X246589911Y-145797770D01*
X246612317Y-145546716D01*
X246612537Y-145544251D01*
X246613000Y-145500000D01*
X246612831Y-145497519D01*
X246593742Y-145217510D01*
X246593741Y-145217504D01*
X246593450Y-145213233D01*
X246535163Y-144931772D01*
X246439216Y-144660827D01*
X246381498Y-144549001D01*
X246309350Y-144409216D01*
X246309350Y-144409215D01*
X246307385Y-144405409D01*
X246235700Y-144303411D01*
X246144576Y-144173756D01*
X246144575Y-144173755D01*
X246142109Y-144170246D01*
X245946448Y-143959689D01*
X245724021Y-143777635D01*
X245611822Y-143708879D01*
X245482595Y-143629688D01*
X245482587Y-143629684D01*
X245478945Y-143627452D01*
X245475028Y-143625733D01*
X245475025Y-143625731D01*
X245359089Y-143574839D01*
X245215753Y-143511919D01*
X245211625Y-143510743D01*
X245211622Y-143510742D01*
X244943445Y-143434350D01*
X244943446Y-143434350D01*
X244939317Y-143433174D01*
X244727073Y-143402968D01*
X244659004Y-143393280D01*
X244659002Y-143393280D01*
X244654752Y-143392675D01*
X244503235Y-143391882D01*
X244371610Y-143391192D01*
X244371604Y-143391192D01*
X244367324Y-143391170D01*
X244363080Y-143391729D01*
X244363076Y-143391729D01*
X244238051Y-143408189D01*
X244082350Y-143428687D01*
X244078210Y-143429820D01*
X244078208Y-143429820D01*
X243809250Y-143503399D01*
X243805105Y-143504533D01*
X243540718Y-143617303D01*
X243391841Y-143706404D01*
X243297764Y-143762708D01*
X243297760Y-143762711D01*
X243294082Y-143764912D01*
X243069761Y-143944627D01*
X243055468Y-143959689D01*
X242878774Y-144145886D01*
X242871906Y-144153123D01*
X242704177Y-144386542D01*
X242569678Y-144640565D01*
X242470899Y-144910492D01*
X242469986Y-144914678D01*
X242469986Y-144914679D01*
X242410581Y-145187137D01*
X242410580Y-145187145D01*
X242409668Y-145191327D01*
X242387116Y-145477873D01*
X234508103Y-145477873D01*
X235131028Y-145248064D01*
X235912608Y-144917107D01*
X235913946Y-144916465D01*
X235913956Y-144916460D01*
X236186724Y-144785479D01*
X236677731Y-144549701D01*
X236679017Y-144549007D01*
X236679029Y-144549001D01*
X237423385Y-144147367D01*
X237423388Y-144147365D01*
X237424697Y-144146659D01*
X237425962Y-144145897D01*
X237425982Y-144145886D01*
X238150554Y-143709658D01*
X238151848Y-143708879D01*
X238857570Y-143237331D01*
X239540295Y-142733062D01*
X240198508Y-142197193D01*
X240830747Y-141630912D01*
X240831787Y-141629888D01*
X240831800Y-141629876D01*
X241434552Y-141036518D01*
X241434562Y-141036508D01*
X241435609Y-141035477D01*
X242011751Y-140412211D01*
X242557893Y-139762496D01*
X242558772Y-139761344D01*
X242558785Y-139761328D01*
X243071920Y-139088960D01*
X243071932Y-139088944D01*
X243072823Y-139087776D01*
X243555398Y-138389548D01*
X244004546Y-137669363D01*
X244419270Y-136928820D01*
X244798650Y-136169562D01*
X245141842Y-135393277D01*
X245448085Y-134601686D01*
X245716700Y-133796548D01*
X245947088Y-132979651D01*
X246138740Y-132152808D01*
X246291230Y-131317854D01*
X246404219Y-130476644D01*
X246477455Y-129631046D01*
X246510778Y-128782936D01*
X246510904Y-128766977D01*
X246512992Y-128500987D01*
X246513000Y-128500000D01*
X246493003Y-127651472D01*
X246433058Y-126804827D01*
X246333296Y-125961946D01*
X246193940Y-125124700D01*
X246015299Y-124294949D01*
X245872927Y-123757988D01*
X245798153Y-123475976D01*
X245798149Y-123475961D01*
X245797770Y-123474533D01*
X245541836Y-122665276D01*
X245248064Y-121868972D01*
X244917107Y-121087392D01*
X244549701Y-120322269D01*
X244146659Y-119575303D01*
X244145897Y-119574038D01*
X244145886Y-119574018D01*
X243709658Y-118849446D01*
X243708879Y-118848152D01*
X243237331Y-118142430D01*
X242733062Y-117459705D01*
X242197193Y-116801492D01*
X241630912Y-116169253D01*
X241629888Y-116168213D01*
X241629876Y-116168200D01*
X241036518Y-115565448D01*
X241036508Y-115565438D01*
X241035477Y-115564391D01*
X240412211Y-114988249D01*
X239762496Y-114442107D01*
X239761344Y-114441228D01*
X239761328Y-114441215D01*
X239088960Y-113928080D01*
X239088944Y-113928068D01*
X239087776Y-113927177D01*
X238389548Y-113444602D01*
X237669363Y-112995454D01*
X237668079Y-112994735D01*
X237668069Y-112994729D01*
X237167510Y-112714403D01*
X236928820Y-112580730D01*
X236169562Y-112201350D01*
X236168237Y-112200764D01*
X236168228Y-112200760D01*
X235885092Y-112075587D01*
X235393277Y-111858158D01*
X235391896Y-111857624D01*
X235391887Y-111857620D01*
X234603067Y-111552449D01*
X234603057Y-111552445D01*
X234601686Y-111551915D01*
X234053725Y-111369101D01*
X233797945Y-111283766D01*
X233797942Y-111283765D01*
X233796548Y-111283300D01*
X233235498Y-111125068D01*
X232981088Y-111053317D01*
X232981077Y-111053314D01*
X232979651Y-111052912D01*
X232152808Y-110861260D01*
X232151365Y-110860997D01*
X232151358Y-110860995D01*
X231319310Y-110709036D01*
X231317854Y-110708770D01*
X230725890Y-110629259D01*
X230478098Y-110595976D01*
X230478086Y-110595975D01*
X230476644Y-110595781D01*
X229631046Y-110522545D01*
X229629573Y-110522487D01*
X229629571Y-110522487D01*
X229368838Y-110512243D01*
X228782936Y-110489222D01*
X228523550Y-110491259D01*
X227935676Y-110495876D01*
X227935659Y-110495877D01*
X227934198Y-110495888D01*
X227173731Y-110537739D01*
X227088169Y-110542448D01*
X227088167Y-110542448D01*
X227086716Y-110542528D01*
X226242372Y-110629038D01*
X225803742Y-110694983D01*
X225404475Y-110755010D01*
X225404458Y-110755013D01*
X225403041Y-110755226D01*
X225401629Y-110755507D01*
X225401611Y-110755510D01*
X224572043Y-110920521D01*
X224572036Y-110920523D01*
X224570586Y-110920811D01*
X223746855Y-111125427D01*
X222933677Y-111368619D01*
X222132858Y-111649847D01*
X222131489Y-111650401D01*
X222131485Y-111650403D01*
X221347557Y-111967926D01*
X221347549Y-111967930D01*
X221346175Y-111968486D01*
X221344828Y-111969107D01*
X221344821Y-111969110D01*
X220576705Y-112323216D01*
X220576694Y-112323221D01*
X220575376Y-112323829D01*
X219822171Y-112715088D01*
X219820887Y-112715834D01*
X219820883Y-112715836D01*
X219089496Y-113140659D01*
X219089484Y-113140667D01*
X219088233Y-113141393D01*
X219087029Y-113142171D01*
X219087015Y-113142179D01*
X218618645Y-113444602D01*
X218375192Y-113601798D01*
X218373993Y-113602655D01*
X218373978Y-113602665D01*
X218370130Y-113605415D01*
X217684630Y-114095280D01*
X217018082Y-114620745D01*
X217016989Y-114621694D01*
X217016969Y-114621710D01*
X216870122Y-114749138D01*
X216377026Y-115177025D01*
X216375968Y-115178034D01*
X216375954Y-115178047D01*
X216316227Y-115235024D01*
X215762886Y-115762886D01*
X215761892Y-115763928D01*
X215178047Y-116375954D01*
X215178034Y-116375968D01*
X215177025Y-116377026D01*
X215006640Y-116573378D01*
X214621710Y-117016969D01*
X214621694Y-117016989D01*
X214620745Y-117018082D01*
X214095280Y-117684630D01*
X214094432Y-117685817D01*
X213602665Y-118373978D01*
X213602655Y-118373993D01*
X213601798Y-118375192D01*
X213141393Y-119088233D01*
X213140667Y-119089484D01*
X213140659Y-119089496D01*
X212715836Y-119820883D01*
X212715088Y-119822171D01*
X212323829Y-120575376D01*
X212323221Y-120576694D01*
X212323216Y-120576705D01*
X212087150Y-121088772D01*
X211968486Y-121346175D01*
X211967930Y-121347549D01*
X211967926Y-121347557D01*
X211756732Y-121868972D01*
X211649847Y-122132858D01*
X211368619Y-122933677D01*
X211125427Y-123746855D01*
X210920811Y-124570586D01*
X210920523Y-124572036D01*
X210920521Y-124572043D01*
X210810874Y-125123281D01*
X210755226Y-125403041D01*
X210629038Y-126242372D01*
X210542528Y-127086716D01*
X210495888Y-127934198D01*
X210489347Y-128766977D01*
X210489222Y-128782936D01*
X203008000Y-128782936D01*
X203008000Y-83477873D01*
X214387116Y-83477873D01*
X214394235Y-83601331D01*
X214403662Y-83764829D01*
X214458999Y-84046885D01*
X214460386Y-84050936D01*
X214460387Y-84050940D01*
X214550714Y-84314765D01*
X214550718Y-84314774D01*
X214552103Y-84318820D01*
X214681252Y-84575605D01*
X214683678Y-84579134D01*
X214683681Y-84579140D01*
X214841625Y-84808948D01*
X214844056Y-84812485D01*
X215037501Y-85025079D01*
X215123666Y-85097124D01*
X215254718Y-85206701D01*
X215254723Y-85206705D01*
X215258010Y-85209453D01*
X215314632Y-85244972D01*
X215497860Y-85359911D01*
X215497864Y-85359913D01*
X215501500Y-85362194D01*
X215568928Y-85392639D01*
X215759555Y-85478711D01*
X215759559Y-85478713D01*
X215763467Y-85480477D01*
X215767587Y-85481697D01*
X215767586Y-85481697D01*
X216034950Y-85560894D01*
X216034954Y-85560895D01*
X216039063Y-85562112D01*
X216043297Y-85562760D01*
X216043302Y-85562761D01*
X216318947Y-85604940D01*
X216318949Y-85604940D01*
X216323189Y-85605589D01*
X216469499Y-85607888D01*
X216606295Y-85610037D01*
X216606301Y-85610037D01*
X216610586Y-85610104D01*
X216895937Y-85575573D01*
X217173961Y-85502635D01*
X217177921Y-85500995D01*
X217177926Y-85500993D01*
X217306738Y-85447637D01*
X217439514Y-85392639D01*
X217687682Y-85247621D01*
X217913873Y-85070265D01*
X217957662Y-85025079D01*
X218110918Y-84866930D01*
X218113901Y-84863852D01*
X218116434Y-84860404D01*
X218116438Y-84860399D01*
X218281527Y-84635657D01*
X218284065Y-84632202D01*
X218316875Y-84571774D01*
X218419166Y-84383377D01*
X218419167Y-84383375D01*
X218421216Y-84379601D01*
X218522816Y-84110724D01*
X218586985Y-83830546D01*
X218597470Y-83713075D01*
X218612317Y-83546716D01*
X218612537Y-83544251D01*
X218613000Y-83500000D01*
X218611492Y-83477873D01*
X218593742Y-83217510D01*
X218593741Y-83217504D01*
X218593450Y-83213233D01*
X218535163Y-82931772D01*
X218439216Y-82660827D01*
X218381505Y-82549014D01*
X218309350Y-82409216D01*
X218309350Y-82409215D01*
X218307385Y-82405409D01*
X218142109Y-82170246D01*
X217946448Y-81959689D01*
X217724021Y-81777635D01*
X217673659Y-81746773D01*
X217482595Y-81629688D01*
X217482587Y-81629684D01*
X217478945Y-81627452D01*
X217475028Y-81625733D01*
X217475025Y-81625731D01*
X217359089Y-81574839D01*
X217215753Y-81511919D01*
X217211625Y-81510743D01*
X217211622Y-81510742D01*
X216943445Y-81434350D01*
X216943446Y-81434350D01*
X216939317Y-81433174D01*
X216727073Y-81402968D01*
X216659004Y-81393280D01*
X216659002Y-81393280D01*
X216654752Y-81392675D01*
X216503235Y-81391882D01*
X216371610Y-81391192D01*
X216371604Y-81391192D01*
X216367324Y-81391170D01*
X216363080Y-81391729D01*
X216363076Y-81391729D01*
X216238051Y-81408189D01*
X216082350Y-81428687D01*
X216078210Y-81429820D01*
X216078208Y-81429820D01*
X215809250Y-81503399D01*
X215805105Y-81504533D01*
X215540718Y-81617303D01*
X215391841Y-81706404D01*
X215297764Y-81762708D01*
X215297760Y-81762711D01*
X215294082Y-81764912D01*
X215069761Y-81944627D01*
X214871906Y-82153123D01*
X214704177Y-82386542D01*
X214569678Y-82640565D01*
X214470899Y-82910492D01*
X214469986Y-82914678D01*
X214469986Y-82914679D01*
X214410581Y-83187137D01*
X214410580Y-83187145D01*
X214409668Y-83191327D01*
X214387116Y-83477873D01*
X203008000Y-83477873D01*
X203008000Y-79069622D01*
X219991746Y-79069622D01*
X219991984Y-79070454D01*
X219992000Y-79070692D01*
X219992000Y-88027622D01*
X219991998Y-88028392D01*
X219991746Y-88069622D01*
X219994212Y-88078250D01*
X219994212Y-88078251D01*
X219999859Y-88098013D01*
X220003436Y-88114770D01*
X220004303Y-88120820D01*
X220007620Y-88143982D01*
X220011335Y-88152152D01*
X220011336Y-88152156D01*
X220018224Y-88167305D01*
X220024673Y-88184833D01*
X220029248Y-88200842D01*
X220029251Y-88200849D01*
X220031716Y-88209474D01*
X220047472Y-88234445D01*
X220055605Y-88249519D01*
X220067822Y-88276389D01*
X220084550Y-88295803D01*
X220095654Y-88310810D01*
X220109331Y-88332486D01*
X220121344Y-88343095D01*
X220131453Y-88352023D01*
X220143500Y-88364219D01*
X220156905Y-88379777D01*
X220156909Y-88379780D01*
X220162766Y-88386578D01*
X220170295Y-88391458D01*
X220170296Y-88391459D01*
X220184271Y-88400517D01*
X220199145Y-88411807D01*
X220218351Y-88428769D01*
X220245077Y-88441317D01*
X220260048Y-88449633D01*
X220284821Y-88465690D01*
X220293425Y-88468263D01*
X220293427Y-88468264D01*
X220309377Y-88473034D01*
X220326822Y-88479696D01*
X220341887Y-88486769D01*
X220341889Y-88486769D01*
X220350013Y-88490584D01*
X220358877Y-88491964D01*
X220358886Y-88491967D01*
X220379180Y-88495127D01*
X220395891Y-88498908D01*
X220415572Y-88504793D01*
X220415575Y-88504793D01*
X220424174Y-88507365D01*
X220433146Y-88507420D01*
X220433147Y-88507420D01*
X220456998Y-88507566D01*
X220459838Y-88507684D01*
X220461865Y-88508000D01*
X220527622Y-88508000D01*
X220528392Y-88508002D01*
X220569622Y-88508254D01*
X220570454Y-88508016D01*
X220570692Y-88508000D01*
X236527622Y-88508000D01*
X236528392Y-88508002D01*
X236569622Y-88508254D01*
X236578251Y-88505788D01*
X236598013Y-88500141D01*
X236614770Y-88496564D01*
X236635097Y-88493653D01*
X236635100Y-88493652D01*
X236643982Y-88492380D01*
X236652152Y-88488665D01*
X236652156Y-88488664D01*
X236667305Y-88481776D01*
X236684833Y-88475327D01*
X236700842Y-88470752D01*
X236700849Y-88470749D01*
X236709474Y-88468284D01*
X236734445Y-88452528D01*
X236749519Y-88444395D01*
X236776389Y-88432178D01*
X236795803Y-88415450D01*
X236810810Y-88404346D01*
X236832486Y-88390669D01*
X236852026Y-88368544D01*
X236864219Y-88356500D01*
X236879777Y-88343095D01*
X236879780Y-88343091D01*
X236886578Y-88337234D01*
X236900517Y-88315729D01*
X236911807Y-88300855D01*
X236922826Y-88288378D01*
X236928769Y-88281649D01*
X236941317Y-88254923D01*
X236949633Y-88239952D01*
X236965690Y-88215179D01*
X236968264Y-88206573D01*
X236973034Y-88190623D01*
X236979696Y-88173178D01*
X236986769Y-88158113D01*
X236986769Y-88158111D01*
X236990584Y-88149987D01*
X236991964Y-88141123D01*
X236991967Y-88141114D01*
X236995127Y-88120820D01*
X236998908Y-88104109D01*
X237004793Y-88084428D01*
X237004793Y-88084425D01*
X237007365Y-88075826D01*
X237007566Y-88043002D01*
X237007684Y-88040162D01*
X237008000Y-88038135D01*
X237008000Y-87972378D01*
X237008002Y-87971608D01*
X237008239Y-87932817D01*
X237008254Y-87930378D01*
X237008016Y-87929546D01*
X237008000Y-87929308D01*
X237008000Y-83477873D01*
X238387116Y-83477873D01*
X238394235Y-83601331D01*
X238403662Y-83764829D01*
X238458999Y-84046885D01*
X238460386Y-84050936D01*
X238460387Y-84050940D01*
X238550714Y-84314765D01*
X238550718Y-84314774D01*
X238552103Y-84318820D01*
X238681252Y-84575605D01*
X238683678Y-84579134D01*
X238683681Y-84579140D01*
X238841625Y-84808948D01*
X238844056Y-84812485D01*
X239037501Y-85025079D01*
X239123666Y-85097124D01*
X239254718Y-85206701D01*
X239254723Y-85206705D01*
X239258010Y-85209453D01*
X239314632Y-85244972D01*
X239497860Y-85359911D01*
X239497864Y-85359913D01*
X239501500Y-85362194D01*
X239568928Y-85392639D01*
X239759555Y-85478711D01*
X239759559Y-85478713D01*
X239763467Y-85480477D01*
X239767587Y-85481697D01*
X239767586Y-85481697D01*
X240034950Y-85560894D01*
X240034954Y-85560895D01*
X240039063Y-85562112D01*
X240043297Y-85562760D01*
X240043302Y-85562761D01*
X240318947Y-85604940D01*
X240318949Y-85604940D01*
X240323189Y-85605589D01*
X240469499Y-85607888D01*
X240606295Y-85610037D01*
X240606301Y-85610037D01*
X240610586Y-85610104D01*
X240895937Y-85575573D01*
X241173961Y-85502635D01*
X241177921Y-85500995D01*
X241177926Y-85500993D01*
X241306738Y-85447637D01*
X241439514Y-85392639D01*
X241687682Y-85247621D01*
X241913873Y-85070265D01*
X241957662Y-85025079D01*
X242110918Y-84866930D01*
X242113901Y-84863852D01*
X242116434Y-84860404D01*
X242116438Y-84860399D01*
X242281527Y-84635657D01*
X242284065Y-84632202D01*
X242316875Y-84571774D01*
X242419166Y-84383377D01*
X242419167Y-84383375D01*
X242421216Y-84379601D01*
X242522816Y-84110724D01*
X242586985Y-83830546D01*
X242597470Y-83713075D01*
X242612317Y-83546716D01*
X242612537Y-83544251D01*
X242613000Y-83500000D01*
X242611492Y-83477873D01*
X242593742Y-83217510D01*
X242593741Y-83217504D01*
X242593450Y-83213233D01*
X242535163Y-82931772D01*
X242439216Y-82660827D01*
X242381505Y-82549014D01*
X242309350Y-82409216D01*
X242309350Y-82409215D01*
X242307385Y-82405409D01*
X242142109Y-82170246D01*
X241946448Y-81959689D01*
X241724021Y-81777635D01*
X241673659Y-81746773D01*
X241482595Y-81629688D01*
X241482587Y-81629684D01*
X241478945Y-81627452D01*
X241475028Y-81625733D01*
X241475025Y-81625731D01*
X241359089Y-81574839D01*
X241215753Y-81511919D01*
X241211625Y-81510743D01*
X241211622Y-81510742D01*
X240943445Y-81434350D01*
X240943446Y-81434350D01*
X240939317Y-81433174D01*
X240727073Y-81402968D01*
X240659004Y-81393280D01*
X240659002Y-81393280D01*
X240654752Y-81392675D01*
X240503235Y-81391882D01*
X240371610Y-81391192D01*
X240371604Y-81391192D01*
X240367324Y-81391170D01*
X240363080Y-81391729D01*
X240363076Y-81391729D01*
X240238051Y-81408189D01*
X240082350Y-81428687D01*
X240078210Y-81429820D01*
X240078208Y-81429820D01*
X239809250Y-81503399D01*
X239805105Y-81504533D01*
X239540718Y-81617303D01*
X239391841Y-81706404D01*
X239297764Y-81762708D01*
X239297760Y-81762711D01*
X239294082Y-81764912D01*
X239069761Y-81944627D01*
X238871906Y-82153123D01*
X238704177Y-82386542D01*
X238569678Y-82640565D01*
X238470899Y-82910492D01*
X238469986Y-82914678D01*
X238469986Y-82914679D01*
X238410581Y-83187137D01*
X238410580Y-83187145D01*
X238409668Y-83191327D01*
X238387116Y-83477873D01*
X237008000Y-83477873D01*
X237008000Y-78972378D01*
X237008002Y-78971608D01*
X237008037Y-78965939D01*
X237008254Y-78930378D01*
X237004023Y-78915572D01*
X237000141Y-78901987D01*
X236996564Y-78885230D01*
X236993653Y-78864903D01*
X236993652Y-78864900D01*
X236992380Y-78856018D01*
X236988665Y-78847848D01*
X236988664Y-78847844D01*
X236981776Y-78832695D01*
X236975327Y-78815167D01*
X236970752Y-78799158D01*
X236970749Y-78799151D01*
X236968284Y-78790526D01*
X236952528Y-78765555D01*
X236944395Y-78750481D01*
X236932178Y-78723611D01*
X236915450Y-78704197D01*
X236904346Y-78689190D01*
X236890669Y-78667514D01*
X236868544Y-78647974D01*
X236856500Y-78635781D01*
X236843095Y-78620223D01*
X236843091Y-78620220D01*
X236837234Y-78613422D01*
X236815729Y-78599483D01*
X236800855Y-78588193D01*
X236788378Y-78577174D01*
X236781649Y-78571231D01*
X236754923Y-78558683D01*
X236739952Y-78550367D01*
X236715179Y-78534310D01*
X236706575Y-78531737D01*
X236706573Y-78531736D01*
X236690623Y-78526966D01*
X236673178Y-78520304D01*
X236658113Y-78513231D01*
X236658111Y-78513231D01*
X236649987Y-78509416D01*
X236641123Y-78508036D01*
X236641114Y-78508033D01*
X236620820Y-78504873D01*
X236604109Y-78501092D01*
X236584428Y-78495207D01*
X236584425Y-78495207D01*
X236575826Y-78492635D01*
X236566854Y-78492580D01*
X236566853Y-78492580D01*
X236543002Y-78492434D01*
X236540162Y-78492316D01*
X236538135Y-78492000D01*
X236472378Y-78492000D01*
X236471608Y-78491998D01*
X236471052Y-78491995D01*
X236430378Y-78491746D01*
X236429546Y-78491984D01*
X236429308Y-78492000D01*
X220472378Y-78492000D01*
X220471608Y-78491998D01*
X220471352Y-78491996D01*
X220430378Y-78491746D01*
X220421750Y-78494212D01*
X220421749Y-78494212D01*
X220401987Y-78499859D01*
X220385230Y-78503436D01*
X220364903Y-78506347D01*
X220364900Y-78506348D01*
X220356018Y-78507620D01*
X220347848Y-78511335D01*
X220347844Y-78511336D01*
X220332695Y-78518224D01*
X220315167Y-78524673D01*
X220299158Y-78529248D01*
X220299151Y-78529251D01*
X220290526Y-78531716D01*
X220265555Y-78547472D01*
X220250481Y-78555605D01*
X220223611Y-78567822D01*
X220204197Y-78584550D01*
X220189190Y-78595654D01*
X220167514Y-78609331D01*
X220161572Y-78616059D01*
X220147977Y-78631453D01*
X220135781Y-78643500D01*
X220120223Y-78656905D01*
X220120220Y-78656909D01*
X220113422Y-78662766D01*
X220108542Y-78670295D01*
X220108541Y-78670296D01*
X220099483Y-78684271D01*
X220088193Y-78699145D01*
X220071231Y-78718351D01*
X220058683Y-78745077D01*
X220050367Y-78760048D01*
X220034310Y-78784821D01*
X220031737Y-78793425D01*
X220031736Y-78793427D01*
X220026966Y-78809377D01*
X220020304Y-78826822D01*
X220009416Y-78850013D01*
X220008036Y-78858877D01*
X220008033Y-78858886D01*
X220004873Y-78879180D01*
X220001092Y-78895891D01*
X219995207Y-78915572D01*
X219992635Y-78924174D01*
X219992580Y-78933146D01*
X219992580Y-78933147D01*
X219992434Y-78956998D01*
X219992316Y-78959838D01*
X219992000Y-78961865D01*
X219992000Y-79027622D01*
X219991998Y-79028392D01*
X219991746Y-79069622D01*
X203008000Y-79069622D01*
X203008000Y-68977873D01*
X210387116Y-68977873D01*
X210394235Y-69101331D01*
X210403662Y-69264829D01*
X210458999Y-69546885D01*
X210460386Y-69550936D01*
X210460387Y-69550940D01*
X210550714Y-69814765D01*
X210550718Y-69814774D01*
X210552103Y-69818820D01*
X210681252Y-70075605D01*
X210683678Y-70079134D01*
X210683681Y-70079140D01*
X210841625Y-70308948D01*
X210844056Y-70312485D01*
X211037501Y-70525079D01*
X211123666Y-70597124D01*
X211254718Y-70706701D01*
X211254723Y-70706705D01*
X211258010Y-70709453D01*
X211314632Y-70744972D01*
X211497860Y-70859911D01*
X211497864Y-70859913D01*
X211501500Y-70862194D01*
X211568928Y-70892639D01*
X211759555Y-70978711D01*
X211759559Y-70978713D01*
X211763467Y-70980477D01*
X211767587Y-70981697D01*
X211767586Y-70981697D01*
X212034950Y-71060894D01*
X212034954Y-71060895D01*
X212039063Y-71062112D01*
X212043297Y-71062760D01*
X212043302Y-71062761D01*
X212318947Y-71104940D01*
X212318949Y-71104940D01*
X212323189Y-71105589D01*
X212469499Y-71107888D01*
X212606295Y-71110037D01*
X212606301Y-71110037D01*
X212610586Y-71110104D01*
X212895937Y-71075573D01*
X213173961Y-71002635D01*
X213177921Y-71000995D01*
X213177926Y-71000993D01*
X213306737Y-70947637D01*
X213439514Y-70892639D01*
X213687682Y-70747621D01*
X213913873Y-70570265D01*
X213957662Y-70525079D01*
X214110918Y-70366930D01*
X214113901Y-70363852D01*
X214116434Y-70360404D01*
X214116438Y-70360399D01*
X214281527Y-70135657D01*
X214284065Y-70132202D01*
X214316875Y-70071774D01*
X214419166Y-69883377D01*
X214419167Y-69883375D01*
X214421216Y-69879601D01*
X214522816Y-69610724D01*
X214586985Y-69330546D01*
X214597470Y-69213075D01*
X214612317Y-69046716D01*
X214612537Y-69044251D01*
X214613000Y-69000000D01*
X214611492Y-68977873D01*
X242387116Y-68977873D01*
X242394235Y-69101331D01*
X242403662Y-69264829D01*
X242458999Y-69546885D01*
X242460386Y-69550936D01*
X242460387Y-69550940D01*
X242550714Y-69814765D01*
X242550718Y-69814774D01*
X242552103Y-69818820D01*
X242681252Y-70075605D01*
X242683678Y-70079134D01*
X242683681Y-70079140D01*
X242841625Y-70308948D01*
X242844056Y-70312485D01*
X243037501Y-70525079D01*
X243123666Y-70597124D01*
X243254718Y-70706701D01*
X243254723Y-70706705D01*
X243258010Y-70709453D01*
X243314632Y-70744972D01*
X243497860Y-70859911D01*
X243497864Y-70859913D01*
X243501500Y-70862194D01*
X243568928Y-70892639D01*
X243759555Y-70978711D01*
X243759559Y-70978713D01*
X243763467Y-70980477D01*
X243767587Y-70981697D01*
X243767586Y-70981697D01*
X244034950Y-71060894D01*
X244034954Y-71060895D01*
X244039063Y-71062112D01*
X244043297Y-71062760D01*
X244043302Y-71062761D01*
X244318947Y-71104940D01*
X244318949Y-71104940D01*
X244323189Y-71105589D01*
X244469499Y-71107888D01*
X244606295Y-71110037D01*
X244606301Y-71110037D01*
X244610586Y-71110104D01*
X244895937Y-71075573D01*
X245173961Y-71002635D01*
X245177921Y-71000995D01*
X245177926Y-71000993D01*
X245306737Y-70947637D01*
X245439514Y-70892639D01*
X245687682Y-70747621D01*
X245913873Y-70570265D01*
X245957662Y-70525079D01*
X246110918Y-70366930D01*
X246113901Y-70363852D01*
X246116434Y-70360404D01*
X246116438Y-70360399D01*
X246281527Y-70135657D01*
X246284065Y-70132202D01*
X246316875Y-70071774D01*
X246419166Y-69883377D01*
X246419167Y-69883375D01*
X246421216Y-69879601D01*
X246522816Y-69610724D01*
X246586985Y-69330546D01*
X246597470Y-69213075D01*
X246612317Y-69046716D01*
X246612537Y-69044251D01*
X246613000Y-69000000D01*
X246611492Y-68977873D01*
X246593742Y-68717510D01*
X246593741Y-68717504D01*
X246593450Y-68713233D01*
X246535163Y-68431772D01*
X246439216Y-68160827D01*
X246381505Y-68049014D01*
X246309350Y-67909216D01*
X246309350Y-67909215D01*
X246307385Y-67905409D01*
X246142109Y-67670246D01*
X245946448Y-67459689D01*
X245724021Y-67277635D01*
X245673659Y-67246773D01*
X245482595Y-67129688D01*
X245482587Y-67129684D01*
X245478945Y-67127452D01*
X245475028Y-67125733D01*
X245475025Y-67125731D01*
X245359089Y-67074839D01*
X245215753Y-67011919D01*
X245211625Y-67010743D01*
X245211622Y-67010742D01*
X244943445Y-66934350D01*
X244943446Y-66934350D01*
X244939317Y-66933174D01*
X244727073Y-66902968D01*
X244659004Y-66893280D01*
X244659002Y-66893280D01*
X244654752Y-66892675D01*
X244503235Y-66891882D01*
X244371610Y-66891192D01*
X244371604Y-66891192D01*
X244367324Y-66891170D01*
X244363080Y-66891729D01*
X244363076Y-66891729D01*
X244238051Y-66908189D01*
X244082350Y-66928687D01*
X244078210Y-66929820D01*
X244078208Y-66929820D01*
X243809250Y-67003399D01*
X243805105Y-67004533D01*
X243540718Y-67117303D01*
X243391841Y-67206404D01*
X243297764Y-67262708D01*
X243297760Y-67262711D01*
X243294082Y-67264912D01*
X243069761Y-67444627D01*
X242871906Y-67653123D01*
X242704177Y-67886542D01*
X242569678Y-68140565D01*
X242470899Y-68410492D01*
X242469986Y-68414678D01*
X242469986Y-68414679D01*
X242410581Y-68687137D01*
X242410580Y-68687145D01*
X242409668Y-68691327D01*
X242387116Y-68977873D01*
X214611492Y-68977873D01*
X214593742Y-68717510D01*
X214593741Y-68717504D01*
X214593450Y-68713233D01*
X214535163Y-68431772D01*
X214439216Y-68160827D01*
X214381505Y-68049014D01*
X214309350Y-67909216D01*
X214309350Y-67909215D01*
X214307385Y-67905409D01*
X214142109Y-67670246D01*
X213946448Y-67459689D01*
X213724021Y-67277635D01*
X213673659Y-67246773D01*
X213482595Y-67129688D01*
X213482587Y-67129684D01*
X213478945Y-67127452D01*
X213475028Y-67125733D01*
X213475025Y-67125731D01*
X213359089Y-67074839D01*
X213215753Y-67011919D01*
X213211625Y-67010743D01*
X213211622Y-67010742D01*
X212943445Y-66934350D01*
X212943446Y-66934350D01*
X212939317Y-66933174D01*
X212727073Y-66902968D01*
X212659004Y-66893280D01*
X212659002Y-66893280D01*
X212654752Y-66892675D01*
X212503235Y-66891882D01*
X212371610Y-66891192D01*
X212371604Y-66891192D01*
X212367324Y-66891170D01*
X212363080Y-66891729D01*
X212363076Y-66891729D01*
X212238051Y-66908189D01*
X212082350Y-66928687D01*
X212078210Y-66929820D01*
X212078208Y-66929820D01*
X211809250Y-67003399D01*
X211805105Y-67004533D01*
X211540718Y-67117303D01*
X211391841Y-67206404D01*
X211297764Y-67262708D01*
X211297760Y-67262711D01*
X211294082Y-67264912D01*
X211069761Y-67444627D01*
X210871906Y-67653123D01*
X210704177Y-67886542D01*
X210569678Y-68140565D01*
X210470899Y-68410492D01*
X210469986Y-68414678D01*
X210469986Y-68414679D01*
X210410581Y-68687137D01*
X210410580Y-68687145D01*
X210409668Y-68691327D01*
X210387116Y-68977873D01*
X203008000Y-68977873D01*
X203008000Y-63972378D01*
X203008002Y-63971608D01*
X203008037Y-63965939D01*
X203008254Y-63930378D01*
X203004023Y-63915572D01*
X203000141Y-63901987D01*
X202996564Y-63885230D01*
X202993653Y-63864903D01*
X202993652Y-63864900D01*
X202992380Y-63856018D01*
X202988665Y-63847848D01*
X202988664Y-63847844D01*
X202981776Y-63832695D01*
X202975327Y-63815167D01*
X202970752Y-63799158D01*
X202970749Y-63799151D01*
X202968284Y-63790526D01*
X202952528Y-63765555D01*
X202944395Y-63750481D01*
X202932178Y-63723611D01*
X202915450Y-63704197D01*
X202904346Y-63689190D01*
X202890669Y-63667514D01*
X202868544Y-63647974D01*
X202856500Y-63635781D01*
X202843095Y-63620223D01*
X202843091Y-63620220D01*
X202837234Y-63613422D01*
X202815729Y-63599483D01*
X202800855Y-63588193D01*
X202788378Y-63577174D01*
X202781649Y-63571231D01*
X202754923Y-63558683D01*
X202739952Y-63550367D01*
X202715179Y-63534310D01*
X202706575Y-63531737D01*
X202706573Y-63531736D01*
X202690623Y-63526966D01*
X202673178Y-63520304D01*
X202658113Y-63513231D01*
X202658111Y-63513231D01*
X202649987Y-63509416D01*
X202641123Y-63508036D01*
X202641114Y-63508033D01*
X202620820Y-63504873D01*
X202604109Y-63501092D01*
X202584428Y-63495207D01*
X202584425Y-63495207D01*
X202575826Y-63492635D01*
X202566854Y-63492580D01*
X202566853Y-63492580D01*
X202543002Y-63492434D01*
X202540162Y-63492316D01*
X202538135Y-63492000D01*
X202472378Y-63492000D01*
X202471608Y-63491998D01*
X202471052Y-63491995D01*
X202430378Y-63491746D01*
X202429546Y-63491984D01*
X202429308Y-63492000D01*
X47472378Y-63492000D01*
X47471608Y-63491998D01*
X47471352Y-63491996D01*
X47430378Y-63491746D01*
X47421750Y-63494212D01*
X47421749Y-63494212D01*
X47401987Y-63499859D01*
X47385230Y-63503436D01*
X47364903Y-63506347D01*
X47364900Y-63506348D01*
X47356018Y-63507620D01*
X47347848Y-63511335D01*
X47347844Y-63511336D01*
X47332695Y-63518224D01*
X47315167Y-63524673D01*
X47299158Y-63529248D01*
X47299151Y-63529251D01*
X47290526Y-63531716D01*
X47265555Y-63547472D01*
X47250481Y-63555605D01*
X47223611Y-63567822D01*
X47204197Y-63584550D01*
X47189190Y-63595654D01*
X47167514Y-63609331D01*
X47161572Y-63616059D01*
X47147977Y-63631453D01*
X47135781Y-63643500D01*
X47120223Y-63656905D01*
X47120220Y-63656909D01*
X47113422Y-63662766D01*
X47108542Y-63670295D01*
X47108541Y-63670296D01*
X47099483Y-63684271D01*
X47088193Y-63699145D01*
X47071231Y-63718351D01*
X47058683Y-63745077D01*
X47050367Y-63760048D01*
X47034310Y-63784821D01*
X47031737Y-63793425D01*
X47031736Y-63793427D01*
X47026966Y-63809377D01*
X47020304Y-63826822D01*
X47009416Y-63850013D01*
X47008036Y-63858877D01*
X47008033Y-63858886D01*
X47004873Y-63879180D01*
X47001092Y-63895891D01*
X46995207Y-63915572D01*
X46992635Y-63924174D01*
X46992580Y-63933146D01*
X46992580Y-63933147D01*
X46992434Y-63956998D01*
X46992316Y-63959838D01*
X46992000Y-63961865D01*
X46992000Y-64027622D01*
X46991998Y-64028392D01*
X46991746Y-64069622D01*
X33008000Y-64069622D01*
X33008000Y-45977873D01*
X35387116Y-45977873D01*
X35394235Y-46101331D01*
X35403662Y-46264829D01*
X35458999Y-46546885D01*
X35460386Y-46550936D01*
X35460387Y-46550940D01*
X35550714Y-46814765D01*
X35550718Y-46814774D01*
X35552103Y-46818820D01*
X35681252Y-47075605D01*
X35683678Y-47079134D01*
X35683681Y-47079140D01*
X35841625Y-47308948D01*
X35844056Y-47312485D01*
X36037501Y-47525079D01*
X36123666Y-47597124D01*
X36254718Y-47706701D01*
X36254723Y-47706705D01*
X36258010Y-47709453D01*
X36314632Y-47744972D01*
X36497860Y-47859911D01*
X36497864Y-47859913D01*
X36501500Y-47862194D01*
X36568928Y-47892639D01*
X36759555Y-47978711D01*
X36759559Y-47978713D01*
X36763467Y-47980477D01*
X36767587Y-47981697D01*
X36767586Y-47981697D01*
X37034950Y-48060894D01*
X37034954Y-48060895D01*
X37039063Y-48062112D01*
X37043297Y-48062760D01*
X37043302Y-48062761D01*
X37318947Y-48104940D01*
X37318949Y-48104940D01*
X37323189Y-48105589D01*
X37469499Y-48107888D01*
X37606295Y-48110037D01*
X37606301Y-48110037D01*
X37610586Y-48110104D01*
X37895937Y-48075573D01*
X38173961Y-48002635D01*
X38177921Y-48000995D01*
X38177926Y-48000993D01*
X38306738Y-47947637D01*
X38439514Y-47892639D01*
X38687682Y-47747621D01*
X38913873Y-47570265D01*
X38957662Y-47525079D01*
X39110918Y-47366930D01*
X39113901Y-47363852D01*
X39116434Y-47360404D01*
X39116438Y-47360399D01*
X39281527Y-47135657D01*
X39284065Y-47132202D01*
X39316875Y-47071774D01*
X39419166Y-46883377D01*
X39419167Y-46883375D01*
X39421216Y-46879601D01*
X39522816Y-46610724D01*
X39586985Y-46330546D01*
X39597470Y-46213075D01*
X39612317Y-46046716D01*
X39612537Y-46044251D01*
X39613000Y-46000000D01*
X39611492Y-45977873D01*
X138887116Y-45977873D01*
X138894235Y-46101331D01*
X138903662Y-46264829D01*
X138958999Y-46546885D01*
X138960386Y-46550936D01*
X138960387Y-46550940D01*
X139050714Y-46814765D01*
X139050718Y-46814774D01*
X139052103Y-46818820D01*
X139181252Y-47075605D01*
X139183678Y-47079134D01*
X139183681Y-47079140D01*
X139341625Y-47308948D01*
X139344056Y-47312485D01*
X139537501Y-47525079D01*
X139623666Y-47597124D01*
X139754718Y-47706701D01*
X139754723Y-47706705D01*
X139758010Y-47709453D01*
X139814632Y-47744972D01*
X139997860Y-47859911D01*
X139997864Y-47859913D01*
X140001500Y-47862194D01*
X140068928Y-47892639D01*
X140259555Y-47978711D01*
X140259559Y-47978713D01*
X140263467Y-47980477D01*
X140267587Y-47981697D01*
X140267586Y-47981697D01*
X140534950Y-48060894D01*
X140534954Y-48060895D01*
X140539063Y-48062112D01*
X140543297Y-48062760D01*
X140543302Y-48062761D01*
X140818947Y-48104940D01*
X140818949Y-48104940D01*
X140823189Y-48105589D01*
X140969499Y-48107888D01*
X141106295Y-48110037D01*
X141106301Y-48110037D01*
X141110586Y-48110104D01*
X141395937Y-48075573D01*
X141673961Y-48002635D01*
X141677921Y-48000995D01*
X141677926Y-48000993D01*
X141806738Y-47947637D01*
X141939514Y-47892639D01*
X142187682Y-47747621D01*
X142413873Y-47570265D01*
X142457662Y-47525079D01*
X142610918Y-47366930D01*
X142613901Y-47363852D01*
X142616434Y-47360404D01*
X142616438Y-47360399D01*
X142781527Y-47135657D01*
X142784065Y-47132202D01*
X142816875Y-47071774D01*
X142919166Y-46883377D01*
X142919167Y-46883375D01*
X142921216Y-46879601D01*
X143022816Y-46610724D01*
X143086985Y-46330546D01*
X143097470Y-46213075D01*
X143112317Y-46046716D01*
X143112537Y-46044251D01*
X143113000Y-46000000D01*
X143111492Y-45977873D01*
X242387116Y-45977873D01*
X242394235Y-46101331D01*
X242403662Y-46264829D01*
X242458999Y-46546885D01*
X242460386Y-46550936D01*
X242460387Y-46550940D01*
X242550714Y-46814765D01*
X242550718Y-46814774D01*
X242552103Y-46818820D01*
X242681252Y-47075605D01*
X242683678Y-47079134D01*
X242683681Y-47079140D01*
X242841625Y-47308948D01*
X242844056Y-47312485D01*
X243037501Y-47525079D01*
X243123666Y-47597124D01*
X243254718Y-47706701D01*
X243254723Y-47706705D01*
X243258010Y-47709453D01*
X243314632Y-47744972D01*
X243497860Y-47859911D01*
X243497864Y-47859913D01*
X243501500Y-47862194D01*
X243568928Y-47892639D01*
X243759555Y-47978711D01*
X243759559Y-47978713D01*
X243763467Y-47980477D01*
X243767587Y-47981697D01*
X243767586Y-47981697D01*
X244034950Y-48060894D01*
X244034954Y-48060895D01*
X244039063Y-48062112D01*
X244043297Y-48062760D01*
X244043302Y-48062761D01*
X244318947Y-48104940D01*
X244318949Y-48104940D01*
X244323189Y-48105589D01*
X244469499Y-48107888D01*
X244606295Y-48110037D01*
X244606301Y-48110037D01*
X244610586Y-48110104D01*
X244895937Y-48075573D01*
X245173961Y-48002635D01*
X245177921Y-48000995D01*
X245177926Y-48000993D01*
X245306738Y-47947637D01*
X245439514Y-47892639D01*
X245687682Y-47747621D01*
X245913873Y-47570265D01*
X245957662Y-47525079D01*
X246110918Y-47366930D01*
X246113901Y-47363852D01*
X246116434Y-47360404D01*
X246116438Y-47360399D01*
X246281527Y-47135657D01*
X246284065Y-47132202D01*
X246316875Y-47071774D01*
X246419166Y-46883377D01*
X246419167Y-46883375D01*
X246421216Y-46879601D01*
X246522816Y-46610724D01*
X246586985Y-46330546D01*
X246597470Y-46213075D01*
X246612317Y-46046716D01*
X246612537Y-46044251D01*
X246613000Y-46000000D01*
X246611492Y-45977873D01*
X246593742Y-45717510D01*
X246593741Y-45717504D01*
X246593450Y-45713233D01*
X246535163Y-45431772D01*
X246439216Y-45160827D01*
X246381505Y-45049014D01*
X246309350Y-44909216D01*
X246309350Y-44909215D01*
X246307385Y-44905409D01*
X246142109Y-44670246D01*
X245946448Y-44459689D01*
X245724021Y-44277635D01*
X245673659Y-44246773D01*
X245482595Y-44129688D01*
X245482587Y-44129684D01*
X245478945Y-44127452D01*
X245475028Y-44125733D01*
X245475025Y-44125731D01*
X245359089Y-44074839D01*
X245215753Y-44011919D01*
X245211625Y-44010743D01*
X245211622Y-44010742D01*
X245023058Y-43957028D01*
X244939317Y-43933174D01*
X244727073Y-43902968D01*
X244659004Y-43893280D01*
X244659002Y-43893280D01*
X244654752Y-43892675D01*
X244503235Y-43891882D01*
X244371610Y-43891192D01*
X244371604Y-43891192D01*
X244367324Y-43891170D01*
X244363080Y-43891729D01*
X244363076Y-43891729D01*
X244238051Y-43908189D01*
X244082350Y-43928687D01*
X244078210Y-43929820D01*
X244078208Y-43929820D01*
X243809250Y-44003399D01*
X243805105Y-44004533D01*
X243540718Y-44117303D01*
X243391841Y-44206404D01*
X243297764Y-44262708D01*
X243297760Y-44262711D01*
X243294082Y-44264912D01*
X243069761Y-44444627D01*
X242871906Y-44653123D01*
X242704177Y-44886542D01*
X242569678Y-45140565D01*
X242470899Y-45410492D01*
X242469986Y-45414678D01*
X242469986Y-45414679D01*
X242410581Y-45687137D01*
X242410580Y-45687145D01*
X242409668Y-45691327D01*
X242387116Y-45977873D01*
X143111492Y-45977873D01*
X143093742Y-45717510D01*
X143093741Y-45717504D01*
X143093450Y-45713233D01*
X143035163Y-45431772D01*
X142939216Y-45160827D01*
X142881505Y-45049014D01*
X142809350Y-44909216D01*
X142809350Y-44909215D01*
X142807385Y-44905409D01*
X142642109Y-44670246D01*
X142446448Y-44459689D01*
X142224021Y-44277635D01*
X142173659Y-44246773D01*
X141982595Y-44129688D01*
X141982587Y-44129684D01*
X141978945Y-44127452D01*
X141975028Y-44125733D01*
X141975025Y-44125731D01*
X141859089Y-44074839D01*
X141715753Y-44011919D01*
X141711625Y-44010743D01*
X141711622Y-44010742D01*
X141523058Y-43957028D01*
X141439317Y-43933174D01*
X141227073Y-43902968D01*
X141159004Y-43893280D01*
X141159002Y-43893280D01*
X141154752Y-43892675D01*
X141003235Y-43891882D01*
X140871610Y-43891192D01*
X140871604Y-43891192D01*
X140867324Y-43891170D01*
X140863080Y-43891729D01*
X140863076Y-43891729D01*
X140738051Y-43908189D01*
X140582350Y-43928687D01*
X140578210Y-43929820D01*
X140578208Y-43929820D01*
X140309250Y-44003399D01*
X140305105Y-44004533D01*
X140040718Y-44117303D01*
X139891841Y-44206404D01*
X139797764Y-44262708D01*
X139797760Y-44262711D01*
X139794082Y-44264912D01*
X139569761Y-44444627D01*
X139371906Y-44653123D01*
X139204177Y-44886542D01*
X139069678Y-45140565D01*
X138970899Y-45410492D01*
X138969986Y-45414678D01*
X138969986Y-45414679D01*
X138910581Y-45687137D01*
X138910580Y-45687145D01*
X138909668Y-45691327D01*
X138887116Y-45977873D01*
X39611492Y-45977873D01*
X39593742Y-45717510D01*
X39593741Y-45717504D01*
X39593450Y-45713233D01*
X39535163Y-45431772D01*
X39439216Y-45160827D01*
X39381505Y-45049014D01*
X39309350Y-44909216D01*
X39309350Y-44909215D01*
X39307385Y-44905409D01*
X39142109Y-44670246D01*
X38946448Y-44459689D01*
X38724021Y-44277635D01*
X38673659Y-44246773D01*
X38482595Y-44129688D01*
X38482587Y-44129684D01*
X38478945Y-44127452D01*
X38475028Y-44125733D01*
X38475025Y-44125731D01*
X38359089Y-44074839D01*
X38215753Y-44011919D01*
X38211625Y-44010743D01*
X38211622Y-44010742D01*
X38023058Y-43957028D01*
X37939317Y-43933174D01*
X37727073Y-43902968D01*
X37659004Y-43893280D01*
X37659002Y-43893280D01*
X37654752Y-43892675D01*
X37503235Y-43891882D01*
X37371610Y-43891192D01*
X37371604Y-43891192D01*
X37367324Y-43891170D01*
X37363080Y-43891729D01*
X37363076Y-43891729D01*
X37238051Y-43908189D01*
X37082350Y-43928687D01*
X37078210Y-43929820D01*
X37078208Y-43929820D01*
X36809250Y-44003399D01*
X36805105Y-44004533D01*
X36540718Y-44117303D01*
X36391841Y-44206404D01*
X36297764Y-44262708D01*
X36297760Y-44262711D01*
X36294082Y-44264912D01*
X36069761Y-44444627D01*
X35871906Y-44653123D01*
X35704177Y-44886542D01*
X35569678Y-45140565D01*
X35470899Y-45410492D01*
X35469986Y-45414678D01*
X35469986Y-45414679D01*
X35410581Y-45687137D01*
X35410580Y-45687145D01*
X35409668Y-45691327D01*
X35387116Y-45977873D01*
X33008000Y-45977873D01*
X33008000Y-44514187D01*
X33008607Y-44501837D01*
X33014505Y-44441950D01*
X33025999Y-44325260D01*
X33030815Y-44301043D01*
X33080518Y-44137190D01*
X33089971Y-44114371D01*
X33143810Y-44013644D01*
X33170683Y-43963369D01*
X33184399Y-43942842D01*
X33293026Y-43810479D01*
X33310479Y-43793026D01*
X33442842Y-43684399D01*
X33463369Y-43670683D01*
X33614371Y-43589971D01*
X33637191Y-43580518D01*
X33801043Y-43530815D01*
X33825260Y-43525999D01*
X34001837Y-43508607D01*
X34014187Y-43508000D01*
X247985813Y-43508000D01*
X247998163Y-43508607D01*
G37*
%TD.AperFunction*%
M02*
